<svg xmlns="http://www.w3.org/2000/svg" width="27" height="30" viewBox="0 0 27 30">
    <path fill="#0073d2" fill-rule="evenodd" d="M5.69 30c-1.521 0-2.96-.623-4.072-1.773C.452 27.021-.117 25.452.02 23.816c.12-1.535.854-3.059 2.052-4.299L16.242 4.85c2.075-2.146 4.68-2.333 6.486-.464 3.016 3.12.76 5.454-.454 6.71l-9.212 9.532c-.246.255-.65.255-.897 0-.252-.26-.252-.68 0-.934l9.211-9.532c1.774-1.835 2.26-2.973.45-4.842-1.56-1.614-3.498-.759-4.68.465L2.975 20.446c-.991 1.025-1.588 2.26-1.686 3.483-.104 1.257.323 2.424 1.231 3.364.92.951 2.118 1.438 3.377 1.382 1.248-.057 2.468-.64 3.432-1.637l14.454-14.962c2.518-2.606 2.627-6.417.258-8.87-2.43-2.52-6.393-2.52-8.823 0l-7.23 7.482c-.252.255-.657.255-.903 0-.252-.26-.252-.674 0-.934l7.23-7.482c2.928-3.03 7.7-3.03 10.629 0 2.835 2.94 2.725 7.651-.257 10.738L10.233 27.973c-1.193 1.228-2.71 1.948-4.28 2.021-.088 0-.175.006-.263.006z"/>
</svg>
