<svg xmlns="http://www.w3.org/2000/svg" width="11" height="24" viewBox="0 0 11 24">
    <g fill="none" fill-rule="evenodd">
        <g fill="#FFF">
            <g>
                <g>
                    <g>
                        <path d="M236.257 20.199c.324.253.324.678 0 .937l-10.842 8.667c-.162.13-.37.197-.586.197l-.078-.003-.08.003c-.209 0-.425-.068-.587-.197l-10.841-8.667c-.324-.259-.324-.684 0-.937.324-.265.849-.265 1.173 0l10.333 8.261 10.336-8.261c.324-.265.848-.265 1.172 0z" transform="translate(-1149 -1533) translate(240 881) translate(680 10) translate(10 629) rotate(-90 224.75 25)"/>
                    </g>
                </g>
            </g>
        </g>
    </g>
</svg>
