<svg xmlns="http://www.w3.org/2000/svg" width="300" height="229" viewBox="0 0 300 229">
    <g fill="none" fill-rule="evenodd">
        <g>
            <g>
                <g>
                    <path fill="#FFF" d="M0 228.711L300 228.711 300 0 0 0z" transform="translate(-225 -459) translate(40 459) translate(185)"/>
                    <path fill="#000" d="M150.002 206.148c-78.632-28.593-77.515-91.14-76.398-146.316 0-3.352.224-6.479.224-9.606 30.603-1.564 55.175-10.723 76.174-29.04 20.998 18.317 45.57 27.7 76.174 28.816 0 3.127 0 6.255.223 9.606 1.117 55.4 2.234 117.947-76.397 146.54M233.9 64.062c-.204-5.307-.204-10.41-.204-15.31 0-3.878-3.062-6.94-6.941-6.94-30.007-.204-52.871-8.778-71.855-27.149-2.654-2.655-7.145-2.655-9.798 0-18.985 18.371-41.848 26.945-71.651 26.945-3.88 0-6.941 3.061-6.941 6.94 0 4.9 0 10.003-.204 15.514-1.021 50.422-2.45 119.215 81.449 148.201.817.204 1.429.408 2.246.408.816 0 1.633-.204 2.245-.408 83.899-28.986 82.47-97.779 81.654-148.2" transform="translate(-225 -459) translate(40 459) translate(185)"/>
                    <path fill="#0073d2" d="M146.169 92.806c4.003.364 8.716-2.297 12.69-10.43 8.192-16.768-13.8-27.09-18.86-6.14-1.801 7.456 2.166 16.207 6.17 16.57M181.419 98.398c14.419-16.103-6.693-28.097-15.867-11.836-4.45 7.887-3.951 13.245-1.361 16.295 2.592 3.051 12.095 1.272 17.228-4.459M178.045 110.864c-5.649 5.327-6.61 9.831-5.272 12.975 1.34 3.144 9.558 4.08 15.216.685 15.893-9.534 1.702-24.64-9.944-13.66M159.399 113.867c-2.1-7.787-14.444-14.197-21.65-10.729-3.052 1.471-5.634 3.897-10.28 3.988-13.555.266-23.605 14.19-15.48 22.09 5.665 6.654 12.712 4.385 22.442 9.251 9.352 4.676 8.277 10.561 19.657 11.91 7.867 1.281 11.724-6.483 11.773-12.665.036-4.497-1.551-9.366-4.528-14.168-1.186-2.708-1.01-6.25-1.934-9.677M122.418 97.395c3.355-.752 6.483-4.15 7.555-11.81 2.208-15.79-18.433-18.434-16.983-.06.518 6.54 6.073 12.622 9.428 11.87M216.056 215.775c-2.59-.067-4.964-1.355-6.358-3.442l-27.247-41.218c-1.143-1.723-1.533-3.787-1.1-5.814.429-1.997 1.608-3.719 3.323-4.854 1.284-.809 2.757-1.236 4.259-1.236 2.658 0 5.097 1.308 6.523 3.497l21.249 32.092 46.24-59.629c1.487-1.906 3.739-3 6.179-3 1.708 0 3.327.541 4.68 1.564 1.638 1.195 2.735 3.057 3.009 5.104.276 2.04-.297 4.131-1.573 5.74l-52.877 68.19c-1.413 1.882-3.717 3.006-6.161 3.006h-.146z" transform="translate(-225 -459) translate(40 459) translate(185)"/>
                    <path stroke="#FFF" stroke-width="5" d="M273.73 133.834c1.597 1.166 2.69 3.009 2.959 5.023.273 2.007-.294 4.065-1.547 5.644l-52.877 68.193c-1.38 1.837-3.66 2.957-6.063 2.957h-.145c-2.583-.068-4.885-1.333-6.255-3.387l-27.246-41.218c-1.123-1.691-1.51-3.723-1.082-5.718.42-1.964 1.58-3.66 3.268-4.777 1.308-.823 2.76-1.215 4.192-1.215 2.522 0 4.97 1.219 6.417 3.44l21.347 32.238 46.345-59.766c1.509-1.934 3.786-2.951 6.08-2.951 1.613 0 3.234.5 4.607 1.537z" transform="translate(-225 -459) translate(40 459) translate(185)"/>
                </g>
            </g>
        </g>
    </g>
</svg>
