<svg xmlns="http://www.w3.org/2000/svg" xmlns:xlink="http://www.w3.org/1999/xlink" width="70" height="71" viewBox="0 0 70 71">
    <defs>
        <path id="vipia4t4aa" d="M0 0.166L70 0.166 70 47.818 0 47.818z"/>
        <path id="heqzsvkw7c" d="M0 69.735L70 69.735 70 0 0 0z"/>
    </defs>
    <g fill="none" fill-rule="evenodd">
        <g>
            <g>
                <g transform="translate(-419 -1744) translate(220 838) translate(199 906.551)">
                    <g transform="translate(0 21.917)">
                        <mask id="se3ww66pkb" fill="#fff">
                            <use xlink:href="#vipia4t4aa"/>
                        </mask>
                        <path fill="#000" d="M67.667 45.493H2.334v-4.648h65.333v4.648zM8.167 22.73l2.534 2.524c1.76 1.757 4.837 1.757 6.598 0l3.7-3.687 3.702 3.687c1.76 1.757 4.837 1.757 6.598 0l3.7-3.687 3.702 3.687c1.76 1.757 4.837 1.757 6.598 0l3.7-3.687 3.702 3.687c.88.877 2.053 1.361 3.299 1.361s2.418-.484 3.299-1.36l2.535-2.525v15.79H8.167V22.73zM17.5 12.95h44.334v6.492L57.65 23.61c-.882.878-2.418.878-3.3 0l-3.7-3.685c-.91-.907-2.391-.907-3.3 0l-3.7 3.685c-.882.878-2.418.878-3.3 0l-3.7-3.685c-.91-.907-2.391-.907-3.3 0l-3.7 3.685c-.882.878-2.418.878-3.3 0l-3.7-3.685c-.91-.907-2.391-.907-3.3 0l-3.7 3.685c-.882.878-2.418.878-3.3 0l-4.183-4.167v-6.492H17.5zm1.167-2.325H21V2.49h-2.333v8.135zm15.167 0h2.333V2.49h-2.333v8.135zm15.166 0h2.333V2.49H49v8.135zM68.834 38.52h-4.667V11.788c0-.641-.521-1.162-1.167-1.162h-9.333V1.328c0-.641-.521-1.162-1.167-1.162h-4.666c-.646 0-1.167.52-1.167 1.162v9.298H38.5V1.328c0-.641-.521-1.162-1.166-1.162h-4.667c-.646 0-1.167.52-1.167 1.162v9.298h-8.166V1.328c0-.641-.522-1.162-1.167-1.162H17.5c-.645 0-1.166.52-1.166 1.162v9.298H7c-.645 0-1.166.52-1.166 1.162V38.52H1.167C.52 38.52 0 39.04 0 39.682v6.974c0 .641.52 1.162 1.167 1.162h67.667c.645 0 1.166-.52 1.166-1.162v-6.974c0-.641-.521-1.162-1.166-1.162z" mask="url(#se3ww66pkb)"/>
                    </g>
                    <path fill="#000" d="M19.833 17.434c-.476 0-1.167-.906-1.167-2.325 0-.722.558-1.794 1.165-2.707.59.89 1.17 1.977 1.17 2.707 0 1.42-.692 2.325-1.168 2.325m-.888-7.729c-.267.313-2.612 3.116-2.612 5.404 0 2.607 1.537 4.65 3.5 4.65s3.5-2.043 3.5-4.65c0-2.288-2.345-5.09-2.612-5.404-.445-.516-1.33-.516-1.776 0M34.998 12.402c.59.89 1.169 1.976 1.169 2.707 0 1.42-.691 2.325-1.167 2.325-.476 0-1.167-.905-1.167-2.325 0-.722.558-1.794 1.165-2.707M35 19.758c1.964 0 3.5-2.042 3.5-4.649 0-2.288-2.345-5.092-2.612-5.403-.445-.516-1.331-.516-1.775 0-.268.311-2.613 3.115-2.613 5.403 0 2.607 1.537 4.65 3.5 4.65M50.164 12.402c.59.89 1.17 1.976 1.17 2.707 0 1.42-.69 2.325-1.168 2.325-.476 0-1.167-.905-1.167-2.325 0-.722.558-1.794 1.165-2.707m.002 7.356c1.964 0 3.5-2.042 3.5-4.649 0-2.288-2.345-5.092-2.612-5.403-.444-.516-1.33-.516-1.774 0-.269.311-2.614 3.115-2.614 5.403 0 2.607 1.537 4.65 3.5 4.65"/>
                    <mask id="adll3iy64d" fill="#fff">
                        <use xlink:href="#heqzsvkw7c"/>
                    </mask>
                    <path fill="#000" d="M33.833 4.648L36.166 4.648 36.166 0 33.833 0zM21.197 2.97L23.138 1.679 25.472 5.167 23.53 6.456zM44.53 5.164L46.863 1.678 48.805 2.967 46.471 6.454z" mask="url(#adll3iy64d)"/>
                </g>
            </g>
        </g>
    </g>
</svg>
