<svg xmlns="http://www.w3.org/2000/svg" xmlns:xlink="http://www.w3.org/1999/xlink" width="70" height="71" viewBox="0 0 70 71">
    <defs>
        <path id="6qwel6wwma" d="M0 0L70 0 70 69.491 0 69.491z"/>
    </defs>
    <g fill="none" fill-rule="evenodd">
        <g>
            <g>
                <g transform="translate(-419 -2051) translate(220 838) translate(199 1213.384)">
                    <mask id="l9endb795b" fill="#fff">
                        <use xlink:href="#6qwel6wwma"/>
                    </mask>
                    <path fill="#000" d="M18.261 52.776h34.371v-34.24H18.261v34.24zm19.297 14.569V57.067h5.341v7.323c0 1.184.899 2.254 2.086 2.287 1.238.035 2.221-.921 2.221-2.144v-7.466H54.7c1.189 0 2.153-.96 2.153-2.146v-7.465h8.041c1.188 0 2.261-.896 2.295-2.08.036-1.232-.924-2.211-2.152-2.211h-8.184v-5.32h10.95c1.197 0 2.173-.954 2.197-2.147.024-1.224-.967-2.23-2.197-2.23H56.94v-5.321h7.954c1.188 0 2.261-.896 2.295-2.08.036-1.231-.924-2.21-2.152-2.21h-8.184v-7.466c0-1.186-.964-2.146-2.153-2.146h-7.494V6.492c0-1.183-.9-2.252-2.087-2.286-1.238-.036-2.22.92-2.22 2.144v7.895h-5.341v-12.1C37.558.96 36.593 0 35.404 0c-1.19 0-2.153.96-2.153 2.146v12.099H27.91V6.492c0-1.183-.9-2.252-2.087-2.286-1.237-.036-2.22.92-2.22 2.144v7.895h-7.494c-1.19 0-2.154.96-2.154 2.146v7.466H6.603c-1.187 0-2.261.896-2.295 2.078-.036 1.234.925 2.212 2.153 2.212h7.494v5.32H2.153C.964 33.468 0 34.429 0 35.614s.964 2.145 2.153 2.145h11.716v5.407H6.603c-1.187 0-2.261.896-2.295 2.078-.036 1.234.925 2.213 2.153 2.213h7.494v7.465c0 1.186.964 2.146 2.154 2.146h7.494v7.323c0 1.184.9 2.254 2.087 2.287 1.237.035 2.22-.921 2.22-2.144v-7.466h5.341v10.278c0 1.184.963 2.146 2.153 2.146 1.189 0 2.154-.962 2.154-2.146zm-10.251-23.58h16.281V27.548H27.307v16.219zm-2.154 4.291h20.588c1.206 0 2.154-.944 2.154-2.146V25.4c0-1.201-.948-2.144-2.154-2.144H25.153c-1.206 0-2.153.943-2.153 2.144v20.51c0 1.202.947 2.146 2.153 2.146z" mask="url(#l9endb795b)"/>
                </g>
            </g>
        </g>
    </g>
</svg>
