<svg xmlns="http://www.w3.org/2000/svg" xmlns:xlink="http://www.w3.org/1999/xlink" width="60" height="75" viewBox="0 0 60 75">
    <defs>
        <path id="b1w29rbqwa" d="M0 71.742L60 71.742 60 0 0 0z"/>
    </defs>
    <g fill="none" fill-rule="evenodd">
        <g>
            <g>
                <g>
                    <g transform="translate(-420 -2361) translate(220 838) translate(200 1520.217) translate(0 3.985)">
                        <path fill="#000" d="M35.936 30.778c1.38.125 3.007-.79 4.378-3.584 2.825-5.763-4.761-9.309-6.506-2.11-.622 2.562.747 5.57 2.128 5.694M48.096 32.7c4.974-5.534-2.31-9.655-5.474-4.067-1.535 2.71-1.363 4.551-.469 5.6.894 1.048 4.172.438 5.943-1.533M46.932 36.984c-1.95 1.83-2.28 3.379-1.818 4.459.462 1.08 3.297 1.402 5.248.236 5.483-3.277.588-8.469-3.43-4.695M40.5 38.016c-.725-2.677-4.983-4.878-7.469-3.687-1.053.506-1.943 1.34-3.546 1.37-4.676.092-8.143 4.876-5.34 7.592 1.955 2.286 4.385 1.507 7.742 3.178 3.225 1.608 2.855 3.63 6.781 4.094 2.713.44 4.044-2.228 4.06-4.352.013-1.546-.535-3.22-1.562-4.87-.409-.93-.348-2.148-.667-3.325M27.742 32.356c1.159-.26 2.238-1.428 2.607-4.059.761-5.426-6.358-6.336-5.858-.022.178 2.249 2.095 4.339 3.252 4.08"/>
                        <mask id="ahyj30ffib" fill="#fff">
                            <use xlink:href="#b1w29rbqwa"/>
                        </mask>
                        <path fill="#000" d="M16.835 69.303h40.791V2.365H16.835v66.938zm-2.373 0H7.268v-9.825h2.967c.816 0 1.483-.666 1.483-1.479 0-.813-.667-1.477-1.483-1.477H7.268v-9.457h2.967c.816 0 1.483-.666 1.483-1.479 0-.812-.667-1.477-1.483-1.477H7.268v-9.457h2.967c.816 0 1.483-.665 1.483-1.478 0-.812-.667-1.478-1.483-1.478H7.268V22.24h2.967c.816 0 1.483-.664 1.483-1.477 0-.813-.667-1.479-1.483-1.479H7.268V9.826h2.967c.816 0 1.483-.664 1.483-1.477 0-.813-.667-1.478-1.483-1.478H7.268V2.365h7.194v66.938zM2.967 61.176c0-1.256 1.187-1.551 1.854-1.625v3.694c-.667-.296-1.854-.812-1.854-2.069zm0-12.412c0-1.256 1.187-1.552 1.854-1.626v3.694c-.667-.295-1.854-.811-1.854-2.068zm0-12.412c0-1.257 1.187-1.553 1.854-1.626v3.694c-.667-.296-1.854-.812-1.854-2.068zm0-12.413c0-1.256 1.187-1.552 1.854-1.626v3.694c-.667-.295-1.854-.812-1.854-2.068zm0-12.413c0-1.256 1.187-1.552 1.854-1.626v3.694c-.667-.22-1.854-.812-1.854-2.068zM16.835 0H4.821v6.944C2.819 7.093 0 8.35 0 11.526c0 3.399 3.115 4.802 4.821 5.098v2.733C2.819 19.506 0 20.762 0 23.94c0 3.398 3.115 4.801 4.821 5.097v2.734C2.819 31.918 0 33.174 0 36.352c0 3.398 3.115 4.801 4.821 5.097v2.734C2.819 44.33 0 45.586 0 48.764c0 3.398 3.115 4.802 4.821 5.098v2.733C2.819 56.744 0 58.074 0 61.176c0 3.4 3.115 4.803 4.821 5.099v5.467H60V0H16.835z" mask="url(#ahyj30ffib)"/>
                    </g>
                </g>
            </g>
        </g>
    </g>
</svg>
