<svg xmlns="http://www.w3.org/2000/svg" xmlns:xlink="http://www.w3.org/1999/xlink" width="54" height="97" viewBox="0 0 54 97">
    <defs>
        <path id="b07vfcr7la" d="M0 0.581L54 0.581 54 94.64 0 94.64z"/>
    </defs>
    <g fill="none" fill-rule="evenodd">
        <g>
            <g>
                <g>
                    <g transform="translate(-425 -1525) translate(220 838) translate(205 687.385) translate(0 .415)">
                        <mask id="cj4w3bt5sb" fill="#fff">
                            <use xlink:href="#b07vfcr7la"/>
                        </mask>
                        <path fill="#000" d="M27.656 24.655c2.52 0 4.57 2.04 4.57 4.55s-2.05 4.552-4.57 4.552c-2.519 0-4.568-2.042-4.568-4.552s2.05-4.55 4.568-4.55zm23.721 59.353c0 4.422-3.61 8.02-8.05 8.02H10.672c-4.439 0-8.05-3.598-8.05-8.02V35.374c0-4.123 3.366-7.475 7.503-7.475.725 0 1.312-.585 1.312-1.307 0-3.766 3.076-6.83 6.857-6.83h.51c1.235 1.844 2.672 3.47 3.956 4.768-1.172 1.216-1.9 2.86-1.9 4.675 0 3.734 3.046 6.771 6.795 6.771 3.748 0 6.797-3.037 6.797-6.77 0-3.736-3.049-6.772-6.797-6.772-.965 0-1.88.208-2.713.572-.92-.908-1.948-2.007-2.917-3.244h13.68c3.78 0 6.856 3.064 6.856 6.83 0 .722.587 1.307 1.311 1.307 4.138 0 7.504 3.352 7.504 7.475v48.634zM45.105 25.36c-.567-4.31-4.065-7.713-8.429-8.157H20.282l-.036-.053c-1.02-1.762-1.737-3.644-1.737-5.498 0-4.663 3.81-8.458 8.491-8.458 4.682 0 8.491 3.795 8.491 8.458 0 1.66-.596 3.512-1.747 5.498l2.932.053c.941-1.938 1.438-3.802 1.438-5.551C38.114 5.547 33.128.582 27 .582c-6.129 0-11.114 4.965-11.114 11.07 0 1.899.572 3.779 1.434 5.55-4.362.447-7.858 3.848-8.425 8.158C3.89 25.968 0 30.226 0 35.374v48.634C0 89.87 4.788 94.64 10.673 94.64h32.653C49.212 94.64 54 89.87 54 84.008V35.374c0-5.148-3.89-9.406-8.895-10.014z" mask="url(#cj4w3bt5sb)"/>
                    </g>
                    <path fill="#000" d="M43.448 58.968c0 2.28-1.83 4.103-4.12 4.103-2.288 0-4.119-1.824-4.119-4.103V57.86c0-2.279 1.831-4.103 4.12-4.103 2.288 0 4.12 1.824 4.12 4.103v1.108zm-3.858 18.5c-2.616 2.606-7.193 2.606-9.809 0l-.85-.847c-.653-.652-1.765-.652-2.419 0l-.915.847c-2.68 2.67-7.128 2.67-9.809 0-2.68-2.671-2.68-7.101 0-9.771l9.874-9.772c.59-.52 1.308-.846 2.158-.846.785-.065 1.504.26 2.092.846l9.743 9.772c1.308 1.302 2.027 3.061 2.027 4.885-.065 1.824-.784 3.584-2.092 4.886zm-27.725-18.5V57.86c0-2.279 1.831-4.103 4.12-4.103 2.288 0 4.12 1.824 4.12 4.103v1.108c0 2.28-1.832 4.103-4.12 4.103-2.289 0-4.12-1.824-4.12-4.103zm6.997-8.99c0-2.214 1.831-4.104 4.12-4.104 2.288 0 4.12 1.824 4.12 4.104v1.108c0 2.28-1.832 4.103-4.12 4.103-2.289 0-4.12-1.824-4.12-4.103v-1.108zm17.59 0v1.108c0 2.28-1.832 4.103-4.12 4.103-2.289 0-4.12-1.824-4.12-4.103v-1.108c0-2.214 1.831-4.104 4.12-4.104 2.288 0 4.12 1.824 4.12 4.104z" transform="translate(-425 -1525) translate(220 838) translate(205 687.385)"/>
                </g>
            </g>
        </g>
    </g>
</svg>
