<svg xmlns="http://www.w3.org/2000/svg" xmlns:xlink="http://www.w3.org/1999/xlink" width="240" height="187" viewBox="0 0 240 187">
    <defs>
        <path id="5blatibqia" d="M0.127 0.916L121 0.916 121 112.316 0.127 112.316z"/>
        <path id="savqrzuy1c" d="M0 0.491L143.764 0.491 143.764 136 0 136z"/>
        <path id="0l18o5ktee" d="M0 0.49L143.764 0.49 143.764 136 0 136z"/>
        <path id="l97jy3gdgg" d="M0 186.084L240 186.084 240 1 0 1z"/>
    </defs>
    <g fill="none" fill-rule="evenodd">
        <g>
            <g>
                <g>
                    <g transform="translate(-255 -3898) translate(40 3678) translate(0 220) translate(215)">
                        <g transform="translate(119 .084)">
                            <mask id="tr1e87swfb" fill="#fff">
                                <use xlink:href="#5blatibqia"/>
                            </mask>
                            <path fill="#000" d="M4.049 16.658V4.838h97.287v11.82H4.049zm12.659 3.922c0-.24.01.235.03 0h15.689c.02.235.03-.24.03 0h-15.75zm19.672 0c0-.239-.01.236-.024 0h32.673c-.014.237-.022-.238-.022 0H36.38zm42.466 11.767H26.539h52.307zM13.328 88.852h78.729V36.27h-78.73v52.583zm59.6-68.272c0-.238.012.237.033 0h15.695c.02.234.03-.24.03 0H72.929zm32.329-1.96V4.836h11.82v103.557h-11.82V18.62zm-82.64 13.727h-11.25c-1.083 0-1.961.878-1.961 1.961v56.505c0 1.083.878 1.961 1.96 1.961h82.652c1.083 0 1.96-.878 1.96-1.96V34.307c0-1.083-.877-1.96-1.96-1.96H22.617zM92.609 20.58c0-.24-.01.236-.022 0h8.749v89.775c0 1.083.878 1.961 1.96 1.961h15.743c1.083 0 1.96-.878 1.96-1.96V2.875c0-1.083-.877-1.96-1.96-1.96H2.087c-1.082 0-1.96.877-1.96 1.96V18.62c0 1.082.878 1.961 1.96 1.961H12.81c-.013.237-.024-.239-.024 0h79.823z" mask="url(#tr1e87swfb)"/>
                        </g>
                        <path fill="#000" d="M165.248 56.202h-8.765c-1.083 0-1.96.878-1.96 1.961v8.962c0 1.083.877 1.961 1.96 1.961h8.765v8.773c0 1.083.878 1.961 1.961 1.961h8.965c1.083 0 1.961-.878 1.961-1.96v-8.774h8.776c1.083 0 1.961-.878 1.961-1.96v-8.963c0-1.083-.878-1.96-1.96-1.96h-8.777V47.43c0-1.083-.878-1.96-1.96-1.96h-8.966c-1.083 0-1.96.877-1.96 1.96v8.771z"/>
                        <path fill="#000" d="M150.46 62.647c0-11.71 9.524-21.234 21.232-21.234s21.233 9.526 21.233 21.234c0 11.707-9.525 21.232-21.233 21.232s-21.232-9.525-21.232-21.232m-3.922 0c0 13.87 11.284 25.154 25.154 25.154s25.155-11.284 25.155-25.154c0-13.871-11.284-25.156-25.155-25.156-13.87 0-25.154 11.285-25.154 25.156"/>
                        <g transform="translate(0 50.084)">
                            <mask id="blebkudd1d" fill="#fff">
                                <use xlink:href="#savqrzuy1c"/>
                            </mask>
                            <path fill="#FFF" d="M127.23 6.016C121.533 1.42 114.22-.435 107.186.94c-7.114 1.383-13.37 5.826-17.85 12.619-4.5-2.221-9.85-2.702-17.055-2.702-7.95 0-13.15.488-17.547 2.95-4.56-7.21-11.02-11.787-18.444-13C28.568-.456 20.727 2.1 14.76 7.803 3.269 18.782-4.496 38.888 2.9 56.069l.178.415c3.109 7.228 4.82 11.209 8.499 11.958 2.98.616 5.626-1.462 7.825-3.562 7.868-7.521 8.876-16.405 9.763-24.242.779-6.846 1.449-12.756 6.183-17.282.886-.844 1.654-1.2 2.274-1.081 1.05.214 2.752 1.798 4.612 5.723-6.96 13.108-16.55 46.745-18.12 61.143-.225 2.079-.342 4.112-.342 6.044 0 23.468 9.59 37.482 25.653 37.482 2.954 0 5.784-.672 8.446-1.795C60.21 133.946 65.45 136 71.877 136c6.429 0 11.67-2.053 14.008-5.127 2.66 1.122 5.49 1.794 8.443 1.794 16.062 0 25.653-14.46 25.653-38.673 0-1.525-.067-3.104-.2-4.691-1.156-14.156-9.65-47.977-17.514-62.196 1.054-1.353 2.305-2.21 3.609-2.454 1.295-.24 2.585.139 3.828 1.14 4.803 3.873 5.34 9.337 5.965 15.666.737 7.476 1.57 15.95 9.936 22.697 2.04 1.645 4.759 3.439 7.65 2.615 3.662-1.024 5.202-5.291 7.753-12.358l.54-1.497c6.518-17.963-2.27-37.191-14.317-46.9" mask="url(#blebkudd1d)"/>
                        </g>
                        <path fill="#000" d="M61.733 100.175c-3.038 0-5.512 2.473-5.512 5.51 0 3.04 2.474 5.513 5.512 5.513 3.039 0 5.513-2.472 5.513-5.512 0-3.038-2.474-5.511-5.513-5.511M82.024 100.175c-3.04 0-5.513 2.473-5.513 5.51 0 3.04 2.474 5.513 5.513 5.513 3.04 0 5.515-2.472 5.515-5.512 0-3.038-2.474-5.511-5.515-5.511"/>
                        <g transform="translate(0 50.084)">
                            <mask id="ilj3for7cf" fill="#fff">
                                <use xlink:href="#0l18o5ktee"/>
                            </mask>
                            <path fill="#000" d="M136.46 51.07l-.545 1.505c-1.382 3.826-3.1 8.587-4.114 8.983-.006-.001-.734.047-2.799-1.616-6.597-5.32-7.253-11.972-7.946-19.014-.68-6.908-1.384-14.051-7.956-19.348-2.457-1.981-5.37-2.781-8.22-2.248-3.253.609-6.144 2.857-8.145 6.33-.495.86-.479 1.924.041 2.769 7.014 11.406 16.338 45.745 17.611 61.317.12 1.468.178 2.884.178 4.246 0 10-1.97 33.258-20.238 33.258-3.07 0-6.005-.88-8.635-2.448-.053-.025-.093-.07-.148-.092-5.356-3.263-9.409-9.411-10.714-16.872.422-1.911 1.46-4.27 3.971-5.831.857-.533 1.871-1.113 2.975-1.745 6.447-3.694 15.276-8.754 15.406-16.1.084-4.652-1.262-8.43-3.994-11.226-3.987-4.075-10.48-5.916-21.083-5.968l-.473.002c-10.58.05-17.074 1.89-21.058 5.966-2.736 2.796-4.08 6.573-3.997 11.228.13 7.346 8.96 12.404 15.406 16.098 1.101.632 2.118 1.212 2.975 1.745 2.517 1.564 3.552 3.913 3.973 5.815-1.303 7.469-5.358 13.623-10.72 16.889-.054.022-.093.065-.145.09-2.63 1.57-5.568 2.449-8.64 2.449-18.267 0-20.238-22.426-20.238-32.067 0-1.737.103-3.573.31-5.456 1.536-14.092 11.516-48.864 18.104-60.251.428-.74.381-1.871.042-2.657-2.51-5.84-5.518-9.154-8.943-9.85-1.682-.35-4.3-.198-7.095 2.473-6.148 5.879-6.997 13.355-7.816 20.584-.862 7.597-1.677 14.773-8.129 20.938-2.23 2.13-3.002 2.168-2.977 2.179-1.032-.425-2.944-4.874-4.632-8.8l-.18-.417c-6.419-14.912.49-32.523 10.63-42.211 4.73-4.521 10.89-6.55 16.916-5.567 6.563 1.07 12.256 5.61 16.026 12.78.378.719 1.06 1.229 1.857 1.392.784.156 1.621-.041 2.25-.555.171-.14.35-.275.53-.405 3.27-2.37 7.053-3.092 16.2-3.092 8.74 0 13.042.837 16.442 3.196.626.434 1.404.589 2.154.413.746-.173 1.382-.652 1.754-1.32 3.737-6.707 9.272-11.077 15.588-12.305 5.473-1.06 11.161.386 15.615 3.977 10.552 8.504 18.277 25.262 12.626 40.84m-64.583 50.158c-.973-1.391-2.29-2.717-4.062-3.818-.903-.562-1.977-1.177-3.14-1.845-4.716-2.702-12.61-7.224-12.689-11.496-.055-3.197.748-5.6 2.458-7.348 2.85-2.916 8.32-4.295 17.194-4.34l.461.002c8.896.043 14.364 1.422 17.216 4.338 1.71 1.748 2.513 4.15 2.457 7.347-.077 4.273-7.972 8.795-12.69 11.499-1.162.666-2.235 1.28-3.138 1.843-1.774 1.102-3.089 2.427-4.067 3.818m0 29.356c-4.755 0-7.836-1.336-9.162-2.395 3.844-2.806 7.032-6.787 9.164-11.55 2.133 4.763 5.32 8.744 9.163 11.549-1.326 1.06-4.408 2.396-9.165 2.396m55.354-124.57c-5.699-4.594-13.01-6.45-20.046-5.075-7.114 1.383-13.369 5.827-17.85 12.62-4.5-2.221-9.85-2.702-17.055-2.702-7.95 0-13.15.487-17.547 2.949-4.559-7.21-11.02-11.787-18.445-13C28.568-.456 20.726 2.1 14.76 7.803 3.268 18.782-4.497 38.888 2.901 56.069l.178.416c3.108 7.228 4.82 11.209 8.498 11.958 2.98.615 5.627-1.463 7.826-3.563 7.867-7.521 8.876-16.404 9.763-24.242.778-6.846 1.448-12.756 6.182-17.282.887-.844 1.654-1.2 2.274-1.081 1.051.214 2.753 1.798 4.612 5.724-6.958 13.107-16.549 46.744-18.119 61.143-.225 2.078-.343 4.112-.343 6.043 0 23.469 9.591 37.482 25.654 37.482 2.954 0 5.784-.672 8.446-1.794C60.21 133.946 65.45 136 71.877 136c6.428 0 11.67-2.053 14.007-5.127 2.661 1.122 5.491 1.794 8.443 1.794 16.063 0 25.654-14.458 25.654-38.673 0-1.525-.067-3.104-.2-4.691-1.157-14.155-9.65-47.977-17.514-62.195 1.053-1.354 2.304-2.21 3.608-2.455 1.295-.24 2.585.139 3.828 1.14 4.804 3.874 5.34 9.338 5.966 15.666.736 7.477 1.57 15.95 9.936 22.697 2.04 1.645 4.76 3.439 7.65 2.616 3.661-1.025 5.201-5.292 7.753-12.358l.54-1.497c6.518-17.964-2.269-37.192-14.317-46.901" mask="url(#ilj3for7cf)"/>
                        </g>
                        <mask id="o3s3eicqah" fill="#fff">
                            <use xlink:href="#l97jy3gdgg"/>
                        </mask>
                        <path fill="#000" d="M137.504 34.613L141.281 34.613 141.281 20.594 137.504 20.594zM202.104 34.613L205.881 34.613 205.881 20.594 202.104 20.594z" mask="url(#o3s3eicqah)"/>
                    </g>
                </g>
            </g>
        </g>
    </g>
</svg>
