<svg xmlns="http://www.w3.org/2000/svg" xmlns:xlink="http://www.w3.org/1999/xlink" width="162" height="136" viewBox="0 0 162 136">
    <defs>
        <path id="yb52ahmaca" d="M0 0.165L161.999 0.165 161.999 135 0 135z"/>
    </defs>
    <g fill="none" fill-rule="evenodd">
        <g>
            <g>
                <g>
                    <g>
                        <g transform="translate(-294 -5434) translate(40 3678) translate(0 1756) translate(254) translate(0 .835)">
                            <mask id="m49gh3woob" fill="#fff">
                                <use xlink:href="#yb52ahmaca"/>
                            </mask>
                            <path fill="#000" d="M146.77 63.134c-15.13-11.732-39.339-18.65-65.769-18.65-26.327 0-50.634 6.933-65.768 18.65-5.467-5.34-8.586-11.376-8.586-17.711 0-20.93 34.05-38.614 74.354-38.614 40.305 0 74.351 17.684 74.351 38.614 0 6.333-3.119 12.372-8.582 17.71zm8.582 26.608c0 20.93-34.046 38.615-74.35 38.615-9.232 0-18.134-.93-26.379-2.612-7.289-4.321-11.603-11.361-11.603-19.052 0-7.283 4.017-14.18 10.771-18.534 8.473 1.636 17.621 2.522 27.21 2.522 28.01 0 52.276-7.56 66.765-19.308.823-.065 1.625-.435 2.215-1.1.4-.446.655-.968.771-1.512 1.717-1.623 3.252-3.312 4.6-5.063v26.044zM20.454 67.517c14.06-10.315 36.31-16.388 60.547-16.388 23.953 0 46.574 6.2 60.538 16.39-13.613 9.913-35.91 16.517-60.538 16.517-24.634 0-46.93-6.604-60.547-16.52zM6.647 89.742V63.696c7.651 9.938 21.431 17.924 38.837 22.56-5.79 5.469-9.11 12.765-9.11 20.437 0 5.529 1.753 10.88 4.9 15.485-20.65-6.946-34.627-19.024-34.627-32.436zM81.001.165C35.582.165 0 20.045 0 45.423v44.319c0 19.776 21.605 36.213 52.638 42.506.591.309 1.232.423 1.846.362 8.275 1.552 17.19 2.39 26.518 2.39C126.421 135 162 115.12 162 89.742v-44.32C162 20.046 126.421.166 81.001.166z" mask="url(#m49gh3woob)"/>
                        </g>
                        <path fill="#000" d="M65.847 102.98c-3.733 0-6.771 3.035-6.771 6.767 0 3.73 3.038 6.764 6.771 6.764 3.73 0 6.767-3.034 6.767-6.763 0-3.733-3.037-6.769-6.767-6.769M92.556 103.265c-3.73 0-6.766 3.035-6.766 6.767 0 3.73 3.036 6.765 6.766 6.765s6.767-3.035 6.767-6.765c0-3.732-3.037-6.767-6.766-6.767M119.269 98.001c-3.733 0-6.77 3.035-6.77 6.766s3.037 6.766 6.77 6.766c3.73 0 6.767-3.035 6.767-6.766s-3.037-6.766-6.767-6.766" transform="translate(-294 -5434) translate(40 3678) translate(0 1756) translate(254)"/>
                    </g>
                </g>
            </g>
        </g>
    </g>
</svg>
