<svg xmlns="http://www.w3.org/2000/svg" width="241" height="148" viewBox="0 0 241 148">
    <g fill="none" fill-rule="evenodd">
        <g>
            <g>
                <g>
                    <g>
                        <path fill="#000" d="M158.306 84.959c3.292 0 5.961 2.668 5.961 5.96 0 3.294-2.669 5.963-5.96 5.963-3.293 0-5.962-2.67-5.962-5.963 0-3.291 2.67-5.96 5.961-5.96" transform="translate(-255 -4686) translate(40 3678) translate(0 1008) translate(215)"/>
                        <path stroke="#FFF" stroke-width="1.5" d="M158.306 84.959c3.292 0 5.961 2.668 5.961 5.96 0 3.294-2.669 5.963-5.96 5.963-3.293 0-5.962-2.67-5.962-5.963 0-3.291 2.67-5.96 5.961-5.96z" transform="translate(-255 -4686) translate(40 3678) translate(0 1008) translate(215)"/>
                        <path fill="#000" d="M184.55 84.959c3.292 0 5.962 2.668 5.962 5.96 0 3.294-2.67 5.963-5.962 5.963s-5.96-2.67-5.96-5.963c0-3.291 2.668-5.96 5.96-5.96" transform="translate(-255 -4686) translate(40 3678) translate(0 1008) translate(215)"/>
                        <path stroke="#FFF" stroke-width="1.5" d="M184.55 84.959c3.292 0 5.962 2.668 5.962 5.96 0 3.294-2.67 5.963-5.962 5.963s-5.96-2.67-5.96-5.963c0-3.291 2.668-5.96 5.96-5.96z" transform="translate(-255 -4686) translate(40 3678) translate(0 1008) translate(215)"/>
                        <path fill="#000" d="M213.41 112.95l-13.41.454c-2.042.068-3.642 1.78-3.574 3.823.068 2 1.711 3.575 3.694 3.575.046 0 .088 0 .13-.002l8.831-.299c-8.138 11.19-21.975 18.572-37.655 18.572s-29.517-7.383-37.655-18.572l8.835.3.13.001c1.984 0 3.625-1.576 3.694-3.575.068-2.043-1.532-3.755-3.573-3.823l-13.414-.454c-.464-1.054-.907-2.118-1.278-3.212l13.966 2.29c.205.032.407.05.605.05 1.782 0 3.352-1.289 3.648-3.104.331-2.016-1.038-3.92-3.052-4.25l-16.922-2.775c-.184-1.53-.298-3.08-.298-4.654 0-4.58.798-9.083 2.375-13.382.152-.414.228-.853.228-1.294-.01-2.192 0-4.433.034-6.719.073-5.298.278-20.227 4.33-26.328l17.668 12.233c1.003.698 2.284.846 3.421.416 5.404-2.056 11.371-3.143 17.258-3.143 5.701 0 11.037.914 16.312 2.794 1.11.403 2.353.24 3.33-.429l17.402-11.885c2.695 4.084 4.154 12.918 4.344 26.348l.034 3.624c.004.524.118 1.041.34 1.518 2.36 5.148 3.552 10.615 3.552 16.247 0 1.575-.114 3.124-.299 4.654l-16.917 2.774c-2.015.331-3.383 2.235-3.052 4.251.296 1.815 1.866 3.103 3.648 3.103.198 0 .4-.017.604-.049l13.962-2.289c-.37 1.093-.813 2.157-1.277 3.211zm-68.674 26.681c7.84 4.318 16.945 6.842 26.69 6.842 6.536 0 12.772-1.167 18.553-3.205l6.984-2.983c8.944-4.642 16.286-11.637 21.077-20.087l14.591-.495c2.04-.068 3.64-1.78 3.572-3.823-.068-1.999-1.71-3.575-3.694-3.575-.046 0-.088 0-.129.002l-10.915.37c.493-1.392.908-2.814 1.267-4.258l14.166-2.323c2.015-.33 3.383-2.235 3.053-4.25-.33-2.018-2.205-3.38-4.253-3.055l-11.74 1.925c.084-1.135.186-2.266.186-3.42 0-6.437-1.312-12.689-3.9-18.597l-.026-2.904c-.278-19.487-2.999-29.673-9.099-34.056-1.265-.914-2.964-.928-4.245-.052l-18.456 12.605c-5.499-1.758-11.078-2.613-16.992-2.613-6.11 0-12.303 1.02-18.034 2.958L134.71 41.7c-1.285-.889-2.995-.877-4.265.04-7.68 5.517-8.908 20.313-9.098 34.053-.03 2.106-.042 4.178-.035 6.21-1.729 4.924-2.603 10.065-2.603 15.292 0 1.155.102 2.285.186 3.421l-11.736-1.925c-2.06-.325-3.926 1.037-4.252 3.054-.33 2.016 1.037 3.92 3.051 4.251l14.162 2.322c.36 1.444.774 2.866 1.268 4.26l-10.91-.37c-.043-.003-.085-.003-.13-.003-1.984 0-3.626 1.576-3.694 3.575-.069 2.043 1.531 3.755 3.572 3.823l14.587.494c3.345 5.9 7.928 11.092 13.441 15.27l6.483 4.164z" transform="translate(-255 -4686) translate(40 3678) translate(0 1008) translate(215)"/>
                        <path stroke="#FFF" stroke-width="1.5" d="M213.41 112.95l-13.41.454c-2.042.068-3.642 1.78-3.574 3.823.068 2 1.711 3.575 3.694 3.575.046 0 .088 0 .13-.002l8.831-.299c-8.138 11.19-21.975 18.572-37.655 18.572s-29.517-7.383-37.655-18.572l8.835.3.13.001c1.984 0 3.625-1.576 3.694-3.575.068-2.043-1.532-3.755-3.573-3.823l-13.414-.454c-.464-1.054-.907-2.118-1.278-3.212l13.966 2.29c.205.032.407.05.605.05 1.782 0 3.352-1.289 3.648-3.104.331-2.016-1.038-3.92-3.052-4.25l-16.922-2.775c-.184-1.53-.298-3.08-.298-4.654 0-4.58.798-9.083 2.375-13.382.152-.414.228-.853.228-1.294-.01-2.192 0-4.433.034-6.719.073-5.298.278-20.227 4.33-26.328l17.668 12.233c1.003.698 2.284.846 3.421.416 5.404-2.056 11.371-3.143 17.258-3.143 5.701 0 11.037.914 16.312 2.794 1.11.403 2.353.24 3.33-.429l17.402-11.885c2.695 4.084 4.154 12.918 4.344 26.348l.034 3.624c.004.524.118 1.041.34 1.518 2.36 5.148 3.552 10.615 3.552 16.247 0 1.575-.114 3.124-.299 4.654l-16.917 2.774c-2.015.331-3.383 2.235-3.052 4.251.296 1.815 1.866 3.103 3.648 3.103.198 0 .4-.017.604-.049l13.962-2.289c-.37 1.093-.813 2.157-1.277 3.211zm-68.674 26.681c7.84 4.318 16.945 6.842 26.69 6.842 6.536 0 12.772-1.167 18.553-3.205l6.984-2.983c8.944-4.642 16.286-11.637 21.077-20.087l14.591-.495c2.04-.068 3.64-1.78 3.572-3.823-.068-1.999-1.71-3.575-3.694-3.575-.046 0-.088 0-.129.002l-10.915.37c.493-1.392.908-2.814 1.267-4.258l14.166-2.323c2.015-.33 3.383-2.235 3.053-4.25-.33-2.018-2.205-3.38-4.253-3.055l-11.74 1.925c.084-1.135.186-2.266.186-3.42 0-6.437-1.312-12.689-3.9-18.597l-.026-2.904c-.278-19.487-2.999-29.673-9.099-34.056-1.265-.914-2.964-.928-4.245-.052l-18.456 12.605c-5.499-1.758-11.078-2.613-16.992-2.613-6.11 0-12.303 1.02-18.034 2.958L134.71 41.7c-1.285-.889-2.995-.877-4.265.04-7.68 5.517-8.908 20.313-9.098 34.053-.03 2.106-.042 4.178-.035 6.21-1.729 4.924-2.603 10.065-2.603 15.292 0 1.155.102 2.285.186 3.421l-11.736-1.925c-2.06-.325-3.926 1.037-4.252 3.054-.33 2.016 1.037 3.92 3.051 4.251l14.162 2.322c.36 1.444.774 2.866 1.268 4.26l-10.91-.37c-.043-.003-.085-.003-.13-.003-1.984 0-3.626 1.576-3.694 3.575-.069 2.043 1.531 3.755 3.572 3.823l14.587.494c3.345 5.9 7.928 11.092 13.441 15.27l6.483 4.164z" transform="translate(-255 -4686) translate(40 3678) translate(0 1008) translate(215)"/>
                        <path fill="#000" d="M185.352 113.398c-2.045 0-3.702 1.657-3.702 3.7 0 1.817-1.478 3.295-3.295 3.295-1.626 0-3.01-1.202-3.246-2.798l4.607-7.899c.669-1.144.672-2.557.01-3.707-.656-1.148-1.88-1.857-3.207-1.857h-10.185c-1.35 0-2.592.734-3.242 1.914-.65 1.182-.608 2.624.114 3.764l4.676 7.397c-.03.122-.098.224-.115.351-.225 1.615-1.627 2.835-3.265 2.835-1.817 0-3.295-1.478-3.295-3.295 0-2.043-1.657-3.7-3.702-3.7s-3.702 1.657-3.702 3.7c0 5.897 4.8 10.695 10.699 10.695 2.615 0 5.043-.96 6.925-2.562 1.88 1.602 4.313 2.562 6.928 2.562 5.898 0 10.699-4.798 10.699-10.695 0-2.043-1.658-3.7-3.702-3.7" transform="translate(-255 -4686) translate(40 3678) translate(0 1008) translate(215)"/>
                        <path stroke="#FFF" stroke-width="1.5" d="M185.352 113.398c-2.045 0-3.702 1.657-3.702 3.7 0 1.817-1.478 3.295-3.295 3.295-1.626 0-3.01-1.202-3.246-2.798l4.607-7.899c.669-1.144.672-2.557.01-3.707-.656-1.148-1.88-1.857-3.207-1.857h-10.185c-1.35 0-2.592.734-3.242 1.914-.65 1.182-.608 2.624.114 3.764l4.676 7.397c-.03.122-.098.224-.115.351-.225 1.615-1.627 2.835-3.265 2.835-1.817 0-3.295-1.478-3.295-3.295 0-2.043-1.657-3.7-3.702-3.7s-3.702 1.657-3.702 3.7c0 5.897 4.8 10.695 10.699 10.695 2.615 0 5.043-.96 6.925-2.562 1.88 1.602 4.313 2.562 6.928 2.562 5.898 0 10.699-4.798 10.699-10.695 0-2.043-1.658-3.7-3.702-3.7z" transform="translate(-255 -4686) translate(40 3678) translate(0 1008) translate(215)"/>
                        <path fill="#000" d="M5.187 76.337c0-6.662 5.421-12.083 12.083-12.083s12.081 5.421 12.081 12.083-5.419 12.083-12.08 12.083c-6.663 0-12.084-5.42-12.084-12.083m9.796 17.101c-.003.051-.029.095-.029.148 0 17.142 15.025 31.09 33.491 31.09 18.223 0 33.622-14.502 33.622-31.663V76.85c8.731-.755 16.841-4.763 23.086-11.529 6.904-7.477 10.706-17.406 10.706-27.953 0-10.37-3.69-20.125-10.374-27.559.626-.989 1.002-2.15 1.002-3.406 0-3.53-2.873-6.403-6.404-6.403-3.53 0-6.404 2.873-6.404 6.403 0 3.531 2.873 6.404 6.404 6.404.384 0 .755-.048 1.12-.113.056.075.078.164.142.233 6.015 6.518 9.327 15.2 9.327 24.441 0 9.24-3.312 17.92-9.327 24.438-5.964 6.457-13.875 10.015-22.276 10.015-8.4 0-16.312-3.558-22.277-10.015-6.014-6.518-9.327-15.198-9.327-24.438 0-9.242 3.313-17.923 9.327-24.44.065-.07.087-.159.142-.234.365.065.735.113 1.118.113 3.531 0 6.404-2.873 6.404-6.404 0-3.53-2.873-6.403-6.404-6.403-3.53 0-6.404 2.873-6.404 6.403 0 1.255.376 2.42 1.003 3.408C45.97 17.245 42.278 27 42.278 37.368c0 10.547 3.803 20.476 10.707 27.953 6.436 6.974 14.858 11.002 23.895 11.572v16.12c0 14.352-13.02 26.475-28.435 26.475-15.609 0-28.304-11.619-28.304-25.902 0-.082-.04-.15-.047-.23 8.18-1.355 14.444-8.46 14.444-17.019 0-9.522-7.746-17.27-17.268-17.27C7.75 59.066 0 66.814 0 76.336c0 8.745 6.541 15.976 14.983 17.101" transform="translate(-255 -4686) translate(40 3678) translate(0 1008) translate(215)"/>
                        <path fill="#000" d="M17.332 70.708c2.825 0 5.125 2.301 5.125 5.126s-2.3 5.125-5.125 5.125-5.126-2.3-5.126-5.125 2.3-5.126 5.126-5.126" transform="translate(-255 -4686) translate(40 3678) translate(0 1008) translate(215)"/>
                    </g>
                </g>
            </g>
        </g>
    </g>
</svg>
