<svg xmlns="http://www.w3.org/2000/svg" width="143" height="111" viewBox="0 0 143 111">
    <g fill="none" fill-rule="evenodd">
        <g>
            <g>
                <g>
                    <g>
                        <path fill="#000" d="M56.771 44.828c3.361 0 6.086 2.715 6.086 6.062 0 3.348-2.725 6.063-6.086 6.063-3.36 0-6.085-2.715-6.085-6.063 0-3.347 2.724-6.062 6.085-6.062" transform="translate(-804 -1139) translate(220 838) translate(545 302.848) translate(40)"/>
                        <path stroke="#FFF" stroke-width="2.333" d="M56.771 44.828c3.361 0 6.086 2.715 6.086 6.062 0 3.348-2.725 6.063-6.086 6.063-3.36 0-6.085-2.715-6.085-6.063 0-3.347 2.724-6.062 6.085-6.062z" transform="translate(-804 -1139) translate(220 838) translate(545 302.848) translate(40)"/>
                        <path fill="#000" d="M83.562 44.828c3.361 0 6.085 2.715 6.085 6.062 0 3.348-2.724 6.063-6.085 6.063-3.36 0-6.085-2.715-6.085-6.063 0-3.347 2.724-6.062 6.085-6.062" transform="translate(-804 -1139) translate(220 838) translate(545 302.848) translate(40)"/>
                        <path stroke="#FFF" stroke-width="2.333" d="M83.562 44.828c3.361 0 6.085 2.715 6.085 6.062 0 3.348-2.724 6.063-6.085 6.063-3.36 0-6.085-2.715-6.085-6.063 0-3.347 2.724-6.062 6.085-6.062z" transform="translate(-804 -1139) translate(220 838) translate(545 302.848) translate(40)"/>
                        <path fill="#000" d="M113.022 73.294l-13.689.462c-2.084.07-3.717 1.81-3.647 3.889.07 2.032 1.746 3.635 3.771 3.635.046 0 .09 0 .131-.002l9.016-.304C100.296 92.352 86.171 99.86 70.165 99.86c-16.007 0-30.132-7.508-38.44-18.887l9.02.305c.042.002.085.002.131.002 2.026 0 3.702-1.603 3.771-3.635.07-2.078-1.563-3.819-3.646-3.889l-13.694-.462c-.473-1.072-.926-2.154-1.305-3.266l14.258 2.329c.21.033.415.05.616.05 1.82 0 3.422-1.31 3.725-3.155.337-2.05-1.059-3.987-3.115-4.323l-17.275-2.822c-.188-1.556-.304-3.132-.304-4.732 0-4.66.814-9.238 2.425-13.61.154-.42.232-.867.232-1.315-.01-2.231 0-4.51.035-6.834.074-5.388.283-20.57 4.42-26.775l18.036 12.442c1.024.708 2.332.86 3.492.422 5.517-2.09 11.608-3.195 17.618-3.195 5.82 0 11.266.929 16.651 2.84 1.133.41 2.402.244 3.4-.437L107.98 8.827c2.751 4.154 4.241 13.137 4.435 26.794l.035 3.686c.004.533.12 1.06.345 1.545 2.41 5.234 3.628 10.795 3.628 16.523 0 1.6-.117 3.176-.305 4.732l-17.27 2.822c-2.056.336-3.453 2.272-3.116 4.323.303 1.845 1.905 3.156 3.725 3.156.201 0 .407-.018.617-.051l14.252-2.328c-.379 1.111-.83 2.194-1.304 3.265zm-70.104 27.133c8.004 4.392 17.3 6.958 27.247 6.958 6.672 0 13.038-1.186 18.94-3.258l7.128-3.034c9.131-4.72 16.626-11.835 21.517-20.428l14.894-.502c2.084-.07 3.717-1.811 3.647-3.89-.07-2.031-1.746-3.634-3.77-3.634-.048 0-.09 0-.133.002l-11.142.376c.504-1.416.926-2.862 1.294-4.33l14.461-2.363c2.056-.336 3.453-2.273 3.115-4.323-.337-2.051-2.25-3.437-4.34-3.106l-11.985 1.957c.085-1.153.19-2.304.19-3.477 0-6.546-1.339-12.904-3.98-18.912l-.028-2.953c-.284-19.819-3.06-30.176-9.288-34.634-1.292-.93-3.027-.944-4.334-.053L87.511 13.64c-5.614-1.787-11.309-2.657-17.346-2.657-6.239 0-12.559 1.036-18.41 3.009L32.683.837c-1.312-.905-3.057-.893-4.353.039-7.842 5.611-9.095 20.657-9.288 34.632-.032 2.14-.043 4.247-.036 6.313-1.765 5.01-2.657 10.237-2.657 15.554 0 1.173.104 2.324.19 3.477L4.56 58.895C2.455 58.565.55 59.95.216 62c-.338 2.05 1.06 3.987 3.116 4.323l14.456 2.362c.368 1.468.791 2.915 1.294 4.331l-11.138-.376c-.042-.002-.085-.002-.132-.002-2.025 0-3.7 1.603-3.77 3.635-.07 2.078 1.563 3.82 3.646 3.889l14.891.501c3.414 6 8.093 11.281 13.72 15.528l6.618 4.235z" transform="translate(-804 -1139) translate(220 838) translate(545 302.848) translate(40)"/>
                        <path stroke="#FFF" stroke-width="2.333" d="M113.022 73.294l-13.689.462c-2.084.07-3.717 1.81-3.647 3.889.07 2.032 1.746 3.635 3.771 3.635.046 0 .09 0 .131-.002l9.016-.304C100.296 92.352 86.171 99.86 70.165 99.86c-16.007 0-30.132-7.508-38.44-18.887l9.02.305c.042.002.085.002.131.002 2.026 0 3.702-1.603 3.771-3.635.07-2.078-1.563-3.819-3.646-3.889l-13.694-.462c-.473-1.072-.926-2.154-1.305-3.266l14.258 2.329c.21.033.415.05.616.05 1.82 0 3.422-1.31 3.725-3.155.337-2.05-1.059-3.987-3.115-4.323l-17.275-2.822c-.188-1.556-.304-3.132-.304-4.732 0-4.66.814-9.238 2.425-13.61.154-.42.232-.867.232-1.315-.01-2.231 0-4.51.035-6.834.074-5.388.283-20.57 4.42-26.775l18.036 12.442c1.024.708 2.332.86 3.492.422 5.517-2.09 11.608-3.195 17.618-3.195 5.82 0 11.266.929 16.651 2.84 1.133.41 2.402.244 3.4-.437L107.98 8.827c2.751 4.154 4.241 13.137 4.435 26.794l.035 3.686c.004.533.12 1.06.345 1.545 2.41 5.234 3.628 10.795 3.628 16.523 0 1.6-.117 3.176-.305 4.732l-17.27 2.822c-2.056.336-3.453 2.272-3.116 4.323.303 1.845 1.905 3.156 3.725 3.156.201 0 .407-.018.617-.051l14.252-2.328c-.379 1.111-.83 2.194-1.304 3.265zm-70.104 27.133c8.004 4.392 17.3 6.958 27.247 6.958 6.672 0 13.038-1.186 18.94-3.258l7.128-3.034c9.131-4.72 16.626-11.835 21.517-20.428l14.894-.502c2.084-.07 3.717-1.811 3.647-3.89-.07-2.031-1.746-3.634-3.77-3.634-.048 0-.09 0-.133.002l-11.142.376c.504-1.416.926-2.862 1.294-4.33l14.461-2.363c2.056-.336 3.453-2.273 3.115-4.323-.337-2.051-2.25-3.437-4.34-3.106l-11.985 1.957c.085-1.153.19-2.304.19-3.477 0-6.546-1.339-12.904-3.98-18.912l-.028-2.953c-.284-19.819-3.06-30.176-9.288-34.634-1.292-.93-3.027-.944-4.334-.053L87.511 13.64c-5.614-1.787-11.309-2.657-17.346-2.657-6.239 0-12.559 1.036-18.41 3.009L32.683.837c-1.312-.905-3.057-.893-4.353.039-7.842 5.611-9.095 20.657-9.288 34.632-.032 2.14-.043 4.247-.036 6.313-1.765 5.01-2.657 10.237-2.657 15.554 0 1.173.104 2.324.19 3.477L4.56 58.895C2.455 58.565.55 59.95.216 62c-.338 2.05 1.06 3.987 3.116 4.323l14.456 2.362c.368 1.468.791 2.915 1.294 4.331l-11.138-.376c-.042-.002-.085-.002-.132-.002-2.025 0-3.7 1.603-3.77 3.635-.07 2.078 1.563 3.82 3.646 3.889l14.891.501c3.414 6 8.093 11.281 13.72 15.528l6.618 4.235z" transform="translate(-804 -1139) translate(220 838) translate(545 302.848) translate(40)"/>
                        <path fill="#000" d="M84.38 73.75c-2.087 0-3.779 1.685-3.779 3.763 0 1.847-1.509 3.351-3.364 3.351-1.659 0-3.072-1.223-3.313-2.846l4.703-8.032c.682-1.164.686-2.601.011-3.77-.671-1.167-1.921-1.889-3.275-1.889H64.966c-1.378 0-2.646.746-3.31 1.947-.663 1.201-.62 2.668.117 3.827l4.774 7.523c-.031.123-.101.228-.119.356-.228 1.643-1.66 2.884-3.332 2.884-1.855 0-3.364-1.504-3.364-3.35 0-2.079-1.691-3.764-3.779-3.764-2.087 0-3.779 1.685-3.779 3.763 0 5.996 4.9 10.876 10.922 10.876 2.669 0 5.148-.976 7.069-2.604 1.92 1.628 4.403 2.604 7.072 2.604 6.022 0 10.922-4.88 10.922-10.876 0-2.078-1.692-3.763-3.779-3.763" transform="translate(-804 -1139) translate(220 838) translate(545 302.848) translate(40)"/>
                        <path stroke="#FFF" stroke-width="2.333" d="M84.38 73.75c-2.087 0-3.779 1.685-3.779 3.763 0 1.847-1.509 3.351-3.364 3.351-1.659 0-3.072-1.223-3.313-2.846l4.703-8.032c.682-1.164.686-2.601.011-3.77-.671-1.167-1.921-1.889-3.275-1.889H64.966c-1.378 0-2.646.746-3.31 1.947-.663 1.201-.62 2.668.117 3.827l4.774 7.523c-.031.123-.101.228-.119.356-.228 1.643-1.66 2.884-3.332 2.884-1.855 0-3.364-1.504-3.364-3.35 0-2.079-1.691-3.764-3.779-3.764-2.087 0-3.779 1.685-3.779 3.763 0 5.996 4.9 10.876 10.922 10.876 2.669 0 5.148-.976 7.069-2.604 1.92 1.628 4.403 2.604 7.072 2.604 6.022 0 10.922-4.88 10.922-10.876 0-2.078-1.692-3.763-3.779-3.763z" transform="translate(-804 -1139) translate(220 838) translate(545 302.848) translate(40)"/>
                    </g>
                </g>
            </g>
        </g>
    </g>
</svg>
