<svg xmlns="http://www.w3.org/2000/svg" width="103" height="134" viewBox="0 0 103 134">
    <g fill="none" fill-rule="evenodd">
        <g>
            <g>
                <g>
                    <g>
                        <path fill="#000" d="M39.694 55.823c2.62 0 4.744 2.116 4.744 4.726s-2.124 4.726-4.744 4.726c-2.62 0-4.744-2.116-4.744-4.726s2.124-4.726 4.744-4.726" transform="translate(-514 -1115) translate(220 838) translate(235 278.939) translate(60)"/>
                        <path stroke="#FFF" stroke-width="2.273" d="M39.694 55.823c2.62 0 4.744 2.116 4.744 4.726s-2.124 4.726-4.744 4.726c-2.62 0-4.744-2.116-4.744-4.726s2.124-4.726 4.744-4.726z" transform="translate(-514 -1115) translate(220 838) translate(235 278.939) translate(60)"/>
                        <path fill="#000" d="M60.579 55.823c2.62 0 4.744 2.116 4.744 4.726s-2.124 4.726-4.744 4.726c-2.62 0-4.744-2.116-4.744-4.726s2.124-4.726 4.744-4.726" transform="translate(-514 -1115) translate(220 838) translate(235 278.939) translate(60)"/>
                        <path stroke="#FFF" stroke-width="2.273" d="M60.579 55.823c2.62 0 4.744 2.116 4.744 4.726s-2.124 4.726-4.744 4.726c-2.62 0-4.744-2.116-4.744-4.726s2.124-4.726 4.744-4.726z" transform="translate(-514 -1115) translate(220 838) translate(235 278.939) translate(60)"/>
                        <path fill="#000" d="M93.012 60.541v66.676c0 1.96 1.596 3.548 3.563 3.548 1.966 0 3.562-1.589 3.562-3.548V.135c-16.342 0-28.82 14.174-32.406 37.107H31.338C27.75 14.309 16.478.135.137.135v127.082c0 1.96 1.595 3.548 3.562 3.548 1.967 0 3.562-1.589 3.562-3.548V9.054c8.136 4.307 14.5 13.088 17.034 29.253.543 3.465 3.524 6.031 7.044 6.031h36.393c3.526 0 6.5-2.574 7.046-6.044 2.487-15.844 9.546-24.997 18.235-29.323v51.57h-.001z" transform="translate(-514 -1115) translate(220 838) translate(235 278.939) translate(60)"/>
                        <path stroke="#FFF" stroke-width="2.273" d="M93.012 60.541v66.676c0 1.96 1.596 3.548 3.563 3.548 1.966 0 3.562-1.589 3.562-3.548V.135c-16.342 0-28.82 14.174-32.406 37.107H31.338C27.75 14.309 16.478.135.137.135v127.082c0 1.96 1.595 3.548 3.562 3.548 1.967 0 3.562-1.589 3.562-3.548V9.054c8.136 4.307 14.5 13.088 17.034 29.253.543 3.465 3.524 6.031 7.044 6.031h36.393c3.526 0 6.5-2.574 7.046-6.044 2.487-15.844 9.546-24.997 18.235-29.323v51.57h-.001z" transform="translate(-514 -1115) translate(220 838) translate(235 278.939) translate(60)"/>
                        <path fill="#000" d="M57.535 114.32c0 3.954-3.205 7.172-7.161 7.232v-.032l-.236.027c-.08-.01-.162-.02-.237-.027v.032c-3.97-.06-7.176-3.278-7.176-7.232V99.516c1.559-.64 2.987-1.495 4.269-2.555v9.666c0 1.67 1.34 3.005 3.016 3.005.04 0 .086-.007.128-.01.043.003.082.01.127.01 1.66 0 3.016-1.335 3.016-3.005v-9.666c1.282 1.06 2.71 1.916 4.254 2.555v14.804zm22.64-26.866c.307-1.393.424-2.918-.217-4.195-.466-.958-1.486-1.697-2.521-1.77-.335-.029-.685.029-1.02.16-1.486.638-1.806 2.525-2.2 4.093-1.267 5.065-5.973 9.42-11.203 9.202-3.905-.16-7.271-3.223-7.97-7.025-.904-4.863 2.987-7.068 5.478-10.581 1.646-2.337 1.98-6.241-.597-7.519-.874-.42-1.894-.435-2.87-.435H43.206c-.976 0-1.982.014-2.87.435-2.565 1.278-2.23 5.182-.583 7.519 2.49 3.513 6.382 5.718 5.478 10.58-.7 3.803-4.065 6.867-7.984 7.026-5.231.217-9.922-4.137-11.19-9.202-.393-1.568-.713-3.455-2.214-4.094-.321-.13-.67-.188-1.005-.16-1.035.074-2.055.813-2.535 1.771-.627 1.278-.511 2.802-.205 4.195 1.647 7.49 8.946 13.339 16.639 13.339.51 6.647-1.4 13.788 1.646 19.725 2.17 4.238 6.834 7.098 11.612 7.098.048 0 .092-.006.137-.011.046.005.09.01.133.01 4.779 0 9.456-2.859 11.626-7.097 3.045-5.937 1.137-13.078 1.647-19.725 7.693 0 14.992-5.85 16.638-13.339z" transform="translate(-514 -1115) translate(220 838) translate(235 278.939) translate(60)"/>
                        <path stroke="#FFF" stroke-width="2.273" d="M57.535 114.32c0 3.954-3.205 7.172-7.161 7.232v-.032l-.236.027c-.08-.01-.162-.02-.237-.027v.032c-3.97-.06-7.176-3.278-7.176-7.232V99.516c1.559-.64 2.987-1.495 4.269-2.555v9.666c0 1.67 1.34 3.005 3.016 3.005.04 0 .086-.007.128-.01.043.003.082.01.127.01 1.66 0 3.016-1.335 3.016-3.005v-9.666c1.282 1.06 2.71 1.916 4.254 2.555v14.804zm22.64-26.866c.307-1.393.424-2.918-.217-4.195-.466-.958-1.486-1.697-2.521-1.77-.335-.029-.685.029-1.02.16-1.486.638-1.806 2.525-2.2 4.093-1.267 5.065-5.973 9.42-11.203 9.202-3.905-.16-7.271-3.223-7.97-7.025-.904-4.863 2.987-7.068 5.478-10.581 1.646-2.337 1.98-6.241-.597-7.519-.874-.42-1.894-.435-2.87-.435H43.206c-.976 0-1.982.014-2.87.435-2.565 1.278-2.23 5.182-.583 7.519 2.49 3.513 6.382 5.718 5.478 10.58-.7 3.803-4.065 6.867-7.984 7.026-5.231.217-9.922-4.137-11.19-9.202-.393-1.568-.713-3.455-2.214-4.094-.321-.13-.67-.188-1.005-.16-1.035.074-2.055.813-2.535 1.771-.627 1.278-.511 2.802-.205 4.195 1.647 7.49 8.946 13.339 16.639 13.339.51 6.647-1.4 13.788 1.646 19.725 2.17 4.238 6.834 7.098 11.612 7.098.048 0 .092-.006.137-.011.046.005.09.01.133.01 4.779 0 9.456-2.859 11.626-7.097 3.045-5.937 1.137-13.078 1.647-19.725 7.693 0 14.992-5.85 16.638-13.339z" transform="translate(-514 -1115) translate(220 838) translate(235 278.939) translate(60)"/>
                    </g>
                </g>
            </g>
        </g>
    </g>
</svg>
