<svg xmlns="http://www.w3.org/2000/svg" xmlns:xlink="http://www.w3.org/1999/xlink" width="220" height="207" viewBox="0 0 220 207">
    <defs>
        <path id="dj82xb7fda" d="M0.916 0.406L134 0.406 134 136.459 0.916 136.459z"/>
        <path id="uklx7dkrfc" d="M0 0.726L103.134 0.726 103.134 92.467 0 92.467z"/>
        <path id="hx4vu7tdze" d="M0.79 0.432L59.956 0.432 59.956 67 0.79 67z"/>
    </defs>
    <g fill="none" fill-rule="evenodd">
        <g>
            <g>
                <g>
                    <g>
                        <path fill="#000" d="M100.917 69.48l-3.697 3.697c-1.445 1.445-1.445 3.785 0 5.23.721.72 1.668 1.083 2.614 1.083s1.893-.362 2.614-1.083l3.698-3.698c1.444-1.444 1.444-3.786 0-5.23-1.443-1.443-3.786-1.443-5.229 0M86.595 79.49V68.395c0-2.042-1.656-3.697-3.698-3.697S79.2 66.354 79.2 68.396V79.49c0 2.042 1.655 3.697 3.697 3.697s3.698-1.655 3.698-3.697" transform="translate(-265 -6873) translate(40 3678) translate(0 3195) translate(225)"/>
                        <g transform="translate(-265 -6873) translate(40 3678) translate(0 3195) translate(225) translate(86 26.216)">
                            <mask id="nmj7w2mpeb" fill="#fff">
                                <use xlink:href="#dj82xb7fda"/>
                            </mask>
                            <path fill="#000" d="M70.351 90.462c-.707-1.997-1.333-4.068-1.922-6.138 4.6 3.284 8.25 6.022 11.861 8.893.771 2.71 2.666 13.789 3.988 22.813.492 3.335 1.742 5.97 3.571 7.748H67.45c-1.633 0-2.957 1.325-2.957 2.958 0 1.634 1.324 2.958 2.957 2.958h47.324c1.633 0 2.958-1.324 2.958-2.958 0-1.633-1.325-2.958-2.958-2.958h-13.463c2.28-2.206 3.36-5.688 2.878-9.904-.302-2.64-2.393-17.982-2.66-22.975-.465-8.656-4.3-15.374-11.729-20.54-4.486-3.117-8.792-6.564-12.956-9.897l-2.913-2.324c-.174-.14-.205-.443-.133-.551l8.635-13.026c.878 1.793 1.716 3.534 2.505 5.317 2.363 5.337 6.077 8.709 11.353 10.308 4.13 1.253 20.322 6.588 24.35 7.818 6.125 1.865 11.266-.632 12.918-6.077 1.576-5.198-1.138-9.702-7.082-11.755 0 0-14.948-5.211-20.423-6.885-1.887-.58-2.84-1.415-3.64-3.196-2.33-5.18-10.664-23.205-12.425-27.07-1.98.58-4.02.887-6.094.905 1.994 4.396 10.802 23.433 13.123 28.593 1.512 3.358 3.764 5.339 7.304 6.424 5.366 1.64 20.223 6.82 20.223 6.82 4.256 1.47 3.623 3.555 3.352 4.448-.527 1.74-1.529 2.519-3.245 2.519-.683 0-1.45-.13-2.284-.385-3.966-1.21-20.163-6.547-24.36-7.821-3.63-1.1-5.992-3.27-7.66-7.04-1.06-2.397-2.23-4.771-3.36-7.068l-.17-.345c-.88-1.784-2.443-2.85-4.183-2.85-1.548 0-2.998.85-3.98 2.33L68.866 54.32c-1.786 2.696-1.18 6.405 1.382 8.448l2.9 2.313c4.241 3.396 8.626 6.905 13.276 10.136 5.991 4.167 8.828 9.1 9.198 16 .281 5.234 2.393 20.733 2.69 23.33.278 2.432-.03 5.419-3.083 5.845-2.758.397-4.524-1.324-5.098-5.221-3.595-24.53-4.64-25.37-5.567-26.112-4.853-3.88-9.888-7.61-16.838-12.47-2.138-1.49-4.536-1.234-5.785.403-.56.737-1.114 2.033-.563 4.04l.358 1.299c.911 3.32 1.853 6.756 3.037 10.104.79 2.234.326 3.727-1.37 6.81-4.605 8.363-11.42 20.422-17.416 28.574-1.33 1.808-2.602 2.725-3.778 2.725-.77 0-1.697-.348-2.756-1.035-1.548-1.007-2.128-1.382.395-6.505 1.886-3.83 10.541-18.526 11.705-20.581.986-1.742 1.831-4.427 1.24-6.74l-.738-2.874c-2.385-9.302-4.85-18.92-7.79-28.275-4.113-13.103-1.459-25.874 8.606-41.41.387-.598.79-1.188 1.274-1.897.89-1.306 1.021-2.865.355-4.17-.768-1.502-2.433-2.4-4.562-2.461-.977-.03-14.88-.143-17.079.134-2.639.333-7.038 2.94-15.306 8.298-1.773 1.15-3.306 2.142-4.052 2.559-1.06.593-2.055.905-2.87.905-.654 0-1.634-.164-2.623-1.591-2.268-3.27-.772-4.321.128-4.953 1.068-.754 6.573-4.43 7.582-5.1C24.93 8.734 36.89 5.674 48.8 6.436c2.531.16 5.251.238 8.316.238 3.307 0 6.65-.091 9.893-.183-1.546-1.71-2.829-3.667-3.787-5.82-2.039.049-4.084.087-6.106.087-2.939 0-5.537-.073-7.942-.226C36.01-.306 22.721 3.098 12.446 9.919c-.828.55-6.548 4.367-7.716 5.19-4.442 3.123-5.049 8.166-1.584 13.163 3 4.324 8.102 5.344 13.238 2.48.917-.512 2.448-1.504 4.386-2.76 3.276-2.123 10.95-7.094 12.83-7.393 1.946-.246 10.911-.281 13.212-.195l.755.029c-7.373 11.495-14.865 27.016-8.946 45.872 2.892 9.206 5.338 18.746 7.704 27.973l.737 2.872c.074.288-.087 1.352-.655 2.356-1.15 2.029-9.882 16.855-11.867 20.883-1.927 3.917-4.842 9.836 1.69 14.078 2.062 1.34 4.018 1.992 5.98 1.992 3.16 0 6.033-1.727 8.542-5.135 4.721-6.42 10.387-15.705 17.833-29.227 1.885-3.426 3.438-6.895 1.766-11.635" mask="url(#nmj7w2mpeb)"/>
                        </g>
                        <path fill="#000" d="M158.991 12.91c1.353-2.967 3.734-5.196 6.703-6.279 1.302-.475 2.653-.715 4.015-.715 4.947 0 9.288 3.056 11.06 7.79 2.301 6.141-.72 12.775-6.885 15.104-1.344.51-2.749.767-4.179.767-4.892 0-9.338-3.026-11.062-7.529-1.124-2.938-1-6.182.348-9.138m10.714 22.583c2.147 0 4.26-.387 6.273-1.149 9.254-3.497 13.792-13.474 10.331-22.713-2.606-6.957-9.276-11.63-16.6-11.63-2.055 0-4.087.36-6.04 1.071-4.472 1.632-8.045 4.964-10.06 9.383-2.01 4.41-2.186 9.277-.49 13.707 2.595 6.777 9.261 11.331 16.586 11.331" transform="translate(-265 -6873) translate(40 3678) translate(0 3195) translate(225)"/>
                        <g transform="translate(-265 -6873) translate(40 3678) translate(0 3195) translate(225) translate(0 70.216)">
                            <mask id="j2gv81ok6d" fill="#fff">
                                <use xlink:href="#uklx7dkrfc"/>
                            </mask>
                            <path fill="#000" d="M95.566 43.458c3.214-1.066 5.856-4.206 6.24-7.561l1.28-11.12c.249-2.172-.468-4.186-1.968-5.528-1.501-1.343-3.581-1.837-5.713-1.347l-25.01 5.72c-.38.101-1.17-.262-1.36-.601l-2.623-4.691c-1.712-3.057-5.633-5.062-9.112-4.692l-18.001 1.973c-.753.081-2.195-.521-2.664-1.116l-7.736-9.789C26.889 2.163 23.154.557 19.9.828L15.796.726l-.518.139c-3.571.964-6.303 4.482-6.355 8.183l-.038 2.882c-.034 2.482.56 6.121 1.385 8.463l4.304 12.24c.117.334-.125 1.069-.42 1.267L1.628 42.362C-.064 43.506-.51 45.804.634 47.495c1.143 1.693 3.442 2.135 5.134.995l12.524-8.46c3.096-2.091 4.497-6.325 3.258-9.848L17.246 17.94c-.528-1.501-.99-4.318-.966-5.91l.038-2.883c.004-.293.31-.753.619-.995l3.267.081.262-.03c.749-.094 2.168.502 2.63 1.088l7.737 9.79c2.065 2.613 5.978 4.254 9.273 3.882l17.999-1.974c.562-.072 1.586.476 1.853.954l2.624 4.691c1.802 3.215 5.88 5.022 9.462 4.197l23.52-5.38-1.103 9.602c-.057.489-.765 1.3-1.241 1.421l-24.825 6.293c-3.425.869-6.361 4.165-6.828 7.668l-.462 3.468c-.492 3.676 1.71 7.548 5.124 9.007l22.492 9.609-2.433 4.626c-.118.227-.664.459-.905.376l-18.347-5.6c-3.037-.924-7.137-.3-9.755 1.486L39.247 85.715c-1.686 1.152-2.12 3.452-.97 5.139.716 1.05 1.876 1.613 3.058 1.613.718 0 1.442-.207 2.08-.643L61.45 79.517c.757-.518 2.55-.794 3.427-.522l18.347 5.601c3.623 1.108 7.846-.654 9.61-4.01l2.577-4.899c.928-1.769 1.085-3.845.427-5.696-.658-1.852-2.09-3.365-3.928-4.15l-1.778-.761-10.185-4.349-10.813-4.62c-.343-.146-.75-.859-.7-1.229l.463-3.469c.069-.519.808-1.349 1.317-1.478l3.093-.784 22.259-5.693z" mask="url(#j2gv81ok6d)"/>
                        </g>
                        <g transform="translate(-265 -6873) translate(40 3678) translate(0 3195) translate(225) translate(14 138.216)">
                            <mask id="4pb3gajfwf" fill="#fff">
                                <use xlink:href="#hx4vu7tdze"/>
                            </mask>
                            <path fill="#000" d="M53.49 44.578L15.538 23.63 22.99 5.54c.778-1.89-.122-4.05-2.01-4.829-1.888-.777-4.05.123-4.827 2.012L6.187 26.915 50.078 51.14l.366.178c.897.371 1.57 1.05 1.898 1.905.327.855.277 1.807-.14 2.68l-.402.838c-1.524 3.191-2.995 3.001-3.947 2.737L5.927 41.762c-1.879-.789-4.05.087-4.845 1.967-.795 1.881.085 4.05 1.967 4.846l42.13 17.802.4.14c1.098.324 2.168.483 3.198.483 4.055 0 7.491-2.46 9.694-7.067l.401-.839c1.302-2.72 1.435-5.745.377-8.513-1.033-2.7-3.073-4.824-5.759-6.003" mask="url(#4pb3gajfwf)"/>
                        </g>
                    </g>
                </g>
            </g>
        </g>
    </g>
</svg>
