<svg xmlns="http://www.w3.org/2000/svg" width="120" height="120" viewBox="0 0 120 120">
    <g fill="none" fill-rule="evenodd">
        <g>
            <g>
                <g transform="translate(-315 -858) translate(40 858) translate(275)">
                    <circle cx="60" cy="60" r="57.5" fill="#FFF" stroke="#0073d2" stroke-width="5"/>
                    <g>
                        <path fill="#000" d="M36.166 2.279c7.049 5.735 11.659 16.227 12.889 28.448 1.697-1.537 4.2-2.819 7.081-2.819 2.677 0 5.093 1.17 6.811 2.573C61.782 16.24 50.255 4.063 36.167 2.279zm-7.105 0C14.97 4.063 3.445 16.239 2.279 30.482c1.719-1.404 4.135-2.573 6.812-2.573 2.88 0 5.383 1.282 7.08 2.818 1.232-12.22 5.841-22.713 12.89-28.448zm4.337-.099v28.57c1.714-1.515 4.223-2.841 7.056-2.841 2.83 0 5.315 1.222 7.008 2.72-1.35-12.864-6.57-23.566-14.065-28.449zm-1.569 0c-7.495 4.884-12.715 15.585-14.064 28.448 1.694-1.497 4.177-2.72 7.008-2.72 2.832 0 5.341 1.327 7.056 2.842V2.18zm.785-1.715c17.292 0 32.038 14.882 32.148 32.124.028.669-1.032 1.035-1.422.49-1.17-1.564-4.158-3.602-7.204-3.602-3.117 0-6.079 1.994-7.204 3.576-.288.404-.985.404-1.274 0-1.119-1.587-4.075-3.576-7.203-3.576-2.893 0-5.788 1.887-7.057 3.405v28.742c0 4.535-3.303 7.842-7.842 7.842s-7.84-3.307-7.84-7.841c-.007-.414.37-.797.784-.797.415 0 .79.383.784.796 0 3.813 2.454 6.273 6.273 6.273 3.818 0 6.273-2.46 6.273-6.273V32.882c-1.27-1.517-4.164-3.405-7.057-3.405-3.13 0-6.085 1.988-7.204 3.576-.29.404-.985.404-1.274 0-1.127-1.582-4.087-3.576-7.205-3.576-3.046 0-6.034 2.038-7.204 3.601-.388.545-1.45.18-1.421-.49C.575 15.347 15.322.466 32.613.466z" transform="translate(28 25)"/>
                        <path stroke="#000" stroke-width=".93" d="M36.166 2.279c7.049 5.735 11.659 16.227 12.889 28.448 1.697-1.537 4.2-2.819 7.081-2.819 2.677 0 5.093 1.17 6.811 2.573C61.782 16.24 50.255 4.063 36.167 2.279zm-7.105 0C14.97 4.063 3.445 16.239 2.279 30.482c1.719-1.404 4.135-2.573 6.812-2.573 2.88 0 5.383 1.282 7.08 2.818 1.232-12.22 5.841-22.713 12.89-28.448zm4.337-.099v28.57c1.714-1.515 4.223-2.841 7.056-2.841 2.83 0 5.315 1.222 7.008 2.72-1.35-12.864-6.57-23.566-14.065-28.449zm-1.569 0c-7.495 4.884-12.715 15.585-14.064 28.448 1.694-1.497 4.177-2.72 7.008-2.72 2.832 0 5.341 1.327 7.056 2.842V2.18zm.785-1.715c17.292 0 32.038 14.882 32.148 32.124.028.669-1.032 1.035-1.422.49-1.17-1.564-4.158-3.602-7.204-3.602-3.117 0-6.079 1.994-7.204 3.576-.288.404-.985.404-1.274 0-1.119-1.587-4.075-3.576-7.203-3.576-2.893 0-5.788 1.887-7.057 3.405v28.742c0 4.535-3.303 7.842-7.842 7.842s-7.84-3.307-7.84-7.841c-.007-.414.37-.797.784-.797.415 0 .79.383.784.796 0 3.813 2.454 6.273 6.273 6.273 3.818 0 6.273-2.46 6.273-6.273V32.882c-1.27-1.517-4.164-3.405-7.057-3.405-3.13 0-6.085 1.988-7.204 3.576-.29.404-.985.404-1.274 0-1.127-1.582-4.087-3.576-7.205-3.576-3.046 0-6.034 2.038-7.204 3.601-.388.545-1.45.18-1.421-.49C.575 15.347 15.322.466 32.613.466z" transform="translate(28 25)"/>
                    </g>
                </g>
            </g>
        </g>
    </g>
</svg>
