<?xml version="1.0" encoding="UTF-8"?>
<!DOCTYPE svg PUBLIC "-//W3C//DTD SVG 1.1//EN" "http://www.w3.org/Graphics/SVG/1.1/DTD/svg11.dtd">
<svg version="1.1" xmlns="http://www.w3.org/2000/svg" xmlns:xlink="http://www.w3.org/1999/xlink" x="0" y="0" width="120" height="120" viewBox="0, 0, 120, 120">
  <defs>
    <clipPath id="Clip_1">
      <path d="M60,120 C93.137,120 120,93.137 120,60 C120,26.863 93.137,0 60,0 C26.863,0 0,26.863 0,60 C0,93.137 26.863,120 60,120 z"/>
    </clipPath>
    <clipPath id="Clip_2">
      <path d="M0,120 L120,120 L120,0 L0,0 z"/>
    </clipPath>
    <clipPath id="Clip_3">
      <path d="M60,0 C93.137,0 120,26.863 120,60 C120,93.137 93.137,120 60,120 C26.863,120 0,93.137 0,60 C0,26.863 26.863,0 60,0 z"/>
    </clipPath>
  </defs>
  <g id="Layer_1">
    <g clip-path="url(#Clip_3)">
      <g>
        <g clip-path="url(#Clip_1)">
          <path d="M60,120 C93.137,120 120,93.137 120,60 C120,26.863 93.137,0 60,0 C26.863,0 0,26.863 0,60 C0,93.137 26.863,120 60,120 z" fill="#FFFFFF"/>
        </g>
        <g clip-path="url(#Clip_2)">
          <path d="M60,120 C93.137,120 120,93.137 120,60 C120,26.863 93.137,0 60,0 C26.863,0 0,26.863 0,60 C0,93.137 26.863,120 60,120 z" fill-opacity="0" stroke="#0073d2" stroke-width="10"/>
        </g>
      </g>
    </g>
    <g>
      <path d="M90.973,36.688 L85.581,36.688 L85.581,32.149 C85.581,31.575 85.116,31.11 84.542,31.11 L77.762,31.11 C77.488,31.11 77.225,31.22 77.032,31.415 C76.839,31.61 76.732,31.874 76.735,32.149 L76.735,36.688 L64.283,36.688 L64.283,32.149 C64.286,31.874 64.179,31.61 63.986,31.415 C63.793,31.22 63.53,31.11 63.256,31.11 L56.475,31.11 C55.901,31.11 55.436,31.575 55.436,32.149 L55.436,36.688 L42.996,36.688 L42.996,32.149 C42.996,31.575 42.53,31.11 41.957,31.11 L35.188,31.11 C34.614,31.11 34.149,31.575 34.149,32.149 L34.149,36.688 L28.758,36.688 C28.483,36.685 28.219,36.792 28.024,36.985 C27.829,37.178 27.719,37.441 27.719,37.715 L27.719,85.961 C27.719,86.535 28.184,87 28.758,87 L90.973,87 C91.247,87 91.51,86.89 91.703,86.695 C91.896,86.5 92.003,86.236 92,85.961 L92,37.715 C92.003,37.442 91.896,37.179 91.703,36.986 C91.509,36.793 91.246,36.685 90.973,36.688 z M78.789,33.187 L83.457,33.187 L83.457,42.092 L78.789,42.092 z M57.502,33.187 L62.17,33.187 L62.17,42.092 L57.502,42.092 z M36.215,33.187 L40.883,33.187 L40.883,42.092 L36.215,42.092 z M89.899,84.934 L29.785,84.934 L29.785,38.743 L34.149,38.743 L34.149,43.131 C34.149,43.405 34.259,43.668 34.454,43.861 C34.649,44.054 34.914,44.161 35.188,44.158 L41.957,44.158 C42.231,44.161 42.495,44.054 42.691,43.861 C42.886,43.668 42.996,43.405 42.996,43.131 L42.996,38.743 L55.436,38.743 L55.436,43.131 C55.436,43.405 55.546,43.668 55.741,43.861 C55.936,44.054 56.201,44.161 56.475,44.158 L63.256,44.158 C63.529,44.161 63.792,44.054 63.985,43.86 C64.178,43.667 64.286,43.404 64.283,43.131 L64.283,38.743 L76.735,38.743 L76.735,43.131 C76.732,43.404 76.839,43.667 77.032,43.86 C77.226,44.054 77.489,44.161 77.762,44.158 L84.542,44.158 C84.817,44.161 85.081,44.054 85.276,43.861 C85.471,43.668 85.581,43.405 85.581,43.131 L85.581,38.743 L89.946,38.743 z" fill="#000000"/>
      <path d="M67.399,56.855 L74.809,56.855 L74.809,49.433 L67.399,49.433 z M68.566,50.576 L73.712,50.576 L73.712,55.711 L68.484,55.711 z" fill="#000000"/>
      <path d="M78.532,56.855 L85.955,56.855 L85.955,49.433 L78.532,49.433 z M79.699,50.576 L84.834,50.576 L84.834,55.711 L79.699,55.711 z" fill="#000000"/>
      <path d="M56.172,68.281 L63.582,68.281 L63.582,60.858 L56.172,60.858 z M57.339,62.002 L62.485,62.002 L62.485,67.137 L57.304,67.137 z" fill="#000000"/>
      <path d="M67.399,68.281 L74.809,68.281 L74.809,60.858 L67.399,60.858 z M68.566,62.002 L73.712,62.002 L73.712,67.137 L68.484,67.137 z" fill="#000000"/>
      <path d="M78.532,68.281 L85.955,68.281 L85.955,60.858 L78.532,60.858 z M79.699,62.002 L84.834,62.002 L84.834,67.137 L79.699,67.137 z" fill="#000000"/>
      <path d="M44.98,68.281 L52.402,68.281 L52.402,60.858 L44.98,60.858 z M46.147,62.002 L51.282,62.002 L51.282,67.137 L46.147,67.137 z" fill="#000000"/>
      <path d="M33.799,68.281 L41.222,68.281 L41.222,60.858 L33.799,60.858 z M34.966,62.002 L40.101,62.002 L40.101,67.137 L34.943,67.137 z" fill="#000000"/>
      <path d="M56.172,79.706 L63.582,79.706 L63.582,72.295 L56.172,72.295 z M57.339,73.427 L62.485,73.427 L62.485,78.574 L57.304,78.574 z" fill="#000000"/>
      <path d="M67.399,79.706 L74.809,79.706 L74.809,72.295 L67.399,72.295 z M68.566,73.427 L73.712,73.427 L73.712,78.574 L68.484,78.574 z" fill="#000000"/>
      <path d="M44.98,79.706 L52.402,79.706 L52.402,72.295 L44.98,72.295 z M46.147,73.427 L51.282,73.427 L51.282,78.574 L46.147,78.574 z" fill="#000000"/>
      <path d="M33.799,79.706 L41.222,79.706 L41.222,72.295 L33.799,72.295 z M34.966,73.427 L40.101,73.427 L40.101,78.574 L34.943,78.574 z" fill="#000000"/>
    </g>
  </g>
</svg>
