<svg xmlns="http://www.w3.org/2000/svg" xmlns:xlink="http://www.w3.org/1999/xlink" width="120" height="120" viewBox="0 0 120 120">
    <defs>
        <path id="jsomw5kqna" d="M0 0.959L46.517 0.959 46.517 40.845 0 40.845z"/>
    </defs>
    <g fill="none" fill-rule="evenodd">
        <g>
            <g>
                <g transform="translate(-660 -838) translate(220 838) translate(440)">
                    <ellipse cx="60" cy="59.773" fill="#FFF" stroke="#0073d2" stroke-width="5" rx="57.5" ry="57.273"/>
                    <g>
                        <path fill="#000" d="M33.73 2.925c-.364 0-.73.039-1.094.117-2.773.6-4.963 3.415-6.008 7.723-.846 3.492.218 7.414 1.706 9.483.593.824 1.243 1.343 1.737 1.387 2.943.265 5.892-2.275 8.289-7.16 1.736-3.54 1.656-6.938-.22-9.319-1.125-1.43-2.747-2.231-4.41-2.231m-3.261 21.65c-.236 0-.458-.01-.664-.03-1.391-.125-2.724-1.023-3.855-2.595-1.82-2.53-3.276-7.324-2.173-11.87 1.319-5.44 4.32-9.045 8.236-9.894 3.13-.68 6.363.536 8.436 3.167 2.558 3.248 2.762 7.885.546 12.405-3.67 7.481-7.944 8.817-10.526 8.817M53.625 13.863c-2.894 0-5.686 1.906-7.535 5.173-2.678 4.729-3.106 8.563-1.203 10.794.314.37 1.106.597 2.117.611h.092c2.58 0 6.4-1.378 8.8-4.05 2.96-3.292 4.05-6.66 2.987-9.241-.775-1.882-2.633-3.136-4.85-3.274-.136-.009-.272-.013-.408-.013m-6.538 19.5h-.12c-1.93-.026-3.42-.592-4.316-1.641-1.596-1.872-3.604-6.196.884-14.123 2.502-4.417 6.503-6.899 10.681-6.64 3.348.208 6.177 2.156 7.382 5.083 1.505 3.656.223 8.14-3.516 12.3-3.114 3.463-7.85 5.021-10.995 5.021M61.04 35.424c-1.872 0-3.87.88-5.634 2.535-3.332 3.13-4.646 6.073-3.702 8.285.101.236.534.615 1.424.902 2.056.666 5.516.515 8.15-1.059 3.197-1.91 4.913-4.321 4.708-6.616-.146-1.64-1.285-3.054-2.97-3.692-.63-.238-1.295-.355-1.976-.355m-5.247 15.009c-1.353 0-2.59-.19-3.57-.507-1.62-.524-2.733-1.402-3.218-2.537-.846-1.982-1.4-6.116 4.39-11.555l1.005 1.063-1.006-1.063c3.241-3.046 7.227-4.086 10.663-2.787 2.746 1.04 4.605 3.402 4.851 6.166.308 3.452-1.923 6.871-6.12 9.38-2.21 1.32-4.759 1.839-6.995 1.84" transform="translate(26 25.901)"/>
                        <g transform="translate(26 25.901) translate(0 27.829)">
                            <mask id="zre58d2bkb" fill="#fff">
                                <use xlink:href="#jsomw5kqna"/>
                            </mask>
                            <path fill="#000" d="M27.009 3.886c-1.082 0-2.069.196-2.896.592-.55.264-1.093.581-1.668.917-1.782 1.039-3.801 2.216-6.829 2.276-6.02.118-10.671 3.97-12.154 7.714-.581 1.468-1.189 4.286 1.268 6.666l.094.1c2.225 2.604 4.699 3.15 8.122 3.904 2.522.556 5.379 1.186 8.639 2.809 3.137 1.564 4.848 3.287 6.357 4.807 2.076 2.092 3.576 3.604 8.247 4.155 1.764.284 3.243-.093 4.459-1.116 1.76-1.479 2.913-4.277 2.935-7.128.026-3.114-1.1-6.59-3.255-10.05l-.097-.184c-.602-1.369-.803-2.917-.996-4.415-.138-1.06-.28-2.154-.56-3.188-.684-2.525-3.275-5.137-6.603-6.654-1.75-.798-3.504-1.205-5.063-1.205m10.29 36.959c-.496 0-1.003-.042-1.519-.126-5.626-.662-7.714-2.766-9.924-4.994-1.415-1.425-2.879-2.9-5.583-4.247-2.935-1.463-5.49-2.025-7.96-2.57-3.509-.774-6.825-1.504-9.678-4.811C-.01 21.5-.703 17.939.734 14.313c1.838-4.644 7.521-9.42 14.824-9.564 2.263-.044 3.789-.934 5.404-1.877.601-.35 1.221-.71 1.878-1.027 2.838-1.36 6.646-1.147 10.453.59 4.152 1.892 7.299 5.168 8.214 8.549.332 1.225.486 2.42.637 3.574.17 1.314.331 2.556.736 3.53 2.408 3.9 3.665 7.88 3.637 11.518-.024 2.919-1.081 6.905-3.978 9.337-1.495 1.256-3.284 1.902-5.24 1.902" mask="url(#zre58d2bkb)"/>
                        </g>
                        <path fill="#000" d="M10.786 9.198c-.75 0-1.487.189-2.145.573-2.01 1.173-2.997 3.956-2.705 7.638.24 3 2.112 5.854 3.838 7.123.771.566 1.355.7 1.615.642h.001c2.375-.531 4.033-3.303 4.666-7.806.457-3.259-.486-5.93-2.587-7.332-.834-.556-1.769-.838-2.683-.838m.468 18.912c-1.02 0-2.118-.417-3.22-1.227-2.267-1.664-4.697-5.169-5.02-9.243C2.628 12.798 4.14 9.01 7.158 7.25c2.438-1.421 5.48-1.285 7.941.358 3.028 2.018 4.47 5.818 3.86 10.164-1.098 7.821-4.813 9.78-6.93 10.253-.253.057-.512.085-.776.085" transform="translate(26 25.901)"/>
                    </g>
                </g>
            </g>
        </g>
    </g>
</svg>
