<svg xmlns="http://www.w3.org/2000/svg" width="180" height="181" viewBox="0 0 180 181">
    <g fill="none" fill-rule="evenodd">
        <g fill="#000">
            <g>
                <g>
                    <g>
                        <path d="M70.034 59.681c3.368.31 7.333-1.947 10.676-8.843 6.891-14.216-11.609-22.966-15.866-5.206-1.515 6.321 1.821 13.74 5.19 14.05M99.688 64.423c12.13-13.652-5.63-23.82-13.348-10.034-3.743 6.685-3.324 11.228-1.145 13.814 2.18 2.586 10.174 1.079 14.493-3.78M96.85 74.991c-4.752 4.517-5.56 8.335-4.434 11 1.126 2.665 8.04 3.458 12.8.581 13.37-8.083 1.43-20.891-8.365-11.581M81.164 77.537C79.398 70.934 69.013 65.5 62.952 68.44c-2.568 1.247-4.741 3.303-8.648 3.38-11.404.227-19.859 12.03-13.022 18.728 4.764 5.642 10.693 3.718 18.878 7.843 7.867 3.965 6.963 8.955 16.537 10.098 6.617 1.086 9.862-5.496 9.904-10.737.029-3.814-1.306-7.942-3.811-12.012-.997-2.296-.849-5.3-1.626-8.204M50.054 63.572c2.823-.638 5.454-3.52 6.355-10.014 1.858-13.386-15.506-15.627-14.286-.05.435 5.544 5.108 10.702 7.931 10.064" transform="translate(-285 -6121) translate(40 3678) translate(0 2443) translate(245)"/>
                        <path d="M71.818 125.406c-29.58 0-53.646-24.054-53.646-53.619 0-29.566 24.066-53.619 53.646-53.619 29.58 0 53.645 24.052 53.645 53.619 0 29.566-24.065 53.621-53.645 53.621v-.002zm0-112.473c-32.466 0-58.88 26.403-58.88 58.854 0 32.452 26.414 58.854 58.88 58.854s58.878-26.401 58.878-58.852c0-32.451-26.412-58.856-58.878-58.856z" transform="translate(-285 -6121) translate(40 3678) translate(0 2443) translate(245)"/>
                        <path d="M172.381 171.622c-.114.126-.23.248-.364.378-3.694 3.69-9.677 3.698-13.378.015l-33.446-33.432 13.373-13.368 33.463 33.45c3.533 3.543 3.688 9.228.352 12.957zm-53.278-45.852c2.386-2.09 4.632-4.336 6.724-6.721l5.753 5.75-6.724 6.72-5.753-5.75zM5.233 71.787c0-36.697 29.868-66.553 66.585-66.553 36.716 0 66.584 29.856 66.584 66.553 0 36.697-29.868 66.553-66.584 66.553-36.717 0-66.585-29.856-66.585-66.553zm135.183 47.878c-1.022-1.022-2.679-1.022-3.7 0l-1.435 1.434-6.13-6.128c9.414-12.427 14.501-27.594 14.485-43.184C143.636 32.204 111.42 0 71.82 0 32.22 0 0 32.204 0 71.787s32.217 71.786 71.818 71.786c15.596.017 30.77-5.07 43.205-14.481l6.13 6.129-1.513 1.51c-1.022 1.024-1.022 2.68 0 3.703l35.312 35.296c5.732 5.722 15.016 5.718 20.743-.008.191-.188.377-.382.558-.581 5.204-5.73 4.953-14.795-.542-20.194l-35.295-35.282z" transform="translate(-285 -6121) translate(40 3678) translate(0 2443) translate(245)"/>
                    </g>
                </g>
            </g>
        </g>
    </g>
</svg>
