<svg xmlns="http://www.w3.org/2000/svg" xmlns:xlink="http://www.w3.org/1999/xlink" width="220" height="157" viewBox="0 0 220 157">
    <defs>
        <path id="48aoegp9oa" d="M0.478 0.047L68 0.047 68 52.999 0.478 52.999z"/>
        <path id="op6vaoagrc" d="M0 0.841L109.353 0.841 109.353 117.484 0 117.484z"/>
    </defs>
    <g fill="none" fill-rule="evenodd">
        <g>
            <g>
                <g>
                    <g>
                        <g transform="translate(-265 -7680) translate(40 3678) translate(1 4002) translate(224) translate(152 103.159)">
                            <mask id="0qia2m017b" fill="#fff">
                                <use xlink:href="#48aoegp9oa"/>
                            </mask>
                            <path fill="#000" d="M66.57 20.598c-.338-1.405-1.75-2.263-3.155-1.936-1.405.337-2.274 1.75-1.937 3.155 2.275 9.503 1.55 16.523-2.162 20.865-4.85 5.675-13.538 5.061-13.837 5.05H6.152c1.086-3.119 4.056-5.363 7.54-5.363h13.243c1.446 0 2.617-1.17 2.617-2.617 0-1.445-1.17-2.617-2.617-2.617-8.782 0-15.925-7.144-15.925-15.928 0-8.78 7.143-15.925 15.925-15.925 1.446 0 2.617-1.172 2.617-2.618 0-1.445-1.17-2.617-2.617-2.617-11.667 0-21.159 9.492-21.159 21.16 0 6.384 2.853 12.103 7.336 15.987C6.1 37.504.478 43.26.478 50.348c0 1.445 1.171 2.617 2.617 2.617l42.164-.009c.087.008.56.043 1.311.043 3.177 0 11.335-.65 16.69-6.877 4.89-5.686 6.003-14.274 3.31-25.524" mask="url(#0qia2m017b)"/>
                        </g>
                        <path fill="#000" d="M143.395 53.38c-1.178-.864-2.671-1.464-4.401-2.158-3.92-1.575-9.29-3.732-13.476-10.372-.933-1.482-1.202-3.527-.634-4.86.319-.753.877-1.187 1.75-1.368.936-.194 2.237.102 3.604.416 1.19.276 2.423.56 3.726.606 2.914.084 6.07-.45 8.856-1.566.964-.384 1.958-.802 2.98-1.23 7.396-3.11 15.77-6.627 21.887-1.643 5.572 4.542 6.789 17.05 3.632 23.071-.923 1.76-3.325 2.726-5.847 2.35-1.258-.188-4.261-1.024-4.951-4.707-.562-3.006.859-9.61 4.37-13.12 1.023-1.023 1.023-2.68 0-3.702-1.022-1.022-2.678-1.022-3.7 0-4.608 4.608-6.727 12.917-5.812 17.786.894 4.775 4.465 8.192 9.318 8.92 2.405.361 4.74.016 6.72-.892 1.205 8.157 5.25 14.773 9.734 21.305 12.99 18.923 22.294 34.956 14.297 54.567-.547 1.338.097 2.866 1.433 3.411.325.133.66.196.99.196 1.032 0 2.008-.616 2.422-1.63 9.697-23.783-3.9-43.59-14.828-59.506-4.86-7.085-9.196-14.209-9.191-23.248 3.797-8.197 2.226-22.738-5.28-28.857-8.548-6.97-19.341-2.44-27.221.873-.994.417-1.962.824-2.895 1.197-2.127.85-4.52 1.263-6.725 1.193-.804-.027-1.745-.245-2.74-.473-1.77-.409-3.78-.87-5.842-.442-2.555.53-4.51 2.11-5.502 4.445-1.227 2.884-.818 6.782 1.022 9.7 5.089 8.073 11.626 10.7 15.953 12.436 1.4.563 2.609 1.05 3.259 1.524.373.273 9.072 6.901 1.804 23.321-5.094 11.501-3.005 25.158-1.166 37.208.343 2.24.68 4.44.964 6.578 1.235 9.333-.473 13.645-2.121 15.62-1.365 1.634-3.33 2.49-5.881 2.614h-2.65c-5.825 0-10.566 4.74-10.566 10.564 0 1.445 1.17 2.617 2.617 2.617h21.195c1.447 0 2.617-1.172 2.617-2.617s-1.17-2.617-2.617-2.617h-17.89c.917-1.617 2.656-2.713 4.644-2.713l2.775-.002c4.16-.198 7.448-1.71 9.773-4.49 3.374-4.043 4.483-10.658 3.292-19.662-.288-2.174-.63-4.409-.976-6.683-1.82-11.895-3.698-24.195.774-34.299 7.15-16.149 1.168-26.243-3.496-29.66" transform="translate(-265 -7680) translate(40 3678) translate(1 4002) translate(224)"/>
                        <path fill="#000" d="M152.445 34.298c1.463 0 2.65 1.186 2.65 2.65 0 1.462-1.187 2.648-2.65 2.648-1.463 0-2.649-1.186-2.649-2.649s1.186-2.649 2.65-2.649" transform="translate(-265 -7680) translate(40 3678) translate(1 4002) translate(224)"/>
                        <g transform="translate(-265 -7680) translate(40 3678) translate(1 4002) translate(224) translate(0 .159)">
                            <mask id="lf41lh1k0d" fill="#fff">
                                <use xlink:href="#op6vaoagrc"/>
                            </mask>
                            <path fill="#000" d="M103.176 111.357H6.183v-8.57l96.993.005v8.565zM12.432 72.875h84.845l.003 23.17H12.432v-23.17zm0-14.58h1.598c.277.082.553 0 .856 0h36.185c.301 0 .574.08.848 0h45.356l.001 8.678H12.432v-8.679zm5.154-10.216c0-5.684 3.011-10.309 10.283-10.309h10.22c7.856 0 10.284 4.7 10.284 10.385v3.89H17.586V48.08zM22.6 17.156c0-5.719 4.662-10.379 10.38-10.379 5.714 0 10.373 4.658 10.38 10.381 0 5.718-4.663 10.378-10.38 10.378-5.724 0-10.38-4.657-10.38-10.38zm83.661 79.5h-2.636V70.763c.091-.304 0-.616 0-.956V55.11c0-1.7-1.24-3.065-2.748-3.065H72.081l6.441-8.199 1.872 1.546c1.017.825 2.25 1.273 3.533 1.273.23 0 .433-.01.646-.04 1.488-.175 2.83-.93 3.741-2.113l3.527-4.526c1.887-2.417 1.498-5.95-.866-7.907l-8.542-7.05c-1.164-.958-2.633-1.4-4.153-1.244-1.5.167-2.845.921-3.776 2.115l-3.53 4.527c-1.887 2.42-1.5 5.955.868 7.907l1.916 1.581-9.529 12.13H54.156V46.96c0-7.82-6.345-14.18-14.148-14.18h-2.34c6.713-2.022 11.62-8.255 11.628-15.62 0-8.997-7.32-16.32-16.316-16.32-8.996 0-16.317 7.323-16.317 16.317 0 7.365 4.91 13.601 11.627 15.622h-2.34c-7.804 0-14.147 6.362-14.147 14.181v5.085H9.171c-1.053 0-1.947.686-2.409 1.666-.294.473-.508 1-.508 1.595l-.005 41.35H3.092C1.396 96.655 0 98.017 0 99.718v14.7c0 1.7 1.396 3.065 3.092 3.065h103.17c1.696 0 3.091-1.366 3.091-3.066V99.72c0-1.7-1.396-3.064-3.092-3.064z" mask="url(#lf41lh1k0d)"/>
                        </g>
                    </g>
                </g>
            </g>
        </g>
    </g>
</svg>
