<?xml version="1.0" encoding="UTF-8"?>
<!DOCTYPE svg PUBLIC "-//W3C//DTD SVG 1.1//EN" "http://www.w3.org/Graphics/SVG/1.1/DTD/svg11.dtd">
<svg version="1.1" xmlns="http://www.w3.org/2000/svg" xmlns:xlink="http://www.w3.org/1999/xlink" x="0" y="0" width="140" height="45" viewBox="0, 0, 140, 45">
  <defs>
    <clipPath id="Clip_1">
      <path d="M59.107,28.698 L59.107,13.495 L70.938,28.698 L77.671,28.698 L77.671,1 L70.07,1 L70.07,15.641 L58.673,1 L51.512,1 L51.506,28.698 L59.107,28.698 z"/>
    </clipPath>
    <clipPath id="Clip_2">
      <path d="M131.317,28.699 L131.317,7.532 L139.637,7.532 L139.637,1.003 L115.344,1.003 L115.344,7.532 L123.655,7.532 L123.655,28.699 L131.317,28.699 z"/>
    </clipPath>
    <clipPath id="Clip_3">
      <path d="M53.232,43.921 L53.232,34.115 L51.508,34.115 L51.508,43.921 L53.232,43.921 z"/>
    </clipPath>
    <clipPath id="Clip_4">
      <path d="M57.952,43.921 L57.952,36.946 L63.358,43.921 L64.802,43.921 L64.802,34.115 L63.105,34.115 L63.105,40.896 L57.854,34.115 L56.258,34.115 L56.258,43.921 L57.952,43.921 z"/>
    </clipPath>
    <clipPath id="Clip_5">
      <path d="M71.161,44.07 C73.22,44.07 74.664,42.978 74.664,41.129 C74.664,39.491 73.585,38.745 71.511,38.244 C69.635,37.794 69.185,37.459 69.191,36.696 C69.191,36.039 69.781,35.519 70.79,35.519 C71.764,35.556 72.699,35.91 73.451,36.529 L74.364,35.227 C73.363,34.404 72.101,33.967 70.806,33.993 C68.86,33.993 67.461,35.142 67.461,36.851 C67.461,38.676 68.641,39.284 70.727,39.776 C72.548,40.205 72.94,40.539 72.94,41.297 C72.94,42.054 72.268,42.543 71.204,42.543 C69.985,42.543 69.045,42.081 68.109,41.269 L67.072,42.501 C68.19,43.518 69.65,44.078 71.161,44.07 z"/>
    </clipPath>
    <clipPath id="Clip_6">
      <path d="M81.12,44.085 C83.683,44.085 85.337,42.614 85.337,39.685 L85.337,34.114 L83.613,34.114 L83.613,39.755 C83.613,41.58 82.691,42.492 81.15,42.492 C79.608,42.492 78.669,41.516 78.669,39.691 L78.669,34.114 L76.944,34.114 L76.944,39.77 C76.944,42.629 78.556,44.085 81.12,44.085 z"/>
    </clipPath>
    <clipPath id="Clip_7">
      <path d="M94.399,43.93 L96.436,43.921 L93.791,40.209 C95.162,39.831 96.129,38.849 96.129,37.225 C96.129,35.307 94.736,34.114 92.48,34.114 L88.111,34.114 L88.111,43.918 L89.831,43.918 L89.831,40.5 L91.99,40.5 L94.399,43.93 z M92.355,38.98 L89.831,38.98 L89.831,35.693 L92.34,35.693 C93.611,35.693 94.371,36.243 94.371,37.326 C94.371,38.335 93.587,38.98 92.355,38.98 z"/>
    </clipPath>
    <clipPath id="Clip_8">
      <path d="M99.568,43.93 L100.578,41.561 L105.212,41.561 L106.206,43.93 L108.031,43.93 L103.725,34.053 L102.126,34.053 L97.805,43.93 L99.568,43.93 z M104.589,40.035 L101.213,40.035 L102.889,36.112 L104.589,40.035 z"/>
    </clipPath>
    <clipPath id="Clip_9">
      <path d="M111.811,43.921 L111.811,36.945 L117.217,43.921 L118.661,43.921 L118.661,34.114 L116.967,34.114 L116.967,40.895 L111.714,34.114 L110.117,34.114 L110.117,43.921 L111.811,43.921 z"/>
    </clipPath>
    <clipPath id="Clip_10">
      <path d="M126.148,44.098 C127.671,44.147 129.136,43.507 130.135,42.355 L129.028,41.236 C128.189,42.021 127.428,42.511 126.212,42.511 C124.336,42.511 122.977,40.941 122.977,39.008 C122.977,37.074 124.336,35.535 126.212,35.535 C127.325,35.535 128.164,36.024 128.949,36.751 L130.056,35.477 C129.047,34.453 127.654,33.902 126.218,33.957 C123.51,34.002 121.315,36.166 121.232,38.874 C121.148,41.674 123.348,44.013 126.148,44.098 z"/>
    </clipPath>
    <clipPath id="Clip_11">
      <path d="M130.135,44.1 L130.135,33.953 L121.229,33.953 L121.229,44.1 L130.135,44.1 z"/>
    </clipPath>
    <clipPath id="Clip_12">
      <path d="M139.673,43.931 L139.673,42.389 L134.054,42.389 L134.054,39.756 L138.971,39.756 L138.971,38.214 L134.054,38.214 L134.054,35.666 L139.603,35.666 L139.603,34.115 L132.332,34.115 L132.332,43.931 L139.673,43.931 z"/>
    </clipPath>
    <clipPath id="Clip_13">
      <path d="M139.673,43.931 L139.673,34.115 L132.332,34.115 L132.332,43.931 L139.673,43.931 z"/>
    </clipPath>
    <clipPath id="Clip_14">
      <path d="M36.845,43.93 L17.165,24.25 L17.165,31.056 C17.102,33.426 15.129,35.296 12.759,35.233 C10.477,35.172 8.642,33.337 8.581,31.056 L8.581,15.666 L0,7.085 L0,39.64 C0.006,42.006 1.923,43.923 4.29,43.93 L36.845,43.93 z"/>
    </clipPath>
    <clipPath id="Clip_15">
      <path d="M42.915,37.861 L42.915,5.306 C42.908,2.939 40.991,1.022 38.624,1.015 L6.069,1.015 L25.749,20.695 L25.749,13.89 C25.749,11.52 27.67,9.599 30.04,9.599 C32.41,9.599 34.331,11.52 34.331,13.89 L34.331,29.276 L42.915,37.861 z"/>
    </clipPath>
    <clipPath id="Clip_16">
      <path d="M99.169,28.698 L85.27,14.799 L85.27,28.698 L99.169,28.698 z"/>
    </clipPath>
    <clipPath id="Clip_17">
      <path d="M102.374,17.779 L102.374,11.725 L92.866,11.725 L92.866,7.532 L107.742,7.532 L107.742,1.003 L85.27,1.003 L85.27,10.183 L92.866,17.779 L102.374,17.779 z"/>
    </clipPath>
    <clipPath id="Clip_18">
      <path d="M107.742,28.699 L107.742,22.174 L97.257,22.174 L103.786,28.699 L107.742,28.699 z"/>
    </clipPath>
  </defs>
  <g id="Layer_1">
    <g opacity="0.795">
      <g clip-path="url(#Clip_1)">
        <path d="M46.506,-4 L82.671,-4 L82.671,33.698 L46.506,33.698 z" fill="#696969"/>
      </g>
      <g clip-path="url(#Clip_2)">
        <path d="M110.344,-3.997 L144.637,-3.997 L144.637,33.699 L110.344,33.699 z" fill="#696969"/>
      </g>
      <g clip-path="url(#Clip_3)">
        <path d="M46.508,29.115 L58.232,29.115 L58.232,48.921 L46.508,48.921 z" fill="#696969"/>
      </g>
      <g clip-path="url(#Clip_4)">
        <path d="M51.258,29.114 L69.802,29.114 L69.802,48.92 L51.258,48.92 z" fill="#696969"/>
      </g>
      <g clip-path="url(#Clip_5)">
        <path d="M62.071,28.992 L79.663,28.992 L79.663,49.07 L62.071,49.07 z" fill="#696969"/>
      </g>
      <g clip-path="url(#Clip_6)">
        <path d="M71.944,29.114 L90.337,29.114 L90.337,49.085 L71.944,49.085 z" fill="#696969"/>
      </g>
      <g clip-path="url(#Clip_7)">
        <path d="M83.111,29.114 L101.436,29.114 L101.436,48.93 L83.111,48.93 z" fill="#696969"/>
      </g>
      <g clip-path="url(#Clip_8)">
        <path d="M92.805,29.053 L113.031,29.053 L113.031,48.93 L92.805,48.93 z" fill="#696969"/>
      </g>
      <g clip-path="url(#Clip_9)">
        <path d="M105.117,29.114 L123.661,29.114 L123.661,48.921 L105.117,48.921 z" fill="#696969"/>
      </g>
      <g clip-path="url(#Clip_11)">
        <g clip-path="url(#Clip_10)">
          <path d="M116.229,28.953 L135.135,28.953 L135.135,49.1 L116.229,49.1 z" fill="#696969"/>
        </g>
      </g>
      <g clip-path="url(#Clip_13)">
        <g clip-path="url(#Clip_12)">
          <path d="M127.332,29.114 L144.673,29.114 L144.673,48.93 L127.332,48.93 z" fill="#696969"/>
        </g>
      </g>
      <g clip-path="url(#Clip_14)">
        <path d="M-5,2.085 L41.845,2.085 L41.845,48.93 L-5,48.93 z" fill="#696969"/>
      </g>
      <g clip-path="url(#Clip_15)">
        <path d="M1.069,-3.985 L47.915,-3.985 L47.915,42.861 L1.069,42.861 z" fill="#696969"/>
      </g>
      <g clip-path="url(#Clip_16)">
        <path d="M80.27,9.799 L104.169,9.799 L104.169,33.698 L80.27,33.698 z" fill="#696969"/>
      </g>
      <g clip-path="url(#Clip_17)">
        <path d="M80.27,-3.997 L112.742,-3.997 L112.742,22.779 L80.27,22.779 z" fill="#696969"/>
      </g>
      <g clip-path="url(#Clip_18)">
        <path d="M92.257,17.174 L112.742,17.174 L112.742,33.699 L92.257,33.699 z" fill="#696969"/>
      </g>
    </g>
  </g>
</svg>
