<?xml version="1.0" encoding="UTF-8"?>
<!DOCTYPE svg PUBLIC "-//W3C//DTD SVG 1.1//EN" "http://www.w3.org/Graphics/SVG/1.1/DTD/svg11.dtd">
<svg version="1.1" xmlns="http://www.w3.org/2000/svg" xmlns:xlink="http://www.w3.org/1999/xlink" x="0" y="0" width="20" height="20" viewBox="0, 0, 20, 20">
  <g id="Background">
    <rect x="0" y="0" width="20" height="20" fill="#000000" fill-opacity="0"/>
  </g>
  <g id="Livello_1">
    <path d="M10.006,12.373 L17.14,19.513 C17.787,20.162 18.852,20.162 19.515,19.513 C20.162,18.851 20.162,17.785 19.515,17.139 L12.377,9.998 L19.515,2.854 C20.162,2.206 20.162,1.142 19.515,0.494 C19.175,0.154 18.759,-0 18.327,-0 C17.895,-0 17.464,0.155 17.14,0.494 L10.006,7.628 L2.873,0.494 C2.533,0.154 2.102,-0.001 1.686,-0.001 C1.254,-0.001 0.82,0.155 0.498,0.494 C-0.165,1.142 -0.165,2.206 0.498,2.854 L7.636,9.998 L0.498,17.139 C-0.165,17.785 -0.165,18.851 0.498,19.514 C1.146,20.162 2.21,20.162 2.873,19.514 L10.006,12.373 z" fill="#FFFFFF" fill-opacity="0.505"/>
  </g>
</svg>
