<svg xmlns="http://www.w3.org/2000/svg" width="120" height="120" viewBox="0 0 120 120">
    <g fill="none" fill-rule="evenodd">
        <g>
            <g>
                <g>
                    <g>
                        <g>
                            <path fill="#CCC" d="M60 118.667C27.651 118.667 1.333 92.35 1.333 60 1.333 27.651 27.651 1.333 60 1.333c32.35 0 58.667 26.318 58.667 58.667 0 32.35-26.318 58.667-58.667 58.667" transform="translate(-460 -1138) translate(40 858) translate(80 280) translate(290) translate(50)"/>
                            <path fill="#666" d="M60 0C26.863 0 0 26.862 0 60c0 33.137 26.863 60 60 60s60-26.863 60-60c0-33.138-26.863-60-60-60m0 2.666c31.613 0 57.333 25.72 57.333 57.334 0 31.613-25.72 57.333-57.333 57.333-31.614 0-57.333-25.72-57.333-57.333C2.667 28.386 28.387 2.666 60 2.666" transform="translate(-460 -1138) translate(40 858) translate(80 280) translate(290) translate(50)"/>
                            <path fill="#FFF" d="M57.723 47.683c3.352.306 7.297-1.922 10.625-8.731 6.858-14.04-11.554-22.68-15.79-5.142-1.508 6.243 1.812 13.569 5.165 13.873M87.234 52.365c12.073-13.48-5.603-23.522-13.282-9.909-3.727 6.602-3.31 11.09-1.14 13.642 2.17 2.555 10.126 1.066 14.422-3.733M84.41 62.802c-4.73 4.46-5.534 8.23-4.414 10.862 1.122 2.633 8.002 3.415 12.74.575 13.305-7.983 1.424-20.63-8.326-11.437M68.8 65.317c-1.758-6.521-12.093-11.887-18.125-8.982-2.556 1.23-4.718 3.26-8.606 3.337-11.35.224-19.765 11.88-12.96 18.494 4.741 5.572 10.64 3.672 18.786 7.746 7.83 3.915 6.93 8.842 16.458 9.97 6.587 1.074 9.816-5.426 9.857-10.602.03-3.766-1.3-7.842-3.791-11.862-.993-2.267-.846-5.233-1.62-8.101M37.839 51.526c2.809-.63 5.428-3.476 6.325-9.888 1.849-13.22-15.433-15.432-14.219-.05.434 5.475 5.084 10.568 7.894 9.938" transform="translate(-460 -1138) translate(40 858) translate(80 280) translate(290) translate(50)"/>
                        </g>
                    </g>
                </g>
            </g>
        </g>
    </g>
</svg>
