<svg xmlns="http://www.w3.org/2000/svg" width="120" height="120" viewBox="0 0 120 120">
    <g fill="none" fill-rule="evenodd">
        <g>
            <g>
                <g>
                    <g>
                        <path fill="#666" d="M60 0C26.863 0 0 26.862 0 60c0 33.137 26.863 60 60 60s60-26.863 60-60c0-33.138-26.863-60-60-60m0 2.667c31.614 0 57.333 25.72 57.333 57.333S91.613 117.333 60 117.333 2.667 91.613 2.667 60C2.667 28.386 28.387 2.667 60 2.667" transform="translate(-170 -1138) translate(40 858) translate(80 280) translate(50)"/>
                        <path fill="#0073d2" d="M57.723 47.684c3.352.305 7.298-1.923 10.625-8.732 6.858-14.04-11.554-22.68-15.791-5.141-1.507 6.242 1.813 13.568 5.166 13.873M87.235 52.365c12.072-13.48-5.604-23.522-13.284-9.909-3.725 6.603-3.308 11.09-1.14 13.642 2.17 2.554 10.126 1.066 14.424-3.733M84.41 62.802c-4.73 4.46-5.534 8.23-4.414 10.862 1.121 2.633 8.002 3.415 12.74.575 13.305-7.983 1.424-20.63-8.326-11.437M68.8 65.317c-1.758-6.52-12.093-11.887-18.125-8.982-2.556 1.23-4.718 3.26-8.606 3.337-11.35.224-19.764 11.88-12.96 18.495 4.742 5.57 10.64 3.67 18.787 7.745 7.83 3.914 6.93 8.841 16.458 9.97 6.586 1.073 9.815-5.427 9.856-10.603.03-3.766-1.3-7.841-3.791-11.86-.993-2.269-.846-5.234-1.62-8.102M37.839 51.526c2.809-.63 5.428-3.477 6.325-9.889 1.848-13.218-15.432-15.431-14.218-.05.434 5.475 5.084 10.569 7.893 9.938" transform="translate(-170 -1138) translate(40 858) translate(80 280) translate(50)"/>
                    </g>
                </g>
            </g>
        </g>
    </g>
</svg>
