<?xml version="1.0" encoding="UTF-8"?>
<!DOCTYPE svg PUBLIC "-//W3C//DTD SVG 1.1//EN" "http://www.w3.org/Graphics/SVG/1.1/DTD/svg11.dtd">
<svg version="1.1" xmlns="http://www.w3.org/2000/svg" xmlns:xlink="http://www.w3.org/1999/xlink" x="0" y="0" width="30" height="30" viewBox="0, 0, 30, 30">
  <g id="Livello_1">
    <path d="M12.94,9.868 C14.336,9.995 15.98,9.067 17.368,6.23 C20.225,0.38 12.553,-3.22 10.788,4.088 C10.16,6.689 11.544,9.741 12.94,9.868 M25.237,11.82 C30.266,6.201 22.902,2.018 19.702,7.69 C18.15,10.441 18.322,12.31 19.227,13.374 C20.132,14.439 23.446,13.818 25.237,11.819 M24.06,16.167 C22.089,18.025 21.754,19.597 22.22,20.693 C22.688,21.79 25.555,22.116 27.529,20.933 C33.073,17.606 28.122,12.336 24.059,16.167 M17.555,17.215 C16.823,14.498 12.516,12.262 10.003,13.472 C8.938,13.986 8.037,14.832 6.417,14.863 C1.688,14.956 -1.818,19.813 1.017,22.569 C2.993,24.89 5.451,24.099 8.845,25.796 C12.108,27.427 11.733,29.481 15.702,29.951 C18.447,30.398 19.792,27.691 19.81,25.533 C19.822,23.964 19.268,22.265 18.23,20.59 C17.816,19.646 17.877,18.41 17.555,17.215 M4.655,11.47 C5.825,11.207 6.917,10.021 7.291,7.35 C8.06,1.84 0.86,0.92 1.367,7.327 C1.547,9.608 3.485,11.73 4.655,11.468" fill="#0073d2"/>
  </g>
</svg>
