<svg xmlns="http://www.w3.org/2000/svg" width="30" height="30" viewBox="0 0 30 30">
    <defs>
        <filter id="0vfcvdfcua">
            <feColorMatrix in="SourceGraphic" values="0 0 0 0 0.400000 0 0 0 0 0.400000 0 0 0 0 0.400000 0 0 0 1.000000 0"/>
        </filter>
    </defs>
    <g fill="none" fill-rule="evenodd">
        <g>
            <g>
                <g>
                    <g>
                        <g filter="url(#0vfcvdfcua)" transform="translate(-595 -1826) translate(40 858) translate(30 840) translate(470 36) translate(45 82)">
                            <g>
                                <path fill="#FFF" d="M12.94 9.868c1.396.127 3.04-.801 4.428-3.638 2.857-5.85-4.815-9.45-6.58-2.142-.628 2.601.756 5.653 2.152 5.78M25.237 11.82c5.029-5.619-2.335-9.802-5.535-4.13-1.552 2.751-1.38 4.62-.475 5.684.905 1.065 4.219.444 6.01-1.555M24.06 16.167c-1.971 1.858-2.306 3.43-1.84 4.526.468 1.097 3.335 1.423 5.309.24 5.544-3.327.593-8.597-3.47-4.766M17.555 17.215c-.732-2.717-5.039-4.953-7.552-3.743-1.065.514-1.966 1.36-3.586 1.391-4.729.093-8.235 4.95-5.4 7.706 1.976 2.321 4.434 1.53 7.828 3.227 3.263 1.631 2.888 3.685 6.857 4.155 2.745.447 4.09-2.26 4.108-4.418.012-1.569-.542-3.268-1.58-4.943-.414-.944-.353-2.18-.675-3.375M4.655 11.47c1.17-.263 2.262-1.449 2.636-4.12C8.06 1.84.86.92 1.367 7.327c.18 2.281 2.118 4.403 3.288 4.141" transform="translate(10 10)"/>
                            </g>
                        </g>
                    </g>
                </g>
            </g>
        </g>
    </g>
</svg>
