<?xml version="1.0" encoding="UTF-8"?>
<!DOCTYPE svg PUBLIC "-//W3C//DTD SVG 1.1//EN" "http://www.w3.org/Graphics/SVG/1.1/DTD/svg11.dtd">
<svg version="1.1" xmlns="http://www.w3.org/2000/svg" xmlns:xlink="http://www.w3.org/1999/xlink" x="0" y="0" width="209" height="180" viewBox="0, 0, 209, 180">
  <g id="Background">
    <rect x="0" y="0" width="209" height="180" fill="#000000" fill-opacity="0"/>
  </g>
  <defs>
    <clipPath id="Clip_1">
      <path d="M7.732,105 C8.937,105 10.132,105.288 11.234,105.858 C13.079,106.811 14.444,108.437 15.091,110.474 C15.818,112.674 33.709,164.349 104.499,164.348 C175.914,164.349 193.748,110.978 193.921,110.435 C194.555,108.437 195.92,106.811 197.765,105.858 C199.59,104.914 201.673,104.742 203.627,105.376 C207.689,106.693 209.933,111.112 208.629,115.222 C208.412,115.901 203.154,132.042 187.611,148 C173.393,162.599 147.432,180 104.499,180 C61.567,180 35.606,162.599 21.387,148 C5.845,132.042 0.587,115.901 0.371,115.225 C-0.933,111.111 1.311,106.692 5.371,105.376 C6.147,105.125 6.942,105 7.732,105 z M15.439,2.118 C18.943,2.194 17.485,1.871 19.885,2.66 L63.342,21.823 C66.173,23.071 68,25.888 68,29.001 C68,32.112 66.171,34.929 63.342,36.178 L19.885,55.34 C18.893,55.779 17.847,56 16.776,56 C13.693,56 10.899,54.161 9.657,51.315 C7.93,47.353 9.725,42.719 13.659,40.985 L40.837,29.001 L13.659,17.015 C9.725,15.281 7.93,10.647 9.657,6.686 C10.495,4.765 12.026,3.29 13.967,2.532 L15.439,2.118 z M170,0 C184.335,0 196,11.888 196,26.499 C196,41.112 184.335,53 170,53 C155.665,53 144,41.112 144,26.499 C144,11.888 155.665,0 170,0 z"/>
    </clipPath>
  </defs>
  <g id="Layer_1">
    <g clip-path="url(#Clip_1)">
      <path d="M-5,-5 L214,-5 L214,185 L-5,185 z" fill="#0073d2"/>
    </g>
  </g>
</svg>
