<?xml version="1.0" encoding="UTF-8"?>
<!DOCTYPE svg PUBLIC "-//W3C//DTD SVG 1.1//EN" "http://www.w3.org/Graphics/SVG/1.1/DTD/svg11.dtd">
<svg version="1.1" xmlns="http://www.w3.org/2000/svg" xmlns:xlink="http://www.w3.org/1999/xlink" x="0" y="0" width="30.522" height="19" viewBox="0, 0, 30.522, 19">
  <g id="Page-1" transform="translate(0.64, -2)">
    <path d="M26.58,21 L2.42,21 C1.094,21.011 0.011,19.946 0,18.62 L0,4.38 C0.011,3.054 1.094,1.989 2.42,2 L26.58,2 C27.906,1.989 28.989,3.054 29,4.38 L29,18.63 C28.984,19.952 27.902,21.011 26.58,21 z" fill="#1D91CE" id="shape"/>
    <path d="M4.063,13.896 L3.591,15 L-0.64,15 L2.699,8 L10.674,8 L11.479,9.546 L12.231,8 L15.064,8 L16.492,8 L22.983,8 L23.902,8.961 L24.889,8 L29.882,8 L26.337,11.492 L29.729,15 L24.897,15 L23.816,13.969 L22.744,15 L16.492,15 L15.064,15 L5.496,15 L4.977,13.896" fill="#FFFFFF" id="shape"/>
    <path d="M4.98,13.97 L4.06,13.97 L4.98,13.97 z M15.2,9 L13.1,9 L11.52,12.35 L9.82,9 L7.72,9 L7.72,13.85 L5.55,9 L3.58,9 L1.26,14 L2.68,14 L3.15,12.86 L5.85,12.86 L6.39,14 L9,14 L9,9.93 L10.85,14 L12.07,14 L13.91,10 L13.91,14 L15.2,14 L15.2,9 z M23.87,10.62 L22.37,9 L16.35,9 L16.35,14 L22.17,14 L23.82,12.36 L25.48,14 L27.03,14 L24.66,11.47 L27.1,9 L25.48,9 L23.87,10.62 z M20.7,13 L17.64,13 L17.64,11.9 L20.7,11.9 L20.7,10.9 L17.64,10.9 L17.64,10 L20.7,10 L20.7,9.15 L22.97,11.42 L20.7,13.7 L20.7,13 z M4.53,9.82 L5.41,11.85 L3.58,11.85 L4.53,9.82 z" fill="#1D91CE" id="shape"/>
  </g>
</svg>
