<?xml version="1.0" encoding="UTF-8"?>
<!DOCTYPE svg PUBLIC "-//W3C//DTD SVG 1.1//EN" "http://www.w3.org/Graphics/SVG/1.1/DTD/svg11.dtd">
<svg version="1.1" xmlns="http://www.w3.org/2000/svg" xmlns:xlink="http://www.w3.org/1999/xlink" x="0" y="0" width="24" height="20" viewBox="0, 0, 24, 20">
  <defs>
    <clipPath id="Clip_1">
      <path d="M10.45,0.052 L10.687,0.208 C10.976,0.486 10.976,0.935 10.687,1.213 L2.424,9.333 L23.196,9.333 C23.76,9.333 24,9.634 24,10.003 C24,10.373 23.76,10.667 23.196,10.667 L2.43,10.667 L10.687,18.787 C10.976,19.065 10.976,19.514 10.687,19.792 C10.411,20.069 9.947,20.069 9.665,19.792 L0.215,10.499 C0.074,10.361 0,10.181 0,9.997 C0,9.819 0.074,9.633 0.215,9.495 L9.665,0.208 C10.057,-0.047 9.809,0.052 10.45,0.052 z"/>
    </clipPath>
  </defs>
  <g id="Layer_1">
    <g clip-path="url(#Clip_1)">
      <path d="M-5,-5 L29,-5 L29,25 L-5,25 z" fill="#666666"/>
    </g>
  </g>
</svg>
