<?xml version="1.0" encoding="UTF-8"?>
<!DOCTYPE svg PUBLIC "-//W3C//DTD SVG 1.1//EN" "http://www.w3.org/Graphics/SVG/1.1/DTD/svg11.dtd">
<svg version="1.1" xmlns="http://www.w3.org/2000/svg" xmlns:xlink="http://www.w3.org/1999/xlink" x="0" y="0" width="29" height="19" viewBox="0, 0, 29, 19">
  <g id="Page-1" transform="translate(0, -2)">
    <g>
      <path d="M26.58,21 L2.42,21 C1.094,21.011 0.011,19.945 0,18.62 L0,4.38 C0.011,3.054 1.094,1.989 2.42,2 L26.58,2 C27.906,1.989 28.989,3.054 29,4.38 L29,18.63 C28.984,19.951 27.902,21.011 26.58,21 z" fill="#003663" id="shape"/>
      <g>
        <path d="M13.97,13.161 Q13.854,14.767 12.784,15.69 Q11.714,16.613 9.964,16.613 Q8.05,16.613 6.953,15.325 Q5.856,14.036 5.856,11.787 L5.856,11.179 Q5.856,9.743 6.362,8.649 Q6.868,7.556 7.808,6.971 Q8.748,6.387 9.992,6.387 Q11.714,6.387 12.767,7.309 Q13.82,8.232 13.984,9.9 L11.933,9.9 Q11.858,8.936 11.396,8.502 Q10.935,8.068 9.992,8.068 Q8.966,8.068 8.457,8.803 Q7.948,9.538 7.934,11.083 L7.934,11.835 Q7.934,13.448 8.423,14.193 Q8.912,14.938 9.964,14.938 Q10.915,14.938 11.383,14.504 Q11.851,14.07 11.919,13.161 z" fill="#FFFFFF"/>
        <path d="M23.13,13.161 Q23.014,14.767 21.944,15.69 Q20.875,16.613 19.125,16.613 Q17.21,16.613 16.113,15.325 Q15.016,14.036 15.016,11.787 L15.016,11.179 Q15.016,9.743 15.522,8.649 Q16.028,7.556 16.968,6.971 Q17.908,6.387 19.152,6.387 Q20.875,6.387 21.927,7.309 Q22.98,8.232 23.144,9.9 L21.093,9.9 Q21.018,8.936 20.557,8.502 Q20.095,8.068 19.152,8.068 Q18.126,8.068 17.617,8.803 Q17.108,9.538 17.094,11.083 L17.094,11.835 Q17.094,13.448 17.583,14.193 Q18.072,14.938 19.125,14.938 Q20.075,14.938 20.543,14.504 Q21.011,14.07 21.08,13.161 z" fill="#FFFFFF"/>
      </g>
    </g>
  </g>
</svg>
