<svg xmlns="http://www.w3.org/2000/svg" xmlns:xlink="http://www.w3.org/1999/xlink" width="100" height="156" viewBox="0 0 100 156">
    <defs>
        <filter id="1biby6ytza">
            <feColorMatrix in="SourceGraphic" values="0 0 0 0 0.396078 0 0 0 0 0.396078 0 0 0 0 0.396078 0 0 0 1.000000 0"/>
        </filter>
        <path id="tkihkbmf0b" d="M0 0L100 0 100 155.886 0 155.886z"/>
    </defs>
    <g fill="none" fill-rule="evenodd">
        <g>
            <g filter="url(#1biby6ytza)" transform="translate(-325 -486) translate(20 150)">
                <g transform="translate(305 336)">
                    <mask id="k88ljxqiyc" fill="#fff">
                        <use xlink:href="#tkihkbmf0b"/>
                    </mask>
                    <path fill="#000" d="M52.236 50.822c3.244 0 5.882 2.64 5.882 5.886v6.703c0 1.686 1.369 3.057 3.057 3.057 1.689 0 3.057-1.37 3.057-3.057 0-3.244 2.64-5.882 5.886-5.882s5.886 2.638 5.886 5.882v4.471c0 1.688 1.368 3.056 3.057 3.056 1.689 0 3.057-1.368 3.057-3.056C82.118 64.638 84.756 62 88 62c3.246 0 5.887 2.638 5.887 5.883v38.003c0 24.201-19.688 43.887-43.888 43.887-24.201 0-43.888-19.686-43.888-43.886V67.53c.912-.313 1.995-.485 3.139-.485.882 0 8.632.213 8.632 7.543v22.356c0 1.69 1.369 3.057 3.057 3.057h4.471c1.69 0 3.058-1.368 3.058-3.057V12c0-3.245 2.638-5.886 5.884-5.886 3.246 0 5.884 2.641 5.884 5.886v44.71c0 1.687 1.368 3.055 3.056 3.055 1.69 0 3.058-1.368 3.058-3.056 0-3.246 2.64-5.886 5.886-5.886M34.352 0c-6.614 0-12 5.384-12 12v55.964c-2.589-4.637-7.87-7.03-13.102-7.03-3.004 0-5.81.772-7.899 2.178C.506 63.68 0 64.631 0 65.647v40.24c0 27.57 22.428 50 50 50 27.571 0 50-22.43 50-50V67.881c0-6.616-5.381-11.996-12-11.996-2.641 0-5.089.86-7.076 2.313-1.943-4.012-6.055-6.784-10.806-6.784-2.347 0-4.538.677-6.39 1.845-1.482-4.943-6.074-8.552-11.492-8.552-2.138 0-4.148.561-5.886 1.545V12c0-6.616-5.383-12-11.998-12" mask="url(#k88ljxqiyc)"/>
                </g>
            </g>
        </g>
    </g>
</svg>
