<?xml version="1.0" encoding="UTF-8"?>
<!DOCTYPE svg PUBLIC "-//W3C//DTD SVG 1.1//EN" "http://www.w3.org/Graphics/SVG/1.1/DTD/svg11.dtd">
<svg version="1.1" xmlns="http://www.w3.org/2000/svg" xmlns:xlink="http://www.w3.org/1999/xlink" x="0" y="0" width="122" height="112" viewBox="0, 0, 122, 112">
  <defs>
    <clipPath id="Clip_1">
      <path d="M60.751,112 C61.852,112.034 62.829,111.569 63.704,110.951 C65.672,109.351 111.969,71.515 119.098,48.547 C123.112,37.59 121.992,24.277 116.233,14.61 C111.329,6.429 103.704,1.474 94.177,0.282 C77.527,-1.761 66.04,7.885 60.747,13.708 C55.454,7.885 43.969,-1.776 27.313,0.283 C17.78,1.476 10.162,6.432 5.287,14.611 C-0.496,24.274 -1.638,37.536 2.372,48.415 C9.557,71.53 55.823,109.351 57.753,110.921 C58.586,111.668 59.665,111.907 60.744,112 L60.751,112 z"/>
    </clipPath>
    <clipPath id="Clip_2">
      <path d="M121.482,0 L121.482,112 L0,112 L0,0 L121.482,0 z"/>
    </clipPath>
    <clipPath id="Clip_3">
      <path d="M60.5,25 C61.448,25 62.315,25.526 62.747,26.36 L64.199,29.17 C64.43,29.618 64.512,30.115 64.453,30.6 C77.197,32.493 87,43.399 87,56.529 C87,57.218 86.435,57.778 85.738,57.778 C85.042,57.778 84.476,57.218 84.476,56.529 C84.476,54.668 82.166,53.095 79.428,53.095 C76.692,53.095 74.381,54.668 74.381,56.529 C74.381,57.218 73.815,57.778 73.119,57.778 C72.422,57.778 71.857,57.218 71.857,56.529 C71.857,54.668 69.546,53.095 66.81,53.095 C64.073,53.095 61.762,54.668 61.762,56.529 L61.762,56.534 L61.753,78.693 C61.589,81.646 59.109,84 56.083,84 C52.952,84 50.404,81.479 50.404,78.381 C50.404,77.692 50.97,77.132 51.667,77.132 C52.363,77.132 52.929,77.692 52.929,78.381 C52.929,80.102 54.343,81.503 56.083,81.503 C57.823,81.503 59.238,80.102 59.238,78.381 L59.238,56.529 C59.238,54.668 56.926,53.095 54.19,53.095 C51.454,53.095 49.143,54.668 49.143,56.529 C49.143,57.218 48.577,57.778 47.88,57.778 C47.184,57.778 46.619,57.218 46.619,56.529 C46.619,54.668 44.307,53.095 41.571,53.095 C38.835,53.095 36.523,54.668 36.523,56.529 C36.523,57.218 35.958,57.778 35.262,57.778 C34.565,57.778 34,57.218 34,56.529 C34,43.399 43.803,32.494 56.546,30.601 C56.488,30.115 56.569,29.618 56.801,29.17 L58.252,26.36 C58.685,25.525 59.552,25 60.5,25 z M60.5,32.804 C48.914,32.805 39.221,40.977 37.001,51.802 C38.272,51.046 39.856,50.598 41.571,50.598 C44.202,50.598 46.523,51.653 47.88,53.254 C49.238,51.653 51.56,50.598 54.19,50.598 C56.821,50.598 59.142,51.653 60.5,53.254 C61.857,51.653 64.178,50.598 66.81,50.598 C69.44,50.598 71.762,51.653 73.119,53.254 C74.476,51.653 76.798,50.598 79.428,50.598 C81.144,50.598 82.728,51.046 83.998,51.802 C81.779,40.977 72.086,32.805 60.5,32.804 z M60.5,27.498 L59.048,30.307 L61.952,30.307 L60.5,27.498 z"/>
    </clipPath>
  </defs>
  <g id="Layer_1">
    <g clip-path="url(#Clip_2)">
      <g clip-path="url(#Clip_1)">
        <path d="M-5,-5 L126.482,-5 L126.482,117 L-5,117 z" fill="#EE3468"/>
      </g>
    </g>
    <g clip-path="url(#Clip_3)">
      <path d="M29,20 L92,20 L92,89 L29,89 z" fill="#FFFFFE"/>
    </g>
  </g>
</svg>
