<?xml version="1.0" encoding="UTF-8"?>
<!DOCTYPE svg PUBLIC "-//W3C//DTD SVG 1.1//EN" "http://www.w3.org/Graphics/SVG/1.1/DTD/svg11.dtd">
<svg version="1.1" xmlns="http://www.w3.org/2000/svg" xmlns:xlink="http://www.w3.org/1999/xlink" x="0" y="0" width="90" height="60" viewBox="0, 0, 90, 60">
  <defs>
    <clipPath id="Clip_1">
      <path d="M89.563,60 L89.563,0.001 L0,0.001 L0,60 L89.563,60 z M44.581,36.656 C42.712,36.126 43.457,36.501 42.253,35.734 L6.168,3.183 L83.394,3.183 L47.304,35.739 C46.392,36.422 46.971,36.071 45.471,36.617 L44.581,36.656 z M86.379,54.666 L58.813,29.836 L86.379,5.005 L86.379,54.666 z M3.292,54.666 L3.292,5.005 L30.858,29.836 L3.292,54.666 z M83.721,56.709 L5.84,56.709 L33.244,32.035 L40.054,38.112 C42.626,40.452 46.867,40.505 49.507,38.223 L56.321,32.037 L83.721,56.709 z"/>
    </clipPath>
    <clipPath id="Clip_2">
      <path d="M89.563,0.001 L89.563,60 L0.001,60 L0.001,0.001 L89.563,0.001 z"/>
    </clipPath>
  </defs>
  <g id="Layer_1">
    <g clip-path="url(#Clip_2)">
      <g clip-path="url(#Clip_1)">
        <path d="M-5,-4.999 L94.563,-4.999 L94.563,65.001 L-5,65.001 z" fill="#000000"/>
      </g>
    </g>
  </g>
</svg>
