<?xml version="1.0" encoding="UTF-8"?>
<!DOCTYPE svg PUBLIC "-//W3C//DTD SVG 1.1//EN" "http://www.w3.org/Graphics/SVG/1.1/DTD/svg11.dtd">
<svg version="1.1" xmlns="http://www.w3.org/2000/svg" xmlns:xlink="http://www.w3.org/1999/xlink" x="0" y="0" width="27" height="40" viewBox="0, 0, 27, 40">
  <defs>
    <clipPath id="Clip_1">
      <path d="M13.349,39.998 C17.004,39.998 19.979,37.023 19.979,33.368 L19.979,28.922 L20.022,28.922 L20.022,28.297 C20.235,26.525 21.63,24.096 23.178,21.614 C24.857,18.919 26.697,16.174 26.697,13.345 C26.572,5.809 20.699,0.372 13.357,-0 L13.349,-0 L13.349,0.005 C5.989,0.005 0,5.989 0,13.349 C0.004,16.175 1.846,18.914 3.524,21.605 C5.071,24.084 6.463,26.511 6.674,28.279 L6.674,28.922 L6.718,28.922 L6.718,33.368 C6.718,37.023 9.693,39.998 13.349,39.998 z M18.142,26.698 L8.56,26.698 C7.976,24.582 6.61,22.514 5.336,20.471 C3.657,17.78 2.14,15.136 2.138,13.345 C2.138,7.14 7.144,2.134 13.349,2.134 L13.349,2.138 C19.553,2.138 24.559,7.144 24.559,13.349 C24.559,15.143 23.041,17.785 21.361,20.479 C20.09,22.519 18.728,24.586 18.142,26.698 z M17.842,33.371 L8.855,33.371 L8.855,28.922 L17.842,28.922 L17.842,33.371 z M13.349,37.865 C11.66,37.865 10.224,36.951 9.455,35.597 L17.242,35.597 C16.474,36.951 15.037,37.865 13.349,37.865 z"/>
    </clipPath>
  </defs>
  <g id="Layer_1">
    <g clip-path="url(#Clip_1)">
      <path d="M-5,-5 L31.697,-5 L31.697,44.998 L-5,44.998 z" fill="#000000"/>
    </g>
  </g>
</svg>
