<svg xmlns="http://www.w3.org/2000/svg" xmlns:xlink="http://www.w3.org/1999/xlink" width="60" height="52" viewBox="0 0 60 52">
    <defs>
        <filter id="s8rx8viyka">
            <feColorMatrix in="SourceGraphic" values="0 0 0 0 0.186233 0 0 0 0 0.186303 0 0 0 0 0.186341 0 0 0 1.000000 0"/>
        </filter>
        <path id="870kux032b" d="M0 0L60 0 60 51.562 0 51.562z"/>
    </defs>
    <g fill="none" fill-rule="evenodd">
        <g>
            <g filter="url(#s8rx8viyka)" transform="translate(-625 -729) translate(25 680)">
                <g transform="translate(600 49)">
                    <mask id="mo0i987mac" fill="#fff">
                        <use xlink:href="#870kux032b"/>
                    </mask>
                    <path fill="#FFF" d="M46.406 28.125c1.94 0 3.516 1.577 3.516 3.516s-1.577 3.515-3.516 3.515c-.702 0-1.38-.211-1.954-.594.51-.882.782-1.888.782-2.921s-.273-2.04-.782-2.921c.574-.384 1.253-.595 1.954-.595zm-7.03 0c1.007 0 1.968.435 2.634 1.19l.001.002c.567.64.88 1.466.88 2.323s-.313 1.682-.88 2.325c-.667.757-1.628 1.19-2.636 1.19-1.939 0-3.516-1.576-3.516-3.515 0-1.94 1.577-3.516 3.516-3.516zm0-2.344c-3.232 0-5.86 2.629-5.86 5.86 0 3.23 2.628 5.859 5.86 5.859 1.277 0 2.51-.42 3.513-1.173 1.008.754 2.24 1.173 3.517 1.173 3.231 0 5.86-2.628 5.86-5.86 0-3.23-2.629-5.86-5.86-5.86-1.278 0-2.509.42-3.517 1.175-1.005-.754-2.236-1.174-3.514-1.174zM11.25 21.094h45.234c.646 0 1.172.526 1.172 1.172v25.78c0 .647-.526 1.173-1.172 1.173H11.25c-.646 0-1.172-.526-1.172-1.172V22.266c0-.646.526-1.172 1.172-1.172zm-8.907-7.032h47.58v4.688H11.25c-1.939 0-3.516 1.577-3.516 3.516v8.203H3.515c-.646 0-1.172-.526-1.172-1.172V14.062zM3.515 2.344H48.75c.646 0 1.172.526 1.172 1.172V7.03H2.343V3.516c0-.646.526-1.172 1.172-1.172zm0-2.344C1.577 0 0 1.577 0 3.516v25.78c0 1.94 1.577 3.516 3.515 3.516h4.22v15.235c0 1.939 1.576 3.515 3.515 3.515h45.234c1.94 0 3.516-1.576 3.516-3.515V22.266c0-1.94-1.577-3.516-3.516-3.516h-4.219V3.516C52.265 1.576 50.69 0 48.75 0H3.515z" mask="url(#mo0i987mac)"/>
                </g>
            </g>
        </g>
    </g>
</svg>
