<?xml version="1.0" encoding="UTF-8"?>
<!DOCTYPE svg PUBLIC "-//W3C//DTD SVG 1.1//EN" "http://www.w3.org/Graphics/SVG/1.1/DTD/svg11.dtd">
<svg version="1.1" xmlns="http://www.w3.org/2000/svg" xmlns:xlink="http://www.w3.org/1999/xlink" x="0" y="0" width="30" height="30" viewBox="0, 0, 30, 30">
  <defs>
    <clipPath id="Clip_1">
      <path d="M15,1.5 C22.456,1.5 28.5,7.544 28.5,15 C28.5,22.456 22.456,28.5 15,28.5 C7.544,28.5 1.5,22.456 1.5,15 C1.5,7.544 7.544,1.5 15,1.5 z"/>
    </clipPath>
    <clipPath id="Clip_2">
      <path d="M15.014,30 C23.482,29.856 29.582,23.245 30,15 C29.858,6.53 23.256,0.419 15.004,0 L14.996,0 C6.525,0.143 0.418,6.748 0,15 C0.142,23.462 6.737,29.582 14.986,30 L15.014,30 z M15,27.907 C7.884,27.907 2.093,22.117 2.093,15 C2.093,7.884 7.884,2.093 15,2.093 C22.116,2.093 27.907,7.884 27.907,15 C27.907,22.117 22.116,27.907 15,27.907 z M15,13.605 C15.593,13.605 16.046,13.116 16.046,12.558 L16.046,6.279 C16.046,5.686 15.593,5.233 15,5.233 C14.407,5.233 13.954,5.686 13.954,6.279 L13.954,12.558 C13.954,13.151 14.407,13.605 15,13.605 z M15,23.093 C17.337,23.093 19.57,22.082 21.104,20.302 C24.035,16.954 23.686,11.826 20.302,8.896 C19.884,8.512 19.221,8.582 18.837,9 C18.454,9.419 18.488,10.082 18.942,10.465 C19.151,10.64 19.36,10.849 19.535,11.058 C21.732,13.57 21.454,17.337 18.942,19.535 C16.43,21.733 12.628,21.454 10.465,18.942 C8.268,16.43 8.546,12.628 11.058,10.465 C11.512,10.082 11.546,9.454 11.163,9 C10.779,8.547 10.151,8.512 9.698,8.896 C7.918,10.43 6.907,12.663 6.907,15 C6.907,19.465 10.535,23.093 15,23.093 z"/>
    </clipPath>
    <clipPath id="Clip_3">
      <path d="M30,0 L30,30 L0,30 L0,0 L30,0 z"/>
    </clipPath>
  </defs>
  <g id="Layer_1">
    <g clip-path="url(#Clip_1)">
      <path d="M-3.5,-3.5 L33.5,-3.5 L33.5,33.5 L-3.5,33.5 z" fill="#FFFFFF"/>
    </g>
    <g clip-path="url(#Clip_3)">
      <g clip-path="url(#Clip_2)">
        <path d="M-5,-5 L35,-5 L35,35.001 L-5,35.001 z" fill="#000000"/>
      </g>
    </g>
  </g>
</svg>
