<?xml version="1.0" encoding="UTF-8"?>
<!DOCTYPE svg PUBLIC "-//W3C//DTD SVG 1.1//EN" "http://www.w3.org/Graphics/SVG/1.1/DTD/svg11.dtd">
<svg version="1.1" xmlns="http://www.w3.org/2000/svg" xmlns:xlink="http://www.w3.org/1999/xlink" x="0" y="0" width="20.357" height="30.243" viewBox="0, 0, 20.357, 30.243">
  <defs>
    <clipPath id="Clip_1">
      <path d="M30.179,15.756 C34.265,15.757 37.577,19.069 37.577,23.155 C37.577,27.241 34.265,30.553 30.179,30.553 C26.093,30.553 22.78,27.241 22.78,23.155 C22.78,19.069 26.093,15.757 30.179,15.757 z"/>
    </clipPath>
    <clipPath id="Clip_2">
      <path d="M30.181,31.393 C34.701,31.393 38.379,27.715 38.379,23.194 C38.379,18.676 34.701,15 30.181,15 C25.658,15 21.979,18.676 21.979,23.194 C21.979,27.715 25.658,31.393 30.181,31.393 z M30.181,29.874 C26.495,29.874 23.497,26.878 23.497,23.194 C23.497,19.513 26.495,16.518 30.181,16.518 C33.864,16.518 36.861,19.513 36.861,23.194 C36.861,26.878 33.864,29.874 30.181,29.874 z"/>
    </clipPath>
    <clipPath id="Clip_3">
      <path d="M38.379,15 L38.379,31.393 L21.979,31.393 L21.979,15 L38.379,15 z"/>
    </clipPath>
    <clipPath id="Clip_4">
      <path d="M34.244,33.532 C37.104,33.532 39.406,35.874 39.487,38.862 L39.487,44.129 L20.87,44.129 L20.874,38.635 C20.957,35.813 23.302,33.532 26.102,33.532 L34.244,33.532 z"/>
    </clipPath>
    <clipPath id="Clip_5">
      <path d="M40.357,45 L40.357,38.84 C40.265,35.375 37.58,32.662 34.245,32.662 L26.102,32.663 C22.837,32.662 20.102,35.331 20.004,38.635 L20,45 L40.357,45 z M38.915,43.416 L21.444,43.416 L21.448,38.656 C21.519,36.225 23.543,34.247 25.959,34.247 L34.388,34.248 C36.857,34.247 38.845,36.285 38.914,38.862 L38.915,43.416 z"/>
    </clipPath>
    <clipPath id="Clip_6">
      <path d="M40.357,32.662 L40.357,45 L20,45 L20,32.662 L40.357,32.662 z"/>
    </clipPath>
  </defs>
  <g id="Layer_1" transform="translate(-20, -14.757)">
    <g clip-path="url(#Clip_1)">
      <path d="M17.78,10.757 L42.577,10.757 L42.577,35.553 L17.78,35.553 z" fill="#FFFFFF"/>
    </g>
    <path d="M37.577,23.155 C37.577,27.241 34.265,30.553 30.179,30.553 C26.093,30.553 22.78,27.241 22.78,23.155 C22.78,19.069 26.093,15.757 30.179,15.757 C34.265,15.757 37.577,19.069 37.577,23.155 z" fill-opacity="0" stroke="#000000" stroke-width="0.25"/>
    <g clip-path="url(#Clip_3)">
      <g clip-path="url(#Clip_2)">
        <path d="M16.979,10 L43.379,10 L43.379,36.393 L16.979,36.393 z" fill="#000000"/>
      </g>
    </g>
    <g clip-path="url(#Clip_4)">
      <path d="M15.87,28.532 L44.487,28.532 L44.487,49.129 L15.87,49.129 z" fill="#FFFFFF"/>
    </g>
    <g clip-path="url(#Clip_6)">
      <g clip-path="url(#Clip_5)">
        <path d="M15.001,27.662 L45.358,27.662 L45.358,50 L15.001,50 z" fill="#000000"/>
      </g>
    </g>
  </g>
</svg>
