<?xml version="1.0" encoding="utf-8"?>
<!-- Generator: Adobe Illustrator 24.3.0, SVG Export Plug-In . SVG Version: 6.00 Build 0)  -->
<svg version="1.1" id="Livello_1" xmlns="http://www.w3.org/2000/svg" xmlns:xlink="http://www.w3.org/1999/xlink" x="0px" y="0px"
	 viewBox="0 0 320 27" style="enable-background:new 0 0 320 27;" xml:space="preserve">
<style type="text/css">
	.st0{fill-rule:evenodd;clip-rule:evenodd;fill:#FFFFFF;}
	.st1{filter:url(#Adobe_OpacityMaskFilter);}
	.st2{mask:url(#mask-2_2_);fill-rule:evenodd;clip-rule:evenodd;fill:#FFFFFF;}
	.st3{filter:url(#Adobe_OpacityMaskFilter_1_);}
	.st4{mask:url(#mask-4_18_);fill-rule:evenodd;clip-rule:evenodd;fill:#FFFFFF;}
	.st5{filter:url(#Adobe_OpacityMaskFilter_2_);}
	.st6{mask:url(#mask-4_17_);fill-rule:evenodd;clip-rule:evenodd;fill:#FFFFFF;}
	.st7{filter:url(#Adobe_OpacityMaskFilter_3_);}
	.st8{mask:url(#mask-4_16_);fill-rule:evenodd;clip-rule:evenodd;fill:#FFFFFF;}
	.st9{filter:url(#Adobe_OpacityMaskFilter_4_);}
	.st10{mask:url(#mask-4_15_);fill-rule:evenodd;clip-rule:evenodd;fill:#FFFFFF;}
	.st11{filter:url(#Adobe_OpacityMaskFilter_5_);}
	.st12{mask:url(#mask-4_14_);fill-rule:evenodd;clip-rule:evenodd;fill:#FFFFFF;}
	.st13{filter:url(#Adobe_OpacityMaskFilter_6_);}
	.st14{mask:url(#mask-4_13_);fill-rule:evenodd;clip-rule:evenodd;fill:#FFFFFF;}
	.st15{filter:url(#Adobe_OpacityMaskFilter_7_);}
	.st16{mask:url(#mask-4_4_);fill-rule:evenodd;clip-rule:evenodd;fill:#FFFFFF;}
	.st17{filter:url(#Adobe_OpacityMaskFilter_8_);}
	.st18{mask:url(#mask-4_3_);fill-rule:evenodd;clip-rule:evenodd;fill:#FFFFFF;}
	.st19{filter:url(#Adobe_OpacityMaskFilter_9_);}
	.st20{mask:url(#mask-4_2_);fill-rule:evenodd;clip-rule:evenodd;fill:#FFFFFF;}
	.st21{opacity:0.5;fill-rule:evenodd;clip-rule:evenodd;fill:#FFFFFF;}
	.st22{opacity:0.7;fill-rule:evenodd;clip-rule:evenodd;fill:#FFFFFF;}
</style>
<g>
	<g id="Metodo-di-pagamento" transform="translate(1040.000000, 39.000000)">
		<g id="Loghi" transform="translate(0.000000, 46.000000)">
			<polygon id="Fill-1" class="st0" points="-1011.2,-83 -1018.1,-60.4 -1012,-60.4 -1005.1,-83 			"/>
			<g id="Group-26" transform="translate(0.000000, 0.062700)">
				<g id="Group-4" transform="translate(0.000000, 1.000000)">
					<g id="Clip-3">
					</g>
					<defs>
						<filter id="Adobe_OpacityMaskFilter" filterUnits="userSpaceOnUse" x="-1040" y="-84.1" width="25.6" height="22.6">
							<feColorMatrix  type="matrix" values="1 0 0 0 0  0 1 0 0 0  0 0 1 0 0  0 0 0 1 0"/>
						</filter>
					</defs>
					<mask maskUnits="userSpaceOnUse" x="-1040" y="-84.1" width="25.6" height="22.6" id="mask-2_2_">
						<g class="st1">
							<polygon id="path-1_2_" class="st0" points="-1040,-84.1 -1014.4,-84.1 -1014.4,-61.4 -1040,-61.4 							"/>
						</g>
					</mask>
					<path id="Fill-2" class="st2" d="M-1020.8-84.1l-5.5,9.6c-1.1,1.7-2,3.5-2.6,5.3c0-2,0-4.5-0.2-5.9l-0.6-9.1h-10.3v0.6
						c2.3,0,4.2,1.7,4.3,4l2,18h6.5l12.8-22.6H-1020.8z"/>
				</g>
				<path id="Fill-5" class="st0" d="M-974-73.8c-0.1-1.8-0.1-3.6,0-5.3c-0.4,1.1-2,4.5-2.7,6.1l-2.3,4.9h5.4l-0.4-5.6L-974-73.8z
					 M-973.3-60.5v-3.4h-7.8l-1.5,3.4h-6.7l12.1-22.6h8.2l2,22.6H-973.3L-973.3-60.5z"/>
				<path id="Fill-7" class="st0" d="M-998.7-59.8c-3.3,0-6.5-0.9-9.2-2.6l2.8-4.5c1.9,1.4,4.2,2.2,6.6,2.2c1.1,0.1,2.1-0.4,2.7-1.3
					c0.8-1.5-0.2-2.3-2.6-3.7l-1.2-0.8c-3.7-2.4-5.1-4.7-3.4-8.8c1.6-3.1,5-4.9,8.5-4.5c2.9,0.1,5.7,1.1,7.9,2.8l-3.3,3.9
					c-1.3-1.2-3-2-4.7-2.1c-1-0.1-2,0.3-2.6,1.2c-0.7,1.3,0.2,2.1,2.1,3.3l1.4,0.9c4.3,2.8,5.3,5.7,4.2,8.2
					c-1.4,3.8-5.3,6.1-9.3,5.7L-998.7-59.8z"/>
				<path id="Fill-9" class="st0" d="M-755.6-80.6c0,0.4-0.1,0.7-0.4,0.9c-0.2,0.1-0.6,0.1-1,0.1h-2.5v-2h2.5c0.4,0,0.7,0,1,0.1
					C-755.7-81.3-755.5-81.1-755.6-80.6 M-754.8-78.8c0.6-0.2,1.5-1,1.5-2.3c0-1-0.4-1.6-1-2c-0.6-0.4-1.4-0.4-2.5-0.4h-4.7v8.8h2.1
					v-3.2h2.2c0.7,0,1.1,0,1.5,0.4c0.4,0.5,0.4,1.2,0.4,1.7v1.1h2.1v-1.7c0-0.7-0.1-1.1-0.4-1.6C-753.9-78.3-754.2-78.6-754.8-78.8"
					/>
				<polygon id="Fill-11" class="st0" points="-762.9,-76.5 -767.7,-76.5 -767.7,-78.3 -763,-78.3 -763,-80 -767.7,-80 
					-767.7,-81.6 -762.9,-81.6 -762.9,-83.4 -769.8,-83.4 -769.8,-74.7 -762.9,-74.7 				"/>
				<g id="Clip-14">
				</g>
				<defs>
					<filter id="Adobe_OpacityMaskFilter_1_" filterUnits="userSpaceOnUse" x="-752" y="-83.6" width="2.1" height="8.8">
						<feColorMatrix  type="matrix" values="1 0 0 0 0  0 1 0 0 0  0 0 1 0 0  0 0 0 1 0"/>
					</filter>
				</defs>
				<mask maskUnits="userSpaceOnUse" x="-752" y="-83.6" width="2.1" height="8.8" id="mask-4_18_">
					<g class="st3">
						<polygon id="path-3_18_" class="st0" points="-1040,-59.7 -720,-59.7 -720,-83.7 -1040,-83.7 						"/>
					</g>
				</mask>
				<polygon id="Fill-13" class="st4" points="-752,-74.8 -749.9,-74.8 -749.9,-83.6 -752,-83.6 				"/>
				<defs>
					<filter id="Adobe_OpacityMaskFilter_2_" filterUnits="userSpaceOnUse" x="-748.9" y="-83.4" width="23.1" height="8.8">
						<feColorMatrix  type="matrix" values="1 0 0 0 0  0 1 0 0 0  0 0 1 0 0  0 0 0 1 0"/>
					</filter>
				</defs>
				<mask maskUnits="userSpaceOnUse" x="-748.9" y="-83.4" width="23.1" height="8.8" id="mask-4_17_">
					<g class="st5">
						<polygon id="path-3_17_" class="st0" points="-1040,-59.7 -720,-59.7 -720,-83.7 -1040,-83.7 						"/>
					</g>
				</mask>
				<path id="Fill-15" class="st6" d="M-739.5-82l1.4,3.5h-2.8L-739.5-82z M-744.8-74.7h2.3l0.7-2h4.3l0.7,1.9h4.2v-6.5l4,6.5h2.7
					v-8.5h-2.1v6.1l-3.6-6.1h-3.1v8.3l-3.5-8.3h-3.1l-2.8,6.8h-0.9c-0.6,0-1.1-0.1-1.5-0.5c-0.5-0.5-0.6-1.1-0.6-2.1
					c0-0.9,0.2-1.6,0.6-2c0.5-0.4,0.9-0.5,1.6-0.5h2v-1.9h-2c-1.4,0-2.5,0.2-3.1,1c-0.9,1-1.1,2.2-1.1,3.5c0,1.6,0.4,2.6,1.1,3.3
					C-747.1-74.9-745.8-74.7-744.8-74.7L-744.8-74.7z"/>
				<defs>
					<filter id="Adobe_OpacityMaskFilter_3_" filterUnits="userSpaceOnUse" x="-793.5" y="-83.4" width="22.2" height="8.8">
						<feColorMatrix  type="matrix" values="1 0 0 0 0  0 1 0 0 0  0 0 1 0 0  0 0 0 1 0"/>
					</filter>
				</defs>
				<mask maskUnits="userSpaceOnUse" x="-793.5" y="-83.4" width="22.2" height="8.8" id="mask-4_16_">
					<g class="st7">
						<polygon id="path-3_16_" class="st0" points="-1040,-59.7 -720,-59.7 -720,-83.7 -1040,-83.7 						"/>
					</g>
				</mask>
				<path id="Fill-16" class="st8" d="M-789.7-78.5l1.4-3.5l1.4,3.5H-789.7z M-773.4-81.6v6.8h2.1v-8.6h-3.5l-2.5,5.9l-2.7-5.9h-3.3
					v8.3l-3.5-8.3h-3.1l-3.7,8.8h2.3l0.7-2h4.2l0.9,1.9h4.2v-6.8l3,6.8h1.9L-773.4-81.6z"/>
				<defs>
					<filter id="Adobe_OpacityMaskFilter_4_" filterUnits="userSpaceOnUse" x="-753" y="-68.7" width="8.3" height="8.8">
						<feColorMatrix  type="matrix" values="1 0 0 0 0  0 1 0 0 0  0 0 1 0 0  0 0 0 1 0"/>
					</filter>
				</defs>
				<mask maskUnits="userSpaceOnUse" x="-753" y="-68.7" width="8.3" height="8.8" id="mask-4_15_">
					<g class="st9">
						<polygon id="path-3_15_" class="st0" points="-1040,-59.7 -720,-59.7 -720,-83.7 -1040,-83.7 						"/>
					</g>
				</mask>
				<path id="Fill-17" class="st10" d="M-746.9-65.8c0,0.4-0.1,0.7-0.4,0.9c-0.2,0.1-0.6,0.1-1,0.1h-2.5v-2h2.5c0.4,0,0.7,0,1,0.1
					C-747.1-66.5-746.8-66.3-746.9-65.8 M-744.7-66.4c0-1-0.5-1.6-1.1-2c-0.6-0.4-1.5-0.4-2.5-0.4h-4.7v8.8h2.1v-3.2h2.2
					c0.7,0,1.2,0,1.5,0.4c0.4,0.4,0.4,1.2,0.4,1.7v1.1h2.1v-1.7c0-0.7-0.1-1.2-0.4-1.6c-0.1-0.2-0.5-0.5-1.1-0.7
					C-745.6-64.3-744.7-65-744.7-66.4"/>
				<defs>
					<filter id="Adobe_OpacityMaskFilter_5_" filterUnits="userSpaceOnUse" x="-743.5" y="-68.7" width="6.9" height="8.8">
						<feColorMatrix  type="matrix" values="1 0 0 0 0  0 1 0 0 0  0 0 1 0 0  0 0 0 1 0"/>
					</filter>
				</defs>
				<mask maskUnits="userSpaceOnUse" x="-743.5" y="-68.7" width="6.9" height="8.8" id="mask-4_14_">
					<g class="st11">
						<polygon id="path-3_14_" class="st0" points="-1040,-59.7 -720,-59.7 -720,-83.7 -1040,-83.7 						"/>
					</g>
				</mask>
				<polygon id="Fill-18" class="st12" points="-743.5,-60 -736.6,-60 -736.6,-61.8 -741.4,-61.8 -741.4,-63.6 -736.7,-63.6 
					-736.7,-65.3 -741.4,-65.3 -741.4,-66.9 -736.6,-66.9 -736.6,-68.7 -743.5,-68.7 				"/>
				<defs>
					<filter id="Adobe_OpacityMaskFilter_6_" filterUnits="userSpaceOnUse" x="-777.1" y="-68.6" width="23.4" height="8.8">
						<feColorMatrix  type="matrix" values="1 0 0 0 0  0 1 0 0 0  0 0 1 0 0  0 0 0 1 0"/>
					</filter>
				</defs>
				<mask maskUnits="userSpaceOnUse" x="-777.1" y="-68.6" width="23.4" height="8.8" id="mask-4_13_">
					<g class="st13">
						<polygon id="path-3_13_" class="st0" points="-1040,-59.7 -720,-59.7 -720,-83.7 -1040,-83.7 						"/>
					</g>
				</mask>
				<path id="Fill-19" class="st14" d="M-757.2-64.7h-2.7v-2.2h2.6c0.7,0,1.2,0.4,1.4,1.1C-756-65-756.5-64.7-757.2-64.7
					L-757.2-64.7z M-762-60.7l-3.2-3.6l3.2-3.5V-60.7z M-770.2-61.7h-5.1v-1.9h4.6v-1.7h-4.6v-1.6h5.2l2.2,2.6L-770.2-61.7z
					 M-757.2-68.6h-6.5l-2.6,2.8l-2.5-2.8h-8.3v8.8h8.2l2.6-2.8l2.5,2.8h4v-3h2.5c1.9,0,3.6-0.5,3.7-3
					C-753.7-68.1-755.6-68.6-757.2-68.6L-757.2-68.6z"/>
				<defs>
					<filter id="Adobe_OpacityMaskFilter_7_" filterUnits="userSpaceOnUse" x="-735.6" y="-68.9" width="7.4" height="8.9">
						<feColorMatrix  type="matrix" values="1 0 0 0 0  0 1 0 0 0  0 0 1 0 0  0 0 0 1 0"/>
					</filter>
				</defs>
				<mask maskUnits="userSpaceOnUse" x="-735.6" y="-68.9" width="7.4" height="8.9" id="mask-4_4_">
					<g class="st15">
						<polygon id="path-3_4_" class="st0" points="-1040,-59.7 -720,-59.7 -720,-83.7 -1040,-83.7 						"/>
					</g>
				</mask>
				<path id="Fill-20" class="st16" d="M-731.1-65.3h-1.1c-0.2,0-0.5,0-0.7-0.1c-0.2-0.1-0.5-0.2-0.5-0.6c0-0.2,0-0.5,0.2-0.6
					c0.2-0.1,0.5-0.1,0.9-0.1h3.8v-2.1h-4.1c-2.2,0-3,1.4-3,2.6c0,2.7,2.3,2.6,4.3,2.7c0.4,0,0.6,0.1,0.7,0.2
					c0.1,0.1,0.2,0.4,0.2,0.6s-0.1,0.5-0.2,0.6c-0.2,0.2-0.5,0.2-0.9,0.2h-4v1.9h4c2.1,0,3.2-0.9,3.2-2.7c0-0.9-0.2-1.5-0.6-1.9
					C-729.3-65-730-65.3-731.1-65.3"/>
				<defs>
					<filter id="Adobe_OpacityMaskFilter_8_" filterUnits="userSpaceOnUse" x="-727.5" y="-68.9" width="7.5" height="8.9">
						<feColorMatrix  type="matrix" values="1 0 0 0 0  0 1 0 0 0  0 0 1 0 0  0 0 0 1 0"/>
					</filter>
				</defs>
				<mask maskUnits="userSpaceOnUse" x="-727.5" y="-68.9" width="7.5" height="8.9" id="mask-4_3_">
					<g class="st17">
						<polygon id="path-3_3_" class="st0" points="-1040,-59.7 -720,-59.7 -720,-83.7 -1040,-83.7 						"/>
					</g>
				</mask>
				<path id="Fill-21" class="st18" d="M-720.5-64.4c0,0,0-0.1-0.1-0.1c-0.5-0.5-1.2-0.7-2.3-0.7h-1.1c-0.2,0-0.5,0-0.7-0.1
					c-0.4-0.1-0.5-0.2-0.5-0.6c0-0.2,0-0.5,0.2-0.6c0.2-0.1,0.5-0.1,0.9-0.1h3.7v-2.1h-4.1c-2.2,0-3,1.4-3,2.6
					c0,2.7,2.3,2.6,4.3,2.7c0.4,0,0.6,0.1,0.7,0.2c0.1,0.1,0.2,0.4,0.2,0.6c0,0.2-0.1,0.5-0.2,0.6c-0.2,0.2-0.5,0.2-0.9,0.2h-4v1.9
					h4c1.2,0,2.1-0.4,2.6-0.9c0.5-0.5,0.7-1.1,0.7-1.9C-720-63.3-720.1-63.9-720.5-64.4"/>
				<defs>
					<filter id="Adobe_OpacityMaskFilter_9_" filterUnits="userSpaceOnUse" x="-900.5" y="-77.3" width="86.5" height="11.3">
						<feColorMatrix  type="matrix" values="1 0 0 0 0  0 1 0 0 0  0 0 1 0 0  0 0 0 1 0"/>
					</filter>
				</defs>
				<mask maskUnits="userSpaceOnUse" x="-900.5" y="-77.3" width="86.5" height="11.3" id="mask-4_2_">
					<g class="st19">
						<polygon id="path-3_2_" class="st0" points="-1040,-59.7 -720,-59.7 -720,-83.7 -1040,-83.7 						"/>
					</g>
				</mask>
				<path id="Fill-25" class="st20" d="M-884.7-70.2c0-1.4,0.9-2.5,2.4-2.5c1.4,0,2.4,1.1,2.4,2.5c0,1.4-1,2.5-2.4,2.5
					C-883.8-67.7-884.7-68.8-884.7-70.2L-884.7-70.2z M-878.3-70.2v-4h-1.7v1c-0.6-0.8-1.5-1.2-2.5-1.1c-2.2,0-4,1.7-4,4.1
					c0,2.4,1.7,4.1,4,4.1c1,0,1.9-0.4,2.5-1.2v1h1.7L-878.3-70.2z M-820.4-70.2c0-1.4,0.9-2.5,2.4-2.5c1.4,0,2.4,1.1,2.4,2.5
					c0,1.4-1,2.5-2.4,2.5C-819.5-67.7-820.4-68.8-820.4-70.2L-820.4-70.2z M-814-70.2v-7.1h-1.7v4.1c-0.6-0.8-1.5-1.2-2.5-1.2
					c-2.2,0-4,1.7-4,4.1c0,2.4,1.7,4.1,4,4.1c1,0,1.9-0.4,2.5-1.2v1h1.7V-70.2z M-857-72.8c1.1,0,1.8,0.7,2,1.9h-4.1
					C-858.9-72.1-858.2-72.8-857-72.8L-857-72.8z M-857-74.4c-2.3,0-3.9,1.7-3.9,4.1c0,2.5,1.7,4.1,4,4.1c1.2,0,2.3-0.4,3.2-1.1
					l-0.8-1.3c-0.7,0.5-1.5,0.8-2.3,0.8c-1.1,0-2.1-0.5-2.4-1.9h5.9c0-0.2,0-0.4,0-0.7C-853.3-72.7-854.8-74.4-857-74.4L-857-74.4z
					 M-836.3-70.2c0-1.4,0.9-2.5,2.4-2.5c1.4,0,2.4,1.1,2.4,2.5c0,1.4-1,2.5-2.4,2.5C-835.4-67.7-836.3-68.8-836.3-70.2L-836.3-70.2
					z M-829.9-70.2v-4h-1.7v1c-0.6-0.8-1.5-1.2-2.5-1.2c-2.2,0-4,1.7-4,4.1c0,2.4,1.7,4.1,4,4.1c1,0,1.9-0.4,2.5-1.2v1h1.7V-70.2z
					 M-846-70.2c0,2.4,1.7,4.1,4.2,4.1c1,0,2-0.3,2.8-0.9l-0.8-1.4c-0.6,0.5-1.3,0.7-2.1,0.7c-1.4,0-2.4-1-2.4-2.5s1-2.5,2.4-2.5
					c0.7,0,1.5,0.3,2.1,0.7l0.8-1.4c-0.8-0.7-1.8-1-2.8-0.9C-844.3-74.4-846-72.6-846-70.2L-846-70.2z M-823.9-74.4
					c-0.9,0-1.7,0.4-2.1,1.2v-1h-1.7v7.9h1.7v-4.4c0-1.3,0.6-2,1.7-2c0.4,0,0.7,0.1,1.1,0.2l0.5-1.6
					C-823-74.3-823.4-74.4-823.9-74.4L-823.9-74.4z M-869.8-73.5c-1-0.6-2.1-0.9-3.2-0.8c-2,0-3.3,1-3.3,2.5c0,1.3,1,2.1,2.7,2.3
					l0.8,0.1c0.9,0.1,1.4,0.4,1.4,0.8c0,0.6-0.6,1-1.8,1c-0.9,0-1.9-0.3-2.6-0.8l-0.8,1.3c1,0.7,2.2,1.1,3.4,1
					c2.3,0,3.6-1.1,3.6-2.6c0-1.4-1-2.1-2.8-2.4l-0.8-0.1c-0.7-0.1-1.3-0.2-1.3-0.8c0-0.6,0.6-0.9,1.5-0.9c0.9,0,1.7,0.2,2.5,0.7
					L-869.8-73.5z M-847.7-74.4c-0.9,0-1.6,0.4-2.1,1.2v-1h-1.7v7.9h1.7v-4.4c0-1.3,0.6-2,1.7-2c0.4,0,0.7,0.1,1.1,0.2l0.5-1.6
					C-846.9-74.3-847.3-74.4-847.7-74.4L-847.7-74.4z M-862.3-74.2h-2.8v-2.4h-1.7v2.4h-1.6v1.6h1.6v3.6c0,1.8,0.7,2.9,2.7,2.9
					c0.8,0,1.5-0.2,2.1-0.6l-0.5-1.5c-0.5,0.3-1,0.4-1.5,0.4c-0.9,0-1.1-0.5-1.1-1.3v-3.6h2.8L-862.3-74.2z M-888-66.3v-4.9
					c0-1.9-1.2-3.1-3.1-3.1c-1.1-0.1-2.2,0.5-2.8,1.4c-0.5-0.9-1.5-1.4-2.6-1.4c-0.9,0-1.8,0.4-2.3,1.2v-1h-1.7v7.9h1.7v-4.4
					c0-1.4,0.8-2.1,1.9-2.1c1.2,0,1.7,0.7,1.7,2.1v4.4h1.7v-4.4c0-1.4,0.8-2.1,1.9-2.1s1.7,0.7,1.7,2.1v4.4H-888z"/>
			</g>
		</g>
	</g>
	<g>
		<circle class="st21" cx="105.1" cy="13.7" r="11.8"/>
		<circle class="st22" cx="116.9" cy="13.7" r="11.8"/>
	</g>
</g>
</svg>
