<?xml version="1.0" encoding="UTF-8"?>
<!DOCTYPE svg PUBLIC "-//W3C//DTD SVG 1.1//EN" "http://www.w3.org/Graphics/SVG/1.1/DTD/svg11.dtd">
<svg version="1.1" xmlns="http://www.w3.org/2000/svg" xmlns:xlink="http://www.w3.org/1999/xlink" x="0" y="0" width="279.327" height="43.999" viewBox="0, 0, 279.327, 43.999">
  <g id="Livello_1" transform="translate(-0, -9)">
    <g>
      <g>
        <path d="M244.443,23 L244.443,30.338 L238.731,23 L235.142,23 L235.14,36.882 L238.95,36.882 L238.95,29.261 L244.88,36.882 L248.254,36.882 L248.254,23 z M267.134,23.001 L267.134,26.273 L271.298,26.273 L271.298,36.882 L275.139,36.882 L275.139,26.273 L279.308,26.273 L279.308,23.001 z" fill="#00609A"/>
        <path d="M235.142,44.51 L236.006,44.51 L236.006,39.595 L235.142,39.595 z M240.954,39.596 L240.954,42.994 L238.322,39.596 L237.521,39.596 L237.521,44.511 L238.371,44.511 L238.371,41.015 L241.08,44.511 L241.804,44.511 L241.804,39.596 z" fill="#E80129"/>
        <g>
          <path d="M245.166,41.665 C246.205,41.916 246.746,42.29 246.746,43.111 C246.746,44.038 246.022,44.585 244.991,44.585 C244.233,44.589 243.501,44.308 242.941,43.798 L243.461,43.181 C243.93,43.588 244.401,43.821 245.011,43.821 C245.546,43.821 245.883,43.574 245.883,43.195 C245.883,42.815 245.686,42.648 244.772,42.433 C243.728,42.186 243.136,41.881 243.136,40.967 C243.136,40.11 243.836,39.534 244.812,39.534 C245.462,39.521 246.094,39.741 246.596,40.154 L246.139,40.805 C245.762,40.495 245.293,40.317 244.805,40.299 C244.299,40.299 244.003,40.56 244.003,40.889 C244,41.272 244.226,41.439 245.166,41.665 M252.096,42.387 C252.096,43.855 251.266,44.592 249.982,44.592 C248.698,44.592 247.89,43.862 247.89,42.43 L247.89,39.595 L248.754,39.595 L248.754,42.39 C248.754,43.304 249.224,43.794 249.997,43.794 C250.77,43.794 251.232,43.337 251.232,42.422 L251.232,39.595 L252.096,39.595 L252.096,42.387 z M255.605,40.386 L254.347,40.386 L254.347,42.033 L255.613,42.033 C256.23,42.033 256.623,41.71 256.623,41.204 C256.623,40.662 256.243,40.386 255.605,40.386 z M256.636,44.514 L255.429,42.796 L254.347,42.796 L254.347,44.509 L253.485,44.509 L253.485,39.595 L255.675,39.595 C256.805,39.595 257.503,40.193 257.503,41.155 C257.503,41.968 257.019,42.46 256.333,42.649 L257.658,44.51 L256.636,44.514 z M260.892,40.597 L260.052,42.563 L261.744,42.563 L260.892,40.597 z M263.469,44.515 L262.554,44.515 L262.056,43.328 L259.734,43.328 L259.228,44.515 L258.343,44.515 L260.509,39.565 L261.31,39.565 L263.469,44.515 z M267.947,39.595 L268.797,39.595 L268.797,44.51 L268.072,44.51 L265.363,41.014 L265.363,44.51 L264.514,44.51 L264.514,39.595 L265.314,39.595 L267.947,42.993 z" fill="#E80129"/>
          <path d="M272.549,44.599 C271.146,44.556 270.042,43.384 270.085,41.98 C270.125,40.624 271.227,39.539 272.584,39.516 C273.304,39.489 274.001,39.766 274.507,40.279 L273.952,40.917 C273.559,40.553 273.139,40.307 272.581,40.307 C271.641,40.307 270.959,41.077 270.959,42.047 C270.959,43.017 271.641,43.804 272.581,43.804 C273.191,43.804 273.571,43.558 273.991,43.164 L274.547,43.724 C274.046,44.303 273.313,44.623 272.549,44.599" fill="#E80129"/>
          <path d="M279.292,40.373 L276.511,40.373 L276.511,41.65 L278.976,41.65 L278.976,42.423 L276.511,42.423 L276.511,43.743 L279.327,43.743 L279.327,44.515 L275.648,44.515 L275.648,39.596 L279.292,39.596 z" fill="#E80129"/>
          <path d="M217.93,34.652 L217.93,38.063 C217.899,39.251 216.909,40.188 215.722,40.156 C214.578,40.126 213.659,39.206 213.628,38.063 L213.628,30.35 L209.327,26.049 L209.327,42.364 C209.33,43.551 210.291,44.511 211.477,44.515 L227.793,44.515 L217.93,34.652 z" fill="#00609A"/>
          <path d="M228.684,23.007 L212.369,23.007 L222.232,32.871 L222.232,29.459 C222.232,28.273 223.194,27.309 224.382,27.309 C225.57,27.309 226.532,28.273 226.532,29.459 L226.532,37.172 L230.834,41.472 L230.834,25.158 C230.83,23.972 229.871,23.011 228.684,23.008" fill="#E80129"/>
          <path d="M252.061,29.915 L252.061,36.881 L259.028,36.881 z M252.061,23.001 L252.061,27.602 L255.869,31.409 L260.633,31.409 L260.633,28.375 L255.869,28.375 L255.869,26.273 L263.324,26.273 L263.324,23.001 z M261.342,36.881 L263.324,36.881 L263.324,33.611 L258.07,33.611 z" fill="#00609A"/>
        </g>
      </g>
      <path d="M195.327,10 L195,51.999" fill-opacity="0" stroke="#909090" stroke-width="1" stroke-linecap="square" opacity="0.399"/>
      <g>
        <path d="M39,38.848 L42.418,38.054 C42.663,40.238 44.358,41.207 46.393,41.207 C48.442,41.207 49.554,40.213 49.554,38.972 C49.554,35.335 40.274,36.552 40.274,30.842 C40.274,27.738 43.029,26 46.257,26 C48.618,26 50.775,26.943 52.09,29.079 L49.23,30.68 C48.564,29.488 47.424,28.805 46.135,28.805 C44.779,28.805 43.72,29.564 43.72,30.68 C43.72,33.982 53,32.865 53,38.687 C53,42.001 50.002,44 46.339,44 C42.947,44 39.609,42.3 39,38.848 M63.023,38.6 L63.023,38.5 L59.548,38.5 C58.053,38.5 57.368,39.225 57.368,40.012 C57.368,40.837 58.08,41.424 59.548,41.424 C61.568,41.424 62.821,40.074 63.023,38.6 M66,36.175 L66,43.95 L63.294,43.95 L63.091,42.087 C62.216,43.376 60.424,44 58.89,44 C56.128,44 54,42.526 54,39.913 C54,37.2 56.344,36.3 59.36,36.3 L63.01,36.3 C62.943,34.45 62.35,33.663 60.209,33.663 C58.659,33.663 57.622,34.512 57.043,35.425 L54.526,33.738 C55.819,32.1 57.53,31 60.18,31 C63.846,31 66,33.125 66,36.175 M69,31.262 L72.247,31.262 L72.247,32.715 C73.31,31.487 74.84,31 76.143,31 C79.63,31 81,33.641 81,36.259 L81,43.999 L77.753,43.999 L77.753,36.647 C77.753,35.007 76.875,33.817 75.213,33.817 C73.39,33.817 72.247,34.743 72.247,36.923 L72.247,44 L69,44 L69,31.262 z M85.212,40.32 L85.212,33.87 L83,33.87 L83,31.335 L85.268,31.335 L85.268,28.162 L88.566,26 L88.566,31.335 L92,31.335 L92,33.869 L88.566,33.869 L88.566,39.787 C88.566,40.979 89.21,41.328 90.09,41.328 C90.79,41.328 91.546,41.08 92,40.88 L92,43.626 C91.491,43.802 90.502,44 89.499,44 C86.82,44 85.212,42.583 85.212,40.32 M108.593,37.254 L106.029,30.84 L103.45,37.254 L108.593,37.254 z M104.82,26 L107.211,26 L115,44 L111.294,44 L109.673,39.95 L102.371,39.95 L100.738,43.996 L97,44 L104.82,26 z M117,31.262 L120.247,31.262 L120.247,32.714 C121.31,31.487 122.84,31 124.143,31 C127.629,31 129,33.64 129,36.256 L129,44 L125.754,44 L125.754,36.644 C125.754,35.004 124.875,33.815 123.213,33.815 C121.39,33.815 120.247,34.741 120.247,36.919 L120.247,44 L117,44 L117,31.262 z M135.255,35.41 C135.255,36.611 136.02,37.52 137.435,37.52 C138.81,37.52 139.588,36.611 139.588,35.41 C139.588,34.194 138.81,33.226 137.435,33.226 C136.02,33.226 135.255,34.194 135.255,35.409 M140.485,45.124 C140.485,43.774 138.888,43.774 137.591,43.774 L135.061,43.774 L133.945,44.67 L133.945,44.952 C133.945,45.38 133.945,46.706 137.383,46.706 C139.342,46.706 140.484,46.266 140.484,45.124 M143.519,44.879 C143.519,47.343 141.624,49 137.591,49 C134.165,49 131,47.785 131,45.001 C131,44.548 131.078,44.18 131.207,43.872 L132.985,43.21 C132.141,42.707 131.273,41.836 131.273,40.476 C131.273,39.493 131.739,38.5 132.868,37.837 C132.375,37.139 132.088,36.292 132.088,35.36 C132.088,32.698 134.399,30.858 137.383,30.858 C138.551,30.858 139.563,31.14 140.393,31.608 L142.376,30 L144,31.912 L142.106,33.348 C142.456,33.986 142.637,34.698 142.637,35.458 C142.637,38.168 140.277,39.898 137.383,39.898 C136.371,39.898 135.45,39.69 134.672,39.321 C134.321,39.554 134.217,39.873 134.217,40.181 C134.217,41.261 135.542,41.261 136.125,41.261 L138.861,41.261 C140.885,41.261 143.519,41.959 143.519,44.879 M154.726,36.3 C154.726,36.025 154.698,35.763 154.616,35.512 C154.276,34.225 153.103,33.562 151.657,33.562 C149.693,33.562 148.834,34.738 148.52,36.3 L154.726,36.3 z M145,37.55 C145,34.3 147.074,31 151.685,31 C156.459,31 158,34.513 158,37.3 C158,37.813 157.946,38.324 157.877,38.5 L148.52,38.5 C148.806,40.137 149.788,41.237 151.93,41.237 C153.157,41.237 154.25,40.887 155.203,39.913 L157.495,41.75 C156.008,43.261 154.195,44 151.903,44 C147.21,44 145,40.913 145,37.55 z M160,41.278 L160,26 L163.12,26 L163.12,40.444 C163.12,41.029 163.517,41.278 164.144,41.278 C164.322,41.278 164.668,41.253 165,41.203 L165,43.752 C164.348,43.875 163.414,44 162.673,44 C161.202,44 160,43.465 160,41.278" fill="#264871"/>
        <path d="M177.1,37.421 C177.1,35.415 176.159,33.665 173.771,33.665 C171.397,33.665 170.443,35.415 170.443,37.421 C170.443,39.427 171.397,41.238 173.771,41.238 C176.159,41.238 177.1,39.427 177.1,37.421 M167.166,37.421 C167.166,33.971 169.785,31.083 173.771,31.083 C177.757,31.083 180.377,33.971 180.377,37.421 C180.377,40.883 177.757,43.807 173.771,43.807 C169.785,43.807 167.166,40.883 167.166,37.421" fill="#264871"/>
        <path d="M95.931,26 L100,26 L96.311,33 L94,33 z" fill="#384F73"/>
        <path d="M35.924,25.643 C32.928,28.092 32.519,29.695 30.224,32.149 C27.752,34.791 24.262,34.772 22.107,34.768 C18.067,34.759 14.701,31.875 14.701,28.23 C15.543,28.173 21.381,27.658 22.213,27.563 C22.541,27.526 22.621,27.443 22.621,27.443 L22.349,27.443 C21.793,27.44 16.573,27.446 14.699,27.449 L14.699,27.451 C10.696,27.451 7.297,24.553 7.297,21.014 L7.307,21.014 C8.751,20.962 17.873,20.72 20.349,20.338 C20.659,20.291 20.826,20.195 20.826,20.195 C20.826,20.195 14.552,20.209 7.43,20.197 C3.327,20.196 0,17.232 0,13.501 C0,13.333 0.006,13.166 0.02,13 L35.762,13 C39.211,13.034 41.713,13.258 43.038,14.234 C43.881,14.846 44.204,15.793 44.358,16.607 L44.461,16.607 C47.894,16.607 50.77,18.647 51.963,21.584 C50.828,21.39 49.657,21.289 48.458,21.289 C43.634,21.289 39.238,22.939 35.926,25.646 L35.923,25.643 z" fill="#0075BE"/>
      </g>
    </g>
  </g>
</svg>
