<svg xmlns="http://www.w3.org/2000/svg" xmlns:xlink="http://www.w3.org/1999/xlink" width="221" height="45" viewBox="0 0 221 45">
    <defs>
        <path id="sb11lvueza" d="M0 0.157L62.944 0.157 62.944 26.832 0 26.832z"/>
    </defs>
    <g fill="none" fill-rule="evenodd">
        <g>
            <g>
                <g>
                    <g>
                        <path fill="#888" d="M47.262 32.246l4.065-.94c.29 2.587 2.308 3.735 4.727 3.735 2.437 0 3.76-1.177 3.76-2.649 0-4.309-11.036-2.868-11.036-9.634 0-3.678 3.276-5.738 7.115-5.738 2.807 0 5.373 1.12 6.937 3.65l-3.404 1.896c-.79-1.412-2.145-2.22-3.68-2.22-1.611 0-2.87.896-2.87 2.22 0 3.913 11.035 2.59 11.035 9.49 0 3.926-3.565 6.294-7.921 6.294-4.034.001-8.002-2.014-8.728-6.104M76.56 32.008v-.118h-4.169c-1.794 0-2.618.855-2.618 1.784 0 .972.856 1.665 2.618 1.665 2.423-.001 3.927-1.592 4.17-3.331m3.571-2.858v9.165h-3.249l-.242-2.196c-1.05 1.518-3.2 2.255-5.042 2.255-3.313 0-5.867-1.739-5.867-4.818 0-3.198 2.812-4.259 6.432-4.259h4.38c-.08-2.181-.792-3.109-3.36-3.109-1.86 0-3.104 1.002-3.799 2.078l-3.022-1.99c1.551-1.93 3.604-3.227 6.787-3.227 4.396 0 6.982 2.505 6.982 6.101M84.334 23.359h3.943v1.71c1.293-1.444 3.15-2.02 4.735-2.02 4.234 0 5.899 3.11 5.899 6.19v9.108h-3.943v-8.651c0-1.931-1.067-3.331-3.087-3.331-2.214 0-3.604 1.09-3.604 3.654v8.328h-3.943V23.359zM103.79 33.986v-7.647h-2.601v-3.006h2.666v-3.761l3.879-2.564v6.325h4.04v3.006h-4.04v7.014c0 1.414.76 1.826 1.794 1.826.824 0 1.713-.294 2.246-.53v3.257c-.598.206-1.761.44-2.941.44-3.151 0-5.042-1.678-5.042-4.36M132.314 30.358l-3.07-7.603-3.087 7.603h6.157zm-4.517-13.342h2.864l9.327 21.34h-4.44l-1.941-4.8h-8.743l-1.956 4.796-4.477.004 9.366-21.34zM142.333 23.359h3.943v1.71c1.293-1.444 3.151-2.02 4.735-2.02 4.234 0 5.9 3.11 5.9 6.19v9.117h-3.944v-8.66c0-1.931-1.067-3.331-3.087-3.331-2.214 0-3.603 1.09-3.603 3.654v8.337h-3.944V23.359zM164.845 28.516c0 1.444.953 2.534 2.715 2.534 1.713 0 2.682-1.09 2.682-2.534 0-1.46-.97-2.623-2.682-2.623-1.762 0-2.715 1.164-2.715 2.623m6.513 11.67c0-1.62-1.988-1.62-3.604-1.62h-3.152l-1.39 1.075v.339c0 .515 0 2.107 4.283 2.107 2.44 0 3.863-.53 3.863-1.901m3.78-.294c0 2.962-2.358 4.95-7.384 4.95-4.266 0-8.21-1.458-8.21-4.804 0-.544.097-.986.259-1.354l2.214-.796c-1.051-.604-2.133-1.65-2.133-3.286 0-1.18.582-2.373 1.987-3.168-.613-.84-.97-1.857-.97-2.977 0-3.198 2.877-5.408 6.594-5.408 1.454 0 2.715.339 3.749.9l2.473-1.931 2.02 2.298-2.36 1.724c.437.767.664 1.62.664 2.535 0 3.256-2.942 5.334-6.546 5.334-1.26 0-2.408-.25-3.377-.693-.437.279-.566.663-.566 1.032 0 1.296 1.649 1.296 2.376 1.296h3.41c2.52 0 5.8.84 5.8 4.348M188.515 29.278c0-.324-.033-.634-.129-.928-.405-1.517-1.794-2.3-3.507-2.3-2.327 0-3.345 1.387-3.717 3.229h7.353v-.001zm-11.523 1.474c0-3.831 2.457-7.722 7.92-7.722 5.655 0 7.481 4.142 7.481 7.427 0 .604-.065 1.209-.145 1.415h-11.086c.34 1.93 1.502 3.226 4.04 3.226 1.455 0 2.747-.412 3.878-1.561l2.716 2.166c-1.762 1.782-3.91 2.652-6.627 2.652-5.559 0-8.177-3.64-8.177-7.603zM195.614 35.12V17.008h3.943v17.125c0 .692.501.987 1.293.987.226 0 .662-.029 1.082-.089v3.021c-.824.147-2.004.295-2.94.295-1.859 0-3.378-.633-3.378-3.227M215.896 30.655c0-2.417-1.18-4.523-4.17-4.523-2.973 0-4.17 2.106-4.17 4.523 0 2.416 1.197 4.599 4.17 4.599 2.99 0 4.17-2.182 4.17-4.598m-12.443 0c0-4.155 3.28-7.633 8.274-7.633 4.993 0 8.273 3.477 8.273 7.633 0 4.17-3.28 7.69-8.273 7.69-4.994 0-8.274-3.52-8.274-7.69M116.607 17.008L121.163 17.008 117.033 25.346 114.444 25.346z" transform="translate(-425 -1770) translate(105 1641) translate(320 5) translate(0 124)"/>
                        <g transform="translate(-425 -1770) translate(105 1641) translate(320 5) translate(0 124) translate(0 .843)">
                            <mask id="y9sgas1lab" fill="#fff">
                                <use xlink:href="#sb11lvueza"/>
                            </mask>
                            <path fill="#888" d="M43.515 15.65c-3.63 3-4.125 4.965-6.905 7.972-2.994 3.238-7.222 3.215-9.832 3.21-4.893-.012-8.971-3.546-8.971-8.012 1.02-.069 8.092-.7 9.099-.817.398-.046.496-.146.496-.146h-.332c-.673-.005-6.996.002-9.265.006v.002c-4.848 0-8.967-3.55-8.967-7.887h.013c1.749-.065 12.799-.36 15.798-.829.375-.059.577-.176.577-.176s-7.6.017-16.228.003C4.028 8.975 0 5.343 0 .77 0 .564.009.361.025.157h43.294c4.178.042 7.209.314 8.814 1.512 1.02.75 1.413 1.911 1.599 2.908h.125c4.158 0 7.64 2.501 9.087 6.098-1.375-.238-2.794-.362-4.244-.362-5.844 0-11.17 2.023-15.181 5.341l-.004-.004z" mask="url(#y9sgas1lab)"/>
                        </g>
                    </g>
                </g>
            </g>
        </g>
    </g>
</svg>
