<svg xmlns="http://www.w3.org/2000/svg" xmlns:xlink="http://www.w3.org/1999/xlink" width="251" height="50" viewBox="0 0 251 50">
    <defs>
        <path id="mu0tt1u9ra" d="M0.024 0.115L18.895 0.115 18.895 17.592 0.024 17.592z"/>
        <path id="2wy83qelgc" d="M0 0L71.783 0 71.783 30.42 0 30.42z"/>
    </defs>
    <g fill="none" fill-rule="evenodd">
        <g>
            <g>
                <g>
                    <path fill="#FFF" d="M53.899 35.634l4.637-1.073c.33 2.952 2.63 4.261 5.39 4.261 2.779 0 4.287-1.342 4.287-3.02 0-4.916-12.585-3.272-12.585-10.989 0-4.194 3.736-6.543 8.115-6.543 3.2 0 6.127 1.275 7.91 4.161l-3.881 2.164c-.902-1.61-2.447-2.533-4.195-2.533-1.84 0-3.276 1.023-3.276 2.533 0 4.462 12.586 2.952 12.586 10.821 0 4.48-4.066 7.18-9.034 7.18-4.6 0-9.126-2.298-9.954-6.962M87.312 35.363v-.135h-4.755c-2.046 0-2.985.976-2.985 2.034 0 1.109.976 1.899 2.985 1.899 2.765 0 4.479-1.816 4.755-3.798m4.073-3.261v10.453H87.68l-.275-2.504c-1.198 1.732-3.65 2.572-5.751 2.572-3.78 0-6.691-1.984-6.691-5.495 0-3.647 3.207-4.857 7.336-4.857h4.994c-.091-2.487-.903-3.546-3.833-3.546-2.12 0-3.54 1.143-4.332 2.369l-3.445-2.268c1.769-2.201 4.109-3.68 7.74-3.68 5.013 0 7.962 2.857 7.962 6.956M96.177 25.499h4.496v1.949c1.475-1.646 3.595-2.302 5.4-2.302 4.83 0 6.727 3.546 6.727 7.058v10.389h-4.496v-9.867c0-2.203-1.217-3.798-3.52-3.798-2.525 0-4.11 1.243-4.11 4.167v9.498h-4.497V25.499zM118.367 37.618v-8.722h-2.968v-3.427h3.04V21.18l4.425-2.924v7.212h4.606v3.427h-4.606v7.999c0 1.614.864 2.084 2.044 2.084.94 0 1.954-.336 2.563-.604v3.713c-.683.236-2.008.505-3.355.505-3.594 0-5.75-1.916-5.75-4.975M150.895 33.481l-3.502-8.67-3.52 8.67h7.022zm-5.151-15.216h3.265l10.637 24.337h-5.062l-2.214-5.475h-9.971l-2.232 5.47-5.104.005 10.68-24.337zM162.322 25.499h4.497v1.949c1.474-1.646 3.594-2.302 5.399-2.302 4.83 0 6.727 3.546 6.727 7.058v10.399h-4.496v-9.877c0-2.203-1.216-3.798-3.521-3.798-2.524 0-4.11 1.243-4.11 4.167v9.508h-4.496V25.499zM187.994 31.38c0 1.646 1.087 2.89 3.097 2.89 1.953 0 3.058-1.244 3.058-2.89 0-1.663-1.105-2.99-3.058-2.99-2.01 0-3.097 1.326-3.097 2.99m7.428 13.31c0-1.85-2.268-1.85-4.11-1.85h-3.594l-1.585 1.228v.386c0 .587 0 2.404 4.883 2.404 2.784 0 4.406-.605 4.406-2.168m4.312-.337c0 3.378-2.69 5.646-8.423 5.646-4.865 0-9.362-1.663-9.362-5.477 0-.621.11-1.127.295-1.547l2.525-.907c-1.199-.69-2.433-1.881-2.433-3.747 0-1.344.664-2.706 2.266-3.613-.699-.959-1.105-2.118-1.105-3.394 0-3.648 3.28-6.169 7.52-6.169 1.658 0 3.096.387 4.275 1.026l2.82-2.201 2.304 2.62-2.69 1.968c.497.872.755 1.846.755 2.889 0 3.713-3.354 6.082-7.465 6.082-1.437 0-2.746-.285-3.85-.79-.499.32-.647.758-.647 1.178 0 1.478 1.881 1.478 2.71 1.478h3.888c2.875.002 6.617.958 6.617 4.958M214.989 32.25c0-.371-.037-.724-.147-1.06-.461-1.73-2.046-2.621-4-2.621-2.654 0-3.814 1.58-4.24 3.68h8.387zm-13.141 1.68c0-4.37 2.802-8.806 9.03-8.806 6.452 0 8.534 4.723 8.534 8.47 0 .688-.073 1.378-.165 1.613h-12.644c.388 2.2 1.714 3.68 4.608 3.68 1.659 0 3.132-.471 4.424-1.782l3.095 2.47c-2.01 2.033-4.46 3.026-7.556 3.026-6.34 0-9.326-4.151-9.326-8.671zM223.085 38.912V18.256h4.496v19.53c0 .79.571 1.126 1.475 1.126.258 0 .755-.033 1.234-.102v3.446c-.939.168-2.285.336-3.354.336-2.119 0-3.85-.722-3.85-3.68" transform="translate(-595 -4122) translate(0 3940) translate(595 182)"/>
                    <g transform="translate(-595 -4122) translate(0 3940) translate(595 182) translate(232 25)">
                        <mask id="t0le7agzlb" fill="#fff">
                            <use xlink:href="#mu0tt1u9ra"/>
                        </mask>
                        <path fill="#FFF" d="M14.214 8.82c0-2.756-1.346-5.158-4.755-5.158-3.39 0-4.755 2.402-4.755 5.158 0 2.756 1.364 5.243 4.755 5.243 3.41 0 4.755-2.487 4.755-5.243m-14.19 0C.024 4.08 3.764.115 9.46.115s9.436 3.966 9.436 8.705c0 4.755-3.742 8.772-9.436 8.772-5.695 0-9.435-4.017-9.435-8.772" mask="url(#t0le7agzlb)"/>
                    </g>
                    <path fill="#FFF" d="M132.983 18.256L138.178 18.256 133.468 27.765 130.516 27.765z" transform="translate(-595 -4122) translate(0 3940) translate(595 182)"/>
                    <g transform="translate(-595 -4122) translate(0 3940) translate(595 182)">
                        <mask id="bruegauc5d" fill="#fff">
                            <use xlink:href="#2wy83qelgc"/>
                        </mask>
                        <path fill="#FFF" d="M49.626 17.67c-4.14 3.42-4.705 5.66-7.876 9.092-3.414 3.692-8.235 3.665-11.213 3.658-5.58-.012-10.23-4.042-10.23-9.135 1.164-.08 9.23-.801 10.377-.932.454-.053.565-.166.565-.166h-.378c-.767-.006-7.978.003-10.566.006v.002c-5.529 0-10.226-4.047-10.226-8.994l.015-.001c1.995-.073 14.595-.41 18.016-.944.428-.067.66-.2.66-.2s-8.667.018-18.508.003v-.001C4.595 10.058 0 5.917 0 .7 0 .466.01.23.028 0h49.374c4.765.049 8.221.359 10.052 1.725 1.164.855 1.611 2.179 1.822 3.317h.144c4.742 0 8.714 2.852 10.363 6.955-1.568-.271-3.186-.414-4.84-.414-6.665 0-12.738 2.306-17.313 6.09l-.004-.003z" mask="url(#bruegauc5d)"/>
                    </g>
                </g>
            </g>
        </g>
    </g>
</svg>
