<?xml version="1.0" encoding="UTF-8"?>
<!DOCTYPE svg PUBLIC "-//W3C//DTD SVG 1.1//EN" "http://www.w3.org/Graphics/SVG/1.1/DTD/svg11.dtd">
<svg version="1.1" xmlns="http://www.w3.org/2000/svg" xmlns:xlink="http://www.w3.org/1999/xlink" x="0" y="0" width="29" height="19" viewBox="0, 0, 29, 19">
  <g id="Page-1" transform="translate(0, -2)">
    <path d="M26.58,21 L2.42,21 C1.094,21.011 0.011,19.946 -0,18.62 L-0,4.38 C0.011,3.054 1.094,1.989 2.42,2 L26.58,2 C27.906,1.989 28.989,3.054 29,4.38 L29,18.63 C28.984,19.952 27.902,21.011 26.58,21 z" fill="#003663" id="shape"/>
    <path d="M17,11.5 C17,15.09 14.09,18 10.5,18 C6.91,18 4,15.09 4,11.5 C4,7.91 6.91,5 10.5,5 C14.09,5 17,7.91 17,11.5 z" fill="#EB1C26" id="shape"/>
    <path d="M25,11.5 C25,15.09 22.09,18 18.5,18 C14.91,18 12,15.09 12,11.5 C12,7.91 14.91,5 18.5,5 C22.09,5 25,7.91 25,11.5 z" fill="#F99F1B" id="shape"/>
    <path d="M14.5,6.38 C12.921,7.61 11.998,9.499 11.998,11.5 C11.998,13.501 12.921,15.39 14.5,16.62 C16.079,15.39 17.002,13.501 17.002,11.5 C17.002,9.499 16.079,7.61 14.5,6.38 z" fill="#EF5D20" id="shape"/>
  </g>
</svg>
