<svg xmlns="http://www.w3.org/2000/svg" xmlns:xlink="http://www.w3.org/1999/xlink" viewBox="0 0 53 73"><defs><style>.cls-1{fill:#fff;}.cls-2,.cls-3{fill:none;}.cls-3{clip-rule:evenodd;}.cls-4{clip-path:url(#clip-path);}.cls-5{clip-path:url(#clip-path-2);}.cls-6{clip-path:url(#clip-path-3);}.cls-7{clip-path:url(#clip-path-4);}.cls-8{clip-path:url(#clip-path-5);}.cls-9{clip-path:url(#clip-path-6);}.cls-10{fill:#fc4a45;}</style><clipPath id="clip-path"><path class="cls-1" d="M43.19,67.57H10a4.44,4.44,0,0,1-4.36-4.49V9.92A4.44,4.44,0,0,1,10,5.43h33.2a4.44,4.44,0,0,1,4.36,4.49V63.08A4.39,4.39,0,0,1,43.19,67.57Z"/></clipPath><clipPath id="clip-path-2"><path class="cls-2" d="M9.48,6.23a3.24,3.24,0,0,0-3.2,3.25V63.39a3.23,3.23,0,0,0,3.2,3.25h34a3.24,3.24,0,0,0,3.2-3.25V9.48a3.23,3.23,0,0,0-3.2-3.25ZM43.52,68h-34A4.53,4.53,0,0,1,5,63.45V9.55A4.53,4.53,0,0,1,9.48,5h34A4.53,4.53,0,0,1,48,9.55v53.9A4.49,4.49,0,0,1,43.52,68Z"/></clipPath><clipPath id="clip-path-3"><path class="cls-3" d="M16.13,52.29H14.9v3.53H16c1.37,0,2.16-.59,2.16-1.83S17.5,52.29,16.13,52.29ZM16,57H15v4H13.59V51H16.2c2.09,0,3.39,1.05,3.39,2.88C19.59,56,18.16,57,16,57Z"/></clipPath><clipPath id="clip-path-4"><path class="cls-3" d="M23.49,52.29H22v7.57h1.48c2.39,0,3.81-1.25,3.81-3.75S25.75,52.29,23.49,52.29ZM23.37,61H20.59V51h2.84c3.42,0,5.16,2,5.16,5S26.78,61,23.37,61Z"/></clipPath><clipPath id="clip-path-5"><polygon class="cls-3" points="31.92 52.29 31.92 55.36 34.83 55.36 35.02 56.6 31.92 56.6 31.92 61.05 30.59 61.05 30.59 51.05 35.59 51.05 35.59 52.29 31.92 52.29"/></clipPath><clipPath id="clip-path-6"><path class="cls-3" d="M25.36,16.33c-.06,0-.19,0-.39.39-.51,1-.38,3.41.26,5.92.78-3,.9-5.34.39-6.12C25.55,16.4,25.49,16.33,25.36,16.33Zm0,10.36a36.46,36.46,0,0,1-1.48,3.74c-.26.51-.58,1.22-1,2a11.93,11.93,0,0,1,1.55-.58,33.48,33.48,0,0,1,4.12-1,11,11,0,0,1-1.74-1.74A16.73,16.73,0,0,1,25.36,26.69Zm6.57,4.89c2.07,1.23,4.26,1.87,5.42,1.61a1,1,0,0,0,.84-.64c.06-.26,0-.39-.07-.45C37.41,31.46,35,31.26,31.93,31.58Zm-12,3.74c-2.64,1.41-4.83,3.09-5,4,0,.06,0,.13.13.25a.8.8,0,0,0,.78.13C16.85,39.44,18.27,37.83,19.88,35.32ZM15.5,41a1.94,1.94,0,0,1-1.29-.45,1.37,1.37,0,0,1-.58-1.48c.32-1.86,4.13-4.24,7.48-5.85.58-1,1.09-2.13,1.67-3.35a49.34,49.34,0,0,0,1.94-5c-1.23-3.35-1.62-7.08-.78-8.75A1.66,1.66,0,0,1,25.49,15a1.5,1.5,0,0,1,1.35.78c1,1.54.39,5.34-.77,9.07A13.52,13.52,0,0,0,28,28.3a15.34,15.34,0,0,0,2.39,2.25c3.74-.57,7.41-.57,8.7.71a1.67,1.67,0,0,1,.39,1.8,2.13,2.13,0,0,1-1.81,1.48c-1.93.39-5-.77-7.67-2.63a39.33,39.33,0,0,0-5.09,1.22c-.9.32-1.87.71-2.9,1.16-1.61,3-3.8,6.18-5.93,6.69C15.89,41,15.69,41,15.5,41Z"/></clipPath></defs><title>ico_pdf</title><g id="Livello_2" data-name="Livello 2"><g id="Icone"><g id="ico_pdf"><path class="cls-1" d="M43.19,67.57H10a4.44,4.44,0,0,1-4.36-4.49V9.92A4.44,4.44,0,0,1,10,5.43h33.2a4.44,4.44,0,0,1,4.36,4.49V63.08A4.39,4.39,0,0,1,43.19,67.57Z"/><g class="cls-4"><rect class="cls-1" x="0.75" y="0.5" width="51.68" height="72"/></g><g class="cls-5"><rect width="53" height="73"/></g><g class="cls-6"><rect x="8.59" y="46.04" width="16" height="20"/></g><g class="cls-7"><rect x="15.59" y="46.04" width="18" height="20"/></g><g class="cls-8"><rect x="25.59" y="46.04" width="15" height="20"/></g><g class="cls-9"><rect class="cls-10" x="8.59" y="10.04" width="36" height="36"/></g></g></g></g></svg>