<?xml version="1.0" encoding="UTF-8"?>
<!DOCTYPE svg PUBLIC "-//W3C//DTD SVG 1.1//EN" "http://www.w3.org/Graphics/SVG/1.1/DTD/svg11.dtd">
<svg version="1.1" xmlns="http://www.w3.org/2000/svg" xmlns:xlink="http://www.w3.org/1999/xlink" x="0" y="0" width="29.8" height="50" viewBox="0, 0, 29.8, 50">
  <defs>
    <clipPath id="Clip_1">
      <path d="M48.993,31.662 L49.299,31.809 C49.676,32.087 49.748,32.626 49.46,32.99 L37.871,48.006 C37.711,48.22 37.455,48.338 37.19,48.338 L37.158,48.338 C36.877,48.33 36.62,48.188 36.468,47.958 L30.502,38.89 C30.245,38.502 30.357,37.979 30.75,37.718 C31.151,37.464 31.68,37.575 31.937,37.971 L37.246,46.026 L48.096,31.968 C48.516,31.606 48.241,31.761 48.993,31.662 z"/>
    </clipPath>
  </defs>
  <g id="Livello_2" transform="translate(-25.1, -15)">
    <path d="M50.56,15 L29.44,15 C27.045,15.005 25.105,16.945 25.1,19.34 L25.1,60.66 C25.105,63.055 27.045,64.994 29.44,65 L50.56,65 C52.955,64.994 54.895,63.055 54.9,60.66 L54.9,19.34 C54.895,16.945 52.955,15.005 50.56,15 z M53.32,60.66 C53.315,62.182 52.082,63.415 50.56,63.42 L29.44,63.42 C27.918,63.415 26.685,62.182 26.68,60.66 L26.68,56.12 L53.32,56.12 z M53.32,54.54 L26.68,54.54 L26.68,25.46 L53.32,25.46 z M53.32,23.88 L26.68,23.88 L26.68,19.34 C26.685,17.818 27.918,16.585 29.44,16.58 L50.56,16.58 C52.082,16.585 53.315,17.818 53.32,19.34 z" fill="#333333"/>
    <path d="M42.34,19.44 L37.66,19.44 C37.224,19.44 36.87,19.794 36.87,20.23 C36.87,20.666 37.224,21.02 37.66,21.02 L42.34,21.02 C42.776,21.02 43.13,20.666 43.13,20.23 C43.13,19.794 42.776,19.44 42.34,19.44 z" fill="#333333"/>
    <path d="M40,62.46 C41.48,62.46 42.68,61.26 42.68,59.78 C42.68,58.3 41.48,57.1 40,57.1 C38.52,57.1 37.32,58.3 37.32,59.78 C37.32,61.26 38.52,62.46 40,62.46 z M40,58.68 C40.608,58.68 41.1,59.172 41.1,59.78 C41.1,60.388 40.608,60.88 40,60.88 C39.392,60.88 38.9,60.388 38.9,59.78 C38.9,59.172 39.392,58.68 40,58.68 z" fill="#333333"/>
    <g clip-path="url(#Clip_1)">
      <path d="M27.812,29.083 L52.188,29.083 L52.188,50.89 L27.812,50.89 z" fill="#EE3468"/>
    </g>
  </g>
</svg>
