<?xml version="1.0" encoding="UTF-8"?>
<!DOCTYPE svg PUBLIC "-//W3C//DTD SVG 1.1//EN" "http://www.w3.org/Graphics/SVG/1.1/DTD/svg11.dtd">
<svg version="1.1" xmlns="http://www.w3.org/2000/svg" xmlns:xlink="http://www.w3.org/1999/xlink" x="0" y="0" width="88" height="111" viewBox="0, 0, 88, 111">
  <defs>
    <clipPath id="Clip_1">
      <path d="M6.395,89.5 C6.749,89.5 7.105,89.371 7.387,89.112 C7.981,88.565 8.02,87.639 7.471,87.044 C4.499,83.818 2.929,80.112 2.929,76.324 C2.929,65.021 16.639,55.826 33.492,55.826 C43.42,55.826 53.449,59.125 59.043,64.229 C59.64,64.777 60.568,64.733 61.111,64.134 C61.656,63.536 61.614,62.611 61.016,62.066 C54.82,56.411 44.273,52.898 33.492,52.898 C19.169,53.061 1.189,59.905 -0,76.322 L-0,76.328 C-0.024,81.217 2.233,85.4 5.318,89.028 C5.606,89.342 5.999,89.5 6.395,89.5 z"/>
    </clipPath>
    <clipPath id="Clip_2">
      <path d="M61.493,52.898 L61.493,89.5 L-0,89.5 L-0,52.898 L61.493,52.898 z"/>
    </clipPath>
    <clipPath id="Clip_3">
      <path d="M10.257,110 C10.429,109.992 10.341,110 10.519,109.975 C11.314,109.826 11.837,109.062 11.688,108.267 L7.833,87.767 C7.684,86.971 6.915,86.447 6.123,86.598 C5.329,86.746 4.805,87.512 4.955,88.308 L8.81,108.806 C8.961,109.545 9.562,109.88 10.245,110 L10.257,110 z"/>
    </clipPath>
    <clipPath id="Clip_4">
      <path d="M11.714,86.572 L11.714,110 L4.93,110 L4.93,86.572 L11.714,86.572 z"/>
    </clipPath>
    <clipPath id="Clip_5">
      <path d="M23.427,110 C24.236,110 24.891,109.345 24.891,108.535 C24.891,107.727 24.236,107.071 23.427,107.071 L10.25,107.071 C9.441,107.071 8.785,107.727 8.785,108.535 C8.785,109.345 9.441,110 10.25,110 L23.427,110 z"/>
    </clipPath>
    <clipPath id="Clip_6">
      <path d="M24.891,107.071 L24.891,110 L8.785,110 L8.785,107.071 L24.891,107.071 z"/>
    </clipPath>
    <clipPath id="Clip_7">
      <path d="M23.427,110.001 C24.236,110 24.891,109.345 24.891,108.535 L24.891,101.216 C24.891,100.405 24.236,99.751 23.427,99.751 C22.618,99.751 21.963,100.405 21.963,101.215 L21.963,108.536 C21.963,109.345 22.618,110 23.427,110 z"/>
    </clipPath>
    <clipPath id="Clip_8">
      <path d="M24.891,99.752 L24.891,110 L21.963,110 L21.963,99.752 L24.891,99.752 z"/>
    </clipPath>
    <clipPath id="Clip_9">
      <path d="M49.786,110 C50.393,109.902 50.101,109.998 50.66,109.707 C51.307,109.223 51.438,108.305 50.953,107.658 L46.56,101.801 C46.076,101.155 45.16,101.023 44.511,101.508 C43.864,101.993 43.733,102.91 44.218,103.558 L48.611,109.413 C49.306,109.992 48.915,109.8 49.78,110 L49.786,110 z"/>
    </clipPath>
    <clipPath id="Clip_10">
      <path d="M51.245,101.216 L51.245,110 L43.925,110 L43.925,101.216 L51.245,101.216 z"/>
    </clipPath>
    <clipPath id="Clip_11">
      <path d="M60.03,110 C60.839,110 61.494,109.345 61.494,108.535 C61.494,107.727 60.839,107.071 60.03,107.071 L49.781,107.071 C48.972,107.071 48.317,107.727 48.317,108.535 C48.317,109.345 48.972,110 49.781,110 L60.03,110 z"/>
    </clipPath>
    <clipPath id="Clip_12">
      <path d="M61.494,107.071 L61.494,110 L48.317,110 L48.317,107.071 L61.494,107.071 z"/>
    </clipPath>
    <clipPath id="Clip_13">
      <path d="M60.03,110.001 C60.839,110.001 61.494,109.346 61.494,108.536 L61.494,99.752 C61.494,98.942 60.839,98.287 60.03,98.287 C59.221,98.287 58.566,98.942 58.566,99.752 L58.566,108.536 C58.566,109.346 59.221,110.001 60.03,110.001 z"/>
    </clipPath>
    <clipPath id="Clip_14">
      <path d="M61.494,98.286 L61.494,110 L58.566,110 L58.566,98.286 L61.494,98.286 z"/>
    </clipPath>
    <clipPath id="Clip_15">
      <path d="M86.384,74.86 C87.193,74.861 87.848,75.517 87.848,76.325 C87.848,77.135 87.193,77.79 86.384,77.79 L80.528,77.789 C79.719,77.79 79.063,77.135 79.063,76.325 C79.063,75.517 79.719,74.861 80.528,74.861 L86.384,74.86 z"/>
    </clipPath>
    <clipPath id="Clip_16">
      <path d="M71.512,54.381 C72.774,54.671 72.333,54.361 72.985,55.05 C73.413,55.737 73.205,56.641 72.518,57.068 L60.805,64.389 C60.564,64.541 60.296,64.612 60.031,64.612 C59.543,64.612 59.066,64.369 58.788,63.925 C58.36,63.238 58.568,62.335 59.254,61.907 L70.967,54.587 L71.512,54.381 z"/>
    </clipPath>
    <clipPath id="Clip_17">
      <path d="M71.565,54.376 L72.146,54.418 C72.923,54.642 73.374,55.452 73.151,56.228 L70.223,66.478 C70.039,67.121 69.453,67.54 68.816,67.54 C68.683,67.54 68.547,67.521 68.413,67.484 C67.636,67.261 67.185,66.451 67.407,65.674 L70.336,55.425 C70.771,54.584 70.433,55.004 71.565,54.376 z"/>
    </clipPath>
    <clipPath id="Clip_18">
      <path d="M69.036,64.63 C74.802,65.512 79,69.146 81.871,75.74 C82.194,76.482 81.855,77.345 81.112,77.668 C80.922,77.751 80.724,77.79 80.529,77.79 C79.964,77.79 79.426,77.461 79.186,76.91 C76.715,71.234 73.349,68.251 68.593,67.523 C67.795,67.402 67.245,66.654 67.368,65.854 C67.49,65.056 68.248,64.511 69.037,64.63 z"/>
    </clipPath>
    <clipPath id="Clip_19">
      <path d="M86.384,74.861 C87.194,74.861 87.849,75.516 87.849,76.325 L87.849,82.181 C87.849,82.991 87.194,83.646 86.385,83.646 C85.576,83.646 84.921,82.991 84.921,82.181 L84.921,76.325 C84.921,75.516 85.576,74.861 86.385,74.861 z"/>
    </clipPath>
    <clipPath id="Clip_20">
      <path d="M86.384,80.717 C87.189,80.717 87.843,81.366 87.848,82.171 C87.913,91.299 76.286,99.305 60.201,101.205 C60.144,101.212 60.086,101.215 60.028,101.215 C59.297,101.215 58.664,100.667 58.576,99.922 C58.481,99.12 59.055,98.391 59.859,98.297 C74.199,96.603 84.973,89.678 84.92,82.192 C84.915,81.383 85.566,80.723 86.374,80.717 L86.384,80.717 z"/>
    </clipPath>
    <clipPath id="Clip_21">
      <path d="M23.37,99.751 L23.944,99.845 C30.548,102.337 37.468,102.797 45.097,101.244 C45.893,101.093 46.662,101.597 46.824,102.387 C46.985,103.18 46.473,103.954 45.681,104.115 C42.542,104.752 39.51,105.072 36.565,105.072 C31.827,105.072 27.31,104.245 22.91,102.586 C22.154,102.3 21.772,101.456 22.057,100.699 C22.561,99.893 22.189,100.285 23.37,99.751 z"/>
    </clipPath>
    <clipPath id="Clip_22">
      <path d="M37.074,58.68 C43.951,60.004 41.038,59.182 45.904,60.792 C46.66,61.077 47.044,61.922 46.759,62.679 C46.538,63.266 45.981,63.628 45.389,63.628 C45.217,63.628 45.044,63.598 44.874,63.535 C37.586,60.795 30.748,60.791 23.974,63.522 C23.225,63.822 22.372,63.462 22.069,62.711 C21.767,61.961 22.129,61.108 22.879,60.806 C26.138,59.659 27.356,59.082 31.343,58.684 C33.244,58.494 35.163,58.681 37.074,58.68 z"/>
    </clipPath>
    <clipPath id="Clip_23">
      <path d="M1.464,57.292 C5.502,57.292 8.786,59.918 8.786,63.148 C8.786,63.958 8.13,64.612 7.322,64.612 C6.513,64.612 5.858,63.958 5.858,63.148 C5.858,61.561 3.845,60.219 1.465,60.219 C0.657,60.219 0.001,59.565 0.001,58.756 C0.001,57.946 0.657,57.292 1.465,57.292 z"/>
    </clipPath>
    <clipPath id="Clip_24">
      <path d="M1.464,57.292 C2.273,57.292 2.928,57.946 2.928,58.755 C2.928,60.354 3.232,61.389 3.429,61.772 C3.991,61.977 4.393,62.516 4.393,63.148 C4.393,63.958 3.737,64.612 2.928,64.612 C0.769,64.612 0,61.586 0,58.755 C0,57.946 0.656,57.292 1.464,57.292 z"/>
    </clipPath>
    <clipPath id="Clip_25">
      <path d="M70.799,71.258 L71.586,71.631 L71.596,71.639 C72.567,72.367 72.764,73.744 72.037,74.715 C71.605,75.289 70.945,75.593 70.278,75.593 C69.819,75.593 69.357,75.449 68.962,75.154 C67.991,74.426 67.789,73.045 68.516,72.073 C69.576,71.127 68.878,71.534 70.799,71.258 z"/>
    </clipPath>
    <clipPath id="Clip_26">
      <path d="M33.944,10.78 C36.311,10.78 38.513,11.636 40.25,13.052 C40.904,13.587 41,14.55 40.465,15.204 C39.929,15.857 38.966,15.953 38.312,15.418 C37.077,14.411 35.579,13.83 33.944,13.83 C31.24,13.83 28.841,15.448 27.558,17.896 L31.699,17.896 C32.542,17.908 33.215,18.601 33.203,19.443 C33.191,20.285 32.499,20.958 31.656,20.946 L26.637,20.946 C26.599,21.281 26.573,21.615 26.573,21.962 C26.573,22.306 26.6,22.649 26.637,22.979 L31.699,22.979 C32.542,22.991 33.215,23.684 33.203,24.526 C33.191,25.368 32.499,26.041 31.656,26.028 L27.558,26.028 C28.839,28.484 31.236,30.096 33.944,30.096 C35.579,30.096 37.077,29.515 38.312,28.507 C38.348,28.476 38.385,28.444 38.424,28.415 C39.099,27.911 40.054,28.049 40.559,28.724 C41.063,29.398 40.925,30.354 40.25,30.858 C38.513,32.274 36.311,33.146 33.944,33.146 C29.498,33.146 25.766,30.161 24.254,26.028 L22.507,26.028 C21.664,26.073 20.946,25.426 20.902,24.583 C20.859,23.742 21.506,23.023 22.348,22.979 C22.401,22.977 22.454,22.977 22.507,22.979 L23.571,22.979 C23.543,22.647 23.523,22.302 23.523,21.962 C23.523,21.619 23.542,21.283 23.571,20.946 L22.507,20.946 C21.664,20.99 20.946,20.343 20.902,19.5 C20.859,18.658 21.506,17.94 22.348,17.896 C22.401,17.894 22.454,17.894 22.507,17.896 L24.254,17.896 C25.77,13.771 29.503,10.78 33.944,10.78 z"/>
    </clipPath>
    <clipPath id="Clip_27">
      <path d="M33.809,0 C45.919,0 55.771,9.851 55.771,21.962 C55.771,34.073 45.919,43.924 33.809,43.924 C21.699,43.924 11.847,34.073 11.847,21.962 C11.847,9.851 21.699,0 33.809,0 z M33.809,2.928 C23.313,2.928 14.775,11.467 14.775,21.962 C14.775,32.456 23.313,40.995 33.809,40.995 C44.305,40.995 52.843,32.456 52.843,21.962 C52.843,11.467 44.305,2.928 33.809,2.928 z"/>
    </clipPath>
  </defs>
  <g id="Layer_1">
    <g clip-path="url(#Clip_2)">
      <g clip-path="url(#Clip_1)">
        <path d="M-5,47.898 L66.493,47.898 L66.493,94.5 L-5,94.5 z" fill="#1A1919"/>
      </g>
    </g>
    <g clip-path="url(#Clip_4)">
      <g clip-path="url(#Clip_3)">
        <path d="M-0.07,81.572 L16.714,81.572 L16.714,115.001 L-0.07,115.001 z" fill="#1A1919"/>
      </g>
    </g>
    <g clip-path="url(#Clip_6)">
      <g clip-path="url(#Clip_5)">
        <path d="M3.785,102.071 L29.891,102.071 L29.891,115 L3.785,115 z" fill="#1A1919"/>
      </g>
    </g>
    <g clip-path="url(#Clip_8)">
      <g clip-path="url(#Clip_7)">
        <path d="M16.963,94.752 L29.891,94.752 L29.891,115.001 L16.963,115.001 z" fill="#1A1919"/>
      </g>
    </g>
    <g clip-path="url(#Clip_10)">
      <g clip-path="url(#Clip_9)">
        <path d="M38.925,96.216 L56.245,96.216 L56.245,115.001 L38.925,115.001 z" fill="#1A1919"/>
      </g>
    </g>
    <g clip-path="url(#Clip_12)">
      <g clip-path="url(#Clip_11)">
        <path d="M43.317,102.071 L66.494,102.071 L66.494,115 L43.317,115 z" fill="#1A1919"/>
      </g>
    </g>
    <g clip-path="url(#Clip_14)">
      <g clip-path="url(#Clip_13)">
        <path d="M53.566,93.286 L66.494,93.286 L66.494,115 L53.566,115 z" fill="#1A1919"/>
      </g>
    </g>
    <g clip-path="url(#Clip_15)">
      <path d="M74.063,69.861 L92.848,69.861 L92.848,82.79 L74.063,82.79 z" fill="#1A1919"/>
    </g>
    <g clip-path="url(#Clip_16)">
      <path d="M53.566,49.362 L78.208,49.362 L78.208,69.612 L53.566,69.612 z" fill="#1A1919"/>
    </g>
    <g clip-path="url(#Clip_17)">
      <path d="M62.35,49.365 L78.208,49.365 L78.208,72.541 L62.35,72.541 z" fill="#1A1919"/>
    </g>
    <g clip-path="url(#Clip_18)">
      <path d="M62.35,59.613 L86.993,59.613 L86.993,82.79 L62.35,82.79 z" fill="#1A1919"/>
    </g>
    <g clip-path="url(#Clip_19)">
      <path d="M79.921,69.861 L92.849,69.861 L92.849,88.646 L79.921,88.646 z" fill="#1A1919"/>
    </g>
    <g clip-path="url(#Clip_20)">
      <path d="M53.566,75.717 L92.848,75.717 L92.848,106.215 L53.566,106.215 z" fill="#1A1919"/>
    </g>
    <g clip-path="url(#Clip_21)">
      <path d="M16.962,94.75 L51.853,94.75 L51.853,110.072 L16.962,110.072 z" fill="#1A1919"/>
    </g>
    <g clip-path="url(#Clip_22)">
      <path d="M16.962,53.541 L51.853,53.541 L51.853,68.628 L16.962,68.628 z" fill="#1A1919"/>
    </g>
    <g clip-path="url(#Clip_23)">
      <path d="M-5,52.292 L13.785,52.292 L13.785,69.612 L-5,69.612 z" fill="#1A1919"/>
    </g>
    <g clip-path="url(#Clip_24)">
      <path d="M-4.999,52.292 L9.394,52.292 L9.394,69.612 L-4.999,69.612 z" fill="#1A1919"/>
    </g>
    <g clip-path="url(#Clip_25)">
      <path d="M63.079,66.194 L77.475,66.194 L77.475,80.593 L63.079,80.593 z" fill="#1A1919"/>
    </g>
    <g clip-path="url(#Clip_26)">
      <path d="M15.9,5.78 L45.863,5.78 L45.863,38.146 L15.9,38.146 z" fill="#EE3468"/>
    </g>
    <g clip-path="url(#Clip_27)">
      <path d="M6.847,-5 L60.771,-5 L60.771,48.924 L6.847,48.924 z" fill="#1A1919"/>
    </g>
  </g>
</svg>
