<svg xmlns="http://www.w3.org/2000/svg" xmlns:xlink="http://www.w3.org/1999/xlink" viewBox="0 0 452.16 53.57"><defs><style>.cls-1,.cls-2{fill:#fff;}.cls-2{fill-rule:evenodd;}.cls-3{clip-path:url(#clip-path);}.cls-4{clip-path:url(#clip-path-2);}</style><clipPath id="clip-path"><path class="cls-1" d="M137.78,8.91a5.44,5.44,0,0,1,1.61,3.75,6.05,6.05,0,1,1-12.09,0,5.44,5.44,0,0,1,1.61-3.75V2.43a10.94,10.94,0,0,0-7.39,10.2,11.83,11.83,0,0,0,23.65,0,10.94,10.94,0,0,0-7.39-10.2ZM109.7,6.83h.94c2.15,0,4,0,4,2.72s-2,2.61-4,2.61h-.94Zm-5.55-4.48V23.73h5.55V16.64h3.15c4.85,0,7.57-2.21,7.57-7.26s-3.17-7-7.77-7Zm58.58,0V15.42h-.06L152.49,2.35h-5.56V23.73h5.56V10.63h0l10.19,13.1h5.55V2.35Z"/></clipPath><clipPath id="clip-path-2"><rect class="cls-1" x="130.76" width="5.16" height="11.42"/></clipPath></defs><title>Risorsa 1</title><g id="Livello_2" data-name="Livello 2"><g id="Livello_1-2" data-name="Livello 1"><path class="cls-1" d="M66,36.14H15.55V1.58H66Zm-49.4-1H65V2.58H16.55Z"/><path class="cls-1" d="M20,41.42a1.36,1.36,0,0,1-1.54,1.49c-1,0-1.61-.46-1.61-1.49V39h.53v2.47a1,1,0,0,0,1.08,1.06.93.93,0,0,0,1-1.06V39H20Z"/><polygon class="cls-1" points="20.87 38.95 21.42 38.95 23.48 42.09 23.49 42.09 23.49 38.95 23.98 38.95 23.98 42.82 23.41 42.82 21.37 39.71 21.36 39.71 21.36 42.82 20.87 42.82 20.87 38.95"/><rect class="cls-1" x="24.85" y="38.95" width="0.52" height="3.88"/><path class="cls-1" d="M27.9,38.86a2,2,0,1,1-1.87,2,1.87,1.87,0,0,1,1.87-2m0,3.62a1.62,1.62,0,1,0-1.35-1.59,1.42,1.42,0,0,0,1.35,1.59"/><polygon class="cls-1" points="30.4 38.95 30.96 38.95 33.02 42.09 33.03 42.09 33.03 38.95 33.52 38.95 33.52 42.82 32.95 42.82 30.91 39.71 30.9 39.71 30.9 42.82 30.4 42.82 30.4 38.95"/><polygon class="cls-1" points="34.37 38.95 37.07 38.95 37.07 39.38 34.89 39.38 34.89 40.62 36.92 40.62 36.92 41.05 34.89 41.05 34.89 42.39 37.09 42.39 37.09 42.82 34.37 42.82 34.37 38.95"/><polygon class="cls-1" points="39.24 38.95 41.94 38.95 41.94 39.38 39.76 39.38 39.76 40.62 41.79 40.62 41.79 41.05 39.76 41.05 39.76 42.39 41.96 42.39 41.96 42.82 39.24 42.82 39.24 38.95"/><path class="cls-1" d="M45.71,41.42a1.36,1.36,0,0,1-1.54,1.49c-1,0-1.61-.46-1.61-1.49V39h.53v2.47a1,1,0,0,0,1.08,1.06.93.93,0,0,0,1-1.06V39h.52Z"/><path class="cls-1" d="M46.54,39h1.84c.74,0,1.19.4,1.19,1a.92.92,0,0,1-.68,1v0c.46.09.55.41.59.8a2,2,0,0,0,.23,1.07h-.58c-.15-.16-.07-.58-.14-1s-.15-.7-.66-.7H47.06v1.66h-.52Zm1.61,1.79c.49,0,.9-.13.9-.69a.62.62,0,0,0-.69-.67h-1.3v1.36Z"/><path class="cls-1" d="M52,38.86a2,2,0,1,1-1.87,2,1.86,1.86,0,0,1,1.87-2m0,3.62a1.62,1.62,0,1,0-1.35-1.59A1.42,1.42,0,0,0,52,42.48"/><path class="cls-1" d="M54.46,39h1.71a1.15,1.15,0,1,1,0,2.29H55v1.58h-.52ZM55,40.81h1c.58,0,.85-.25.85-.71s-.27-.72-.85-.72H55Z"/><polygon class="cls-1" points="58.01 38.95 60.71 38.95 60.71 39.38 58.53 39.38 58.53 40.62 60.56 40.62 60.56 41.05 58.53 41.05 58.53 42.39 60.73 42.39 60.73 42.82 58.01 42.82 58.01 38.95"/><path class="cls-1" d="M62.42,39H63l1.52,3.87H64l-.43-1.16H61.87l-.44,1.16h-.54ZM62,41.22h1.33l-.65-1.8h0Z"/><polygon class="cls-1" points="0 44.77 2.56 44.77 2.56 45.23 0.5 45.23 0.5 46.37 2.31 46.37 2.31 46.82 0.5 46.82 0.5 48.53 0 48.53 0 44.77"/><path class="cls-1" d="M5,46.06a1.38,1.38,0,0,1,.36,1A1.84,1.84,0,0,1,5,48.2a1.14,1.14,0,0,1-1,.43,1.09,1.09,0,0,1-.88-.39,1.5,1.5,0,0,1-.32-1,1.69,1.69,0,0,1,.34-1.11,1.13,1.13,0,0,1,.91-.4,1.18,1.18,0,0,1,.88.35m-.28,1.82a1.77,1.77,0,0,0,.17-.77,1.27,1.27,0,0,0-.13-.62.64.64,0,0,0-.64-.38.64.64,0,0,0-.6.32,1.5,1.5,0,0,0-.19.78,1.3,1.3,0,0,0,.19.73.65.65,0,0,0,.59.29.61.61,0,0,0,.61-.35"/><path class="cls-1" d="M5.9,45.79h.43v.38a1.16,1.16,0,0,1,.41-.34,1.06,1.06,0,0,1,.48-.11.78.78,0,0,1,.77.41,1.53,1.53,0,0,1,.11.64v1.76H7.64V46.8a1,1,0,0,0-.07-.41.44.44,0,0,0-.44-.25,1,1,0,0,0-.27,0,.71.71,0,0,0-.32.23.59.59,0,0,0-.15.28,2.07,2.07,0,0,0,0,.41v1.44H5.9Z"/><path class="cls-1" d="M10.25,45.87a1.13,1.13,0,0,1,.27.27V44.75H11v3.78h-.41v-.38a.91.91,0,0,1-.37.36,1,1,0,0,1-.5.12,1,1,0,0,1-.78-.39,1.59,1.59,0,0,1-.32-1,1.76,1.76,0,0,1,.3-1,1,1,0,0,1,.85-.44,1,1,0,0,1,.52.13m-1,2.06a.62.62,0,0,0,.58.29.63.63,0,0,0,.52-.27,1.35,1.35,0,0,0,.2-.79,1.16,1.16,0,0,0-.21-.77.67.67,0,0,0-1.06,0,1.23,1.23,0,0,0-.21.78,1.42,1.42,0,0,0,.18.74"/><path class="cls-1" d="M13.59,46.06a1.42,1.42,0,0,1,.35,1,1.83,1.83,0,0,1-.31,1.1,1.14,1.14,0,0,1-1,.43,1.06,1.06,0,0,1-.87-.39,1.51,1.51,0,0,1-.33-1,1.75,1.75,0,0,1,.34-1.11,1.15,1.15,0,0,1,.92-.4,1.18,1.18,0,0,1,.88.35m-.28,1.82a1.77,1.77,0,0,0,.16-.77,1.4,1.4,0,0,0-.12-.62.65.65,0,0,0-.65-.38.66.66,0,0,0-.6.32,1.61,1.61,0,0,0-.18.78,1.39,1.39,0,0,0,.18.73.67.67,0,0,0,.6.29.62.62,0,0,0,.61-.35"/><path class="cls-1" d="M17.59,45.86a1,1,0,0,1,.41.35,1.31,1.31,0,0,1,.18.49,3,3,0,0,1,0,.61h-2a1.24,1.24,0,0,0,.2.67.62.62,0,0,0,.55.25.73.73,0,0,0,.57-.24.88.88,0,0,0,.16-.32h.45a1.56,1.56,0,0,1-.12.34,1.46,1.46,0,0,1-.22.3,1.07,1.07,0,0,1-.51.28,2,2,0,0,1-.37,0,1.1,1.1,0,0,1-.84-.38,1.41,1.41,0,0,1-.35-1,1.55,1.55,0,0,1,.35-1.07,1.12,1.12,0,0,1,.91-.41,1.17,1.17,0,0,1,.55.13m.17,1.08a1.19,1.19,0,0,0-.13-.48.65.65,0,0,0-.62-.33.67.67,0,0,0-.51.22.92.92,0,0,0-.23.59Z"/><path class="cls-1" d="M19.25,45.79v1.82a.83.83,0,0,0,.06.34.46.46,0,0,0,.44.25.62.62,0,0,0,.63-.44,1.75,1.75,0,0,0,.09-.63V45.79h.45v2.74H20.5v-.41a1,1,0,0,1-.21.27,1,1,0,0,1-.62.21.78.78,0,0,1-.77-.39,1.27,1.27,0,0,1-.11-.56V45.79Z"/><path class="cls-1" d="M21.68,45.79h.43v.47a1,1,0,0,1,.25-.34.69.69,0,0,1,.48-.2H23v.48h-.15a.68.68,0,0,0-.53.22.82.82,0,0,0-.18.52v1.58h-.45Z"/><path class="cls-1" d="M25.33,46.06a1.38,1.38,0,0,1,.36,1,1.84,1.84,0,0,1-.32,1.1,1.14,1.14,0,0,1-1,.43,1.09,1.09,0,0,1-.88-.39,1.51,1.51,0,0,1-.33-1,1.7,1.7,0,0,1,.35-1.11,1.13,1.13,0,0,1,.92-.4,1.18,1.18,0,0,1,.87.35m-.28,1.82a1.77,1.77,0,0,0,.16-.77,1.4,1.4,0,0,0-.12-.62.65.65,0,0,0-.65-.38.63.63,0,0,0-.59.32,1.5,1.5,0,0,0-.19.78,1.3,1.3,0,0,0,.19.73.65.65,0,0,0,.59.29.61.61,0,0,0,.61-.35"/><path class="cls-1" d="M26.21,45.8h.44v.36a1.17,1.17,0,0,1,.3-.29,1,1,0,0,1,.54-.15,1,1,0,0,1,.77.36,1.42,1.42,0,0,1,.33,1,1.59,1.59,0,0,1-.47,1.28,1,1,0,0,1-.68.24,1,1,0,0,1-.51-.13,1.36,1.36,0,0,1-.27-.27v1.4h-.45ZM27.91,48a1.31,1.31,0,0,0,.21-.81,1.53,1.53,0,0,0-.09-.56.65.65,0,0,0-.65-.46.64.64,0,0,0-.64.48,1.74,1.74,0,0,0-.1.65,1.24,1.24,0,0,0,.1.54.63.63,0,0,0,.64.43.65.65,0,0,0,.53-.27"/><path class="cls-1" d="M30.77,45.86a1,1,0,0,1,.41.35,1.31,1.31,0,0,1,.18.49,3,3,0,0,1,0,.61h-2a1.23,1.23,0,0,0,.19.67.64.64,0,0,0,.56.25.71.71,0,0,0,.56-.24.9.9,0,0,0,.17-.32h.44a1.11,1.11,0,0,1-.11.34,1.46,1.46,0,0,1-.22.3,1.07,1.07,0,0,1-.51.28,2,2,0,0,1-.37,0,1.12,1.12,0,0,1-.85-.38,1.45,1.45,0,0,1-.34-1,1.6,1.6,0,0,1,.34-1.07,1.14,1.14,0,0,1,.92-.41,1.17,1.17,0,0,1,.55.13m.17,1.08a1.19,1.19,0,0,0-.13-.48.65.65,0,0,0-.62-.33.69.69,0,0,0-.52.22.91.91,0,0,0-.22.59Z"/><path class="cls-1" d="M33.93,46.06a1.42,1.42,0,0,1,.35,1A1.83,1.83,0,0,1,34,48.2a1.16,1.16,0,0,1-1,.43,1.06,1.06,0,0,1-.87-.39,1.51,1.51,0,0,1-.33-1,1.75,1.75,0,0,1,.34-1.11,1.15,1.15,0,0,1,.92-.4,1.18,1.18,0,0,1,.88.35m-.28,1.82a1.77,1.77,0,0,0,.16-.77,1.4,1.4,0,0,0-.12-.62.73.73,0,0,0-1.25-.06,1.61,1.61,0,0,0-.18.78,1.39,1.39,0,0,0,.18.73.66.66,0,0,0,.59.29.63.63,0,0,0,.62-.35"/><path class="cls-1" d="M37.75,45.87a1.13,1.13,0,0,1,.27.27V44.75h.44v3.78h-.41v-.38a.91.91,0,0,1-.37.36,1,1,0,0,1-1.27-.27,1.53,1.53,0,0,1-.33-1,1.76,1.76,0,0,1,.3-1,1,1,0,0,1,.86-.44,1,1,0,0,1,.51.13m-1,2.06a.63.63,0,0,0,.59.29.6.6,0,0,0,.51-.27,1.35,1.35,0,0,0,.2-.79,1.16,1.16,0,0,0-.21-.77.65.65,0,0,0-.51-.25.66.66,0,0,0-.55.27,1.23,1.23,0,0,0-.21.78,1.42,1.42,0,0,0,.18.74"/><path class="cls-1" d="M39.14,44.77h.46v.52h-.46Zm0,1h.46v2.73h-.46Z"/><path class="cls-1" d="M42,47.67a.58.58,0,0,0,.12.35.71.71,0,0,0,.6.22.9.9,0,0,0,.46-.11.38.38,0,0,0,.19-.34.29.29,0,0,0-.16-.27,1.53,1.53,0,0,0-.39-.13l-.37-.09a1.85,1.85,0,0,1-.51-.2.57.57,0,0,1-.3-.52A.79.79,0,0,1,41.9,46a1.18,1.18,0,0,1,.75-.24,1,1,0,0,1,.89.37.84.84,0,0,1,.17.5h-.43a.52.52,0,0,0-.11-.29.71.71,0,0,0-.55-.18.64.64,0,0,0-.4.1.32.32,0,0,0,0,.55,1.12,1.12,0,0,0,.3.11l.31.07a2.78,2.78,0,0,1,.66.24.62.62,0,0,1,.27.56.84.84,0,0,1-.28.63,1.14,1.14,0,0,1-.84.26,1.1,1.1,0,0,1-.86-.28,1,1,0,0,1-.27-.68Z"/><polygon class="cls-1" points="44.51 45.79 45.23 48.02 45.98 45.79 46.48 45.79 45.46 48.53 44.98 48.53 43.99 45.79 44.51 45.79"/><path class="cls-1" d="M46.87,44.77h.46v.52h-.46Zm0,1h.46v2.73h-.46Z"/><rect class="cls-1" x="48.02" y="44.77" width="0.45" height="3.76"/><path class="cls-1" d="M49.61,45.79v1.82a.83.83,0,0,0,.06.34.45.45,0,0,0,.44.25.61.61,0,0,0,.62-.44,1.53,1.53,0,0,0,.1-.63V45.79h.45v2.74h-.43v-.41a.84.84,0,0,1-.22.27.92.92,0,0,1-.61.21.78.78,0,0,1-.77-.39,1.13,1.13,0,0,1-.12-.56V45.79Z"/><path class="cls-1" d="M52,45.8h.44v.36a1.36,1.36,0,0,1,.3-.29,1,1,0,0,1,.54-.15,1,1,0,0,1,.78.36,1.47,1.47,0,0,1,.32,1,1.59,1.59,0,0,1-.46,1.28,1,1,0,0,1-.68.24,1,1,0,0,1-.52-.13,1.69,1.69,0,0,1-.27-.27v1.4H52ZM53.69,48a1.31,1.31,0,0,0,.21-.81,1.52,1.52,0,0,0-.1-.56.64.64,0,0,0-.64-.46.65.65,0,0,0-.65.48,2,2,0,0,0-.09.65,1.42,1.42,0,0,0,.09.54.64.64,0,0,0,.65.43.65.65,0,0,0,.53-.27"/><path class="cls-1" d="M54.85,45.8h.44v.36a1.17,1.17,0,0,1,.3-.29,1,1,0,0,1,.54-.15,1,1,0,0,1,.78.36,1.47,1.47,0,0,1,.32,1,1.59,1.59,0,0,1-.47,1.28,1,1,0,0,1-.68.24,1,1,0,0,1-.51-.13,1.36,1.36,0,0,1-.27-.27v1.4h-.45ZM56.55,48a1.31,1.31,0,0,0,.21-.81,1.53,1.53,0,0,0-.09-.56.68.68,0,0,0-1.3,0,2,2,0,0,0-.09.65,1.42,1.42,0,0,0,.09.54.68.68,0,0,0,1.18.16"/><path class="cls-1" d="M59.7,46.06a1.38,1.38,0,0,1,.36,1,1.9,1.9,0,0,1-.31,1.1,1.17,1.17,0,0,1-1,.43,1.09,1.09,0,0,1-.88-.39,1.56,1.56,0,0,1-.32-1,1.69,1.69,0,0,1,.34-1.11,1.13,1.13,0,0,1,.92-.4,1.18,1.18,0,0,1,.87.35m-.28,1.82a1.77,1.77,0,0,0,.17-.77,1.4,1.4,0,0,0-.12-.62.67.67,0,0,0-.65-.38.64.64,0,0,0-.6.32,1.61,1.61,0,0,0-.19.78,1.39,1.39,0,0,0,.19.73.65.65,0,0,0,.59.29.61.61,0,0,0,.61-.35"/><path class="cls-1" d="M62.06,45.79h.43v.47a1,1,0,0,1,.26-.34.67.67,0,0,1,.47-.2h.15v.48h-.15a.68.68,0,0,0-.53.22.82.82,0,0,0-.18.52v1.58h-.45Z"/><path class="cls-1" d="M65.43,45.86a1.06,1.06,0,0,1,.4.35,1.31,1.31,0,0,1,.18.49,3,3,0,0,1,0,.61h-2a1.24,1.24,0,0,0,.2.67.62.62,0,0,0,.55.25A.7.7,0,0,0,65.4,48a.76.76,0,0,0,.17-.32H66a.93.93,0,0,1-.12.34,1.46,1.46,0,0,1-.22.3,1.07,1.07,0,0,1-.51.28,2,2,0,0,1-.37,0,1.1,1.1,0,0,1-.84-.38,1.41,1.41,0,0,1-.35-1A1.55,1.55,0,0,1,64,46.14a1.12,1.12,0,0,1,.91-.41,1.24,1.24,0,0,1,.56.13m.16,1.08a1.19,1.19,0,0,0-.13-.48.64.64,0,0,0-.61-.33.67.67,0,0,0-.52.22.86.86,0,0,0-.22.59Z"/><path class="cls-1" d="M67.59,49.69a1.3,1.3,0,0,1-.73-.2.78.78,0,0,1-.33-.62H67a.49.49,0,0,0,.13.28.63.63,0,0,0,.48.16.65.65,0,0,0,.68-.38,2.26,2.26,0,0,0,.09-.78.89.89,0,0,1-.33.31,1,1,0,0,1-.5.1,1,1,0,0,1-.76-.31,1.41,1.41,0,0,1-.33-1,1.62,1.62,0,0,1,.33-1.08,1.05,1.05,0,0,1,1.35-.23,1.7,1.7,0,0,1,.26.27v-.35h.41V48.3a1.86,1.86,0,0,1-.15.83,1.07,1.07,0,0,1-1.06.56m.59-3.3a.62.62,0,0,0-.52-.24.64.64,0,0,0-.65.45,1.89,1.89,0,0,0-.09.64,1.13,1.13,0,0,0,.18.71.59.59,0,0,0,.49.24.7.7,0,0,0,.69-.45,1.55,1.55,0,0,0,.11-.59,1.15,1.15,0,0,0-.21-.76"/><path class="cls-1" d="M69.49,44.77H70v.52h-.47Zm0,1H70v2.73h-.47Z"/><path class="cls-1" d="M72.59,46.06a1.38,1.38,0,0,1,.36,1,1.84,1.84,0,0,1-.32,1.1,1.14,1.14,0,0,1-1,.43,1.08,1.08,0,0,1-.87-.39,1.51,1.51,0,0,1-.33-1,1.7,1.7,0,0,1,.35-1.11,1.13,1.13,0,0,1,.91-.4,1.18,1.18,0,0,1,.88.35m-.28,1.82a1.77,1.77,0,0,0,.17-.77,1.27,1.27,0,0,0-.13-.62.65.65,0,0,0-.65-.38.63.63,0,0,0-.59.32,1.5,1.5,0,0,0-.19.78,1.3,1.3,0,0,0,.19.73.65.65,0,0,0,.59.29.61.61,0,0,0,.61-.35"/><path class="cls-1" d="M73.5,45.79h.43v.38a1.26,1.26,0,0,1,.41-.34,1.06,1.06,0,0,1,.48-.11.78.78,0,0,1,.77.41,1.53,1.53,0,0,1,.11.64v1.76h-.46V46.8a1,1,0,0,0-.07-.41.44.44,0,0,0-.44-.25,1,1,0,0,0-.27,0,.71.71,0,0,0-.32.23.59.59,0,0,0-.15.28,2.07,2.07,0,0,0,0,.41v1.44H73.5Z"/><path class="cls-1" d="M77.81,46.87a.24.24,0,0,0,.21-.14.34.34,0,0,0,0-.17.39.39,0,0,0-.16-.35.89.89,0,0,0-.47-.1.6.6,0,0,0-.51.19.68.68,0,0,0-.1.33h-.42a.77.77,0,0,1,.32-.71,1.22,1.22,0,0,1,.72-.2,1.49,1.49,0,0,1,.77.18.66.66,0,0,1,.29.58v1.58a.18.18,0,0,0,0,.11.14.14,0,0,0,.12,0h.15v.34l-.16,0h-.15a.37.37,0,0,1-.34-.17.92.92,0,0,1-.08-.25,1.22,1.22,0,0,1-.4.32,1.2,1.2,0,0,1-.57.13.87.87,0,0,1-.61-.23.77.77,0,0,1-.24-.58.75.75,0,0,1,.24-.59,1.07,1.07,0,0,1,.61-.26Zm-1,1.24a.52.52,0,0,0,.34.12,1.07,1.07,0,0,0,.46-.11.65.65,0,0,0,.38-.61v-.38a.67.67,0,0,1-.21.09,1.32,1.32,0,0,1-.26.05l-.27,0a.9.9,0,0,0-.37.11.4.4,0,0,0-.21.38.35.35,0,0,0,.14.31"/><rect class="cls-1" x="79.25" y="44.77" width="0.45" height="3.76"/><path class="cls-1" d="M82,45.86a1,1,0,0,1,.41.35,1.31,1.31,0,0,1,.18.49,3,3,0,0,1,0,.61h-2a1.23,1.23,0,0,0,.19.67.64.64,0,0,0,.56.25A.71.71,0,0,0,82,48a.76.76,0,0,0,.17-.32h.44a1.11,1.11,0,0,1-.11.34,2,2,0,0,1-.22.3,1.07,1.07,0,0,1-.51.28,2,2,0,0,1-.37,0,1.12,1.12,0,0,1-.85-.38,1.45,1.45,0,0,1-.34-1,1.55,1.55,0,0,1,.35-1.07,1.11,1.11,0,0,1,.91-.41,1.2,1.2,0,0,1,.55.13m.16,1.08a1.06,1.06,0,0,0-.12-.48.66.66,0,0,0-.62-.33.69.69,0,0,0-.52.22.91.91,0,0,0-.22.59Z"/><polygon class="cls-1" points="39.74 9.9 40.74 9.17 41.75 9.9 41.37 8.72 42.38 7.99 41.13 7.99 40.74 6.79 40.36 7.99 39.11 7.99 40.12 8.72 39.74 9.9"/><polygon class="cls-1" points="34.55 11.29 35.56 10.56 36.56 11.29 36.18 10.11 37.2 9.38 35.94 9.38 35.56 8.18 35.17 9.38 33.92 9.38 34.94 10.11 34.55 11.29"/><polygon class="cls-1" points="31.76 11.98 31.38 13.18 30.12 13.18 31.14 13.91 30.76 15.1 31.76 14.37 32.77 15.1 32.38 13.91 33.4 13.18 32.15 13.18 31.76 11.98"/><polygon class="cls-1" points="30.37 19.55 31.37 20.28 30.99 19.09 32.01 18.36 30.75 18.36 30.37 17.16 29.99 18.37 28.73 18.36 29.75 19.09 29.37 20.28 30.37 19.55"/><polygon class="cls-1" points="32.15 23.56 31.76 22.36 31.38 23.56 30.12 23.56 31.14 24.29 30.76 25.47 31.76 24.74 32.76 25.47 32.38 24.29 33.4 23.56 32.15 23.56"/><polygon class="cls-1" points="35.95 27.36 35.56 26.16 35.18 27.36 33.93 27.36 34.94 28.09 34.56 29.28 35.56 28.54 36.57 29.28 36.19 28.09 37.2 27.36 35.95 27.36"/><polygon class="cls-1" points="41.13 28.74 40.74 27.54 40.36 28.74 39.11 28.74 40.12 29.47 39.74 30.65 40.75 29.92 41.75 30.65 41.37 29.47 42.38 28.74 41.13 28.74"/><polygon class="cls-1" points="46.31 27.36 45.93 26.16 45.54 27.36 44.29 27.36 45.3 28.09 44.92 29.28 45.93 28.54 46.93 29.28 46.55 28.09 47.56 27.36 46.31 27.36"/><polygon class="cls-1" points="50.11 23.56 49.73 22.36 49.34 23.56 48.09 23.56 49.11 24.29 48.73 25.47 49.73 24.74 50.73 25.47 50.35 24.29 51.37 23.56 50.11 23.56"/><polygon class="cls-1" points="52.74 18.35 51.49 18.35 51.11 17.15 50.72 18.35 49.47 18.35 50.48 19.08 50.1 20.26 51.11 19.53 52.11 20.26 51.73 19.08 52.74 18.35"/><polygon class="cls-1" points="48.73 15.08 49.73 14.35 50.73 15.08 50.35 13.9 51.37 13.17 50.11 13.17 49.73 11.97 49.34 13.17 48.09 13.17 49.11 13.9 48.73 15.08"/><polygon class="cls-1" points="45.94 8.18 45.56 9.38 44.3 9.38 45.32 10.11 44.94 11.29 45.94 10.56 46.94 11.29 46.56 10.11 47.58 9.38 46.32 9.38 45.94 8.18"/><path class="cls-1" d="M261.11,43.36l1.55-1.58,1.8-1.77c.6-.57,1.13-1.06,1.58-1.47s.86-.77,1.26-1.09.79-.62,1.18-.9.81-.58,1.29-.89l.16.09-.62.71-.72.84c-.23.27-.45.53-.65.75a5.4,5.4,0,0,0-.4.48l-.21.29a.92.92,0,0,0-.13.14l-.21.24-.72.86-.76.93-.9,1.12c-.32.4-.7.87-1.11,1.4L262,45.44c-.41.52-.75.94-1,1.29a10.06,10.06,0,0,0-.62.88c-.15.25-.3.51-.44.78a.89.89,0,0,0-.15.38q0,.15.12.15a1.26,1.26,0,0,0,.53-.29,9.11,9.11,0,0,0,.91-.8l1.17-1.2c.43-.46.88-1,1.34-1.48l.48-.55.51-.55.58-.63.73-.78,1.42-1.5,1-1,.9-.85q.44-.4,1.05-.93l.67-.6a19.67,19.67,0,0,1,1.54-1.26c.48-.34.86-.6,1.17-.78l.14.1-.46.55q-4.8,5.65-7.09,8.81a17,17,0,0,0-2.28,3.57c0,.13.08.2.24.2a1.23,1.23,0,0,0,.54-.15,4.48,4.48,0,0,0,.56-.32c.17-.12.33-.24.46-.35l.28-.22.36-.33.64-.59c.24-.21.49-.43.73-.66s.46-.41.64-.55v.19l-.43.38c-.94.88-1.71,1.55-2.3,2a2.67,2.67,0,0,1-1.58.7c-.29,0-.43-.15-.43-.45a4.15,4.15,0,0,1,.43-1.73,12.15,12.15,0,0,1,1.16-1.95c.49-.67,1.05-1.38,1.69-2.11s1.3-1.47,2-2.2l4.21-4.4a7.76,7.76,0,0,0-1,.69l-1.22,1c-.42.36-.82.71-1.2,1.06l-.91.84-.42.41c-.18.17-.44.42-.76.75l-1.18,1.24L265,44.08l-.34.35-.2.22a.86.86,0,0,0-.13.17l-1.49,1.6c-.47.51-.92,1-1.32,1.35a13.66,13.66,0,0,1-1.07.93,1.37,1.37,0,0,1-.69.35c-.16,0-.24-.13-.24-.38a3.62,3.62,0,0,1,.31-1.43,9.75,9.75,0,0,1,.76-1.42c.31-.46.63-.91,1-1.34s.68-.81,1-1.15c.86-1,1.73-1.95,2.62-2.89s1.79-1.87,2.71-2.77l1.6-1.61-.81.54q-.39.26-.75.54c-.25.19-.51.4-.77.63l-.9.78c-.89.8-1.81,1.67-2.77,2.61s-2,2-3.16,3.23l-.26.26c-.18.21-.37.41-.56.61l-.85.85-1,1a9.89,9.89,0,0,1-1.17.95,7.64,7.64,0,0,1-1.36.71,3.82,3.82,0,0,1-1.5.29,1.85,1.85,0,0,1-1.11-.3,1,1,0,0,1-.4-.82.77.77,0,0,1,.19-.55.58.58,0,0,1,.45-.22.38.38,0,0,1,.43.43q0,.36-.33.36c-.16,0-.25-.05-.27-.16a1.54,1.54,0,0,1,0-.3c0-.05,0-.08,0-.09s-.15.06-.22.19a1,1,0,0,0-.09.41.77.77,0,0,0,.38.66,1.7,1.7,0,0,0,1,.26,4.58,4.58,0,0,0,1.66-.31,6.74,6.74,0,0,0,1.59-1,18.16,18.16,0,0,0,1.76-1.59q.94-1,2.16-2.28Z"/><path class="cls-1" d="M268.52,45.85c.41-.34.78-.62,1.1-.86l1-.7h1.05l-2.25,2.53-.06.08-.08.09c-.53.57-.79.92-.79,1s.07.22.21.22a3.26,3.26,0,0,0,1.49-.68,18.29,18.29,0,0,0,2.22-1.83v.19c-.17.16-.42.38-.74.65s-.66.54-1,.81a10.32,10.32,0,0,1-1.06.71,1.9,1.9,0,0,1-.89.3c-.25,0-.38-.15-.38-.46a2.54,2.54,0,0,1,.42-1.29,11,11,0,0,1,1.42-1.74l.39-.39a8.39,8.39,0,0,0-1,.66c-.37.28-.71.56-1,.85Zm4.07-4c.17,0,.26.1.26.31a.45.45,0,0,1-.1.31.38.38,0,0,1-.28.12c-.21,0-.31-.09-.31-.29a.47.47,0,0,1,.12-.32.39.39,0,0,1,.31-.13"/><path class="cls-1" d="M272.26,45.84c.17-.16.37-.33.59-.51s.43-.35.65-.51a6.22,6.22,0,0,1,.65-.41,1.19,1.19,0,0,1,.53-.17c.27,0,.4.17.4.51a1.6,1.6,0,0,1-.3.86c-.2.3-.51.72-.94,1.26l.62-.48.88-.64.85-.57c.26-.18.51-.33.73-.47s.41-.23.55-.3a2.12,2.12,0,0,1,.69-.17c.29,0,.43.19.43.55a1.84,1.84,0,0,1-.38,1.08A5.73,5.73,0,0,1,277,47a4.72,4.72,0,0,0-.71.59.61.61,0,0,0-.2.39.26.26,0,0,0,.1.21.43.43,0,0,0,.23.08,1,1,0,0,0,.24,0,2.61,2.61,0,0,0,.62-.28,11.22,11.22,0,0,0,1.12-.76c.45-.34,1-.83,1.71-1.45v.19c-.1.08-.3.25-.6.53s-.64.55-1,.83a11.42,11.42,0,0,1-1.13.78,2.05,2.05,0,0,1-1,.35.51.51,0,0,1-.37-.16.49.49,0,0,1-.16-.37,1.78,1.78,0,0,1,.35-1,5.28,5.28,0,0,1,1-1.1c.74-.62,1.11-1,1.11-1.24a.19.19,0,0,0-.07-.13.24.24,0,0,0-.15-.06,2.18,2.18,0,0,0-.8.31,14.6,14.6,0,0,0-1.36.85c-.52.36-1.08.78-1.69,1.27s-1.19,1-1.77,1.55h-.93l1.55-1.74c.51-.55.93-1,1.25-1.38s.48-.61.48-.71-.07-.14-.2-.14a1,1,0,0,0-.47.18,5.74,5.74,0,0,0-.65.44l-.67.54c-.22.19-.41.35-.55.5Z"/><path class="cls-1" d="M280,45.85c.41-.34.78-.62,1.1-.86l1-.7h1l-2.25,2.53-.06.08-.08.09c-.53.57-.79.92-.79,1s.07.22.21.22a3.26,3.26,0,0,0,1.49-.68,18.29,18.29,0,0,0,2.22-1.83v.19c-.17.16-.42.38-.74.65s-.66.54-1,.81a9.34,9.34,0,0,1-1.06.71,1.9,1.9,0,0,1-.89.3c-.25,0-.38-.15-.38-.46a2.54,2.54,0,0,1,.42-1.29,11,11,0,0,1,1.42-1.74l.39-.39a8.39,8.39,0,0,0-1,.66c-.37.28-.71.56-1,.85Zm4.07-4c.17,0,.26.1.26.31a.45.45,0,0,1-.1.31.38.38,0,0,1-.28.12c-.21,0-.31-.09-.31-.29a.47.47,0,0,1,.12-.32.39.39,0,0,1,.31-.13"/><path class="cls-1" d="M284.49,45.18c.17-.16.4-.37.7-.61l1-.85.15-.2.24-.3.25-.27a.35.35,0,0,1,.19-.12c.16,0,.24.06.24.19a.28.28,0,0,1-.09.19l-.21.18a1.37,1.37,0,0,1-.21.15.37.37,0,0,1-.14.05,6.26,6.26,0,0,1,.55,1,3.83,3.83,0,0,1,.2,1c0,.14,0,.26,0,.33a1.57,1.57,0,0,1-.05.32.25.25,0,0,0,.16,0h.13a2,2,0,0,0,1.24-.55v.19a4.2,4.2,0,0,1-.63.4,1.39,1.39,0,0,1-.61.13h-.17a.82.82,0,0,1-.21,0,2.44,2.44,0,0,1-.68.9,4.38,4.38,0,0,1-.95.61,4.56,4.56,0,0,1-1,.35,3.71,3.71,0,0,1-.77.11,1.28,1.28,0,0,1-.74-.18.63.63,0,0,1-.07-1,.68.68,0,0,1,.5-.18q.45,0,.45.39c0,.24-.13.36-.41.36a.44.44,0,0,1-.26-.1.34.34,0,0,1-.14-.22.21.21,0,0,0-.1.17.45.45,0,0,0,.22.39,1,1,0,0,0,.54.14,1.92,1.92,0,0,0,1-.31,4.12,4.12,0,0,0,.93-.8,4.63,4.63,0,0,0,.69-1.1,2.71,2.71,0,0,0,.28-1.17,2.34,2.34,0,0,0-.07-.57,2,2,0,0,0-.27-.53L283.72,46v-.19Z"/><path class="cls-1" d="M294.57,40.44l1-.07-1.94,2.2h1.51l-.14.17h-1.51L290.67,46l-.61.71c-.2.23-.37.43-.52.62l-.37.46A.74.74,0,0,0,289,48a.19.19,0,0,0,.1.15.38.38,0,0,0,.21.07,3.39,3.39,0,0,0,1.62-.65,19.73,19.73,0,0,0,2.35-1.82v.19l-.5.46a12.68,12.68,0,0,1-2.07,1.53,3.11,3.11,0,0,1-1.42.46.63.63,0,0,1-.42-.14.39.39,0,0,1-.15-.32,3.08,3.08,0,0,1,.65-1.55,18.48,18.48,0,0,1,1.9-2.27c.31-.33.52-.58.65-.74a14,14,0,0,0-1.39,1c-.51.43-1.13,1-1.87,1.65v-.19l.42-.36c.36-.34.69-.63,1-.89l.83-.7.77-.6c.25-.18.51-.37.8-.56h-.86l.19-.17h.86Z"/><path class="cls-1" d="M298,45.94a1.52,1.52,0,0,0-.21.22q-2.47,2.27-4.21,2.27c-.65,0-1-.37-1-1.1a2.08,2.08,0,0,1,.51-1.42,4.39,4.39,0,0,1,1.17-1,5.39,5.39,0,0,1,1.31-.55,4.36,4.36,0,0,1,.94-.17.83.83,0,0,1,.52.16.5.5,0,0,1,.19.42c0,.41-.32.76-1,1a6.89,6.89,0,0,1-2.49.47,6.57,6.57,0,0,0-.64.87,1.33,1.33,0,0,0-.24.66c0,.3.22.45.67.45a3.88,3.88,0,0,0,1.87-.59,14.68,14.68,0,0,0,2.55-2Zm-4,.14a4.8,4.8,0,0,0,1.35-.16,3.39,3.39,0,0,0,.93-.38,1.88,1.88,0,0,0,.55-.46.65.65,0,0,0,.18-.37c0-.22-.13-.33-.4-.33a2.27,2.27,0,0,0-1.23.47,7,7,0,0,0-1.38,1.23"/><path class="cls-1" d="M297.94,45.85l1-.85c.34-.28.69-.55,1.06-.83a.78.78,0,0,1,.1-.66.53.53,0,0,1,.45-.28c.26,0,.38.11.38.34a.34.34,0,0,1-.1.23.36.36,0,0,1-.25.1c-.08,0-.21-.08-.39-.26a.67.67,0,0,0-.09.31q0,.36.45.36l.24-.05h.22c.07,0,.15.06.22.18a.77.77,0,0,1,.11.4,1.31,1.31,0,0,1-.4.7c-.26.32-.56.64-.87,1l-.88,1c-.26.31-.39.52-.39.65s.07.19.21.19a2.38,2.38,0,0,0,1.09-.48,24.48,24.48,0,0,0,2-1.48l.37-.31a2.36,2.36,0,0,1,.32-.27v.19l-.6.49c-.32.26-.67.54-1.07.84s-.78.56-1.17.8a2,2,0,0,1-.95.36c-.2,0-.31-.13-.31-.39a3,3,0,0,1,.94-2.1l1-1.11a3.31,3.31,0,0,1,.36-.4l-.18,0h-.19a1,1,0,0,1-.56-.17l-.95.74a14.5,14.5,0,0,0-1.17,1Z"/><path class="cls-1" d="M307.76,45.94a2.68,2.68,0,0,1-.64.4,1.53,1.53,0,0,1-.67.15.69.69,0,0,1-.29-.05c-1.28,1.31-2.37,2-3.28,2a.84.84,0,0,1-.66-.28,1,1,0,0,1-.25-.7,2,2,0,0,1,.46-1.28,5.2,5.2,0,0,1,1.12-1,6.15,6.15,0,0,1,1.33-.67,3.81,3.81,0,0,1,1.14-.24c.52,0,.79.24.79.72a1.68,1.68,0,0,1-.12.63,4,4,0,0,1-.39.7.42.42,0,0,0,.22,0,1.24,1.24,0,0,0,.61-.16,3.35,3.35,0,0,0,.63-.41Zm-1.7-1.58a2.32,2.32,0,0,0-1.22.51,8.87,8.87,0,0,0-1.19,1.1,8.73,8.73,0,0,0-.92,1.15,1.86,1.86,0,0,0-.38.72q0,.45.6.45a2.28,2.28,0,0,0,1.15-.39,6.84,6.84,0,0,0,1.21-.95,7.35,7.35,0,0,0,.95-1.12,1.81,1.81,0,0,0,.38-.92.55.55,0,0,0-.18-.41.48.48,0,0,0-.4-.14"/><path class="cls-1" d="M321.69,38.17l1-.05-7.37,8.39-.82,1a1.18,1.18,0,0,0-.35.61c0,.11.07.17.22.17A1.45,1.45,0,0,0,315,48c.31-.2.62-.42.94-.67l.91-.73.57-.5.41-.31v.19l-.36.29c-.3.27-.61.53-.93.79l-.91.7a6.27,6.27,0,0,1-.8.52,1.56,1.56,0,0,1-.59.19.3.3,0,0,1-.32-.34,2,2,0,0,1,.11-.62,4.31,4.31,0,0,1,.23-.62l0-.05c-1.05,1.08-1.91,1.63-2.58,1.63-.44,0-.67-.37-.67-1.1a2.1,2.1,0,0,1,.52-1.45,4.33,4.33,0,0,1,1.18-1,5.47,5.47,0,0,1,1.33-.54,4.37,4.37,0,0,1,.94-.16c.4,0,.6.16.6.49a2.11,2.11,0,0,1,0,.25,2.89,2.89,0,0,1-.1.35Zm-6.76,6.17a2.78,2.78,0,0,0-1.15.48,7.63,7.63,0,0,0-1.21,1,7.42,7.42,0,0,0-.94,1.15,1.87,1.87,0,0,0-.39.9.45.45,0,0,0,.11.31.38.38,0,0,0,.3.12,2.12,2.12,0,0,0,1-.41,8.91,8.91,0,0,0,1.24-1,7.88,7.88,0,0,0,1-1.14,1.74,1.74,0,0,0,.45-1,.52.52,0,0,0-.14-.36.4.4,0,0,0-.34-.12"/><path class="cls-1" d="M322.54,45.94a1.52,1.52,0,0,0-.21.22q-2.47,2.27-4.21,2.27c-.65,0-1-.37-1-1.1a2.08,2.08,0,0,1,.51-1.42,4.39,4.39,0,0,1,1.17-1,5.39,5.39,0,0,1,1.31-.55,4.36,4.36,0,0,1,.94-.17.83.83,0,0,1,.52.16.5.5,0,0,1,.19.42c0,.41-.32.76-1,1a6.89,6.89,0,0,1-2.49.47,6.57,6.57,0,0,0-.64.87,1.33,1.33,0,0,0-.24.66c0,.3.22.45.67.45A3.88,3.88,0,0,0,320,47.7a14.68,14.68,0,0,0,2.55-2Zm-4,.14a4.8,4.8,0,0,0,1.35-.16,3.39,3.39,0,0,0,.93-.38,1.88,1.88,0,0,0,.55-.46.65.65,0,0,0,.18-.37c0-.22-.13-.33-.4-.33a2.27,2.27,0,0,0-1.23.47,7,7,0,0,0-1.38,1.23"/><path class="cls-1" d="M331.18,38.15l-7.32,8.2-.42.47c-.16.16-.3.33-.44.5l-.33.44a.61.61,0,0,0-.13.29q0,.24.21.24.75,0,3.09-2.19l.23-.19.2-.17v.19l-.36.29-.36.31c-.57.51-1.1,1-1.59,1.33a2.15,2.15,0,0,1-1.18.57.47.47,0,0,1-.34-.16.55.55,0,0,1-.14-.37,1.75,1.75,0,0,1,.2-.74,7,7,0,0,1,.51-.84,7.53,7.53,0,0,1,.68-.86c.25-.29.5-.56.74-.82l.47-.54.65-.75-.75.61-.9.77-.85.74-.63.56v-.19l3.32-2.9c.35-.3.85-.79,1.48-1.45s1.47-1.58,2.52-2.76l.48-.55Z"/><path class="cls-1" d="M334.91,38.15l-7.32,8.2-.42.47c-.15.16-.3.33-.43.5s-.25.32-.34.44a.73.73,0,0,0-.13.29c0,.16.07.24.22.24.49,0,1.52-.73,3.08-2.19l.23-.19.2-.17v.19l-.36.29-.35.31c-.58.51-1.11,1-1.6,1.33a2.15,2.15,0,0,1-1.18.57.44.44,0,0,1-.33-.16.51.51,0,0,1-.15-.37,1.64,1.64,0,0,1,.21-.74,5.79,5.79,0,0,1,.5-.84,8.83,8.83,0,0,1,.68-.86l.74-.82c.13-.14.29-.32.47-.54l.66-.75-.76.61c-.29.25-.59.5-.89.77l-.85.74-.64.56v-.19l3.33-2.9c.35-.3.84-.79,1.47-1.45s1.47-1.58,2.52-2.76l.48-.55Z"/><path class="cls-1" d="M335,45.94a2.89,2.89,0,0,1-.64.4,1.53,1.53,0,0,1-.67.15.69.69,0,0,1-.29-.05c-1.28,1.31-2.37,2-3.29,2a.81.81,0,0,1-.65-.28,1,1,0,0,1-.26-.7,2,2,0,0,1,.47-1.28,4.77,4.77,0,0,1,1.12-1,6.15,6.15,0,0,1,1.33-.67,3.81,3.81,0,0,1,1.14-.24c.52,0,.79.24.79.72a1.68,1.68,0,0,1-.12.63,4,4,0,0,1-.39.7.42.42,0,0,0,.22,0,1.24,1.24,0,0,0,.61-.16,3.35,3.35,0,0,0,.63-.41Zm-1.7-1.58a2.29,2.29,0,0,0-1.22.51,9.6,9.6,0,0,0-1.2,1.1,10.75,10.75,0,0,0-.92,1.15,1.94,1.94,0,0,0-.37.72q0,.45.6.45a2.28,2.28,0,0,0,1.15-.39,7.26,7.26,0,0,0,2.15-2.07,1.75,1.75,0,0,0,.39-.92.55.55,0,0,0-.18-.41.48.48,0,0,0-.4-.14"/><path class="cls-1" d="M351.32,42.67q-.33.6-.6,1c-.17.31-.35.58-.51.83a7.63,7.63,0,0,1-.53.68c-.18.21-.38.42-.59.65a11,11,0,0,1-3.29,2.41,8.65,8.65,0,0,1-3.7.79,4.17,4.17,0,0,1-2-.37,1.15,1.15,0,0,1-.69-1.06c0-.45.19-.68.57-.68s.4.13.4.36-.12.34-.36.34a.39.39,0,0,1-.23-.1.19.19,0,0,0-.12-.07c-.05,0-.07.06-.07.19a1,1,0,0,0,.71.9,4.64,4.64,0,0,0,1.93.32,10.2,10.2,0,0,0,1.55-.13,5.24,5.24,0,0,0,1.91-.74,10.67,10.67,0,0,0,2.21-1.89,19.38,19.38,0,0,0,2.47-3.55,13.49,13.49,0,0,1-1.48.35,7.24,7.24,0,0,1-1.12.09,4.65,4.65,0,0,1-1.38-.19,3.55,3.55,0,0,1-1.09-.52,2.38,2.38,0,0,1-.7-.82,2.11,2.11,0,0,1-.25-1,3.08,3.08,0,0,1,.61-1.77,6.23,6.23,0,0,1,1.69-1.61A9.84,9.84,0,0,1,349.25,36a11.68,11.68,0,0,1,3.26-.44v.15a12.55,12.55,0,0,0-1.41.07,11.25,11.25,0,0,0-1.23.21,12,12,0,0,0-1.16.36,10.93,10.93,0,0,0-1.19.53,6.37,6.37,0,0,0-2.13,1.63,3,3,0,0,0-.74,1.93,2.17,2.17,0,0,0,.86,1.79,3.43,3.43,0,0,0,2.22.7,9.58,9.58,0,0,0,2.82-.48l.17-.25.24-.37a21.45,21.45,0,0,1,3.89-4.6,5.35,5.35,0,0,1,3.1-1.52c.44,0,.67.16.67.5a2.7,2.7,0,0,1-.64,1.48,10.44,10.44,0,0,1-1.64,1.73A16.91,16.91,0,0,1,354.07,41a14.43,14.43,0,0,1-2.51,1.22Zm.3-.65a5.7,5.7,0,0,0,.95-.38q.48-.24,1.29-.72a15.89,15.89,0,0,0,2.45-1.73,11.91,11.91,0,0,0,1.39-1.43,4.31,4.31,0,0,0,.64-1,2.37,2.37,0,0,0,.14-.52c0-.29-.17-.43-.5-.43a2.53,2.53,0,0,0-1,.22,6.59,6.59,0,0,0-1.11.58,9,9,0,0,0-1.15.9,11.83,11.83,0,0,0-1.08,1.15,8.31,8.31,0,0,0-.52.69c-.16.23-.32.48-.48.74s-.33.55-.5.87-.36.68-.55,1.08"/><path class="cls-1" d="M351.66,45.85l.52-.44c.21-.18.44-.36.68-.54a5.58,5.58,0,0,1,.71-.45,1.22,1.22,0,0,1,.58-.19c.27,0,.41.16.41.5,0,.65-.49,1.39-1.48,2.22-.59.46-.88.82-.88,1.09s.11.22.33.22a2.64,2.64,0,0,0,1.14-.35,7.65,7.65,0,0,0,1.33-.85A6.33,6.33,0,0,0,356.11,46a1.89,1.89,0,0,0,.49-1.06c0-.46.13-.69.31-.69s.16.09.16.28a1.58,1.58,0,0,1-.24.76,5.8,5.8,0,0,1-.78,1,.56.56,0,0,0,.38.12,2.07,2.07,0,0,0,1.34-.68V46a3.26,3.26,0,0,1-.71.49,1.28,1.28,0,0,1-.58.15,1,1,0,0,1-.26,0,.82.82,0,0,1-.29-.14,8,8,0,0,1-1.82,1.47,3.42,3.42,0,0,1-1.68.52.53.53,0,0,1-.41-.16.54.54,0,0,1-.16-.42,1.77,1.77,0,0,1,.37-1.06,5.84,5.84,0,0,1,1.23-1.16l.26-.21c.11-.09.22-.18.31-.27a2.21,2.21,0,0,0,.25-.3.55.55,0,0,0,.11-.3c0-.11-.08-.17-.24-.17a1.6,1.6,0,0,0-.88.39c-.35.25-.89.68-1.61,1.29Z"/><path class="cls-1" d="M357.64,45.85c.42-.34.78-.62,1.1-.86l1-.7h1.06l-2.25,2.53a.28.28,0,0,0-.06.08l-.09.09c-.52.57-.79.92-.79,1a.2.2,0,0,0,.22.22,3.24,3.24,0,0,0,1.48-.68,18.3,18.3,0,0,0,2.23-1.83v.19c-.18.16-.42.38-.74.65s-.66.54-1,.81a10.41,10.41,0,0,1-1.07.71,1.87,1.87,0,0,1-.88.3c-.26,0-.39-.15-.39-.46a2.54,2.54,0,0,1,.42-1.29,11.15,11.15,0,0,1,1.43-1.74l.38-.39a10.62,10.62,0,0,0-1,.66c-.37.28-.71.56-1,.85Zm4.07-4c.18,0,.27.1.27.31a.45.45,0,0,1-.11.31.35.35,0,0,1-.28.12c-.2,0-.31-.09-.31-.29a.47.47,0,0,1,.12-.32.4.4,0,0,1,.31-.13"/><path class="cls-1" d="M370.13,38.15l-7.32,8.2-.42.47c-.15.16-.3.33-.43.5s-.25.32-.34.44a.73.73,0,0,0-.13.29c0,.16.07.24.22.24.49,0,1.52-.73,3.08-2.19l.23-.19.2-.17v.19l-.36.29-.35.31c-.58.51-1.11,1-1.6,1.33a2.15,2.15,0,0,1-1.18.57.44.44,0,0,1-.33-.16.51.51,0,0,1-.15-.37,1.64,1.64,0,0,1,.21-.74,5.79,5.79,0,0,1,.5-.84,8.83,8.83,0,0,1,.68-.86l.74-.82c.13-.14.29-.32.47-.54l.66-.75-.76.61c-.29.25-.59.5-.89.77l-.85.74-.64.56v-.19l3.33-2.9c.35-.3.84-.79,1.47-1.45s1.47-1.58,2.52-2.76l.48-.55Z"/><path class="cls-1" d="M368.24,44.29l-2.63,3c-.24.27-.4.47-.49.58a.46.46,0,0,0-.13.28q0,.15.21.15A2.07,2.07,0,0,0,366,48a12.19,12.19,0,0,0,1.27-.85c.48-.36,1-.78,1.54-1.26s1.11-1,1.67-1.55h.93l-3,3.52a.48.48,0,0,0-.17.34c0,.09.07.14.2.14a2.28,2.28,0,0,0,.7-.21,4.15,4.15,0,0,0,.53-.33l.72-.51c.27-.19.54-.41.83-.64l.83-.71.17-.14v.19l-.33.29c-.35.29-.7.56-1,.82s-.65.5-1,.7a6.91,6.91,0,0,1-.83.48,1.64,1.64,0,0,1-.68.18c-.29,0-.43-.14-.43-.41a5.6,5.6,0,0,1,1.48-2.44l.13-.14a.94.94,0,0,1,.09-.12.9.9,0,0,0-.2.18,1.12,1.12,0,0,1-.24.2c-.38.35-.77.69-1.16,1s-.76.62-1.12.88a8.38,8.38,0,0,1-1,.62,1.79,1.79,0,0,1-.77.24.34.34,0,0,1-.3-.15.57.57,0,0,1-.11-.36,2.07,2.07,0,0,1,.35-1,10.5,10.5,0,0,1,1.21-1.49l.3-.33c.07-.08.14-.18.22-.29l0,0a10.73,10.73,0,0,0-1.7,1.29v-.19c.3-.27.62-.53.95-.78a14,14,0,0,1,1.2-.78Z"/><path class="cls-1" d="M376.87,41.54h.57L373,46.81l.83-.6c.39-.28.8-.58,1.23-.87s.85-.55,1.24-.78a2.19,2.19,0,0,1,.91-.33q.48,0,.48.54a1.77,1.77,0,0,1-.35,1,5.76,5.76,0,0,1-1.14,1.11c-.69.52-1,.88-1,1.07a.24.24,0,0,0,.11.2.38.38,0,0,0,.25.09c.46,0,1.54-.72,3.23-2.17l.41-.33V46c-1,.89-1.83,1.52-2.38,1.9a2.66,2.66,0,0,1-1.28.56c-.38,0-.57-.18-.57-.55,0-.54.49-1.26,1.48-2.16.34-.32.58-.56.73-.73a.68.68,0,0,0,.23-.39c0-.15-.08-.22-.24-.22a2.44,2.44,0,0,0-.95.4,16.66,16.66,0,0,0-1.5,1c-.53.39-1.05.79-1.55,1.23A9.78,9.78,0,0,0,372,48.07l-4.69,5.5h-1l9.81-11-.34.29c-.17.16-.39.35-.66.58l-.85.74-.87.79-.76.68-.52.44v-.19c.74-.64,1.46-1.28,2.17-1.91s1.38-1.26,2-1.87Z"/><path class="cls-1" d="M383.86,41.54h.57L380,46.81l.83-.6c.39-.28.8-.58,1.23-.87s.84-.55,1.24-.78a2.14,2.14,0,0,1,.91-.33c.31,0,.47.18.47.54a1.76,1.76,0,0,1-.34,1,6.05,6.05,0,0,1-1.14,1.11c-.69.52-1,.88-1,1.07a.24.24,0,0,0,.11.2.37.37,0,0,0,.25.09c.46,0,1.54-.72,3.23-2.17l.41-.33V46c-1,.89-1.84,1.52-2.39,1.9a2.62,2.62,0,0,1-1.28.56c-.38,0-.57-.18-.57-.55,0-.54.5-1.26,1.49-2.16.34-.32.58-.56.73-.73a.75.75,0,0,0,.23-.39c0-.15-.08-.22-.24-.22a2.46,2.46,0,0,0-1,.4,16.6,16.6,0,0,0-1.49,1c-.54.39-1.05.79-1.56,1.23A10.63,10.63,0,0,0,379,48.07l-4.69,5.5h-1l9.8-11s-.16.13-.33.29l-.66.58-.85.74-.87.79-.77.68-.51.44v-.19l2.16-1.91c.71-.64,1.39-1.26,2-1.87Z"/><path class="cls-1" d="M391.17,45.94a2.89,2.89,0,0,1-.64.4,1.57,1.57,0,0,1-.68.15.67.67,0,0,1-.28-.05c-1.28,1.31-2.38,2-3.29,2a.81.81,0,0,1-.65-.28,1,1,0,0,1-.26-.7,2,2,0,0,1,.47-1.28,4.77,4.77,0,0,1,1.12-1,6.31,6.31,0,0,1,1.32-.67,3.94,3.94,0,0,1,1.14-.24c.53,0,.79.24.79.72a1.68,1.68,0,0,1-.12.63,3.85,3.85,0,0,1-.38.7.42.42,0,0,0,.22,0,1.24,1.24,0,0,0,.61-.16,3.35,3.35,0,0,0,.63-.41Zm-1.7-1.58a2.29,2.29,0,0,0-1.22.51,9.6,9.6,0,0,0-1.2,1.1,10.75,10.75,0,0,0-.92,1.15,1.79,1.79,0,0,0-.37.72q0,.45.6.45a2.31,2.31,0,0,0,1.15-.39,7.26,7.26,0,0,0,2.15-2.07,1.75,1.75,0,0,0,.39-.92.55.55,0,0,0-.18-.41.49.49,0,0,0-.4-.14"/><path class="cls-1" d="M403.14,40.72l-.55.08-.4.05-.36,0-.39,0a4.39,4.39,0,0,1-2.4-.58,1.74,1.74,0,0,1-.88-1.53,2.69,2.69,0,0,1,1.63-2.22,5.3,5.3,0,0,1,1.73-.68,13.6,13.6,0,0,1,2.5-.22l0,.11a10.2,10.2,0,0,0-3.05.42,5.43,5.43,0,0,0-1.73.91,2.41,2.41,0,0,0-.76,1,2.29,2.29,0,0,0-.17.71,1.55,1.55,0,0,0,.85,1.39,4.46,4.46,0,0,0,2.31.52c.24,0,.49,0,.74,0l.89-.12a4.32,4.32,0,0,1,.24-1.43,3.89,3.89,0,0,1,.76-1.21,6.51,6.51,0,0,1,1-.87,9.38,9.38,0,0,1,1.2-.73,8,8,0,0,1,1.24-.49,4.67,4.67,0,0,1,1.18-.17c.68,0,1,.24,1,.74a1.6,1.6,0,0,1-.21.73,4,4,0,0,1-.59.8,6.32,6.32,0,0,1-.88.8,9.67,9.67,0,0,1-1.11.73,11.84,11.84,0,0,1-1.62.71,13.41,13.41,0,0,1-1.93.51v.41l.21,0h.27c.84,0,1.26.29,1.26.83s-.24.67-.74.67-.94-.44-1.19-1.3a7.46,7.46,0,0,0-2.43.85,6.83,6.83,0,0,0-1.88,1.69,5.67,5.67,0,0,0-1.53,3.38c0,1.15.66,1.72,2,1.72a5.68,5.68,0,0,0,2-.36,6.73,6.73,0,0,0,1.76-.94,5,5,0,0,0,1.25-1.32,2.62,2.62,0,0,0,.48-1.47,1,1,0,0,0-.36-.82,1.44,1.44,0,0,0-1-.3,3.78,3.78,0,0,0-1.69.41,5,5,0,0,0-1.54,1.17,4.3,4.3,0,0,0-.71.9,8.88,8.88,0,0,0-.6,1.23h-.19a14.1,14.1,0,0,1,.67-1.35,4.68,4.68,0,0,1,.76-1,5.28,5.28,0,0,1,1.59-1.15,4.09,4.09,0,0,1,1.73-.41,1.57,1.57,0,0,1,1.09.35,1.19,1.19,0,0,1,.39.94,2.74,2.74,0,0,1-.49,1.52,5.55,5.55,0,0,1-1.29,1.37,6.88,6.88,0,0,1-1.79,1,5.61,5.61,0,0,1-2,.37,2.78,2.78,0,0,1-2-.68,2.5,2.5,0,0,1-.71-1.91,3.53,3.53,0,0,1,.51-1.82,5.87,5.87,0,0,1,1.4-1.57,9,9,0,0,1,2.06-1.21,10.28,10.28,0,0,1,2.48-.72Zm.26.5a1.54,1.54,0,0,0,.36.84.92.92,0,0,0,.71.31c.35,0,.52-.16.52-.48a.55.55,0,0,0-.21-.47,1.17,1.17,0,0,0-.5-.2,2,2,0,0,0-.54,0l-.34,0m0-.71a10.22,10.22,0,0,0,2.56-.76,10.91,10.91,0,0,0,1.95-1.13,5.62,5.62,0,0,0,1.23-1.19,1.78,1.78,0,0,0,.43-1,.54.54,0,0,0-.26-.47,1.17,1.17,0,0,0-.67-.18,3.44,3.44,0,0,0-1.39.34,6.67,6.67,0,0,0-1.52.95,7.92,7.92,0,0,0-1.37,1.5,6.83,6.83,0,0,0-1,1.93"/><path class="cls-1" d="M410.07,45.94a15.86,15.86,0,0,1-2.42,1.83,4,4,0,0,1-2,.66c-.63,0-.95-.39-.95-1.15a2,2,0,0,1,.45-1.3,4,4,0,0,1,1.09-.95,5.69,5.69,0,0,1,1.29-.58,3.91,3.91,0,0,1,1.12-.21c.45,0,.67.18.67.53a.81.81,0,0,1-.21.55.68.68,0,0,1-.51.24c-.24,0-.36-.11-.36-.32a.41.41,0,0,1,.41-.41.28.28,0,0,1,.28.17c0,.06.05.1.1.1s.06,0,.09-.1a.51.51,0,0,0,.05-.22c0-.27-.16-.4-.48-.4a2.17,2.17,0,0,0-1.16.42,7.49,7.49,0,0,0-1.21,1,8.23,8.23,0,0,0-.94,1.18,2,2,0,0,0-.38.94c0,.25.21.38.62.38a3,3,0,0,0,1.24-.3,8.37,8.37,0,0,0,1.27-.71c.4-.27.78-.55,1.13-.84l.81-.69Z"/><path class="cls-1" d="M415.05,45.94a2.72,2.72,0,0,1-.65.4,1.5,1.5,0,0,1-.67.15.67.67,0,0,1-.28-.05c-1.28,1.31-2.38,2-3.29,2a.84.84,0,0,1-.66-.28,1,1,0,0,1-.25-.7,2,2,0,0,1,.47-1.28,4.92,4.92,0,0,1,1.11-1,6.38,6.38,0,0,1,1.33-.67,3.94,3.94,0,0,1,1.14-.24c.53,0,.79.24.79.72a1.68,1.68,0,0,1-.12.63,3.85,3.85,0,0,1-.38.7.42.42,0,0,0,.22,0,1.26,1.26,0,0,0,.61-.16,3.35,3.35,0,0,0,.63-.41Zm-1.7-1.58a2.29,2.29,0,0,0-1.22.51,9.6,9.6,0,0,0-1.2,1.1,10.75,10.75,0,0,0-.92,1.15,1.79,1.79,0,0,0-.37.72q0,.45.6.45a2.31,2.31,0,0,0,1.15-.39,7.26,7.26,0,0,0,2.15-2.07,1.72,1.72,0,0,0,.38-.92.58.58,0,0,0-.17-.41.49.49,0,0,0-.4-.14"/><path class="cls-1" d="M414.93,45.84c.18-.16.37-.33.59-.51a8.27,8.27,0,0,1,.66-.51,5.25,5.25,0,0,1,.64-.41,1.19,1.19,0,0,1,.53-.17c.27,0,.4.17.4.51a1.6,1.6,0,0,1-.3.86c-.2.3-.51.72-.94,1.26l.62-.48c.29-.22.58-.43.89-.64l.84-.57.73-.47.55-.3a2.12,2.12,0,0,1,.69-.17c.29,0,.43.19.43.55a1.84,1.84,0,0,1-.38,1.08A5.73,5.73,0,0,1,419.66,47a4.72,4.72,0,0,0-.71.59.66.66,0,0,0-.2.39.28.28,0,0,0,.11.21.37.37,0,0,0,.22.08.82.82,0,0,0,.24,0A2.82,2.82,0,0,0,420,48a12.64,12.64,0,0,0,1.11-.76c.45-.34,1-.83,1.71-1.45v.19c-.1.08-.3.25-.6.53s-.64.55-1,.83a11.42,11.42,0,0,1-1.13.78,2,2,0,0,1-1,.35.52.52,0,0,1-.37-.16.49.49,0,0,1-.16-.37,1.86,1.86,0,0,1,.35-1,5.59,5.59,0,0,1,1-1.1c.74-.62,1.11-1,1.11-1.24a.19.19,0,0,0-.07-.13.24.24,0,0,0-.15-.06,2.18,2.18,0,0,0-.8.31,14.6,14.6,0,0,0-1.36.85c-.52.36-1.08.78-1.69,1.27s-1.19,1-1.77,1.55h-.93l1.55-1.74c.52-.55.93-1,1.25-1.38s.48-.61.48-.71-.07-.14-.19-.14a1,1,0,0,0-.48.18,5.74,5.74,0,0,0-.65.44l-.67.54c-.22.19-.41.35-.55.5Z"/><path class="cls-1" d="M427.75,45.94a2.68,2.68,0,0,1-.64.4,1.53,1.53,0,0,1-.67.15.69.69,0,0,1-.29-.05c-1.28,1.31-2.37,2-3.28,2a.84.84,0,0,1-.66-.28,1,1,0,0,1-.25-.7,2,2,0,0,1,.46-1.28,5.2,5.2,0,0,1,1.12-1,6.15,6.15,0,0,1,1.33-.67,3.81,3.81,0,0,1,1.14-.24c.52,0,.79.24.79.72a1.68,1.68,0,0,1-.12.63,4,4,0,0,1-.39.7.42.42,0,0,0,.22,0,1.24,1.24,0,0,0,.61-.16,3.35,3.35,0,0,0,.63-.41Zm-1.7-1.58a2.29,2.29,0,0,0-1.22.51,8.87,8.87,0,0,0-1.19,1.1,9.78,9.78,0,0,0-.93,1.15,1.94,1.94,0,0,0-.37.72q0,.45.6.45a2.28,2.28,0,0,0,1.15-.39A6.84,6.84,0,0,0,425.3,47a7.35,7.35,0,0,0,.95-1.12,1.81,1.81,0,0,0,.38-.92.55.55,0,0,0-.18-.41.48.48,0,0,0-.4-.14"/><path class="cls-1" d="M429.35,45.6c.34-.37.56-.62.67-.77a.64.64,0,0,0,.17-.33c0-.08-.06-.12-.17-.12a1.44,1.44,0,0,0-.7.31c-.31.21-.75.55-1.31,1l-.38.34v-.19a12.64,12.64,0,0,1,1.48-1.18,2.15,2.15,0,0,1,1-.44c.27,0,.4.15.4.47a1.7,1.7,0,0,1-.3.92c-.2.31-.46.67-.77,1.06,1-.81,1.77-1.42,2.34-1.83a2.84,2.84,0,0,1,1.56-.61c.28,0,.43.13.43.39a1.4,1.4,0,0,1-.06.41,2.15,2.15,0,0,1-.2.45l-.37.56c-.15.22-.34.47-.56.78l.33-.27c.67-.51,1.31-1,1.9-1.36a9.09,9.09,0,0,1,1.36-.79,1.84,1.84,0,0,1,.64-.17.38.38,0,0,1,.31.16.62.62,0,0,1,.12.39,1.83,1.83,0,0,1-.37,1.08A5.36,5.36,0,0,1,435.62,47a6.1,6.1,0,0,0-.74.61.64.64,0,0,0-.22.42c0,.16.09.24.29.24a1.57,1.57,0,0,0,.65-.2,8.07,8.07,0,0,0,.89-.55c.33-.23.68-.51,1.05-.82l1.16-1v.19l-.31.29c-.32.27-.64.54-1,.8s-.64.5-.94.7a7.62,7.62,0,0,1-.85.51,1.76,1.76,0,0,1-.68.19c-.31,0-.46-.15-.46-.43A3.44,3.44,0,0,1,436,45.7c.64-.55,1-.92,1-1.13a.17.17,0,0,0-.19-.19,1.88,1.88,0,0,0-.7.25,11.33,11.33,0,0,0-1.26.76c-.5.33-1.07.75-1.7,1.24s-1.29,1.07-2,1.73h-1l1.72-1.87.53-.56.53-.61c.16-.19.29-.36.4-.5s.17-.24.17-.29-.06-.17-.19-.17a2.42,2.42,0,0,0-1,.38l-.66.41c-.21.14-.47.33-.77.56s-.67.54-1.09.91-.95.85-1.57,1.43l-.33.31h-1Z"/><path class="cls-1" d="M438.58,45.85c.42-.34.79-.62,1.11-.86l.95-.7h1.06l-2.25,2.53a.28.28,0,0,0-.06.08l-.08.09c-.53.57-.79.92-.79,1s.07.22.21.22a3.3,3.3,0,0,0,1.49-.68,18.29,18.29,0,0,0,2.22-1.83v.19c-.17.16-.42.38-.74.65s-.66.54-1,.81a10.32,10.32,0,0,1-1.06.71,1.9,1.9,0,0,1-.89.3c-.25,0-.38-.15-.38-.46a2.54,2.54,0,0,1,.42-1.29,11,11,0,0,1,1.42-1.74l.38-.39a10.62,10.62,0,0,0-1,.66c-.36.28-.71.56-1,.85Zm4.08-4c.17,0,.26.1.26.31a.45.45,0,0,1-.11.31.34.34,0,0,1-.27.12c-.21,0-.31-.09-.31-.29a.47.47,0,0,1,.12-.32.39.39,0,0,1,.31-.13"/><path class="cls-1" d="M447.18,45.94a15.86,15.86,0,0,1-2.42,1.83,4,4,0,0,1-2,.66c-.63,0-.95-.39-.95-1.15a2,2,0,0,1,.45-1.3,4,4,0,0,1,1.09-.95,5.69,5.69,0,0,1,1.29-.58,3.91,3.91,0,0,1,1.12-.21c.45,0,.67.18.67.53a.81.81,0,0,1-.21.55.68.68,0,0,1-.51.24c-.24,0-.36-.11-.36-.32a.41.41,0,0,1,.41-.41A.28.28,0,0,1,446,45c0,.06,0,.1.1.1s.06,0,.09-.1a.51.51,0,0,0,0-.22c0-.27-.16-.4-.48-.4a2.17,2.17,0,0,0-1.16.42,7.49,7.49,0,0,0-1.21,1,8.23,8.23,0,0,0-.94,1.18,2,2,0,0,0-.38.94c0,.25.21.38.62.38A3,3,0,0,0,444,48a8.88,8.88,0,0,0,1.27-.71c.4-.27.78-.55,1.13-.84l.81-.69Z"/><path class="cls-1" d="M452.16,45.94a2.72,2.72,0,0,1-.65.4,1.5,1.5,0,0,1-.67.15.67.67,0,0,1-.28-.05c-1.28,1.31-2.38,2-3.29,2a.84.84,0,0,1-.66-.28,1,1,0,0,1-.25-.7,2,2,0,0,1,.47-1.28,4.92,4.92,0,0,1,1.11-1,6.64,6.64,0,0,1,1.33-.67,3.94,3.94,0,0,1,1.14-.24c.53,0,.79.24.79.72a1.68,1.68,0,0,1-.12.63,4.59,4.59,0,0,1-.38.7.41.41,0,0,0,.21,0,1.21,1.21,0,0,0,.61-.16,3.4,3.4,0,0,0,.64-.41Zm-1.7-1.58a2.29,2.29,0,0,0-1.22.51,10.07,10.07,0,0,0-2.12,2.25,1.79,1.79,0,0,0-.37.72q0,.45.6.45a2.31,2.31,0,0,0,1.15-.39,7.26,7.26,0,0,0,2.15-2.07,1.72,1.72,0,0,0,.38-.92.58.58,0,0,0-.17-.41.49.49,0,0,0-.4-.14"/><path class="cls-2" d="M342.51,27.75c-.16.27-.3.3-.53.13l.13-.2.24-.36c.06-.13.06-.13.16-.06s.13.23,0,.42c0,0,0,0,0,.07m.3.2a.57.57,0,0,0,.09-.27.48.48,0,0,0-.26-.52l-.29-.17-.3-.2-.07.1c.17.1.1.23,0,.43l-.23.36-.33.53c-.13.2-.2.33-.37.23l-.06.07.62.43.07-.1c-.2-.13-.13-.23,0-.46l.23-.36.16.09a.47.47,0,0,0,.73-.16"/><path class="cls-2" d="M345.78,12.19A7.8,7.8,0,0,1,346.84,11a8.35,8.35,0,0,1,3.43-2l-.16,2L350,13.15s0,.07-.13.07l-4.09-1Zm-.3.07a.32.32,0,0,0,.27.3l4,1a.28.28,0,0,0,.16,0,.39.39,0,0,0,.3-.37L350.4,11l.17-2a.32.32,0,0,0-.17-.26.32.32,0,0,0-.26,0,9,9,0,0,0-3.7,2.28,6.49,6.49,0,0,0-.89,1.06.27.27,0,0,0-.07.23"/><path class="cls-2" d="M346.87,32.47c-.13,0-.2.1-.26.2.19,0,.29.1.49,0,.33-.29.56-.76,1-.92v-.1a.93.93,0,0,0-.46.2c-.16.16-.36.66-.76.59"/><path class="cls-2" d="M344.52,29.3l.1-.26.17-.4s.07,0,.1,0,.16.24.06.43a.36.36,0,0,1-.09.13.22.22,0,0,1-.34.1m-.32,1c-.14-.07-.1-.23,0-.4,0,0,0,0,0-.06l.19-.4.1,0c.2.1.23.27.1.57l-.1.13a.29.29,0,0,1-.29.13m.79-1.75-.6-.26-.06.1c.19.06.13.19,0,.42l0,0-.43.86v0c-.13.23-.17.36-.37.26l0,.1.53.27c.2.09.53.23.76,0,0-.07.1-.13.13-.2a.5.5,0,0,0-.2-.69.6.6,0,0,0,.4-.07c.07,0,.1-.1.17-.2a.51.51,0,0,0-.3-.69"/><path class="cls-2" d="M346.34,30.16c-.13,0-.2-.1-.23-.26a.12.12,0,0,0,0-.1l-.07-.43.1,0c.2,0,.33.1.4.39v.17c0,.13,0,.26-.17.26m-.5-1.62c0-.06,0-.06.07-.06s.27.06.33.33v.13a.26.26,0,0,1-.23.3l-.07-.27Zm.43.7c.1-.07.24-.13.3-.3s0-.13,0-.23c-.06-.43-.43-.43-.66-.4l-.63.13v.14c.24-.07.24.06.3.33v0l.2,1v0c0,.23.06.4-.13.43l0,.1.59-.13a.66.66,0,0,0,.6-.43v-.23a.49.49,0,0,0-.6-.43"/><path class="cls-2" d="M344.26,28.28l.07-.07-.46-.29-.07.09c.07,0,.17.1.07.24a2.57,2.57,0,0,1-.33.33l-.57.52.33-1a1,1,0,0,1,.07-.2c.07-.1.17-.06.23,0l.07-.1-.63-.4-.07.07c.14.14.14.17,0,.43l-.5,1.62.07.07,1.29-1.13c.16-.13.26-.23.39-.16"/><path class="cls-2" d="M341.22,28l-.1-.06c-.23.29-.36.33-.56.19s-.1-.29,0-.52l.2-.33c.17.12.2.19.07.46l.1,0,.39-.69-.06,0c-.17.23-.27.23-.43.13l.3-.5.1-.13s.16,0,.19.06.2.24.1.53l.07,0,.26-.47-1-.59,0,.06c.16.1.1.24,0,.47l-.57.86c-.13.23-.19.36-.39.23l0,.1,1.06.66.13-.2Z"/><path class="cls-2" d="M348.09,29.37c0,.36-.07.46-.33.53s-.26-.14-.33-.46l-.2-.86c0-.27-.06-.4.14-.43v-.1l-.73.13v.1c.2,0,.23.1.3.36l.19,1c0,.23.07.39-.13.39l0,.13,1.26-.26-.1-.56Z"/><path class="cls-2" d="M351,28.71l.06-.23.07-.5.2.5.06.2Zm.86.23-.2-.46-.4-1.06h-.1l-.2,1.06-.1.43c0,.2-.06.49-.26.53l0,.09.5,0v-.13c-.07,0-.17,0-.2-.13l0-.37.5,0,.13.36c0,.14-.13.14-.2.17l0,.1.57,0,.16,0v-.1a.24.24,0,0,1-.16-.06.74.74,0,0,1-.13-.3"/><path class="cls-2" d="M352,10.28v0l1.19,4h4.06l-3.37,2.28,1.35,3.93L352,17.94l-3.27,2.48,1.38-3.93-3.36-2.28h4.06Zm-6.44,3.57,4.13,2.77L348,21.44l4-3.07,4,3.07-1.68-4.82,4.13-2.77h-5L352,9l-1.46,4.86Z"/><path class="cls-2" d="M350.24,28.87c0,.33-.07.63-.33.66s-.5-.39-.56-.82,0-.93.29-1,.4.17.47.46l.1,0-.1-.63H350v.2a.45.45,0,0,0-.43-.13c-.43.06-.69.56-.6,1.19s.43,1,.86.89a.62.62,0,0,0,.43-.3l.07.17h.1l-.1-.7Z"/><path class="cls-2" d="M348.89,29.3l-.2-1c0-.23-.07-.4.13-.43l0-.1-.73.13,0,.13c.2-.06.23.1.26.34l.2,1c0,.23.07.39-.13.43l0,.1.72-.14,0-.09c-.2,0-.23-.1-.26-.37"/><path class="cls-2" d="M353.51,8.86a8.81,8.81,0,0,1,3.3,2,9.93,9.93,0,0,1,1.09,1.32l-4,1a.17.17,0,0,1-.13-.1l-.16-2.21-.14-2h.07l0,4.19a.27.27,0,0,0,0,.17.39.39,0,0,0,.43.2l4.06-1a.33.33,0,0,0,.2-.23.26.26,0,0,0,0-.26,14.53,14.53,0,0,0-.93-1.12,8.86,8.86,0,0,0-3.66-2.22.33.33,0,0,0-.24,0,.26.26,0,0,0-.2.33l.14,1.92.19,2.21Z"/><path class="cls-2" d="M352,22.83a8.15,8.15,0,0,1-2.81-.53l2.74-3.14s0,0,.07,0,.06,0,.09,0l2.68,3.27a7.62,7.62,0,0,1-2.77.4m.33-3.83a.39.39,0,0,0-.14-.1.2.2,0,0,0-.19,0,.37.37,0,0,0-.3.14l-2.74,3.13a.32.32,0,0,0,.17.5,9.28,9.28,0,0,0,2.87.53,8.94,8.94,0,0,0,2.8-.43c.07,0,.43-.23.17-.53Z"/><path class="cls-2" d="M360.88,29l-.11-.4-.1-.3.3.3.23.2ZM362,29a1.31,1.31,0,0,1-.23-.2l-.26-.23-1-.89-.1.06.23.8.2.66c0,.2.17.49,0,.59l.07.1.42-.3-.06-.06a.15.15,0,0,1-.23-.07l-.13-.33.42-.26.27.29c.07.1,0,.17-.07.2l0,.1.64-.4-.07-.09a.17.17,0,0,1-.17,0"/><path class="cls-2" d="M361.76,8.1c-.06.13,0,.23,0,.36s.1.2.2.17-.07-.2-.07-.3,0-.26-.17-.23"/><path class="cls-2" d="M354.8,27.72c.2,0,.16.16.1.43l-.24,1c0,.26-.06.39-.26.36l0,.1.73.16v-.13c-.19,0-.16-.16-.09-.39l.23-1c.06-.23.06-.39.29-.33v-.13l-.69-.13Z"/><path class="cls-2" d="M362.49,26.69c0-.1,0-.13.07-.16l-.07-.1-.4.26,0,.1c.2-.1.33.1.46.27l.46.69-1.52-.69-.36.26.07.1c.09-.06.16,0,.29,0l.7,1c.13.2.19.3.06.43l0,.1.43-.3-.07-.1c-.17.13-.3-.1-.43-.26l-.53-.8,1.69.76.1-.06L362.69,27a1.05,1.05,0,0,1-.2-.34"/><path class="cls-2" d="M360,23.06c.11-.16.3-.33.4-.5a.69.69,0,0,1-.2.5.92.92,0,0,1-.2.23s0,0-.06-.06a.58.58,0,0,1,.06-.17m1.62-1.35a1,1,0,0,1-.26.36s-.07-.17-.07-.36.07-.63.23-.66a.88.88,0,0,1,.1.66m.13.82a1.15,1.15,0,0,1,.17-.72v-.1a.12.12,0,0,1,0-.1s0,.06.07.1v.06a.69.69,0,0,1-.27.76m.8.2c-.16.2-.4.36-.43.63,0,.06-.13.13-.27.09s-.13-.16-.26-.13c-.1.3-.43.2-.63.4-.43.4-.46-.2-.49-.13-.27.3-.5.66-.76,1a4.39,4.39,0,0,0-.33.66l-.13.13c0,.1-.07.2-.2.16s-.1-.16-.24-.06-.16,0-.26,0-.59.73-.95.76a.23.23,0,0,1-.27-.07c-.16-.09-.4.43-.56.47s0,.06,0,.06h.2c0,.14-.2.3-.36.4a3.65,3.65,0,0,1-.33.17,3.26,3.26,0,0,1-1-.2v-.2l.56-.33a.55.55,0,0,0,.27.33c.1.06.13,0,.16-.07,0-.23-.49-.29-.1-.56.23-.16.23,0,.6-.1a1.81,1.81,0,0,0,.72-.36s.3-.13.83-1.06l2.31-4.13a6.86,6.86,0,0,0,1.22-2.21c.07-.13.1.13.2.1.17-.2-.06-.33-.16-.5a1.49,1.49,0,0,1-.07-.79c0-.06.17,0,.2.13a3.22,3.22,0,0,0,.13.6c.33,0,.46-1.88.49-2.25V15.6c-.16-.23-.62-.33-.59-.53.34-.1-.16-.76-.2-.5,0,.07.07.17,0,.23-.53,0-.43-.49-.56-.62s-.36,0-.4-.23,0-.27-.16-.33-.33.09-.33-.24.63.33.47-.19-.7-.17-.76-.27a3.92,3.92,0,0,1-.63-1.32c0-.16.29.2.29,0s-.26-.47-.33-.43c-.29.13-.39-.2-.39-.33a.56.56,0,0,1,0-.37c-.07-.13-.27-.13-.3-.29s-.1-.2,0-.3c.73-.23,0-.53.16-.73s.47.1.66-.2.2-.09.27,0c.23.2-.1.66.3.66.09,0,.23-.26.39-.1s.2.44.3.77-.13.56-.17.59a.26.26,0,0,0-.06.17.34.34,0,0,0,.06.33A.77.77,0,0,0,361,11c0-.07.1-.07.16,0s0,.29.07.39c.52.56,0,.89,0,.89-.07-.16,0-.36-.17-.46-.1.23.1.56,0,.79a5.17,5.17,0,0,0-1-1.58,4.46,4.46,0,0,1,0-.73s0-.06-.1,0,0,.1-.1.07c-.17-.33-.23-.7-.43-1l-.07.1c.14.46.33.89.47,1.35h-.07l-.33-.36s-.07,0-.07,0c0,.27.37.5.56.7l.73,1a1.14,1.14,0,0,0-.46-.16s0,.06,0,.1a2.41,2.41,0,0,1,1.12,1.45c-.06.07-.16-.1-.19,0a1.11,1.11,0,0,0,.59.46v-.17a2.74,2.74,0,0,1-.46-1.45c.06.1.19.63.39.07.17,0,.1.36.17.42s.29.27.2.57a.63.63,0,0,0-.1.52c.1.2.5.14.36.43,0,.1-.1.23-.06.33s.23.24.36.33c.13-.16-.07-.36-.07-.52s0-.47-.09-.7c-.17-.06,0-.23,0-.36s0,0,0,0c-.07.3.46.33.19.63.1.33.3.59.23,1,.1.14.17,0,.23-.09s.27-.43.17-.63c-.1,0-.17-.13-.23-.13,0-.24-.17-.33-.17-.53.07,0,.13,0,.17-.1,0-.4-.47-.46-.53-.83s-.3-.36-.37-.59c.14-.1.5,0,.37-.27a2.84,2.84,0,0,1-.86-1.12s-.1-.26,0-.33.2,0,.2-.16-.27-.43-.47-.57A4.63,4.63,0,0,1,361,9c.13-.3.23-.63.36-1,0-.07-.36-.53.36-.3.07,0,.33-.1.36-.26.2.1.17.89.37.86s.1-.27.3-.13a1.44,1.44,0,0,0,.36.92c0,.23-.1.49,0,.73,0,0,.14.16.3-.07,0,1,.23,1.06.27,1.09-.14.23-.7,1.15-.07,1.22.13,0,0-.43.16-.56s.3.13.33.59-.69.8-.23,1.26c0-.07.07-.1.1-.16a.55.55,0,0,1,.13.46c-.33.13-.26.53-.26.79s-.53.3-.46.63-.4.36-.5.59c0,0-.66,3.77-1.16,4.16-.16.14-.62,1.09-1.05,1.56-.1.1-.23,0-.33.06a.93.93,0,0,1,0,.27c-.06.16-.4.79-.59.85a3.46,3.46,0,0,1-.27.5c-.1.2-.69.93-.69,1.35,0,.83.1.76.1.76.2-.09.16-.39.2-.59a12.21,12.21,0,0,1,1.19-1.29l.13-.23c.23-.16.26-1,.33-1.16,0,.07.13,0,.23,0,0,.34.16.66,0,1a.26.26,0,0,0-.27,0c0,.06.17.09.11.19a1.82,1.82,0,0,0-.21.3c.07.2.14,0,.23,0s.3-.2.5,0c.2-.29.6-.49.66-.82.23-.2.23-.5.37-.73,0,0,0,0,.06-.06.23-.2.37-.5.69-.56a.23.23,0,0,0,.07-.14c-.16-.13-.3.14-.46.14a7.08,7.08,0,0,0,.46-1.39,1.37,1.37,0,0,1,.83-.7.23.23,0,0,0,.06-.26c-.16.2-.39.2-.59.33-.07-.59,1.06-1.62,1.06-2a.12.12,0,0,0-.1,0c-.24.2-.24.63-.53.7a9,9,0,0,1,.4-1.75s0-.07-.07-.1c-.23-.1-.43,1.68-.5,1.65-.29-.13-.06-.63-.26-.86a.11.11,0,0,0-.1.1,1.21,1.21,0,0,0,.13.89c-.1.59-.26,1.25-.4,1.82l-.06.06A2.11,2.11,0,0,0,363,19c0-.19,0-.39-.06-.52-.27.23-.07.62,0,.89a2.77,2.77,0,0,1-.24,1.42c-.06.1,0,.2,0,.3a3,3,0,0,1-.32.59c-.4-.36,0-1.29,0-1.39,0-.26-.23-.16-.27-.39s.27-.23.17-.43.26-.27.2-.43c-.17-.5.36-1,.36-1.46,0-.16.23.1.27-.09s-.14-.6.06-.8-.1-.46.07-.66a.24.24,0,0,1,.36-.06c.1.13,0,.42.2.36s.06-.73.1-.76a.4.4,0,0,1,.36-.16c.07,0,.1.26.33.29s.57.17.57.27-.43.39-.17.59c0,0,.3,0,.3.13s-.27.36-.2.63-.36.43-.5.69c0,.1.1.17.2.17s.13,0,.17.07a.8.8,0,0,1-.1.46c-.1.06-.3.1-.3.2a1.49,1.49,0,0,1-.46,1s-.6.1-.36.39c.09.1.32-.16.36,0-.66,1.15-.86,1.45-.86,1.45-.2.33-.7.16-.7.63,0,.13.13.26,0,.36m0,.92a2,2,0,0,1,.23.7v.2c0,.1-.3.1-.3.1s.17-.17,0-.24-.23.17-.27.1.17-.13.11-.26-.5.33-.54.23.54-.39.43-.49-.49.29-.59.29h0c-.07-.07.23-.52.92-.63m.89,1c0,.2-1.28.69-1.28.69s0,.07-.07.17.1.06.13.13-.17.07-.1.17-.07.23-.13.19-.23-.49-.3-.56a.25.25,0,0,1-.06-.13c0-.07,0-.1,0-.13a5.27,5.27,0,0,1,.79-.07c.07-.2.76-.46,1-.46M358,26.46c0-.26,1.26-.53,1.39-.59a1.17,1.17,0,0,0,.53-.53c.17-.3.13-.56.2-.66a1.83,1.83,0,0,1,1.12-.69c.06,0,.36-.14.16.22a2.07,2.07,0,0,0-.23.6,2.15,2.15,0,0,0,.27.56,2.26,2.26,0,0,0,.13.2,1.58,1.58,0,0,1,.2.59,11.14,11.14,0,0,1-2.51,1.46,3.33,3.33,0,0,1-1.16-.07c-.06-.23-.13-.46-.13-.46a1.44,1.44,0,0,1,0-.63m-.76.63a.52.52,0,0,1,.4-.23c.06,0,.1.1.13.23s0,.36-.07.43a.82.82,0,0,1-.29-.07s.06-.26-.2-.16a.46.46,0,0,1,0-.2m6.57-2.48s.07-.23.54,0c0,.1.09.36.19.69,0,0,.23.76.53,1.78.07.26-.06.4-.16.57-.67.59-3.34,2.17-3.67,2.37a4,4,0,0,1-2,.5,14,14,0,0,1-5.29-.73,1.76,1.76,0,0,0,.33-1.52c-.26-.4-.56-1.09-.66-1.19l.07-.06c4,.82,5.48.89,5.55.82.56,0,3.3-1.78,4.36-2.54.39-.26.62-.5.56-.63s-.23-.1-.37-.1m-6.5,6.87c.07.1.2.33.33.56a1.23,1.23,0,0,0,.4.5c.1-.1-.2-.3.06-.4s.37.86,1.22.56c.2.23.66.14.93.2,0,0,0,.13-.07.13a2.86,2.86,0,0,0-1.85.33c-.09.07,0,.24-.09.3-.14-.16,0-.36.09-.53s.43-.06.23-.26c0,0-.16-.13-.65.49-.07-.06-.07-.23-.17-.29-.43.1-.56-.43-.93-.5-.1-.06.07-.13,0-.23a2.23,2.23,0,0,0-.62-.3c-.66-.19-.13-.49-.37-.59-1.15-.36-1.05-.66-1.05-.66.06-.2.23.07.33-.07s-.13-.1-.1-.2.53.34.59.3-.1-.23.07-.23c.36-.07,1.25,1,1.49,1.06.06-.07,0-.1,0-.17a.23.23,0,0,1,.2,0m-3.7-1.88c-.23-.3.2-1.06-.13-1.06-.1,0,0,.17,0,.27-.13.33-.13.72-.43,1-.07,0-.07-.06,0-.13a2.06,2.06,0,0,0,.2-.92s-.16-.13-.16.23-.27.46-.3.73c0,.09-.2.19-.33.19,0-.36.23-.63.23-1,.13-.19.17.1.17.1s.1-1.28-.36-1.52c-.07.07.29.63.13,1.06h-.13a2.5,2.5,0,0,0-.53-1.39,1,1,0,0,0-1-.26.65.65,0,0,1,.36-.27,1.15,1.15,0,0,1,.6.14c.29.1.56.3.69.33a.14.14,0,0,0,0-.17.11.11,0,0,1-.06-.16c.46-.27,1.68,1.75,1.45,2.41-.1.23-.2.43-.43.46m-13.5-3.44s0,0,0,.07c-.2.27-.33.3-.5.17l-.06,0,.13-.2.13-.23a1.86,1.86,0,0,0,.17-.26l.13,0c.13.1.13.27,0,.46M352,29.8c-.93.1-6,1-6.54,1a2.46,2.46,0,0,1-1.46-.13c-.39-.17-4.62-2.51-5-3.33a2.71,2.71,0,0,1-.13-.33l.06.13.27.2.07-.1c-.2-.1-.14-.23,0-.43l.26-.33c.07,0,0,.19,0,.36l-.09.69.36.23.07-.09c-.07,0-.07-.07-.07-.17l.07-.89a.49.49,0,0,0,.56-.23.42.42,0,0,0,.1-.24.39.39,0,0,0,0-.26,1.63,1.63,0,0,0-.27-.26l-.3-.2-.29-.2-.07.1c.17.1.1.23,0,.43l-.27.39-.33.47c-.06.1-.13.16-.16.23v.06c0-.13,0-.23,0-.29a8.46,8.46,0,0,0,.63-1.92c.06-.16.2-.13.26-.16a.26.26,0,0,0,0,.26A13.64,13.64,0,0,0,341.49,26a32.82,32.82,0,0,0,3.56,2c.27,0,1.69-.27,3.14-.5a30.16,30.16,0,0,1,3.37-.43c.13,0,.26.2.4.46a10.71,10.71,0,0,1,.49,1.75c-.06.56-.49.5-.49.5m-4.1,2.44s0,.07-.07.1a1.25,1.25,0,0,1-.59.59c-.23,0-.36-.16-.4,0s.23.07.3.24a.46.46,0,0,1-.3.59c.07-.73-.62-.79-.85-.83,0,0-.63.2-.57,0s.57-.36.93-.56c0,0,.07,0,.1-.06.2-.53.79-.7,1.22-.9a.53.53,0,0,0,.79-.19c-.13-.17.07-.24.13-.24s0,.1,0,.17c.2,0,.27-.2.43-.2s.07.07.1.1.13,0,.2,0a3.63,3.63,0,0,1-1.42,1.22m-7.1-7.56a2.34,2.34,0,0,0,.76.36,3.36,3.36,0,0,0,.69.1,6,6,0,0,1-.36.86,1.19,1.19,0,0,1-.36-.16,3.19,3.19,0,0,0-.33-.27c-.07,0,.13-.16,0-.26s.06-.07.06-.07c.23.1.23-.07.17-.1-.4-.2-.76-.36-1.16-.59.17,0,.36.1.53.13m.59-1.06a.43.43,0,0,1,.17.07,1.16,1.16,0,0,1,.43.3c0,.1-.17-.1-.26,0s.39.29.32.46-.26-.27-.29-.17-.07.27-.17.43h-.06a1.35,1.35,0,0,1-.46-.06,2.27,2.27,0,0,1,.32-1m5.26,3.24a1.8,1.8,0,0,1,.42.23c.14.13.27.23.24.27a2.73,2.73,0,0,1-.89.26,2.74,2.74,0,0,0,.16-.53c0-.06,0-.13.07-.23m-.73-1.09c-.13-.07-.2-.13-.36-.23a.13.13,0,0,0-.1-.2.39.39,0,0,1-.27.23c-.06,0-.2,0-.23-.07a.21.21,0,0,0,.23-.13c0-.1,0-.2-.06-.23s-.07.27-.27.3a4.74,4.74,0,0,1-1.42-1.62c-.16-.17-.29,0-.46-.1a17,17,0,0,1-1.49-1.48c-2.21-2.35-2.24-3.41-2.27-4.5,0-.33-.07-.66-.07-1a1,1,0,0,1,0-.3c.1-.19.4.2.5.3a10.8,10.8,0,0,1,1.42,3c0,.1.06.23.1.33.06.3.13.56.19.82-.16-.1-.23-.33-.32-.49s-.11,0-.17,0a1.52,1.52,0,0,1-.17-.3A12.7,12.7,0,0,1,339.5,17l-.09-.07c-.14,0,.06.9.46,1.85-.1,0-.17-.13-.27-.06,0,.36.8,1.09.9,1.45v.1a21.22,21.22,0,0,1,1.25,2.08c.13.23.4.36.5.6.06.06.19,0,.23.16s.19.39.42.49.21.07.24-.06-.1-.23-.1-.4a.6.6,0,0,0,.33.3l.3-.1c.1.16-.07.33-.07.5.27.33.93,1.29,1.06,1.12s.33.3.46,0a.23.23,0,0,0-.13-.3c-.43.14-.43-.43-.63-.62-.23-.44-.26-1-.63-1.33a9.34,9.34,0,0,0-1-1.42c-.07-.06,0-.23.1-.26s.13.46.4.46.06-.36.23-.43a2.32,2.32,0,0,0,1,1.85c.07.07.17.17.14.27s-.1,0-.14,0,.17.19.17.29c0,.73,2,2.84,3.43,3.11a.37.37,0,0,0,.17.13c.13.07.36.07.3.33.06,0,.16.1.16.2a.68.68,0,0,1-.46,0,.81.81,0,0,1-.46-.13c-.2-.06-1.68-1.29-1.85-1.32m-4.59-6.14a1.44,1.44,0,0,1,.36.49c.07.13.13.3.2.43l0,.46h-.07l-.3-.89a3.11,3.11,0,0,0-.16-.49m-.3-6.44a2.12,2.12,0,0,1-.13.92c-.13.23,0,.56-.2.76a14.47,14.47,0,0,1,.2-1.68s.06-.27.56-1.69a1.41,1.41,0,0,1-.3,1.32,1.6,1.6,0,0,0-.13.37m-.36,3.23c-.3.1-.46-.53-.46-.53-.63-2.08-.73-4.69.46-6.57a7.88,7.88,0,0,1,1.09-1.78c.06,0,.06.06.1.13a7,7,0,0,1-.2,1.65c-.13.63-.79,3.24-1,3.87a8.52,8.52,0,0,0-.17.85c-.13-.13,0-.33,0-.49a19.54,19.54,0,0,1,.8-4.23,5.49,5.49,0,0,0,.36-1.25l-.1.1c-.1.39-.26.79-.4,1.18a11.31,11.31,0,0,0-.89,4.2,4.28,4.28,0,0,0,.1,2.41c.63.59.36-.36.46-.69s.27-.5.2-.8a2.79,2.79,0,0,1,.33-1.15.33.33,0,0,1-.13-.13.93.93,0,0,1,0-.27c.3-.16.43-1.09.63-1.09,0-.1.07-.2,0-.3s-.23.1-.27-.06c.11-.37,0-.79.37-1,0,0,0-.19.46-.72,0,.26-.72,1.12-.59,1.52,0,.06.1,0,.16,0s.13-.36.33-.33c0,.2-.43.4-.06.53a1.54,1.54,0,0,0,.69-.89,3.27,3.27,0,0,1,.66-1.26,6.12,6.12,0,0,1,2.08-2.08c.1-.1.23-.07.23.07s-.1.36-.23.16a12.44,12.44,0,0,0-1.55,1.85,7.8,7.8,0,0,0-1.23,1.78,1.42,1.42,0,0,1-.69.66s-.1-.1-.13,0-.5,1.29-.82,2.48a9.63,9.63,0,0,0-.34,1.62c0,.13,0,.26.07.36.36-.23.43-.63.63-1a.07.07,0,0,1,.1,0c-.17.36-.2,1.15-.73,1.08,0,.07,0,.2,0,.4a2.06,2.06,0,0,0,.26,1.16,8.76,8.76,0,0,0,.73,1.95.16.16,0,0,1,0,.2.3.3,0,0,1-.07.09.48.48,0,0,1-.13-.16,4,4,0,0,1-.46-.93c0-.1.1-.13.06-.19s-.23-.17-.26-.27.23-.1.17-.23-.43,0-.4-.23a4.92,4.92,0,0,0-.2-1.39c0-.1,0-.23,0-.33m3-10.5a4.45,4.45,0,0,1,1.09-1.06,1.92,1.92,0,0,1,.36-.16v.16a3.21,3.21,0,0,1-.3,1.06,14.53,14.53,0,0,1-2.08,3.43c-.1.13-.2.23-.26.3a1.07,1.07,0,0,1,.06-.3,16.72,16.72,0,0,1,1.82-3.43,4.58,4.58,0,0,1,.33-.46c.13-.24.36-.5.23-.53s-.26.23-.33.36-.33.4-.49.63a28.67,28.67,0,0,0-1.79,3.4c-.06.16-.1.3-.13.36a3,3,0,0,1-.23.37c.06-.23.13-.5.2-.73a10.88,10.88,0,0,1,1.52-3.4m2.64-1.06a6.89,6.89,0,0,1,3.56-1.78v.07a7,7,0,0,1-1.64,1.45c-.11.06-.27.2-.4.26a10.23,10.23,0,0,1-1.16.6s-.06,0-.06-.07a4.56,4.56,0,0,1,.66-.53,19.78,19.78,0,0,0,2.11-1.48A14.47,14.47,0,0,0,347,4.86l-.53.4a.15.15,0,0,0-.06-.1c-.1,0-.5.43-.76.76a3,3,0,0,1-.27.3.59.59,0,0,1,.14-.3,2.91,2.91,0,0,1,.79-1.06m-1,1.69a2,2,0,0,1,.53-.63c.3-.27.53-.4.6-.36s-.07.19-.27.36a1.75,1.75,0,0,1-.49.36c0,.17-.33.37-.37.27m.27.49s-.63.46-.63.37.83-.7.63-.37m-.73.43a10.94,10.94,0,0,0-1.55,1.88s-.43.63-.73,1.16c0,0,0,0-.1-.1a12.08,12.08,0,0,1,.67-1.09c.62-.92,1.51-2.15,1.68-2.44a1.43,1.43,0,0,1,.3-.13,3.2,3.2,0,0,1-.47.66,1.24,1.24,0,0,1,.2.06m5.65-3.27a2,2,0,0,1-.63.66A11.21,11.21,0,0,1,348.23,6c-.44.23-.83.43-.93.46s-.43-.09.13-.42c0,0,.07,0,.14-.07.36-.17,1.15-.66,1.78-1.06.36-.2.66-.4.86-.49,0,0,0-.07,0-.07a9.49,9.49,0,0,0-1.15.56c-.6.3-1.26.7-1.85,1.06s-1,.63-1.22.83c0,0-.07.06-.11.06a.15.15,0,0,1-.23,0c.07-.13.23-.16.34-.26a3.56,3.56,0,0,1,.72-.63,11.88,11.88,0,0,1,1.68-1.09c.3-.16,2-1,2.12-.66M346.21,7a.37.37,0,0,1,.07-.2c.19-.3.62-.53.56-.2a.38.38,0,0,1-.2.17,1.13,1.13,0,0,1-.43.23m-1.32,8.32h0l2.91,1.19,1,.36s.06.07,0,.13l-1,1.62-1.19,1.95s0,0-.07,0a8.7,8.7,0,0,1-1.58-3.8,9.81,9.81,0,0,1-.1-1.45M343,20.35l.14-.23a1.7,1.7,0,0,1,.19-.2.49.49,0,0,0,0,.2c0,.23-.1.43-.13.69s-.27-.26-.17-.46m-.26-.23s0-.26.1-.59l.33-.73c.49.07-.17,1.16-.27,1.32s-.13.17-.16.17,0-.07,0-.17m-.56,0a4.72,4.72,0,0,1,.52-1.45,2.74,2.74,0,0,1,.7-1.36l0,0c.07,1-.73,1.75-.89,2.71v.06a3.39,3.39,0,0,0-.16,1.72c.06.13.32.13.49-.07.2.3.1.73.17,1.06l0,0c-.2,0-.2-.62-.26-.69s-.1.13-.3,0a2.23,2.23,0,0,1-.26-2m.33-1.88c0,.13,0,.3-.13.3a.14.14,0,0,1-.17-.1c-.1-.27.26-.23.3-.2m.46-4-.1.56-.66.16v1.42s-.2-.06-.36-.09a1.86,1.86,0,0,1,0-.73,1.79,1.79,0,0,1,.66-.89,1.23,1.23,0,0,0,.33-.43l.2-.3Zm1.59-4.82a1.63,1.63,0,0,1-.8.76c.23-.37.56-.8.56-.8l1.23-1.61.09-.07c.14.3-.43,1.32-1.08,1.72m.89-.07-.2.2a.23.23,0,0,1,0-.17c.07-.2.43-.49.5-.59l.1.26Zm-3.5,4.86c.06-1.62,2.64-4.63,3.07-4.66s-.93,2.87-1.78,3.63c-.27.37-.63.7-.9,1.06,0,.1-.1.23-.13.33a.19.19,0,0,1-.13.07.77.77,0,0,1,.13-.4,42.11,42.11,0,0,1,2.61-4.16s.07-.13-.07-.1a15,15,0,0,0-2.67,4.26l-.23.49-.07.07a1.1,1.1,0,0,1,.17-.59m-.47,0a4,4,0,0,1,1.13-2.41c0,.19-.17.39-.3.56-.23.59-.43,1.22-.63,1.85-.07.33-.16.66-.23,1l0,0c0-.33,0-.66.06-1m-.13,2.61c.13,0,.17,0,.2-.07a.75.75,0,0,1,.1-.2c.3,0,.69,0,.86.17v0a7.09,7.09,0,0,1,.16.83c.07.33-.72.43-.76.66s.27.69.13,1.09a7.92,7.92,0,0,1-.43-1.19,2.2,2.2,0,0,1-.26-1.32m3-.07a1.49,1.49,0,0,0,0-.53l0-.06a1.56,1.56,0,0,0-.14.59,28.69,28.69,0,0,0-.13,4.46c0,.17,0,.69,0,.69h-.1c-.16-.19,0-.46-.1-.72a10.38,10.38,0,0,1-.23-1.06v-.2c-.3-.46-.07-2.11.27-3.17.16-.56.32-1,.46-.92s.33.43.39.92a5.39,5.39,0,0,1-.19,2.35c0,.39-.07.82-.14,1.22,0,.13.1.26-.1.26s0-.16,0-.23c-.26-.29,0-2.54.07-3.6m5.75,10.11s0,.1-.1.13a1.81,1.81,0,0,1-.7-.1c-.29-.06-.72-.46-.89-.39a1,1,0,0,1-.23-.07,4.66,4.66,0,0,1-1.09-.66c-.07,0,.17-.46.76-.36l.33.09a4.2,4.2,0,0,1,1.92,1.36m7-1.88a9.6,9.6,0,0,0-2.11.79,5.45,5.45,0,0,0-.57.23c-.39.16-.43.46-.72.73-.27,0-.47.06-.67-.14s-.69-.13-.75-.09a.32.32,0,0,1-.33,0,.58.58,0,0,0-.33-.14c-.3,0-.66,0-.86.3a.56.56,0,0,1-.76-.26,3.9,3.9,0,0,0-1.82-1.13,4.82,4.82,0,0,0-.5-.16c-.19,0-.52,0-.85.56a3.68,3.68,0,0,1-1.92-2.58c-.39-.79-.43-.85-.43-.85l.69-.27.6.59-.26.63,1.35,1,.56-.42.73.36,0,.69,1.62.53.37-.59.82.13.17.69h1.71l.17-.69.83-.13.36.59,1.62-.53,0-.69.73-.36.56.42,1.36-1-.27-.63.6-.59.56.2s.13.07-.5.76a5.75,5.75,0,0,1-1.32,2.51c-.13-.13-.16-.4-.36-.46M354,26.79a.66.66,0,0,1,.36-.49,10.32,10.32,0,0,1,1.16-.53c.49-.17,1.58-.83,1.68-.27a.28.28,0,0,1-.1.27h-.07a2.49,2.49,0,0,1-.89.13,8.31,8.31,0,0,1-1.35.89c-.13.07-.33.1-.27-.1s-.43.1-.52.1m7.89-11.13c0,.1,0,.46-.2.5V15s.36,0,.17.29a2,2,0,0,0,0,.33m-1.35,3.9c0-.2,0-.43.13-.56s0-.1-.07-.13-.2.39-.23.46c-.17-.2,0-.56-.17-.79v-.4c0-.53.17-1.06-.16-1.46a7.51,7.51,0,0,0-.17-.85c-.06,0-.09,0-.09.06s.13.79.16,1c-.13-.06-.36-.17-.49-.06a.76.76,0,0,1-.14-.44l-.06-.39c.23-.13.29-.33.49-.46.13,0,.17.2.37.16s.2-.13.23,0-.1.46-.07.66a.11.11,0,0,0,0,.1l.19-.07a.21.21,0,0,1,0,.27c-.1.39.36.79.09,1s-.16.6-.13.69c.23,0,.27-.36.5-.26s.36,1.19-.07,1.39c-.26.2-.16.63-.43.86a2.71,2.71,0,0,1,0-.73m-.46-2c.06,0,0,.34,0,.6a.3.3,0,0,0,0,.16s-.07-.06-.1-.16,0-.63.14-.6M359,16.32a8.62,8.62,0,0,1-1.62,4.07s0,0-.07,0l-2.18-3.53s0-.07,0-.14l2.51-1L359,15.1v.07a7.2,7.2,0,0,1-.06,1.15m.49,1.36c0-.07.13-.07.1-.14s0-.16-.26-.23-.17-.39-.1-.46a.37.37,0,0,0,.36.1c.2-.1.33.2.27.3s.06.46-.17.59c0,.1,0,.2,0,.3s.1.43-.1.56c-.19-.13.1-.4-.13-.53v0a1.18,1.18,0,0,1,0-.46m.86,2.31c0,.07,0,.13,0,.2-.36-.17-.26-.37-.63-.37-.06,0-.06.07,0,.1a1,1,0,0,1,.59.66.24.24,0,0,1-.26.14c-.23-.5-.66-.3-.69-.47a4.45,4.45,0,0,1,.1-.72c.06-.47.62-.7.69-1a2.68,2.68,0,0,1,.13,1c0,.16,0,.3.1.43m1.92-3c0,.1-.33-.1-.5-.07-.36.27-.2.66-.17,1-.16-.07-.42-.2-.45-.3a1.66,1.66,0,0,1,.19-.93c.13-.26,1,.2.83-1v-.1l.1.1c.26.37.1.89,0,1.29M346.87,7.84l.5.39,1.18-.59,0-.63,1.06-.36.36.56L351.23,7l.16-.6h1.13l.16.6,1.29.23.36-.56,1.06.36,0,.63,1.19.59.49-.39.93.65-.27.6.76.73a4.42,4.42,0,0,0,.3,1s.2.6.66.53l-.3.26A4.37,4.37,0,0,0,360.58,14l.16,1.09.63.16v1.12a1.76,1.76,0,0,0-.4,1.13c-.23-.9-.26-1.1-.26-1.1-.17-1.42-.93-1.18-1.22-1a.86.86,0,0,0-.17.19v-.39a.57.57,0,0,0-.06-.24.32.32,0,0,0-.4-.09l-2,.82-1.85.76s-.1,0-.13.1a.34.34,0,0,0,0,.46L357,20.55a.46.46,0,0,0,.27.13.43.43,0,0,0,.26-.13,9.34,9.34,0,0,0,1.52-3.24,1.58,1.58,0,0,1,.17.83c.06.26.26.63,0,1a1.07,1.07,0,0,0-.1.43c-.06.23-.1.53-.13.63-.07.33.86.49.89.72l-.62.86-.6-.23-1,.93.27.59-.93.66-.49-.4-1.19.6,0,.63-1.06.36-.36-.56-1.29.23-.16.63h-1.13l-.16-.63-1.29-.23-.36.56-1.06-.36,0-.63-1.18-.6-.5.4-.89-.66.23-.59-.93-.93-.62.23-.27-.39a16.36,16.36,0,0,0,.5-3.6,9.07,9.07,0,0,0,1.45,2.94.39.39,0,0,0,.2.13.34.34,0,0,0,.36-.17l1-1.55,1.19-2a.27.27,0,0,0,.07-.14.38.38,0,0,0-.23-.42l-1.06-.43L345,15a.27.27,0,0,0-.27.07.21.21,0,0,0-.13.23v.46a.3.3,0,0,0-.49,0,11.11,11.11,0,0,0-.53,1c-.13.23-.23.43-.3.4l-.06-.4,0-.23-.63-.17V15.23l.63-.16.13-.86.07-.46-.2-.13c.17-.24,1.88-2,1.95-3.47l.83-.83.26-.23-.23-.6Zm11.46-1a.9.9,0,0,0-.16-.19.56.56,0,0,1-.14-.5c.33-.16-.06-.56.17-.76.72-.66.86-.4.86-.4a3.6,3.6,0,0,1,.26.57c.1.16.36-.2.36-.2a2.89,2.89,0,0,1,.2.43c.07.16.36.13.33.36s-.26.26-.09.43.09.23.26.2,0-.46.26-.37l.1.24a1.27,1.27,0,0,0,.33.39c.26.13-.23.56-.13.76a.77.77,0,0,1-.13.83c-.2.16-.27-.56-.14-.89,0,0,0-.1-.06-.1s-.1.33-.2.43a17.52,17.52,0,0,1-.76-1.75c-.16.06,0,.26,0,.39a9.11,9.11,0,0,0-1.09-1.15c0-.07,0,0-.1,0s.39.6.76,1.06c-.13,0-.27-.1-.4,0,.07.17.27.07.37.13a3.68,3.68,0,0,1,.92,1.06v.16c-.17,0-.33-.19-.5-.09.07.13.24.16.37.19a1.64,1.64,0,0,1,.66,1,.26.26,0,0,1-.2.06c-.13-.2-.36-.26-.4-.49s-.26-.37-.49-.37-.26.17-.33,0c-.37-.23,0-.69-.43-.85-.2-.17-.4-.3-.43-.57m.3,1.16c-.2-.33-.63-.46-.76-.83s-.4-.39-.6-.42l-.09-.1c-.14-.17-.2-.33-.34-.5,0-.13.23-.26.17-.43a.55.55,0,0,1,.53-.92c.19,0,.36-.17.56-.07s.49.2,0,.53c-.07,0-.13-.13-.2,0s.07.27,0,.37c-.22-.13-.39-.4-.65-.46a.06.06,0,0,0,0,.09c.2.24.63.3.63.7-.07.16-.33-.07-.3.13s.17,0,.23.07c0,.2.07.36.1.53a1.12,1.12,0,0,0,.43.52c.13.33.5.53.5,1-.1,0-.07-.1-.1-.13m-2.88-3.57a2.51,2.51,0,0,1-1.15-.62l-.1.19c-.33-.06-1.06-.59-1-.33s.8.4,1,.63c.1,0,.2-.1.3,0s-.33,0-.2.2a5.43,5.43,0,0,1,1.22.13c.2.07-.26.3-.26.4s.19,0,.29-.07c.37-.23.3,0,.53-.06s.23,0,.27.1,0,.49,0,.76c-.52,0-.29-.37-.46-.33a4.28,4.28,0,0,1-.66.13c-.16-.37-.56-.1-.79-.33s.26-.1.3-.2c-.07-.4-.87-.23-1-.3s-.16-.56-.49-.56a.34.34,0,0,1-.27-.16c-.16-.17,0-.73.27-.7s.36.37.49,0c0-.1,0-.27.13-.3.34-.07.43.46.77.33.16,0,.16.33.39.26a.29.29,0,0,1,.37-.13c.19,0,.26.27.43.3s.39.1.52.23.1.1.07.23c.16.2.53-.2.5.26-.24.1-.14.33-.57.24s-.69-.47-.92-.7c-.13,0,.06.27.06.33m7.54,17.74c.23-.27,1.28-1.52,1.22-2.21a2.79,2.79,0,0,0,.79-2.32,1.62,1.62,0,0,0,.33-.72c.16-.3,0-.53,0-.86a.52.52,0,0,0-.3-.4c-.19,0-.95-.92-1.45-.46a11.46,11.46,0,0,0,.76-1.72c.07-.43-.17-.66-.26-1a3.62,3.62,0,0,0-.27-1.72.63.63,0,0,1,0-.23c-.4-.4-.1-1-.4-1.43a6,6,0,0,0-.79-1.31,1.56,1.56,0,0,1-.46-.5c0-.27-.3-.2-.5-.2a.94.94,0,0,1-.66-.49A8.51,8.51,0,0,0,359.68,5a2.24,2.24,0,0,0-1.18-.46,2.79,2.79,0,0,0-1.19-.43,8.39,8.39,0,0,0-2.75-1.22c-1.78-.17-1.71,1-1.75,1.22.5.89,1.06,1,1.06,1,.36.07.63.5,1,.59l1.55.63a.59.59,0,0,1,.37.37c.13.19.23.39.49.36,0,0,.14,0,1.32,1.35-.19.33-.06.4-.06.4s.2.07.23.82h-.07L358.1,9l.26-.63-1.35-1-.53.43-.76-.36,0-.69-1.58-.53-.4.59L353,6.68,352.78,6h-1.71l-.17.66-.83.13-.36-.59-1.62.53,0,.69-.72.36-.53-.43-.79.56s.13-.33.23-.56c-.2-.16.07-.33.2-.33a1.31,1.31,0,0,0,.76-.26c.1-.07,1.25-.56,1.62-.83a5.77,5.77,0,0,1,.59-.39,2,2,0,0,0,.83-.7c.19-.23.33-.46.49-.69,0-.1,0-.2-.07-.27a5.09,5.09,0,0,0-1.18.17L349.48,4c.2-.33.79-.92.73-1.09s-.43-.1-.66-.06a6.67,6.67,0,0,0-3.54,2,4.5,4.5,0,0,0-.59.66s-.14.1-.17,0a2.29,2.29,0,0,0,.1-.7s0-.33-.1-.4c-.16-.23-.63.07-1,.4a5.7,5.7,0,0,0-1,1.06,6.81,6.81,0,0,0-1.06,1.92c0,.09,0,.26-.2.29,0-.23,0-.59-.16-.79s-.4-.07-.57.07a9.55,9.55,0,0,0-1.15,1.91,9.49,9.49,0,0,0-.93,3.8,8.23,8.23,0,0,0,1,3.63.35.35,0,0,1,0,.3,1.14,1.14,0,0,0-.23-.3,3.9,3.9,0,0,0-.89-.82c-.24,0-.3.13-.34.29a2.5,2.5,0,0,0-.06.53c0,1.22.29,3.14.79,3.67a15.45,15.45,0,0,0,3.2,3.5c.73.43,1,1.19,1.62,1.75a3.39,3.39,0,0,0,1.22.46c.14.1.63.13.73.56a1.94,1.94,0,0,0-.06.4,2.65,2.65,0,0,1-.27.6,1.91,1.91,0,0,1-1.45-.07l-1.92-1.16c-.86-.46-.53-.53-.43-.76a2.6,2.6,0,0,0,.37-1.22c0-.46-1-1-1.06-1.12s-.36-.17-.4,0a10.51,10.51,0,0,1-.33,1.09c-.76-.46-1.38-.3-1.61.07a17,17,0,0,1-.77,2.28c-.13.33.2.89.47,1.25.13.2,4,3.27,6.37,3.27.3,0,1.82-.36,2.22-.43,0,0,.1,0,.06.1-.33.43-1,.43-1.29,1l-.52.33a2.24,2.24,0,0,1-.9.36c-.29.07-.69.14-.69.3.16.53,1.68,1,1.95,1.06a1.19,1.19,0,0,0,1.15-.33c.14-.13.24-.66.6-.7.16-.13.46-.39.79-.69a15.75,15.75,0,0,1,2.08-1.48,1.91,1.91,0,0,1,1.06-.8l.2.17,0,0a2.8,2.8,0,0,0,1.29-.1,4.18,4.18,0,0,0,1.48,1.16,3.48,3.48,0,0,1,.8.72l.33.43a.12.12,0,0,0,.2,0l.56.5a.17.17,0,0,0,.23,0c.06,0,.59.57.82.7.24-.07.24.23.33.37a1.65,1.65,0,0,0,1.85-.6c.13-.07.3.07.43-.07s.73-.4.4-.43-.47-.29-.8-.26c-.16-.07-.23-.3-.39-.36a3.88,3.88,0,0,1-.79-.24c-.79-.39-1.12-.82-1.42-.92-.07-.07-.07-.2,0-.2s1.12.07,2,.1a6.63,6.63,0,0,0,.83,0,13.74,13.74,0,0,0,4.45-2.48c.33-.33.83-.89.83-1.15a13.62,13.62,0,0,0-.6-2c0-.07-.16-.86-.46-.86-.33-.39-1,.13-1.25.07,0,0-.07-.1-.1-.24s-.13-.55-.2-.79c-.56-.26-.2-.29-.07-.46.43-.2.1-.73.57-.89"/><path class="cls-2" d="M363.38,14.54c.3-.07.17-1.09.2-1.39s.14-.3,0-.4-.09.3-.23.3a5.94,5.94,0,0,0-.23-.76c-.13-.49.3-1.42,0-1.52,0,.8-.13.8-.13.8a7.73,7.73,0,0,1-.46-2.51l-.07,0c-.09.07,0,.27-.09.34s0,0-.07,0a3.09,3.09,0,0,0-.24-.43c-.06,0-.09.07-.06.1.06.2.43.86.3,1a.7.7,0,0,0-.3-.33c.16.43.92,1.58.76,1.84l-.3-.29c-.16-.07-.09.06,0,.1a2.72,2.72,0,0,1,.72,1.55l0,.06a4.49,4.49,0,0,1-.33-.39h-.1c0,.26.23.36.4.53.4.26.33,1.19.26,1.45"/><path class="cls-2" d="M363.68,26.82l.23.24-.33.2-.1-.44-.1-.29Zm-.56-.79.23.79.2.67c0,.2.17.49,0,.56l.06.1.43-.27-.06-.1c-.07,0-.17.1-.23,0l-.1-.37.39-.22.27.26c.07.13,0,.17-.07.23l0,.07.63-.36-.06-.1a.17.17,0,0,1-.17,0c-.06,0-.16-.14-.23-.17l-.26-.27-1-.85Z"/><path class="cls-2" d="M356.84,28.64h.1l.1-.56-1.35-.3-.13.56.09,0c.07-.27.2-.43.4-.36s.13,0,.1.26l-.26,1.12c0,.27-.07.4-.27.33l0,.13.73.14,0-.1c-.2,0-.2-.17-.13-.43l.23-1.13c.06-.23,0-.23.2-.19s.23.23.19.49"/><path class="cls-2" d="M357.14,29.34l.17-.4.13-.3.06.43,0,.3Zm.8.36-.07-.33-.2-1.29h-.1l-.33.76-.26.66c-.1.17-.17.46-.37.43v.13l.5,0,0-.1c-.1,0-.2,0-.16-.2l.13-.33.46.06,0,.4c0,.13-.13.1-.19.1v.1l.72.1v-.1L358,30a1.08,1.08,0,0,1-.06-.33"/><path class="cls-2" d="M360.35,29.57l-.2-1c0-.23-.07-.39.13-.43l0-.1-.73.14,0,.13c.2-.07.23.1.27.33l.19,1c.07.23.1.4-.13.43l0,.1.73-.13,0-.13c-.2.06-.23-.07-.26-.33"/><path class="cls-2" d="M359.16,30.06c-.27,0-.24-.2-.24-.49v-.89c0-.27,0-.4.2-.4v-.1h-.76v.1c.23,0,.23.13.23.4v1c0,.26,0,.4-.23.4v.13h1.29l0-.6h-.1c-.07.33-.17.43-.43.43"/><rect class="cls-1" x="177.62" y="3.08" width="1.11" height="8.88"/><polygon class="cls-1" points="180.26 2.65 186.92 9.63 186.92 3.08 188.03 3.08 188.03 12.32 181.37 5.34 181.37 11.95 180.26 11.95 180.26 2.65"/><rect class="cls-1" x="189.58" y="3.08" width="1.11" height="8.88"/><polygon class="cls-1" points="197.74 10.94 197.74 11.95 191.44 11.95 195.94 4.09 192.08 4.09 192.08 3.08 197.74 3.08 193.24 10.94 197.74 10.94"/><rect class="cls-1" x="198.5" y="3.08" width="1.11" height="8.88"/><path class="cls-1" d="M202.47,9.73l-1,2.22h-1.19l4.24-9.25L208.74,12h-1.19l-1-2.22Zm2-4.6-1.58,3.59h3.15Z"/><polygon class="cls-1" points="211.17 11.95 210.06 11.95 210.06 4.09 207.96 4.09 207.96 3.08 213.28 3.08 213.28 4.09 211.17 4.09 211.17 11.95"/><rect class="cls-1" x="214" y="3.08" width="1.11" height="8.88"/><polygon class="cls-1" points="219.54 9.65 222.17 3.08 223.38 3.08 219.54 12.42 215.68 3.08 216.89 3.08 219.54 9.65"/><path class="cls-1" d="M224.42,9.73l-1,2.22h-1.19l4.23-9.25L230.69,12H229.5l-1-2.22Zm2-4.6-1.57,3.59H228Z"/><path class="cls-1" d="M178.77,23.73h-1.11V14.85h1.27c2.73,0,3.58.94,3.58,2.57,0,1.87-1.43,2.59-3.11,2.59h-.63Zm0-4.71h.35c1.13,0,2.35-.22,2.35-1.63s-1.32-1.55-2.41-1.55h-.29Z"/><polygon class="cls-1" points="185.06 17.86 185.04 17.86 184 23.73 182.86 23.73 184.67 14.47 187.72 21.46 190.77 14.47 192.58 23.73 191.44 23.73 190.4 17.86 190.38 17.86 187.72 23.91 185.06 17.86"/><rect class="cls-1" x="194" y="14.85" width="1.11" height="8.88"/><path class="cls-1" d="M108.89,49.38h-1.16l-2.25-3.24h-.39v3.24h-1V41.73h1.16a4.1,4.1,0,0,1,2,.35,2.12,2.12,0,0,1,1,1.83,2.08,2.08,0,0,1-1.83,2.14Zm-3.8-4h.3c1,0,2-.18,2-1.4s-1.14-1.37-2.08-1.37h-.25Z"/><path class="cls-1" d="M110.68,42.46a.63.63,0,0,1-1.25,0,.63.63,0,1,1,1.25,0m-.17,6.92h-.91V44.63h.91Z"/><path class="cls-1" d="M116.29,49.38h-.91v-.74h0a2,2,0,0,1-1.62.9A2.34,2.34,0,0,1,111.47,47a2.32,2.32,0,0,1,2.24-2.48,2,2,0,0,1,1.65.93h0v-.79h.91ZM115.43,47a1.56,1.56,0,0,0-1.54-1.7,1.72,1.72,0,1,0,1.54,1.7"/><path class="cls-1" d="M121,46a1.73,1.73,0,0,0-1.36-.64A1.64,1.64,0,0,0,118.05,47a1.6,1.6,0,0,0,1.64,1.69,1.73,1.73,0,0,0,1.3-.63v1.16a2.62,2.62,0,0,1-1.31.32,2.53,2.53,0,1,1,0-5,2.64,2.64,0,0,1,1.26.31Z"/><path class="cls-1" d="M125.44,46a1.73,1.73,0,0,0-1.36-.64A1.64,1.64,0,0,0,122.5,47a1.6,1.6,0,0,0,1.64,1.69,1.73,1.73,0,0,0,1.3-.63v1.16a2.6,2.6,0,0,1-1.31.32,2.53,2.53,0,1,1,.05-5,2.61,2.61,0,0,1,1.26.31Z"/><path class="cls-1" d="M127,47.15a1.5,1.5,0,0,0,1.43,1.58,1.55,1.55,0,0,0,1.42-.93l.77.44a2.46,2.46,0,0,1-2.2,1.3,2.31,2.31,0,0,1-2.33-2.5,2.26,2.26,0,0,1,2.31-2.55c1.51,0,2.22,1.11,2.22,2.52v.14Zm2.71-.69a1.28,1.28,0,0,0-1.31-1.18A1.36,1.36,0,0,0,127,46.46Z"/><path class="cls-1" d="M132.35,45.27h0a1.61,1.61,0,0,1,1.43-.78c1.34,0,1.68.9,1.68,2.06v2.83h-.91V46.66c0-.81-.11-1.36-1-1.36-1.17,0-1.17,1-1.17,1.9v2.18h-.92V44.63h.92Z"/><path class="cls-1" d="M140.26,48.64h0a2,2,0,0,1-1.61.9,2.54,2.54,0,0,1,0-5,1.93,1.93,0,0,1,1.65.93h0V40.57h.92v8.81h-.92Zm.05-1.64a1.55,1.55,0,0,0-1.54-1.7,1.72,1.72,0,1,0,1.54,1.7"/><path class="cls-1" d="M143.52,42.46a.63.63,0,0,1-.63.62.63.63,0,1,1,0-1.26.64.64,0,0,1,.63.64m-.17,6.92h-.92V44.63h.92Z"/><path class="cls-1" d="M149.12,49.38h-.91v-.74h0a2,2,0,0,1-1.61.9A2.34,2.34,0,0,1,144.31,47a2.32,2.32,0,0,1,2.24-2.48,1.92,1.92,0,0,1,1.64.93h0v-.79h.91ZM148.26,47a1.53,1.53,0,1,0-3,0,1.53,1.53,0,1,0,3,0"/><path class="cls-1" d="M151.18,45.23h0a1.53,1.53,0,0,1,1.26-.74,1.5,1.5,0,0,1,1.36.84,1.73,1.73,0,0,1,1.47-.84c1.24,0,1.57,1,1.57,2v2.84H156V46.69c0-.61-.09-1.39-.89-1.39-1,0-1,1-1,1.74v2.34h-.91V46.86c0-.62,0-1.56-.88-1.56s-1,1-1,1.74v2.34h-.92V44.63h.92Z"/><path class="cls-1" d="M162.75,47a2.54,2.54,0,1,1-2.53-2.52A2.5,2.5,0,0,1,162.75,47m-4.16,0a1.63,1.63,0,1,0,1.63-1.65A1.65,1.65,0,0,0,158.59,47"/><rect class="cls-1" x="166.76" y="40.57" width="0.91" height="8.8"/><path class="cls-1" d="M173.61,47a2.54,2.54,0,1,1-2.53-2.52A2.5,2.5,0,0,1,173.61,47m-4.15,0a1.62,1.62,0,1,0,1.62-1.65A1.65,1.65,0,0,0,169.46,47"/><path class="cls-1" d="M179.49,45.71a.7.7,0,0,0-.61-.41.49.49,0,0,0-.5.46c0,.42.55.6,1.11.86s1.1.6,1.1,1.35A1.59,1.59,0,0,1,179,49.54a1.74,1.74,0,0,1-1.64-1.07l.78-.35a1,1,0,0,0,.86.61.68.68,0,0,0,.72-.67.57.57,0,0,0-.33-.52l-.89-.48c-.53-.28-.92-.54-.92-1.19a1.39,1.39,0,0,1,1.4-1.38,1.4,1.4,0,0,1,1.3.83Z"/><polygon class="cls-1" points="183.03 47.59 184.4 44.63 185.42 44.63 183.03 49.54 180.65 44.63 181.67 44.63 183.03 47.59"/><path class="cls-1" d="M187.15,42.46a.63.63,0,0,1-.63.62.63.63,0,1,1,.63-.62M187,49.38h-.91V44.63H187Z"/><rect class="cls-1" x="188.29" y="40.57" width="0.91" height="8.8"/><path class="cls-1" d="M191.28,44.63v2.63c0,.76.2,1.43,1.1,1.43s1.09-.67,1.09-1.43V44.63h.92v2.73c0,1.3-.61,2.18-2,2.18s-2-.88-2-2.18V44.63Z"/><path class="cls-1" d="M196.42,45.42h0a2,2,0,0,1,1.66-.93,2.54,2.54,0,0,1,0,5,2,2,0,0,1-1.62-.9h0v3.45h-.91V44.63h.91Zm3,1.58a1.53,1.53,0,1,0-3,0,1.54,1.54,0,1,0,3,0"/><path class="cls-1" d="M202.1,45.42h0a1.94,1.94,0,0,1,1.65-.93,2.54,2.54,0,0,1,0,5,2,2,0,0,1-1.61-.9h0v3.45h-.91V44.63h.91Zm3,1.58a1.55,1.55,0,0,0-1.54-1.7,1.72,1.72,0,1,0,1.54,1.7"/><path class="cls-1" d="M211.63,47a2.54,2.54,0,1,1-2.54-2.52A2.5,2.5,0,0,1,211.63,47m-4.16,0a1.63,1.63,0,1,0,1.62-1.65A1.65,1.65,0,0,0,207.47,47"/><path class="cls-1" d="M181.77,34.13v.4h-4.15l2.51-2.76a3.72,3.72,0,0,0,1.24-2.11,1.57,1.57,0,0,0-1.59-1.55,1.52,1.52,0,0,0-1.59,1.59h-.43a1.94,1.94,0,0,1,.42-1.28,2.28,2.28,0,0,1,1.6-.71,2,2,0,0,1,2,2A3.65,3.65,0,0,1,180.53,32l-1.95,2.18Z"/><path class="cls-1" d="M187.45,31.12c0,1.39-.73,3.5-2.44,3.5s-2.45-2.11-2.45-3.5.78-3.41,2.45-3.41,2.44,2,2.44,3.41m-.43,0c0-1.06-.58-3-2-3s-2,1.95-2,3,.58,3.1,2,3.1,2-1.89,2-3.1"/><polygon class="cls-1" points="188.31 28.94 188.31 27.8 190.51 27.8 190.51 34.53 189.2 34.53 189.2 28.94 188.31 28.94"/><path class="cls-1" d="M196.4,32.29v1.05h-.72v1.19h-1.23V33.34h-3v-.59l3-5.08h1.19v4.62Zm-2-2.68h0L193,32.29h1.43Z"/><polygon class="cls-1" points="200.91 31.56 197.58 30.08 197.58 29.75 201.29 31.36 201.29 31.75 197.58 33.45 197.58 33.12 200.91 31.56"/><path class="cls-1" d="M206.4,33.39v1.14h-4.53l1.71-2.16c.47-.59,1.46-1.76,1.46-2.52,0-.48-.31-1.09-.86-1.09s-.86.65-.83,1.15H202a2.2,2.2,0,0,1,2.22-2.29,2.15,2.15,0,0,1,2.19,2.17,3.76,3.76,0,0,1-1.17,2.44l-1,1.16Z"/><path class="cls-1" d="M211.63,31.17c0,1.44-.62,3.54-2.41,3.54s-2.41-2.1-2.41-3.54.61-3.55,2.41-3.55,2.41,2.11,2.41,3.55m-3.53,0c0,.66.19,2.41,1.12,2.41s1.13-1.75,1.13-2.41-.19-2.4-1.13-2.4-1.12,1.72-1.12,2.4"/><path class="cls-1" d="M137.78,8.91a5.44,5.44,0,0,1,1.61,3.75,6.05,6.05,0,1,1-12.09,0,5.44,5.44,0,0,1,1.61-3.75V2.43a10.94,10.94,0,0,0-7.39,10.2,11.83,11.83,0,0,0,23.65,0,10.94,10.94,0,0,0-7.39-10.2ZM109.7,6.83h.94c2.15,0,4,0,4,2.72s-2,2.61-4,2.61h-.94Zm-5.55-4.48V23.73h5.55V16.64h3.15c4.85,0,7.57-2.21,7.57-7.26s-3.17-7-7.77-7Zm58.58,0V15.42h-.06L152.49,2.35h-5.56V23.73h5.56V10.63h0l10.19,13.1h5.55V2.35Z"/><g class="cls-3"><rect class="cls-1" x="104.15" y="2.35" width="64.14" height="22.08"/></g><rect class="cls-1" x="130.76" width="5.16" height="11.42"/><g class="cls-4"><rect class="cls-1" x="130.76" width="5.16" height="11.42"/></g></g></g></svg>