<?xml version="1.0" encoding="UTF-8"?>
<!DOCTYPE svg PUBLIC "-//W3C//DTD SVG 1.1//EN" "http://www.w3.org/Graphics/SVG/1.1/DTD/svg11.dtd">
<svg version="1.1" xmlns="http://www.w3.org/2000/svg" xmlns:xlink="http://www.w3.org/1999/xlink" x="0" y="0" width="148" height="150" viewBox="0, 0, 148, 150">
  <defs>
    <clipPath id="Clip_1">
      <path d="M73.795,150 C115.736,149.411 146.548,116.275 147.579,75.031 C147.579,33.688 114.476,0.061 73.787,0.061 C31.881,0.649 1.028,33.759 0,74.987 L0,75.075 C0.531,116.656 32.253,148.931 73.775,150 L73.795,150 z M73.787,142.66 C37.086,142.659 7.229,112.32 7.229,75.031 C7.229,37.742 37.086,7.406 73.787,7.406 C110.492,7.406 140.353,37.742 140.353,75.031 C140.353,112.32 110.492,142.659 73.787,142.659 z"/>
    </clipPath>
    <clipPath id="Clip_2">
      <path d="M147.579,150 L147.579,0.061 L0,0.061 L0,150 L147.579,150 z"/>
    </clipPath>
    <clipPath id="Clip_3">
      <path d="M107.369,106.857 C109.377,106.857 111,105.246 111,103.26 C111,101.274 109.377,99.667 107.369,99.667 L40.627,99.667 C38.623,99.667 37,101.274 37,103.26 C37,105.246 38.623,106.857 40.627,106.857 L107.369,106.857 z"/>
    </clipPath>
    <clipPath id="Clip_4">
      <path d="M101.752,75.219 C111.557,75.219 119.539,67.181 119.539,57.313 C119.539,55.285 117.907,53.648 115.898,53.648 C113.888,53.648 112.261,55.285 112.261,57.313 C112.261,63.145 107.549,67.893 101.752,67.893 C95.955,67.893 91.239,63.145 91.239,57.313 C91.239,55.285 89.612,53.648 87.602,53.648 C85.593,53.648 83.962,55.285 83.962,57.313 C83.962,67.181 91.943,75.219 101.752,75.219 z"/>
    </clipPath>
    <clipPath id="Clip_5">
      <path d="M44.827,75.219 C54.637,75.219 62.615,67.183 62.615,57.309 C62.615,55.285 60.984,53.648 58.978,53.648 C56.964,53.648 55.337,55.285 55.337,57.309 C55.337,63.146 50.625,67.892 44.827,67.892 C39.029,67.892 34.313,63.146 34.313,57.309 C34.313,55.285 32.686,53.648 30.676,53.648 C28.666,53.648 27.038,55.285 27.038,57.309 C27.038,67.183 35.017,75.219 44.827,75.219 z"/>
    </clipPath>
  </defs>
  <g id="Layer_1">
    <g opacity="0.604">
      <g clip-path="url(#Clip_2)">
        <g clip-path="url(#Clip_1)">
          <path d="M-5.001,-4.939 L152.579,-4.939 L152.579,155 L-5.001,155 z" fill="#000000"/>
        </g>
      </g>
      <g clip-path="url(#Clip_3)">
        <path d="M32,94.667 L116,94.667 L116,111.857 L32,111.857 z" fill="#000000"/>
      </g>
      <g clip-path="url(#Clip_4)">
        <path d="M78.962,48.648 L124.538,48.648 L124.538,80.219 L78.962,80.219 z" fill="#000000"/>
      </g>
      <g clip-path="url(#Clip_5)">
        <path d="M22.038,48.648 L67.615,48.648 L67.615,80.219 L22.038,80.219 z" fill="#000000"/>
      </g>
    </g>
  </g>
</svg>
