<?xml version="1.0" encoding="UTF-8"?>
<!DOCTYPE svg PUBLIC "-//W3C//DTD SVG 1.1//EN" "http://www.w3.org/Graphics/SVG/1.1/DTD/svg11.dtd">
<svg version="1.1" xmlns="http://www.w3.org/2000/svg" xmlns:xlink="http://www.w3.org/1999/xlink" x="0" y="0" width="40" height="11" viewBox="0, 0, 40, 11">
  <g id="Background">
    <rect x="0" y="0" width="40" height="11" fill="#000000" fill-opacity="0"/>
  </g>
  <g id="Livello_1">
    <path d="M0.954,0 C1.292,0.138 1.162,0.052 1.367,0.22 L10.78,9.633 C11.093,9.945 11.093,10.453 10.78,10.765 C10.467,11.078 9.96,11.078 9.647,10.765 L0.235,1.353 C-0.078,1.04 -0.078,0.533 0.235,0.22 C0.488,-0.016 0.632,0 0.954,0 z" fill="#666666"/>
    <path d="M19.779,0 C20.117,0.138 19.986,0.052 20.192,0.22 C20.505,0.533 20.505,1.04 20.192,1.353 L10.78,10.765 C10.467,11.078 9.96,11.078 9.647,10.765 C9.334,10.453 9.334,9.945 9.647,9.633 L19.059,0.22 C19.313,-0.016 19.457,0 19.779,0 z" fill="#666666"/>
  </g>
</svg>
