<?xml version="1.0" encoding="UTF-8"?>
<!DOCTYPE svg PUBLIC "-//W3C//DTD SVG 1.1//EN" "http://www.w3.org/Graphics/SVG/1.1/DTD/svg11.dtd">
<svg version="1.1" xmlns="http://www.w3.org/2000/svg" xmlns:xlink="http://www.w3.org/1999/xlink" x="0" y="0" width="87" height="25.5" viewBox="0, 0, 87, 25.5">
  <defs>
    <clipPath id="Clip_1">
      <path d="M25.47,4.618 L29.235,3.752 L29.235,0.5 L25.47,1.349 L25.47,4.618 z M14.145,20.142 C15.375,20.142 16.275,19.902 16.77,19.613 L16.77,16.361 C16.29,16.569 13.92,17.306 13.92,14.935 L13.92,9.248 L16.77,9.248 L16.77,5.835 L13.92,5.835 L13.935,2.359 L10.275,3.192 L10.26,16.025 C10.26,18.396 11.925,20.142 14.145,20.142 z M49.065,20.126 C50.85,20.126 52.2,19.694 53.22,19.085 L53.22,15.88 C52.2,16.425 51.03,16.762 49.545,16.762 C48.09,16.762 46.8,16.217 46.635,14.326 L53.97,14.326 C53.97,14.118 54,13.285 54,12.9 C54,8.799 52.14,5.563 48.585,5.563 C45.015,5.563 42.855,8.799 42.855,12.868 C42.855,17.691 45.405,20.126 49.065,20.126 z M50.46,11.379 L46.59,11.379 C46.59,9.568 47.625,8.815 48.57,8.815 C49.485,8.815 50.46,9.568 50.46,11.379 z M30.63,24.5 L34.38,23.651 L34.395,19.117 C34.935,19.533 35.73,20.126 37.05,20.126 C39.735,20.126 42.18,17.819 42.18,12.74 C42.165,8.094 39.69,5.563 37.065,5.563 C35.595,5.563 34.65,6.3 34.125,6.812 L33.93,5.819 L30.63,5.819 L30.63,24.5 z M36.165,16.601 C35.28,16.601 34.755,16.265 34.395,15.848 L34.38,9.905 C34.77,9.44 35.31,9.12 36.165,9.12 C37.53,9.12 38.475,10.753 38.475,12.852 C38.475,14.999 37.545,16.601 36.165,16.601 z M5.382,20.066 C7.917,19.584 9.279,18.167 9.525,15.624 C9.51,10.85 3.795,11.699 3.795,9.904 C3.795,9.28 4.275,9.039 5.07,9.039 C6.21,9.039 7.65,9.408 8.79,10.065 L8.79,6.3 C7.545,5.771 6.315,5.563 5.07,5.563 C2.025,5.563 0,7.261 0,10.097 C0,14.519 5.7,13.814 5.7,15.72 C5.7,16.457 5.1,16.697 4.26,16.697 C3.015,16.697 1.425,16.153 0.165,15.416 L0.165,19.229 C1.445,19.855 2.854,20.067 4.26,20.142 L5.382,20.066 z M21.705,19.854 L21.705,10.353 C22.59,9.12 24.09,9.344 24.555,9.52 L24.555,5.835 C24.075,5.643 22.32,5.29 21.435,7.021 L21.195,5.835 L17.955,5.835 L17.955,19.854 L21.705,19.854 z M29.235,19.854 L29.235,5.835 L25.47,5.835 L25.47,19.854 L29.235,19.854 z"/>
    </clipPath>
    <clipPath id="Clip_2">
      <path d="M83.228,22.595 C84.805,22.594 86.089,21.311 86.089,19.735 L86.088,11.025 C86.089,9.506 84.896,8.256 83.399,8.168 L83.399,6.502 C83.399,3.079 80.614,0.294 77.191,0.294 C73.769,0.294 70.983,3.079 70.983,6.502 L70.983,8.168 C69.483,8.257 68.293,9.506 68.293,11.024 L68.292,19.735 C68.293,21.311 69.575,22.594 71.155,22.594 L83.228,22.595 z M82.683,8.163 L71.699,8.163 L71.699,6.502 C71.699,3.474 74.163,1.01 77.191,1.01 C80.22,1.01 82.683,3.474 82.683,6.502 L82.683,8.163 z"/>
    </clipPath>
    <clipPath id="Clip_3">
      <path d="M67,24 L87,24 L87,-1 L67,-1 z"/>
    </clipPath>
  </defs>
  <g id="Layer_1" transform="translate(0, 1)">
    <g clip-path="url(#Clip_1)" opacity="0.3">
      <path d="M-5,-4.5 L59,-4.5 L59,29.5 L-5,29.5 z" fill="#1A1919"/>
    </g>
    <g opacity="0.6">
      <g clip-path="url(#Clip_2)">
        <path d="M63.293,-4.706 L91.089,-4.706 L91.089,27.594 L63.293,27.594 z" fill="#FFFFFF"/>
      </g>
      <g clip-path="url(#Clip_3)">
        <path d="M70.983,8.168 L70.983,6.502 C70.983,3.079 73.769,0.294 77.191,0.294 C80.614,0.294 83.399,3.079 83.399,6.502 L83.399,8.168 C84.896,8.256 86.089,9.506 86.089,11.024 L86.089,19.734 C86.089,21.31 84.804,22.594 83.229,22.594 L71.155,22.594 C69.575,22.594 68.293,21.31 68.293,19.734 L68.293,11.024 C68.293,9.506 69.483,8.257 70.983,8.168 z M71.699,8.162 L82.683,8.162 L82.683,6.502 C82.683,3.474 80.22,1.01 77.191,1.01 C74.163,1.01 71.699,3.474 71.699,6.502 L71.699,8.162 z" fill-opacity="0" stroke="#979797" stroke-width="1"/>
      </g>
    </g>
  </g>
</svg>
