<?xml version="1.0" encoding="UTF-8"?>
<!DOCTYPE svg PUBLIC "-//W3C//DTD SVG 1.1//EN" "http://www.w3.org/Graphics/SVG/1.1/DTD/svg11.dtd">
<svg version="1.1" xmlns="http://www.w3.org/2000/svg" xmlns:xlink="http://www.w3.org/1999/xlink" x="0" y="0" width="29" height="19" viewBox="0, 0, 29, 19">
  <g id="Page-1" transform="translate(0, -2)">
    <path d="M26.58,21 L2.42,21 C1.094,21.011 0.011,19.946 0,18.62 L0,4.38 C0.011,3.054 1.094,1.989 2.42,2 L26.58,2 C27.906,1.989 28.989,3.054 29,4.38 L29,18.63 C28.984,19.952 27.902,21.011 26.58,21 z" fill="#F6F9FC" id="shape"/>
    <path d="M0,18 L0,18.63 C0.016,19.952 1.098,21.011 2.42,21 L26.58,21 C27.906,21.011 28.989,19.946 29,18.62 L29,18 L0,18 z" fill="#F99F1B" id="shape"/>
    <path d="M0,5 L0,4.37 C0.016,3.048 1.098,1.989 2.42,2 L26.58,2 C27.906,1.989 28.989,3.054 29,4.38 L29,5 L0,5 z M13.9,8.12 L12.42,14.89 L10.65,14.89 L12.11,8.12 L13.89,8.12 z M21.37,12.5 L22.31,9.95 L22.85,12.5 L21.37,12.5 z M23.36,14.9 L25,14.9 L23.56,8.12 L22.05,8.12 C21.717,8.112 21.415,8.311 21.29,8.62 L18.62,14.89 L20.49,14.89 L20.86,13.89 L23.14,13.89 L23.36,14.89 z M18.72,12.68 C18.72,10.9 16.21,10.8 16.22,10 C16.23,9.76 16.47,9.5 16.98,9.43 C17.58,9.373 18.184,9.477 18.73,9.73 L19.04,8.3 C18.62,8.15 18.07,8 17.38,8 C15.62,8 14.38,8.92 14.38,10.24 C14.37,11.21 15.26,11.76 15.93,12.08 C16.63,12.41 16.86,12.63 16.86,12.92 C16.85,13.38 16.3,13.58 15.79,13.58 C14.89,13.6 14.38,13.35 13.97,13.16 L13.64,14.64 C14.06,14.83 14.83,14.99 15.62,15 C17.49,15 18.71,14.1 18.72,12.68 z M11.35,8.12 L8.47,14.9 L6.6,14.9 L5.18,9.5 C5.09,9.17 5.01,9.05 4.75,8.9 C4.192,8.639 3.604,8.448 3,8.33 L3.04,8.13 L6.07,8.13 C6.45,8.13 6.8,8.39 6.89,8.83 L7.64,12.74 L9.49,8.14 L11.35,8.14 z" fill="#2D4990" id="shape"/>
  </g>
</svg>
