<?xml version="1.0" encoding="UTF-8"?>
<!DOCTYPE svg PUBLIC "-//W3C//DTD SVG 1.1//EN" "http://www.w3.org/Graphics/SVG/1.1/DTD/svg11.dtd">
<svg version="1.1" xmlns="http://www.w3.org/2000/svg" xmlns:xlink="http://www.w3.org/1999/xlink" x="0" y="0" width="30" height="30.001" viewBox="0, 0, 30, 30.001">
  <g id="Livello_1" transform="translate(-235, -234.999)">
    <path d="M262.49,234.999 C263.138,234.999 263.763,235.231 264.272,235.742 C265.243,236.712 265.243,238.309 264.272,239.281 L253.565,249.998 L264.272,260.707 C265.243,261.68 265.243,263.276 264.272,264.271 C263.277,265.243 261.68,265.243 260.709,264.271 L250.009,253.559 L239.309,264.271 C238.314,265.243 236.718,265.243 235.746,264.271 C234.751,263.276 234.751,261.68 235.746,260.707 L246.452,249.998 L235.746,239.281 C234.751,238.309 234.751,236.712 235.746,235.742 C236.232,235.231 236.88,234.999 237.528,234.999 C238.153,234.999 238.8,235.231 239.309,235.742 L250.009,246.442 L260.709,235.742 C261.195,235.231 261.842,234.999 262.49,234.999 z" fill="#CCCCCC" id="Layer_1"/>
  </g>
</svg>
