<?xml version="1.0" encoding="UTF-8"?>
<!DOCTYPE svg PUBLIC "-//W3C//DTD SVG 1.1//EN" "http://www.w3.org/Graphics/SVG/1.1/DTD/svg11.dtd">
<svg version="1.1" xmlns="http://www.w3.org/2000/svg" xmlns:xlink="http://www.w3.org/1999/xlink" x="0" y="0" width="145" height="76.919" viewBox="0, 0, 145, 76.919">
  <g id="Livello_1">
    <path d="M73.359,76.918 C75.257,76.144 74.525,76.627 75.682,75.682 C77.439,73.925 77.439,71.075 75.682,69.318 L7.682,1.318 C5.925,-0.439 3.075,-0.439 1.318,1.318 C-0.439,3.075 -0.439,5.925 1.318,7.682 L69.318,75.682 C70.741,77.009 71.551,76.918 73.359,76.918 z" fill="#666666"/>
    <path d="M73.359,76.918 C75.257,76.144 74.525,76.627 75.682,75.682 L143.682,7.682 C145.439,5.925 145.439,3.075 143.682,1.318 C141.925,-0.439 139.075,-0.439 137.318,1.318 L69.318,69.318 C67.561,71.075 67.561,73.925 69.318,75.682 C70.741,77.009 71.551,76.918 73.359,76.918 z" fill="#666666"/>
  </g>
</svg>
