<svg xmlns="http://www.w3.org/2000/svg" xmlns:xlink="http://www.w3.org/1999/xlink" width="93" height="90" viewBox="0 0 93 90">
    <defs>
        <path id="yvtvupc0da" d="M0 0L93 0 93 90 0 90z"/>
    </defs>
    <g fill="none" fill-rule="evenodd">
        <path fill="#FFF" d="M8.26 3h76.48c3.535 0 6.4 3.09 6.4 6.904V63H1.86V9.904C1.86 6.09 4.725 3 8.26 3"/>
        <mask id="1n0l8j6mkb" fill="#fff">
            <use xlink:href="#yvtvupc0da"/>
        </mask>
        <path fill="#000" d="M83.847 71.607H9.157c-3.453 0-6.25-3.01-6.25-6.724v-.448c0-.498.375-.902.838-.902h85.51c.463 0 .839.404.839.902v.451c0 3.711-2.797 6.72-6.247 6.72zm-46.909 3.901c.059-.445.413-.775.83-.775h17.464c.418 0 .771.33.83.775l2.433 11.365-23.902-.003 2.345-11.362zM9.156 3.127h74.688c3.452 0 6.25 3.01 6.25 6.723v49.655c0 .498-.376.902-.839.902H3.745c-.463 0-.839-.404-.839-.902V9.85c0-3.713 2.798-6.723 6.25-6.723zM83.844 0H9.156C4.1 0 0 4.41 0 9.85v55.036c0 5.44 4.1 9.85 9.156 9.85H33.14c.51 0 .902.486.83 1.029L31.76 86.098c-.059.445-.413.775-.83.775h-4.662c-.463 0-.838.404-.838.902v1.323c0 .498.375.902.838.902h40.464c.463 0 .838-.404.838-.902v-1.323c0-.498-.375-.902-.838-.902H62.07c-.417 0-.771-.33-.83-.775l-2.21-10.333c-.07-.543.32-1.029.83-1.029h23.984c5.057 0 9.156-4.41 9.156-9.85V9.85C93 4.41 88.9 0 83.844 0z" mask="url(#1n0l8j6mkb)"/>
        <path fill="#000" d="M38.462 42.75c-.204-.372-.084-.85.268-1.065.35-.214.8-.088 1.004.284 1.397 2.558 3.99 4.147 6.766 4.147s5.37-1.59 6.767-4.147c.203-.372.653-.5 1.004-.284.352.216.471.693.268 1.065-1.66 3.037-4.74 4.923-8.039 4.923-3.298 0-6.378-1.886-8.038-4.923zm7.913-14.718v11.44h1.493c.406 0 .735.348.735.778 0 .43-.329.779-.735.779H45.64c-.406 0-.734-.349-.734-.779V28.032c0-.43.328-.779.734-.779.407 0 .735.349.735.78zm5.575 3.43c-.406 0-.735-.348-.735-.778 0-1.892 1.452-3.43 3.237-3.43 1.785 0 3.237 1.538 3.237 3.43 0 .43-.328.779-.735.779-.406 0-.735-.349-.735-.779 0-1.033-.792-1.873-1.767-1.873-.975 0-1.767.84-1.767 1.873 0 .43-.33.779-.735.779zm-13.117-2.651c-.974 0-1.767.84-1.767 1.873 0 .43-.329.779-.735.779-.406 0-.735-.349-.735-.779 0-1.892 1.453-3.43 3.237-3.43 1.785 0 3.236 1.538 3.236 3.43 0 .43-.328.779-.734.779-.406 0-.735-.349-.735-.779 0-1.033-.793-1.873-1.767-1.873zm-11.844-6.748C28.225 12.336 36.612 5 46.5 5s18.275 7.336 19.511 17.063c.054.426-.228.819-.63.876-.034.005-.067.007-.1.007-.361 0-.677-.284-.726-.675-1.138-8.958-8.9-15.714-18.055-15.714s-16.917 6.756-18.054 15.714c-.054.425-.413.725-.826.668-.402-.057-.684-.45-.63-.876zm-2.27 6.092c0-1.317.845-2.42 1.986-2.762v10.655c-1.141-.342-1.986-1.444-1.986-2.762v-5.13zm3.455-2.882h1.102c-.01.27-.02.542-.02.817v10.078h-1.082V25.273zM46.5 9.37c7.213 0 13.297 5.164 15.169 12.183-1.287.162-4.216.173-7.784-2.133-.233-.15-.525-.151-.76-.003-.233.148-.37.421-.357.71.093 1.817-.578 2.92-2.112 3.469-4.893 1.755-16.224-3.09-18.298-4.866 2.574-5.534 7.937-9.36 14.142-9.36zm18.326 15.903v10.895h-1.082V26.09c0-.275-.009-.546-.02-.817h1.102zm1.47.12c1.14.343 1.985 1.445 1.985 2.762v5.13c0 1.319-.844 2.42-1.985 2.763V25.393zM49.71 55.715c0 .4-.308.728-.687.728h-5.047c-.38 0-.687-.327-.687-.728v-.739c0-.401.308-.728.687-.728h5.047c.379 0 .687.327.687.728v.74zm-22.272-17.99h1.818v.675c0 2.9.63 5.678 1.87 8.257.185.383.625.535.989.34.362-.195.505-.664.32-1.048-1.135-2.358-1.71-4.897-1.71-7.549V26.09c0-2.085.378-4.073 1.039-5.916 2.801 2.085 10.77 5.345 16.322 5.345 1.136 0 2.172-.136 3.04-.448 1.753-.628 2.79-1.89 3.054-3.686 3.579 1.974 6.488 1.89 7.823 1.693.169.978.27 1.982.27 3.012V38.4c0 7.398-4.557 13.834-11.178 15.978-.25-.969-1.08-1.687-2.072-1.687h-5.047c-1.19 0-2.156 1.025-2.156 2.285v.74c0 1.26.967 2.284 2.156 2.284h5.047c1.103 0 2.004-.885 2.13-2.019 7.438-2.219 12.59-9.356 12.59-17.58v-.675h1.817c2.31 0 4.189-1.992 4.189-4.44v-5.13c0-2.449-1.88-4.44-4.189-4.44h-1.968C62.491 14.754 55.25 7.811 46.5 7.811s-15.99 6.943-17.093 15.903H27.44c-2.31 0-4.189 1.992-4.189 4.44v5.13c0 2.449 1.88 4.44 4.19 4.44z"/>
    </g>
</svg>
