<svg xmlns="http://www.w3.org/2000/svg" width="125" height="125" viewBox="0 0 125 125">
    <g fill="none" fill-rule="evenodd">
        <path fill="#000" d="M103.922 58.595H84.433c-.132-8.067-1.268-15.557-3.18-22.034 4.398-1.084 8.638-2.512 12.651-4.266 5.963 7.197 9.66 16.33 10.018 26.3zM93.904 88.07c-4.013-1.754-8.253-3.182-12.65-4.266 1.911-6.478 3.047-13.967 3.18-22.034h19.488c-.358 9.97-4.055 19.101-10.018 26.3zM70.67 102.684c3.91-3.54 7.217-9.024 9.613-15.85 3.944.961 7.76 2.204 11.383 3.724-5.636 5.84-12.87 10.121-20.996 12.126zm-8.9 1.135V84.474c5.201.095 10.327.648 15.278 1.642-3.583 9.905-9.108 16.696-15.278 17.703zm0-42.05h19.488c-.14 7.733-1.3 15.027-3.207 21.308-5.272-1.084-10.738-1.68-16.28-1.778V61.77zm0-22.704c5.543-.097 11.01-.695 16.281-1.78 1.906 6.283 3.067 13.577 3.207 21.31H61.77v-19.53zm0-22.52c6.17 1.008 11.695 7.8 15.278 17.702-4.95.994-10.076 1.548-15.278 1.643V16.544zm29.896 13.261c-3.625 1.52-7.439 2.763-11.383 3.724-2.396-6.828-5.704-12.31-9.613-15.85 8.125 2.005 15.36 6.286 20.996 12.126zM58.593 35.89c-5.2-.095-10.327-.649-15.277-1.643 3.581-9.903 9.107-16.694 15.277-17.703V35.89zm0 22.705H39.105c.14-7.733 1.301-15.027 3.207-21.31 5.273 1.085 10.738 1.683 16.281 1.78v19.53zm0 22.704c-5.543.097-11.008.694-16.28 1.778-1.907-6.28-3.067-13.575-3.208-21.308h19.488V81.3zm0 22.52c-6.17-1.008-11.695-7.799-15.277-17.703 4.95-.994 10.076-1.547 15.277-1.642v19.345zM28.7 90.56c3.623-1.52 7.44-2.764 11.384-3.725 2.395 6.826 5.703 12.31 9.612 15.85-8.127-2.005-15.36-6.286-20.996-12.126zm-2.24-2.489c-5.963-7.198-9.66-16.329-10.018-26.3H35.93c.133 8.067 1.268 15.556 3.18 22.034-4.398 1.084-8.639 2.512-12.65 4.266zm0-55.776c4.012 1.754 8.253 3.182 12.651 4.266-1.912 6.477-3.047 13.967-3.18 22.034H16.441c.358-9.97 4.055-19.102 10.017-26.3zM49.693 17.68c-3.91 3.54-7.217 9.022-9.612 15.85-3.946-.96-7.76-2.205-11.385-3.724 5.637-5.84 12.871-10.12 20.997-12.126zm10.487-4.455c-25.89 0-46.956 21.066-46.956 46.957 0 25.891 21.065 46.956 46.956 46.956 25.892 0 46.957-21.065 46.957-46.956 0-25.89-21.065-46.957-46.957-46.957z" transform="translate(2 2)"/>
        <path stroke="#000" stroke-dasharray="13.462 13.462" stroke-width="4.364" d="M120.182 60.182c0 33.137-26.863 60-60 60s-60-26.863-60-60c0-33.138 26.863-60 60-60s60 26.862 60 60z" transform="translate(2 2)"/>
    </g>
</svg>
