<svg xmlns="http://www.w3.org/2000/svg" xmlns:xlink="http://www.w3.org/1999/xlink" width="327" height="146" viewBox="0 0 327 146">
    <defs>
        <path id="y8tr3d6f8a" d="M0.26 0L102.849 0 102.849 146 0.26 146z"/>
    </defs>
    <g fill="none" fill-rule="evenodd">
        <path fill="#989898" d="M67.036 69.291c4.487 0 8.125-3.638 8.125-8.125 0-4.488-3.638-8.126-8.125-8.126-4.488 0-8.126 3.638-8.126 8.126 0 4.487 3.638 8.125 8.126 8.125"/>
        <path fill="#989898" d="M88.589 75.359c-.809-1.625-2.784-2.28-4.407-1.47-1.542.772-3.196 1.348-4.899 1.707-5.305 1.119-10.732.109-15.273-2.85-1.685-1.096-3.17-2.414-4.436-3.907l-.007-.006c-.51-.6-.982-1.23-1.413-1.884-.002-.002-.004-.007-.01-.012-1.387-2.103-2.383-4.47-2.92-7.01-1.376-6.518.537-13.303 5.121-18.155 1.246-1.32 1.189-3.397-.132-4.645-.701-.661-1.61-.955-2.497-.891-.789.058-1.561.4-2.146 1.023-6.066 6.414-8.599 15.398-6.775 24.024.265 1.25.611 2.467 1.037 3.647-2.17 1.653-4.93 3.763-7.732 5.943-6.461 5.027-10.053 7.995-12.127 9.847-1.253.179-2.599.389-3.979.632-11.2 1.97-14.452 4.282-16.03 6.078-3.417 3.877-8.346 19.046-9.775 23.602-.677 2.164.524 4.47 2.691 5.149 2.162.68 4.467-.525 5.146-2.691 2.695-8.58 6.589-18.916 8.1-20.628.063-.066 1.79-1.762 11.448-3.445 2.026-.353 3.986-.634 5.635-.845l1.038.762c-.836 1.472-1.759 3.124-2.673 4.855-5.685 10.742-6.013 14.528-5.59 16.813.91 4.888 6.437 18.54 7.065 20.083.856 2.103 3.253 3.11 5.353 2.256 2.103-.857 3.112-3.252 2.255-5.356-2.224-5.474-5.963-15.256-6.582-18.407.007-.34.214-3.028 4.979-11.961 1.16-2.182 2.343-4.256 3.309-5.91 3.719-3.137 10.703-8.604 17.539-13.801l.516.345c6.015 3.918 13.196 5.257 20.219 3.774 2.254-.48 4.433-1.238 6.479-2.26 1.63-.81 2.289-2.783 1.473-4.406"/>
        <path fill="#000" d="M258.946 40c-6.106-2.666-8.895-9.777-6.229-15.883 2.666-6.107 9.777-8.895 15.883-6.23 6.107 2.667 8.895 9.778 6.23 15.884-2.667 6.106-9.779 8.895-15.884 6.229"/>
        <g transform="translate(224)">
            <mask id="oe1d6f8rbb" fill="#fff">
                <use xlink:href="#y8tr3d6f8a"/>
            </mask>
            <path fill="#000" d="M2.015 35.45c2.065-1.728 5.144-1.446 6.87.62 1.64 1.966 3.547 3.733 5.65 5.233 6.555 4.674 14.539 6.523 22.476 5.194 2.944-.49 5.747-1.4 8.357-2.68.002 0 .012-.002.013-.004 1.05-.51 2.066-1.088 3.04-1.724.006 0 .012-.006.022-.011 3.136-2.037 5.898-4.666 8.137-7.8 5.746-8.053 7.173-18.422 3.819-27.746-.912-2.536.4-5.33 2.938-6.242 1.347-.482 2.759-.343 3.928.27 1.039.548 1.885 1.473 2.312 2.668 4.442 12.33 2.55 26.06-5.055 36.712-1.102 1.544-2.296 2.994-3.578 4.346 1.97 3.539 4.473 8.049 6.992 12.68 5.804 10.678 8.927 16.85 10.649 20.602 1.599.987 3.305 2.073 5.038 3.223 14.069 9.335 17.12 14.413 18.2 17.794 2.346 7.305.042 30.87-.721 37.922-.364 3.346-3.37 5.77-6.721 5.405-3.346-.36-5.765-3.367-5.404-6.717 1.432-13.274 2.273-29.654 1.235-32.88-.046-.127-1.39-3.461-13.53-11.49-2.546-1.683-5.047-3.23-7.166-4.496l-1.863.42c.262 2.499.536 5.296.752 8.194 1.354 17.994-.45 23.34-2.382 26.198-4.142 6.109-19.773 21.402-21.544 23.128-2.415 2.35-6.274 2.3-8.624-.11-2.353-2.416-2.302-6.275.113-8.626 6.279-6.128 17.177-17.218 19.892-21.137.19-.466 1.507-4.247.33-19.232-.281-3.66-.657-7.181-.991-10.007-3.196-6.477-9.45-18.065-15.665-29.198-.304.055-.603.11-.907.163-10.51 1.758-21.077-.687-29.751-6.877-2.783-1.99-5.3-4.317-7.474-6.924-1.738-2.07-1.46-5.147.613-6.87" mask="url(#oe1d6f8rbb)"/>
        </g>
        <path fill="#000" d="M52.091 84.957c-.029-.002-.059-.01-.086-.017-.029-.007-.054-.014-.078-.024.054.017.11.031.164.041"/>
        <path fill="#333" d="M215.23 128.507c-12.608 0-23.217-7.806-27.62-19.014l28.62-6.805c1.402-.401 2.604-1.601 3.004-3.002.4-1.402-.2-3.002-1.401-4.003l-23.218-18.214c5.404-5.004 12.61-8.206 20.416-8.206 16.412 0 29.622 13.21 29.622 29.622s-13.21 29.622-29.422 29.622zM185.61 98.885c0-5.604 1.6-10.607 4.203-15.211l16.612 13.21-20.615 5.003c-.2-1.2-.2-2.201-.2-3.002zm-8.006 0c0 1.6.2 3.202.399 4.804l-10.407 2.4 3.403-37.226 12.409 9.807c-3.803 5.805-5.804 12.81-5.804 20.215zm-18.014 5.004L125.564 80.07l37.828-16.212-3.803 40.03zm-22.817 19.214c0 .8-2.001 1.8-6.404 2.402-5.605.8-14.011.8-22.818.8h-.4c-17.013 0-28.621-8.606-29.622-12.81 2.002-.4 6.806.2 10.808.802 4.604.6 10.408 1.2 16.413 1.4l-1.802 2.403c-1.401 1.6-1.2 4.203.4 5.603.8.6 1.802 1 2.603 1 1.2 0 2.2-.4 3.002-1.4 1.8-2.201 3.402-4.604 4.603-7.405 16.212 1 23.217 5.004 23.217 7.205zm78.459-62.046c-10.408 0-20.016 4.403-26.82 11.208l-16.613-13.21 1.402-15.411 5.803-1.401c2.203-.6 3.403-2.602 3.003-4.803-.6-2.202-2.602-3.403-4.803-3.003l-23.618 5.604c-2.202.6-3.403 2.602-3.002 4.804.4 1.8 2.002 3.002 3.802 3.002.4 0 .6 0 1-.2l9.609-2.202-.801 9.207c-.2 0-.601.2-.801.2l-44.633 19.014c-.4-5.403-1.001-10.207-1.401-13.21l8.807-2.201c2.2-.6 3.402-2.602 3.002-4.803-.601-2.202-2.602-3.403-4.804-3.003l-12.41 3.003c-2 .4-3.402 2.602-3.001 4.603 1.8 9.607 4.003 33.425-.401 49.036h-1.201c-6.404 0-12.41-.801-17.613-1.4-8.606-1.001-14.21-1.802-17.612 1.2-1.001 1-2.403 2.603-2.403 5.404 0 11.008 18.214 21.416 37.628 21.416h.4c9.408 0 17.614 0 23.819-1.001 8.806-1.401 13.209-4.803 13.209-10.407 0-8.206-10.407-13.61-28.221-15.012 1.802-7.205 2.403-15.211 2.403-22.816l40.83 28.42c.6.802 1.6 1.4 2.8 1.4h.402c.4 0 .6 0 1-.198h.2l15.612-3.804c5.204 14.612 19.014 25.019 35.427 25.019 20.815 0 37.628-16.813 37.628-37.628s-17.013-36.827-37.628-36.827z"/>
    </g>
</svg>
