<svg xmlns="http://www.w3.org/2000/svg" xmlns:xlink="http://www.w3.org/1999/xlink" width="337" height="180" viewBox="0 0 337 180">
    <defs>
        <path id="sydmz1xpma" d="M0.737 0L141.913 0 141.913 180 0.737 180z"/>
    </defs>
    <g fill="none" fill-rule="evenodd">
        <path fill="#020303" d="M255.873 46.697c0-2.458 2.02-4.479 4.48-4.479 2.457 0 4.479 2.021 4.479 4.48 0 2.457-2.022 4.478-4.48 4.478-2.458 0-4.48-2.02-4.48-4.479"/>
        <path fill="#FEFEFE" d="M260.352 42.625c-2.246 0-4.072 1.827-4.072 4.072 0 2.246 1.826 4.073 4.072 4.073 2.245 0 4.072-1.827 4.072-4.073 0-2.245-1.827-4.072-4.072-4.072m0 8.959c-2.695 0-4.887-2.192-4.887-4.887 0-2.695 2.192-4.886 4.887-4.886 2.694 0 4.887 2.19 4.887 4.886 0 2.695-2.193 4.887-4.887 4.887"/>
        <path fill="#020303" d="M233.474 51.177c-2.457 0-4.479-2.022-4.479-4.48 0-2.457 2.022-4.48 4.48-4.48 2.456 0 4.478 2.023 4.478 4.48 0 2.458-2.022 4.48-4.479 4.48"/>
        <path fill="#FEFEFE" d="M233.474 42.625c-2.245 0-4.072 1.827-4.072 4.072 0 2.246 1.827 4.073 4.072 4.073s4.072-1.827 4.072-4.073c0-2.245-1.827-4.072-4.072-4.072m0 8.959c-2.695 0-4.887-2.192-4.887-4.887 0-2.695 2.192-4.886 4.887-4.886 2.694 0 4.887 2.19 4.887 4.886 0 2.695-2.193 4.887-4.887 4.887"/>
        <path fill="#020303" d="M246.913 69.096c-4.915 0-8.96-4.044-8.96-8.96h5.974c0 1.639 1.348 2.987 2.986 2.987 1.639 0 2.986-1.348 2.986-2.986h5.973c0 4.915-4.044 8.959-8.96 8.959"/>
        <path fill="#FEFEFE" d="M238.37 60.543c.214 4.527 3.964 8.145 8.543 8.145 4.579 0 8.329-3.618 8.543-8.145h-5.174c-.202 1.68-1.636 2.986-3.37 2.986-1.732 0-3.167-1.306-3.368-2.986h-5.173zm8.543 8.96c-5.164 0-9.366-4.203-9.366-9.367v-.407h6.787v.407c0 1.422 1.157 2.578 2.579 2.578 1.423 0 2.579-1.156 2.579-2.578v-.407h6.788v.407c0 5.164-4.202 9.366-9.367 9.366z"/>
        <path fill="#020303" d="M275.758 157.792l-4.104 2.022-8.316-5.606-.753-.916c4.603.788 9.05 2.308 13.173 4.5zm4.005-31.955c26.714.034 49.077 21.118 50.683 47.783h-7.956c-3.162-23.814-22.849-42.267-46.818-43.883l-6.788-.483c-.07-.005-.143-.008-.214-.008-1.639 0-2.986 1.349-2.986 2.986 0 .414.086.824.252 1.203 2.168 5.062 6.342 9.004 11.518 10.879 13.55 4.694 24.07 15.596 28.273 29.306h-4.715c-10.797-16.85-27.556-26.878-45.14-26.878-1.635.006-2.976 1.352-2.976 2.987 0 .683.234 1.347.664 1.878l5.438 6.72c.186.232.406.434.655.597l21.8 14.696h-6.958l-22.473-11.247-7.854-13.09c1.9-6.235 6.283-11.424 12.116-14.334l.932-.466c.464-.233.86-.584 1.15-1.015l5.077-7.631h16.32zm11.946-8.242v3.559c-3.925-.851-7.93-1.284-11.946-1.29h-7.7l-10.9-15.538c.715-.295 1.412-.628 2.091-.997.293-.146 1.258-.705 2.023-1.156l16.278 3.584c5.81.909 10.14 5.958 10.154 11.838zM270.805 57.15c.03 9.07-5.136 17.398-13.276 21.4-6.695 3.26-14.532 3.26-21.227 0-8.142-4-13.31-12.33-13.28-21.4V42.922l10.01-20.02c6.671 5.002 23.437 16.837 37.773 20.878v13.37zm5.972-18.151c-.744-.108-1.52-.257-2.332-.44-17.023-3.808-40.38-22.377-40.616-22.565-.529-.423-1.187-.654-1.865-.654-1.13 0-2.166.64-2.672 1.652L218.19 39.23h-1.14v-5.973c.003-4.708 1.245-9.333 3.601-13.408.047-.081.087-.165.128-.248C225.62 11.434 234.431 6.4 243.926 6.38h5.973c14.74.017 26.862 12.14 26.878 26.878v5.74zm0 18.15V45.205c3.276 0 5.972 2.696 5.972 5.973 0 3.277-2.696 5.973-5.972 5.973zm-65.702-5.972c0-3.277 2.697-5.973 5.973-5.973V57.15c-3.276 0-5.973-2.696-5.973-5.973zm-8.959-14.932c.021-6.71 4.57-12.62 11.05-14.356-1.366 3.636-2.074 7.486-2.09 11.369v7.64c-3.686 2.112-5.966 6.048-5.966 10.296 0 5.414 3.704 10.175 8.952 11.505v6.397c-.008 7.067-5.023 13.21-11.946 14.633V36.245zm28.562 67.15c.641.347 1.3.66 1.972.94 0 0-21.532 30.92-22.45 33.448h-8.084v-20.188c-.004-5.827 4.251-10.851 9.998-11.808l16.36-3.653.257.159c.631.4 1.28.768 1.947 1.102zm8.063 43.347h-24.103v-.791c.022-.73.086-1.458.188-2.18.022-.147.036-.295.06-.445.024-.15.048-.257.072-.388.584-2.952 1.825-5.735 3.631-8.141h25.337v2.547c-2.286 2.79-4.043 5.976-5.185 9.398zm-15.953-17.918l15.744-22.47c.488.114.96.22 1.44.298 1.306.26 2.627.45 3.954.565v21.607h-21.138zm12.806-29.73c-.727-.281-1.434-.61-2.117-.983-.344-.173-.627-.32-.897-.471l1.123-3.366c3.234 1.463 6.69 2.376 10.223 2.703v4.234c-1.019-.11-1.959-.244-2.855-.427-.639-.111-1.27-.262-1.89-.45l-.649-.177c-.226-.104-.464-.18-.71-.224-.064-.024-.128-.045-.194-.062-.157-.037-.31-.085-.46-.147-.558-.206-.888-.343-1.219-.481l-.355-.15zm14.305 8.114c1.367-.117 2.727-.31 4.073-.576.406-.066.863-.203 1.303-.314l9.491 13.546h-2.92c-.999 0-1.933.5-2.486 1.329l-5.223 7.63H249.9v-21.615zm2.986-6.444v-.013c-.98.209-1.95.347-2.986.46v-4.234c3.53-.328 6.981-1.241 10.211-2.703l1.12 3.353c-.324.186-.604.344-.756.419-.714.392-1.453.738-2.213 1.033l-.373.164c-.332.138-.66.275-.998.395-.22.096-.447.174-.68.233l-.21.062c-.25.046-.495.125-.725.233-.132.039-.26.072-.386.105-.658.202-1.327.367-2.004.493zm2.987-11.26c-5.78 2.133-12.137 2.133-17.919 0V85.59c5.822 1.9 12.098 1.9 17.92 0v3.916zm36.27 84.116l-14.789-9.963 4.303-2.15c4.652 3.384 8.748 7.47 12.143 12.113h-1.657zm8.177-28.114l-4.728 2.359c-4.784-4.021-10.26-7.138-16.162-9.198-1.814-.643-3.465-1.675-4.838-3.022l.653.047c9.163.632 17.916 4.058 25.075 9.814zm11.647 28.114c-2.146-7.977-6.197-15.317-11.803-21.386l4.81-2.39c6.142 6.587 10.16 14.874 11.523 23.776h-4.53zm21.553 5.973c1.638 0 2.986-1.348 2.986-2.987-.039-24.348-15.727-46.087-38.823-53.796v-5.215c.012-8.73-6.358-16.26-14.968-17.698l-15.565-3.428-2.473-7.412c-.362-1.24-1.543-2.071-2.83-1.992v-4.142c7.382-4.233 12.587-11.457 14.265-19.8H276.818c6.532 0 11.907-5.375 11.907-11.907 0-4.257-2.284-8.203-5.976-10.324v-7.634C282.73 15.245 267.912.428 249.9.408h-5.973c-11.084.039-21.429 5.673-27.475 14.962-11.23.32-20.296 9.64-20.307 20.875v50.769c0 1.638 1.347 2.986 2.986 2.986 11.107-.014 20.363-8.88 20.857-19.976 2.598 5.415 6.782 9.914 11.994 12.899v4.142c-1.289-.08-2.47.753-2.83 1.992l-2.454 7.355-15.735 3.515c-8.55 1.483-14.848 8.99-14.818 17.668v61.998h5.972v-35.837h6.675c-.455 3.942-.005 7.937 1.317 11.68.015.042.036.084.036.126.051.133.113.262.164.397.194.51.394 1.015.621 1.514.09.209.188.403.281.597.241.498.492.992.768 1.475.032.062.062.132.094.188.034.057.08.108.112.164.564.983 1.191 1.927 1.878 2.829v16.867h5.972v-17.918c.005-.346-.048-.69-.16-1.016-.05-.102-.106-.202-.168-.3-.09-.211-.206-.411-.344-.595-.78-.942-1.48-1.948-2.089-3.008-.59-1.02-1.09-2.09-1.495-3.195l-.017-.07c-.092-.253-.125-.52-.206-.776h23.694l4.677 7.795v19.083h5.973V168l22.556 11.295c.416.2.873.304 1.335.298h59.73z"/>
        <g transform="translate(195)">
            <mask id="2xe3cx3pmb" fill="#fff">
                <use xlink:href="#sydmz1xpma"/>
            </mask>
            <path fill="#FEFEFE" d="M22.456 38.824h.482l10.99-22.015c.57-1.14 1.762-1.876 3.037-1.876.766 0 1.519.264 2.119.743.233.187 23.486 18.69 40.45 22.485.666.15 1.27.269 1.836.363v-5.265c-.017-14.58-11.891-26.454-26.471-26.471h-5.972c-9.313.02-18.048 5.01-22.798 13.02-.042.09-.082.17-.13.25-2.313 4.004-3.54 8.57-3.543 13.2v5.566zm.986.814h-1.8v-6.38c.003-4.772 1.268-9.48 3.656-13.612.037-.064.067-.126.097-.188 4.928-8.321 13.932-13.464 23.53-13.484H54.9c15.029.017 27.268 12.257 27.285 27.284v6.21l-.466-.066c-.717-.104-1.49-.25-2.364-.445C62.21 35.122 38.81 16.5 38.575 16.312c-.455-.364-1.027-.565-1.61-.565-.97 0-1.874.56-2.308 1.427L23.442 39.638zm-1.8 5.988c-2.88.21-5.16 2.619-5.16 5.552 0 2.93 2.28 5.34 5.16 5.55V45.626zm.814 11.93h-.407c-3.518 0-6.38-2.86-6.38-6.378 0-3.52 2.862-6.381 6.38-6.381h.407v12.76zm59.729-11.93v11.102c2.879-.21 5.158-2.62 5.158-5.55 0-2.933-2.28-5.342-5.158-5.552zm-.408 11.93h-.407v-12.76h.407c3.518 0 6.38 2.863 6.38 6.382 0 3.518-2.862 6.379-6.38 6.379zM28.43 43.02v14.13c-.03 8.869 5.093 17.126 13.052 21.036 6.534 3.18 14.336 3.18 20.87 0 7.955-3.912 13.076-12.168 13.045-21.033V44.087C61.316 40.023 44.979 28.59 38.179 23.52l-9.75 19.499zM51.916 81.42c-3.682 0-7.362-.835-10.791-2.504-8.237-4.048-13.54-12.592-13.51-21.77V42.827l10.27-20.543.39.293c6.557 4.915 23.348 16.783 37.64 20.812l.297.083v13.677c.03 9.175-5.27 17.719-13.502 21.768-3.43 1.669-7.112 2.505-10.794 2.505zM7.524 36.245V83.22c6.472-1.565 11.124-7.426 11.13-14.125V63.01c-5.285-1.485-8.951-6.298-8.951-11.816 0-4.31 2.28-8.322 5.966-10.53v-7.406c.016-3.677.635-7.288 1.84-10.75-5.897 1.935-9.964 7.472-9.985 13.736zm-.815 47.983V36.243c.023-6.898 4.69-12.961 11.352-14.747l.766-.205-.28.74c-1.353 3.603-2.047 7.38-2.064 11.23v7.873l-.204.117c-3.554 2.037-5.762 5.847-5.762 9.944 0 5.25 3.556 9.819 8.646 11.109l.307.078v6.714c-.008 7.25-5.17 13.572-12.271 15.032l-.49.1zM43.36 89.22c5.527 1.969 11.578 1.969 17.105 0v-3.074c-5.61 1.715-11.497 1.715-17.105 0v3.074zm8.552 2.29c-3.083 0-6.166-.541-9.1-1.623l-.266-.098v-4.76l.533.173c5.778 1.887 11.889 1.887 17.666 0l.534-.173v4.76l-.266.098c-2.935 1.082-6.018 1.624-9.101 1.624zm-13.838 5.936c.179.095.37.193.586.302.673.368 1.369.69 2.08.966l.367.154c.348.145.669.279 1.202.474.144.059.276.1.41.132.09.025.17.05.246.078.212.033.483.119.738.236l.585.153c.617.188 1.236.336 1.853.443.714.145 1.494.267 2.377.372v-3.41c-3.306-.343-6.522-1.19-9.571-2.518l-.873 2.618zm11.259 4.219l-.451-.05c-1.1-.117-2.045-.26-2.892-.431-.64-.111-1.29-.267-1.93-.46l-.634-.173c-.257-.113-.463-.178-.678-.218-.12-.038-.174-.054-.227-.068-.166-.04-.34-.094-.51-.165-.53-.194-.86-.332-1.184-.466l-.385-.162c-.744-.288-1.47-.626-2.161-1.003-.338-.17-.628-.32-.901-.474l-.292-.166 1.372-4.112.41.186c3.2 1.448 6.598 2.346 10.093 2.668l.37.034v5.06zm5.974-4.32v3.41c.952-.113 1.736-.24 2.493-.402l.492-.105v.018c.496-.106.99-.235 1.477-.384l.094-.025c.097-.026.195-.051.295-.081.203-.1.48-.19.767-.243l.168-.052c.228-.058.435-.13.633-.216.345-.123.653-.251.962-.38l.409-.178c.754-.295 1.483-.635 2.18-1.018.112-.054.272-.142.46-.25l-.872-2.611c-3.043 1.327-6.255 2.173-9.558 2.518zm-.815 4.32v-5.06l.369-.034c3.494-.325 6.885-1.222 10.08-2.668l.41-.186 1.37 4.098-.288.166c-.333.19-.623.354-.78.43-.712.392-1.471.747-2.244 1.048l-.358.157c-.373.156-.696.29-1.026.406-.211.094-.462.179-.716.244l-.193.058c-.261.05-.472.118-.67.21-.165.055-.27.083-.376.11-.734.223-1.424.392-2.111.52l-.482.09v-.004c-.754.144-1.557.26-2.535.366l-.45.049zm22.78 17.792h7.49c3.874.006 7.752.408 11.54 1.196v-3.057c-.014-5.647-4.232-10.564-9.81-11.437l-16.147-3.553c-.731.428-1.62.942-1.908 1.087-.534.29-1.09.564-1.652.81l10.487 14.954zm19.844 2.203l-.494-.107c-3.887-.844-7.878-1.275-11.86-1.281H76.85l-11.312-16.127.47-.195c.694-.287 1.385-.616 2.052-.978.28-.142 1.209-.678 2.009-1.15l.139-.08 16.435 3.618c5.945.929 10.458 6.19 10.473 12.234v4.066zm-68.545 6.757h19.947v-20.828c-1.214-.12-2.432-.3-3.626-.537-.39-.062-.782-.146-1.183-.238l-15.138 21.603zm20.762.815H27.007l16.35-23.336.27.06c.476.114.939.219 1.41.294 1.302.26 2.617.448 3.925.562l.372.032v22.388zm5.974-.815h3.615l5.1-7.453c.63-.941 1.686-1.507 2.822-1.507h2.139l-8.88-12.674-.086.023c-.336.09-.672.178-.98.227-1.221.243-2.478.427-3.73.547v20.837zm4.044.815h-4.86v-22.397l.373-.032c1.347-.116 2.702-.308 4.029-.57.296-.05.606-.131.916-.213l.638-.165 10.1 14.417h-3.703c-.864 0-1.666.429-2.146 1.148l-5.347 7.812zm-51.828 8.144h7.413c1.819-3.677 19.51-29.148 22.094-32.863-.526-.233-1.042-.487-1.54-.757-.675-.338-1.341-.715-1.977-1.12l-.113-.068-16.196 3.617c-5.531.92-9.684 5.825-9.681 11.41v19.78zm7.963.815H6.709v-20.596c-.003-5.98 4.442-11.228 10.34-12.21l16.5-3.685.397.248c.619.392 1.263.755 1.915 1.083l.012.005c.62.337 1.27.648 1.934.923l.466.195-.29.415c-7.435 10.679-21.688 31.394-22.4 33.353l-.096.269zm4.559 8.144H43.45c1.147-3.328 2.85-6.4 5.069-9.136v-1.995H23.796c-1.694 2.307-2.881 5.003-3.44 7.813l-.067.374c-.013.084-.024.169-.034.253l-.025.184c-.1.698-.162 1.417-.184 2.136v.37zm23.99.815H19.23v-1.2c.025-.76.088-1.51.193-2.236l.022-.171c.012-.094.024-.188.038-.281.016-.1.033-.181.048-.263l.026-.133c.594-3.001 1.876-5.874 3.707-8.313l.122-.163h25.947v3.1l-.093.112c-2.263 2.764-3.983 5.882-5.112 9.269l-.093.279zm36.72-11.011c1.136.925 2.434 1.657 3.809 2.143 5.884 2.055 11.294 5.116 16.083 9.1l3.917-1.954c-6.888-5.381-15.096-8.583-23.81-9.29zm19.779 12.21l-.205-.171c-4.765-4.005-10.158-7.075-16.035-9.127-1.857-.657-3.582-1.734-4.99-3.114l-.791-.78 1.76.129c9.29.64 18.04 4.065 25.3 9.904l.496.398-5.535 2.76zm-31.92 5.556l8.072 5.44 3.17-1.563c-3.557-1.81-7.334-3.114-11.25-3.888l.008.01zm8.009 6.378l-8.6-5.816-1.446-1.762 1.076.185c4.656.798 9.129 2.326 13.296 4.543l.702.373-5.028 2.477zm20.643 12.93h.723c-3.226-4.282-7.05-8.056-11.372-11.23l-3.458 1.727 14.107 9.503zm2.335.815h-2.583l-.104-.07-15.368-10.353 5.15-2.573.199.146c4.692 3.412 8.807 7.518 12.233 12.202l.473.648zm17.675-.815h3.742c-1.406-8.578-5.25-16.47-11.138-22.867l-4.052 2.013c5.37 5.94 9.32 13.134 11.448 20.854zm4.695.815h-5.317l-.081-.302c-2.121-7.881-6.17-15.218-11.71-21.215l-.368-.398 5.566-2.767.207.222c6.227 6.673 10.249 14.969 11.63 23.99l.073.47zm5.874-.815h7.167c-1.812-26.34-23.8-46.935-50.25-46.97H68.66l-4.956 7.45c-.328.49-.78.889-1.305 1.154l-.933.467c-5.657 2.822-9.968 7.886-11.856 13.917l7.699 12.832 22.282 11.15h5.53l-20.696-13.951c-.282-.186-.532-.415-.745-.682l-5.437-6.716c-.487-.602-.755-1.36-.755-2.134 0-1.865 1.518-3.388 3.382-3.395 17.557 0 34.499 10.044 45.363 26.878h3.939c-4.262-13.301-14.636-23.936-27.851-28.514-5.27-1.91-9.555-5.955-11.76-11.103-.19-.431-.285-.89-.285-1.363-.001-1.953 1.657-3.563 3.639-3.384l6.786.482c24.038 1.62 43.809 20.05 47.144 43.882zm8.034.815h-8.746l-.047-.354c-3.136-23.621-22.668-41.93-46.442-43.53l-6.79-.484c-1.545-.112-2.763 1.09-2.763 2.573 0 .36.073.709.218 1.038 2.117 4.946 6.23 8.83 11.284 10.66 13.629 4.722 24.294 15.776 28.522 29.57l.163.527h-5.49l-.12-.188c-10.708-16.713-27.454-26.69-44.796-26.69-1.416.005-2.57 1.162-2.57 2.58 0 .588.204 1.164.575 1.62l5.437 6.72c.162.202.35.375.562.514l22.909 15.444h-8.387l-22.664-11.343-8.008-13.347.05-.173c1.926-6.317 6.417-11.633 12.325-14.58l.932-.466c.4-.201.743-.505.994-.878l5.198-7.811h16.539c27.023.033 49.464 21.19 51.088 48.166l.027.432zm-81.387-6.687l23.146 11.59c.353.172.756.262 1.147.255h59.733c1.422 0 2.58-1.156 2.58-2.58-.04-24.264-15.53-45.728-38.545-53.41l-.28-.093v-5.508c.013-8.466-6.276-15.901-14.627-17.296l-15.811-3.481-2.546-7.632c-.312-1.066-1.317-1.777-2.42-1.714l-.433.026v-4.811l.206-.117c7.286-4.178 12.414-11.295 14.069-19.528l.066-.327h.999c6.383 0 11.54-5.158 11.54-11.498 0-4.106-2.21-7.927-5.77-9.972l-.204-.117v-7.87C87.32 15.39 72.768.837 54.899.816h-5.972C37.935.854 27.79 6.378 21.793 15.593l-.116.178-.213.007c-10.97.312-19.902 9.494-19.912 20.467v50.769c0 1.423 1.156 2.579 2.578 2.579 10.98-.014 19.964-8.617 20.45-19.586l.073-1.621.702 1.462c2.575 5.365 6.664 9.765 11.829 12.722l.205.117v4.81l-.432-.025c-1.11-.063-2.108.648-2.417 1.7l-2.528 7.589-15.96 3.564c-8.44 1.463-14.53 8.723-14.5 17.268v61.593h5.157V143.35h7.54l-.052.454c-.447 3.857.002 7.834 1.296 11.497.018.046.038.099.049.16.019.048.039.093.059.139.03.072.06.142.088.216.19.502.389.998.612 1.489.065.15.132.289.197.423l.08.168c.237.489.484.973.754 1.449l.096.188c.058.083.086.122.108.162.558.968 1.18 1.906 1.85 2.786l.084.108v16.598h5.158v-17.512c.004-.306-.043-.6-.14-.882-.023-.045-.071-.13-.123-.211-.11-.242-.21-.416-.33-.575-.78-.937-1.495-1.968-2.115-3.048-.598-1.032-1.111-2.13-1.524-3.258l-.03-.107c-.044-.12-.082-.28-.12-.442-.022-.106-.047-.21-.08-.314l-.164-.53H44.48l4.853 8.09v18.79h5.159V167.34zM78.752 180c-.503 0-1.014-.117-1.473-.34L55.308 168.66v11.34h-6.79v-19.376l-4.5-7.501H21.078c.019.078.04.156.067.23l.03.108c.384 1.046.877 2.099 1.45 3.09.599 1.042 1.288 2.033 2.053 2.953.17.229.3.456.405.696.038.052.103.167.159.286.146.413.207.799.2 1.195V180h-6.786v-17.137c-.66-.875-1.273-1.804-1.824-2.762-.06-.084-.087-.123-.11-.163-.025-.044-.048-.091-.072-.138-.277-.498-.525-.975-.805-1.553l-.08-.166c-.07-.144-.141-.292-.208-.448-.227-.5-.431-1.011-.628-1.53-.023-.062-.05-.122-.075-.182-.031-.071-.062-.141-.09-.215l-.025-.144c-1.297-3.627-1.774-7.561-1.4-11.4H7.525V180H.737v-62.405c-.03-8.942 6.344-16.542 15.157-18.068l15.49-3.462 2.38-7.137c.368-1.26 1.513-2.165 2.81-2.266v-3.505c-4.791-2.793-8.67-6.801-11.293-11.66-1.198 10.702-10.224 18.896-21.15 18.91-1.872 0-3.394-1.522-3.394-3.393v-50.77c.01-11.337 9.183-20.836 20.49-21.274C27.389 5.632 37.727.04 48.925 0H54.9c18.317.022 33.236 14.942 33.257 33.258v7.4c3.692 2.218 5.976 6.24 5.976 10.559 0 6.79-5.525 12.314-12.315 12.314l-.375-.001c-1.754 8.247-6.907 15.375-14.191 19.627v3.505c1.299.102 2.444 1.007 2.815 2.28l2.396 7.179L87.802 99.5c8.718 1.455 15.3 9.237 15.288 18.096v4.92c23.195 7.874 38.784 29.572 38.823 54.09 0 1.872-1.522 3.394-3.394 3.394H78.75z" mask="url(#2xe3cx3pmb)"/>
        </g>
        <path fill="#020303" d="M110.897 41.874c0-2.458-2.022-4.479-4.479-4.479-2.458 0-4.48 2.021-4.48 4.479s2.022 4.479 4.48 4.479c2.457 0 4.48-2.021 4.48-4.479"/>
        <path fill="#FEFEFE" d="M106.418 37.802c-2.245 0-4.072 1.827-4.072 4.072 0 2.246 1.827 4.073 4.072 4.073 2.246 0 4.072-1.827 4.072-4.073 0-2.245-1.826-4.072-4.072-4.072m0 8.959c-2.695 0-4.887-2.192-4.887-4.887 0-2.695 2.192-4.886 4.887-4.886 2.695 0 4.887 2.19 4.887 4.886 0 2.695-2.192 4.887-4.887 4.887"/>
        <path fill="#020303" d="M133.296 46.353c2.457 0 4.478-2.022 4.478-4.479 0-2.458-2.022-4.48-4.478-4.48-2.458 0-4.48 2.023-4.48 4.48 0 2.457 2.022 4.48 4.48 4.48"/>
        <path fill="#FEFEFE" d="M133.296 37.802c-2.246 0-4.072 1.827-4.072 4.072 0 2.246 1.826 4.073 4.072 4.073 2.245 0 4.072-1.827 4.072-4.073 0-2.245-1.827-4.072-4.072-4.072m0 8.959c-2.695 0-4.887-2.192-4.887-4.887 0-2.695 2.192-4.886 4.887-4.886 2.695 0 4.887 2.19 4.887 4.886 0 2.695-2.192 4.887-4.887 4.887"/>
        <path fill="#020303" d="M119.857 66.263c4.915 0 8.959-4.044 8.959-8.959h-5.973c0 1.638-1.348 2.986-2.986 2.986-1.64 0-2.986-1.348-2.986-2.986h-5.973c0 4.915 4.044 8.96 8.959 8.96"/>
        <path fill="#FEFEFE" d="M111.314 57.711c.213 4.527 3.963 8.145 8.542 8.145 4.58 0 8.33-3.618 8.543-8.145h-5.173c-.202 1.68-1.636 2.986-3.37 2.986-1.733 0-3.167-1.306-3.368-2.986h-5.174zm8.542 8.96c-5.164 0-9.366-4.203-9.366-9.367v-.407h6.788v.407c0 1.422 1.156 2.58 2.578 2.58 1.423 0 2.58-1.158 2.58-2.58v-.407h6.787v.407c0 5.164-4.202 9.366-9.367 9.366z"/>
        <path fill="#020303" d="M61.153 157.792c4.123-2.193 8.57-3.713 13.173-4.501l-.752.917-8.317 5.605-4.104-2.021zm-4.004-31.954h16.32l5.077 7.63c.29.43.686.78 1.15 1.015l.932.466c5.833 2.91 10.217 8.099 12.115 14.334l-7.854 13.09-22.472 11.247H55.46l21.8-14.696c.248-.163.47-.365.654-.598l5.438-6.72c.43-.53.665-1.194.665-1.877 0-1.634-1.342-2.981-2.976-2.987-17.584 0-34.344 10.029-45.139 26.878h-4.716c4.204-13.71 14.722-24.612 28.272-29.306 5.177-1.875 9.351-5.817 11.52-10.88.417-.956.303-2.067-.3-2.92-.596-.86-1.607-1.337-2.649-1.254l-6.788.483c-23.968 1.614-43.654 20.065-46.818 43.877H6.466c1.605-26.666 23.97-47.75 50.683-47.782zm8.96-6.421c.055-7.054 5.046-13.175 11.944-14.648L98.6 99.163c2.375 1.27 4.86 2.326 7.424 3.15L81.04 124.842v1.449l-3.488-5.098c-.554-.83-1.487-1.33-2.485-1.33h-8.959v-.446zm29.863-68.24V35.05c5.808-3.157 10.58-7.93 13.738-13.737h20.337c3.153 5.8 7.914 10.572 13.708 13.737v16.127c.006 7.974-3.989 15.44-10.626 19.86-8.04 5.275-18.497 5.275-26.537 0-6.636-4.42-10.629-11.887-10.62-19.86zm6.884-30.073c-1.847 2.658-4.135 4.98-6.765 6.869 0-.055 0-.1.016-.156.164-1.643.497-3.266.994-4.841l.116-.313c.177-.502.35-1.001.56-1.494.208-.492.471-.916.7-1.38 1.383.664 2.86 1.107 4.38 1.315zm.64-14.723l7.166 8.959h-5.73c-4.916 0-8.96-4.044-8.96-8.96h7.523zm14.931 0l7.167 8.959h-7.28l-7.168-8.96h7.281zm10.395 0c5.477-.02 10.32 3.672 11.75 8.959h-7.326l-7.168-8.96h2.744zm13.141 14.932c.463 1.094.835 2.225 1.114 3.38.153.606.271 1.219.355 1.837.086.44.15.885.188 1.332v.114c-2.55-1.841-4.78-4.093-6.593-6.663h4.936zm-.72 77.784l19.55 3.584c7.307 1.088 12.785 7.407 12.826 14.795v17.32h-11.946c-.41-.002-.818.082-1.194.246l-1.792.773v-10.973l-24.928-22.547c2.587-.836 5.092-1.907 7.484-3.198zm32.376 44.659v5.734l-26.86-2.067 15.53-6.653h11.33v2.986zm-56.742-5.973v7.344l-17.199-1.323-3.38-1.45c-.842-1.61-1.83-3.14-2.95-4.571h23.53zm0-33.4v27.428H87.012v-4.63l26.16-23.213c1.23.18 2.465.335 3.705.415zm0-11.647v5.584c-4.69-.355-9.277-1.555-13.54-3.541l2.79-4.152c3.478 1.16 7.091 1.87 10.75 2.112v-.003zm14.932-7.851c-7.749 2.603-16.142 2.603-23.89 0v-6.391c7.596 3.395 16.292 3.395 23.89 0v6.39zm-8.959 13.439v-5.585c3.66-.242 7.272-.951 10.751-2.112l2.774 4.164c-4.259 1.98-8.84 3.178-13.525 3.533zm29.864 39.459v.597l-12.668 5.43-17.196 1.326v-7.353h29.864zm-29.864-5.972v-27.428c1.27-.084 2.532-.238 3.792-.43l26.072 23.223v4.635H122.85zm50.77 26.877v5.973c-.015 3.696-2.315 7.02-5.768 8.338-1.015.408-2.098.619-3.193.62H156L99.57 161.738c-.2-.042-.406-.063-.612-.062h-6.67l6.243-10.408c.264-.47.393-1.001.373-1.538l74.715 5.75v3.209zM83.727 173.62h-7.944l11.945-5.973H98.66l6.713 1.41-21.645 4.563zm-38.958 0h-1.658c3.395-4.642 7.492-8.73 12.143-12.113l4.304 2.15-14.789 9.963zm-8.177-28.114c7.158-5.756 15.911-9.182 25.074-9.814l.654-.047c-1.373 1.347-3.024 2.379-4.838 3.022-5.9 2.06-11.378 5.177-16.163 9.198l-4.727-2.36zM24.946 173.62h-4.53c1.363-8.902 5.381-17.19 11.524-23.775l4.808 2.389c-5.605 6.069-9.656 13.408-11.802 21.386zM90 48.19c-.099.006-.199.008-.298.008-3.277 0-5.973-2.696-5.973-5.973 0-3.276 2.696-5.973 5.973-5.973.1 0 .2.003.298.008v11.93zm59.728-11.945c3.277 0 5.973 2.696 5.973 5.973 0 3.277-2.696 5.972-5.973 5.972V36.245zM3.393 179.593h59.728c.463.005.92-.098 1.335-.3l3.285-1.642c2.232 1.273 4.757 1.942 7.326 1.942l11.945-.565 33.191-6.742 36.091 7.267 8.365.04c1.842.002 3.666-.348 5.376-1.03 1.284-.5 2.49-1.18 3.584-2.016v3.046h5.972v-62.117c0-.646-.029-1.282-.089-1.915-.923-9.544-8.262-17.307-17.74-18.764l-19.202-3.533-4.778-7.146v-11.13c6.661-4.985 10.931-12.546 11.76-20.825h.185c6.554 0 11.946-5.392 11.946-11.945s-5.392-11.946-11.946-11.946c.006-.648-.024-1.296-.089-1.941.002-.281-.012-.562-.042-.842 0-.111-.024-.216-.042-.32v-.122c-.047-.53-.124-1.054-.233-1.574-.096-.75-.24-1.493-.433-2.225-.462-1.926-1.127-3.798-1.983-5.585C146.492 8.047 138.448.37 128.822.408H92.986C91.347.408 90 1.756 90 3.395V6.38c.014 3.55 1.306 6.978 3.637 9.655-.508.918-.966 1.863-1.373 2.83-.245.598-.463 1.196-.696 1.859-.102.257-.186.522-.25.79-.578 1.848-.963 3.749-1.15 5.675-.039.282-.06.567-.066.85-.069.75-.102 1.47-.102 2.22-6.553 0-11.946 5.392-11.946 11.946 0 6.553 5.393 11.945 11.946 11.945h.185c.824 8.284 5.094 15.85 11.761 20.837v11.13l-4.85 7.278-20.454 5.563c-9.57 2.12-16.457 10.655-16.506 20.458v.447H57.15C26.034 119.898.441 145.492.407 176.606c0 1.639 1.348 2.987 2.986 2.987z"/>
        <path fill="#FEFEFE" d="M96.39 6.788c.212 4.527 3.962 8.145 8.541 8.145h4.884L103.3 6.788h-6.91zm15.12 8.959h-6.579c-5.164 0-9.366-4.202-9.366-9.366v-.407h8.126l7.82 9.773zm7-.814h6.237l-6.516-8.145h-6.238l6.516 8.145zm7.931.814h-8.323L110.3 5.974h8.323l7.82 9.773zm7.001-.814h6.585c-1.545-4.827-6.056-8.145-11.16-8.145H126.926l6.516 8.145zm7.661.814h-8.053l-7.819-9.773H128.867c5.651 0 10.621 3.801 12.097 9.259l.14.514zM98.66 20.323l-.09.168c-.147.27-.293.542-.42.838-.197.465-.36.935-.528 1.41l-.139.379c-.405 1.282-.7 2.618-.882 3.968 2.112-1.622 3.971-3.53 5.542-5.684-1.199-.217-2.367-.579-3.483-1.079zm-2.976 8.443v-.794c0-.067 0-.152.03-.26.154-1.603.494-3.259 1-4.858l.121-.333c.191-.543.362-1.029.565-1.51.137-.321.294-.615.452-.907.09-.164.177-.327.261-.496l.18-.36.361.174c1.348.647 2.78 1.077 4.256 1.278l.66.089-.38.546c-1.878 2.705-4.186 5.05-6.862 6.968l-.644.463zm42.142-7.046c1.517 2.025 3.291 3.827 5.292 5.372-.025-.161-.054-.323-.085-.485-.086-.626-.203-1.229-.35-1.814-.253-1.048-.586-2.08-.992-3.073h-3.865zm6.201 7.052l-.645-.466c-2.594-1.871-4.844-4.144-6.688-6.759l-.453-.642h5.992l.106.249c.47 1.11.851 2.269 1.134 3.444.154.611.277 1.243.363 1.877.085.432.15.894.19 1.352l.001.945zm6.108 7.895v11.101c2.88-.209 5.158-2.619 5.158-5.55 0-2.932-2.279-5.341-5.158-5.551zm-.407 11.931h-.407v-12.76h.407c3.518 0 6.38 2.862 6.38 6.38s-2.862 6.38-6.38 6.38zM89.593 36.661c-3.02.057-5.458 2.531-5.458 5.564s2.438 5.507 5.458 5.565V36.661zm.108 11.944c-3.519 0-6.38-2.862-6.38-6.38 0-3.624 3.044-6.558 6.698-6.372l.388.018v12.704l-.385.022c-.108.006-.215.008-.32.008zm6.68-13.314v15.887c-.01 7.864 3.891 15.161 10.436 19.52 7.925 5.198 18.166 5.195 26.09-.002 6.542-4.357 10.447-11.655 10.44-19.519V35.29c-5.708-3.17-10.383-7.854-13.54-13.57H109.95c-3.162 5.723-7.847 10.407-13.57 13.571zm23.478 40.119c-4.697 0-9.392-1.345-13.49-4.033-6.776-4.512-10.813-12.063-10.804-20.201V34.809l.212-.116c5.754-3.129 10.448-7.822 13.574-13.574l.117-.214h20.82l.117.213c3.123 5.746 7.806 10.44 13.545 13.575l.212.116v16.368c.006 8.137-4.034 15.688-10.807 20.198-4.1 2.689-8.798 4.035-13.496 4.035zm-11.534 9.181c7.452 2.436 15.623 2.437 23.076 0v-5.477c-7.369 3.109-15.709 3.108-23.076 0v5.477zm11.54 2.642c-4.092 0-8.184-.654-12.077-1.963l-.278-.092v-7.312l.574.256c7.485 3.344 16.071 3.345 23.558 0l.574-.256v7.312l-.278.092c-3.893 1.309-7.984 1.963-12.074 1.963zm-15.923 7.375c3.975 1.793 8.185 2.892 12.528 3.271v-4.761c-3.459-.259-6.88-.934-10.178-2.007l-2.35 3.497zm13.342 4.152l-.438-.033c-4.754-.361-9.357-1.564-13.68-3.579l-.433-.201 3.227-4.804.294.098c3.445 1.149 7.028 1.852 10.65 2.091l-.027.404.407.003v6.021zm5.973-5.642v4.764c4.34-.378 8.545-1.474 12.514-3.263l-2.338-3.508c-3.297 1.073-6.717 1.748-10.176 2.007zm-.814 5.645v-6.406l.38-.025c3.623-.239 7.206-.942 10.65-2.091l.294-.098 3.21 4.817-.43.2c-4.319 2.009-8.917 3.21-13.666 3.57l-.438.033zm-55.928 20.694h8.552c1.136 0 2.192.565 2.823 1.511l2.743 4.007v-.315l.134-.121 24.464-22.059c-2.295-.778-4.538-1.745-6.679-2.882l-20.39 5.563c-6.703 1.434-11.59 7.427-11.647 14.257v.039zm14.933 8.15l-4.233-6.183c-.482-.723-1.284-1.153-2.148-1.153h-9.366v-.857c.058-7.21 5.216-13.537 12.268-15.045l20.681-5.642.143.077c2.348 1.257 4.823 2.307 7.356 3.122l.673.216-25.374 22.88v2.585zm5.972 3.795h29.05v-26.639c-.95-.073-1.97-.191-3.17-.365l-25.88 22.966v4.038zm29.864.815H86.606v-5.219l.137-.121 26.3-23.339.188.027c1.424.21 2.59.341 3.672.411l.381.025v28.216zm5.973-.815h29.05v-4.044l-25.793-22.974c-1.183.176-2.254.3-3.257.379v26.639zm29.864.815h-30.678v-28.215l.38-.026c1.14-.075 2.37-.214 3.758-.425l.19-.03 26.35 23.471v5.225zm-18.57-29.755l24.544 22.199v10.534l1.222-.527c.43-.188.901-.25 1.36-.278h11.535v-16.914c-.04-7.151-5.406-13.338-12.48-14.393l-19.423-3.56c-2.163 1.16-4.433 2.146-6.759 2.939zm23.73 33.972v-11.413l-25.318-22.897.671-.216c2.557-.827 5.051-1.893 7.416-3.17l.125-.068.141.026 19.55 3.584c7.454 1.111 13.118 7.642 13.16 15.193v17.731h-12.353c-.379-.017-.705.068-1.033.211l-2.36 1.019zm-58.504 6.968l16.693 1.285v-6.497h-22.3c.901 1.219 1.713 2.51 2.421 3.848l3.186 1.364zm17.507 2.164l-17.767-1.388-3.513-1.505-.068-.129c-.827-1.584-1.806-3.102-2.91-4.51l-.516-.658h24.774v8.19zm5.973-7.376v6.506l16.69-1.287 12.177-5.219h-28.867zm-.814 7.385v-8.199h30.678v1.273l-13.045 5.567-17.633 1.359zm-85.095-.148l3.916 1.955c4.79-3.985 10.2-7.046 16.085-9.1 1.374-.487 2.672-1.219 3.808-2.142-8.715.705-16.922 3.907-23.809 9.287zm4.03 2.922l-5.535-2.763.495-.398c7.26-5.838 16.01-9.261 25.301-9.902l1.76-.13-.793.778c-1.405 1.381-3.13 2.458-4.987 3.117-5.877 2.05-11.272 5.122-16.036 9.127l-.205.171zm107.065-1.205l24.77 1.906v-7.873H162.37l-13.928 5.967zm25.583 2.786l-28.952-2.228 17.214-7.34h11.738v9.568zm-111.97 7.852l3.17 1.563 8.08-5.452c-3.916.774-7.692 2.079-11.25 3.889zm3.232 2.501l-5.028-2.477.702-.373c4.17-2.217 8.642-3.747 13.296-4.543l1.075-.184-1.53 1.841-8.515 5.736zm-44.395 12.93h3.743c2.127-7.722 6.076-14.914 11.447-20.855l-4.05-2.012c-5.89 6.397-9.733 14.288-11.14 22.867zm4.365.814h-5.316l.072-.468c1.382-9.023 5.403-17.319 11.63-23.992l.205-.221 5.567 2.766-.369.399c-5.539 5.995-9.587 13.332-11.708 21.214l-.08.302zm18.665-.814h.723l14.106-9.503-3.457-1.728c-4.326 3.177-8.148 6.952-11.372 11.231zm.971.814h-2.583l.474-.647c3.421-4.682 7.537-8.787 12.231-12.202l.2-.146 5.15 2.572-15.472 10.423zm11.896-.814h5.531l22.28-11.151 7.7-12.832c-1.888-6.03-6.2-11.094-11.855-13.917l-.932-.465c-.526-.266-.978-.664-1.306-1.153l-4.956-7.451H57.148h.001c-26.449.033-48.438 20.629-50.248 46.969h7.165c3.34-23.829 23.11-42.257 47.147-43.876l6.786-.484c1.174-.093 2.336.453 3.013 1.429.68.962.81 2.234.336 3.316-2.203 5.146-6.487 9.193-11.753 11.098-13.219 4.58-23.594 15.216-27.856 28.517h3.94c10.863-16.834 27.806-26.878 45.361-26.878 1.867.007 3.384 1.529 3.384 3.394 0 .773-.268 1.531-.756 2.134l-5.438 6.72c-.21.264-.464.493-.747.681L56.79 173.213zm5.724.814h-8.388l22.906-15.441c.215-.143.404-.315.564-.514l5.44-6.722c.37-.458.574-1.033.574-1.621 0-1.418-1.154-2.575-2.57-2.58-17.342 0-34.089 9.978-44.797 26.691l-.12.187h-5.49l.162-.526c4.231-13.795 14.895-24.849 28.528-29.572 5.05-1.828 9.162-5.711 11.278-10.655.361-.825.262-1.792-.256-2.525-.515-.742-1.398-1.152-2.285-1.084l-6.792.484c-23.772 1.602-43.304 19.907-46.442 43.525l-.048.353H6.034l.026-.431c1.623-26.975 24.064-48.133 51.088-48.166h16.54l5.197 7.812c.25.371.593.676.994.877l.931.466c5.908 2.947 10.4 8.262 12.324 14.58l.052.173-8.009 13.346-.105.053-22.558 11.29zm14.995-.814h6.177l19.71-4.155-4.778-1.003H87.826l-10.317 5.158zm6.261.814h-9.712l13.576-6.787 11.11.009 8.607 1.808-23.58 4.97zm72.271-.814h8.62c1.045-.002 2.068-.201 3.04-.592 3.285-1.253 5.498-4.452 5.511-7.962v-8.802l-73.915-5.69c-.046.454-.184.896-.409 1.299l-5.882 9.801h5.952c.236 0 .47.024.696.072l56.387 11.874zm8.62.814l-8.747-.009-56.428-11.882c-.17-.036-.349-.055-.528-.055h-7.39l6.614-11.023c.221-.395.332-.853.316-1.315l-.016-.455 75.544 5.815v9.558c-.014 3.846-2.437 7.349-6.03 8.718-1.059.428-2.184.646-3.336.648zM57.147 120.271c-31.028.035-56.3 25.307-56.334 56.335 0 1.422 1.158 2.58 2.58 2.58h59.727c.407.011.8-.085 1.157-.259l3.476-1.737.19.108c2.166 1.234 4.63 1.888 7.123 1.888l11.927-.564 33.21-6.752.08.017 36.09 7.266 8.287.033h.013c1.792 0 3.545-.336 5.21-1.002 1.25-.487 2.422-1.146 3.488-1.961l.654-.5v3.463h5.158v-61.71c0-.625-.029-1.256-.088-1.877-.908-9.398-8.06-16.964-17.395-18.399l-19.384-3.567-.096-.142-4.846-7.25V74.784l.163-.122c6.556-4.905 10.783-12.392 11.6-20.54l.036-.366h.554c6.362 0 11.538-5.176 11.538-11.538 0-6.363-5.176-11.539-11.538-11.539h-.41l.003-.411c.005-.628-.025-1.267-.088-1.897 0-.309-.013-.575-.042-.838-.002-.108-.015-.169-.026-.23l-.018-.257c-.044-.474-.12-.987-.224-1.49-.099-.767-.242-1.498-.429-2.204-.456-1.904-1.114-3.756-1.956-5.513l-.039-.158C146.1 8.367 138.207.815 128.893.815H92.986c-1.423 0-2.579 1.157-2.579 2.579v2.987c.013 3.45 1.27 6.784 3.536 9.387l.188.215-.138.25c-.497.896-.953 1.836-1.355 2.792-.24.587-.457 1.178-.686 1.834-.102.256-.18.503-.24.751-.575 1.847-.957 3.729-1.139 5.619-.039.283-.06.551-.065.819-.068.762-.1 1.476-.1 2.212v.407H90c-6.362 0-11.539 5.177-11.539 11.539s5.177 11.539 11.54 11.539h.552l.036.366c.811 8.153 5.04 15.643 11.6 20.551l.163.122v11.457l-5.003 7.508-.148.04-20.453 5.563c-9.35 2.071-16.159 10.509-16.206 20.067v.852h-3.394zM63.156 180H3.394C1.522 180 0 178.477 0 176.606c.034-31.477 25.671-57.115 57.148-57.149l2.58-.04c.05-9.938 7.125-18.707 16.825-20.856l20.287-5.518 4.697-7.048V75.191c-6.55-4.971-10.805-12.464-11.719-20.633-6.729-.098-12.172-5.601-12.172-12.352 0-6.677 5.324-12.133 11.95-12.347.01-.62.043-1.231.1-1.855.002-.269.026-.571.068-.869.187-1.93.58-3.868 1.163-5.742.062-.259.152-.544.263-.819.228-.654.448-1.258.696-1.862.378-.898.8-1.779 1.258-2.625-2.279-2.718-3.538-6.153-3.55-9.705V3.394c0-1.871 1.521-3.393 3.392-3.393h35.908c9.717 0 17.952 7.855 18.415 17.561.85 1.787 1.514 3.666 1.975 5.591.193.731.343 1.498.441 2.268.106.503.187 1.048.235 1.59l.002.158c.024.098.041.207.041.32.03.251.045.548.042.845.051.49.081 1.013.09 1.537 6.623.215 11.945 5.671 11.945 12.347 0 6.75-5.442 12.254-12.17 12.351-.92 8.164-5.175 15.653-11.72 20.622v10.804l4.613 6.9 19.034 3.501c9.69 1.49 17.126 9.356 18.071 19.125.06.648.091 1.305.091 1.955V180h-6.787v-2.656c-.946.646-1.962 1.182-3.029 1.598-1.758.701-3.613 1.058-5.51 1.058h-.013l-8.368-.04-36.089-7.259-33.109 6.727-12.008.572h-.002c-2.58 0-5.112-.652-7.354-1.888l-3.09 1.546c-.464.225-.975.342-1.484.342z"/>
    </g>
</svg>
