<svg xmlns="http://www.w3.org/2000/svg" width="160" height="89" viewBox="0 0 160 89">
    <g fill="#FFF" fill-rule="evenodd">
        <path d="M153.044 81.583H59.13c-1.92 0-3.477-1.66-3.477-3.708v-3.709c0-2.047-1.558-3.708-3.48-3.708-1.92 0-3.477 1.661-3.477 3.708v3.709c0 2.048-1.557 3.708-3.478 3.708H6.957V7.416h38.26c1.922 0 3.479 1.661 3.479 3.709v3.708c0 2.048 1.557 3.708 3.478 3.708 1.92 0 3.479-1.66 3.479-3.708v-3.708c0-2.048 1.557-3.709 3.478-3.709h93.913v74.167zM156.522 0H59.13c-2.576.009-5.055 1.041-6.957 2.893C50.273 1.041 47.793.009 45.218 0H3.478C1.559 0 .002 1.66.002 3.708v81.583C0 87.339 1.558 89 3.479 89h41.739c2.575-.01 5.055-1.041 6.956-2.893 1.902 1.852 4.38 2.883 6.957 2.893H156.522c1.92 0 3.479-1.661 3.479-3.709V3.708C160 1.66 158.443 0 156.52 0z"/>
        <path d="M52.57 25.959c1.921 0 3.48 1.66 3.48 3.707 0 2.049-1.559 3.71-3.48 3.71-1.92 0-3.478-1.661-3.478-3.71 0-2.047 1.557-3.707 3.478-3.707M52.57 40.791c1.921 0 3.48 1.662 3.48 3.709s-1.559 3.709-3.48 3.709c-1.92 0-3.478-1.662-3.478-3.71 0-2.047 1.557-3.708 3.478-3.708M52.57 55.625c1.921 0 3.48 1.66 3.48 3.708s-1.559 3.709-3.48 3.709c-1.92 0-3.478-1.661-3.478-3.709s1.557-3.708 3.478-3.708M90.322 24.5c3.156 0 5.714 2.558 5.714 5.714 0 3.156-2.558 5.715-5.714 5.715-3.156 0-5.714-2.559-5.714-5.715 0-3.156 2.558-5.714 5.714-5.714M118.893 53.071c3.156 0 5.714 2.56 5.714 5.714 0 3.156-2.558 5.715-5.714 5.715-3.156 0-5.714-2.559-5.714-5.715 0-3.155 2.558-5.714 5.714-5.714M85.86 63.27c1.671 1.64 4.379 1.64 6.05 0l31.496-31.646c1.642-1.67 1.595-4.331-.105-5.944-1.658-1.573-4.286-1.573-5.944 0L85.86 57.327c-1.67 1.64-1.67 4.3 0 5.943"/>
    </g>
</svg>
