<?xml version="1.0" encoding="UTF-8"?>
<!DOCTYPE svg PUBLIC "-//W3C//DTD SVG 1.1//EN" "http://www.w3.org/Graphics/SVG/1.1/DTD/svg11.dtd">
<svg version="1.1" xmlns="http://www.w3.org/2000/svg" xmlns:xlink="http://www.w3.org/1999/xlink" x="0" y="0" width="120" height="120" viewBox="0, 0, 120, 120">
  <defs>
    <clipPath id="Clip_1">
      <path d="M60,120 C93.137,120 120,93.137 120,60 C120,26.863 93.137,0 60,0 C26.863,0 0,26.863 0,60 C0,93.137 26.863,120 60,120 z"/>
    </clipPath>
    <clipPath id="Clip_2">
      <path d="M0,120 L120,120 L120,0 L0,0 z"/>
    </clipPath>
    <clipPath id="Clip_3">
      <path d="M60,0 C93.137,0 120,26.863 120,60 C120,93.137 93.137,120 60,120 C26.863,120 0,93.137 0,60 C0,26.863 26.863,0 60,0 z"/>
    </clipPath>
    <clipPath id="Clip_4">
      <path d="M40.644,65.887 C41.371,66.109 42.143,66.215 42.823,66.552 C43.965,67.118 44.975,67.919 46.067,68.574 C48.299,69.914 50.326,70.954 52.817,71.655 C54.864,72.143 55.387,72.896 55.678,74.202 C56.437,77.616 65.797,76.296 66.412,79.475 C66.904,82.012 62.486,81.774 63.466,85.811 C64.21,88.894 63.398,90.502 60.205,90.652 C57.252,90.79 60.604,92.272 57.013,95.46 C56.512,95.904 56.08,96.288 56.02,96.682 C55.901,97.466 57.367,101.396 53.334,101.407 C52.959,101.342 52.582,101.282 52.21,101.206 C50.805,100.682 50.202,99.074 48.7,96.616 C43.274,87.75 46.495,87.617 42.638,85.66 C40.017,84.328 36.055,82.315 36.244,71.903 C36.282,69.861 36.569,67.622 38.413,66.502 C39.621,65.905 38.897,66.17 40.644,65.887 z M40.475,68.096 C38.697,68.096 38.472,70.217 38.441,71.943 C38.276,80.98 41.246,82.489 43.633,83.701 C48.552,86.199 45.382,86.988 50.573,95.47 C53.069,99.551 52.469,99.385 54.013,99.07 C54.054,98.954 53.975,98.427 53.927,98.113 C53.329,94.154 56.081,94.163 56.564,92.641 C56.885,91.636 55.833,88.657 60.103,88.458 C62.373,88.351 61.417,87.618 61.135,85.365 C60.692,81.852 63.561,80.303 64.011,79.91 C60.839,78.593 54.552,79.225 53.535,74.68 C53.145,72.934 52.215,75.336 43.973,69.828 C42.526,68.861 41.384,68.096 40.475,68.096 z"/>
    </clipPath>
    <clipPath id="Clip_5">
      <path d="M40.106,22.73 C43.65,23.168 45.855,23.707 46.356,25.244 C46.649,26.144 46.267,27.082 45.22,28.032 C39.723,32.937 36,33.386 35.495,34.051 C35.518,34.284 35.596,34.38 36.354,34.783 C38.361,35.851 38.305,36.567 38.521,36.736 C39.151,34.917 39.456,29.099 44.472,31.971 C46.349,33.046 45.654,31.903 47.37,31.903 C48.438,31.903 49.186,32.699 49.656,33.297 C62.103,49.494 48.445,41.712 42.263,48.201 C40.8,49.732 39.852,52.059 37.715,53.372 C36.37,54.16 36.309,54.101 36.491,55.316 C36.63,56.302 36.776,57.235 36.3,58.185 C35.745,59.292 34.386,59.818 33.345,59.305 C31.726,58.513 32.51,56.76 30.665,56.76 C26.909,56.76 25.363,63.19 29.113,61.412 C31.436,60.373 32.815,61.06 32.544,63.691 C32.456,64.554 33.132,71.71 28.216,69.234 C20.796,65.456 21.494,57.682 21.226,56.554 C20.626,54.464 19.317,55.865 18.396,57.064 C18.466,55.935 18.58,54.817 18.738,53.713 C20.727,52.656 22.704,53.742 23.342,55.966 C23.745,57.429 22.893,64.059 29.209,67.274 C29.829,67.587 29.988,67.507 29.989,67.508 C30.464,67.147 30.248,64.65 30.379,63.273 C30.262,63.312 30.141,63.358 30.031,63.408 C27.159,64.769 24.71,63.059 24.767,60.617 C24.851,56.996 27.884,54.563 30.665,54.563 C33.53,54.563 33.988,56.747 34.285,57.272 C34.547,56.994 34.387,56.126 34.316,55.624 C33.914,52.916 35.08,52.487 36.568,51.499 C38.199,50.498 39.085,48.348 40.674,46.684 C44.846,42.306 51.864,43.089 52.574,42.118 C52.57,42.118 52.622,41.837 52.14,41 C49.114,35.672 47.432,34.207 47.349,34.096 C47.186,34.137 46.732,34.444 46.147,34.577 C43.221,35.224 42.004,30.876 41.096,35.697 C40.795,37.296 40.268,38.945 38.529,38.945 C37.696,38.945 36.9,38.439 36.501,37.655 C35.938,36.549 33.381,36.534 33.316,34.11 C33.233,31.03 36.986,32.435 43.751,26.398 C44.015,26.158 44.143,25.991 44.205,25.893 C43.383,25.238 39.562,24.866 37.061,24.592 C38.047,23.928 39.065,23.31 40.106,22.73 z"/>
    </clipPath>
    <clipPath id="Clip_6">
      <path d="M85.982,25.866 C87.107,26.711 88.186,27.612 89.22,28.561 C88.838,28.403 88.457,28.24 88.07,28.099 C86.196,27.416 84.274,28.849 84.159,30.751 L84.139,31.081 C84.026,32.978 86.566,32.927 86.973,35.149 C88.23,36.694 88.026,39.472 85.83,41.163 C83.687,42.815 85.409,45.381 86.148,45.475 C87.255,44.997 87.895,44.366 89.3,44.366 C92.485,44.366 94.742,48.155 96.58,49.161 C97.713,49.779 99.173,49.938 100.48,50.82 C102.613,52.261 101.493,55.624 98.942,55.633 C95.887,55.641 94.544,56.955 92.035,53.431 C91.069,52.073 90.206,50.928 87.638,51.172 C84.738,51.45 82.47,53.822 80.212,56.438 C76.348,60.945 75.446,63.003 79.583,70.131 C79.922,70.703 80.275,71.302 80.734,71.558 C81.199,71.824 81.901,71.824 82.52,71.824 L82.523,71.824 C84.764,71.824 86.713,72.823 87.967,74.564 C90.294,77.796 89.233,79.454 85.113,91.76 C84.855,92.532 85.009,93.349 85.461,93.965 C84.872,94.393 84.272,94.804 83.661,95.203 C82.831,94.036 82.546,92.511 83.03,91.063 C87.181,78.667 87.79,78.077 86.185,75.848 C83.482,72.092 80.643,76.248 77.688,71.24 C73.178,63.469 73.947,60.371 78.547,55.005 C81.009,52.153 83.721,49.341 87.427,48.986 C92.914,48.443 93.568,52.817 95.106,53.538 C95.936,53.925 97.699,53.44 98.935,53.436 C99.347,53.435 99.575,52.86 99.25,52.64 C97.236,51.279 96.724,52.626 93.021,49.012 C88.337,44.445 88.722,47.672 86.161,47.672 L85.983,47.665 C83.337,47.471 80.696,42.346 84.489,39.424 C85.133,38.928 85.518,38.238 85.549,37.53 C85.592,36.51 85.034,36.383 84.836,36.125 L84.823,35.659 C84.796,34.659 81.749,34.239 81.947,30.949 L81.967,30.619 C82.109,28.267 83.793,26.363 85.982,25.866 z"/>
    </clipPath>
    <clipPath id="Clip_7">
      <path d="M53.987,18.602 C56.845,19.148 55.564,18.733 57.867,19.723 C59.79,20.61 59.993,20.817 67.98,20.263 C72.442,19.954 71.353,23.132 72.161,25.732 C72.64,27.265 73.531,30.118 69.204,32.316 C65.088,34.318 66.146,33.924 64.48,36.277 C60.948,41.274 55.97,33.943 57.292,30.489 C58.035,28.549 60.112,28.099 56.986,26.635 C53.791,25.139 50.001,22.52 52.089,19.692 C52.986,18.761 52.402,19.198 53.987,18.602 z M54.424,20.794 C53.848,20.794 53.652,21.173 53.731,21.49 C53.899,22.147 55.085,23.32 57.918,24.646 C63.375,27.202 59.627,30.532 59.344,31.274 C58.917,32.388 60.963,37.448 62.688,35.008 C64.617,32.282 63.351,32.827 68.209,30.358 C70.881,29.001 70.521,27.847 70.064,26.386 C68.492,21.34 72.382,22.462 61.818,22.766 C57.459,22.766 55.889,20.794 54.424,20.794 z"/>
    </clipPath>
    <clipPath id="Clip_8">
      <path d="M60,15 C84.813,15 105,35.186 105,60 C105,84.813 84.813,105 60,105 C35.187,105 15,84.813 15,60 C15,35.186 35.187,15 60,15 z M60,18.126 C36.911,18.126 18.127,36.911 18.127,60 C18.127,83.089 36.911,101.873 60,101.873 C83.089,101.873 101.873,83.089 101.873,60 C101.873,36.911 83.089,18.126 60,18.126 z"/>
    </clipPath>
  </defs>
  <g id="Layer_1">
    <g clip-path="url(#Clip_3)">
      <g>
        <g clip-path="url(#Clip_1)">
          <path d="M60,120 C93.137,120 120,93.137 120,60 C120,26.863 93.137,0 60,0 C26.863,0 0,26.863 0,60 C0,93.137 26.863,120 60,120 z" fill="#FFFFFF"/>
        </g>
        <g clip-path="url(#Clip_2)">
          <path d="M60,120 C93.137,120 120,93.137 120,60 C120,26.863 93.137,0 60,0 C26.863,0 0,26.863 0,60 C0,93.137 26.863,120 60,120 z" fill-opacity="0" stroke="#0073d2" stroke-width="10"/>
        </g>
      </g>
    </g>
    <g>
      <g clip-path="url(#Clip_4)">
        <path d="M31.238,60.883 L71.451,60.883 L71.451,106.407 L31.238,106.407 z" fill="#333333"/>
      </g>
      <g clip-path="url(#Clip_5)">
        <path d="M13.396,17.73 L59.718,17.73 L59.718,74.752 L13.396,74.752 z" fill="#333333"/>
      </g>
      <g clip-path="url(#Clip_6)">
        <path d="M69.674,20.866 L106.604,20.866 L106.604,100.203 L69.674,100.203 z" fill="#333333"/>
      </g>
      <g clip-path="url(#Clip_7)">
        <path d="M46.49,13.593 L77.577,13.593 L77.577,42.968 L46.49,42.968 z" fill="#333333"/>
      </g>
      <g clip-path="url(#Clip_8)">
        <path d="M10,10 L110,10 L110,110 L10,110 z" fill="#333333"/>
      </g>
    </g>
  </g>
</svg>
