<svg xmlns="http://www.w3.org/2000/svg" xmlns:xlink="http://www.w3.org/1999/xlink" width="133" height="80" viewBox="0 0 133 80">
    <defs>
        <path id="aze4lkotka" d="M0 79.789L132.25 79.789 132.25 0 0 0z"/>
    </defs>
    <g fill="none" fill-rule="evenodd">
        <path fill="#000" d="M73.74 76.123H6.036c-1.308 0-2.372-1.069-2.372-2.384V25.963h72.46V73.74c0 1.315-1.072 2.384-2.386 2.384zM6.036 9.315h10.957v3.936c0 .667.54 1.208 1.207 1.208h5.85c.668 0 1.208-.54 1.208-1.208V9.315h29.27v3.936c0 .667.54 1.208 1.207 1.208h5.85c.668 0 1.208-.54 1.208-1.208V9.315H73.74c1.314 0 2.385 1.071 2.385 2.384v11.85H3.665v-11.85c0-1.313 1.064-2.384 2.372-2.384zm13.372 2.73h3.435v-8.38H19.41v8.38zm37.535 0h3.435v-8.38h-3.435v8.38zM73.74 6.9H62.794V2.457c0-.666-.54-1.207-1.208-1.207h-5.85c-.668 0-1.207.541-1.207 1.207V6.9H25.26V2.457c0-.666-.54-1.207-1.208-1.207h-5.85c-.667 0-1.207.541-1.207 1.207V6.9H6.037c-2.64 0-4.787 2.154-4.787 4.8v62.04c0 2.646 2.147 4.8 4.787 4.8H73.74c2.645 0 4.8-2.154 4.8-4.8V11.7c0-2.646-2.155-4.8-4.8-4.8z"/>
        <path stroke="#000" stroke-width="2.5" d="M73.74 76.123H6.036c-1.308 0-2.372-1.069-2.372-2.384V25.963h72.46V73.74c0 1.315-1.072 2.384-2.386 2.384zM6.036 9.315h10.957v3.936c0 .667.54 1.208 1.207 1.208h5.85c.668 0 1.208-.54 1.208-1.208V9.315h29.27v3.936c0 .667.54 1.208 1.207 1.208h5.85c.668 0 1.208-.54 1.208-1.208V9.315H73.74c1.314 0 2.385 1.071 2.385 2.384v11.85H3.665v-11.85c0-1.313 1.064-2.384 2.372-2.384zm13.372 2.73h3.435v-8.38H19.41v8.38zm37.535 0h3.435v-8.38h-3.435v8.38zM73.74 6.9H62.794V2.457c0-.666-.54-1.207-1.208-1.207h-5.85c-.668 0-1.207.541-1.207 1.207V6.9H25.26V2.457c0-.666-.54-1.207-1.208-1.207h-5.85c-.667 0-1.207.541-1.207 1.207V6.9H6.037c-2.64 0-4.787 2.154-4.787 4.8v62.04c0 2.646 2.147 4.8 4.787 4.8H73.74c2.645 0 4.8-2.154 4.8-4.8V11.7c0-2.646-2.155-4.8-4.8-4.8z"/>
        <path fill="#FFF" d="M73.74 76.123H6.036c-1.308 0-2.372-1.069-2.372-2.384V25.963h72.46V73.74c0 1.315-1.072 2.384-2.386 2.384M6.037 9.315h10.957v3.936c0 .667.54 1.208 1.207 1.208h5.85c.668 0 1.208-.54 1.208-1.208V9.315h29.27v3.936c0 .667.54 1.208 1.207 1.208h5.85c.668 0 1.208-.54 1.208-1.208V9.315H73.74c1.314 0 2.385 1.071 2.385 2.384v11.85H3.665v-11.85c0-1.313 1.064-2.384 2.372-2.384"/>
        <path stroke="#000" stroke-width="2.5" d="M73.74 76.123H6.036c-1.308 0-2.372-1.069-2.372-2.384V25.963h72.46V73.74c0 1.315-1.072 2.384-2.386 2.384zM6.036 9.315h10.957v3.936c0 .667.54 1.208 1.207 1.208h5.85c.668 0 1.208-.54 1.208-1.208V9.315h29.27v3.936c0 .667.54 1.208 1.207 1.208h5.85c.668 0 1.208-.54 1.208-1.208V9.315H73.74c1.314 0 2.385 1.071 2.385 2.384v11.85H3.665v-11.85c0-1.313 1.064-2.384 2.372-2.384z"/>
        <path fill="#000" d="M34.8 63.456h-.059c-.509-.015-.974-.273-1.25-.689L22.672 46.325c-.466-.704-.262-1.65.45-2.125.727-.46 1.687-.259 2.152.46l9.626 14.603 19.673-25.488c.523-.674 1.497-.804 2.181-.287.683.502.814 1.48.291 2.14l-21.01 27.224c-.292.388-.758.604-1.237.604"/>
        <path fill="#666" d="M128.393 61.457H88.097c-.778 0-1.41-.637-1.41-1.418V31.603h43.125V60.04c0 .781-.637 1.418-1.419 1.418zM88.097 21.694h6.522v2.342c0 .398.321.72.718.72h3.482c.397 0 .72-.322.72-.72v-2.342h17.42v2.342c0 .398.322.72.72.72h3.481c.397 0 .718-.322.718-.72v-2.342h6.515c.782 0 1.42.637 1.42 1.42v7.051H86.685v-7.052c0-.782.633-1.419 1.411-1.419zm7.96 1.623H98.1v-4.986h-2.044v4.986zm22.34 0h2.044v-4.986h-2.044v4.986zm9.996-3.06h-6.515v-2.645c0-.397-.32-.718-.718-.718h-3.482c-.397 0-.719.321-.719.718v2.645H99.54v-2.645c0-.397-.323-.718-.72-.718h-3.482c-.397 0-.718.321-.718.718v2.645h-6.522c-1.57 0-2.85 1.281-2.85 2.856V60.04c0 1.574 1.28 2.856 2.85 2.856h40.296c1.575 0 2.856-1.282 2.856-2.856V23.113c0-1.575-1.28-2.856-2.856-2.856z"/>
        <path stroke="#666" stroke-width="2" d="M128.393 61.457H88.097c-.778 0-1.41-.637-1.41-1.418V31.603h43.125V60.04c0 .781-.637 1.418-1.419 1.418zM88.097 21.694h6.522v2.342c0 .398.321.72.718.72h3.482c.397 0 .72-.322.72-.72v-2.342h17.42v2.342c0 .398.322.72.72.72h3.481c.397 0 .718-.322.718-.72v-2.342h6.515c.782 0 1.42.637 1.42 1.42v7.051H86.685v-7.052c0-.782.633-1.419 1.411-1.419zm7.96 1.623H98.1v-4.986h-2.044v4.986zm22.34 0h2.044v-4.986h-2.044v4.986zm9.996-3.06h-6.515v-2.645c0-.397-.32-.718-.718-.718h-3.482c-.397 0-.719.321-.719.718v2.645H99.54v-2.645c0-.397-.323-.718-.72-.718h-3.482c-.397 0-.718.321-.718.718v2.645h-6.522c-1.57 0-2.85 1.281-2.85 2.856V60.04c0 1.574 1.28 2.856 2.85 2.856h40.296c1.575 0 2.856-1.282 2.856-2.856V23.113c0-1.575-1.28-2.856-2.856-2.856z"/>
        <mask id="aymxx7fh9b" fill="#fff">
            <use xlink:href="#aze4lkotka"/>
        </mask>
        <path fill="#CCC" d="M113.743 40.933L119.196 40.933 119.196 35.48 113.743 35.48zM121.963 40.933L127.417 40.933 127.417 35.48 121.963 35.48zM105.522 49.334L110.975 49.334 110.975 43.881 105.522 43.881zM113.743 49.334L119.196 49.334 119.196 43.881 113.743 43.881zM121.963 49.334L127.417 49.334 127.417 43.881 121.963 43.881zM97.303 49.334L102.756 49.334 102.756 43.881 97.303 43.881zM89.082 49.334L94.535 49.334 94.535 43.881 89.082 43.881zM105.522 57.737L110.975 57.737 110.975 52.284 105.522 52.284zM113.743 57.737L119.196 57.737 119.196 52.284 113.743 52.284zM97.303 57.737L102.756 57.737 102.756 52.284 97.303 52.284zM89.082 57.737L94.535 57.737 94.535 52.284 89.082 52.284z" mask="url(#aymxx7fh9b)"/>
    </g>
</svg>
