<?xml version="1.0" encoding="UTF-8"?>
<!DOCTYPE svg PUBLIC "-//W3C//DTD SVG 1.1//EN" "http://www.w3.org/Graphics/SVG/1.1/DTD/svg11.dtd">
<svg version="1.1" xmlns="http://www.w3.org/2000/svg" xmlns:xlink="http://www.w3.org/1999/xlink" x="0" y="0" width="120" height="120" viewBox="0, 0, 120, 120">
  <defs>
    <clipPath id="Clip_1">
      <path d="M60,120 C93.137,120 120,93.137 120,60 C120,26.863 93.137,0 60,0 C26.863,0 0,26.863 0,60 C0,93.137 26.863,120 60,120 z"/>
    </clipPath>
    <clipPath id="Clip_2">
      <path d="M0,120 L120,120 L120,0 L0,0 z"/>
    </clipPath>
    <clipPath id="Clip_3">
      <path d="M60,0 C93.137,0 120,26.863 120,60 C120,93.137 93.137,120 60,120 C26.863,120 0,93.137 0,60 C0,26.863 26.863,0 60,0 z"/>
    </clipPath>
    <clipPath id="Clip_4">
      <path d="M79.263,94.999 L79.263,58.71 L94.139,56.422 L90.351,36.532 C89.685,33.033 87.303,30.183 83.979,28.904 L74.033,25.078 L68.018,25 L67.972,25 L67.972,26.129 C67.972,30.485 64.426,34.031 60.069,34.031 C55.714,34.031 52.168,30.487 52.166,26.131 L52.166,25.002 L46.302,25.002 L36.161,28.902 C32.836,30.182 30.455,33.033 29.787,36.531 L26,56.422 L40.876,58.71 L40.876,94.999 L79.263,94.999 z"/>
    </clipPath>
    <clipPath id="Clip_5">
      <path d="M94.139,25 L94.139,94.999 L26,94.999 L26,25 L94.139,25 z"/>
    </clipPath>
  </defs>
  <g id="Layer_1">
    <g clip-path="url(#Clip_3)">
      <g>
        <g clip-path="url(#Clip_1)">
          <path d="M60,120 C93.137,120 120,93.137 120,60 C120,26.863 93.137,0 60,0 C26.863,0 0,26.863 0,60 C0,93.137 26.863,120 60,120 z" fill="#FFFFFF"/>
        </g>
        <g clip-path="url(#Clip_2)">
          <path d="M60,120 C93.137,120 120,93.137 120,60 C120,26.863 93.137,0 60,0 C26.863,0 0,26.863 0,60 C0,93.137 26.863,120 60,120 z" fill-opacity="0" stroke="#0073d2" stroke-width="10"/>
        </g>
      </g>
    </g>
    <g clip-path="url(#Clip_5)">
      <g clip-path="url(#Clip_4)">
        <path d="M21,19.999 L99.139,19.999 L99.139,99.999 L21,99.999 z" fill="#FFFFFF"/>
      </g>
    </g>
    <g>
      <path d="M73.524,66.524 C70.079,66.409 66.704,65.524 63.644,63.934 L63.396,63.818 C61.769,62.876 59.963,62.283 58.094,62.077 L57.834,62.077 C55.274,62.163 52.517,63.429 49.597,64.77 C47.697,65.695 45.736,66.49 43.727,67.152 C42.397,67.577 41.01,67.804 39.614,67.829 C38.391,67.817 37.172,67.697 35.972,67.471 C29.615,66.249 23.962,62.28 23.962,60.003 C23.962,58.587 25.74,56.813 27.169,55.383 C28.596,53.957 29.714,52.842 29.714,51.59 C29.707,50.769 29.213,50.03 28.459,49.706 C27.766,49.374 27.209,48.814 26.879,48.12 C27.827,48.05 28.798,48.017 29.819,48.017 L30.454,48.017 C34.48,48.121 38.487,48.614 42.419,49.487 C43.301,49.677 44.199,49.884 45.115,50.109 C47.758,50.761 51.302,51.768 54.645,52.868 C56.485,53.472 58.275,54.088 60.003,54.694 L60.039,54.707 C61.865,55.359 63.605,56.001 65.256,56.605 C68.072,57.649 70.603,58.572 72.756,59.27 L72.909,59.32 C75.077,60.106 77.334,60.62 79.628,60.848 C80.04,60.878 80.466,60.9 80.918,60.9 C83.414,60.915 85.878,60.35 88.121,59.253 C89.328,58.677 90.438,57.919 91.413,57.003 C91.753,56.653 91.871,56.143 91.716,55.681 C91.572,55.257 91.403,54.843 91.211,54.439 C91.191,54.393 91.171,54.349 91.15,54.309 C90.32,52.658 89.3,51.111 88.109,49.699 L87.919,49.478 C84.186,45.208 79.666,41.697 74.605,39.135 C68.839,36.178 62.63,34.183 56.221,33.228 C54.946,33.028 53.64,32.857 52.295,32.723 C52.229,32.723 52.164,32.706 52.104,32.699 C53.122,32.645 54.178,32.614 55.264,32.614 C74.232,32.614 94.391,41.299 94.391,57.394 C94.391,62.422 77.614,66.524 73.524,66.524 z M59.177,76.958 L59.177,64.883 C59.28,64.913 59.387,64.952 59.495,64.988 C59.737,65.068 59.98,65.155 60.244,65.261 C60.403,65.328 60.567,65.391 60.736,65.47 C61.025,65.6 61.32,65.73 61.631,65.874 L61.786,65.944 L61.786,76.958 L59.176,76.958 z M56.569,82.175 L64.394,82.175 L64.394,79.567 L56.569,79.567 L56.569,82.175 z M59.178,87.392 L61.786,87.392 L61.786,84.784 L59.178,84.784 L59.178,87.392 z M56.568,75.724 L46.884,68.793 C48.178,68.278 49.444,67.707 50.68,67.14 C52.562,66.187 54.535,65.425 56.569,64.867 L56.569,75.724 z M40.727,70.39 C41.177,70.353 41.64,70.29 42.113,70.209 C42.253,70.184 42.399,70.151 42.543,70.124 C42.886,70.054 43.238,69.976 43.596,69.884 C43.683,69.863 43.764,69.851 43.856,69.828 L54.796,77.653 C54.788,77.661 54.784,77.671 54.776,77.679 C54.618,77.832 54.479,78.003 54.364,78.191 C54.337,78.235 54.316,78.281 54.291,78.321 C54.2,78.489 54.127,78.667 54.075,78.85 C54.067,78.88 54.047,78.907 54.041,78.936 L40.711,70.38 L40.727,70.39 z M36.573,39.892 C43.413,39.852 50.242,40.482 56.96,41.772 L57.15,41.81 C74.839,45.447 82.55,53.316 85.34,57.113 L85.354,57.131 C85.446,57.261 85.526,57.371 85.607,57.487 L85.567,57.504 C85.517,57.521 85.467,57.534 85.419,57.551 C85.027,57.681 84.635,57.797 84.231,57.895 C84.119,57.922 84.005,57.95 83.891,57.975 C83.445,58.07 82.991,58.151 82.531,58.203 C82.489,58.203 82.443,58.203 82.401,58.213 C82.109,58.243 81.809,58.251 81.511,58.262 C81.511,58.202 81.518,58.144 81.518,58.085 C81.518,55.295 76.301,50.14 68.868,50.14 C65.937,50.175 63.047,50.833 60.39,52.068 C59.882,51.89 59.523,51.764 59.054,51.602 C60.624,50.966 61.708,49.507 61.861,47.82 C61.861,42.374 48.174,43.955 42.996,46.575 C42.821,46.664 42.638,46.74 42.473,46.835 C38.878,46.07 35.226,45.602 31.553,45.437 C30.748,43.357 29.383,41.537 27.615,40.177 C30.699,39.987 33.699,39.892 36.573,39.892 z M64.18,53.435 C65.704,52.993 67.282,52.761 68.869,52.749 C74.738,52.749 78.554,56.636 78.889,57.925 C78.796,57.94 78.702,57.948 78.607,57.945 C77.69,57.901 76.78,57.751 75.896,57.501 L75.838,57.483 L75.82,57.477 C75.783,57.462 75.745,57.451 75.707,57.44 C72.797,56.648 68.523,55.023 64.18,53.435 z M46.827,47.845 C49.187,47.17 51.627,46.812 54.084,46.782 C55.187,46.782 58.614,46.948 59.246,47.842 C59.202,49.017 56.416,49.967 55.113,50.275 C51.971,49.253 49.022,48.407 46.827,47.845 z M41.717,37.385 C41.636,36.565 41.373,35.775 40.945,35.071 C41.045,35.071 41.144,35.058 41.244,35.054 C42.449,35.001 43.649,34.968 44.824,34.968 C73.808,34.968 86.443,50.431 88.918,55.706 C88.802,55.795 88.668,55.891 88.526,55.994 L88.404,56.074 C88.292,56.152 88.174,56.228 88.047,56.309 L88.002,56.336 C84.594,51.128 78.03,45.853 67.97,42.176 C67.608,42.046 67.235,41.916 66.86,41.786 L66.49,41.655 C58.483,39.042 50.138,37.603 41.717,37.385 z M55.264,30.005 C49.343,29.922 43.452,30.835 37.834,32.704 L37.814,32.714 C37.691,32.768 37.576,32.84 37.474,32.929 C37.101,33.252 36.94,33.755 37.06,34.234 C37.134,34.493 37.28,34.726 37.478,34.908 C38.221,35.546 38.772,36.378 39.071,37.308 C38.248,37.294 37.419,37.283 36.573,37.283 C32.53,37.283 28.256,37.468 23.853,37.835 C23.136,37.894 22.603,38.525 22.663,39.243 C22.697,39.661 22.931,40.037 23.291,40.253 C25.476,41.548 27.339,43.321 28.744,45.437 C27.5,45.466 26.294,45.531 25.12,45.665 C24.46,45.739 23.962,46.297 23.962,46.961 C24.054,48.981 25.166,50.816 26.914,51.834 C26.418,52.432 25.887,53.002 25.326,53.54 C23.554,55.308 21.354,57.506 21.354,60.003 C21.354,64.261 28.602,68.628 35.233,69.978 L53.96,82 L53.96,82.174 C53.96,83.614 55.128,84.783 56.569,84.783 L56.569,87.391 C56.569,88.831 57.736,90 59.177,90 L61.786,90 C63.226,90 64.394,88.832 64.394,87.39 L64.394,84.783 C65.834,84.783 67.003,83.615 67.003,82.173 L67.003,79.566 C67.003,78.125 65.835,76.956 64.393,76.956 L64.393,67.111 C67.265,68.406 70.373,69.094 73.523,69.131 C77.406,69.131 96.193,65.349 96.975,57.875 C96.992,57.789 97,57.702 97,57.614 L97,57.393 C97,39.603 75.497,30.003 55.264,30.003 z" fill="#000000"/>
      <path d="M43.206,60.042 C41.214,60.512 39.179,60.767 37.131,60.802 C36.756,60.804 36.379,60.785 36.006,60.747 C37.427,59.133 39.27,57.948 41.33,57.327 C42.995,56.817 44.726,56.557 46.466,56.552 C47.346,56.474 48.229,56.613 49.042,56.958 C48.778,57.575 46.969,59.102 43.208,60.042 L43.206,60.042 z M46.467,53.943 C44.446,53.953 42.437,54.26 40.505,54.855 C36.419,56.22 33.093,59.11 33.093,61.307 C33.093,63.409 36.133,63.409 37.135,63.409 C39.395,63.375 41.645,63.094 43.845,62.571 C48.54,61.398 51.686,59.105 51.686,56.863 C51.684,55.773 51.006,53.943 46.467,53.943 z" fill="#000000"/>
    </g>
  </g>
</svg>
