<svg xmlns="http://www.w3.org/2000/svg" xmlns:xlink="http://www.w3.org/1999/xlink" width="120" height="120" viewBox="0 0 120 120">
    <defs>
        <path id="qswkz2eg2a" d="M0 0L111.322 0 111.322 120 0 120z"/>
    </defs>
    <g fill="none" fill-rule="evenodd">
        <path fill="#000" d="M98.865 33.915h-.055c-.477-.014-.913-.262-1.172-.662L87.508 17.46c-.438-.676-.246-1.587.42-2.042.681-.441 1.582-.248 2.017.442l9.015 14.027 18.425-24.483c.49-.648 1.402-.772 2.041-.275.64.482.763 1.42.273 2.055l-19.677 26.152c-.273.372-.709.579-1.157.579"/>
        <mask id="col1nw78eb" fill="#fff">
            <use xlink:href="#qswkz2eg2a"/>
        </mask>
        <path fill="#CCC" d="M14.843 25.91C4.198 37.474-1.015 52.523.164 68.285c.997 13.335 6.724 25.888 16.122 35.344 9.399 9.457 21.871 15.215 35.12 16.21 15.675 1.177 30.624-4.085 42.106-14.823 11.319-10.585 17.81-25.547 17.81-41.05 0-7.504-1.44-14.76-4.282-21.588l-6.327 2.785c2.458 5.956 3.704 12.276 3.704 18.803 0 13.534-5.655 26.61-15.515 35.876-10.003 9.4-23.048 14.047-36.721 13.085C40.47 112.1 29.452 107.05 21.159 98.7c-8.293-8.348-13.31-19.44-14.129-31.23-.955-13.754 3.651-26.872 12.968-36.939 9.205-9.945 22.204-15.65 35.665-15.65h.898v7.264c0 .24.159.355.228.395.07.04.252.119.455-.006l19.697-11.13L56.853.04c-.08-.05-.143-.05-.202-.017-.06.036-.09.087-.09.157v7.75h-.898c-15.424 0-30.301 6.553-40.82 17.98" mask="url(#col1nw78eb)"/>
        <path fill="#000" d="M72.783 44.321L72.783 61.667 68.478 61.667 68.478 44.321 59.871 44.321 59.871 70.341 68.478 70.341 72.783 70.341 72.783 87.687 81.39 87.687 81.39 70.341 89.999 70.341 89.999 61.667 81.39 61.667 81.39 44.321zM25.439 44.321L25.439 52.993 42.655 52.993 42.655 61.667 25.439 61.667 25.439 87.687 51.263 87.687 51.263 79.013 34.046 79.013 34.046 70.341 51.263 70.341 51.263 44.321z"/>
    </g>
</svg>
