<svg xmlns="http://www.w3.org/2000/svg" xmlns:xlink="http://www.w3.org/1999/xlink" width="100" height="100" viewBox="0 0 100 100">
    <defs>
        <path id="civb1yhgva" d="M0 0L99.995 0 99.995 100 0 100z"/>
    </defs>
    <g fill="none" fill-rule="evenodd">
        <mask id="qn7z6mtvib" fill="#fff">
            <use xlink:href="#civb1yhgva"/>
        </mask>
        <path fill="#000" d="M51.234 56.717c-.278-.114-.58-.14-.879-.175-.124-.013-.238-.072-.365-.072h-.003l-.005-.001c-.866 0-1.715.352-2.325.966-.613.61-.966 1.455-.969 2.332-.002.859.345 1.7.951 2.305.612.615 1.46.963 2.315.957l.015-.003c.009 0 .016.005.025.005h.012c.86 0 1.703-.35 2.313-.963.613-.612.962-1.457.959-2.314.003-.867-.348-1.715-.959-2.321-.309-.311-.68-.551-1.085-.716zm-8.665-9.036c-.608-.61-1.452-.962-2.33-.962-.859 0-1.701.35-2.308.959-.616.613-.968 1.462-.964 2.317 0 .008.005.016.005.024 0 .01-.005.017-.005.027-.003.859.345 1.7.951 2.306.611.613 1.458.962 2.316.956.865 0 1.714-.352 2.323-.966.312-.311.552-.682.719-1.085.081-.194.083-.408.125-.615.042-.208.125-.406.126-.62v-.012l-.001-.001.001-.005c.004-.866-.347-1.715-.958-2.323zm20.456 2.296l.002-.012v-.012c.002-.86-.346-1.702-.957-2.31-.608-.611-1.454-.957-2.31-.951-.867-.001-1.716.352-2.324.964-.613.61-.967 1.455-.97 2.332-.001.268.09.52.155.778.141.577.381 1.127.806 1.552.609.61 1.453.96 2.318.96h.012c.86 0 1.703-.35 2.316-.962.612-.614.96-1.458.957-2.312 0-.01-.005-.018-.005-.027zM50.04 36.969c-.008 0-.014.004-.022.004-.009 0-.018-.005-.028-.005-.859 0-1.701.35-2.308.958-.616.613-.967 1.46-.964 2.319-.003.866.348 1.713.959 2.32.31.312.68.55 1.082.716.172.072.362.069.544.109.231.052.453.139.691.139h.017c.863.003 1.711-.35 2.326-.965.612-.61.966-1.454.968-2.32v-.012c.003-.86-.345-1.702-.957-2.313-.61-.61-1.454-.956-2.308-.95zm41.721 42.163l-12.629 12.63c-1.82 1.82-4.202 2.826-6.704 2.834-2.632.006-5.078-.986-6.886-2.793L53.729 79.99l26.26-26.26 11.812 11.812c1.808 1.81 2.8 4.222 2.795 6.786-.01 2.57-1.017 4.986-2.835 6.804zM23.852 50.038l26.186-26.185 26.105 26.106-26.186 26.185-26.105-26.106zM34.33 91.855c-1.816 1.812-4.229 2.812-6.795 2.814-2.57-.002-4.983-1.002-6.796-2.814L8.145 79.26c-1.815-1.815-2.814-4.193-2.815-6.696.002-2.633 1.002-5.082 2.815-6.895l11.852-11.853 26.185 26.185L34.33 91.855zm-26.138-57.4c-1.808-1.81-2.8-4.22-2.794-6.785.009-2.57 1.016-4.986 2.834-6.804l12.629-12.63c1.82-1.818 4.237-2.825 6.803-2.835 2.568-.005 4.979.988 6.788 2.795l11.814 11.813-26.26 26.26L8.192 34.456zm57.475-26.31c1.815-1.814 4.229-2.814 6.796-2.816 2.568.002 4.982 1.002 6.795 2.815l12.594 12.594c1.813 1.813 2.813 4.228 2.815 6.794-.002 2.568-1.002 4.983-2.815 6.797L79.999 46.184 53.814 19.998 65.667 8.145zM83.768 49.95L95.619 38.1c2.824-2.823 4.379-6.575 4.376-10.565.003-3.99-1.552-7.741-4.376-10.563L83.026 4.376C80.207 1.554 76.459 0 72.452 0c-3.986 0-7.734 1.554-10.553 4.376L50.046 16.23 38.233 4.418C35.419 1.603 31.672.06 27.683.074c-3.99.009-7.745 1.574-10.576 4.407L4.476 17.11C1.646 19.937.081 23.689.069 27.695.057 31.68 1.6 35.424 4.413 38.234l11.814 11.814L4.376 61.9C1.552 64.723-.002 68.51 0 72.563c0 3.928 1.553 7.646 4.376 10.466l12.593 12.594C19.79 98.446 23.539 100 27.532 100h.01c3.985 0 7.734-1.554 10.554-4.377L49.95 83.77l11.812 11.81c2.814 2.818 6.597 4.36 10.649 4.346 3.927-.011 7.65-1.575 10.478-4.406l12.63-12.63c2.83-2.828 4.395-6.581 4.407-10.574v-.01c.012-3.985-1.531-7.73-4.345-10.541L83.768 49.95z" mask="url(#qn7z6mtvib)"/>
    </g>
</svg>
