<svg xmlns="http://www.w3.org/2000/svg" xmlns:xlink="http://www.w3.org/1999/xlink" width="600" height="81" viewBox="0 0 600 81">
    <defs>
        <path id="7r1whqlg2a" d="M0.371 0.935L25.494 0.935 25.494 27.129 0.371 27.129z"/>
        <path id="fcoxzjaa7c" d="M0.982 0.935L26.103 0.935 26.103 27.129 0.982 27.129z"/>
    </defs>
    <g fill="none" fill-rule="evenodd">
        <path fill="#0069A5" d="M23.419 1.239L0 79.302 257.613 79.302 281.032 1.239z"/>
        <g>
            <path fill="#FFF" d="M112.711 33.82c-2.562 4.083-6.076 6.124-10.546 6.124-1.392 0-3.144-.131-5.247-.39l8.017-27.942c.908-.064 1.67-.098 2.285-.098 2.916.002 5.2.844 6.85 2.527 1.654 1.654 2.48 3.988 2.48 6.999-.002 4.439-1.279 8.699-3.839 12.78zM60.092 63.805c-2.82 4.017-7.84 6.025-15.065 6.025-.81 0-2.025-.033-3.644-.097l8.407-29.305c4.083 0 6.981.342 8.7 1.022 1.715.648 3.11 1.833 4.177 3.547 1.101 1.687 1.654 3.63 1.654 5.832 0 4.6-1.41 8.927-4.229 12.976zm-1.7-52.581l2.672-.1c2.655-.061 4.778.7 6.366 2.286 1.587 1.588 2.382 3.644 2.382 6.17 0 2.69-.779 5.558-2.333 8.602-1.524 3.016-3.565 5.186-6.122 6.515-2.529 1.326-5.996 2.023-10.4 2.088l7.435-25.561zm66.142-.82c-3.144-1.81-8.294-2.72-15.454-2.72H82.986l-.536 1.8c2.82.065 4.763.516 5.832 1.357 1.068.813 1.603 1.816 1.603 3.014-.002 1.2-.423 3.193-1.26 5.978l-9.469 32.58.177-.743c-.445-2.5-1.57-4.751-3.334-6.762-2.368-2.688-6.594-4.891-12.685-6.607 5.865-1.33 10.205-2.77 13.023-4.327 2.852-1.585 4.99-3.595 6.417-6.026 1.423-2.43 2.137-4.81 2.137-7.143-.003-2.85-.909-5.393-2.72-7.63-1.784-2.267-4.31-3.79-7.58-4.568-2.496-.615-6.645-.923-12.444-.923L49.13 7.536h-1.57c-3.144 0-6.695-.063-7.988 3.177-.233.585-5.36-1.29-6.273 5.347 2.083-.854 2.628-1.523 5.316-1.191 2.438.3 3.184 4.298 1.54 7.3-2.789 5.493-10.252 7.278-11.109-2.978-.412-4.93-4.676-6.328-9.846-.337C16.727 21.72 9.141 28.577.776 36.906c-.137.138-.153.297-.078.458.156.146.386.309.733.457 1.521.655 4.951.858 8.454-2.075l7.065-7.38c.175-.184.456-.221.673-.091.22.13.32.395.241.636-.013.044-.028.082-.139.22.005-.005.011-.005.015-.007l-.064.066c-.36.425-1.468 1.6-5.028 5.318-.664.804-1.342 1.472-2.02 2.046l-5.825 6.08C7.07 44.118 8.353 44.9 17.171 36.3l.025-.024-.003.003c.003-.003.005-.005.01-.007.214-.211.557-.206.77.007.21.214.21.558-.002.77l-.007.004-8.998 9c1.873 1.24 3.651 1.759 6.366-.557l3.484-3.888c.198-.217.53-.244.755-.058.226.186.264.518.09.75-1.32 1.754-2.496 3.059-3.574 3.99l-2.338 2.607c2.714 1.047 4.175.677 7.264-2.613.195-.212.525-.233.746-.046.224.184.262.509.091.743l-2.896 3.933c1.335.929 3.682.879 5.628.595 1.293-.305 2.234-.674 2.234-.674 1.09-.671 4.807.378 3.472 5.133-.585 2.084-6.946 10.872-19.495 16.275l-.003 1.337h34.786c10.27 0 17.89-1.512 21.748-3.002 3.431-1.358 5.705-2.626 7.933-5.348-.57 1.703-.963 2.825-1.31 3.295-.747 1.136-1.686 1.96-2.819 2.478-1.136.489-3.062.746-5.784.779l-.533 1.798h32.17l.63-1.798c-3.435-.065-5.635-.47-6.608-1.216-.97-.776-1.458-1.91-1.458-3.4 0-1.07.372-2.901 1.118-5.492l5.344-18.37c3.532.52 6.528.78 8.99.78 8.2 0 14.708-2.093 19.537-6.271 4.86-4.212 7.29-9.071 7.29-14.578 0-5.701-2.43-9.978-7.29-12.831z" transform="translate(24 .065)"/>
            <path fill="#007954" d="M293.929 32.433l-3.788 15.42h-1.108c-.243-2.414-.681-4.348-1.305-5.8-.937-2.099-2.191-3.72-3.753-4.86-1.544-1.14-3.22-1.709-5.028-1.709-1.746 0-3.276.671-4.593 2.011-1.3 1.32-1.946 2.816-1.946 4.492 0 1.654.447 3.286 1.34 4.893.918 1.587 3.062 3.99 6.438 7.207 2.704 2.571 4.513 4.784 5.43 6.638.938 1.855 1.408 3.866 1.408 6.033 0 2.436-.65 4.684-1.943 6.738-1.3 2.057-3.188 3.654-5.668 4.793-2.458 1.117-5.252 1.676-8.378 1.676-1.924 0-4.348-.292-7.275-.872-2.905-.557-4.838-.837-5.8-.839-.76 0-1.44.126-2.045.37-.602.226-1.35.67-2.245 1.341h-1.306l4.056-17.329h1.273c.29 3.04.903 5.633 1.844 7.776.939 2.123 2.279 3.788 4.02 4.995 1.744 1.184 3.734 1.776 5.969 1.776 2.214 0 4.055-.725 5.53-2.179 1.497-1.472 2.245-3.193 2.247-5.16 0-1.678-.425-3.285-1.275-4.828-.826-1.543-2.74-3.788-5.733-6.737-2.97-2.952-5.027-5.587-6.166-7.91-.828-1.722-1.24-3.555-1.24-5.499 0-3.374 1.329-6.29 3.988-8.75 2.659-2.458 6.133-3.687 10.426-3.687 1.942 0 4.502.436 7.675 1.307 1.855.515 3.16.772 3.923.772.646 0 1.226-.135 1.745-.403.512-.29 1.113-.85 1.806-1.676h1.477zM294.21 68.872c1.544 0 2.853.533 3.924 1.607 1.074 1.072 1.607 2.372 1.607 3.888 0 1.522-.547 2.817-1.64 3.889-1.075 1.073-2.37 1.609-3.891 1.609-1.52 0-2.813-.536-3.886-1.61-1.073-1.071-1.61-2.366-1.61-3.888 0-1.516.537-2.813 1.61-3.888 1.073-1.074 2.367-1.607 3.886-1.607M332.982 61.529l.87-14.816-12.634 14.816h11.764zm0 2.748h-14.078l-2.817 3.487-3.216 3.855c-.627.828-1.085 1.577-1.375 2.248-.226.514-.334 1.029-.334 1.54 0 .536.278 1.039.837 1.509.58.447 1.53.704 2.85.77v1.242H301.27l.336-1.242c1.205-.202 2.276-.625 3.218-1.273 1.251-.893 3.05-2.737 5.397-5.531l32.211-38.45h1.511l-1.51 37.21c-.064 1.944-.098 3.117-.098 3.518 0 1.52.301 2.629.904 3.32.624.695 1.653 1.098 3.082 1.206l-.335 1.242h-19.674l.37-1.242c1.942-.178 3.057-.335 3.35-.468.624-.311 1.195-.96 1.71-1.946.512-1.005.827-2.736.937-5.194l.302-5.801zM373.611 33.472l14.215 30.303 6.402-21.99c.337-1.206.501-2.28.501-3.218 0-1.116-.358-2.01-1.07-2.682-.694-.67-1.902-1.06-3.619-1.173l.365-1.24h14.414l-.335 1.24c-1.833.113-3.352.626-4.559 1.543-1.182.915-2.189 2.76-3.017 5.53L385.815 79.43h-1.275L366.304 40.68l-8.816 30.203c-.293 1.052-.435 1.988-.435 2.817 0 1.206.39 2.178 1.172 2.916.806.714 2.08 1.071 3.822 1.071l-.302 1.242H346.93l.3-1.242c1.275 0 2.181-.11 2.716-.334.94-.359 1.853-1.039 2.748-2.046.895-1.027 1.621-2.502 2.181-4.424l9.62-33.019c-1.187-1.318-2.18-2.168-2.985-2.546-.805-.379-2.01-.583-3.62-.605l.368-1.24h15.353z" transform="translate(24 .065)"/>
            <path fill="#007954" d="M443.022 32.433l-3.152 14.582h-1.272c-.18-4.247-1.142-7.298-2.887-9.153-1.718-1.875-4.142-2.815-7.27-2.815-3.218 0-6.44 1.14-9.657 3.42-3.217 2.258-5.967 5.754-8.245 10.492-2.256 4.716-3.386 9.676-3.386 14.883 0 4.471 1.006 7.89 3.018 10.258 2.01 2.346 4.37 3.52 7.072 3.52 1.142 0 2.524-.325 4.156-.973l3.487-12c.58-2.01.872-3.328.872-3.957 0-.826-.358-1.517-1.073-2.075-.693-.582-1.897-.872-3.623-.874l.337-1.274h19.608l-.3 1.274c-1.16.068-2.078.292-2.747.671-.65.358-1.164.894-1.544 1.61-.224.424-.568 1.517-1.04 3.282l-4.12 13.981c-4.694 1.786-9.633 2.68-14.819 2.68-4 0-7.408-.725-10.223-2.178-2.792-1.453-5.119-3.753-6.97-6.906-1.835-3.15-2.749-6.737-2.749-10.76 0-8.583 3.808-15.655 11.426-21.218 5.97-4.314 12.741-6.47 20.315-6.47 1.32 0 2.54.066 3.656.201.825.111 2.278.425 4.36.94 1.34.334 2.253.502 2.748.502.98 0 1.908-.547 2.78-1.643h1.242z" transform="translate(24 .065)"/>
            <path fill="#007954" d="M462.517 35.987l-5.06 17.63H459c4.067 0 7.028-.535 8.88-1.61 1.88-1.071 3.466-2.97 4.76-5.696h1.243l-5.094 17.7h-1.174c.2-1.184.299-2.145.299-2.882 0-1.232-.366-2.237-1.103-3.02-.717-.778-1.655-1.338-2.816-1.675-.76-.223-2.338-.337-4.73-.337h-2.612l-4.358 15.256c-.378 1.34-.568 2.336-.568 2.98 0 .516.24.93.737 1.243.713.447 2.068.668 4.056.668 3.819 0 7.418-.802 10.792-2.411 3.376-1.632 6.403-4.09 9.087-7.377h1.372l-4.727 12.47h-38.884l.403-1.238c2.278 0 3.945-.426 4.995-1.275 1.049-.87 1.999-2.771 2.85-5.697l8.548-29.267c.469-1.63.702-2.914.702-3.855 0-.847-.301-1.497-.904-1.944-.601-.47-1.976-.78-4.125-.938l.37-1.241h36.237l-2.916 11.366h-1.21c-.09-2.237-.433-3.811-1.035-4.727-.94-1.431-2.195-2.47-3.758-3.118-1.541-.671-4.054-1.005-7.541-1.005h-4.258zM512.682 78.927h-36.305l.369-1.24c2.168 0 3.743-.414 4.728-1.242 1.005-.848 1.93-2.737 2.78-5.664l8.448-29.198c.469-1.607.704-2.869.704-3.786 0-.894-.334-1.609-1.005-2.147-.671-.536-1.99-.846-3.954-.937l.369-1.242h21.82l-.37 1.242c-2.101.044-3.675.514-4.725 1.406-1.027.895-1.943 2.716-2.747 5.464l-7.71 26.718c-.985 3.397-1.476 5.463-1.476 6.2 0 .45.245.872.737 1.273.51.383 1.328.571 2.446.571 3.709 0 7.285-.848 10.73-2.548 3.46-1.696 6.388-4.233 8.779-7.608h1.408l-5.026 12.738zM548.209 35.148c-1.765 0-3.274.326-4.525.973-1.227.627-2.516 1.687-3.855 3.183-1.342 1.499-2.706 3.643-4.092 6.437-1.383 2.772-2.69 6.547-3.919 11.332-1.209 4.78-1.811 8.77-1.811 11.965 0 2.727.594 4.794 1.778 6.202 1.185 1.387 2.703 2.079 4.557 2.079 2.457 0 4.548-.817 6.27-2.449 3.416-3.24 6.201-7.989 8.345-14.245 2.172-6.28 3.25-11.867 3.25-16.762 0-3.06-.58-5.274-1.742-6.636-1.138-1.386-2.56-2.076-4.256-2.079M534.967 80c-3.665 0-6.625-.75-8.881-2.248-2.259-1.496-3.957-3.54-5.098-6.132-1.115-2.593-1.675-5.118-1.675-7.577 0-4.959 1.417-9.955 4.259-14.986 2.839-5.048 6.658-9.082 11.463-12.099 4.827-3.039 9.587-4.557 14.281-4.557 2.746 0 5.352.692 7.812 2.079 2.477 1.384 4.401 3.316 5.766 5.797 1.38 2.481 2.074 4.983 2.074 7.508 0 5.657-1.8 11.332-5.396 17.031-3.6 5.675-7.643 9.788-12.134 12.334-3.398 1.9-7.554 2.85-12.471 2.85M280.623 13.958l-3.19 11.124c.613.024 1.074.035 1.383.035 2.742 0 4.648-.76 5.715-2.287 1.071-1.537 1.608-3.178 1.608-4.925 0-.837-.21-1.571-.627-2.214-.406-.65-.937-1.1-1.585-1.345-.654-.26-1.751-.388-3.304-.388zm.443-1.384c1.671-.022 2.987-.288 3.948-.793.971-.502 1.747-1.328 2.322-2.47.592-1.157.889-2.246.889-3.266 0-.96-.302-1.74-.907-2.343-.601-.602-1.405-.892-2.415-.868l-1.014.038-2.823 9.702zm-5.662-11.05h9.889c2.2 0 3.772.12 4.718.352 1.245.294 2.201.874 2.881 1.733.686.848 1.032 1.816 1.032 2.896 0 .889-.271 1.792-.811 2.713-.543.923-1.355 1.684-2.437 2.287-1.071.59-2.715 1.138-4.943 1.642 2.31.652 3.917 1.489 4.814 2.509.896 1.02 1.347 2.207 1.347 3.56 0 1.267-.442 2.522-1.328 3.763-.882 1.23-2.06 2.133-3.524 2.71-1.464.566-4.143.85-8.042.85h-10.404l.239-.683c1.008 0 1.729-.092 2.159-.276.442-.186.795-.468 1.052-.851.269-.391.584-1.202.94-2.435l4.464-15.381c.454-1.563.683-2.608.683-3.138 0-.43-.185-.786-.554-1.07-.354-.28-1.143-.446-2.36-.497l.185-.683zM306.716 16.964l.482-8.152-6.955 8.152h6.473zm0 1.513h-7.745l-1.553 1.92-1.768 2.12c-.346.454-.596.866-.758 1.236-.124.283-.184.565-.184.848 0 .294.154.573.46.83.319.246.842.387 1.572.426v.681h-7.472l.186-.68c.662-.113 1.25-.347 1.769-.704.686-.492 1.677-1.505 2.97-3.044L311.919.954h.83l-.83 20.474c-.038 1.07-.056 1.716-.056 1.937 0 .837.166 1.444.499 1.827.342.38.912.602 1.696.665l-.187.681h-10.824l.2-.68c1.07-.102 1.686-.186 1.848-.26.343-.17.655-.53.94-1.07.285-.554.454-1.508.517-2.859l.164-3.192zM329.177 1.525l7.82 16.677 3.525-12.103c.186-.664.277-1.253.277-1.771 0-.614-.197-1.105-.592-1.475-.381-.369-1.045-.584-1.992-.643l.206-.685h7.93l-.186.685c-1.005.059-1.842.342-2.508.845-.651.505-1.205 1.521-1.661 3.044l-6.104 20.716h-.7L325.157 5.491l-4.851 16.621c-.16.578-.241 1.094-.241 1.548 0 .664.217 1.2.648 1.605.443.394 1.143.591 2.102.591l-.166.682h-8.156l.169-.682c.7 0 1.2-.061 1.495-.184.515-.197 1.018-.571 1.51-1.126.49-.565.894-1.375 1.199-2.434l5.294-18.169c-.65-.727-1.197-1.193-1.64-1.404-.443-.208-1.108-.319-1.992-.329l.2-.685h8.45zM366.036.953l-1.845 7.95h-.718c-.087-2.164-.622-3.773-1.604-4.832-.973-1.07-2.245-1.605-3.819-1.605-1.697 0-3.388.726-5.074 2.176-1.684 1.453-3.113 3.67-4.279 6.66-.946 2.422-1.422 4.814-1.422 7.176 0 2.115.521 3.73 1.55 4.85 1.048 1.108 2.471 1.66 4.282 1.66 1.464 0 2.794-.317 4.001-.96 1.204-.637 2.422-1.678 3.654-3.114h.885c-1.525 2.287-3.07 3.89-4.632 4.813-1.547.923-3.447 1.384-5.699 1.384-3.013 0-5.44-.91-7.285-2.73-1.833-1.833-2.747-4.218-2.747-7.156 0-2.756.731-5.382 2.194-7.877 1.463-2.51 3.565-4.534 6.308-6.07 2.752-1.55 5.491-2.325 8.208-2.325 1.034 0 2.318.222 3.855.665.788.22 1.334.332 1.642.332.614 0 1.236-.332 1.865-.997h.68zM375.973 16.964l.48-8.152-6.957 8.152h6.477zm0 1.513h-7.747l-1.55 1.92-1.773 2.12c-.344.454-.596.866-.758 1.236-.12.283-.18.565-.18.848 0 .294.152.573.459.83.32.246.844.387 1.568.426v.681h-7.471l.186-.68c.664-.113 1.253-.347 1.772-.704.686-.492 1.676-1.505 2.969-3.044L381.176.954h.828l-.828 20.474c-.04 1.07-.057 1.716-.057 1.937 0 .837.166 1.444.498 1.827.345.38.91.602 1.698.665l-.186.681h-10.827l.204-.68c1.07-.102 1.685-.186 1.844-.26.344-.17.658-.53.938-1.07.285-.554.456-1.508.517-2.859l.168-3.192zM403.88 13.626c.797.1 1.46.148 1.993.148 1.698 0 3.03-.774 4.003-2.325.968-1.55 1.457-3.166 1.457-4.85 0-1.146-.314-2.032-.941-2.659-.63-.636-1.494-.958-2.6-.958-.236 0-.522.013-.87.038l-3.042 10.606zm-.367 1.418l-2.03 6.976c-.285.983-.426 1.678-.426 2.084 0 .566.186.995.555 1.29.369.284 1.204.438 2.507.463l-.24.681h-12.21l.204-.681c1.029-.014 1.762-.111 2.194-.294.429-.198.786-.512 1.07-.942.208-.284.519-1.148.94-2.601l4.632-15.883c.317-1.058.477-1.813.477-2.27 0-.455-.202-.834-.607-1.143-.408-.32-1.145-.493-2.215-.517l.204-.681h9.907c2.717 0 4.672.345 5.862 1.032 1.845 1.083 2.77 2.705 2.77 4.87 0 2.09-.925 3.935-2.77 5.533-1.828 1.588-4.302 2.38-7.415 2.38-.932 0-2.07-.1-3.41-.296z" transform="translate(24 .065)"/>
            <g transform="translate(24 .065) translate(415)">
                <mask id="upzct2124b" fill="#fff">
                    <use xlink:href="#7r1whqlg2a"/>
                </mask>
                <path fill="#007954" d="M16.27 2.447c-.97 0-1.801.18-2.49.536-.675.344-1.383.928-2.12 1.752-.739.823-1.49 2.006-2.252 3.542-.76 1.524-1.482 3.603-2.16 6.233-.663 2.632-.995 4.829-.995 6.587 0 1.499.33 2.637.98 3.412.649.764 1.486 1.142 2.509 1.142 1.352 0 2.503-.447 3.45-1.344 1.88-1.782 3.413-4.397 4.591-7.841 1.194-3.455 1.791-6.528 1.791-9.223 0-1.685-.319-2.9-.959-3.653-.625-.761-1.412-1.143-2.345-1.143M8.985 27.129c-2.015 0-3.65-.412-4.887-1.236-1.244-.824-2.18-1.951-2.806-3.377-.614-1.425-.92-2.814-.92-4.17 0-2.727.779-5.476 2.341-8.242 1.561-2.781 3.665-5 6.307-6.66 2.657-1.672 5.277-2.51 7.861-2.51 1.514 0 2.944.382 4.299 1.144 1.364.764 2.42 1.826 3.172 3.192.762 1.364 1.142 2.74 1.142 4.132 0 3.11-.99 6.235-2.97 9.37-1.98 3.124-4.204 5.387-6.677 6.788-1.867 1.046-4.16 1.569-6.862 1.569" mask="url(#upzct2124b)"/>
            </g>
            <path fill="#007954" d="M447.488 13.626c.802.1 1.464.148 1.991.148 1.696 0 3.033-.774 4.003-2.325.974-1.55 1.457-3.166 1.46-4.85 0-1.146-.313-2.032-.939-2.659-.629-.636-1.497-.958-2.605-.958-.232 0-.524.013-.865.038l-3.045 10.606zm-.369 1.418l-2.028 6.976c-.284.983-.42 1.678-.42 2.084 0 .566.178.995.547 1.29.371.284 1.208.438 2.51.463l-.24.681h-12.21l.203-.681c1.032-.014 1.765-.111 2.194-.294.43-.198.787-.512 1.07-.942.208-.284.52-1.148.938-2.601l4.632-15.883c.321-1.058.481-1.813.481-2.27 0-.455-.202-.834-.61-1.143-.406-.32-1.143-.493-2.213-.517l.203-.681h9.907c2.715 0 4.67.345 5.865 1.032 1.845 1.083 2.768 2.705 2.768 4.87 0 2.09-.923 3.935-2.768 5.533-1.833 1.588-4.305 2.38-7.415 2.38-.937 0-2.072-.1-3.414-.296z" transform="translate(24 .065)"/>
            <g transform="translate(24 .065) translate(458)">
                <mask id="3ojo2ynftd" fill="#fff">
                    <use xlink:href="#fcoxzjaa7c"/>
                </mask>
                <path fill="#007954" d="M16.88 2.447c-.971 0-1.801.18-2.49.536-.677.344-1.381.928-2.123 1.752-.735.823-1.488 2.006-2.25 3.542C9.257 9.8 8.537 11.88 7.862 14.51c-.667 2.632-.997 4.829-.997 6.587 0 1.499.329 2.637.977 3.412.653.764 1.488 1.142 2.509 1.142 1.352 0 2.502-.447 3.449-1.344 1.885-1.782 3.412-4.397 4.597-7.841 1.189-3.455 1.785-6.528 1.789-9.223 0-1.685-.322-2.9-.961-3.653-.627-.761-1.41-1.143-2.343-1.143M9.595 27.129c-2.02 0-3.647-.412-4.892-1.236-1.24-.824-2.176-1.951-2.802-3.377-.612-1.425-.92-2.814-.92-4.17 0-2.727.778-5.476 2.343-8.242 1.56-2.781 3.662-5 6.306-6.66 2.657-1.672 5.276-2.51 7.86-2.51 1.51 0 2.943.382 4.295 1.144 1.368.764 2.423 1.826 3.176 3.192.759 1.364 1.142 2.74 1.142 4.132 0 3.11-.99 6.235-2.97 9.37-1.98 3.124-4.203 5.387-6.677 6.788-1.87 1.046-4.158 1.569-6.861 1.569" mask="url(#3ojo2ynftd)"/>
            </g>
            <path fill="#007954" d="M499.607 26.539H479.63l.206-.683c1.191 0 2.06-.227 2.6-.683.553-.468 1.065-1.506 1.531-3.117l4.648-16.067c.26-.886.388-1.581.388-2.085 0-.492-.184-.884-.554-1.18-.369-.295-1.096-.467-2.176-.516l.201-.683h12.01l-.202.683c-1.158.024-2.026.283-2.604.774-.562.495-1.067 1.495-1.512 3.007l-4.243 14.702c-.54 1.869-.81 3.007-.81 3.412 0 .248.138.48.405.702.284.209.734.312 1.347.312 2.041 0 4.01-.467 5.902-1.401 1.906-.935 3.52-2.33 4.834-4.187h.775l-2.768 7.01zM517.505 16.964l.48-8.152-6.957 8.152h6.477zm0 1.513h-7.747l-1.548 1.92-1.768 2.12c-.348.454-.601.866-.76 1.236-.124.283-.184.565-.184.848 0 .294.153.573.458.83.323.246.846.387 1.57.426v.681h-7.472l.187-.68c.662-.113 1.254-.347 1.77-.704.688-.492 1.678-1.505 2.969-3.044L522.708.954h.828l-.828 20.474c-.037 1.07-.055 1.716-.055 1.937 0 .837.166 1.444.498 1.827.34.38.908.602 1.699.665l-.19.681h-10.826l.204-.68c1.07-.102 1.683-.186 1.844-.26.346-.17.658-.53.939-1.07.286-.554.456-1.508.518-2.859l.166-3.192z" transform="translate(24 .065)"/>
            <path fill="#007954" d="M535.988 13.22c.43.025.792.036 1.087.036 1.796 0 3.27-.615 4.431-1.844 1.153-1.229 1.731-2.84 1.733-4.834 0-1.179-.31-2.079-.928-2.692-.613-.613-1.424-.92-2.433-.92-.244 0-.534.004-.866.017l-3.024 10.236zm-.257 1.105l-2.217 7.582c-.318 1.07-.477 1.858-.477 2.363 0 .467.187.841.571 1.125.38.283 1.173.435 2.38.46l-.257.684h-12.047l.22-.684c1.206 0 2.085-.235 2.64-.699.565-.468 1.081-1.513 1.548-3.136l4.65-16.05c.26-.897.388-1.604.388-2.12 0-.493-.16-.867-.48-1.126-.322-.259-1.066-.43-2.235-.516l.188-.684h10.366c2.963 0 5.046.515 6.251 1.55 1.205 1.034 1.807 2.36 1.811 3.983 0 1.712-.704 3.255-2.104 4.632-.885.861-2.453 1.603-4.705 2.232l2.252 7.581c.601 2.03 1.12 3.252 1.568 3.671.454.418 1.203.645 2.25.682v.684h-7.785l-3.54-12.214-.612.04c-.133 0-.343-.015-.624-.04zM564.6 2.909l-2.785 9.702h.849c2.237 0 3.867-.295 4.887-.886 1.034-.588 1.904-1.633 2.619-3.132h.685l-2.803 9.737h-.65c.114-.65.165-1.18.165-1.587 0-.676-.2-1.23-.605-1.66-.396-.428-.912-.738-1.55-.922-.418-.122-1.29-.184-2.601-.184h-1.437l-2.398 8.392c-.21.739-.314 1.286-.314 1.643 0 .283.132.508.407.684.389.243 1.134.367 2.227.367 2.106 0 4.085-.443 5.943-1.33 1.855-.895 3.52-2.248 4.998-4.056h.755l-2.6 6.86h-21.397l.22-.681c1.256 0 2.17-.235 2.749-.7.58-.48 1.103-1.525 1.568-3.138l4.705-16.102c.257-.898.387-1.604.387-2.121 0-.468-.17-.824-.5-1.073-.333-.256-1.087-.426-2.265-.513l.2-.684H576l-1.604 6.255h-.664c-.051-1.231-.24-2.097-.571-2.601-.516-.79-1.207-1.361-2.07-1.717-.846-.367-2.23-.553-4.147-.553H564.6z" transform="translate(24 .065)"/>
            <path fill="#FFF" d="M177.563 6.204l-5.49 22.356h-1.604c-.359-3.501-.99-6.301-1.895-8.41-1.362-3.044-3.178-5.39-5.443-7.045-2.236-1.651-4.667-2.477-7.29-2.477-2.527 0-4.748.97-6.656 2.914-1.883 1.913-2.82 4.083-2.82 6.512 0 2.4.647 4.762 1.943 7.096 1.328 2.3 4.44 5.783 9.33 10.447 3.92 3.728 6.545 6.934 7.873 9.622 1.36 2.69 2.042 5.606 2.042 8.748 0 3.53-.939 6.789-2.819 9.768-1.879 2.98-4.616 5.297-8.214 6.95-3.562 1.617-7.614 2.427-12.146 2.427-2.789 0-6.304-.421-10.546-1.262-4.214-.81-7.015-1.213-8.41-1.213-1.1 0-2.088.177-2.962.534-.875.323-1.962.97-3.255 1.94h-1.895l5.878-25.122h1.847c.42 4.408 1.31 8.165 2.675 11.277 1.36 3.077 3.303 5.49 5.83 7.237 2.528 1.719 5.408 2.575 8.65 2.575 3.206 0 5.878-1.05 8.017-3.157 2.173-2.137 3.255-4.63 3.257-7.484 0-2.428-.618-4.762-1.846-6.997-1.2-2.236-3.97-5.493-8.31-9.768-4.31-4.278-7.289-8.1-8.943-11.467-1.2-2.495-1.798-5.15-1.798-7.971 0-4.891 1.926-9.118 5.783-12.684 3.856-3.563 8.893-5.343 15.114-5.346 2.82 0 6.527.634 11.128 1.896 2.686.746 4.583 1.118 5.686 1.118.938 0 1.78-.195 2.526-.582.744-.421 1.618-1.232 2.624-2.432h2.14zM205.614 48.385l1.264-21.478-18.322 21.478h17.058zm0 3.985h-20.41l-4.083 5.055-4.665 5.59c-.907 1.196-1.572 2.281-1.992 3.253-.327.747-.486 1.493-.486 2.234 0 .78.404 1.508 1.214 2.188.841.648 2.221 1.02 4.131 1.118v1.8h-19.68l.486-1.8c1.747-.29 3.303-.907 4.663-1.844 1.815-1.298 4.422-3.97 7.825-8.019l46.7-55.742h2.188l-2.188 53.943c-.098 2.82-.146 4.52-.146 5.101 0 2.206.438 3.81 1.313 4.812.905 1.005 2.396 1.59 4.47 1.75l-.485 1.8h-28.527l.534-1.8c2.82-.258 4.44-.484 4.86-.68.908-.455 1.734-1.39 2.48-2.819.744-1.457 1.197-3.968 1.36-7.532l.438-8.408z" transform="translate(24 .065)"/>
        </g>
    </g>
</svg>
