<?xml version="1.0" encoding="UTF-8"?>
<!DOCTYPE svg PUBLIC "-//W3C//DTD SVG 1.1//EN" "http://www.w3.org/Graphics/SVG/1.1/DTD/svg11.dtd">
<svg version="1.1" xmlns="http://www.w3.org/2000/svg" xmlns:xlink="http://www.w3.org/1999/xlink" x="0" y="0" width="180" height="180" viewBox="0, 0, 180, 180">
  <defs>
    <clipPath id="Clip_1">
      <path d="M53.103,0 C54.659,0 55.916,1.26 55.916,2.813 L55.916,13.159 L124.083,13.159 L124.083,2.813 C124.083,1.26 125.34,0 126.895,0 L140.518,0 C142.074,0 143.331,1.26 143.331,2.813 L143.331,13.159 L168.821,13.159 C174.986,13.159 180.001,18.174 180.001,24.336 L180.001,168.823 C180.001,174.985 174.986,180 168.824,180 L11.149,180 C5.001,180 -0,174.985 -0,168.823 L-0,24.336 C-0,18.174 5.001,13.159 11.149,13.159 L36.667,13.159 L36.667,2.813 C36.667,1.26 37.925,0 39.479,0 L53.103,0 z M174.376,57.555 L5.626,57.555 L5.626,168.823 C5.626,171.883 8.103,174.375 11.149,174.375 L168.821,174.375 C171.884,174.375 174.376,171.883 174.376,168.823 L174.376,57.555 z M36.667,18.784 L11.149,18.784 C8.103,18.784 5.626,21.276 5.626,24.336 L5.626,51.93 L174.376,51.93 L174.376,24.336 C174.376,21.276 171.884,18.784 168.821,18.784 L143.331,18.784 L143.331,27.95 C143.331,29.503 142.074,30.763 140.518,30.763 L126.895,30.763 C125.34,30.763 124.083,29.503 124.083,27.95 L124.083,18.784 L55.916,18.784 L55.916,27.95 C55.916,29.503 54.659,30.763 53.103,30.763 L39.479,30.763 C37.925,30.763 36.667,29.503 36.667,27.95 L36.667,18.784 z"/>
    </clipPath>
  </defs>
  <g id="Layer_1">
    <g clip-path="url(#Clip_1)">
      <path d="M-5,-5 L185.001,-5 L185.001,185 L-5,185 z" fill="#FFFFFF"/>
    </g>
  </g>
</svg>
