<svg xmlns="http://www.w3.org/2000/svg" xmlns:xlink="http://www.w3.org/1999/xlink" width="152" height="191" viewBox="0 0 152 191">
    <defs>
        <path id="usbfofnhqa" d="M0 0.001L72 0.001 72 60 0 60z"/>
        <path id="8tny6v66wc" d="M0.97 0.001L72.97 0.001 72.97 60 0.97 60z"/>
        <path id="ozn2w71efe" d="M0.686 0.978L100.686 0.978 100.686 100.977 0.686 100.977z"/>
    </defs>
    <g fill="none" fill-rule="evenodd" stroke-dasharray="4 4 4">
        <path fill="#020303" d="M74.525 119.78v-9.01c0-.808.658-1.452 1.453-1.452.809 0 1.453.644 1.453 1.453v9.009h9.024c.795 0 1.453.658 1.453 1.453 0 .809-.658 1.454-1.453 1.454H77.43v9.023c0 .795-.644 1.453-1.453 1.453-.795 0-1.453-.658-1.453-1.453v-9.023h-9.01c-.808 0-1.453-.645-1.453-1.454 0-.795.645-1.453 1.454-1.453h9.009z"/>
        <path fill="#FEFEFE" d="M27.424 131.675c.117-.37.485-.641.922-.645l15.013-.128h.008c.184 0 .357.047.503.129.47.062.833.438.833.89v3.183c2.244-.334 15.014.686 26.444 21.104.24.426.075.95-.374 1.193l-10.193 5.485c-.154.082-.32.12-.486.12-.287 0-.566-.118-.755-.336l-6.942-10.088.397 34.984c.003.24-.098.473-.28.643-.183.172-.43.267-.69.267H20.614c-.537 0-.97-.401-.97-.9 0-.178.055-.345.154-.485-.01-.051-.015-.103-.015-.157V152.49l-6.294 10.384c-.19.234-.48.36-.777.36-.168 0-.338-.041-.492-.126-.095-.051-9.454-5.192-10.464-5.737-.45-.242-.613-.766-.374-1.193 11.364-20.298 23.535-21.418 25.877-21.081v-2.92c0-.185.062-.36.166-.503"/>
        <g transform="translate(0 130.022)">
            <mask id="n324vctkcb" fill="#fff">
                <use xlink:href="#usbfofnhqa"/>
            </mask>
            <path fill="#020303" d="M26.971.86c.124-.41.51-.713.97-.718L43.747.001h.01c.193 0 .374.051.528.143.496.07.876.486.876.99v3.539c2.364-.372 14.688-1.066 26.724 21.63.251.474.078 1.057-.394 1.326-1.08.615-10.733 6.098-10.733 6.098-.16.092-.336.135-.51.135-.302 0-.598-.132-.798-.375l-6.187-7.556.417 33.058c.003.268-.103.526-.294.714-.192.191-.454.297-.727.297H19.8c-.564 0-1.02-.446-1.02-1 0-.199.06-.383.161-.54-.01-.056-.016-.114-.016-.175V25.831l-6.062 7.917c-.199.26-.505.4-.817.4-.178 0-.356-.046-.519-.14-.099-.058-9.953-5.773-11.017-6.379-.472-.269-.646-.852-.394-1.326C12.08 3.74 24.33 4.291 26.795 4.665V1.422c0-.208.065-.401.176-.561zm-6.006 23.223v33.916h7.425l-.143-25.998c-.018-3.543-4.052-7.316-7.282-7.918zm22.156-19.15V2.006L37 2.062v5.93c0 .554-.457 1-1.02 1-.564 0-1.02-.446-1.02-1V2.08l-6.123.055v3.07c.154.114.277.272.345.465.943 2.646 4.97 3.143 5.01 3.149.558.063.96.56.894 1.108-.06.508-.5.883-1.01.883-.04 0-.079 0-.118-.005-.212-.022-5.06-.607-6.583-4.17-.196.083-.42.106-.644.051-.07-.016-3.145-.676-7.655 1.438-3.608 1.69-8.774 5.487-14.19 14l9.66 6.029.033.021 4.238-5.534c.164-.213.4-.345.65-.386.105-.055.222-.093.345-.108.167-.1.365-.152.575-.143 4.302.192 9.877 5.07 9.901 9.99L30.43 58h4.528V11.421c0-.55.457-1 1.02-1 .564 0 1.021.45 1.021 1V58h4.862l.144-26.006c.023-4.65 4.962-9.784 9.61-9.99.21-.01.406.044.573.143h.007c.227-.003.44.069.61.191.135.064.258.155.358.277l4.204 5.133 9.733-5.652C55.81 4.334 45.388 6.656 45.275 6.684c-.275.069-.55.02-.776-.112-1.624 3.365-6.274 3.926-6.48 3.946-.04.006-.079.006-.118.006-.512 0-.953-.373-1.013-.885-.063-.55.337-1.043.896-1.106.041-.006 4.067-.503 5.01-3.15.065-.184.181-.338.327-.45zM51.2 24.055c-3.187.498-7.135 4.273-7.154 7.947l-.143 25.997h7.725L51.2 24.055zm-47.37-.216c-.483.81-.967 1.659-1.452 2.548 2.152 1.24 7.394 4.28 9.402 5.444l1.57-2.052-9.52-5.94zm64.326-.03l-9.497 5.514 1.835 2.241c1.928-1.093 7.011-3.98 9.127-5.183-.489-.896-.978-1.753-1.465-2.572z" mask="url(#n324vctkcb)"/>
        </g>
        <path fill="#FEFEFE" d="M107.394 131.675c.117-.37.484-.641.92-.645l15.015-.128h.009c.183 0 .356.047.502.129.47.062.832.438.832.89v3.183c2.245-.334 15.015.686 26.446 21.104.239.426.074.95-.374 1.193l-10.195 5.485c-.152.082-.32.12-.485.12-.286 0-.566-.118-.756-.336l-6.941-10.088.396 34.984c.003.24-.098.473-.28.643-.182.172-.43.267-.69.267h-31.211c-.536 0-.97-.401-.97-.9 0-.178.057-.345.154-.485-.01-.051-.015-.103-.015-.157V152.49l-6.294 10.384c-.19.234-.48.36-.775.36-.17 0-.34-.041-.493-.126-.095-.051-9.454-5.192-10.465-5.737-.448-.242-.613-.766-.374-1.193 11.365-20.298 23.536-21.418 25.877-21.081v-2.92c0-.185.062-.36.167-.503"/>
        <g transform="translate(79 130.022)">
            <mask id="v8h2q9k6kd" fill="#fff">
                <use xlink:href="#8tny6v66wc"/>
            </mask>
            <path fill="#020303" d="M27.94.86c.125-.41.51-.713.97-.718L44.718.001h.01c.193 0 .374.051.528.143.496.07.876.486.876.99v3.539c2.365-.372 14.689-1.066 26.724 21.63.25.474.078 1.057-.394 1.326-1.08.615-10.733 6.098-10.733 6.098-.16.092-.337.135-.511.135-.3 0-.596-.132-.797-.375l-6.187-7.556.417 33.058c.004.268-.103.526-.294.714-.191.191-.453.297-.726.297H20.769c-.563 0-1.02-.446-1.02-1 0-.199.059-.383.16-.54-.01-.056-.014-.114-.014-.175V25.831l-6.062 7.917c-.2.26-.506.4-.818.4-.177 0-.356-.046-.518-.14-.1-.058-9.954-5.773-11.018-6.379-.472-.269-.645-.852-.393-1.326C13.05 3.74 25.3 4.291 27.766 4.665V1.422c0-.208.065-.401.175-.561zm-6.005 23.223v33.916h7.425l-.143-25.998c-.017-3.543-4.052-7.316-7.282-7.918zM44.09 4.933V2.006l-6.122.056v5.93c0 .554-.457 1-1.02 1-.564 0-1.021-.446-1.021-1V2.08l-6.122.055v3.07c.155.114.278.272.346.465.942 2.646 4.968 3.143 5.009 3.149.558.063.96.56.894 1.108-.06.508-.501.883-1.011.883-.04 0-.078 0-.117-.005-.212-.022-5.06-.607-6.583-4.17-.196.083-.421.106-.644.051-.071-.016-3.145-.676-7.655 1.438-3.608 1.69-8.774 5.487-14.19 14l9.66 6.029.033.021 4.239-5.534c.164-.213.399-.345.649-.386.106-.055.222-.093.346-.108.167-.1.364-.152.574-.143 4.303.192 9.877 5.07 9.9 9.99L31.402 58h4.527V11.421c0-.55.457-1 1.02-1 .564 0 1.02.45 1.02 1V58h4.864l.143-26.006c.024-4.65 4.962-9.784 9.609-9.99.21-.01.408.044.574.143h.007c.227-.003.439.069.61.191.136.064.259.155.358.277l4.203 5.133 9.735-5.652C56.78 4.334 46.358 6.656 46.245 6.684c-.274.069-.551.02-.776-.112-1.624 3.365-6.274 3.926-6.481 3.946-.04.006-.078.006-.116.006-.513 0-.953-.373-1.013-.885-.064-.55.337-1.043.895-1.106.04-.006 4.068-.503 5.009-3.15.067-.184.182-.338.328-.45zm8.078 19.122c-3.187.498-7.135 4.273-7.154 7.947l-.142 25.997h7.724l-.428-33.944zm-47.37-.216c-.482.81-.966 1.659-1.452 2.548 2.153 1.24 7.395 4.28 9.402 5.444l1.57-2.052-9.52-5.94zm64.327-.03l-9.498 5.514 1.835 2.241c1.928-1.093 7.01-3.98 9.127-5.183-.49-.896-.977-1.753-1.464-2.572z" mask="url(#v8h2q9k6kd)"/>
        </g>
        <path fill="#020303" d="M81.276 24.31c0-1.364-1.121-2.485-2.484-2.485-1.364 0-2.485 1.121-2.485 2.484s1.12 2.484 2.485 2.484c1.363 0 2.484-1.12 2.484-2.484"/>
        <path fill="#FEFEFE" d="M78.791 22.135c-1.198 0-2.174.975-2.174 2.174 0 1.198.976 2.174 2.174 2.174s2.174-.976 2.174-2.174c0-1.2-.976-2.174-2.174-2.174m0 4.969c-1.54 0-2.795-1.255-2.795-2.795 0-1.541 1.254-2.795 2.795-2.795s2.795 1.254 2.795 2.795c0 1.54-1.254 2.795-2.795 2.795"/>
        <path fill="#020303" d="M93.698 26.794c1.362 0 2.484-1.122 2.484-2.484 0-1.364-1.122-2.485-2.484-2.485-1.363 0-2.484 1.12-2.484 2.485 0 1.362 1.121 2.484 2.484 2.484"/>
        <path fill="#FEFEFE" d="M93.698 22.135c-1.199 0-2.174.975-2.174 2.174 0 1.198.975 2.174 2.174 2.174 1.198 0 2.174-.976 2.174-2.174 0-1.2-.976-2.174-2.174-2.174m0 4.969c-1.54 0-2.795-1.255-2.795-2.795 0-1.541 1.254-2.795 2.795-2.795 1.54 0 2.795 1.254 2.795 2.795 0 1.54-1.255 2.795-2.795 2.795"/>
        <path fill="#020303" d="M86.245 37.836c2.726 0 4.97-2.243 4.97-4.97H87.9c0 .909-.747 1.657-1.655 1.657-.909 0-1.657-.748-1.657-1.656h-3.313c0 2.726 2.243 4.969 4.97 4.969"/>
        <path fill="#FEFEFE" d="M81.596 33.176c.16 2.424 2.184 4.348 4.648 4.348 2.466 0 4.49-1.924 4.65-4.348h-2.706c-.151.94-.963 1.657-1.944 1.657-.98 0-1.793-.718-1.943-1.657h-2.705zm4.648 4.97c-2.911 0-5.28-2.369-5.28-5.28v-.31h3.934v.31c0 .742.604 1.346 1.346 1.346.744 0 1.347-.604 1.347-1.347v-.31h3.934v.31c0 2.912-2.368 5.28-5.281 5.28z"/>
        <path fill="#020303" d="M53.687 88.599c2.287-1.216 4.753-2.06 7.306-2.496l-.417.509-4.613 3.109-2.276-1.122zm-2.22-17.722h9.051l2.816 4.232c.16.239.38.433.637.563l.517.258c3.235 1.614 5.666 4.492 6.72 7.95l-4.356 7.26-12.464 6.237H50.53l12.091-8.15c.138-.091.26-.203.362-.332L66 85.169c.238-.295.368-.663.368-1.042 0-.906-.744-1.653-1.65-1.656-9.753 0-19.048 5.562-25.035 14.906h-2.616c2.332-7.603 8.165-13.65 15.68-16.253 2.872-1.04 5.187-3.226 6.39-6.034.231-.531.168-1.146-.167-1.62-.33-.476-.89-.742-1.469-.695l-3.765.268c-13.293.895-24.21 11.128-25.966 24.334h-4.412c.89-14.79 13.293-26.482 28.11-26.5zm4.968-3.562c.031-3.912 2.8-7.306 6.626-8.124l11.394-3.11c1.317.706 2.696 1.29 4.118 1.749L64.717 70.325v.803L62.782 68.3c-.307-.46-.825-.737-1.378-.737h-4.969v-.25zm16.563-37.846v-8.944c3.222-1.751 5.868-4.398 7.62-7.62h11.278c1.75 3.218 4.39 5.864 7.603 7.62v8.944c.004 4.422-2.212 8.564-5.894 11.014-4.459 2.926-10.257 2.926-14.717 0-3.68-2.451-5.895-6.592-5.89-11.014zm3.817-16.68c-1.023 1.476-2.292 2.764-3.75 3.81 0-.03 0-.054.007-.085.092-.913.277-1.812.552-2.686l.064-.173c.098-.28.195-.556.31-.828.116-.274.262-.51.39-.766.766.368 1.586.614 2.427.729zm.355-8.165l3.976 4.969h-3.179c-2.726 0-4.969-2.243-4.969-4.97h4.172zm8.282 0l3.975 4.969H85.39l-3.975-4.97h4.038zm5.766 0c3.037-.011 5.722 2.037 6.515 4.969h-4.062l-3.976-4.97h1.523zm7.287 8.282c.257.607.464 1.234.618 1.875.085.336.15.675.197 1.018.048.244.083.49.105.739v.063c-1.415-1.021-2.652-2.27-3.657-3.695h2.737zm-.399 43.14l10.842 1.988c4.053.603 7.091 4.107 7.115 8.205v9.607h-6.626c-.228-.002-.454.045-.663.135l-.994.43v-6.086L93.955 57.82c1.435-.464 2.824-1.058 4.151-1.774zm17.957 24.768v3.18l-14.898-1.145 8.613-3.691h6.285v1.656zm-31.47-3.312v4.073l-9.539-.734-1.875-.804c-.467-.893-1.015-1.742-1.637-2.535h13.05zm0-18.525v15.212H68.028v-2.567l14.508-12.875c.682.102 1.368.186 2.055.23zm0-6.46v3.098c-2.602-.197-5.146-.862-7.51-1.964l1.547-2.302c1.93.643 3.933 1.037 5.962 1.17v-.001zm8.281-4.353c-4.298 1.444-8.953 1.444-13.25 0v-3.545c4.213 1.883 9.036 1.883 13.25 0v3.545zm-4.969 7.453v-3.098c2.03-.133 4.033-.527 5.962-1.17l1.54 2.309c-2.363 1.099-4.904 1.763-7.502 1.959zm16.563 21.885v.33l-7.026 3.012-9.537.735v-4.077h16.563zm-16.563-3.313V58.977c.704-.046 1.405-.132 2.104-.238l14.46 12.88v2.57H87.904zm28.158 14.907v3.313c-.008 2.049-1.284 3.894-3.2 4.624-.562.227-1.163.343-1.77.344h-4.803l-31.296-6.59c-.112-.023-.225-.035-.34-.035h-3.7l3.464-5.772c.145-.26.217-.555.207-.853l41.438 3.19v1.779zm-49.856 8.28h-4.405l6.625-3.311h6.061l3.724.782-12.005 2.53zm-21.606 0h-.919c1.882-2.573 4.154-4.84 6.734-6.716l2.387 1.192-8.202 5.525zm-4.535-15.591c3.97-3.192 8.824-5.092 13.906-5.442l.363-.027c-.762.747-1.678 1.32-2.684 1.676-3.272 1.142-6.31 2.87-8.964 5.102l-2.62-1.31zm-6.46 15.592h-2.513c.757-4.937 2.985-9.533 6.392-13.185l2.667 1.324c-3.109 3.367-5.356 7.437-6.546 11.86zm36.08-69.565c-.056.003-.11.005-.166.005-1.818 0-3.313-1.496-3.313-3.313 0-1.817 1.495-3.313 3.313-3.313.055 0 .11.002.166.005v6.616zm33.126-6.625c1.817 0 3.312 1.495 3.312 3.313 0 1.817-1.495 3.312-3.312 3.312v-6.625zm-81.16 79.503H54.78c.256.003.51-.054.74-.166l1.822-.91c1.238.705 2.638 1.076 4.063 1.076l6.625-.313 18.41-3.74 20.014 4.03 4.64.023c1.021 0 2.033-.193 2.981-.571.712-.278 1.381-.654 1.99-1.118v1.689h3.311V66.239c0-.358-.017-.711-.05-1.062-.512-5.293-4.582-9.598-9.839-10.407l-10.649-1.96-2.65-3.962v-6.173c3.694-2.765 6.062-6.958 6.522-11.55h.103c3.634 0 6.625-2.99 6.625-6.625 0-3.634-2.99-6.625-6.625-6.625.002-.36-.014-.72-.05-1.077.002-.156-.006-.312-.023-.467 0-.062-.013-.12-.023-.177v-.068c-.027-.293-.07-.585-.129-.873-.054-.416-.134-.828-.24-1.234-.257-1.068-.625-2.107-1.1-3.097-.229-5.334-4.69-9.591-10.029-9.571H71.342c-.908 0-1.656.748-1.656 1.657v1.656c.007 1.969.723 3.87 2.017 5.355-.282.509-.537 1.034-.763 1.57-.135.332-.255.663-.385 1.03-.057.143-.104.29-.139.439-.32 1.025-.534 2.08-.638 3.147-.02.157-.034.314-.036.473-.038.415-.056.815-.056 1.23-3.635 0-6.625 2.99-6.625 6.626 0 3.634 2.99 6.625 6.625 6.625h.102c.457 4.594 2.825 8.79 6.523 11.556v6.173l-2.69 4.036-11.345 3.086c-5.307 1.175-9.127 5.909-9.153 11.345v.249h-1.657c-17.257.019-31.45 14.213-31.47 31.47 0 .908.748 1.656 1.656 1.656z"/>
        <g transform="translate(19 .022)">
            <mask id="4c1d695z3f" fill="#fff">
                <use xlink:href="#ozn2w71efe"/>
            </mask>
            <path fill="#FEFEFE" d="M54.318 4.913c.16 2.424 2.184 4.348 4.648 4.348H61.5l-3.48-4.348h-3.702zm8.473 4.97h-3.825c-2.911 0-5.28-2.369-5.28-5.28v-.31h4.635l4.47 5.59zm3.748-.622h3.244L66.3 4.913H63.06l3.479 4.348zm4.535.621h-4.836l-4.47-5.59h4.834l4.472 5.59zm3.748-.62h3.492c-.88-2.583-3.314-4.349-6.068-4.349h-.906l3.482 4.348zm4.316.62H74.52l-4.472-5.59H72.246c3.17 0 5.959 2.135 6.788 5.2l.104.39zm-23.612 2.562l-.017.034c-.078.143-.158.29-.223.446-.114.267-.208.54-.303.811l-.068.18c-.2.635-.352 1.3-.453 1.974 1.062-.839 2.003-1.81 2.81-2.897-.6-.119-1.185-.303-1.746-.548zm-1.77 4.736v-.604c0-.037 0-.09.014-.155.087-.893.278-1.818.558-2.708l.07-.189c.097-.279.196-.56.316-.842.075-.175.163-.337.25-.5.048-.092.099-.185.145-.279l.136-.277.276.134c.738.354 1.525.59 2.337.698l.502.068-.288.418c-1.046 1.507-2.335 2.814-3.824 3.884l-.492.352zm23.625-3.986c.77 1.002 1.656 1.904 2.643 2.69-.002-.014-.005-.029-.01-.046-.046-.349-.11-.68-.191-1.004-.136-.563-.314-1.114-.526-1.64H77.38zm3.354 3.991l-.492-.355c-1.446-1.045-2.701-2.312-3.73-3.768l-.344-.489h3.543l.08.19c.258.612.472 1.26.632 1.923.087.342.156.696.205 1.05.045.233.082.493.106.753v.696zm3.387 4.307v5.97c1.51-.155 2.693-1.433 2.693-2.984 0-1.55-1.182-2.83-2.693-2.986zM83.81 28.1h-.31v-7.247h.31c2 0 3.625 1.626 3.625 3.625 0 1.997-1.625 3.622-3.625 3.622zm-33.435-6.618c-1.59.077-2.86 1.392-2.86 2.998 0 1.61 1.27 2.924 2.86 3.002v-6zm.145 6.623c-2 0-3.625-1.625-3.625-3.625 0-1.996 1.626-3.622 3.625-3.622l.468.017.008.3v6.913l-.296.012-.015-.31.007.31-.172.005zm3.787-7.419v8.761c-.005 4.333 2.145 8.354 5.753 10.753 4.362 2.868 10.008 2.868 14.375 0 3.604-2.399 5.755-6.42 5.753-10.753v-8.76c-3.146-1.76-5.725-4.344-7.475-7.493H61.803c-1.756 3.156-4.34 5.74-7.495 7.492zm12.94 22.285c-2.623 0-5.243-.752-7.53-2.252-3.782-2.518-6.036-6.732-6.031-11.272v-9.13l.163-.087c3.176-1.725 5.767-4.317 7.497-7.495l.087-.162h11.649l.087.162c1.722 3.171 4.309 5.762 7.478 7.495l.162.087v9.13c.003 4.542-2.252 8.754-6.031 11.272-2.288 1.5-4.911 2.252-7.531 2.252zm-6.314 4.944c4.079 1.323 8.546 1.325 12.629 0v-2.848c-4.037 1.67-8.587 1.67-12.63 0v2.848zm6.314 1.614c-2.277 0-4.555-.364-6.724-1.094l-.211-.07V44.12l.437.193c4.13 1.842 8.866 1.847 12.998 0l.436-.193v4.246l-.211.07c-2.17.73-4.447 1.094-6.725 1.094zm-8.703 3.97c2.139.953 4.4 1.542 6.737 1.756v-2.47c-1.875-.145-3.732-.512-5.527-1.089l-1.21 1.802zm7.358 2.428l-.334-.024c-2.65-.2-5.212-.87-7.616-1.992l-.33-.153 1.88-2.8.223.075c1.907.633 3.887 1.022 5.886 1.153l.29.02v3.721zm3.312-3.142v2.472c2.332-.213 4.593-.802 6.73-1.754l-1.205-1.807c-1.791.577-3.647.944-5.525 1.09zm-.621 3.145v-3.725l.29-.019c2.003-.13 3.983-.52 5.887-1.153l.224-.075 1.87 2.805-.327.153c-2.405 1.118-4.964 1.788-7.61 1.99l-.334.024zM37.747 67.231h4.658c.658 0 1.269.328 1.636.876l1.392 2.033 13.536-12.206c-1.217-.422-2.41-.939-3.55-1.54l-11.277 3.073c-3.661.783-6.335 4.042-6.395 7.764zm8.28 4.88l-2.501-3.657c-.252-.379-.67-.602-1.121-.602h-5.28v-.56c.032-4.04 2.922-7.583 6.87-8.427l11.498-3.137.108.06c1.299.692 2.667 1.272 4.067 1.724l.514.164-14.154 12.765v1.67zm3.312 1.746h15.943V59.244c-.497-.039-1.03-.102-1.648-.192l-14.295 12.69v2.115zm16.564.621H48.718V71.46l.105-.092 14.618-12.97.143.018c.784.12 1.429.192 2.028.228l.29.02v15.814zm3.312-.62h15.943v-2.124L70.91 59.045c-.638.095-1.187.158-1.696.2v14.612zm16.564.62H68.594V58.664l.29-.02c.61-.038 1.273-.113 2.079-.235l.142-.019.109.094 14.565 12.973v3.021zM75.557 57.924l13.534 12.24v5.75l.56-.242c.25-.107.515-.16.786-.16h6.316v-9.295c-.024-3.924-2.967-7.32-6.85-7.898l-10.745-1.97c-1.157.617-2.365 1.146-3.601 1.575zM88.47 76.861v-6.42L74.349 57.667l.512-.165c1.41-.456 2.788-1.046 4.098-1.752l.097-.05 10.95 2.005c4.17.622 7.344 4.28 7.369 8.51v9.918h-6.938c-.186 0-.368.036-.538.112l-1.43.616zm-32.34 3.651l9.152.706V77.79H53.166c.454.626.868 1.29 1.237 1.982l1.727.74zm9.773 1.376l-.334-.024-9.635-.76-1.977-.847-.051-.099c-.464-.883-1.005-1.72-1.61-2.487l-.392-.502h13.999v4.72zm3.312-4.098v3.433l9.152-.706 6.364-2.727H69.215zm-.621 4.102V77.17h17.185v.847l-.19.082-7.123 3.035-9.872.76zm-46.95-.188l2.002 1c2.649-2.199 5.643-3.89 8.904-5.028.674-.238 1.298-.573 1.866-1-4.668.432-9.062 2.162-12.772 5.028zm2.089 1.737l-3.24-1.619.379-.303c4.04-3.246 8.907-5.15 14.08-5.51l1.206-.087-.605.592c-.802.786-1.744 1.376-2.797 1.75-3.256 1.134-6.238 2.833-8.868 5.045l-.155.132zm59.72-.828l13.3 1.024v-4.19h-5.911l-7.39 3.166zm13.922 1.694l-.335-.024-16.16-1.243 9.9-4.214h6.595v5.481zM35.377 88.57l1.562.77 4.09-2.758c-1.955.423-3.852 1.09-5.652 1.988zm1.61 1.487l-2.982-1.47.537-.284c2.327-1.235 4.816-2.087 7.397-2.528l.82-.14-1.008 1.212-4.764 3.21zm-24.53 6.988h1.913c1.177-4.232 3.339-8.179 6.274-11.457l-2.09-1.039c-3.206 3.507-5.307 7.815-6.096 12.496zm2.388.621h-3.112l.053-.357c.772-5.02 3.009-9.637 6.47-13.352l.159-.169L21.66 85.4l-.281.306c-3.065 3.318-5.302 7.375-6.471 11.73l-.064.231zm10.455-.62h.206l7.685-5.176-1.743-.872c-2.331 1.721-4.396 3.751-6.148 6.047zm.396.62H24.07l.362-.495c1.902-2.6 4.19-4.884 6.803-6.784l.153-.112 3.03 1.517-8.722 5.874zm6.849-.62h2.77l12.316-6.167 4.239-7.062c-1.046-3.305-3.416-6.08-6.52-7.63l-.516-.258c-.308-.158-.568-.388-.757-.67l-2.725-4.095h-8.885c-14.593.02-26.732 11.36-27.778 25.881h3.81c1.885-13.22 12.868-23.436 26.215-24.336l3.766-.267c.68-.04 1.354.263 1.744.828.396.558.47 1.295.195 1.921-1.228 2.875-3.623 5.137-6.566 6.202-7.272 2.521-12.986 8.351-15.361 15.652h2.02c6.04-9.339 15.45-14.907 25.205-14.907 1.082.002 1.96.885 1.96 1.967 0 .452-.155.891-.44 1.238l-3.012 3.727c-.122.15-.267.283-.432.395l-11.248 7.58zm2.917.62h-4.95l12.934-8.718c.114-.075.21-.165.294-.266l3.017-3.732c.193-.236.299-.537.299-.845 0-.739-.601-1.344-1.34-1.346-9.59 0-18.851 5.52-24.771 14.763l-.092.144h-3.205l.124-.403c2.353-7.674 8.288-13.827 15.872-16.455 2.778-1.007 5.042-3.144 6.204-5.862.189-.43.138-.936-.131-1.32-.25-.356-.658-.567-1.087-.567-.034 0-.068 0-.104.004l-3.768.267c-13.146.886-23.945 11.006-25.68 24.066l-.036.27H4.027l.02-.33c.904-15.004 13.387-26.774 28.42-26.793h9.22l2.906 4.372c.129.191.309.352.52.458l.515.255c3.296 1.65 5.803 4.615 6.876 8.14l.04.131-.07.12-4.401 7.336-.082.04-12.53 6.271zm8.656-.62h3.057l10.528-2.22-2.277-.479-5.926.007-5.382 2.691zm3.12.62h-5.75l7.938-3.933h6.064l5.23 1.092-13.482 2.841zm5.266-7.248h3.15c.137 0 .272.015.406.044l31.294 6.59 4.74-.007c.564 0 1.12-.11 1.653-.323 1.793-.682 2.999-2.424 3.006-4.336v-4.804L55.917 84.44c-.034.236-.112.464-.231.67l-3.182 5.308zm39.59 7.248H87.29L55.93 91.07c-.092-.02-.184-.03-.276-.03h-4.248l3.743-6.242c.114-.2.173-.439.165-.682l-.012-.347 42.072 3.237v5.381c-.008 2.17-1.374 4.142-3.4 4.916-.604.24-1.237.364-1.881.364zM32.467 67.852c-17.163.02-31.141 13.997-31.16 31.16 0 .74.604 1.344 1.346 1.344h33.141c.209 0 .407-.046.589-.133l1.968-.983.143.083c1.19.677 2.543 1.033 3.91 1.033l6.61-.313 18.423-3.746.06.015 20.017 4.03 4.583.014h.017c.977 0 1.936-.184 2.844-.548.69-.269 1.334-.63 1.917-1.077l.5-.38v2.005h2.69V66.217c0-.349-.018-.692-.05-1.034-.501-5.172-4.438-9.338-9.575-10.127L79.653 53.07l-2.775-4.149v-6.422l.123-.092c3.615-2.71 5.949-6.84 6.4-11.336l.027-.279h.383c3.483 0 6.316-2.83 6.316-6.313 0-3.482-2.833-6.315-6.316-6.315h-.315l.005-.316c.004-.337-.012-.689-.046-1.04-.002-.175-.01-.32-.025-.464-.002-.068-.01-.097-.014-.129l-.01-.082c-.024-.323-.066-.602-.121-.88-.058-.428-.136-.83-.24-1.216-.25-1.053-.614-2.072-1.078-3.043l-.031-.12c-.22-5.12-4.56-9.274-9.681-9.274H52.343c-.743 0-1.346.604-1.346 1.346v1.657c.007 1.895.696 3.725 1.94 5.151l.146.165-.107.19c-.276.494-.528 1.013-.75 1.54-.133.325-.25.65-.378 1.015-.055.138-.096.271-.131.407-.318 1.021-.53 2.06-.63 3.103-.023.158-.033.301-.035.447-.04.441-.055.834-.055 1.225v.31h-.311c-3.481 0-6.315 2.834-6.315 6.316 0 3.482 2.834 6.316 6.315 6.316h.383l.027.278c.449 4.498 2.783 8.633 6.403 11.341l.124.092v6.422l-2.808 4.212-.111.031-11.345 3.084c-5.151 1.141-8.897 5.787-8.926 11.05v.555h-1.966zm3.329 33.125H2.653c-1.084 0-1.967-.88-1.967-1.965.019-17.505 14.276-31.762 31.78-31.78h1.346c.06-5.526 4.003-10.393 9.397-11.589l11.218-3.05 2.575-3.862V42.81c-3.613-2.757-5.966-6.89-6.494-11.404-3.743-.095-6.758-3.169-6.758-6.934 0-3.722 2.945-6.769 6.628-6.93.007-.31.027-.626.053-.953.002-.148.017-.32.039-.487.105-1.073.326-2.155.65-3.198.034-.144.085-.306.146-.459.128-.364.25-.699.388-1.033.2-.486.43-.959.675-1.415-1.255-1.514-1.947-3.42-1.953-5.394V2.945c0-1.084.882-1.968 1.967-1.968H72.255c5.43 0 10.033 4.385 10.299 9.805.47.992.84 2.036 1.095 3.101.106.405.19.834.247 1.27.056.275.103.578.129.882l.002.097c.013.041.022.11.022.177.017.133.025.298.025.466.026.247.04.512.048.774 3.68.162 6.626 3.207 6.626 6.93 0 3.765-3.016 6.836-6.76 6.931-.528 4.508-2.88 8.64-6.49 11.4v5.921l2.524 3.775 10.52 1.936c5.41.832 9.564 5.224 10.09 10.683.037.364.054.721.054 1.092v34.76h-3.933v-1.399c-.49.322-1.017.592-1.565.808-.982.393-2.016.591-3.074.591h-.02l-4.643-.022-20.014-4.022-18.348 3.724-6.67.32h-.001c-1.435 0-2.837-.356-4.084-1.033l-1.677.837c-.271.131-.56.196-.861.196z" mask="url(#4c1d695z3f)"/>
        </g>
    </g>
</svg>
