<svg xmlns="http://www.w3.org/2000/svg" xmlns:xlink="http://www.w3.org/1999/xlink" width="164" height="100" viewBox="0 0 164 100">
    <defs>
        <path id="s9pwgzxrqa" d="M0.829 0.249L43 0.249 43 35.392 0.829 35.392z"/>
        <path id="spp9pu5a8c" d="M0 0.618L118.058 0.618 118.058 99 0 99z"/>
    </defs>
    <g fill="none" fill-rule="evenodd" stroke-dasharray="4 4 4">
        <path fill="#FEFEFE" d="M137.892 21.599c.068-.216.283-.375.539-.378l8.794-.076h.005c.107 0 .209.029.294.076.276.038.488.258.488.523v1.864c1.315-.197 8.794.401 15.489 12.36.14.25.044.556-.218.698l-5.972 3.214c-.09.047-.187.07-.284.07-.167 0-.332-.07-.443-.198l-4.065-5.908.23 20.49c.003.142-.055.277-.162.377-.106.102-.252.157-.404.157h-18.281c-.314 0-.568-.235-.568-.528 0-.104.033-.202.09-.284-.006-.03-.01-.06-.01-.091V33.79l-3.685 6.083c-.111.136-.281.21-.454.21-.1 0-.2-.025-.29-.074-.055-.03-5.537-3.041-6.13-3.36-.261-.142-.358-.448-.218-.698 6.657-11.89 13.785-12.545 15.157-12.348v-1.71c0-.11.036-.211.098-.295"/>
        <g transform="translate(121 20.381)">
            <mask id="n5jpze7g3b" fill="#fff">
                <use xlink:href="#s9pwgzxrqa"/>
            </mask>
            <path fill="#020303" d="M16.626.753c.072-.241.299-.417.568-.42l9.258-.084h.006c.113 0 .219.03.31.085.29.04.512.285.512.58v2.07c1.385-.216 8.604-.622 15.653 12.672.147.278.046.619-.231.777l-6.287 3.57c-.094.055-.196.08-.3.08-.176 0-.348-.077-.466-.22l-3.624-4.425.245 19.362c.002.157-.06.308-.172.418-.113.113-.266.174-.426.174H12.425c-.33 0-.598-.261-.598-.585 0-.117.035-.225.095-.316-.006-.034-.01-.068-.01-.103v-19.01l-3.55 4.638c-.117.152-.296.234-.478.234-.105 0-.21-.027-.304-.082-.058-.033-5.83-3.381-6.454-3.735-.275-.158-.377-.5-.23-.777C7.904 2.44 15.079 2.762 16.523 2.982V1.08c0-.121.039-.235.103-.328zm-3.518 13.602V34.22h4.349l-.084-15.228c-.01-2.075-2.373-4.285-4.265-4.638zM26.085 3.138V1.424l-3.586.033V4.93c0 .324-.268.586-.598.586-.33 0-.597-.262-.597-.586V1.468l-3.585.032v1.797c.09.068.162.16.202.273.552 1.55 2.91 1.84 2.934 1.845.327.036.562.327.524.649-.036.298-.294.517-.593.517-.022 0-.046 0-.068-.003-.124-.013-2.964-.356-3.856-2.442-.115.048-.246.06-.378.03-.041-.01-1.841-.397-4.483.842-2.113.989-5.14 3.214-8.312 8.2l5.659 3.53.019.014 2.483-3.242c.096-.125.234-.202.38-.226.062-.032.13-.054.203-.063.097-.058.213-.09.336-.084 2.52.112 5.785 2.969 5.799 5.85.004.665.073 13.025.084 15.234h2.652V6.939c0-.323.267-.585.597-.585.33 0 .598.262.598.585V34.22h2.849l.084-15.233c.013-2.723 2.906-5.731 5.628-5.851.123-.006.238.026.336.084h.003c.134-.002.258.04.359.112.079.036.15.09.209.162l2.462 3.006 5.702-3.31C33.518 2.788 27.413 4.149 27.347 4.164c-.16.04-.323.012-.454-.065-.952 1.97-3.675 2.299-3.796 2.31-.024.005-.046.005-.07.005-.298 0-.557-.22-.592-.52-.038-.321.197-.61.525-.647.023-.003 2.382-.295 2.934-1.845.038-.107.106-.197.19-.264zm4.73 11.2c-1.865.293-4.177 2.503-4.188 4.655l-.084 15.228h4.524l-.251-19.883zM3.072 14.21c-.282.476-.566.973-.85 1.493 1.26.727 4.33 2.507 5.507 3.189l.919-1.202-5.576-3.48zm37.677-.016l-5.562 3.23 1.075 1.312 5.345-3.036c-.286-.525-.572-1.027-.858-1.506z" mask="url(#n5jpze7g3b)"/>
        </g>
        <path fill="#FEFEFE" d="M105.155 17.358c.112-.353.463-.613.881-.617l14.361-.123h.01c.175 0 .34.046.48.124.45.06.795.419.795.852v3.044c2.148-.32 14.363.657 25.297 20.187.23.408.072.909-.357 1.14l-9.752 5.248c-.146.079-.306.116-.464.116-.273 0-.542-.114-.724-.323l-6.639-9.65.38 33.464c.003.232-.094.453-.268.615-.175.165-.412.256-.66.256H98.64c-.512 0-.927-.383-.927-.86 0-.171.053-.331.146-.465-.009-.05-.014-.1-.014-.15V37.27l-6.02 9.933c-.18.223-.459.344-.742.344-.16 0-.323-.04-.472-.121-.09-.048-9.043-4.966-10.01-5.488-.428-.231-.586-.732-.357-1.141 10.871-19.416 22.514-20.487 24.753-20.165V17.84c0-.178.058-.344.16-.482"/>
        <path fill="#020303" d="M104.723 16.599c.118-.393.487-.681.927-.686l15.12-.136h.01c.184 0 .357.05.505.137.473.066.837.466.837.948v3.383c2.262-.355 14.05-1.018 25.563 20.692.24.454.075 1.012-.377 1.269l-10.267 5.833c-.153.087-.321.128-.488.128-.288 0-.571-.125-.762-.358l-5.92-7.228.4 31.621c.004.257-.098.503-.281.684-.184.183-.434.284-.695.284H97.862c-.538 0-.976-.426-.976-.957 0-.19.057-.367.154-.516-.01-.054-.014-.11-.014-.167V40.485l-5.8 7.573c-.19.249-.482.383-.78.383-.17 0-.342-.044-.497-.134-.095-.055-9.521-5.521-10.54-6.101-.451-.257-.617-.815-.375-1.269 11.445-21.584 23.163-21.056 25.52-20.698v-3.104c0-.199.063-.383.169-.536zm-5.745 22.213v32.444h7.102l-.137-24.868c-.017-3.39-3.876-6.999-6.965-7.576zm21.193-18.317v-2.8l-5.856.053v5.674c0 .53-.438.957-.976.957-.54 0-.976-.427-.976-.957v-5.656l-5.856.053v2.936c.148.11.265.261.33.445.902 2.531 4.752 3.006 4.79 3.012.535.06.919.535.857 1.06-.058.487-.48.845-.967.845-.037 0-.074 0-.112-.005-.203-.022-4.841-.581-6.296-3.989-.19.079-.403.101-.617.05-.068-.017-3.008-.648-7.323 1.375-3.451 1.615-8.392 5.249-13.573 13.391l9.24 5.767.033.021 4.053-5.294c.157-.204.382-.33.62-.369.102-.053.214-.089.332-.104.16-.094.349-.145.549-.136 4.116.183 9.448 4.849 9.472 9.556l.137 24.876h4.33V26.702c0-.527.438-.957.977-.957.538 0 .976.43.976.957v44.554h4.65c.022-3.607.132-23.791.138-24.876.022-4.448 4.747-9.36 9.19-9.556.202-.009.39.042.55.136h.007c.218-.002.42.066.585.183.129.06.246.149.342.266l4.02 4.909 9.312-5.407c-10.8-16.988-20.77-14.767-20.878-14.741-.262.066-.527.02-.741-.107-1.554 3.218-6.002 3.754-6.201 3.775-.037.006-.074.006-.111.006-.49 0-.912-.358-.97-.848-.06-.524.324-.998.859-1.058.038-.005 3.889-.481 4.79-3.012.063-.176.175-.323.314-.431zm7.727 18.291c-3.05.478-6.825 4.087-6.843 7.602l-.137 24.868h7.389l-.41-32.47zm-45.312-.207c-.462.775-.925 1.587-1.388 2.438 2.058 1.186 7.072 4.095 8.993 5.207l1.502-1.962-9.107-5.683zm61.532-.028l-9.085 5.276 1.755 2.143c1.844-1.047 6.706-3.808 8.73-4.959-.467-.858-.935-1.677-1.4-2.46z"/>
        <path fill="#FEFEFE" d="M44.968 3.71c.192-.605.793-1.05 1.51-1.057l24.618-.21h.015c.3 0 .583.077.823.212.77.101 1.364.718 1.364 1.46v5.218c3.682-.548 24.619 1.125 43.363 34.603.392.7.12 1.56-.613 1.956l-16.716 8.994c-.25.135-.524.2-.796.2-.468 0-.93-.195-1.24-.554l-11.381-16.54.65 57.362c.005.396-.16.775-.458 1.054-.3.282-.706.438-1.131.438H33.798c-.878 0-1.59-.657-1.59-1.475 0-.293.093-.566.252-.796-.016-.084-.024-.17-.024-.258V37.842L22.115 54.87c-.31.383-.786.59-1.271.59-.276 0-.556-.067-.81-.207-.153-.084-15.501-8.514-17.158-9.407-.734-.396-1.005-1.256-.613-1.956C20.899 10.606 40.856 8.771 44.695 9.323V4.537c0-.306.1-.59.273-.827"/>
        <g transform="translate(0 .382)">
            <mask id="rm8cfjuzdd" fill="#fff">
                <use xlink:href="#spp9pu5a8c"/>
            </mask>
            <path fill="#020303" d="M44.225 2.028c.202-.673.836-1.168 1.59-1.175L71.733.618h.015c.318 0 .615.087.868.237.81.113 1.436.798 1.436 1.624v5.8c3.876-.609 24.084-1.746 43.818 35.47.412.778.127 1.733-.646 2.174l-17.6 9.999c-.262.149-.55.22-.837.22-.494 0-.978-.216-1.305-.614l-10.147-12.39.685 54.203c.005.441-.168.862-.483 1.172-.314.314-.743.487-1.19.487H32.465c-.924 0-1.673-.731-1.673-1.64 0-.326.097-.629.264-.884-.017-.094-.025-.189-.025-.287V42.973l-9.94 12.981c-.327.427-.83.656-1.34.656-.291 0-.585-.075-.85-.229-.163-.094-16.322-9.465-18.067-10.458-.773-.441-1.057-1.396-.645-2.174 19.62-37 39.707-36.096 43.748-35.482v-5.32c0-.34.106-.657.288-.919zm-9.848 38.078V95.72h12.175c-.034-6.234-.225-40.766-.234-42.629-.03-5.811-6.646-11.998-11.941-12.985zm36.328-31.4V3.908l-10.038.091v9.725c0 .909-.75 1.64-1.672 1.64-.924 0-1.673-.731-1.673-1.64V4.029l-10.038.09v5.033c.253.188.453.448.566.763 1.545 4.338 8.146 5.154 8.212 5.163.917.103 1.574.918 1.468 1.818-.1.834-.822 1.448-1.66 1.448-.062 0-.126 0-.191-.01-.346-.036-8.298-.995-10.793-6.836-.322.135-.69.173-1.057.085-.115-.029-5.156-1.111-12.551 2.356C25.362 16.71 16.89 22.938 8.01 36.895l15.84 9.885.056.036 6.948-9.074c.269-.35.654-.566 1.064-.633.173-.091.365-.152.568-.178.273-.162.597-.25.94-.234 7.056.314 16.196 8.312 16.237 16.38l.235 42.643h7.424V19.346c0-.904.749-1.639 1.673-1.639.923 0 1.672.735 1.672 1.639V95.72h7.974c.034-6.184.225-40.783.234-42.643.039-7.623 8.138-16.043 15.756-16.38.344-.016.668.072.942.234h.01c.373-.004.72.113 1.002.313.222.103.423.256.586.455l6.893 8.416 15.96-9.268C91.513 7.725 74.424 11.534 74.239 11.578c-.451.113-.904.034-1.272-.183-2.663 5.516-10.288 6.435-10.628 6.471-.064.009-.128.009-.191.009-.84 0-1.563-.614-1.66-1.452-.105-.9.552-1.71 1.468-1.813.067-.01 6.669-.825 8.214-5.164.108-.303.298-.555.536-.74zM83.95 40.061c-5.226.818-11.7 7.006-11.73 13.03l-.234 42.629h12.666l-.702-55.659zM6.28 39.705c-.792 1.33-1.586 2.721-2.381 4.179 3.528 2.034 12.124 7.019 15.416 8.926l2.575-3.363-15.61-9.742zm105.474-.047l-15.572 9.043 3.009 3.674c3.16-1.795 11.495-6.527 14.965-8.5-.801-1.471-1.603-2.875-2.402-4.217z" mask="url(#rm8cfjuzdd)"/>
        </g>
    </g>
</svg>
