<svg xmlns="http://www.w3.org/2000/svg" xmlns:xlink="http://www.w3.org/1999/xlink" width="150" height="150" viewBox="0 0 150 150">
    <defs>
        <path id="s41i748ada" d="M0 0L150 0 150 150 0 150z"/>
    </defs>
    <g fill="none" fill-rule="evenodd" stroke-dasharray="4 4 4">
        <path fill="#020303" d="M92.385 34.964c0-2.044-1.682-3.727-3.727-3.727-2.044 0-3.726 1.683-3.726 3.727 0 2.044 1.682 3.727 3.726 3.727 2.045 0 3.727-1.683 3.727-3.727"/>
        <path fill="#FEFEFE" d="M88.659 31.702c-1.798 0-3.261 1.463-3.261 3.261s1.463 3.261 3.26 3.261c1.799 0 3.262-1.463 3.262-3.26 0-1.799-1.463-3.262-3.261-3.262m0 7.454c-2.311 0-4.193-1.882-4.193-4.193 0-2.31 1.882-4.193 4.193-4.193 2.31 0 4.192 1.882 4.192 4.193s-1.881 4.193-4.192 4.193"/>
        <path fill="#020303" d="M111.02 38.69c2.043 0 3.726-1.681 3.726-3.726 0-2.044-1.683-3.726-3.727-3.726-2.044 0-3.727 1.682-3.727 3.726 0 2.045 1.683 3.727 3.727 3.727"/>
        <path fill="#FEFEFE" d="M111.019 31.702c-1.798 0-3.261 1.463-3.261 3.261s1.463 3.261 3.26 3.261c1.799 0 3.262-1.463 3.262-3.26 0-1.799-1.463-3.262-3.261-3.262m0 7.454c-2.311 0-4.192-1.882-4.192-4.193 0-2.31 1.88-4.193 4.192-4.193 2.31 0 4.193 1.882 4.193 4.193s-1.882 4.193-4.193 4.193"/>
        <path fill="#020303" d="M99.839 55.254c4.089 0 7.453-3.365 7.453-7.454h-4.97c0 1.363-1.12 2.485-2.483 2.485s-2.484-1.122-2.484-2.485h-4.97c0 4.089 3.365 7.454 7.454 7.454"/>
        <path fill="#FEFEFE" d="M92.866 48.265c.24 3.636 3.275 6.521 6.973 6.521 3.697 0 6.733-2.885 6.973-6.52h-4.058c-.225 1.407-1.445 2.485-2.915 2.485-1.471 0-2.69-1.078-2.915-2.486h-4.058zm6.973 7.454c-4.368 0-7.92-3.553-7.92-7.92v-.466h5.9v.466c0 1.114.906 2.02 2.02 2.02 1.113 0 2.02-.906 2.02-2.02v-.466h5.899v.466c0 4.367-3.552 7.92-7.92 7.92z"/>
        <path fill="#020303" d="M51.002 131.399c3.43-1.824 7.13-3.088 10.96-3.744l-.627.763-6.919 4.663-3.413-1.682zm-3.332-26.583h13.578l4.224 6.347c.24.36.57.65.957.845l.775.388c4.853 2.42 8.5 6.737 10.08 11.925l-6.535 10.89-18.695 9.356h-5.788l18.136-12.226c.206-.136.39-.304.543-.497l4.525-5.59c.358-.442.553-.994.553-1.563 0-1.36-1.117-2.48-2.477-2.484-14.628 0-28.57 8.342-37.552 22.36h-3.922c3.497-11.405 12.247-20.476 23.52-24.38 4.306-1.56 7.78-4.84 9.583-9.051.348-.797.253-1.72-.25-2.43-.495-.715-1.336-1.113-2.203-1.043l-5.648.402c-19.938 1.343-36.316 16.69-38.948 36.502H5.508c1.335-22.184 19.94-39.724 42.162-39.751zm7.454-5.342c.047-5.868 4.2-10.96 9.938-12.186l17.094-4.664c1.975 1.058 4.042 1.935 6.176 2.62l-20.785 18.743v1.206l-2.901-4.241c-.462-.69-1.239-1.106-2.069-1.106h-7.453v-.372zm24.844-56.77V29.288c4.834-2.627 8.803-6.597 11.43-11.43h16.919c2.624 4.827 6.583 8.796 11.404 11.43v13.416c.004 6.633-3.32 12.845-8.84 16.52-6.69 4.39-15.388 4.39-22.078 0-5.52-3.675-8.841-9.888-8.835-16.52zm5.727-25.02c-1.535 2.213-3.438 4.146-5.626 5.715 0-.044 0-.082.013-.128.136-1.368.413-2.718.827-4.028l.095-.261c.147-.417.291-.832.465-1.242.175-.41.394-.763.585-1.148 1.15.552 2.379.92 3.641 1.093zm.533-12.247l5.963 7.453h-4.769c-4.088 0-7.453-3.364-7.453-7.453h6.259zm12.422 0l5.962 7.453h-6.056l-5.963-7.453h6.056zm8.647 0c4.558-.017 8.585 3.055 9.776 7.453h-6.095l-5.962-7.453h2.281zm10.934 12.422c.384.91.695 1.85.925 2.812.127.504.226 1.014.296 1.528.072.366.124.737.157 1.109v.094c-2.123-1.531-3.977-3.404-5.485-5.543h4.107zm-.6 64.71l16.263 2.982c6.08.905 10.636 6.16 10.671 12.308v14.41h-9.938c-.341-.002-.68.067-.994.204l-1.49.643v-9.13L111.404 85.23c2.153-.696 4.237-1.586 6.227-2.661zm26.934 37.153v4.77l-22.346-1.72 12.92-5.534h9.426v2.484zm-47.204-4.97v6.11l-14.309-1.1-2.813-1.205c-.7-1.341-1.522-2.614-2.454-3.804h19.576zm0-27.785v22.817H72.514v-3.851l21.763-19.311c1.022.15 2.051.278 3.082.345zm0-9.69v4.646c-3.903-.295-7.719-1.294-11.266-2.946l2.322-3.454c2.894.965 5.9 1.556 8.944 1.757v-.003zm12.421-6.531c-6.447 2.166-13.427 2.166-19.876 0v-5.317c6.322 2.824 13.555 2.824 19.876 0v5.317zm-7.453 11.18V77.28c3.045-.201 6.05-.792 8.945-1.757l2.308 3.464c-3.543 1.648-7.355 2.644-11.252 2.939zm24.845 32.827v.497l-10.54 4.517-14.305 1.103v-6.117h24.845zm-24.845-4.97V86.968c1.056-.07 2.108-.2 3.156-.358l21.689 19.319v3.856h-24.845zm42.236 22.362v4.968c-.011 3.076-1.924 5.84-4.797 6.937-.845.34-1.745.516-2.656.517h-7.206l-46.944-9.886c-.166-.035-.338-.052-.508-.052h-5.55l5.195-8.658c.218-.39.325-.833.31-1.28l62.156 4.785v2.669zm-74.782 12.422h-6.61l9.939-4.97h9.094l5.584 1.174-18.008 3.796zm-32.41 0h-1.378c2.823-3.863 6.232-7.262 10.1-10.077l3.58 1.789-12.301 8.288zm-6.802-23.39c5.954-4.787 13.236-7.637 20.86-8.163l.544-.04c-1.142 1.122-2.517 1.98-4.026 2.515-4.908 1.713-9.465 4.306-13.445 7.652l-3.933-1.963zm-9.69 23.39h-3.77c1.136-7.406 4.477-14.301 9.588-19.78l4 1.988c-4.663 5.049-8.033 11.155-9.819 17.792zM75 40.219c-.084.005-.166.007-.249.007-2.727 0-4.97-2.244-4.97-4.97 0-2.725 2.243-4.968 4.97-4.968.083 0 .166.002.249.006v9.925zm49.688-9.937c2.727 0 4.97 2.242 4.97 4.968s-2.243 4.969-4.97 4.969v-9.937zM2.951 149.536h49.688c.386.004.765-.081 1.111-.25l2.733-1.365c1.858 1.058 3.958 1.615 6.095 1.615l9.938-.47 27.611-5.61 30.026 6.046 6.959.034c1.531 0 3.05-.29 4.472-.857 1.067-.417 2.071-.981 2.981-1.677v2.534h4.97V97.859c0-.537-.026-1.066-.076-1.593-.768-7.94-6.874-14.397-14.757-15.61l-15.975-2.94-3.976-5.944v-9.26c5.542-4.147 9.094-10.437 9.784-17.324h.154c5.453 0 9.939-4.486 9.939-9.938 0-5.451-4.486-9.937-9.938-9.937.004-.54-.02-1.08-.075-1.616.002-.234-.01-.467-.034-.7 0-.092-.02-.18-.035-.265v-.103c-.04-.44-.105-.877-.195-1.31-.079-.623-.2-1.242-.36-1.85-.385-1.603-.938-3.16-1.65-4.646-.342-8-7.035-14.386-15.043-14.356H77.483c-1.362 0-2.483 1.122-2.483 2.485v2.485c.01 2.953 1.085 5.806 3.024 8.032-.422.764-.803 1.55-1.142 2.355-.203.497-.384.994-.578 1.546-.086.214-.156.434-.21.658-.48 1.537-.8 3.119-.956 4.72-.032.235-.05.472-.054.709-.057.623-.084 1.222-.084 1.846-5.453 0-9.939 4.486-9.939 9.937 0 5.452 4.487 9.938 9.939 9.938h.153c.686 6.89 4.239 13.186 9.785 17.334v9.26l-4.036 6.055-17.016 4.628c-7.962 1.764-13.691 8.864-13.731 17.019v.372H47.67C21.786 99.875.495 121.166.467 147.05c0 1.363 1.12 2.485 2.483 2.485z"/>
        <mask id="d0octgu64b" fill="#fff">
            <use xlink:href="#s41i748ada"/>
        </mask>
        <path fill="#FEFEFE" d="M80.448 5.903c.24 3.636 3.275 6.522 6.973 6.522h3.8l-5.219-6.522h-5.554zm12.708 7.454h-5.735c-4.368 0-7.919-3.553-7.919-7.92v-.466h6.951l6.703 8.386zm5.623-.932h4.866l-5.222-6.522H93.56l5.22 6.522zm6.802.932h-7.253l-6.704-8.386h7.25l6.707 8.386zm5.623-.932h5.237c-1.317-3.873-4.97-6.522-9.102-6.522h-1.357l5.222 6.522zm6.474.932h-6.925l-6.707-8.386h3.293c4.757 0 8.94 3.203 10.183 7.8l.156.586zM82.26 17.2c-.007.018-.018.033-.025.051-.117.215-.237.433-.335.669-.17.4-.313.808-.455 1.216l-.102.269c-.298.954-.528 1.951-.68 2.962 1.594-1.258 3.006-2.714 4.218-4.345-.903-.178-1.78-.455-2.62-.822zm-2.657 7.104v-.906c0-.055 0-.135.022-.233.131-1.34.42-2.726.837-4.062l.106-.284c.146-.418.295-.84.473-1.263.113-.262.244-.506.375-.749.073-.139.15-.277.218-.419l.204-.415.415.201c1.106.531 2.285.884 3.505 1.047l.753.102-.433.626c-1.568 2.261-3.5 4.222-5.736 5.827l-.739.528zm35.441-5.98c1.154 1.503 2.482 2.857 3.963 4.037-.004-.022-.007-.044-.015-.07-.069-.524-.164-1.023-.287-1.507-.204-.844-.47-1.67-.79-2.46h-2.87zm5.03 5.987l-.74-.532c-2.169-1.568-4.05-3.468-5.594-5.651l-.516-.735h5.313l.12.283c.39.921.71 1.893.95 2.887.132.512.233 1.044.306 1.575.07.349.124.739.16 1.128v1.045zm5.08 6.46v8.956c2.267-.233 4.04-2.151 4.04-4.476 0-2.326-1.773-4.247-4.04-4.48zm-.466 9.913h-.466v-10.87h.466c3 0 5.437 2.438 5.437 5.437 0 2.995-2.438 5.433-5.437 5.433zm-50.154-9.927c-2.384.116-4.287 2.088-4.287 4.498 0 2.413 1.903 4.385 4.287 4.502v-9zm.218 9.935c-2.999 0-5.437-2.438-5.437-5.437 0-2.996 2.438-5.434 5.437-5.434l.703.025.011.448v10.372l-.444.018-.022-.466.011.466-.259.008zm5.681-11.129v13.141c-.007 6.5 3.218 12.531 8.63 16.13 6.543 4.302 15.011 4.302 21.562 0 5.405-3.599 8.633-9.63 8.63-16.13V29.563c-4.72-2.639-8.59-6.515-11.214-11.239H91.675c-2.635 4.735-6.51 8.611-11.242 11.239zm19.41 33.427c-3.935 0-7.866-1.128-11.294-3.377-5.674-3.778-9.055-10.1-9.047-16.909V29.009l.243-.13c4.765-2.588 8.651-6.475 11.246-11.243l.131-.243h17.472l.132.243c2.584 4.757 6.463 8.644 11.216 11.243l.244.13v13.695c.004 6.813-3.377 13.131-9.048 16.909-3.43 2.249-7.365 3.377-11.296 3.377zm-9.47 7.417c6.117 1.984 12.817 1.987 18.942 0v-4.273c-6.055 2.504-12.88 2.504-18.943 0v4.273zm9.47 2.42c-3.415 0-6.832-.546-10.086-1.641l-.316-.106v-6.368l.655.291c6.198 2.762 13.298 2.769 19.496 0l.655-.291v6.368l-.317.106c-3.253 1.095-6.67 1.641-10.088 1.641zm-13.056 5.954c3.21 1.431 6.602 2.315 10.107 2.635v-3.704c-2.813-.219-5.597-.768-8.29-1.635l-1.817 2.704zm11.04 3.643l-.504-.036c-3.974-.302-7.817-1.307-11.423-2.988l-.495-.229 2.82-4.2.335.113c2.861.949 5.83 1.532 8.83 1.729l.436.028v5.583zm4.967-4.712v3.708c3.497-.32 6.89-1.205 10.095-2.631l-1.809-2.712c-2.686.867-5.469 1.416-8.286 1.635zm-.932 4.716v-5.587l.437-.028c3.002-.197 5.972-.78 8.83-1.729l.334-.113 2.805 4.207-.49.229c-3.607 1.678-7.447 2.683-11.414 2.985l-.502.036zM55.592 99.38h6.986c.987 0 1.904.491 2.453 1.314l2.09 3.05 20.304-18.31c-1.828-.633-3.614-1.408-5.325-2.311l-16.916 4.611c-5.49 1.176-9.502 6.064-9.593 11.646zm12.42 7.319l-3.752-5.484c-.378-.568-1.004-.903-1.682-.903H54.66v-.841c.048-6.059 4.382-11.373 10.303-12.639l17.247-4.706.164.087c1.947 1.041 4 1.911 6.1 2.588l.771.247-21.232 19.147v2.504zm4.968 2.62h23.914V87.4c-.746-.059-1.547-.154-2.47-.288L72.98 106.146v3.173zm24.846.932H72.048v-4.528l.157-.138 21.927-19.456.214.029c1.176.179 2.144.288 3.043.343l.437.028v23.722zm4.968-.932h23.914v-3.184l-21.37-19.034c-.958.142-1.78.237-2.544.299v21.919zm24.845.932h-25.777V86.529l.437-.028c.913-.059 1.907-.172 3.115-.353l.215-.03.163.142 21.847 19.46v4.531zM112.307 85.42l20.3 18.36v8.625l.841-.363c.375-.16.771-.241 1.18-.241h9.472V97.859c-.036-5.885-4.45-10.98-10.274-11.846l-16.118-2.955c-1.737.924-3.549 1.718-5.4 2.362zm19.37 28.405v-9.63l-21.183-19.161.768-.248c2.115-.684 4.182-1.568 6.147-2.627l.146-.077 16.424 3.01c6.256.932 11.016 6.42 11.053 12.763v14.878h-10.405c-.28 0-.553.055-.808.168l-2.143.924zm-48.51 5.477l13.727 1.059v-5.143H78.72c.681.939 1.303 1.937 1.856 2.974l2.591 1.11zm14.66 2.063l-.504-.036-14.45-1.139-2.967-1.27-.077-.149c-.695-1.325-1.506-2.581-2.413-3.731l-.59-.753h21v7.078zm4.967-6.147v5.15l13.727-1.059 9.546-4.091h-23.273zm-.932 6.155v-7.086h25.777v1.27l-.283.124-10.686 4.553-14.808 1.139zm-70.426-.284l3.003 1.5c3.974-3.298 8.465-5.834 13.357-7.541 1.011-.357 1.946-.859 2.798-1.5-7.002.648-13.593 3.243-19.158 7.541zm3.134 2.606l-4.858-2.428.567-.455c6.06-4.869 13.36-7.726 21.12-8.264l1.808-.132-.906.888c-1.205 1.18-2.617 2.064-4.196 2.624-4.884 1.704-9.357 4.251-13.302 7.57l-.233.197zm89.58-1.241l19.95 1.535v-6.285h-8.865l-11.086 4.75zm20.882 2.54l-.502-.036-24.238-1.864 14.848-6.321h9.892v8.221zm-92.997 6.394l2.344 1.154 6.136-4.134c-2.933.633-5.779 1.634-8.48 2.98zm2.417 2.231l-4.473-2.205.804-.426c3.491-1.853 7.225-3.13 11.097-3.792l1.23-.211-1.514 1.819-7.144 4.815zm-36.794 10.482h2.868c1.765-6.347 5.007-12.269 9.411-17.185l-3.134-1.558c-4.81 5.259-7.962 11.722-9.145 18.743zm3.581.931H16.57l.08-.535c1.157-7.53 4.512-14.455 9.706-20.027l.237-.255 4.87 2.417-.423.458c-4.597 4.979-7.952 11.064-9.706 17.597l-.095.345zm15.682-.931h.31l11.525-7.763-2.613-1.307c-3.497 2.58-6.594 5.627-9.222 9.07zm.593.931h-2.438l.542-.742c2.853-3.902 6.286-7.326 10.205-10.176l.23-.167 4.545 2.274-13.084 8.811zm10.274-.931h4.156l18.474-9.248 6.358-10.594c-1.569-4.957-5.124-9.121-9.779-11.446l-.776-.386c-.46-.236-.85-.582-1.135-1.004L61 105.279H47.672c-21.89.03-40.099 17.04-41.667 38.822h5.714c2.827-19.831 19.303-35.153 39.323-36.503l5.648-.401c1.023-.062 2.031.394 2.617 1.242.593.837.706 1.943.291 2.882-1.84 4.312-5.434 7.705-9.848 9.302-10.907 3.781-19.478 12.527-23.04 23.478h3.03c9.06-14.008 23.176-22.361 37.806-22.361 1.623.004 2.941 1.329 2.941 2.952 0 .677-.233 1.336-.659 1.856l-4.52 5.59c-.182.225-.4.426-.648.593l-16.872 11.37zm4.375.931H44.74l19.401-13.076c.171-.113.316-.247.44-.4l4.528-5.598c.287-.353.447-.804.447-1.266 0-1.11-.902-2.017-2.009-2.02-14.386 0-28.278 8.28-37.158 22.146l-.138.214h-4.807l.185-.604c3.53-11.511 12.432-20.74 23.81-24.682 4.166-1.51 7.561-4.717 9.304-8.793.285-.648.208-1.404-.196-1.98-.375-.534-.986-.851-1.63-.851-.05 0-.102 0-.157.007l-5.652.4c-19.718 1.329-35.917 16.509-38.519 36.099l-.055.404H5.011l.03-.495c1.357-22.506 20.081-40.16 42.631-40.189h13.83l4.36 6.558c.192.288.461.528.778.688l.771.382c4.947 2.475 8.706 6.922 10.314 12.21l.062.196-.105.179-6.602 11.005-.124.059-18.793 9.407zm12.985-.931h4.586l15.791-3.33-3.414-.717-8.89.011-8.073 4.036zm4.68.931h-8.625l11.908-5.899h9.095l7.846 1.638-20.224 4.261zm7.897-10.871h4.728c.204 0 .408.022.608.066l46.94 9.884 7.112-.01c.844 0 1.681-.164 2.478-.485 2.69-1.022 4.5-3.635 4.51-6.503v-7.206l-61.255-4.713c-.05.353-.167.695-.346 1.004l-4.775 7.963zm59.388 10.871h-7.206l-47.039-9.895c-.138-.029-.276-.044-.415-.044h-6.372l5.615-9.364c.171-.302.258-.659.248-1.023l-.018-.52 63.106 4.855v8.072c-.01 3.254-2.06 6.212-5.099 7.373-.906.361-1.856.546-2.82.546zm-89.44-44.72C21.926 100.341.96 121.307.93 147.052c0 1.11.907 2.017 2.02 2.017h49.71c.313 0 .612-.07.885-.201l2.951-1.474.215.124c1.787 1.015 3.814 1.551 5.866 1.551l9.914-.47 27.634-5.619.091.022 30.024 6.045 6.875.022h.026c1.467 0 2.904-.277 4.265-.823 1.038-.404 2.002-.947 2.875-1.616l.75-.571v3.01h4.036v-51.21c0-.524-.025-1.038-.073-1.551-.753-7.759-6.66-14.008-14.364-15.19l-16.18-2.981-4.165-6.223V62.28l.186-.138c5.423-4.065 8.924-10.259 9.601-17.003l.04-.419h.575c5.222 0 9.473-4.247 9.473-9.469 0-5.223-4.25-9.474-9.473-9.474h-.473l.007-.473c.007-.506-.018-1.033-.069-1.561-.004-.262-.015-.48-.037-.695-.003-.102-.014-.146-.022-.193l-.014-.123c-.036-.485-.098-.903-.182-1.322-.087-.64-.203-1.244-.36-1.823-.375-1.58-.92-3.108-1.616-4.564l-.047-.182c-.328-7.679-6.839-13.909-14.52-13.909H77.485c-1.114 0-2.02.906-2.02 2.019v2.486c.01 2.842 1.044 5.587 2.911 7.727l.218.247-.16.284c-.415.742-.793 1.521-1.124 2.311-.2.488-.375.975-.568 1.521-.084.208-.146.408-.196.612-.477 1.532-.794 3.09-.947 4.654-.032.237-.047.452-.05.67-.059.662-.084 1.252-.084 1.838v.466H75c-5.223 0-9.473 4.251-9.473 9.473 0 5.223 4.25 9.473 9.473 9.473h.575l.04.419c.673 6.747 4.174 12.949 9.604 17.01l.186.138v9.634l-4.21 6.318-.168.047-17.018 4.626c-7.727 1.71-13.346 8.68-13.39 16.573v.834h-2.947zM52.664 150H2.951c-1.627 0-2.95-1.321-2.95-2.948.028-26.258 21.413-47.643 47.671-47.672h2.016c.091-8.287 6.005-15.587 14.095-17.381l16.83-4.575 3.86-5.794v-8.884c-5.419-4.134-8.949-10.336-9.739-17.105-5.616-.142-10.139-4.753-10.139-10.401 0-5.583 4.418-10.154 9.942-10.394.012-.466.04-.939.08-1.43.004-.222.026-.481.06-.732.155-1.609.486-3.232.974-4.797.051-.214.128-.458.218-.687.193-.546.375-1.048.583-1.551.302-.727.644-1.437 1.012-2.121-1.882-2.271-2.919-5.132-2.93-8.091V2.951C74.534 1.325 75.86 0 77.486 0h29.868c8.144 0 15.05 6.576 15.448 14.707.707 1.488 1.26 3.053 1.642 4.651.16.608.288 1.252.371 1.903.084.415.153.87.193 1.325l.004.146c.018.061.033.163.033.265.025.2.036.448.036.699.04.371.062.768.073 1.161 5.521.244 9.94 4.811 9.94 10.394 0 5.648-4.525 10.256-10.14 10.398-.794 6.761-4.32 12.96-9.735 17.097v8.884l3.784 5.663 15.78 2.904c8.116 1.248 14.347 7.835 15.137 16.024.054.546.08 1.081.08 1.638V150h-5.9v-2.1c-.735.484-1.525.888-2.347 1.212-1.474.59-3.024.888-4.61.888h-.03l-6.966-.033-30.02-6.034-27.522 5.587L62.6 150h-.003c-2.15 0-4.254-.535-6.125-1.55l-2.515 1.255c-.408.197-.84.295-1.292.295z" mask="url(#d0octgu64b)"/>
    </g>
</svg>
