<svg xmlns="http://www.w3.org/2000/svg" width="20" height="20" viewBox="0 0 20 20">
    <g fill="none" fill-rule="evenodd">
        <circle cx="10" cy="10" r="9" fill="#FFF" stroke="#333" stroke-width="2"/>
        <path fill="#0073d2" d="M10.002 9.152l2.548-2.55c.231-.231.611-.231.848 0 .231.237.231.617 0 .848L10.848 10l2.55 2.551c.231.232.231.612 0 .843-.121.121-.27.176-.424.176-.154 0-.309-.055-.424-.176l-2.548-2.548-2.548 2.548c-.12.121-.275.176-.424.176-.154 0-.308-.055-.424-.176-.237-.231-.237-.611 0-.843L9.156 10l-2.55-2.55c-.237-.23-.237-.611 0-.848.232-.231.612-.231.848 0l2.548 2.55z"/>
    </g>
</svg>
