<?xml version="1.0" encoding="UTF-8"?>
<!DOCTYPE svg PUBLIC "-//W3C//DTD SVG 1.1//EN" "http://www.w3.org/Graphics/SVG/1.1/DTD/svg11.dtd">
<svg version="1.1" xmlns="http://www.w3.org/2000/svg" xmlns:xlink="http://www.w3.org/1999/xlink" x="0" y="0" width="140" height="161" viewBox="0, 0, 140, 161">
  <g id="Livello_1">
    <path d="M59.531,55.24 C62.39,55.501 65.757,53.6 68.595,47.791 C74.445,35.814 58.739,28.443 55.124,43.406 C53.838,48.731 56.671,54.982 59.531,55.241 M84.708,59.236 C95.006,47.733 79.926,39.166 73.375,50.781 C70.197,56.413 70.553,60.241 72.403,62.419 C74.253,64.597 81.041,63.329 84.708,59.235 M82.298,68.139 C78.263,71.944 77.578,75.159 78.533,77.407 C79.489,79.652 85.36,80.32 89.401,77.896 C100.752,71.086 90.616,60.296 82.298,68.139 M68.98,70.284 C67.48,64.722 58.663,60.142 53.517,62.621 C51.337,63.671 49.492,65.403 46.175,65.469 C36.492,65.659 29.315,75.604 35.119,81.246 C39.164,85.999 44.197,84.379 51.147,87.853 C57.827,91.194 57.059,95.397 65.187,96.36 C70.807,97.275 73.56,91.73 73.597,87.314 C73.621,84.102 72.487,80.625 70.361,77.195 C69.514,75.261 69.641,72.73 68.981,70.285 M42.566,58.519 C44.963,57.982 47.198,55.554 47.963,50.083 C49.54,38.805 34.796,36.916 35.833,50.04 C36.203,54.71 40.171,59.056 42.567,58.519" fill="#0073d2"/>
    <path d="M108.982,137.319 L131.095,159.458 C133.102,161.466 136.402,161.466 138.457,159.458 C140.465,157.401 140.465,154.101 138.457,152.094 L116.33,129.962 L138.457,107.812 C140.465,105.802 140.465,102.502 138.457,100.494 C137.406,99.443 136.114,98.964 134.777,98.964 C133.437,98.964 132.099,99.443 131.095,100.494 L108.982,122.611 L86.868,100.494 C85.818,99.443 84.478,98.964 83.188,98.964 C81.848,98.964 80.509,99.443 79.506,100.494 C77.449,102.502 77.449,105.802 79.506,107.812 L101.632,129.962 L79.506,152.094 C77.449,154.101 77.449,157.401 79.506,159.458 C81.513,161.466 84.812,161.466 86.868,159.458 L108.982,137.319 z" fill="#000000"/>
    <path d="M59.182,140.411 C59.626,139.201 59.005,137.871 57.802,137.408 C3.844,116.63 4.631,72.61 5.418,33.719 C5.418,31.325 5.578,29.092 5.578,26.859 C27.436,25.74 44.986,19.198 59.985,6.116 C74.983,19.199 92.533,25.9 114.392,26.698 C114.392,28.932 114.392,31.166 114.552,33.559 C114.937,52.71 115.319,73.056 109.247,91.27 C108.784,92.658 109.543,94.156 110.931,94.62 C112.333,95.09 113.845,94.324 114.313,92.921 C120.567,74.226 120.188,53.981 119.909,36.741 C119.764,32.951 119.764,29.305 119.764,25.806 C119.764,23.036 117.577,20.848 114.806,20.848 C93.373,20.703 77.044,14.579 63.484,1.458 C61.589,-0.439 58.381,-0.439 56.486,1.458 C42.936,14.567 26.623,20.691 5.362,20.702 C2.604,20.703 0.352,22.897 0.352,25.655 C0.352,29.156 0.352,32.802 0.206,36.74 C-0.514,72.308 -1.518,120.677 56.189,141.811 C57.397,142.254 58.739,141.618 59.182,140.411" fill="#000000" opacity="0.201"/>
  </g>
</svg>
