<svg xmlns="http://www.w3.org/2000/svg" xmlns:xlink="http://www.w3.org/1999/xlink" width="200" height="156" viewBox="0 0 200 156">
    <defs>
        <path id="irq05sw2wa" d="M0.272 0.763L100.999 0.763 100.999 93.597 0.272 93.597z"/>
        <path id="je14ux4vec" d="M0 0.075L119.803 0.075 119.803 113 0 113z"/>
        <path id="tecj074l0e" d="M0 0.076L119.803 0.076 119.803 113 0 113z"/>
        <path id="0wc6itmzmg" d="M0 155.237L200 155.237 200 1 0 1z"/>
    </defs>
    <g fill="none" fill-rule="evenodd">
        <g>
            <g transform="translate(-620 -281) translate(620 281)">
                <g transform="translate(99 .237)">
                    <mask id="odfk5oezcb" fill="#fff">
                        <use xlink:href="#irq05sw2wa"/>
                    </mask>
                    <path fill="#000" d="M3.54 13.882V4.03h81.073v9.85H3.54zm10.55 3.268c0-.2.008.197.025 0H27.19c.017.196.025-.2.025 0H14.09zm16.392 0c0-.2-.007.198-.019 0h27.228c-.012.198-.02-.198-.02 0H30.482zm35.39 9.807h-43.59 43.59zM11.272 74.045H76.88v-43.82H11.273v43.82zM60.94 17.15c0-.198.01.198.027 0h13.08c.016.196.025-.2.025 0H60.94zm26.941-1.634V4.03h9.85v86.298h-9.85V15.516zm-68.867 11.44H9.64c-.903 0-1.634.732-1.634 1.634v47.088c0 .903.731 1.635 1.634 1.635h68.876c.902 0 1.633-.732 1.633-1.635V28.59c0-.902-.73-1.633-1.633-1.633H19.014zM77.34 17.15c0-.2-.007.197-.019 0h7.292v74.813c0 .903.731 1.634 1.634 1.634h13.12c.901 0 1.632-.731 1.632-1.634V2.397c0-.902-.73-1.634-1.633-1.634H1.907c-.904 0-1.635.732-1.635 1.634v13.119c0 .903.731 1.634 1.634 1.634h8.935c-.01.198-.02-.2-.02 0h66.52z" mask="url(#odfk5oezcb)"/>
                </g>
                <path fill="#000" d="M137.707 47.003h-7.305c-.902 0-1.633.73-1.633 1.634v7.468c0 .902.731 1.634 1.633 1.634h7.305v7.31c0 .904.731 1.636 1.634 1.636h7.47c.903 0 1.635-.732 1.635-1.635v-7.311h7.313c.902 0 1.634-.732 1.634-1.634v-7.468c0-.903-.732-1.634-1.634-1.634h-7.313v-7.31c0-.902-.732-1.634-1.635-1.634h-7.47c-.903 0-1.634.732-1.634 1.634v7.31z"/>
                <path fill="#000" d="M125.383 52.373c0-9.757 7.937-17.695 17.693-17.695 9.757 0 17.695 7.938 17.695 17.695 0 9.756-7.938 17.693-17.695 17.693-9.756 0-17.693-7.937-17.693-17.693m-3.268 0c0 11.558 9.403 20.96 20.961 20.96 11.56 0 20.963-9.402 20.963-20.96 0-11.56-9.404-20.963-20.963-20.963-11.558 0-20.96 9.403-20.96 20.963"/>
                <g transform="translate(0 42.237)">
                    <mask id="nnhk5j3mwd" fill="#fff">
                        <use xlink:href="#je14ux4vec"/>
                    </mask>
                    <path fill="#FFF" d="M106.026 4.68C101.276.85 95.184-.696 89.32.45 83.393 1.602 78.18 5.305 74.446 10.966c-3.751-1.85-8.208-2.252-14.212-2.252-6.626 0-10.958.407-14.623 2.458C41.81 5.164 36.428 1.35 30.24.34 23.807-.715 17.272 1.416 12.3 6.168 2.725 15.32-3.745 32.073 2.419 46.39l.148.347c2.59 6.023 4.017 9.34 7.082 9.964 2.483.514 4.689-1.218 6.522-2.968 6.555-6.268 7.397-13.67 8.135-20.202.649-5.705 1.207-10.63 5.153-14.4.738-.704 1.378-1 1.895-.903.875.18 2.293 1.5 3.843 4.77-5.8 10.923-13.791 38.954-15.1 50.953-.188 1.732-.285 3.426-.285 5.037 0 19.556 7.992 31.234 21.378 31.234 2.462 0 4.82-.56 7.038-1.495 1.948 2.561 6.315 4.273 11.67 4.273 5.358 0 9.725-1.712 11.673-4.273 2.218.935 4.576 1.495 7.037 1.495 13.385 0 21.377-12.048 21.377-32.227 0-1.27-.055-2.587-.166-3.91-.964-11.796-8.042-39.98-14.595-51.829.878-1.128 1.92-1.842 3.007-2.046 1.079-.199 2.154.116 3.19.951 4.003 3.227 4.45 7.781 4.97 13.055.615 6.23 1.31 13.292 8.28 18.913 1.7 1.372 3.967 2.866 6.376 2.18 3.05-.853 4.334-4.409 6.46-10.298l.45-1.248c5.433-14.97-1.89-30.992-11.93-39.083" mask="url(#nnhk5j3mwd)"/>
                </g>
                <path fill="#000" d="M51.444 83.646c-2.532 0-4.594 2.06-4.594 4.593s2.062 4.594 4.594 4.594c2.532 0 4.594-2.061 4.594-4.594 0-2.532-2.062-4.593-4.594-4.593M68.353 83.646c-2.532 0-4.594 2.06-4.594 4.593s2.062 4.594 4.594 4.594c2.535 0 4.596-2.061 4.596-4.594 0-2.532-2.061-4.593-4.596-4.593"/>
                <g transform="translate(0 42.237)">
                    <mask id="kwk17vlb7f" fill="#fff">
                        <use xlink:href="#tecj074l0e"/>
                    </mask>
                    <path fill="#000" d="M113.717 42.225l-.454 1.253c-1.15 3.19-2.583 7.157-3.429 7.487-.005-.002-.612.04-2.333-1.347-5.497-4.434-6.044-9.977-6.62-15.845-.568-5.756-1.154-11.709-6.63-16.124-2.049-1.65-4.476-2.317-6.85-1.873-2.71.508-5.12 2.381-6.788 5.275-.413.717-.399 1.604.034 2.308 5.845 9.505 13.615 38.121 14.676 51.097.1 1.224.148 2.404.148 3.54 0 8.332-1.642 27.713-16.865 27.713-2.558 0-5.004-.732-7.196-2.039-.044-.022-.077-.058-.123-.077-4.464-2.719-7.84-7.843-8.928-14.06.351-1.592 1.215-3.558 3.31-4.859.713-.444 1.558-.928 2.478-1.454 5.372-3.079 12.73-7.295 12.84-13.417.068-3.876-1.053-7.025-3.33-9.355-3.323-3.396-8.734-4.93-17.57-4.973l-.393.001c-8.817.042-14.229 1.576-17.549 4.972-2.28 2.33-3.4 5.477-3.33 9.357.108 6.121 7.465 10.336 12.838 13.415.917.526 1.765 1.01 2.478 1.454 2.098 1.303 2.961 3.26 3.312 4.846-1.086 6.224-4.465 11.352-8.934 14.073-.044.02-.077.054-.12.076-2.193 1.308-4.64 2.04-7.2 2.04-15.223 0-16.866-18.688-16.866-26.72 0-1.45.086-2.979.258-4.549 1.281-11.743 9.597-40.719 15.088-50.209.357-.616.317-1.559.034-2.214-2.09-4.866-4.598-7.628-7.452-8.209-1.402-.29-3.584-.164-5.912 2.061-5.124 4.9-5.83 11.13-6.515 17.153-.717 6.332-1.397 12.312-6.773 17.45-1.858 1.775-2.502 1.806-2.48 1.816-.86-.355-2.455-4.063-3.86-7.334l-.15-.347C1.21 32.18 6.966 17.503 15.417 9.43c3.941-3.767 9.074-5.458 14.097-4.639 5.47.893 10.214 4.676 13.355 10.651.315.598.883 1.024 1.548 1.16.653.13 1.35-.034 1.874-.463.143-.117.292-.229.443-.338 2.724-1.974 5.877-2.576 13.498-2.576 7.284 0 10.87.697 13.703 2.663.521.361 1.17.491 1.795.344.621-.144 1.152-.544 1.462-1.099 3.114-5.59 7.726-9.232 12.99-10.255 4.561-.884 9.301.322 13.012 3.314 8.793 7.086 15.231 21.052 10.522 34.033m-53.82 41.8c-.81-1.16-1.909-2.266-3.384-3.183-.753-.468-1.648-.98-2.618-1.537-3.929-2.252-10.508-6.02-10.573-9.58-.046-2.665.623-4.667 2.048-6.123 2.374-2.43 6.933-3.58 14.328-3.616l.385.001c7.413.035 11.97 1.185 14.346 3.615 1.425 1.456 2.095 3.458 2.048 6.122-.065 3.56-6.644 7.33-10.575 9.582-.968.555-1.863 1.068-2.616 1.536-1.478.92-2.573 2.022-3.389 3.182m0 24.463c-3.962 0-6.529-1.113-7.635-1.996 3.204-2.338 5.86-5.656 7.638-9.624 1.777 3.968 4.433 7.285 7.635 9.624-1.105.882-3.673 1.996-7.638 1.996M106.027 4.68C101.276.85 95.183-.696 89.32.45c-5.929 1.152-11.14 4.856-14.875 10.516-3.75-1.85-8.208-2.252-14.213-2.252-6.625 0-10.957.407-14.622 2.458C41.812 5.164 36.428 1.35 30.241.34 23.806-.714 17.271 1.416 12.3 6.168 2.722 15.32-3.748 32.073 2.417 46.391l.148.346c2.59 6.023 4.017 9.341 7.082 9.965 2.483.513 4.69-1.219 6.521-2.969 6.556-6.268 7.397-13.67 8.136-20.202.65-5.704 1.207-10.63 5.152-14.4.74-.704 1.38-1 1.895-.903.876.18 2.294 1.5 3.844 4.77-5.799 10.923-13.792 38.955-15.1 50.953-.188 1.732-.285 3.426-.285 5.037 0 19.556 7.992 31.235 21.377 31.235 2.462 0 4.821-.56 7.04-1.496 1.947 2.561 6.314 4.273 11.67 4.273 5.357 0 9.724-1.712 11.672-4.273 2.217.936 4.575 1.496 7.036 1.496 13.385 0 21.378-12.049 21.378-32.228 0-1.27-.056-2.587-.167-3.91-.964-11.796-8.04-39.98-14.595-51.829.878-1.128 1.921-1.842 3.007-2.046 1.08-.199 2.155.116 3.191.952 4.003 3.227 4.45 7.78 4.971 13.054.614 6.23 1.31 13.292 8.28 18.913 1.7 1.372 3.965 2.866 6.375 2.18 3.051-.853 4.334-4.409 6.461-10.298l.45-1.247c5.431-14.97-1.89-30.993-11.93-39.084" mask="url(#kwk17vlb7f)"/>
                </g>
                <mask id="0k2dfzwpqh" fill="#fff">
                    <use xlink:href="#0wc6itmzmg"/>
                </mask>
                <path fill="#000" d="M114.586 29.011L117.734 29.011 117.734 17.329 114.586 17.329zM168.42 29.011L171.568 29.011 171.568 17.329 168.42 17.329z" mask="url(#0k2dfzwpqh)"/>
            </g>
        </g>
    </g>
</svg>
