<svg xmlns="http://www.w3.org/2000/svg" xmlns:xlink="http://www.w3.org/1999/xlink" width="200" height="143" viewBox="0 0 200 143">
    <defs>
        <path id="aiehq7j6ra" d="M0 142.974L200 142.974 200 0 0 0z"/>
    </defs>
    <g fill="none" fill-rule="evenodd">
        <g>
            <g transform="translate(-620 -281) translate(620 281)">
                <path fill="#000" d="M95.784 14.028V3.494h86.693v10.534H95.784zm11.281 3.495c0-.214.009.21.027 0h13.98c.019.21.027-.214.027 0h-14.034zm17.529 0c0-.213-.009.211-.021 0h29.116c-.013.212-.021-.212-.021 0h-29.074zm37.842 10.486h-46.61 46.61zm-58.383 50.352h70.156V31.504h-70.156v46.857zm53.11-60.838c0-.212.01.212.029 0h13.986c.018.21.027-.215.027 0h-14.042zm28.809-1.747V3.494h10.533v92.281h-10.533V15.776zM112.33 28.01h-10.025c-.964 0-1.747.782-1.747 1.748v22.626c3.495 5.926 1.924 29.473 2.889 29.473h72.509c.965 0 1.747-.783 1.747-1.747V29.757c0-.966-.782-1.748-1.747-1.748H112.33zm62.37-10.486c0-.214-.007.211-.02 0h7.797v80c0 .964.782 1.747 1.747 1.747h14.029c.965 0 1.747-.783 1.747-1.748V1.747C200 .782 199.218 0 198.253 0H94.036c-.964 0-1.747.782-1.747 1.747v14.03c0 .963.783 1.746 1.747 1.746h9.555c-.012.211-.021-.213-.021 0h71.13z"/>
                <path fill="#000" d="M133.388 49.192h-7.81c-.965 0-1.748.782-1.748 1.747v7.986c0 .965.783 1.747 1.747 1.747h7.811v7.818c0 .966.783 1.748 1.748 1.748h7.988c.965 0 1.747-.782 1.747-1.748v-7.818h7.821c.965 0 1.747-.782 1.747-1.747v-7.986c0-.965-.782-1.747-1.747-1.747h-7.82v-7.816c0-.966-.783-1.748-1.748-1.748h-7.988c-.965 0-1.748.782-1.748 1.748v7.816z"/>
                <path fill="#000" d="M120.21 54.934c0-10.434 8.487-18.922 18.92-18.922 10.433 0 18.921 8.488 18.921 18.922 0 10.433-8.487 18.92-18.92 18.92-10.434 0-18.92-8.487-18.92-18.92m-3.496 0c0 12.359 10.056 22.415 22.415 22.415 12.36 0 22.416-10.056 22.416-22.415 0-12.361-10.056-22.417-22.416-22.417-12.359 0-22.415 10.056-22.415 22.417"/>
                <mask id="qoicg926ob" fill="#fff">
                    <use xlink:href="#aiehq7j6ra"/>
                </mask>
                <path fill="#000" d="M108.665 29.953L112.031 29.953 112.031 17.461 108.665 17.461zM166.23 29.953L169.596 29.953 169.596 17.461 166.23 17.461zM55.471 91.569c0-2.3-1.863-4.163-4.162-4.163-2.298 0-4.162 1.864-4.162 4.163 0 2.299 1.864 4.163 4.162 4.163 2.299 0 4.163-1.864 4.163-4.163M75.926 87.142c-2.445 0-4.426 1.983-4.426 4.427 0 2.444 1.981 4.425 4.426 4.425 2.444 0 4.426-1.98 4.426-4.425s-1.982-4.427-4.426-4.427" mask="url(#qoicg926ob)"/>
                <path fill="#000" d="M106.539 101.997l-.063.525-16.391 2.688c-1.505.247-2.53 1.674-2.282 3.18.244 1.493 1.612 2.533 3.186 2.283l14.247-2.337-.376 1.11c-.387 1.143-.855 2.241-1.22 3.07l-.178.405-13.021.441c-.738.024-1.423.335-1.927.875-.505.54-.77 1.245-.745 1.984.05 1.5 1.264 2.673 2.762 2.673l9.822-.33-.848 1.165c-8.066 11.09-21.483 17.71-35.89 17.71-14.406 0-27.823-6.62-35.89-17.71l-.847-1.166 9.728.33h.003c1.594 0 2.805-1.174 2.857-2.672.025-.739-.24-1.444-.745-1.984-.504-.54-1.188-.85-1.927-.875l-13.025-.44-.178-.406c-.365-.83-.833-1.929-1.22-3.07l-.378-1.11 14.258 2.338c1.52.238 2.937-.792 3.18-2.284.12-.729-.051-1.462-.483-2.063-.431-.6-1.07-.997-1.798-1.117l-16.395-2.688-.063-.525c-.192-1.59-.285-3.047-.285-4.449 0-4.383.764-8.688 2.27-12.794.115-.309.172-.635.172-.972-.01-2.058 0-4.164.032-6.313.072-5.244.262-19.176 4.179-25.075l.396-.597 17.163 11.884c.747.518 1.704.634 2.559.31 5.148-1.958 10.833-2.994 16.438-2.994 5.429 0 10.51.871 15.537 2.662.828.3 1.757.18 2.489-.32l16.915-11.553.394.597c2.6 3.943 4.01 12.385 4.19 25.092l.033 3.402c.003.398.087.78.252 1.136 2.255 4.92 3.398 10.145 3.398 15.535 0 1.402-.093 2.858-.285 4.45m17.475-2.352l-11.891 1.95.1-1.349c.069-.884.139-1.797.139-2.699 0-5.936-1.211-11.71-3.6-17.16l-.057-.132-.026-2.868c-.256-18.028-2.722-27.414-8.241-31.38-.941-.68-2.216-.696-3.175-.039L79.668 57.986l-.328-.105c-5.09-1.627-10.234-2.418-15.724-2.418-5.627 0-11.398.947-16.691 2.738l-.334.114-17.817-12.337c-.961-.665-2.241-.653-3.187.028C18.637 51 17.52 64.672 17.344 77.39c-.03 1.97-.04 3.91-.033 5.81v.121l-.04.114c-1.593 4.541-2.401 9.29-2.401 14.113 0 .901.069 1.814.137 2.697l.1 1.351-11.888-1.95c-1.54-.244-2.934.76-3.181 2.283-.121.73.052 1.462.483 2.063.432.601 1.07.997 1.798 1.116l13.74 2.254.113.45c.356 1.43.739 2.715 1.169 3.93l.345.973-11.266-.383h-.002c-1.593 0-2.805 1.175-2.857 2.673-.051 1.525 1.147 2.808 2.67 2.86l14.078.476.195.343c3.097 5.464 7.276 10.211 12.42 14.108l6.016 3.862c7.515 4.135 16.046 6.32 24.676 6.32 5.808 0 11.585-.998 17.169-2.967l6.508-2.78c8.256-4.288 14.993-10.708 19.434-18.543l.195-.343 14.08-.476c1.524-.052 2.723-1.335 2.672-2.86-.052-1.5-1.264-2.674-2.762-2.674l-11.367.384.345-.974c.432-1.218.814-2.503 1.169-3.929l.11-.449 13.746-2.255c1.506-.246 2.53-1.673 2.283-3.178-.25-1.525-1.653-2.528-3.184-2.284" mask="url(#qoicg926ob)"/>
                <path fill="#000" d="M67.671 116.865l3.722-5.666c.627-1.073.631-2.399.01-3.478-.617-1.076-1.765-1.74-3.009-1.74H58.84c-1.265 0-2.43.687-3.04 1.794-.61 1.11-.57 2.462.106 3.531l3.73 5.542c-6.027 1.305-11.26 4.92-11.26 9.298 0 1.291 1.045 2.336 2.336 2.336 1.29 0 2.336-1.045 2.336-2.336 0-2.432 4.52-5.153 10.57-5.153 6.05 0 10.568 2.721 10.568 5.153 0 1.291 1.047 2.336 2.337 2.336 1.29 0 2.336-1.045 2.336-2.336 0-4.36-5.2-7.964-11.188-9.28" mask="url(#qoicg926ob)"/>
            </g>
        </g>
    </g>
</svg>
