<?xml version="1.0" encoding="UTF-8"?>
<!DOCTYPE svg PUBLIC "-//W3C//DTD SVG 1.1//EN" "http://www.w3.org/Graphics/SVG/1.1/DTD/svg11.dtd">
<svg version="1.1" xmlns="http://www.w3.org/2000/svg" xmlns:xlink="http://www.w3.org/1999/xlink" x="0" y="0" width="380" height="232" viewBox="0, 0, 380, 232">
  <defs>
    <clipPath id="Clip_1">
      <path d="M345.972,0.009 C348.326,0.615 347.389,0.166 348.9,1.088 C351.246,2.814 351.696,6.168 349.898,8.435 L277.745,101.929 C276.748,103.26 275.149,104 273.502,104 L273.302,104 C271.554,103.95 269.956,103.063 269.008,101.633 L231.858,45.173 C230.261,42.756 230.959,39.502 233.406,37.874 C235.902,36.296 239.198,36.985 240.797,39.452 L273.851,89.601 L341.41,2.074 C342.802,0.359 343.931,0.278 345.972,0.009 z"/>
    </clipPath>
    <clipPath id="Clip_2">
      <path d="M236.908,210.91 C245.464,210.91 252.594,203.78 252.594,195.225 L252.594,132.246 C252.594,123.691 245.464,116.561 236.908,116.561 L202.211,116.561 L202.211,82.101 C201.848,69.393 192.93,60.631 180.359,60 L136.369,60 C123.606,60.392 114.912,69.538 114.279,82.101 L114.279,116.561 L79.819,116.561 C71.026,116.561 64.134,123.691 64.134,132.246 L64.134,195.225 C64.134,203.78 71.026,210.91 79.819,210.91 L236.908,210.91 z M194.122,154.004 C186.177,154.255 180.741,149.863 180.347,141.752 L180.347,135.335 L183.436,135.335 L183.436,138.662 C183.436,140.327 184.862,141.752 186.526,141.752 C188.428,141.752 189.853,140.327 189.853,138.662 L189.853,85.191 C189.853,78.299 184.149,72.595 177.258,72.595 L139.471,72.595 C132.579,72.595 126.875,78.299 126.875,85.191 L126.875,138.662 C126.875,140.327 128.301,141.752 129.964,141.752 C131.865,141.752 133.291,140.327 133.291,138.662 L133.291,135.335 L136.381,135.335 L136.381,141.752 C136.236,149.069 131.8,152.872 124.965,154.004 C117.02,154.255 111.583,149.863 111.19,141.752 L111.19,135.335 L114.279,135.335 L114.279,138.662 C114.279,140.327 115.705,141.752 117.369,141.752 C119.269,141.752 120.696,140.327 120.696,138.662 L120.696,82.101 C120.696,73.308 127.588,66.178 136.381,66.178 L180.347,66.178 C188.902,66.178 196.032,73.308 196.032,82.101 L196.032,138.662 C196.032,140.327 197.458,141.752 199.122,141.752 C201.023,141.752 202.211,140.327 202.211,138.662 L202.211,135.335 L205.538,135.335 L205.538,141.752 C205.393,149.069 200.957,152.872 194.122,154.004 z M183.436,116.561 L133.291,116.561 L133.291,85.191 C133.291,81.626 135.906,78.774 139.471,78.774 L177.258,78.774 C180.585,78.774 183.436,81.626 183.436,85.191 L183.436,116.561 z M236.908,204.493 L236.908,122.74 C242.137,122.74 246.415,127.018 246.415,132.246 L246.415,195.225 C246.415,200.215 242.137,204.493 236.908,204.493 z M79.819,204.493 C74.591,204.493 70.313,200.215 70.313,195.225 L70.313,132.246 C70.313,127.018 74.591,122.74 79.819,122.74 L79.819,204.493 z M218.134,204.493 L98.594,204.493 L98.594,122.74 L114.279,122.74 L114.279,129.157 L111.19,129.157 C107.625,129.157 105.011,132.008 105.011,135.335 L105.011,141.752 C105.011,166.468 142.56,166.468 142.56,141.752 L142.56,135.335 C142.56,132.008 139.708,129.157 136.381,129.157 L133.291,129.157 L133.291,122.74 L183.436,122.74 L183.436,129.157 L180.347,129.157 C176.782,129.157 173.931,132.008 173.931,135.335 L173.931,141.752 C173.931,166.468 211.718,166.468 211.718,141.752 L211.718,135.335 C211.718,132.008 208.865,129.157 205.538,129.157 L202.211,129.157 L202.211,122.74 L218.134,122.74 L218.134,204.493 z"/>
    </clipPath>
    <clipPath id="Clip_3">
      <path d="M252.594,60 L252.594,210.91 L64.134,210.91 L64.134,60 L252.594,60 z"/>
    </clipPath>
    <clipPath id="Clip_4">
      <path d="M202.054,195.01 C205.605,195.01 208.446,192.168 208.446,188.616 L208.446,176.065 C208.446,172.751 205.605,169.909 202.054,169.909 L114.438,169.909 C111.122,169.909 108.281,172.751 108.281,176.065 L108.281,188.616 C108.281,192.168 111.122,195.01 114.438,195.01 L202.054,195.01 z"/>
    </clipPath>
    <clipPath id="Clip_5">
      <path d="M29.599,230.94 C45.6,230.94 58.447,217.868 58.447,202.091 C58.447,186.315 45.6,173.018 29.599,173.018 C13.597,173.018 0.75,186.09 0.75,201.866 C0.75,217.643 13.597,230.94 29.599,230.94 z M29.599,188.118 C23.964,188.118 18.781,186.09 14.498,182.709 C18.781,179.329 23.964,177.3 29.599,177.3 C35.233,177.525 40.642,179.553 44.699,182.709 C40.417,186.315 35.007,188.118 29.599,188.118 z M47.629,218.319 C42.445,214.037 36.134,211.783 29.599,211.783 C22.837,211.783 16.527,214.037 11.568,218.319 C7.737,214.037 5.258,208.176 5.258,202.091 C5.258,196.007 7.512,190.372 11.343,186.09 C16.527,190.372 23.063,192.851 29.824,192.851 C36.585,192.851 43.122,190.372 48.305,186.09 C52.136,190.372 54.39,196.007 54.39,202.091 C53.94,208.176 51.686,213.811 47.629,218.319 z M29.599,226.207 C23.964,226.432 19.006,224.404 14.724,221.249 C19.006,217.868 24.19,216.065 29.599,216.065 C35.007,216.065 40.191,217.868 44.473,221.249 C40.417,224.404 35.233,226.207 29.599,226.207 z"/>
    </clipPath>
    <clipPath id="Clip_6">
      <path d="M0,232 L380,232 L380,60 L0,60 z"/>
    </clipPath>
    <clipPath id="Clip_7">
      <path d="M262.328,230.94 C271.496,230.217 280.008,229.494 288.521,228.772 C291.795,216.48 289.83,215.756 293.759,228.772 C303.581,228.048 314.059,228.048 324.535,227.325 C327.155,214.311 326.5,214.311 329.774,227.325 C340.906,226.602 376.266,225.879 378.885,211.418 C380.195,204.188 378.885,198.403 376.266,192.619 C376.266,175.266 376.266,131.883 356.621,126.822 C344.18,125.376 349.418,151.405 329.774,142.729 C321.916,136.222 318.642,129.714 316.678,125.376 C310.13,109.469 301.617,118.868 290.486,125.376 L287.866,123.93 C285.247,122.483 282.627,126.822 285.902,128.268 L277.389,133.329 L274.77,131.16 C272.151,129.714 270.186,134.053 272.806,136.222 L264.948,140.56 L262.328,139.113 C259.709,137.668 257.09,142.006 259.709,143.452 L251.852,148.514 L249.233,147.067 C246.614,145.621 244.649,149.236 246.614,151.405 L235.482,157.913 L234.826,157.913 C231.552,161.528 225.004,163.697 216.491,165.866 C207.324,168.035 196.848,169.481 184.407,170.928 C175.239,172.374 171.965,191.896 170.656,200.572 C177.858,211.418 186.37,217.202 197.502,222.264 C199.467,216.48 198.812,217.926 200.121,223.71 C208.634,226.602 216.491,228.772 225.004,229.494 C226.969,222.264 226.314,223.71 227.623,230.217 L229.588,230.217 C238.755,230.94 247.268,230.94 256.435,230.94 C258.4,220.817 258.4,220.817 260.365,230.94 L262.328,230.94 z"/>
    </clipPath>
    <clipPath id="Clip_8">
      <path d="M262.328,230.94 C271.496,230.216 280.007,229.494 288.52,228.771 C291.794,216.479 289.83,215.755 293.758,228.771 C303.58,228.047 314.058,228.047 324.535,227.325 C327.154,214.31 326.499,214.31 329.773,227.325 C340.905,226.601 376.265,225.878 378.884,211.418 C380.194,204.187 378.884,198.403 376.265,192.619 C376.265,175.265 376.265,131.882 356.621,126.822 C344.179,125.376 349.417,151.405 329.773,142.728 C321.915,136.221 318.641,129.713 316.677,125.376 C310.129,109.468 301.617,118.868 290.485,125.376 L287.866,123.929 C285.246,122.483 282.626,126.822 285.901,128.267 L277.388,133.329 L274.769,131.16 C272.15,129.713 270.185,134.052 272.805,136.221 L264.947,140.559 L262.328,139.113 C259.708,137.668 257.089,142.005 259.708,143.452 L251.851,148.513 L249.232,147.067 C246.613,145.621 244.648,149.236 246.613,151.405 L235.481,157.913 L234.826,157.913 C231.551,161.528 225.003,163.697 216.491,165.866 C207.324,168.035 196.847,169.481 184.406,170.927 C175.238,172.374 171.964,191.895 170.655,200.572 C177.857,211.418 186.37,217.202 197.501,222.263 C199.466,216.479 198.811,217.925 200.121,223.71 C208.633,226.601 216.491,228.771 225.003,229.494 C226.968,222.263 226.313,223.71 227.622,230.216 L229.587,230.216 C238.754,230.94 247.267,230.94 256.434,230.94 C258.399,220.817 258.399,220.817 260.364,230.94 L262.328,230.94 z M232.862,191.172 C225.003,189.003 228.278,185.388 219.765,183.942 C209.288,181.773 198.157,189.726 185.715,175.989 C197.501,174.543 208.633,173.096 217.146,170.927 C226.313,168.758 233.516,165.866 237.445,162.251 L251.851,154.297 L257.744,157.189 C260.364,158.635 262.328,154.297 259.708,152.851 L256.434,151.405 L264.947,146.343 L270.185,149.959 C272.805,151.405 275.424,147.067 272.15,144.898 L269.531,143.452 L277.388,138.39 L283.282,142.005 C285.901,143.452 287.866,139.113 285.246,137.668 L282.626,135.498 L290.485,131.16 L295.723,134.052 C298.342,135.498 300.961,131.16 298.342,129.713 L295.723,128.267 C302.271,123.929 308.819,118.145 312.748,127.544 C313.403,128.267 314.058,129.713 314.712,131.16 C298.342,149.959 276.079,165.143 253.161,180.327 C243.993,177.434 239.41,190.45 232.862,191.172 z M310.784,186.111 C323.88,174.543 335.666,162.251 342.87,148.513 C349.417,144.898 352.037,131.882 355.311,131.882 C357.275,132.606 357.93,139.113 357.93,141.283 C358.584,152.128 353.346,162.251 344.833,172.374 C334.357,177.434 322.571,182.496 310.784,186.111 z M350.073,170.204 C357.93,158.635 361.859,147.067 359.894,134.052 C366.443,139.113 368.407,152.128 369.716,160.804 C363.824,163.697 357.275,166.588 350.073,170.204 z M268.875,189.003 C262.983,187.557 261.018,185.388 256.434,181.773 C279.353,166.588 300.307,150.682 316.022,134.052 C317.987,137.668 320.606,141.283 325.844,145.621 C312.748,163.697 290.485,175.989 268.875,189.003 z M278.402,190.653 L275.424,190.45 C296.377,177.434 316.677,163.697 328.463,147.067 C332.392,149.236 335.666,149.959 338.941,149.959 C329.773,165.143 316.022,177.434 300.961,188.28 C295.572,189.551 290.078,190.413 284.541,190.653 C282.496,190.742 280.448,190.653 278.402,190.653 z M264.292,225.878 C263.637,222.263 261.673,215.755 258.399,215.755 C255.124,215.755 253.815,222.986 252.505,225.878 C245.957,225.878 238.754,225.878 231.551,225.156 C230.242,220.817 228.932,217.925 226.313,217.925 C223.694,217.925 222.384,221.541 221.73,224.432 C215.836,222.986 209.943,221.541 204.049,219.371 C203.395,217.202 202.085,211.418 198.811,211.418 C196.847,211.418 195.538,213.586 194.882,215.755 C187.025,211.418 180.476,206.356 175.238,199.126 C175.893,196.234 176.547,194.065 176.547,191.895 C196.847,212.14 262.983,211.418 281.972,207.08 C297.033,204.91 364.478,181.049 373.646,201.294 C382.813,221.541 342.214,221.541 333.047,222.263 C332.392,218.648 331.082,209.249 327.154,209.249 C323.225,209.249 321.26,219.371 320.606,222.986 C312.748,222.986 304.89,222.986 297.033,223.71 C295.723,217.202 293.758,212.864 291.139,212.864 C287.21,212.864 285.901,220.817 285.246,224.432 C278.043,224.432 270.84,225.156 264.292,225.878 z"/>
    </clipPath>
    <clipPath id="Clip_9">
      <path d="M379.398,60 L379.398,231.69 L0,231.69 L0,60 L379.398,60 z"/>
    </clipPath>
  </defs>
  <g id="Layer_1">
    <g clip-path="url(#Clip_1)">
      <path d="M226,-5 L356,-5 L356,109 L226,109 z" fill="#0073d2"/>
    </g>
    <g clip-path="url(#Clip_3)">
      <g clip-path="url(#Clip_2)">
        <path d="M59.134,54.999 L257.594,54.999 L257.594,215.91 L59.134,215.91 z" fill="#000000"/>
      </g>
    </g>
    <g clip-path="url(#Clip_9)">
      <g>
        <g clip-path="url(#Clip_4)">
          <path d="M103.281,164.909 L213.446,164.909 L213.446,200.01 L103.281,200.01 z" fill="#000000"/>
        </g>
        <g clip-path="url(#Clip_5)">
          <path d="M-4.25,168.018 L63.447,168.018 L63.447,235.94 L-4.25,235.94 z" fill="#000000"/>
        </g>
        <g clip-path="url(#Clip_6)">
          <path d="M47.629,218.319 C42.445,214.037 36.134,211.783 29.599,211.783 C22.837,211.783 16.527,214.037 11.568,218.319 C7.737,214.037 5.258,208.176 5.258,202.091 C5.258,196.007 7.512,190.372 11.343,186.09 C16.527,190.372 23.063,192.851 29.824,192.851 C36.585,192.851 43.122,190.372 48.305,186.09 C52.136,190.372 54.39,196.007 54.39,202.091 C53.94,208.176 51.686,213.811 47.629,218.319 z M14.724,221.249 C19.006,217.868 24.19,216.065 29.599,216.065 C35.007,216.065 40.191,217.868 44.473,221.249 C40.417,224.404 35.233,226.207 29.599,226.207 C23.964,226.432 19.006,224.404 14.724,221.249 z M44.699,182.709 C40.417,186.315 35.007,188.118 29.599,188.118 C23.964,188.118 18.781,186.09 14.498,182.709 C18.781,179.329 23.964,177.3 29.599,177.3 C35.233,177.525 40.642,179.553 44.699,182.709 z M29.599,173.018 C13.597,173.018 0.75,186.09 0.75,201.866 C0.75,217.643 13.597,230.94 29.599,230.94 C45.6,230.94 58.447,217.868 58.447,202.091 C58.447,186.315 45.6,173.018 29.599,173.018 z" fill-opacity="0" stroke="#000000" stroke-width="1.5"/>
        </g>
        <g clip-path="url(#Clip_7)">
          <path d="M165.656,111.628 L384.398,111.628 L384.398,235.94 L165.656,235.94 z" fill="#FFFFFF"/>
        </g>
        <g clip-path="url(#Clip_8)">
          <path d="M165.655,111.628 L384.398,111.628 L384.398,235.94 L165.655,235.94 z" fill="#000000"/>
        </g>
      </g>
    </g>
  </g>
</svg>
