<?xml version="1.0" encoding="UTF-8"?>
<!DOCTYPE svg PUBLIC "-//W3C//DTD SVG 1.1//EN" "http://www.w3.org/Graphics/SVG/1.1/DTD/svg11.dtd">
<svg version="1.1" xmlns="http://www.w3.org/2000/svg" xmlns:xlink="http://www.w3.org/1999/xlink" x="0" y="0" width="249" height="130" viewBox="0, 0, 249, 130">
  <defs>
    <clipPath id="Clip_1">
      <path d="M150.834,130 C153.164,130.005 155.443,129.311 157.373,128.007 C158.467,127.249 159.417,126.302 160.177,125.209 C160.311,125.036 160.448,124.866 160.572,124.688 C160.632,124.59 160.719,124.514 160.777,124.414 C160.892,124.228 161.009,124.029 161.134,123.812 C161.167,123.756 161.198,123.7 161.228,123.641 C161.282,123.543 161.334,123.456 161.392,123.342 L161.457,123.188 C161.778,122.562 162.045,121.91 162.254,121.239 C162.274,121.186 162.298,121.141 162.313,121.086 L167.685,107.948 L168.334,106.383 L168.334,130 L172.667,130 L172.667,95.333 C172.667,95.297 172.651,95.262 172.648,95.225 C176.362,94.704 179.157,91.499 179.167,87.75 L179.167,70.781 L183.718,69.799 C184.979,77.032 191.318,82.361 198.658,82.361 C205.968,82.361 212.289,77.077 213.585,69.884 L232.685,74.663 C239.415,76.341 244.174,82.439 244.167,89.375 L244.167,99.667 L229.001,99.667 L229.001,91 L224.667,91 L224.667,130 L229.001,130 L229.001,104 L244.167,104 L244.167,130 L248.501,130 L248.501,89.375 C248.511,80.454 242.388,72.614 233.731,70.46 L213.834,65.475 L213.834,58.307 C216.41,55.536 218.173,52.108 218.926,48.4 C219.279,46.651 219.531,44.983 219.739,43.333 L220.334,43.333 C225.088,43.333 229.001,39.421 229.001,34.667 C229.001,29.912 225.088,26 220.334,26 L220.334,13.227 C220.334,8.258 216.246,4.17 211.278,4.17 C210.925,4.17 210.573,4.191 210.222,4.232 C207.139,1.5 203.157,-0.006 199.038,-0 L190.001,0 C182.872,0.007 177.008,5.871 177.001,13 C177.004,13.609 177.267,14.188 177.723,14.591 C177.249,16.184 177.006,17.837 177.001,19.5 L177.001,26 C172.246,26 168.334,29.912 168.334,34.667 C168.334,39.421 172.246,43.333 177.001,43.333 L177.597,43.333 C177.814,44.987 178.056,46.655 178.409,48.4 C179.163,52.107 180.926,55.535 183.501,58.307 L183.501,65.416 L179.167,66.348 L179.167,59.583 C179.167,55.423 175.744,52 171.584,52 C167.424,52 164.001,55.423 164.001,59.583 L164.001,67.167 L159.667,67.167 C159.667,63.601 156.734,60.667 153.167,60.667 L142.334,60.667 C138.769,60.667 135.834,63.601 135.834,67.167 L133.668,67.167 L133.668,59.583 C133.668,55.423 130.244,52 126.084,52 C121.924,52 118.501,55.423 118.501,59.583 L118.501,87.75 C118.501,91.91 121.924,95.333 126.084,95.333 C130.244,95.333 133.668,91.91 133.668,87.75 L133.668,80.166 L137.351,80.166 L138.001,84.654 L138.001,117.6 C138.008,124.4 143.601,129.993 150.401,130 C150.47,130 150.539,129.99 150.617,129.99 L150.617,130 L150.834,130 z M198.494,10.833 L193.065,10.833 L187.076,4.845 C188.014,4.507 189.003,4.334 190.001,4.333 L193.294,4.333 L198.494,10.833 z M207.334,10.833 L204.041,10.833 L198.841,4.333 L199.038,4.333 C202.088,4.325 205.039,5.429 207.334,7.439 L207.334,10.833 z M186.938,10.833 L181.608,10.833 C181.949,9.546 182.58,8.355 183.455,7.352 L186.938,10.833 z M216.001,21.162 C214.397,18.38 212.95,15.511 211.667,12.567 L211.667,8.481 C214.114,8.726 215.999,10.808 216.001,13.267 L216.001,21.162 z M198.665,60.675 C190.908,60.675 184.171,55.148 182.656,47.541 C182.21,45.361 181.881,43.158 181.67,40.942 C181.635,40.615 181.622,40.268 181.592,39.936 C181.441,38.138 181.35,36.333 181.343,34.545 L181.343,28.902 C181.946,28.152 182.541,27.402 183.098,26.622 C185.641,23.07 187.746,19.223 189.368,15.166 L208.079,15.166 C210.197,20.034 212.854,24.648 216.001,28.921 L216.001,34.611 C215.99,36.316 215.906,38.034 215.765,39.75 C215.733,40.153 215.713,40.567 215.672,40.963 C215.46,43.172 215.132,45.368 214.688,47.541 C214.05,50.743 212.463,53.682 210.136,55.972 C209.772,56.335 209.386,56.66 209.018,56.973 C206.1,59.367 202.44,60.675 198.665,60.675 z M181.334,21.481 L181.334,19.5 C181.33,18.025 181.576,16.56 182.063,15.166 L184.623,15.166 C183.676,17.346 182.577,19.455 181.334,21.481 z M177.159,39 L177.001,39 C174.623,39 172.667,37.044 172.667,34.667 C172.667,32.289 174.623,30.333 177.001,30.333 L177.001,34.248 C177.001,35.733 177.06,37.182 177.146,38.608 C177.146,38.738 177.146,38.868 177.159,39 z M220.334,39 L220.176,39 C220.185,38.868 220.18,38.736 220.189,38.604 L220.189,38.611 C220.276,37.185 220.334,35.738 220.334,34.255 L220.334,30.333 C222.711,30.333 224.667,32.289 224.667,34.667 C224.667,37.044 222.711,39 220.334,39 z M171.584,91 C169.801,91 168.334,89.533 168.334,87.75 L168.334,59.583 C168.334,57.801 169.801,56.333 171.584,56.333 C173.367,56.333 174.834,57.801 174.834,59.583 L174.834,87.75 C174.834,89.533 173.367,91 171.584,91 z M126.084,91 C124.301,91 122.834,89.533 122.834,87.75 L122.834,59.583 C122.834,57.801 124.301,56.333 126.084,56.333 C127.867,56.333 129.334,57.801 129.334,59.583 L129.334,87.75 C129.334,89.533 127.867,91 126.084,91 z M198.668,78 C192.725,78 187.834,73.11 187.834,67.167 L187.834,61.912 C194.458,66.026 202.876,66.026 209.501,61.912 L209.501,67.167 C209.501,73.11 204.611,78 198.668,78 z M150.399,125.664 C145.975,125.664 142.334,122.024 142.334,117.6 L142.334,84.5 C142.334,84.398 142.327,84.294 142.313,84.193 L140.19,69.333 C140.174,69.231 140.167,69.127 140.168,69.024 L140.168,67.167 C140.168,65.978 141.146,65 142.334,65 L153.167,65 C154.356,65 155.334,65.978 155.334,67.167 L155.334,84.717 L158.405,116.686 L158.405,116.718 C158.524,117.8 158.423,118.895 158.108,119.936 L157.754,120.802 C157.657,121.065 157.544,121.321 157.418,121.57 L157.38,121.637 C155.94,124.126 153.274,125.664 150.399,125.664 z M136.74,75.833 L133.668,75.833 L133.668,71.5 L136.122,71.5 L136.74,75.833 z M164.532,104.196 L161.427,102.761 L159.667,84.5 L159.667,80.166 L164.001,80.166 L164.001,87.75 C164.009,90.711 165.751,93.409 168.447,94.634 L164.532,104.196 z M162.131,110.067 L161.914,107.757 L162.896,108.21 L162.131,110.067 z"/>
    </clipPath>
    <clipPath id="Clip_2">
      <path d="M248.501,0 L248.501,130 L118.501,130 L118.501,0 L248.501,0 z"/>
    </clipPath>
    <clipPath id="Clip_3">
      <path d="M57.403,30.325 C59.185,30.325 60.652,31.792 60.652,33.574 C60.652,35.357 59.185,36.824 57.403,36.824 C55.62,36.824 54.153,35.357 54.153,33.574 C54.153,31.792 55.62,30.325 57.403,30.325 z"/>
    </clipPath>
    <clipPath id="Clip_4">
      <path d="M76.898,30.325 C78.68,30.325 80.147,31.792 80.147,33.574 C80.147,35.357 78.68,36.824 76.898,36.824 C75.115,36.824 73.648,35.357 73.648,33.574 C73.648,31.792 75.115,30.325 76.898,30.325 z"/>
    </clipPath>
    <clipPath id="Clip_5">
      <path d="M64.984,43.323 C64.984,44.511 65.962,45.489 67.15,45.489 C68.338,45.489 69.316,44.511 69.316,43.323 L73.648,43.323 C73.648,46.887 70.714,49.821 67.15,49.82 C63.586,49.821 60.652,46.887 60.652,43.323 L64.984,43.323 z"/>
    </clipPath>
    <clipPath id="Clip_6">
      <path d="M43.343,130 L45.489,129.967 L47.655,129.967 L47.655,116.971 C47.635,116.327 47.32,115.728 46.801,115.346 C46.515,114.993 46.279,114.616 46.033,114.243 C45.816,113.923 45.586,113.615 45.402,113.286 C45.172,112.87 45.003,112.435 44.817,112.001 C44.683,111.689 44.527,111.384 44.416,111.063 C44.39,110.992 44.368,110.918 44.347,110.847 C44.212,110.441 44.13,110.028 44.031,109.614 C43.957,109.296 43.858,108.981 43.814,108.657 C43.814,108.62 43.796,108.581 43.79,108.544 C43.719,108.076 43.71,107.602 43.684,107.13 C43.669,106.881 43.639,106.634 43.636,106.385 C43.636,106.186 43.636,105.983 43.65,105.782 C43.664,105.389 43.716,104.994 43.762,104.6 C43.801,104.271 43.808,103.95 43.868,103.612 C43.982,103.1 44.121,102.594 44.286,102.096 C44.377,101.797 44.431,101.489 44.542,101.192 C44.76,100.646 45.012,100.111 45.293,99.594 C45.414,99.355 45.51,99.105 45.636,98.872 C46.077,98.111 46.584,97.391 47.152,96.717 C47.403,96.418 47.569,96.057 47.631,95.671 L51.142,74.356 L54.153,74.152 L54.153,82.313 C54.153,89.442 60.02,95.31 67.15,95.31 C74.28,95.31 80.147,89.442 80.147,82.313 L80.147,74.399 L83.216,74.911 L86.682,95.664 C86.744,96.049 86.91,96.408 87.16,96.706 C91.742,102.132 91.742,110.149 87.16,115.575 C86.83,115.966 86.648,116.46 86.645,116.971 L86.645,129.967 L90.977,129.967 L90.977,117.735 C91.315,117.302 91.627,116.85 91.924,116.393 C92.01,116.256 92.084,116.11 92.168,115.972 C92.366,115.649 92.565,115.322 92.741,114.995 C92.831,114.822 92.908,114.642 92.992,114.469 C93.141,114.163 93.295,113.857 93.425,113.548 C93.507,113.355 93.573,113.158 93.642,112.963 C93.756,112.664 93.877,112.365 93.977,112.063 C94.046,111.846 94.099,111.642 94.159,111.434 C94.245,111.137 94.334,110.843 94.407,110.544 C94.46,110.327 94.494,110.11 94.54,109.894 C94.599,109.602 94.661,109.312 94.707,109.017 C94.742,108.787 94.761,108.558 94.789,108.328 C94.822,108.04 94.859,107.751 94.88,107.461 C94.896,107.226 94.898,106.987 94.905,106.751 C94.915,106.467 94.928,106.186 94.924,105.904 C94.924,105.659 94.902,105.416 94.889,105.172 C94.876,104.927 94.866,104.621 94.839,104.347 C94.813,104.071 94.777,103.851 94.744,103.604 C94.711,103.356 94.675,103.066 94.627,102.798 C94.579,102.529 94.523,102.3 94.467,102.05 C94.41,101.801 94.354,101.528 94.284,101.269 C94.215,101.008 94.137,100.771 94.069,100.523 C93.998,100.276 93.912,100.017 93.822,99.765 C93.731,99.514 93.63,99.272 93.531,99.024 C93.431,98.777 93.334,98.537 93.226,98.299 C93.118,98.061 92.99,97.812 92.866,97.568 C92.743,97.326 92.628,97.103 92.499,96.873 C92.372,96.644 92.216,96.395 92.067,96.158 C91.917,95.922 91.791,95.726 91.633,95.509 C91.475,95.292 91.306,95.047 91.135,94.819 C91.034,94.684 90.943,94.543 90.836,94.408 L87.728,75.658 L92.385,76.432 C96.556,77.125 99.644,80.771 99.642,84.998 L99.642,129.967 L103.974,129.967 L103.974,84.998 C103.983,78.664 99.36,73.2 93.111,72.16 L85.46,70.895 L78.342,69.71 L78.321,69.71 L77.981,69.641 L77.981,59.848 C81.761,57.685 84.795,54.421 86.68,50.494 C87.037,58.543 93.751,64.973 101.808,64.983 C102.996,64.983 103.974,64.006 103.974,62.817 L103.974,25.993 C103.965,17.845 97.39,11.085 89.244,10.852 C84.859,4.115 77.355,0.028 69.316,0 L64.984,0 C51.918,0.016 41.171,10.762 41.157,23.827 L41.157,29.363 C38.479,30.902 36.823,33.764 36.823,36.853 C36.823,41.59 40.721,45.488 45.458,45.488 L45.971,45.488 C47.189,51.54 50.964,56.778 56.319,59.848 L56.293,69.5 L49.879,70.085 L49.145,70.133 C49.099,70.141 49.053,70.151 49.008,70.165 L41.832,70.814 C36.868,71.282 32.439,74.167 30.005,78.52 L30.297,76.193 C31.719,74.338 32.491,72.064 32.492,69.728 L32.492,19.604 C32.585,15.165 29.165,11.371 24.742,11.006 C22.53,10.836 20.31,10.794 18.093,10.878 C17.742,10.906 17.366,10.956 17.082,10.997 C11.506,11.637 6.101,13.319 1.148,15.958 C0.403,16.345 0.108,17.082 -0,17.865 L-0,22.164 C0.038,23.26 0.673,23.824 1.596,24.25 L3.041,24.644 C5.001,25.148 6.626,26.525 7.447,28.376 C8.595,30.999 8.096,34.065 6.175,36.189 L0.586,42.146 C-0.068,42.844 -0.186,43.896 0.296,44.722 L2.285,48.12 L0.966,48.986 L3.366,52.596 L4.475,51.858 L6.463,55.258 L5.136,56.14 L7.535,59.748 L8.664,59.01 L10.181,61.608 L10.397,62.563 L9.301,63.292 L11.117,66.023 C9.508,67.042 8.422,68.713 8.145,70.596 L6.516,82.001 C6.462,82.376 6.508,82.759 6.648,83.111 L10.83,93.559 L10.83,120.278 C10.786,122.835 11.769,125.306 13.558,127.134 C15.325,128.954 17.76,129.978 20.296,129.967 L20.578,129.967 C20.693,129.967 20.794,129.937 20.911,129.933 C21.223,129.918 21.533,129.887 21.841,129.84 C25.464,129.364 28.526,126.882 29.739,123.435 L39.486,109.253 L39.486,109.268 C39.521,109.484 39.571,109.701 39.614,109.918 C39.663,110.178 39.711,110.438 39.772,110.695 C39.82,110.895 39.878,111.094 39.932,111.291 C39.971,111.434 40.008,111.577 40.051,111.725 C40.095,111.871 40.149,112.056 40.203,112.22 C40.284,112.47 40.38,112.712 40.474,112.959 C40.567,113.206 40.634,113.407 40.728,113.628 C40.753,113.687 40.777,113.745 40.801,113.804 C40.892,114.021 41,114.218 41.1,114.423 C41.217,114.663 41.327,114.906 41.452,115.145 C41.527,115.281 41.605,115.413 41.68,115.547 C41.783,115.73 41.897,115.904 41.996,116.082 C42.096,116.26 42.176,116.386 42.274,116.533 C42.425,116.767 42.592,116.99 42.757,117.218 C42.816,117.3 42.869,117.384 42.93,117.467 C42.991,117.549 43.054,117.664 43.125,117.755 L43.323,130 L43.343,130 z M88.811,28.159 L87.984,28.159 L79.93,12.028 C79.564,11.295 78.812,10.83 77.993,10.83 C77.5,10.83 77.024,10.998 76.64,11.305 C76.468,11.439 59.516,24.91 47.18,27.672 C46.591,27.807 46.028,27.912 45.489,27.99 L45.489,23.827 C45.5,13.137 54.293,4.344 64.984,4.332 L69.316,4.332 C76.203,4.347 82.594,7.997 86.106,13.921 C86.136,13.982 86.164,14.04 86.199,14.102 C87.908,17.058 88.809,20.412 88.811,23.827 L88.811,28.159 z M27.293,72.957 L26.058,72.338 L24.26,46.98 C23.967,42.832 23.153,38.737 21.836,34.792 C20.284,30.169 19.494,25.324 19.495,20.448 L19.495,15.162 C21.109,15.162 23.57,15.284 24.498,15.332 C26.642,15.567 28.254,17.449 28.159,19.604 L28.159,69.728 C28.161,70.861 27.863,71.977 27.293,72.957 z M99.642,60.435 C94.62,59.403 90.983,54.946 90.977,49.82 L90.977,45.181 C94.784,44.216 97.471,40.764 97.471,36.836 C97.471,33.755 95.817,30.9 93.143,29.368 L93.143,23.827 C93.131,21.01 92.618,18.218 91.627,15.581 C96.327,16.841 99.626,21.126 99.642,25.993 L99.642,60.435 z M21.544,70.089 L21.111,69.872 L20.476,68.601 C19.501,66.643 17.6,65.303 15.427,65.044 L15.306,64.518 L19.144,61.968 L16.742,58.355 L14.214,60.036 C14.18,59.923 14.137,59.813 14.084,59.707 L12.271,56.607 L14.972,54.813 L12.575,51.205 L10.078,52.854 L8.09,49.455 L10.802,47.654 L8.405,44.052 L5.898,45.716 L4.852,43.927 L9.34,39.146 C12.424,35.771 13.247,30.878 11.437,26.68 C10.116,23.662 7.504,21.394 4.332,20.507 L4.332,19.193 C7.758,17.519 11.405,16.337 15.162,15.685 L15.162,20.45 C15.159,25.796 16.024,31.106 17.723,36.174 C18.918,39.771 19.659,43.505 19.928,47.286 L21.544,70.089 z M67.78,58.428 C64.855,58.582 62.125,57.743 59.447,56.677 C53.544,53.774 49.797,47.734 49.821,41.156 L49.821,31.458 C60.218,28.527 72.379,19.943 77.218,16.315 L84.479,30.837 L84.479,41.156 C84.5,47.735 80.751,53.776 74.846,56.677 C71.769,57.964 73.643,57.304 69.12,58.34 L67.78,58.428 z M45.489,41.156 C43.112,41.156 41.157,39.2 41.157,36.824 C41.157,34.447 43.112,32.491 45.489,32.491 L45.489,41.156 z M88.811,41.156 L88.811,32.491 C91.188,32.491 93.143,34.447 93.143,36.824 C93.143,39.2 91.188,41.156 88.811,41.156 z M67.15,90.977 C62.397,90.977 58.486,87.065 58.486,82.313 L58.486,73.234 C59.815,72.467 60.641,71.047 60.652,69.511 L60.652,61.784 C64.873,63.162 69.426,63.162 73.648,61.784 L73.648,69.641 C73.642,71.192 74.47,72.634 75.814,73.41 L75.814,82.313 C75.814,87.065 71.903,90.977 67.15,90.977 z M20.409,125.618 C17.509,125.527 15.17,123.121 15.162,120.22 L15.162,93.144 C15.162,92.868 15.111,92.595 15.009,92.34 L10.893,82.046 L12.442,71.216 C12.601,70.135 13.534,69.323 14.625,69.315 C15.461,69.313 16.229,69.787 16.601,70.535 L17.556,72.45 C17.766,72.87 18.107,73.211 18.527,73.421 L25.82,77.066 L23.844,92.879 C23.825,93.04 23.825,93.203 23.844,93.364 L25.993,114.805 L25.993,120.22 C25.991,120.629 25.94,121.037 25.844,121.435 L24.962,122.72 C24.923,122.78 24.884,122.843 24.852,122.905 C23.955,124.53 22.263,125.563 20.409,125.618 z M30.326,114.949 L30.326,114.588 L28.183,93.171 L28.343,91.887 L33.43,81.251 C35.079,77.812 38.425,75.484 42.224,75.136 L46.684,74.729 L43.435,94.387 C43.321,94.531 43.218,94.686 43.11,94.833 C42.948,95.049 42.787,95.266 42.636,95.482 C42.484,95.699 42.326,95.955 42.176,96.193 C42.027,96.432 41.895,96.646 41.765,96.878 C41.635,97.109 41.498,97.367 41.372,97.616 C41.247,97.865 41.132,98.084 41.022,98.322 C40.911,98.561 40.805,98.827 40.7,99.08 C40.593,99.334 40.5,99.565 40.411,99.811 C40.323,100.056 40.238,100.324 40.156,100.584 L40.125,100.673 L30.326,114.949 z"/>
    </clipPath>
    <clipPath id="Clip_7">
      <path d="M103.974,0 L103.974,130 L0,130 L0,0 L103.974,0 z"/>
    </clipPath>
    <clipPath id="Clip_8">
      <path d="M188.597,30.325 C190.379,30.325 191.846,31.792 191.846,33.574 C191.846,35.357 190.379,36.824 188.597,36.824 C186.814,36.824 185.347,35.357 185.347,33.574 C185.347,31.792 186.814,30.325 188.597,30.325 z"/>
    </clipPath>
    <clipPath id="Clip_9">
      <path d="M208.092,30.325 C209.874,30.325 211.341,31.792 211.341,33.574 C211.341,35.357 209.874,36.824 208.092,36.824 C206.309,36.824 204.842,35.357 204.842,33.574 C204.842,31.792 206.309,30.325 208.092,30.325 z"/>
    </clipPath>
    <clipPath id="Clip_10">
      <path d="M196.178,43.323 C196.178,44.511 197.156,45.489 198.344,45.489 C199.532,45.489 200.51,44.511 200.51,43.323 L204.842,43.323 C204.842,46.887 201.909,49.821 198.344,49.82 C194.78,49.821 191.846,46.887 191.846,43.323 L196.178,43.323 z"/>
    </clipPath>
  </defs>
  <g id="Layer_1">
    <g clip-path="url(#Clip_2)">
      <g clip-path="url(#Clip_1)">
        <path d="M113.501,-5 L253.501,-5 L253.501,135 L113.501,135 z" fill="#000000"/>
      </g>
    </g>
    <g clip-path="url(#Clip_3)">
      <path d="M49.153,25.325 L65.652,25.325 L65.652,41.825 L49.153,41.825 z" fill="#000000"/>
    </g>
    <g clip-path="url(#Clip_4)">
      <path d="M68.648,25.325 L85.147,25.325 L85.147,41.825 L68.648,41.825 z" fill="#000000"/>
    </g>
    <g clip-path="url(#Clip_5)">
      <path d="M55.652,38.323 L78.648,38.323 L78.648,54.821 L55.652,54.821 z" fill="#000000"/>
    </g>
    <g clip-path="url(#Clip_7)">
      <g clip-path="url(#Clip_6)">
        <path d="M-5.001,-5 L108.974,-5 L108.974,135 L-5.001,135 z" fill="#000000"/>
      </g>
    </g>
    <g clip-path="url(#Clip_8)">
      <path d="M180.347,25.325 L196.846,25.325 L196.846,41.825 L180.347,41.825 z" fill="#000000"/>
    </g>
    <g clip-path="url(#Clip_9)">
      <path d="M199.842,25.325 L216.341,25.325 L216.341,41.825 L199.842,41.825 z" fill="#000000"/>
    </g>
    <g clip-path="url(#Clip_10)">
      <path d="M186.846,38.323 L209.842,38.323 L209.842,54.821 L186.846,54.821 z" fill="#000000"/>
    </g>
  </g>
</svg>
