<?xml version="1.0" encoding="UTF-8"?>
<!DOCTYPE svg PUBLIC "-//W3C//DTD SVG 1.1//EN" "http://www.w3.org/Graphics/SVG/1.1/DTD/svg11.dtd">
<svg version="1.1" xmlns="http://www.w3.org/2000/svg" xmlns:xlink="http://www.w3.org/1999/xlink" x="0" y="0" width="183" height="120" viewBox="0, 0, 183, 120">
  <g id="Background">
    <rect x="0" y="0" width="183" height="120" fill="#000000" fill-opacity="0"/>
  </g>
  <defs>
    <clipPath id="Clip_1">
      <path d="M32.821,11.25 C33.746,11.25 34.493,12 34.493,12.923 L34.493,19.074 L75.02,19.074 L75.02,12.923 C75.02,12 75.767,11.25 76.692,11.25 L84.792,11.25 C85.717,11.25 86.465,12 86.465,12.923 L86.465,19.074 L101.619,19.074 C105.284,19.074 108.265,22.056 108.265,25.72 L108.265,111.621 C108.265,115.285 105.284,118.266 101.62,118.266 L7.878,118.266 C4.223,118.266 1.25,115.285 1.25,111.621 L1.25,25.72 C1.25,22.056 4.223,19.074 7.878,19.074 L23.049,19.074 L23.049,12.923 C23.049,12 23.797,11.25 24.722,11.25 L32.821,11.25 z M104.921,45.469 L4.594,45.469 L4.594,111.621 C4.594,113.441 6.067,114.922 7.878,114.922 L101.619,114.922 C103.439,114.922 104.921,113.441 104.921,111.621 L104.921,45.469 z M23.049,22.419 L7.878,22.419 C6.067,22.419 4.594,23.901 4.594,25.72 L4.594,42.124 L104.921,42.124 L104.921,25.72 C104.921,23.901 103.439,22.419 101.619,22.419 L86.465,22.419 L86.465,27.868 C86.465,28.791 85.717,29.54 84.792,29.54 L76.692,29.54 C75.767,29.54 75.02,28.791 75.02,27.868 L75.02,22.419 L34.493,22.419 L34.493,27.868 C34.493,28.791 33.746,29.54 32.821,29.54 L24.722,29.54 C23.797,29.54 23.049,28.791 23.049,27.868 L23.049,22.419 z"/>
    </clipPath>
    <clipPath id="Clip_2">
      <path d="M104.921,45.469 L104.921,111.621 C104.921,113.441 103.439,114.922 101.619,114.922 L7.878,114.922 C6.067,114.922 4.594,113.441 4.594,111.621 L4.594,45.469 L104.921,45.469 z M23.049,22.419 L23.049,27.868 C23.049,28.791 23.797,29.54 24.722,29.54 L32.821,29.54 C33.746,29.54 34.493,28.791 34.493,27.868 L34.493,22.419 L75.02,22.419 L75.02,27.868 C75.02,28.791 75.767,29.54 76.692,29.54 L84.792,29.54 C85.717,29.54 86.465,28.791 86.465,27.868 L86.465,22.419 L101.619,22.419 C103.439,22.419 104.921,23.901 104.921,25.72 L104.921,42.124 L4.594,42.124 L4.594,25.72 C4.594,23.901 6.067,22.419 7.878,22.419 L23.049,22.419 z"/>
    </clipPath>
    <clipPath id="Clip_3">
      <path d="M77.333,55.516 L78.102,55.888 C79.049,56.584 79.23,57.936 78.505,58.851 L49.414,96.547 C49.011,97.084 48.367,97.382 47.702,97.382 L47.622,97.382 C46.917,97.362 46.273,97.004 45.89,96.428 L30.912,73.663 C30.267,72.689 30.55,71.376 31.536,70.72 C32.543,70.084 33.871,70.362 34.515,71.357 L47.844,91.576 L75.082,56.286 C76.136,55.376 75.445,55.766 77.333,55.516 z"/>
    </clipPath>
    <clipPath id="Clip_4">
      <path d="M136.346,32.911 C136.897,32.911 137.342,33.356 137.342,33.906 L137.342,37.567 L161.463,37.567 L161.463,33.906 C161.463,33.356 161.907,32.911 162.458,32.911 L167.279,32.911 C167.829,32.911 168.274,33.356 168.274,33.906 L168.274,37.567 L177.294,37.567 C179.476,37.567 181.25,39.342 181.25,41.522 L181.25,92.65 C181.25,94.831 179.476,96.605 177.295,96.605 L121.5,96.605 C119.324,96.605 117.555,94.831 117.555,92.65 L117.555,41.522 C117.555,39.342 119.324,37.567 121.5,37.567 L130.53,37.567 L130.53,33.906 C130.53,33.356 130.975,32.911 131.525,32.911 L136.346,32.911 z M179.26,53.277 L119.546,53.277 L119.546,92.65 C119.546,93.733 120.423,94.615 121.5,94.615 L177.294,94.615 C178.378,94.615 179.26,93.733 179.26,92.65 L179.26,53.277 z M130.53,39.557 L121.5,39.557 C120.423,39.557 119.546,40.439 119.546,41.522 L119.546,51.287 L179.26,51.287 L179.26,41.522 C179.26,40.439 178.378,39.557 177.294,39.557 L168.274,39.557 L168.274,42.802 C168.274,43.35 167.829,43.797 167.279,43.797 L162.458,43.797 C161.907,43.797 161.463,43.35 161.463,42.802 L161.463,39.557 L137.342,39.557 L137.342,42.802 C137.342,43.35 136.897,43.797 136.346,43.797 L131.525,43.797 C130.975,43.797 130.53,43.35 130.53,42.802 L130.53,39.557 z"/>
    </clipPath>
    <clipPath id="Clip_5">
      <path d="M164.56,66.195 L164.56,58.645 L157.01,58.645 L157.01,66.195 L164.56,66.195 z"/>
    </clipPath>
    <clipPath id="Clip_6">
      <path d="M175.943,66.195 L175.943,58.645 L168.391,58.645 L168.391,66.195 L175.943,66.195 z"/>
    </clipPath>
    <clipPath id="Clip_7">
      <path d="M153.178,77.829 L153.178,70.279 L145.627,70.279 L145.627,77.829 L153.178,77.829 z"/>
    </clipPath>
    <clipPath id="Clip_8">
      <path d="M164.56,77.829 L164.56,70.279 L157.01,70.279 L157.01,77.829 L164.56,77.829 z"/>
    </clipPath>
    <clipPath id="Clip_9">
      <path d="M175.943,77.829 L175.943,70.279 L168.391,70.279 L168.391,77.829 L175.943,77.829 z"/>
    </clipPath>
    <clipPath id="Clip_10">
      <path d="M141.796,77.829 L141.796,70.279 L134.245,70.279 L134.245,77.829 L141.796,77.829 z"/>
    </clipPath>
    <clipPath id="Clip_11">
      <path d="M130.414,77.829 L130.414,70.279 L122.863,70.279 L122.863,77.829 L130.414,77.829 z"/>
    </clipPath>
    <clipPath id="Clip_12">
      <path d="M153.178,89.463 L153.178,81.912 L145.627,81.912 L145.627,89.463 L153.178,89.463 z"/>
    </clipPath>
    <clipPath id="Clip_13">
      <path d="M164.56,89.463 L164.56,81.912 L157.01,81.912 L157.01,89.463 L164.56,89.463 z"/>
    </clipPath>
    <clipPath id="Clip_14">
      <path d="M141.796,89.463 L141.796,81.912 L134.245,81.912 L134.245,89.463 L141.796,89.463 z"/>
    </clipPath>
    <clipPath id="Clip_15">
      <path d="M130.414,89.463 L130.414,81.912 L122.863,81.912 L122.863,89.463 L130.414,89.463 z"/>
    </clipPath>
  </defs>
  <g id="Layer_1">
    <g clip-path="url(#Clip_1)">
      <path d="M-3.75,6.25 L113.265,6.25 L113.265,123.266 L-3.75,123.266 z" fill="#000000"/>
    </g>
    <path d="M101.619,114.922 L7.878,114.922 C6.067,114.922 4.594,113.441 4.594,111.621 L4.594,45.469 L104.921,45.469 L104.921,111.621 C104.921,113.441 103.439,114.922 101.619,114.922 z M7.878,22.419 L23.049,22.419 L23.049,27.868 C23.049,28.791 23.797,29.54 24.722,29.54 L32.821,29.54 C33.746,29.54 34.493,28.791 34.493,27.868 L34.493,22.419 L75.02,22.419 L75.02,27.868 C75.02,28.791 75.767,29.54 76.692,29.54 L84.792,29.54 C85.717,29.54 86.465,28.791 86.465,27.868 L86.465,22.419 L101.619,22.419 C103.439,22.419 104.921,23.901 104.921,25.72 L104.921,42.124 L4.594,42.124 L4.594,25.72 C4.594,23.901 6.067,22.419 7.878,22.419 z M26.393,26.197 L31.149,26.197 L31.149,14.595 L26.393,14.595 L26.393,26.197 z M78.364,26.197 L83.12,26.197 L83.12,14.595 L78.364,14.595 L78.364,26.197 z M101.619,19.074 L86.465,19.074 L86.465,12.923 C86.465,12 85.717,11.25 84.792,11.25 L76.692,11.25 C75.767,11.25 75.02,12 75.02,12.923 L75.02,19.074 L34.493,19.074 L34.493,12.923 C34.493,12 33.746,11.25 32.821,11.25 L24.722,11.25 C23.797,11.25 23.049,12 23.049,12.923 L23.049,19.074 L7.878,19.074 C4.223,19.074 1.25,22.056 1.25,25.72 L1.25,111.621 C1.25,115.285 4.223,118.266 7.878,118.266 L101.62,118.266 C105.284,118.266 108.265,115.285 108.265,111.621 L108.265,25.72 C108.265,22.056 105.284,19.074 101.619,19.074 z" fill-opacity="0" stroke="#000000" stroke-width="2.5"/>
    <g clip-path="url(#Clip_2)">
      <path d="M-0.406,17.419 L109.921,17.419 L109.921,119.922 L-0.406,119.922 z" fill="#FFFFFF"/>
    </g>
    <path d="M101.619,114.922 L7.878,114.922 C6.067,114.922 4.594,113.441 4.594,111.621 L4.594,45.469 L104.921,45.469 L104.921,111.621 C104.921,113.441 103.439,114.922 101.619,114.922 z M7.878,22.419 L23.049,22.419 L23.049,27.868 C23.049,28.791 23.797,29.54 24.722,29.54 L32.821,29.54 C33.746,29.54 34.493,28.791 34.493,27.868 L34.493,22.419 L75.02,22.419 L75.02,27.868 C75.02,28.791 75.767,29.54 76.692,29.54 L84.792,29.54 C85.717,29.54 86.465,28.791 86.465,27.868 L86.465,22.419 L101.619,22.419 C103.439,22.419 104.921,23.901 104.921,25.72 L104.921,42.124 L4.594,42.124 L4.594,25.72 C4.594,23.901 6.067,22.419 7.878,22.419 z" fill-opacity="0" stroke="#000000" stroke-width="2.5"/>
    <g clip-path="url(#Clip_3)">
      <path d="M25.566,50.449 L83.95,50.449 L83.95,102.382 L25.566,102.382 z" fill="#000000"/>
    </g>
    <g clip-path="url(#Clip_4)">
      <path d="M112.555,27.911 L186.25,27.911 L186.25,101.605 L112.555,101.605 z" fill="#666666"/>
    </g>
    <path d="M177.294,94.615 L121.5,94.615 C120.423,94.615 119.546,93.733 119.546,92.65 L119.546,53.277 L179.26,53.277 L179.26,92.65 C179.26,93.733 178.378,94.615 177.294,94.615 z M121.5,39.557 L130.53,39.557 L130.53,42.802 C130.53,43.35 130.975,43.797 131.525,43.797 L136.346,43.797 C136.897,43.797 137.342,43.35 137.342,42.802 L137.342,39.557 L161.463,39.557 L161.463,42.802 C161.463,43.35 161.907,43.797 162.458,43.797 L167.279,43.797 C167.829,43.797 168.274,43.35 168.274,42.802 L168.274,39.557 L177.294,39.557 C178.378,39.557 179.26,40.439 179.26,41.522 L179.26,51.287 L119.546,51.287 L119.546,41.522 C119.546,40.439 120.423,39.557 121.5,39.557 z M132.521,41.806 L135.351,41.806 L135.351,34.901 L132.521,34.901 L132.521,41.806 z M163.453,41.806 L166.283,41.806 L166.283,34.901 L163.453,34.901 L163.453,41.806 z M177.294,37.567 L168.274,37.567 L168.274,33.906 C168.274,33.356 167.829,32.911 167.279,32.911 L162.458,32.911 C161.907,32.911 161.463,33.356 161.463,33.906 L161.463,37.567 L137.342,37.567 L137.342,33.906 C137.342,33.356 136.897,32.911 136.346,32.911 L131.525,32.911 C130.975,32.911 130.53,33.356 130.53,33.906 L130.53,37.567 L121.5,37.567 C119.324,37.567 117.555,39.342 117.555,41.522 L117.555,92.65 C117.555,94.831 119.324,96.605 121.5,96.605 L177.295,96.605 C179.476,96.605 181.25,94.831 181.25,92.65 L181.25,41.522 C181.25,39.342 179.476,37.567 177.294,37.567 z" fill-opacity="0" stroke="#666666" stroke-width="2"/>
    <g>
      <g clip-path="url(#Clip_5)">
        <path d="M152.01,53.645 L169.56,53.645 L169.56,71.195 L152.01,71.195 z" fill="#CCCCCC"/>
      </g>
      <g clip-path="url(#Clip_6)">
        <path d="M163.391,53.645 L180.943,53.645 L180.943,71.195 L163.391,71.195 z" fill="#CCCCCC"/>
      </g>
      <g clip-path="url(#Clip_7)">
        <path d="M140.627,65.279 L158.178,65.279 L158.178,82.829 L140.627,82.829 z" fill="#CCCCCC"/>
      </g>
      <g clip-path="url(#Clip_8)">
        <path d="M152.01,65.279 L169.56,65.279 L169.56,82.829 L152.01,82.829 z" fill="#CCCCCC"/>
      </g>
      <g clip-path="url(#Clip_9)">
        <path d="M163.391,65.279 L180.943,65.279 L180.943,82.829 L163.391,82.829 z" fill="#CCCCCC"/>
      </g>
      <g clip-path="url(#Clip_10)">
        <path d="M129.245,65.279 L146.796,65.279 L146.796,82.829 L129.245,82.829 z" fill="#CCCCCC"/>
      </g>
      <g clip-path="url(#Clip_11)">
        <path d="M117.863,65.279 L135.414,65.279 L135.414,82.829 L117.863,82.829 z" fill="#CCCCCC"/>
      </g>
      <g clip-path="url(#Clip_12)">
        <path d="M140.627,76.912 L158.178,76.912 L158.178,94.463 L140.627,94.463 z" fill="#CCCCCC"/>
      </g>
      <g clip-path="url(#Clip_13)">
        <path d="M152.01,76.912 L169.56,76.912 L169.56,94.463 L152.01,94.463 z" fill="#CCCCCC"/>
      </g>
      <g clip-path="url(#Clip_14)">
        <path d="M129.245,76.912 L146.796,76.912 L146.796,94.463 L129.245,94.463 z" fill="#CCCCCC"/>
      </g>
      <g clip-path="url(#Clip_15)">
        <path d="M117.863,76.912 L135.414,76.912 L135.414,94.463 L117.863,94.463 z" fill="#CCCCCC"/>
      </g>
    </g>
  </g>
</svg>
