<svg xmlns="http://www.w3.org/2000/svg" width="194" height="194" viewBox="0 0 194 194">
    <g fill="none" fill-rule="evenodd">
        <g>
            <g>
                <g>
                    <g>
                        <path fill="#000" d="M164.256 92.487H133.4c-.209-12.773-2.008-24.63-5.037-34.888 6.966-1.716 13.68-3.976 20.033-6.754 9.44 11.397 15.294 25.855 15.861 41.642zm-15.86 46.67c-6.355-2.778-13.068-5.039-20.034-6.755 3.03-10.257 4.828-22.114 5.037-34.888h30.857c-.567 15.785-6.42 30.244-15.86 41.642zm-36.79 23.138c6.19-5.607 11.426-14.287 15.22-25.095 6.245 1.521 12.285 3.49 18.024 5.894-8.924 9.247-20.38 16.027-33.245 19.201zm-14.093 1.797v-30.629c8.236.15 16.351 1.025 24.191 2.6-5.674 15.682-14.422 26.435-24.19 28.03zm0-66.58h30.857c-.222 12.245-2.059 23.793-5.078 33.74-8.347-1.717-17.003-2.663-25.779-2.817V97.512zm0-35.947c8.776-.154 17.432-1.1 25.78-2.817 3.018 9.946 4.855 21.495 5.077 33.74H97.513V61.564zm0-35.657c9.767 1.596 18.517 12.348 24.191 28.028-7.838 1.575-15.953 2.45-24.19 2.601V25.908zm47.337 20.997c-5.74 2.405-11.779 4.373-18.025 5.894-3.793-10.808-9.03-19.49-15.22-25.094 12.865 3.174 24.321 9.953 33.245 19.2zm-52.365 9.632c-8.236-.15-16.35-1.026-24.189-2.6 5.67-15.68 14.42-26.433 24.19-28.029v30.63zm0 35.95H61.63c.222-12.244 2.061-23.793 5.077-33.739 8.35 1.717 17.003 2.663 25.78 2.817v30.922zm0 35.948c-8.776.154-17.43 1.1-25.779 2.817-3.016-9.947-4.853-21.495-5.077-33.74h30.856v30.923zm0 35.657c-9.769-1.596-18.517-12.348-24.189-28.029 7.836-1.575 15.953-2.45 24.19-2.6v30.63zm-47.333-20.998c5.738-2.405 11.78-4.373 18.026-5.894 3.791 10.808 9.028 19.49 15.22 25.095-12.87-3.174-24.324-9.954-33.246-19.2zm-3.547-3.938c-9.44-11.397-15.294-25.856-15.86-41.642H56.6c.21 12.773 2.008 24.631 5.036 34.888-6.964 1.716-13.679 3.977-20.03 6.754zm0-88.313c6.354 2.778 13.07 5.04 20.033 6.754-3.028 10.257-4.826 22.116-5.036 34.888H25.744c.567-15.785 6.42-30.243 15.861-41.642zm36.791-23.138c-6.19 5.606-11.428 14.286-15.22 25.094-6.247-1.52-12.287-3.489-18.025-5.894 8.923-9.247 20.377-16.026 33.245-19.2zM95 20.652c-40.995 0-74.348 33.354-74.348 74.348S54.005 169.347 95 169.347 169.348 135.994 169.348 95c0-40.994-33.353-74.348-74.348-74.348z" transform="translate(-279 -5841) translate(40 3442) translate(0 2401) translate(241)"/>
                        <path stroke="#000" stroke-dasharray="11.939 11.939" stroke-width="4" d="M190 95c0 52.467-42.533 95-95 95-52.468 0-95-42.533-95-95S42.532 0 95 0c52.467 0 95 42.533 95 95z" transform="translate(-279 -5841) translate(40 3442) translate(0 2401) translate(241)"/>
                    </g>
                </g>
            </g>
        </g>
    </g>
</svg>
