<?xml version="1.0" encoding="UTF-8"?>
<!DOCTYPE svg PUBLIC "-//W3C//DTD SVG 1.1//EN" "http://www.w3.org/Graphics/SVG/1.1/DTD/svg11.dtd">
<svg version="1.1" xmlns="http://www.w3.org/2000/svg" xmlns:xlink="http://www.w3.org/1999/xlink" x="0" y="0" width="120" height="120" viewBox="0, 0, 120, 120">
  <defs>
    <clipPath id="Clip_1">
      <path d="M60,120 C93.137,120 120,93.137 120,60 C120,26.863 93.137,0 60,0 C26.863,0 0,26.863 0,60 C0,93.137 26.863,120 60,120 z"/>
    </clipPath>
    <clipPath id="Clip_2">
      <path d="M0,120 L120,120 L120,0 L0,0 z"/>
    </clipPath>
    <clipPath id="Clip_3">
      <path d="M60,0 C93.137,0 120,26.863 120,60 C120,93.137 93.137,120 60,120 C26.863,120 0,93.137 0,60 C0,26.863 26.863,0 60,0 z"/>
    </clipPath>
    <clipPath id="Clip_4">
      <path d="M67.778,83 C71.284,83.04 74.786,82.925 78.285,82.71 L79.076,82.71 C79.603,80.09 79.339,79.508 80.129,82.418 C83.555,82.127 86.717,81.254 90.143,80.09 C90.67,77.762 90.406,77.18 91.197,79.508 C95.676,77.471 99.102,75.144 102,70.78 C101.473,67.288 100.156,59.432 96.467,58.85 C91.46,58.268 87.244,57.686 83.555,56.813 C80.129,55.94 77.495,55.068 76.177,53.613 L75.914,53.614 L71.434,50.994 C72.225,50.121 71.434,48.666 70.38,49.248 L69.326,49.831 L66.164,47.795 C67.218,47.212 66.164,45.466 65.11,46.048 L64.056,46.631 L60.894,44.885 C61.948,44.011 61.158,42.265 60.104,42.847 L59.049,43.721 L55.624,41.684 C56.941,41.101 55.888,39.356 54.834,39.938 L53.779,40.521 C49.3,37.901 45.875,34.118 43.239,40.52 C42.449,42.265 41.131,44.884 37.969,47.503 C30.065,50.994 32.172,40.52 27.166,41.101 C19.261,43.138 19.261,60.596 19.261,67.579 C18.207,69.907 17.68,72.234 18.207,75.144 C19.261,80.963 33.49,81.254 37.969,81.545 C39.287,76.307 39.024,76.307 40.078,81.545 C44.294,81.836 48.509,81.836 52.462,82.127 C54.043,76.889 53.253,77.18 54.57,82.127 C61.528,82.715 58.017,82.424 65.104,83 L65.9,83 C65.996,82.509 66.362,80.534 66.539,80.136 C66.58,80.044 66.801,80.044 66.842,80.136 C67.019,80.534 67.385,82.508 67.482,83 L67.778,83 z M76.968,66.997 C74.333,66.706 72.488,61.469 68.799,62.633 C59.577,56.522 50.618,50.412 44.03,42.847 C44.294,42.265 44.557,41.683 44.82,41.392 C46.401,37.61 49.037,39.938 51.671,41.683 L50.618,42.265 C49.564,42.847 50.618,44.593 51.671,44.011 L53.779,42.847 L56.941,44.594 L55.888,45.466 C54.834,46.048 55.624,47.794 56.678,47.212 L59.049,45.757 L62.211,47.795 L61.158,48.376 C59.84,49.248 60.894,50.994 61.948,50.412 L64.056,48.958 L67.482,50.994 L66.164,51.576 C65.11,52.158 65.9,53.904 66.955,53.322 L69.326,52.159 L75.123,55.36 C76.704,56.813 79.603,57.977 83.292,58.85 C86.717,59.723 91.197,60.305 95.94,60.886 C90.933,66.415 86.454,63.215 82.238,64.087 C78.812,64.669 80.129,66.124 76.968,66.997 z M45.611,64.961 C40.868,63.505 36.125,61.469 31.909,59.432 C28.483,55.359 26.376,51.285 26.639,46.921 C26.639,46.048 26.902,43.429 27.693,43.138 C29.01,43.138 30.065,48.376 32.699,49.83 C35.598,55.359 40.341,60.305 45.611,64.96 z M62.475,66.125 C53.779,60.886 44.82,55.94 39.55,48.666 C41.659,46.921 42.712,45.466 43.503,44.011 C49.827,50.703 58.259,57.104 67.482,63.215 C65.637,64.669 64.847,65.542 62.475,66.124 z M29.801,58.56 C26.902,57.104 24.268,55.94 21.896,54.777 C22.423,51.285 23.213,46.048 25.849,44.011 C25.058,49.248 26.639,53.904 29.801,58.559 z M57.419,66.816 C51.36,66.301 53.966,66.718 49.564,65.833 C43.503,61.469 37.969,56.522 34.28,50.412 C35.598,50.412 36.916,50.121 38.497,49.248 C43.239,55.94 51.408,61.469 59.84,66.706 L57.419,66.816 z M69.063,80.964 C68.536,79.799 68.009,76.889 66.691,76.889 C65.374,76.889 64.583,79.508 64.319,80.963 C61.685,80.672 58.786,80.381 55.888,80.381 C55.624,78.926 55.097,75.726 53.516,75.726 C52.462,75.726 51.671,77.471 51.145,80.09 C47.982,79.799 44.82,79.799 41.659,79.799 C41.395,78.344 40.605,74.271 39.024,74.271 C37.442,74.271 36.916,78.053 36.652,79.508 C32.963,79.217 16.626,79.217 20.315,71.07 C24.004,62.924 51.145,72.525 57.205,73.398 C64.847,75.144 91.46,75.435 99.629,67.288 C99.629,68.161 99.892,69.033 100.156,70.198 C98.048,73.107 95.413,75.144 92.251,76.889 C91.987,76.016 91.46,75.144 90.67,75.144 C89.352,75.144 88.825,77.471 88.562,78.344 C86.19,79.217 83.819,79.799 81.447,80.381 C81.184,79.217 80.657,77.762 79.603,77.762 C78.549,77.762 78.022,78.926 77.495,80.672 C74.596,80.963 71.698,80.963 69.063,80.963 z"/>
    </clipPath>
    <clipPath id="Clip_5">
      <path d="M102,37 L102,83 L18,83 L18,37 L102,37 z"/>
    </clipPath>
  </defs>
  <g id="Layer_1">
    <g clip-path="url(#Clip_3)">
      <g>
        <g clip-path="url(#Clip_1)">
          <path d="M60,120 C93.137,120 120,93.137 120,60 C120,26.863 93.137,0 60,0 C26.863,0 0,26.863 0,60 C0,93.137 26.863,120 60,120 z" fill="#FFFFFF"/>
        </g>
        <g clip-path="url(#Clip_2)">
          <path d="M60,120 C93.137,120 120,93.137 120,60 C120,26.863 93.137,0 60,0 C26.863,0 0,26.863 0,60 C0,93.137 26.863,120 60,120 z" fill-opacity="0" stroke="#0073d2" stroke-width="10"/>
        </g>
      </g>
    </g>
    <g clip-path="url(#Clip_5)">
      <g clip-path="url(#Clip_4)">
        <path d="M13,32 L107,32 L107,88 L13,88 z" fill="#000000"/>
      </g>
    </g>
  </g>
</svg>
