<?xml version="1.0" encoding="UTF-8"?>
<!DOCTYPE svg PUBLIC "-//W3C//DTD SVG 1.1//EN" "http://www.w3.org/Graphics/SVG/1.1/DTD/svg11.dtd">
<svg version="1.1" xmlns="http://www.w3.org/2000/svg" xmlns:xlink="http://www.w3.org/1999/xlink" x="0" y="0" width="120" height="120" viewBox="0, 0, 120, 120">
  <defs>
    <clipPath id="Clip_1">
      <path d="M60,120 C93.137,120 120,93.137 120,60 C120,26.863 93.137,0 60,0 C26.863,0 0,26.863 0,60 C0,93.137 26.863,120 60,120 z"/>
    </clipPath>
    <clipPath id="Clip_2">
      <path d="M0,120 L120,120 L120,0 L0,0 z"/>
    </clipPath>
    <clipPath id="Clip_3">
      <path d="M60,0 C93.137,0 120,26.863 120,60 C120,93.137 93.137,120 60,120 C26.863,120 0,93.137 0,60 C0,26.863 26.863,0 60,0 z"/>
    </clipPath>
    <clipPath id="Clip_4">
      <path d="M82.52,83 C85.048,83 88.001,81.381 88.001,76.817 L88.001,45.9 L81.751,45.9 L81.751,39.964 L49.486,39.964 L46.601,35.018 L30.312,35.018 L30.312,78.303 C30.49,81.331 33.049,82.762 35.792,83 L82.52,83 z M35.792,81.022 C34.043,81.022 32.62,79.802 32.62,78.3 L32.62,36.996 L45.175,36.996 L48.06,41.943 L79.443,41.943 L79.443,45.9 L38.965,45.9 L38.965,78.3 C38.965,79.802 37.543,81.022 35.792,81.022 z M82.52,81.022 L40.253,81.022 C40.892,80.252 41.273,79.315 41.273,78.3 L41.273,47.879 L85.693,47.879 L85.693,76.817 C85.693,79.45 84.506,81.022 82.52,81.022 z"/>
    </clipPath>
    <clipPath id="Clip_5">
      <path d="M88,35.018 L88,83 L30.312,83 L30.312,35.018 L88,35.018 z"/>
    </clipPath>
    <clipPath id="Clip_6">
      <path d="M81.312,53.891 L81.312,51.891 L58.312,51.891 L58.312,53.891 L81.312,53.891 z"/>
    </clipPath>
    <clipPath id="Clip_7">
      <path d="M81.312,58.891 L81.312,56.891 L58.312,56.891 L58.312,58.891 L81.312,58.891 z"/>
    </clipPath>
  </defs>
  <g id="Layer_1">
    <g clip-path="url(#Clip_3)">
      <g>
        <g clip-path="url(#Clip_1)">
          <path d="M60,120 C93.137,120 120,93.137 120,60 C120,26.863 93.137,0 60,0 C26.863,0 0,26.863 0,60 C0,93.137 26.863,120 60,120 z" fill="#FFFFFF"/>
        </g>
        <g clip-path="url(#Clip_2)">
          <path d="M60,120 C93.137,120 120,93.137 120,60 C120,26.863 93.137,0 60,0 C26.863,0 0,26.863 0,60 C0,93.137 26.863,120 60,120 z" fill-opacity="0" stroke="#0073d2" stroke-width="10"/>
        </g>
      </g>
    </g>
    <g clip-path="url(#Clip_5)">
      <g clip-path="url(#Clip_4)">
        <path d="M25.312,30.017 L93.001,30.017 L93.001,88 L25.312,88 z" fill="#000000"/>
      </g>
    </g>
    <g>
      <g clip-path="url(#Clip_6)">
        <path d="M53.312,46.891 L86.312,46.891 L86.312,58.891 L53.312,58.891 z" fill="#000000"/>
      </g>
      <g clip-path="url(#Clip_7)">
        <path d="M53.312,51.891 L86.312,51.891 L86.312,63.891 L53.312,63.891 z" fill="#000000"/>
      </g>
    </g>
  </g>
</svg>
