<?xml version="1.0" encoding="UTF-8"?>
<!DOCTYPE svg PUBLIC "-//W3C//DTD SVG 1.1//EN" "http://www.w3.org/Graphics/SVG/1.1/DTD/svg11.dtd">
<svg version="1.1" xmlns="http://www.w3.org/2000/svg" xmlns:xlink="http://www.w3.org/1999/xlink" x="0" y="0" width="120" height="120" viewBox="0, 0, 120, 120">
  <defs>
    <clipPath id="Clip_1">
      <path d="M60,120 C93.137,120 120,93.137 120,60 C120,26.863 93.137,0 60,0 C26.863,0 0,26.863 0,60 C0,93.137 26.863,120 60,120 z"/>
    </clipPath>
    <clipPath id="Clip_2">
      <path d="M0,120 L120,120 L120,0 L0,0 z"/>
    </clipPath>
    <clipPath id="Clip_3">
      <path d="M60,0 C93.137,0 120,26.863 120,60 C120,93.137 93.137,120 60,120 C26.863,120 0,93.137 0,60 C0,26.863 26.863,0 60,0 z"/>
    </clipPath>
  </defs>
  <g id="Layer_1">
    <g clip-path="url(#Clip_3)">
      <g>
        <g clip-path="url(#Clip_1)">
          <path d="M60,120 C93.137,120 120,93.137 120,60 C120,26.863 93.137,0 60,0 C26.863,0 0,26.863 0,60 C0,93.137 26.863,120 60,120 z" fill="#FFFFFF"/>
        </g>
        <g clip-path="url(#Clip_2)">
          <path d="M60,120 C93.137,120 120,93.137 120,60 C120,26.863 93.137,0 60,0 C26.863,0 0,26.863 0,60 C0,93.137 26.863,120 60,120 z" fill-opacity="0" stroke="#0073d2" stroke-width="10"/>
        </g>
      </g>
    </g>
    <g>
      <path d="M87.455,65.13 L87.455,63.418 C87.455,58.509 83.476,54.529 78.567,54.529 C73.658,54.529 69.678,58.509 69.678,63.418 L69.678,65.13 C67.595,65.511 66.081,67.325 66.079,69.442 L66.079,82.611 C66.079,85.035 68.044,87 70.468,87 L86.61,87 C89.035,87 91,85.035 91,82.611 L91,69.442 C91.002,67.342 89.516,65.534 87.455,65.13 z M71.774,63.418 C71.774,59.684 74.8,56.658 78.534,56.658 C82.267,56.658 85.293,59.684 85.293,63.418 L85.293,65.053 L71.774,65.053 z M88.893,82.611 C88.887,83.867 87.867,84.882 86.61,84.882 L70.457,84.882 C69.201,84.882 68.181,83.867 68.175,82.611 L68.175,69.442 C68.181,68.186 69.201,67.171 70.457,67.171 L86.61,67.171 C87.867,67.171 88.887,68.186 88.893,69.442 z" fill="#12100B"/>
      <path d="M76.964,79.593 L73.947,74.797 C73.877,74.686 73.765,74.608 73.637,74.581 C73.509,74.555 73.375,74.581 73.266,74.655 C73.044,74.811 72.981,75.114 73.124,75.346 L76.482,80.734 C76.57,80.868 76.716,80.953 76.877,80.965 L76.877,80.965 C77.029,80.963 77.171,80.89 77.261,80.767 L83.845,71.889 C84.01,71.668 83.966,71.355 83.746,71.187 C83.643,71.109 83.513,71.076 83.385,71.094 C83.257,71.113 83.142,71.182 83.066,71.286" fill="#12100B"/>
      <path d="M82.781,32 L31.665,32 C29.155,31.994 27.112,34.021 27.1,36.532 L27.1,69.124 C27.092,70.338 27.569,71.506 28.427,72.366 C29.285,73.225 30.451,73.706 31.665,73.7 L62.666,73.7 C63.112,73.821 63.586,73.65 63.852,73.271 C64.117,72.893 64.117,72.389 63.852,72.011 C63.586,71.632 63.112,71.461 62.666,71.582 L31.665,71.582 C31.021,71.588 30.402,71.336 29.944,70.883 C29.487,70.429 29.229,69.812 29.229,69.168 L29.229,50.963 L85.261,50.963 L85.261,53.366 C85.139,53.812 85.311,54.286 85.689,54.552 C86.067,54.817 86.572,54.817 86.95,54.552 C87.328,54.286 87.5,53.812 87.378,53.366 L87.378,36.532 C87.373,35.321 86.884,34.161 86.021,33.311 C85.158,32.46 83.992,31.989 82.781,32 z M29.229,36.532 C29.235,35.193 30.326,34.112 31.665,34.118 L82.781,34.118 C83.43,34.106 84.058,34.355 84.524,34.808 C84.99,35.262 85.255,35.882 85.261,36.532 L85.261,40.779 L29.295,40.779 z" fill="#12100B"/>
      <path d="M33.004,56.076 C32.558,55.955 32.084,56.126 31.818,56.505 C31.553,56.883 31.553,57.387 31.818,57.766 C32.084,58.144 32.558,58.315 33.004,58.194 L51.714,58.194 C52.16,58.315 52.635,58.144 52.9,57.766 C53.166,57.387 53.166,56.883 52.9,56.505 C52.635,56.126 52.16,55.955 51.714,56.076 z" fill="#12100B"/>
    </g>
  </g>
</svg>
