<?xml version="1.0" encoding="UTF-8"?>
<!DOCTYPE svg PUBLIC "-//W3C//DTD SVG 1.1//EN" "http://www.w3.org/Graphics/SVG/1.1/DTD/svg11.dtd">
<svg version="1.1" xmlns="http://www.w3.org/2000/svg" xmlns:xlink="http://www.w3.org/1999/xlink" x="0" y="0" width="120" height="120" viewBox="0, 0, 120, 120">
  <defs>
    <clipPath id="Clip_1">
      <path d="M60,120 C93.137,120 120,93.137 120,60 C120,26.863 93.137,0 60,0 C26.863,0 0,26.863 0,60 C0,93.137 26.863,120 60,120 z"/>
    </clipPath>
    <clipPath id="Clip_2">
      <path d="M0,120 L120,120 L120,0 L0,0 z"/>
    </clipPath>
    <clipPath id="Clip_3">
      <path d="M60,0 C93.137,0 120,26.863 120,60 C120,93.137 93.137,120 60,120 C26.863,120 0,93.137 0,60 C0,26.863 26.863,0 60,0 z"/>
    </clipPath>
    <clipPath id="Clip_4">
      <path d="M60.001,33 C67.574,33 73.714,39.139 73.714,46.714 C73.714,54.288 67.574,60.429 60.001,60.428 C52.426,60.429 46.286,54.288 46.286,46.714 C46.286,39.139 52.426,33 60.001,33 z M60.001,36.225 C54.208,36.225 49.513,40.921 49.513,46.714 C49.513,52.506 54.208,57.2 60.001,57.2 C65.792,57.2 70.488,52.506 70.488,46.714 C70.488,40.921 65.792,36.225 60.001,36.225 z"/>
    </clipPath>
    <clipPath id="Clip_5">
      <path d="M69.946,65.571 C78.97,65.571 86.286,72.9 86.286,81.94 L86.286,87 L34.001,87 L34,81.94 C34,72.9 41.316,65.571 50.338,65.571 L69.946,65.571 z M69.946,68.844 L50.338,68.844 C43.12,68.844 37.268,74.708 37.268,81.94 L37.268,83.736 L83.018,83.736 L83.018,81.94 C83.018,74.708 77.166,68.844 69.946,68.844 z"/>
    </clipPath>
  </defs>
  <g id="Layer_1">
    <g clip-path="url(#Clip_3)">
      <g>
        <g clip-path="url(#Clip_1)">
          <path d="M60,120 C93.137,120 120,93.137 120,60 C120,26.863 93.137,0 60,0 C26.863,0 0,26.863 0,60 C0,93.137 26.863,120 60,120 z" fill="#FFFFFF"/>
        </g>
        <g clip-path="url(#Clip_2)">
          <path d="M60,120 C93.137,120 120,93.137 120,60 C120,26.863 93.137,0 60,0 C26.863,0 0,26.863 0,60 C0,93.137 26.863,120 60,120 z" fill-opacity="0" stroke="#0073d2" stroke-width="10"/>
        </g>
      </g>
    </g>
    <g clip-path="url(#Clip_4)">
      <path d="M41.286,28 L78.714,28 L78.714,65.429 L41.286,65.429 z" fill="#333333"/>
    </g>
    <g clip-path="url(#Clip_5)">
      <path d="M29,60.571 L91.286,60.571 L91.286,92 L29,92 z" fill="#333333"/>
    </g>
  </g>
</svg>
