<?xml version="1.0" encoding="UTF-8"?>
<!DOCTYPE svg PUBLIC "-//W3C//DTD SVG 1.1//EN" "http://www.w3.org/Graphics/SVG/1.1/DTD/svg11.dtd">
<svg version="1.1" xmlns="http://www.w3.org/2000/svg" xmlns:xlink="http://www.w3.org/1999/xlink" x="0" y="0" width="600" height="126" viewBox="0, 0, 600, 126">
  <defs>
    <clipPath id="Clip_1">
      <path d="M155.494,21.773 C163.21,21.773 169.845,26.65 170.219,33.943 C170.243,34.412 169.984,34.67 169.54,34.67 L168.343,34.67 C167.921,34.67 167.663,34.412 167.64,33.989 C167.289,28.456 162.387,24.212 155.494,24.212 C148.061,24.212 143.512,28.643 143.512,34.037 C143.512,41.119 149.936,43.205 156.689,45.738 C164.005,48.575 171.743,51.084 171.743,59.877 C171.743,67.591 164.966,72.516 156.525,72.516 L156.526,72.517 C147.052,72.517 140.018,67.757 139.643,59.526 C139.62,59.057 139.88,58.799 140.324,58.799 L141.519,58.799 C141.942,58.799 142.201,59.057 142.223,59.502 C142.597,65.904 147.85,70.077 156.526,70.077 C164.171,70.077 169.165,65.763 169.165,59.877 C169.165,52.843 162.88,50.615 156.292,48.153 C148.882,45.386 140.934,43.088 140.934,34.037 C140.934,26.815 147.265,21.773 155.494,21.773 z"/>
    </clipPath>
    <clipPath id="Clip_2">
      <path d="M206.214,22.524 C206.66,22.524 206.918,22.783 206.918,23.228 L206.917,24.213 C206.918,24.657 206.66,24.915 206.214,24.915 L192.497,24.915 L192.497,71.062 C192.498,71.507 192.24,71.766 191.794,71.766 L190.62,71.766 C190.176,71.766 189.918,71.507 189.918,71.062 L189.917,24.915 L176.199,24.915 C175.755,24.915 175.497,24.657 175.497,24.213 L175.497,23.228 C175.497,22.783 175.755,22.524 176.2,22.524 L206.214,22.524 z"/>
    </clipPath>
    <clipPath id="Clip_3">
      <path d="M241.037,22.525 C241.482,22.525 241.74,22.783 241.74,23.228 L241.74,24.213 C241.74,24.658 241.482,24.916 241.037,24.916 L217.941,24.916 L217.941,45.739 L239.278,45.739 C239.723,45.739 239.981,45.997 239.981,46.442 L239.981,47.426 C239.981,47.871 239.723,48.13 239.278,48.13 L217.941,48.13 L217.941,69.375 L241.388,69.375 C241.834,69.375 242.092,69.633 242.092,70.077 L242.092,71.062 C242.092,71.508 241.834,71.766 241.388,71.766 L216.065,71.766 C215.619,71.766 215.362,71.508 215.362,71.062 L215.362,23.228 C215.362,22.783 215.619,22.525 216.065,22.525 L241.037,22.525 z"/>
    </clipPath>
    <clipPath id="Clip_4">
      <path d="M253.817,22.525 C254.263,22.525 254.521,22.783 254.521,23.229 L254.521,69.375 L277.734,69.375 C278.179,69.375 278.438,69.633 278.438,70.077 L278.438,71.062 C278.438,71.508 278.179,71.766 277.734,71.766 L252.645,71.766 C252.2,71.766 251.942,71.508 251.942,71.062 L251.942,23.229 C251.942,22.783 252.2,22.525 252.645,22.525 L253.817,22.525 z"/>
    </clipPath>
    <clipPath id="Clip_5">
      <path d="M288.78,22.525 C289.226,22.525 289.484,22.783 289.484,23.229 L289.484,69.375 L312.697,69.375 C313.142,69.375 313.401,69.633 313.401,70.077 L313.401,71.062 C313.401,71.508 313.142,71.766 312.697,71.766 L287.608,71.766 C287.163,71.766 286.905,71.508 286.905,71.062 L286.905,23.229 C286.905,22.783 287.163,22.525 287.608,22.525 L288.78,22.525 z"/>
    </clipPath>
    <clipPath id="Clip_6">
      <path d="M338.224,22.524 C338.618,22.524 338.89,22.723 339.033,23.084 L357.799,70.955 L357.8,70.954 C357.983,71.447 357.77,71.766 357.241,71.766 L355.996,71.766 C355.602,71.766 355.33,71.567 355.186,71.207 L350.347,58.775 L324.481,58.775 L319.642,71.207 C319.498,71.567 319.226,71.766 318.833,71.766 L317.586,71.766 C317.059,71.766 316.845,71.447 317.027,70.955 L335.793,23.084 C335.936,22.723 336.21,22.524 336.602,22.524 L338.224,22.524 z M337.414,25.549 L325.412,56.383 L349.417,56.383 L337.414,25.549 z"/>
    </clipPath>
    <clipPath id="Clip_7">
      <path d="M370.806,22.525 C371.722,22.525 372.495,22.876 372.988,23.65 L389.8,49.96 L389.8,24.283 C389.8,23.158 390.433,22.525 391.558,22.525 L399.297,22.525 C400.421,22.525 401.055,23.158 401.055,24.283 L401.055,70.008 C401.055,71.133 400.421,71.766 399.297,71.766 L394.02,71.766 C393.106,71.766 392.332,71.415 391.839,70.64 L375.028,44.332 L375.028,70.008 C375.028,71.133 374.394,71.766 373.268,71.766 L365.531,71.766 C364.405,71.766 363.772,71.133 363.772,70.008 L363.772,24.283 C363.772,23.158 364.405,22.525 365.531,22.525 L370.806,22.525 z"/>
    </clipPath>
    <clipPath id="Clip_8">
      <path d="M434.12,22.524 C435.104,22.524 435.878,23.016 436.159,24.001 L451.072,69.795 C451.494,71.062 450.861,71.766 449.595,71.766 L440.943,71.766 C439.958,71.766 439.254,71.343 438.973,70.288 L437.122,64.028 L419.861,64.028 L418.01,70.288 C417.729,71.343 417.025,71.766 416.04,71.766 L407.389,71.766 C406.122,71.766 405.488,71.062 405.91,69.795 L420.824,24.001 C421.105,23.016 421.878,22.524 422.864,22.524 L434.12,22.524 z M428.492,34.835 L422.98,53.476 L434.002,53.476 L428.492,34.835 z"/>
    </clipPath>
    <clipPath id="Clip_9">
      <path d="M480.899,22.525 C482.025,22.525 482.658,23.158 482.658,24.283 L482.658,31.598 C482.658,32.724 482.025,33.358 480.899,33.358 L471.403,33.358 L471.403,70.008 C471.403,71.133 470.769,71.766 469.645,71.766 L461.906,71.766 C460.782,71.766 460.148,71.133 460.148,70.008 L460.148,33.358 L450.652,33.358 C449.526,33.358 448.893,32.724 448.893,31.598 L448.893,24.283 C448.893,23.158 449.526,22.525 450.652,22.525 L480.899,22.525 z"/>
    </clipPath>
    <clipPath id="Clip_10">
      <path d="M497.08,22.525 C498.206,22.525 498.84,23.158 498.84,24.283 L498.84,70.008 C498.84,71.133 498.206,71.766 497.08,71.766 L489.343,71.766 C488.217,71.766 487.584,71.133 487.584,70.008 L487.584,24.283 C487.584,23.158 488.217,22.525 489.343,22.525 L497.08,22.525 z"/>
    </clipPath>
    <clipPath id="Clip_11">
      <path d="M530.777,21.54 C544.917,21.54 556.383,32.655 556.383,47.145 C556.383,61.636 544.917,72.751 530.777,72.751 C516.638,72.751 505.172,61.636 505.172,47.145 C505.172,32.655 516.638,21.54 530.777,21.54 z M530.777,32.514 C522.758,32.514 516.427,38.353 516.427,47.145 C516.427,55.938 522.758,61.777 530.777,61.777 C538.796,61.777 545.128,55.938 545.128,47.145 C545.128,38.353 538.796,32.514 530.777,32.514 z"/>
    </clipPath>
    <clipPath id="Clip_12">
      <path d="M572.213,71.766 C573.339,71.766 573.973,71.133 573.973,70.008 L573.973,44.332 L590.785,70.64 C591.278,71.415 592.051,71.766 592.965,71.766 L598.242,71.766 C599.504,71.701 599.823,71.148 600,70.012 L600,24.279 C599.934,23.015 599.377,22.701 598.242,22.525 L590.503,22.525 C589.378,22.525 588.745,23.158 588.745,24.283 L588.745,49.96 L571.933,23.65 C571.44,22.876 570.667,22.525 569.753,22.525 L564.476,22.525 C563.35,22.525 562.717,23.158 562.717,24.283 L562.717,70.008 C562.717,71.133 563.35,71.766 564.476,71.766 L572.213,71.766 z"/>
    </clipPath>
    <clipPath id="Clip_13">
      <path d="M600,22.525 L600,71.766 L562.717,71.766 L562.717,22.525 L600,22.525 z"/>
    </clipPath>
    <clipPath id="Clip_14">
      <path d="M140.284,86.135 C140.447,86.135 140.539,86.228 140.539,86.389 L140.539,94.624 C141.544,92.415 143.685,90.94 146.327,90.94 C149.972,90.94 152.926,93.817 152.926,97.556 C152.926,101.296 149.972,104.172 146.327,104.172 C143.685,104.172 141.544,102.699 140.539,100.488 L140.539,103.648 C140.539,103.808 140.447,103.902 140.284,103.902 L139.897,103.902 C139.735,103.902 139.643,103.808 139.643,103.648 L139.643,86.389 C139.643,86.228 139.735,86.135 139.897,86.135 L140.284,86.135 z M146.284,91.786 C143.06,91.786 140.539,94.316 140.539,97.556 C140.539,100.797 143.06,103.327 146.284,103.327 C149.508,103.327 152.029,100.797 152.029,97.556 C152.029,94.316 149.508,91.786 146.284,91.786 z"/>
    </clipPath>
    <clipPath id="Clip_15">
      <path d="M171.863,90.94 C174.419,90.94 176.432,92.539 176.432,95.483 L176.432,103.647 C176.432,103.808 176.34,103.902 176.179,103.902 L175.79,103.902 C175.629,103.902 175.535,103.808 175.535,103.647 L175.535,102.241 C174.766,103.631 173.156,104.172 171.33,104.172 C168.928,104.172 166.787,102.827 166.787,100.255 C166.787,97.683 168.928,96.338 171.33,96.338 C173.175,96.338 174.751,96.986 175.535,98.251 L175.535,95.483 C175.535,93.03 173.911,91.786 171.863,91.786 C169.883,91.786 168.344,92.844 168.209,94.731 C168.183,94.883 168.099,94.976 167.946,94.976 L167.558,94.976 C167.397,94.976 167.295,94.883 167.303,94.714 C167.447,92.488 169.241,90.94 171.863,90.94 z M171.467,97.167 C169.089,97.167 167.684,98.419 167.684,100.255 C167.684,102.091 169.089,103.343 171.467,103.343 L171.467,103.344 C173.666,103.344 175.535,102.429 175.535,100.255 C175.535,98.047 173.581,97.167 171.467,97.167 z"/>
    </clipPath>
    <clipPath id="Clip_16">
      <path d="M195.779,90.94 C198.248,90.94 199.924,92.311 200.059,94.29 C200.067,94.461 199.966,94.553 199.805,94.553 L199.416,94.553 C199.264,94.553 199.179,94.461 199.154,94.307 C199.028,92.692 197.606,91.786 195.779,91.786 C193.807,91.786 192.318,92.675 192.318,94.35 C192.318,98.334 200.388,95.864 200.388,100.763 C200.388,102.759 198.579,104.173 195.779,104.173 C193.08,104.173 191.311,102.802 191.176,100.823 C191.167,100.653 191.268,100.56 191.43,100.56 L191.818,100.56 C191.971,100.56 192.056,100.653 192.082,100.805 C192.208,102.421 193.722,103.327 195.779,103.327 C197.919,103.327 199.492,102.438 199.492,100.763 C199.492,96.694 191.422,99.165 191.422,94.35 C191.422,92.354 193.147,90.94 195.779,90.94 z"/>
    </clipPath>
    <clipPath id="Clip_17">
      <path d="M216.138,86.136 C216.303,86.136 216.392,86.225 216.392,86.389 L216.392,97.057 L223.079,91.334 C223.172,91.248 223.261,91.212 223.388,91.212 L223.96,91.212 C224.193,91.212 224.253,91.367 224.074,91.527 L217.322,97.303 L224.342,103.587 L224.341,103.587 C224.511,103.74 224.449,103.902 224.218,103.902 L223.643,103.902 C223.514,103.902 223.426,103.866 223.334,103.778 L216.392,97.561 L216.392,103.649 C216.392,103.813 216.303,103.902 216.138,103.902 L215.748,103.902 C215.584,103.902 215.494,103.813 215.494,103.649 L215.494,86.389 C215.494,86.225 215.584,86.136 215.748,86.136 L216.138,86.136 z"/>
    </clipPath>
    <clipPath id="Clip_18">
      <path d="M243.309,90.941 C247.158,90.941 249.441,94.13 249.441,97.608 L249.441,97.794 C249.433,97.959 249.336,98.039 249.18,98.039 L237.859,98.039 C238.066,101.215 240.321,103.327 243.385,103.327 C245.546,103.327 247.247,102.29 247.936,100.746 C248.005,100.624 248.094,100.561 248.236,100.561 L248.687,100.561 C248.877,100.561 248.975,100.66 248.914,100.811 C248.11,102.83 246.015,104.172 243.376,104.172 C239.578,104.172 236.946,101.389 236.946,97.557 C236.946,93.826 239.492,90.941 243.309,90.941 z M243.309,91.787 C240.211,91.787 238.008,94.018 237.852,97.193 L248.549,97.193 C248.328,93.847 246.1,91.787 243.309,91.787 z"/>
    </clipPath>
    <clipPath id="Clip_19">
      <path d="M266.164,87.15 C266.326,87.151 266.419,87.244 266.419,87.405 L266.419,91.211 L269.075,91.211 C269.235,91.212 269.329,91.305 269.329,91.466 L269.329,91.803 C269.329,91.965 269.235,92.058 269.075,92.058 L266.419,92.057 L266.419,103.648 C266.419,103.809 266.326,103.903 266.164,103.903 L265.776,103.902 C265.615,103.903 265.522,103.809 265.522,103.649 L265.522,92.057 L262.857,92.057 C262.696,92.058 262.603,91.965 262.603,91.804 L262.603,91.465 C262.603,91.305 262.696,91.212 262.857,91.212 L265.522,91.211 L265.522,87.404 C265.522,87.244 265.615,87.151 265.776,87.151 L266.164,87.15 z"/>
    </clipPath>
    <clipPath id="Clip_20">
      <path d="M284.426,86.135 C284.588,86.135 284.681,86.228 284.681,86.389 L284.681,94.624 C285.686,92.415 287.827,90.94 290.469,90.94 C294.114,90.94 297.067,93.817 297.067,97.556 C297.067,101.296 294.114,104.172 290.469,104.172 C287.827,104.172 285.686,102.699 284.681,100.488 L284.681,103.648 C284.681,103.808 284.588,103.902 284.426,103.902 L284.039,103.902 C283.877,103.902 283.784,103.808 283.784,103.648 L283.784,86.389 C283.784,86.228 283.877,86.135 284.039,86.135 L284.426,86.135 z M290.426,91.786 C287.202,91.786 284.681,94.316 284.681,97.556 C284.681,100.797 287.202,103.327 290.426,103.327 C293.65,103.327 296.171,100.797 296.171,97.556 C296.171,94.316 293.65,91.786 290.426,91.786 z"/>
    </clipPath>
    <clipPath id="Clip_21">
      <path d="M316.005,90.94 C318.561,90.94 320.575,92.539 320.575,95.483 L320.575,103.647 C320.575,103.808 320.48,103.902 320.32,103.902 L319.93,103.902 C319.77,103.902 319.678,103.808 319.678,103.647 L319.678,102.241 C318.907,103.631 317.299,104.172 315.472,104.172 C313.069,104.172 310.929,102.827 310.929,100.255 C310.929,97.683 313.069,96.338 315.472,96.338 C317.317,96.338 318.892,96.986 319.676,98.251 L319.676,95.483 C319.676,93.03 318.051,91.786 316.004,91.786 C314.025,91.786 312.484,92.844 312.349,94.731 C312.324,94.883 312.24,94.976 312.088,94.976 L311.698,94.976 C311.538,94.976 311.437,94.883 311.444,94.714 C311.589,92.488 313.382,90.94 316.005,90.94 z M315.607,97.167 C313.23,97.167 311.826,98.419 311.826,100.255 C311.826,102.091 313.23,103.343 315.607,103.343 L315.607,103.344 C317.808,103.344 319.676,102.429 319.676,100.255 C319.676,98.047 317.722,97.167 315.607,97.167 z"/>
    </clipPath>
    <clipPath id="Clip_22">
      <path d="M336.755,85.627 C336.915,85.627 337.01,85.721 337.01,85.882 L337.01,103.648 C337.01,103.808 336.915,103.902 336.755,103.902 L336.365,103.902 C336.205,103.902 336.113,103.808 336.113,103.648 L336.113,85.882 C336.113,85.721 336.205,85.627 336.365,85.627 L336.755,85.627 z"/>
    </clipPath>
    <clipPath id="Clip_23">
      <path d="M353.553,85.627 C353.715,85.627 353.807,85.721 353.807,85.882 L353.807,103.648 C353.807,103.808 353.715,103.902 353.553,103.902 L353.165,103.902 C353.003,103.902 352.911,103.808 352.911,103.648 L352.911,85.882 C352.911,85.721 353.003,85.627 353.165,85.627 L353.553,85.627 z"/>
    </clipPath>
    <clipPath id="Clip_24">
      <path d="M393.675,91.051 C393.835,91.043 393.927,91.136 393.927,91.297 L393.927,91.635 C393.927,91.787 393.868,91.888 393.751,91.888 C391.492,91.965 389.462,93.589 389.462,96.846 L389.462,103.649 C389.462,103.809 389.367,103.902 389.207,103.902 L388.818,103.902 C388.657,103.902 388.565,103.809 388.565,103.649 L388.565,91.466 C388.565,91.305 388.657,91.212 388.818,91.212 L389.207,91.212 C389.367,91.212 389.462,91.305 389.462,91.466 L389.462,93.975 C390.268,91.95 391.988,91.118 393.675,91.051 z"/>
    </clipPath>
    <clipPath id="Clip_25">
      <path d="M413.055,90.941 C416.903,90.941 419.187,94.13 419.187,97.608 L419.187,97.794 C419.18,97.959 419.081,98.039 418.926,98.039 L407.605,98.039 C407.812,101.215 410.067,103.327 413.131,103.327 C415.292,103.327 416.993,102.29 417.682,100.746 C417.749,100.624 417.84,100.561 417.982,100.561 L418.432,100.561 C418.624,100.561 418.721,100.66 418.66,100.811 C417.855,102.83 415.76,104.172 413.122,104.172 C409.324,104.172 406.692,101.389 406.692,97.557 C406.692,93.826 409.238,90.941 413.055,90.941 z M413.055,91.787 C409.957,91.787 407.753,94.018 407.598,97.193 L418.295,97.193 C418.074,93.847 415.846,91.787 413.055,91.787 z"/>
    </clipPath>
    <clipPath id="Clip_26">
      <path d="M432.7,91.211 C432.842,91.211 432.939,91.274 432.993,91.412 L437.695,102.925 L442.396,91.412 C442.448,91.274 442.548,91.211 442.687,91.211 L443.102,91.211 C443.284,91.211 443.37,91.327 443.302,91.505 L438.296,103.702 C438.244,103.84 438.145,103.902 438.006,103.902 L437.384,103.902 C437.242,103.902 437.145,103.831 437.091,103.702 L432.085,91.505 C432.017,91.327 432.103,91.211 432.285,91.211 L432.7,91.211 z"/>
    </clipPath>
    <clipPath id="Clip_27">
      <path d="M463.047,90.94 C466.735,90.94 469.688,93.817 469.688,97.556 C469.688,101.296 466.735,104.172 463.047,104.172 C459.359,104.172 456.405,101.296 456.405,97.556 C456.405,93.817 459.359,90.94 463.047,90.94 z M463.047,91.786 C459.823,91.786 457.302,94.316 457.302,97.556 C457.302,100.797 459.823,103.326 463.047,103.326 C466.271,103.326 468.792,100.797 468.792,97.556 C468.792,94.316 466.271,91.786 463.047,91.786 z"/>
    </clipPath>
    <clipPath id="Clip_28">
      <path d="M485.31,85.627 C485.471,85.627 485.565,85.721 485.565,85.882 L485.565,103.648 C485.565,103.808 485.471,103.902 485.311,103.902 L484.921,103.902 C484.761,103.902 484.669,103.808 484.669,103.648 L484.668,85.882 C484.669,85.721 484.761,85.627 484.921,85.627 L485.31,85.627 z"/>
    </clipPath>
    <clipPath id="Clip_29">
      <path d="M501.754,91.212 C501.914,91.212 502.007,91.305 502.007,91.465 L502.006,99.68 C502.007,102.007 503.419,103.327 505.443,103.327 C507.676,103.327 509.776,101.719 509.776,98.369 L509.775,91.465 C509.776,91.305 509.867,91.212 510.027,91.212 L510.417,91.212 C510.577,91.212 510.672,91.305 510.672,91.465 L510.671,103.647 C510.672,103.809 510.577,103.903 510.418,103.903 L510.027,103.903 C509.867,103.903 509.776,103.809 509.776,103.648 L509.775,101.368 C508.867,103.405 507.078,104.173 505.341,104.173 C502.98,104.173 501.109,102.599 501.109,99.68 L501.109,91.465 C501.109,91.305 501.204,91.212 501.365,91.212 L501.754,91.212 z"/>
    </clipPath>
    <clipPath id="Clip_30">
      <path d="M528.688,87.15 C528.848,87.151 528.94,87.244 528.94,87.405 L528.94,91.211 L531.597,91.211 C531.759,91.212 531.851,91.305 531.851,91.466 L531.851,91.803 C531.851,91.965 531.759,92.058 531.597,92.058 L528.94,92.057 L528.94,103.648 C528.94,103.809 528.848,103.903 528.688,103.903 L528.298,103.902 C528.138,103.903 528.044,103.809 528.044,103.649 L528.044,92.057 L525.378,92.057 C525.219,92.058 525.126,91.965 525.126,91.804 L525.126,91.465 C525.126,91.305 525.219,91.212 525.378,91.212 L528.044,91.211 L528.044,87.404 C528.044,87.244 528.138,87.151 528.298,87.151 L528.688,87.15 z"/>
    </clipPath>
    <clipPath id="Clip_31">
      <path d="M546.95,91.211 C547.11,91.211 547.205,91.304 547.205,91.465 L547.205,103.648 C547.205,103.808 547.11,103.902 546.95,103.902 L546.56,103.902 C546.4,103.902 546.308,103.808 546.308,103.648 L546.308,91.465 C546.308,91.304 546.4,91.211 546.56,91.211 L546.95,91.211 z M546.95,86.135 C547.11,86.135 547.205,86.229 547.205,86.389 L547.205,88.419 C547.205,88.581 547.11,88.673 546.95,88.673 L546.56,88.673 C546.4,88.673 546.308,88.581 546.308,88.419 L546.308,86.389 C546.308,86.229 546.4,86.135 546.56,86.135 L546.95,86.135 z"/>
    </clipPath>
    <clipPath id="Clip_32">
      <path d="M568.817,90.94 C572.507,90.94 575.459,93.817 575.459,97.556 C575.459,101.296 572.507,104.172 568.817,104.172 C565.129,104.172 562.178,101.296 562.178,97.556 C562.178,93.817 565.129,90.94 568.817,90.94 z M568.817,91.786 C565.596,91.786 563.075,94.316 563.075,97.556 C563.075,100.797 565.596,103.326 568.817,103.326 C572.041,103.326 574.562,100.797 574.562,97.556 C574.562,94.316 572.041,91.786 568.817,91.786 z"/>
    </clipPath>
    <clipPath id="Clip_33">
      <path d="M591.081,103.902 C591.243,103.902 591.335,103.808 591.335,103.648 L591.335,96.744 C591.335,93.394 593.433,91.787 595.667,91.787 C597.688,91.787 599.103,93.107 599.103,95.433 L599.103,103.648 C599.103,103.809 599.196,103.902 599.355,103.902 L599.745,103.902 C599.905,103.902 600,103.809 600,103.648 L600,95.433 C600,92.514 598.13,90.94 595.769,90.94 C594.032,90.94 592.243,91.707 591.335,93.744 L591.335,91.465 C591.335,91.304 591.243,91.211 591.081,91.211 L590.693,91.211 C590.531,91.211 590.438,91.304 590.438,91.465 L590.438,103.648 C590.438,103.808 590.531,103.902 590.693,103.902 L591.081,103.902 z"/>
    </clipPath>
    <clipPath id="Clip_34">
      <path d="M600,90.94 L600,103.902 L590.438,103.902 L590.438,90.94 L600,90.94 z"/>
    </clipPath>
    <clipPath id="Clip_35">
      <path d="M62.921,10.173 C65.418,10.173 67.59,11.526 68.59,13.704 L80.892,39.795 C81.311,40.685 82.143,41.31 83.114,41.464 C83.114,41.464 109.954,45.736 110.382,45.803 C111.616,45.967 112.799,46.563 113.753,47.519 C114.995,48.714 115.666,50.287 115.683,51.984 C115.69,52.958 115.469,54.825 113.887,56.407 L93.88,76.819 C93.22,77.493 92.917,78.451 93.069,79.38 L97.779,108.175 C97.945,109.604 97.697,110.939 97.058,112.271 L96.958,112.46 C95.854,114.359 93.772,115.54 91.524,115.54 C90.46,115.54 89.449,115.283 88.518,114.776 L64.362,101.414 C63.487,100.932 62.373,100.928 61.493,101.409 L37.19,114.718 C36.196,115.33 34.818,115.574 33.314,115.397 L33.162,115.375 C31.556,115.091 30.143,114.205 29.182,112.878 C28.18,111.494 27.777,109.811 28.049,108.138 L32.773,79.247 C32.926,78.319 32.625,77.364 31.97,76.692 L12.063,56.246 C11.003,55.056 10.399,53.858 10.232,52.69 C9.762,49.206 12.114,46.063 15.583,45.516 L42.7,41.469 C43.684,41.322 44.524,40.699 44.95,39.801 C44.95,39.801 57.119,14.125 57.299,13.741 C58.272,11.528 60.382,10.173 62.921,10.173 z M62.921,15.584 C62.439,15.584 62.313,15.777 62.226,15.976 C62.205,16.024 62.189,16.061 49.839,42.118 C48.64,44.649 46.27,46.407 43.499,46.82 L16.405,50.864 C15.888,50.946 15.521,51.422 15.592,51.945 C15.602,51.962 15.717,52.215 16.026,52.563 L35.846,72.917 C37.694,74.814 38.542,77.507 38.113,80.12 L33.389,109.008 C33.35,109.25 33.411,109.492 33.565,109.705 C33.688,109.874 33.848,109.984 34.04,110.033 C34.227,110.047 34.413,110.04 34.49,110.028 C34.567,109.982 34.649,109.936 34.731,109.892 L58.894,96.662 C60.126,95.988 61.518,95.632 62.921,95.632 C64.337,95.632 65.741,95.994 66.979,96.679 L91.121,110.032 C91.462,110.218 92.004,110.112 92.235,109.807 C92.349,109.545 92.455,109.21 92.421,108.919 L87.729,80.255 C87.3,77.632 88.155,74.931 90.017,73.032 L110.041,52.602 C110.203,52.44 110.274,52.255 110.271,52.032 C110.27,51.797 110.191,51.601 110.037,51.454 L109.922,51.341 C109.761,51.178 109.663,51.166 109.616,51.159 C109.577,51.154 109.546,51.151 82.264,46.808 C79.524,46.372 77.181,44.613 75.998,42.103 L63.684,15.985 C63.564,15.725 63.283,15.584 62.921,15.584 z"/>
    </clipPath>
    <clipPath id="Clip_36">
      <path d="M62.921,-0 C68.795,-0 74.147,3.389 76.555,8.634 L87.796,32.478 C87.894,32.685 88.076,32.823 88.295,32.859 C89.771,33.094 90.776,34.481 90.541,35.956 C90.306,37.431 88.925,38.44 87.443,38.202 C85.459,37.886 83.761,36.608 82.902,34.785 L71.649,10.917 C70.109,7.562 66.687,5.41 62.921,5.41 C59.118,5.41 55.796,7.524 54.251,10.927 C53.888,11.698 50.946,17.906 47.982,24.16 L42.955,34.77 C42.086,36.603 40.366,37.877 38.352,38.177 L13.629,41.866 C8.365,42.699 4.786,47.521 5.502,52.84 C5.757,54.642 6.644,56.451 8.066,58.052 L8.205,58.21 L26.585,77.082 C27.927,78.46 28.542,80.416 28.231,82.316 L23.865,109.01 C23.286,112.591 24.729,116.118 27.728,118.443 C28.765,119.246 30.083,119.795 31.647,120.072 L32.061,120.135 C34.266,120.388 36.343,120.01 38.018,119.015 L59.98,106.989 C61.822,105.981 64.017,105.986 65.854,107.003 L87.784,119.131 C89.183,119.895 90.78,120.302 92.391,120.302 C93.885,120.302 95.097,121.513 95.097,123.008 C95.097,124.502 93.885,125.713 92.391,125.713 C89.876,125.713 87.381,125.076 85.178,123.872 L63.235,111.737 C63.03,111.624 62.785,111.624 62.579,111.735 L40.698,123.715 C38.128,125.242 34.813,125.901 31.439,125.51 L30.7,125.399 C28.266,124.967 26.149,124.066 24.413,122.719 C19.825,119.162 17.623,113.713 18.524,108.141 L22.892,81.442 C22.927,81.228 22.858,81.01 22.708,80.857 L4.013,61.637 C1.89,59.245 0.549,56.456 0.142,53.58 C-0.974,45.305 4.59,37.819 12.807,36.518 L37.554,32.825 C37.783,32.791 37.969,32.655 38.064,32.453 L43.092,21.843 C46.055,15.591 48.995,9.386 49.342,8.653 C51.758,3.33 56.968,-0 62.921,-0 z"/>
    </clipPath>
  </defs>
  <g id="Layer_1">
    <g clip-path="url(#Clip_1)">
      <path d="M134.642,16.773 L176.743,16.773 L176.743,77.517 L134.642,77.517 z" fill="#FFFFFF"/>
    </g>
    <g clip-path="url(#Clip_2)">
      <path d="M170.497,17.524 L211.918,17.524 L211.918,76.766 L170.497,76.766 z" fill="#FFFFFF"/>
    </g>
    <g clip-path="url(#Clip_3)">
      <path d="M210.362,17.525 L247.092,17.525 L247.092,76.766 L210.362,76.766 z" fill="#FFFFFF"/>
    </g>
    <g clip-path="url(#Clip_4)">
      <path d="M246.942,17.525 L283.438,17.525 L283.438,76.766 L246.942,76.766 z" fill="#FFFFFF"/>
    </g>
    <g clip-path="url(#Clip_5)">
      <path d="M281.905,17.525 L318.401,17.525 L318.401,76.766 L281.905,76.766 z" fill="#FFFFFF"/>
    </g>
    <g clip-path="url(#Clip_6)">
      <path d="M311.963,17.524 L362.865,17.524 L362.865,76.766 L311.963,76.766 z" fill="#FFFFFF"/>
    </g>
    <g clip-path="url(#Clip_7)">
      <path d="M358.772,17.525 L406.055,17.525 L406.055,76.766 L358.772,76.766 z" fill="#FFFFFF"/>
    </g>
    <g clip-path="url(#Clip_8)">
      <path d="M400.78,17.524 L456.202,17.524 L456.202,76.766 L400.78,76.766 z" fill="#FFFFFF"/>
    </g>
    <g clip-path="url(#Clip_9)">
      <path d="M443.893,17.525 L487.658,17.525 L487.658,76.766 L443.893,76.766 z" fill="#FFFFFF"/>
    </g>
    <g clip-path="url(#Clip_10)">
      <path d="M482.584,17.525 L503.84,17.525 L503.84,76.766 L482.584,76.766 z" fill="#FFFFFF"/>
    </g>
    <g clip-path="url(#Clip_11)">
      <path d="M500.172,16.54 L561.383,16.54 L561.383,77.751 L500.172,77.751 z" fill="#FFFFFF"/>
    </g>
    <g clip-path="url(#Clip_13)">
      <g clip-path="url(#Clip_12)">
        <path d="M557.717,17.525 L605.001,17.525 L605.001,76.766 L557.717,76.766 z" fill="#FFFFFF"/>
      </g>
    </g>
    <g clip-path="url(#Clip_14)">
      <path d="M134.643,81.135 L157.926,81.135 L157.926,109.172 L134.643,109.172 z" fill="#FFFFFF"/>
    </g>
    <g clip-path="url(#Clip_15)">
      <path d="M161.787,85.94 L181.432,85.94 L181.432,109.172 L161.787,109.172 z" fill="#FFFFFF"/>
    </g>
    <g clip-path="url(#Clip_16)">
      <path d="M186.175,85.94 L205.388,85.94 L205.388,109.173 L186.175,109.173 z" fill="#FFFFFF"/>
    </g>
    <g clip-path="url(#Clip_17)">
      <path d="M210.494,81.136 L229.438,81.136 L229.438,108.902 L210.494,108.902 z" fill="#FFFFFF"/>
    </g>
    <g clip-path="url(#Clip_18)">
      <path d="M231.946,85.941 L254.441,85.941 L254.441,109.172 L231.946,109.172 z" fill="#FFFFFF"/>
    </g>
    <g clip-path="url(#Clip_19)">
      <path d="M257.603,82.151 L274.329,82.151 L274.329,108.903 L257.603,108.903 z" fill="#FFFFFF"/>
    </g>
    <g clip-path="url(#Clip_20)">
      <path d="M278.784,81.135 L302.067,81.135 L302.067,109.172 L278.784,109.172 z" fill="#FFFFFF"/>
    </g>
    <g clip-path="url(#Clip_21)">
      <path d="M305.929,85.94 L325.575,85.94 L325.575,109.172 L305.929,109.172 z" fill="#FFFFFF"/>
    </g>
    <g clip-path="url(#Clip_22)">
      <path d="M331.113,80.627 L342.01,80.627 L342.01,108.902 L331.113,108.902 z" fill="#FFFFFF"/>
    </g>
    <g clip-path="url(#Clip_23)">
      <path d="M347.911,80.627 L358.807,80.627 L358.807,108.902 L347.911,108.902 z" fill="#FFFFFF"/>
    </g>
    <g clip-path="url(#Clip_24)">
      <path d="M383.565,86.05 L398.927,86.05 L398.927,108.902 L383.565,108.902 z" fill="#FFFFFF"/>
    </g>
    <g clip-path="url(#Clip_25)">
      <path d="M401.692,85.941 L424.187,85.941 L424.187,109.172 L401.692,109.172 z" fill="#FFFFFF"/>
    </g>
    <g clip-path="url(#Clip_26)">
      <path d="M427.062,86.211 L448.326,86.211 L448.326,108.902 L427.062,108.902 z" fill="#FFFFFF"/>
    </g>
    <g clip-path="url(#Clip_27)">
      <path d="M451.405,85.94 L474.688,85.94 L474.688,109.172 L451.405,109.172 z" fill="#FFFFFF"/>
    </g>
    <g clip-path="url(#Clip_28)">
      <path d="M479.669,80.627 L490.565,80.627 L490.565,108.902 L479.669,108.902 z" fill="#FFFFFF"/>
    </g>
    <g clip-path="url(#Clip_29)">
      <path d="M496.109,86.212 L515.672,86.212 L515.672,109.173 L496.109,109.173 z" fill="#FFFFFF"/>
    </g>
    <g clip-path="url(#Clip_30)">
      <path d="M520.126,82.151 L536.851,82.151 L536.851,108.903 L520.126,108.903 z" fill="#FFFFFF"/>
    </g>
    <g clip-path="url(#Clip_31)">
      <path d="M541.308,81.135 L552.205,81.135 L552.205,108.902 L541.308,108.902 z" fill="#FFFFFF"/>
    </g>
    <g clip-path="url(#Clip_32)">
      <path d="M557.178,85.94 L580.459,85.94 L580.459,109.172 L557.178,109.172 z" fill="#FFFFFF"/>
    </g>
    <g clip-path="url(#Clip_34)">
      <g clip-path="url(#Clip_33)">
        <path d="M585.438,85.94 L605,85.94 L605,108.902 L585.438,108.902 z" fill="#FFFFFF"/>
      </g>
    </g>
    <g clip-path="url(#Clip_35)">
      <path d="M5.172,5.173 L120.683,5.173 L120.683,120.54 L5.172,120.54 z" fill="#FFFFFF"/>
    </g>
    <g clip-path="url(#Clip_36)">
      <path d="M-5,-5 L100.097,-5 L100.097,130.713 L-5,130.713 z" fill="#FFFFFF"/>
    </g>
  </g>
</svg>
