<?xml version="1.0" encoding="UTF-8"?>
<!DOCTYPE svg PUBLIC "-//W3C//DTD SVG 1.1//EN" "http://www.w3.org/Graphics/SVG/1.1/DTD/svg11.dtd">
<svg version="1.1" xmlns="http://www.w3.org/2000/svg" xmlns:xlink="http://www.w3.org/1999/xlink" x="0" y="0" width="120" height="120" viewBox="0, 0, 120, 120">
  <defs>
    <clipPath id="Clip_1">
      <path d="M112.549,120 C116.657,120 120,116.657 120,112.549 L120,16.225 C120,12.116 116.657,8.773 112.547,8.773 L95.554,8.773 L95.554,1.875 C95.443,0.627 94.804,0.227 93.679,-0 L84.596,-0 C83.349,0.111 82.949,0.75 82.722,1.875 L82.722,8.773 L37.277,8.773 L37.277,1.875 C37.166,0.627 36.527,0.227 35.402,-0 L26.318,-0 C25.071,0.111 24.671,0.75 24.444,1.875 L24.444,8.773 L7.433,8.773 C3.086,8.942 0.417,12.084 -0,16.223 L-0,112.551 C0.167,116.894 3.29,119.58 7.433,120 L112.549,120 z M116.25,34.62 L3.75,34.62 L3.75,16.225 C3.75,14.185 5.402,12.523 7.433,12.523 L24.444,12.523 L24.444,18.634 C24.444,19.669 25.282,20.509 26.319,20.509 L35.402,20.509 C36.439,20.509 37.277,19.669 37.277,18.634 L37.277,12.523 L82.722,12.523 L82.722,18.634 C82.722,19.669 83.56,20.509 84.597,20.509 L93.679,20.509 C94.716,20.509 95.554,19.669 95.554,18.634 L95.554,12.523 L112.547,12.523 C114.589,12.523 116.25,14.185 116.25,16.225 L116.25,34.62 z M112.547,116.25 L7.433,116.25 C5.402,116.25 3.75,114.589 3.75,112.549 L3.75,38.37 L116.25,38.37 L116.25,112.549 C116.25,114.589 114.589,116.25 112.547,116.25 z"/>
    </clipPath>
    <clipPath id="Clip_2">
      <path d="M120,-0 L120,120 L-0,120 L-0,-0 L120,-0 z"/>
    </clipPath>
    <clipPath id="Clip_3">
      <path d="M33.528,16.759 L33.528,3.75 L28.195,3.75 L28.195,16.759 L33.528,16.759 z M91.805,16.759 L91.805,3.75 L86.473,3.75 L86.473,16.759 L91.805,16.759 z"/>
    </clipPath>
    <clipPath id="Clip_4">
      <path d="M116.25,34.62 L116.25,16.225 C116.25,14.185 114.589,12.523 112.547,12.523 L95.554,12.523 L95.554,18.634 C95.554,19.669 94.716,20.509 93.679,20.509 L84.597,20.509 C83.56,20.509 82.722,19.669 82.722,18.634 L82.722,12.523 L37.277,12.523 L37.277,18.634 C37.277,19.669 36.439,20.509 35.402,20.509 L26.319,20.509 C25.282,20.509 24.444,19.669 24.444,18.634 L24.444,12.523 L7.433,12.523 C5.402,12.523 3.75,14.185 3.75,16.225 L3.75,34.62 L116.25,34.62 z M112.547,116.25 C114.589,116.25 116.25,114.589 116.25,112.549 L116.25,38.37 L3.75,38.37 L3.75,112.549 C3.75,114.589 5.402,116.25 7.433,116.25 L112.547,116.25 z"/>
    </clipPath>
    <clipPath id="Clip_5">
      <path d="M120,0 L120,120 L0,120 L0,0 L120,0 z"/>
    </clipPath>
  </defs>
  <g id="Layer_1">
    <g clip-path="url(#Clip_2)">
      <g clip-path="url(#Clip_1)">
        <path d="M-5,-5 L125,-5 L125,125 L-5,125 z" fill="#000000"/>
      </g>
    </g>
    <g clip-path="url(#Clip_5)">
      <g>
        <g clip-path="url(#Clip_3)">
          <path d="M23.195,-1.25 L96.805,-1.25 L96.805,21.759 L23.195,21.759 z" fill="#FFFFFF"/>
        </g>
        <g clip-path="url(#Clip_4)">
          <path d="M-1.25,7.523 L121.25,7.523 L121.25,121.25 L-1.25,121.25 z" fill="#FFFFFF"/>
        </g>
      </g>
    </g>
  </g>
</svg>
