<?xml version="1.0" encoding="UTF-8"?>
<!DOCTYPE svg PUBLIC "-//W3C//DTD SVG 1.1//EN" "http://www.w3.org/Graphics/SVG/1.1/DTD/svg11.dtd">
<svg version="1.1" xmlns="http://www.w3.org/2000/svg" xmlns:xlink="http://www.w3.org/1999/xlink" x="0" y="0" width="1792" height="1792" viewBox="0, 0, 1792, 1792">
  <g id="Background">
    <rect x="0" y="0" width="1792" height="1792" fill="#000000" fill-opacity="0"/>
  </g>
  <g id="g3015">
    <path d="M1567.458,1252.017 Q1567.458,1279.017 1557.458,1322.517 Q1547.458,1366.017 1536.458,1391.017 Q1515.458,1441.017 1414.458,1497.017 Q1320.458,1548.017 1228.458,1548.017 Q1201.458,1548.017 1175.958,1544.517 Q1150.458,1541.017 1118.458,1532.017 Q1086.458,1523.017 1070.958,1517.517 Q1055.458,1512.017 1015.458,1497.017 Q975.458,1482.017 966.458,1479.017 Q868.458,1444.017 791.458,1396.017 Q663.458,1317.017 526.958,1180.517 Q390.458,1044.017 311.458,916.017 Q263.458,839.017 228.458,741.017 Q225.458,732.017 210.458,692.017 Q195.458,652.017 189.958,636.517 Q184.458,621.017 175.458,589.017 Q166.458,557.017 162.958,531.517 Q159.458,506.017 159.458,479.017 Q159.458,387.017 210.458,293.017 Q266.458,192.017 316.458,171.017 Q341.458,160.017 384.958,150.017 Q428.458,140.017 455.458,140.017 Q469.458,140.017 476.458,143.017 Q494.458,149.017 529.458,219.017 Q540.458,238.017 559.458,273.017 Q578.458,308.017 594.458,336.517 Q610.458,365.017 625.458,390.017 Q628.458,394.017 642.958,415.017 Q657.458,436.017 664.458,450.517 Q671.458,465.017 671.458,479.017 Q671.458,499.017 642.958,529.017 Q614.458,559.017 580.958,584.017 Q547.458,609.017 518.958,637.017 Q490.458,665.017 490.458,683.017 Q490.458,692.017 495.458,705.517 Q500.458,719.017 503.958,726.017 Q507.458,733.017 517.958,750.017 Q528.458,767.017 529.458,769.017 Q605.458,906.017 703.458,1004.017 Q801.458,1102.017 938.458,1178.017 Q940.458,1179.017 957.458,1189.517 Q974.458,1200.017 981.458,1203.517 Q988.458,1207.017 1001.958,1212.017 Q1015.458,1217.017 1024.458,1217.017 Q1042.458,1217.017 1070.458,1188.517 Q1098.458,1160.017 1123.458,1126.517 Q1148.458,1093.017 1178.458,1064.517 Q1208.458,1036.017 1228.458,1036.017 Q1242.458,1036.017 1256.958,1043.017 Q1271.458,1050.017 1292.458,1064.517 Q1313.458,1079.017 1317.458,1082.017 Q1342.458,1097.017 1370.958,1113.017 Q1399.458,1129.017 1434.458,1148.017 Q1469.458,1167.017 1488.458,1178.017 Q1558.458,1213.017 1564.458,1231.017 Q1567.458,1238.017 1567.458,1252.017 z" fill="#FFFFFF" id="path3017"/>
  </g>
</svg>
