<?xml version="1.0" encoding="UTF-8"?>
<!DOCTYPE svg PUBLIC "-//W3C//DTD SVG 1.1//EN" "http://www.w3.org/Graphics/SVG/1.1/DTD/svg11.dtd">
<svg version="1.1" xmlns="http://www.w3.org/2000/svg" xmlns:xlink="http://www.w3.org/1999/xlink" x="0" y="0" width="243" height="82" viewBox="0, 0, 243, 82">
  <defs>
    <clipPath id="Clip_1">
      <path d="M235,0 C239.418,0 243,3.582 243,8 L243,74 C243,78.418 239.418,82 235,82 L8,82 C3.582,82 0,78.418 0,74 L0,8 C0,3.582 3.582,0 8,0 L235,0 z"/>
    </clipPath>
    <clipPath id="Clip_2">
      <path d="M75.291,23.753 C75.291,23.534 75.436,22.955 75.725,22.018 L77.864,22.018 C78.145,22.97 78.285,23.549 78.285,23.753 L79.766,23.753 C79.766,23.586 79.441,22.581 78.787,20.74 C78.136,18.896 77.808,17.887 77.808,17.712 L76.059,17.712 C76.06,17.9 75.7,18.924 74.978,20.783 C74.258,22.643 73.898,23.632 73.898,23.753 L75.291,23.753 z M77.628,21.131 L75.944,21.131 C76.49,19.525 76.763,18.663 76.763,18.542 L76.836,18.542 C76.836,18.671 77.101,19.534 77.628,21.131 z"/>
    </clipPath>
    <clipPath id="Clip_3">
      <path d="M81.907,23.753 C81.864,22.655 81.842,21.724 81.842,20.959 C81.842,20.412 81.803,19.799 81.726,19.121 L81.801,19.121 C81.924,19.592 82.431,20.466 83.319,21.744 C84.167,22.956 84.591,23.626 84.591,23.753 L85.735,23.753 C85.691,22.81 85.669,21.756 85.669,20.593 C85.669,19.439 85.691,18.478 85.735,17.711 L84.578,17.711 C84.621,18.593 84.642,19.453 84.642,20.29 C84.642,20.838 84.68,21.458 84.753,22.147 L84.684,22.147 C84.564,21.715 84.098,20.89 83.286,19.674 C82.524,18.53 82.143,17.875 82.143,17.711 L80.768,17.711 C80.815,18.503 80.838,19.463 80.838,20.593 C80.838,21.74 80.815,22.795 80.768,23.753 L81.907,23.753 z"/>
    </clipPath>
    <clipPath id="Clip_4">
      <path d="M89.241,23.809 C90.253,23.809 91.039,23.48 91.601,22.824 C92.163,22.169 92.443,21.402 92.443,20.523 C92.443,19.743 92.192,19.076 91.691,18.518 C91.189,17.962 90.381,17.683 89.268,17.683 C89.187,17.683 89.015,17.687 88.755,17.697 C88.492,17.706 88.295,17.711 88.161,17.711 L87.352,17.711 C87.393,18.506 87.411,19.467 87.411,20.593 C87.411,21.765 87.393,22.819 87.352,23.753 C88.154,23.791 88.783,23.809 89.241,23.809 z M89.226,22.852 C89.026,22.852 88.825,22.832 88.624,22.792 C88.594,22.065 88.578,21.333 88.578,20.593 C88.578,19.918 88.563,19.272 88.532,18.653 C88.764,18.625 88.945,18.612 89.078,18.612 C89.789,18.612 90.316,18.814 90.661,19.221 C91.007,19.628 91.179,20.129 91.179,20.723 C91.179,21.316 91.019,21.82 90.701,22.234 C90.381,22.646 89.889,22.852 89.226,22.852 z"/>
    </clipPath>
    <clipPath id="Clip_5">
      <path d="M95.037,23.754 C95.009,22.943 94.995,22.14 94.995,21.344 C95.159,21.342 95.329,21.339 95.508,21.339 C95.936,21.339 96.243,21.468 96.435,21.726 C96.625,21.982 96.901,22.657 97.258,23.754 L98.628,23.754 C98.231,22.685 97.914,21.952 97.68,21.551 C97.445,21.151 97.172,20.907 96.861,20.82 L96.861,20.751 C97.668,20.448 98.074,19.91 98.074,19.141 C98.074,18.168 97.364,17.683 95.949,17.683 C95.7,17.683 95.426,17.688 95.132,17.697 C94.836,17.705 94.644,17.711 94.551,17.711 L93.751,17.711 C93.791,18.507 93.809,19.466 93.809,20.593 C93.809,21.766 93.791,22.819 93.751,23.754 L95.037,23.754 z M95.42,20.509 C95.304,20.509 95.161,20.506 94.991,20.5 C94.991,19.73 94.973,19.104 94.939,18.625 C95.162,18.582 95.417,18.559 95.708,18.559 C96.498,18.559 96.893,18.869 96.892,19.484 C96.893,20.168 96.402,20.509 95.42,20.509 z"/>
    </clipPath>
    <clipPath id="Clip_6">
      <path d="M102.241,23.92 C103.095,23.92 103.814,23.608 104.393,22.982 C104.974,22.358 105.263,21.57 105.263,20.62 C105.263,19.732 104.988,19.003 104.44,18.43 C103.89,17.858 103.208,17.571 102.394,17.571 C101.538,17.571 100.822,17.884 100.241,18.51 C99.662,19.134 99.371,19.921 99.371,20.871 C99.371,21.756 99.645,22.485 100.196,23.059 C100.745,23.633 101.427,23.92 102.241,23.92 z M102.365,22.899 C101.884,22.899 101.478,22.697 101.145,22.293 C100.815,21.89 100.649,21.365 100.649,20.722 C100.649,20.104 100.805,19.592 101.121,19.187 C101.435,18.781 101.818,18.579 102.268,18.579 C102.753,18.579 103.161,18.78 103.49,19.182 C103.819,19.584 103.985,20.109 103.985,20.755 C103.985,21.37 103.828,21.882 103.513,22.289 C103.198,22.696 102.816,22.899 102.365,22.899 z"/>
    </clipPath>
    <clipPath id="Clip_7">
      <path d="M105.263,23.92 L105.263,17.572 L99.371,17.572 L99.371,23.92 L105.263,23.92 z"/>
    </clipPath>
    <clipPath id="Clip_8">
      <path d="M107.879,23.753 C107.84,22.812 107.82,21.759 107.82,20.593 C107.82,19.451 107.84,18.49 107.879,17.711 L106.57,17.711 C106.609,18.503 106.63,19.463 106.63,20.593 C106.63,21.74 106.609,22.795 106.57,23.753 L107.879,23.753 z"/>
    </clipPath>
    <clipPath id="Clip_9">
      <path d="M111.385,23.809 C112.397,23.809 113.185,23.48 113.745,22.824 C114.307,22.169 114.589,21.402 114.589,20.523 C114.589,19.743 114.338,19.076 113.835,18.518 C113.335,17.962 112.527,17.683 111.413,17.683 C111.333,17.683 111.161,17.687 110.899,17.697 C110.636,17.706 110.439,17.711 110.307,17.711 L109.497,17.711 C109.537,18.506 109.557,19.467 109.557,20.593 C109.557,21.765 109.537,22.819 109.497,23.753 C110.299,23.791 110.929,23.809 111.385,23.809 z M111.371,22.852 C111.17,22.852 110.969,22.832 110.77,22.792 C110.739,22.065 110.723,21.333 110.723,20.593 C110.723,19.918 110.709,19.272 110.677,18.653 C110.909,18.625 111.091,18.612 111.223,18.612 C111.933,18.612 112.461,18.814 112.807,19.221 C113.153,19.628 113.325,20.129 113.325,20.723 C113.325,21.316 113.165,21.82 112.846,22.234 C112.526,22.646 112.035,22.852 111.371,22.852 z"/>
    </clipPath>
    <clipPath id="Clip_10">
      <path d="M119.012,23.753 C119.012,23.534 119.157,22.955 119.447,22.018 L121.585,22.018 C121.866,22.97 122.006,23.549 122.006,23.753 L123.488,23.753 C123.488,23.586 123.162,22.581 122.509,20.74 C121.857,18.896 121.53,17.887 121.53,17.712 L119.78,17.712 C119.78,17.9 119.421,18.924 118.699,20.783 C117.979,22.643 117.619,23.632 117.619,23.753 L119.012,23.753 z M121.35,21.131 L119.665,21.131 C120.211,19.525 120.484,18.663 120.484,18.542 L120.558,18.542 C120.558,18.671 120.822,19.534 121.35,21.131 z"/>
    </clipPath>
    <clipPath id="Clip_11">
      <path d="M125.79,23.753 C125.756,22.8 125.74,22.033 125.74,21.452 C125.802,21.458 125.905,21.46 126.049,21.46 C126.845,21.46 127.518,21.284 128.065,20.932 C128.613,20.579 128.886,20.033 128.886,19.293 C128.886,18.752 128.685,18.349 128.281,18.082 C127.875,17.816 127.38,17.683 126.795,17.684 C126.556,17.683 126.276,17.688 125.952,17.696 C125.628,17.706 125.409,17.712 125.295,17.712 L124.49,17.712 C124.529,18.519 124.551,19.479 124.551,20.593 C124.551,21.806 124.529,22.859 124.49,23.753 L125.79,23.753 z M126.004,20.621 C125.902,20.621 125.812,20.618 125.735,20.611 C125.735,19.872 125.719,19.21 125.684,18.625 C125.927,18.578 126.159,18.555 126.378,18.555 C127.255,18.555 127.693,18.886 127.693,19.548 C127.693,20.263 127.13,20.621 126.004,20.621 z"/>
    </clipPath>
    <clipPath id="Clip_12">
      <path d="M131.341,23.753 C131.308,22.8 131.29,22.033 131.29,21.452 C131.352,21.458 131.456,21.46 131.601,21.46 C132.396,21.46 133.069,21.284 133.616,20.932 C134.164,20.579 134.437,20.033 134.437,19.293 C134.437,18.752 134.236,18.349 133.831,18.082 C133.427,17.816 132.932,17.683 132.345,17.684 C132.108,17.683 131.827,17.688 131.504,17.696 C131.179,17.706 130.961,17.712 130.846,17.712 L130.041,17.712 C130.081,18.519 130.102,19.479 130.102,20.593 C130.102,21.806 130.081,22.859 130.041,23.753 L131.341,23.753 z M131.554,20.621 C131.452,20.621 131.364,20.618 131.285,20.611 C131.285,19.872 131.269,19.21 131.234,18.625 C131.478,18.578 131.711,18.555 131.929,18.555 C132.805,18.555 133.243,18.886 133.243,19.548 C133.243,20.263 132.682,20.621 131.554,20.621 z"/>
    </clipPath>
    <clipPath id="Clip_13">
      <path d="M140.492,23.92 C141.346,23.92 142.063,23.608 142.644,22.982 C143.224,22.358 143.514,21.57 143.514,20.62 C143.514,19.732 143.238,19.003 142.69,18.43 C142.14,17.858 141.458,17.571 140.644,17.571 C139.79,17.571 139.072,17.884 138.492,18.51 C137.912,19.134 137.621,19.921 137.621,20.871 C137.621,21.756 137.896,22.485 138.446,23.059 C138.995,23.633 139.677,23.92 140.492,23.92 z M140.616,22.899 C140.134,22.899 139.729,22.697 139.396,22.293 C139.064,21.89 138.899,21.365 138.899,20.722 C138.899,20.104 139.056,19.592 139.371,19.187 C139.686,18.781 140.069,18.579 140.519,18.579 C141.002,18.579 141.41,18.78 141.741,19.182 C142.07,19.584 142.236,20.109 142.236,20.755 C142.236,21.37 142.078,21.882 141.764,22.289 C141.449,22.696 141.066,22.899 140.616,22.899 z"/>
    </clipPath>
    <clipPath id="Clip_14">
      <path d="M143.514,23.92 L143.514,17.572 L137.621,17.572 L137.621,23.92 L143.514,23.92 z"/>
    </clipPath>
    <clipPath id="Clip_15">
      <path d="M145.959,23.753 C145.916,22.655 145.895,21.724 145.895,20.959 C145.895,20.412 145.856,19.799 145.778,19.121 L145.853,19.121 C145.975,19.592 146.482,20.466 147.371,21.744 C148.22,22.956 148.643,23.626 148.643,23.753 L149.786,23.753 C149.743,22.81 149.722,21.756 149.722,20.593 C149.722,19.439 149.743,18.478 149.786,17.711 L148.63,17.711 C148.673,18.593 148.694,19.453 148.694,20.29 C148.694,20.838 148.733,21.458 148.805,22.147 L148.737,22.147 C148.616,21.715 148.151,20.89 147.338,19.674 C146.576,18.53 146.195,17.875 146.195,17.711 L144.821,17.711 C144.867,18.503 144.89,19.463 144.89,20.593 C144.89,21.74 144.867,22.795 144.821,23.753 L145.959,23.753 z"/>
    </clipPath>
    <clipPath id="Clip_16">
      <path d="M84.658,53.46 C87.889,53.46 90.51,52.398 92.525,50.279 C94.299,48.501 95.187,46.111 95.187,43.112 C95.187,42.592 95.137,42.053 95.037,41.492 L84.658,41.492 L84.658,44.072 L92.434,44.072 C92.276,45.931 91.677,47.381 90.64,48.42 C89.045,50.019 87.051,50.819 84.658,50.819 C82.405,50.819 80.457,50.025 78.811,48.435 C77.166,46.846 76.344,44.782 76.344,42.242 C76.344,39.704 77.166,37.64 78.811,36.05 C80.457,34.459 82.405,33.665 84.658,33.665 C87.15,33.665 89.105,34.515 90.521,36.215 L92.405,34.326 C91.568,33.326 90.451,32.525 89.056,31.926 C87.66,31.326 86.195,31.027 84.658,31.027 C81.568,31.027 78.941,32.101 76.778,34.251 C74.614,36.4 73.533,39.064 73.533,42.242 C73.533,45.421 74.614,48.086 76.778,50.235 C78.941,52.385 81.568,53.46 84.658,53.46 z"/>
    </clipPath>
    <clipPath id="Clip_17">
      <path d="M103.861,53.459 C106.053,53.459 107.858,52.714 109.275,51.225 C110.69,49.735 111.397,47.871 111.397,45.631 C111.397,43.392 110.69,41.528 109.275,40.039 C107.858,38.549 106.053,37.804 103.861,37.804 C101.666,37.804 99.862,38.549 98.447,40.039 C97.032,41.528 96.324,43.392 96.323,45.631 C96.324,47.871 97.032,49.735 98.447,51.225 C99.862,52.714 101.666,53.459 103.861,53.459 z M103.861,50.939 C102.564,50.939 101.443,50.454 100.495,49.484 C99.547,48.514 99.075,47.232 99.075,45.631 C99.075,44.032 99.547,42.749 100.495,41.777 C101.443,40.808 102.564,40.324 103.861,40.324 C105.156,40.324 106.277,40.808 107.226,41.777 C108.172,42.749 108.646,44.032 108.646,45.631 C108.646,47.232 108.172,48.514 107.226,49.484 C106.277,50.454 105.156,50.939 103.861,50.939 z"/>
    </clipPath>
    <clipPath id="Clip_18">
      <path d="M119.862,53.459 C122.055,53.459 123.859,52.714 125.276,51.225 C126.692,49.735 127.399,47.871 127.398,45.631 C127.399,43.392 126.692,41.528 125.276,40.039 C123.859,38.549 122.055,37.804 119.862,37.804 C117.668,37.804 115.864,38.549 114.448,40.039 C113.032,41.528 112.324,43.392 112.324,45.631 C112.324,47.871 113.032,49.735 114.448,51.225 C115.864,52.714 117.668,53.459 119.862,53.459 z M119.862,50.939 C118.565,50.939 117.444,50.454 116.497,49.484 C115.549,48.514 115.076,47.232 115.076,45.631 C115.076,44.032 115.549,42.749 116.497,41.777 C117.444,40.808 118.565,40.324 119.862,40.324 C121.158,40.324 122.279,40.808 123.227,41.777 C124.173,42.749 124.648,44.032 124.648,45.631 C124.648,47.232 124.173,48.514 123.227,49.484 C122.279,50.454 121.158,50.939 119.862,50.939 z"/>
    </clipPath>
    <clipPath id="Clip_19">
      <path d="M135.534,59.936 C137.628,59.936 139.403,59.281 140.858,57.973 C142.313,56.662 143.041,54.748 143.041,52.229 L143.041,38.283 L140.409,38.283 L140.409,40.323 L140.29,40.323 C139.81,39.602 139.132,39.004 138.256,38.524 C137.378,38.044 136.392,37.804 135.295,37.804 C133.401,37.804 131.766,38.554 130.39,40.052 C129.014,41.553 128.326,43.412 128.326,45.632 C128.326,47.85 129.014,49.709 130.39,51.209 C131.766,52.709 133.401,53.459 135.295,53.459 C136.392,53.459 137.378,53.219 138.256,52.739 C139.132,52.26 139.81,51.659 140.29,50.939 L140.409,50.939 L140.409,52.349 C140.409,53.909 139.976,55.143 139.109,56.053 C138.241,56.962 137.049,57.416 135.534,57.416 C134.577,57.416 133.724,57.147 132.978,56.607 C132.229,56.068 131.716,55.397 131.437,54.599 L128.925,55.647 C129.402,56.767 130.189,57.762 131.287,58.632 C132.384,59.503 133.799,59.936 135.534,59.936 z M135.744,50.939 C134.467,50.939 133.37,50.454 132.454,49.485 C131.536,48.515 131.078,47.231 131.078,45.632 C131.078,44.033 131.536,42.748 132.454,41.778 C133.37,40.808 134.467,40.323 135.744,40.323 C137.039,40.323 138.142,40.802 139.048,41.764 C139.956,42.722 140.409,44.012 140.409,45.632 C140.409,47.251 139.956,48.54 139.048,49.5 C138.142,50.459 137.039,50.939 135.744,50.939 z"/>
    </clipPath>
    <clipPath id="Clip_20">
      <path d="M148.395,52.979 L148.395,31.506 L145.645,31.506 L145.645,52.979 L148.395,52.979 z"/>
    </clipPath>
    <clipPath id="Clip_21">
      <path d="M157.486,53.459 C159.081,53.459 160.428,53.073 161.524,52.305 C162.621,51.535 163.408,50.579 163.887,49.44 L161.435,48.42 C160.736,50.099 159.4,50.94 157.426,50.94 C156.209,50.94 155.148,50.509 154.242,49.649 C153.334,48.792 152.84,47.62 152.76,46.141 L164.336,46.141 L164.366,45.631 C164.366,43.252 163.712,41.353 162.406,39.933 C161.1,38.515 159.361,37.804 157.187,37.804 C155.094,37.804 153.374,38.574 152.028,40.113 C150.681,41.653 150.009,43.492 150.009,45.631 C150.009,47.89 150.701,49.76 152.087,51.239 C153.473,52.719 155.273,53.459 157.486,53.459 z M161.435,43.862 L152.94,43.862 C153.22,42.782 153.732,41.922 154.481,41.283 C155.229,40.642 156.11,40.323 157.126,40.323 C158.522,40.323 159.574,40.703 160.283,41.463 C160.99,42.223 161.374,43.021 161.435,43.862 z"/>
    </clipPath>
    <clipPath id="Clip_22">
      <path d="M175.193,52.979 L175.193,44.281 L179.739,44.281 C181.553,44.281 183.122,43.677 184.449,42.468 C185.776,41.259 186.437,39.734 186.437,37.893 C186.437,36.055 185.776,34.531 184.449,33.32 C183.122,32.111 181.553,31.505 179.739,31.505 L172.442,31.505 L172.442,52.979 L175.193,52.979 z M179.798,41.643 L175.193,41.643 L175.193,34.145 L179.798,34.145 C180.955,34.145 181.882,34.535 182.58,35.315 C183.278,36.095 183.628,36.955 183.628,37.893 C183.628,38.834 183.278,39.694 182.58,40.473 C181.882,41.253 180.955,41.643 179.798,41.643 z"/>
    </clipPath>
    <clipPath id="Clip_23">
      <path d="M190.984,52.979 L190.984,31.506 L188.234,31.506 L188.234,52.979 L190.984,52.979 z"/>
    </clipPath>
    <clipPath id="Clip_24">
      <path d="M198.071,53.459 C200.185,53.459 201.79,52.618 202.887,50.939 L203.007,50.939 L203.007,52.979 L205.639,52.979 L205.639,44.103 C205.639,42.103 205.02,40.554 203.785,39.454 C202.548,38.355 200.992,37.804 199.12,37.804 C197.483,37.804 196.166,38.178 195.171,38.929 C194.172,39.679 193.505,40.494 193.166,41.373 L195.678,42.451 C195.918,41.792 196.361,41.273 197.01,40.893 C197.658,40.514 198.382,40.323 199.178,40.323 C200.255,40.323 201.163,40.647 201.9,41.299 C202.637,41.948 203.007,42.812 203.007,43.891 L203.007,44.312 C201.97,43.712 200.643,43.412 199.029,43.412 C197.214,43.412 195.689,43.868 194.454,44.777 C193.215,45.687 192.598,46.941 192.598,48.54 C192.598,50.02 193.122,51.209 194.169,52.109 C195.215,53.008 196.516,53.459 198.071,53.459 z M198.52,50.939 C197.723,50.939 197.015,50.729 196.398,50.309 C195.777,49.89 195.47,49.319 195.47,48.6 C195.47,47.82 195.809,47.142 196.486,46.561 C197.164,45.982 198.171,45.691 199.508,45.691 C201.064,45.691 202.23,46.011 203.007,46.651 C203.007,47.811 202.543,48.816 201.615,49.665 C200.688,50.514 199.657,50.939 198.52,50.939 z"/>
    </clipPath>
    <clipPath id="Clip_25">
      <path d="M211.621,59.456 L220.803,38.283 L217.813,38.283 L213.565,48.84 L213.506,48.84 L209.139,38.283 L206.148,38.283 L212.189,52.049 L208.78,59.456 L211.621,59.456 z"/>
    </clipPath>
    <clipPath id="Clip_26">
      <path d="M23.593,65.249 C24.297,65.23 24.014,65.351 24.477,64.987 C31.787,57.648 39.117,50.328 46.453,43.013 C46.761,42.706 46.735,42.552 46.444,42.258 C43.446,39.227 40.459,36.183 37.472,33.139 C32.86,28.439 28.246,23.742 23.644,19.033 C23.361,18.742 23.194,18.809 22.963,19.056 C22.369,19.692 22.205,20.461 22.206,21.303 C22.211,28.161 22.209,35.019 22.209,41.878 L22.197,41.878 C22.197,44.75 22.196,47.622 22.198,50.494 C22.201,54.556 22.208,58.619 22.206,62.68 C22.206,63.644 22.506,64.453 23.289,65.057 L23.593,65.249 z"/>
    </clipPath>
    <clipPath id="Clip_27">
      <path d="M47.656,41.568 C48.033,41.5 47.887,41.583 48.12,41.367 C50.197,39.282 52.274,37.198 54.37,35.131 C54.702,34.802 54.711,34.667 54.28,34.426 C44.907,29.175 35.54,23.909 26.173,18.645 C25.792,18.431 25.398,18.269 24.838,18.273 C24.965,18.43 25.016,18.505 25.079,18.57 C32.541,26.183 40.005,33.792 47.457,41.414 L47.656,41.568 z"/>
    </clipPath>
    <clipPath id="Clip_28">
      <path d="M26.935,64.812 C27.01,64.764 27.144,64.634 27.288,64.555 C36.011,59.754 44.732,54.949 53.462,50.158 C53.881,49.927 53.854,49.801 53.546,49.49 C51.789,47.724 50.041,45.948 48.317,44.15 C47.939,43.755 47.744,43.699 47.324,44.126 C40.54,51.034 33.734,57.921 26.935,64.812 z"/>
    </clipPath>
    <clipPath id="Clip_29">
      <path d="M55.374,49.08 L55.617,48.972 C58.25,47.499 60.896,46.049 63.535,44.586 C63.98,44.34 64.429,44.093 64.835,43.792 C65.387,43.384 65.75,42.842 65.779,42.069 C65.746,41.108 65.116,40.521 64.306,40.067 C61.693,38.598 59.075,37.137 56.467,35.655 C56.145,35.472 55.959,35.502 55.701,35.763 C53.507,37.972 51.302,40.173 49.087,42.361 C48.803,42.643 48.811,42.795 49.088,43.074 C50.989,44.989 52.881,46.915 54.756,48.857 C55.07,49.119 54.874,49.021 55.374,49.08 z"/>
    </clipPath>
    <clipPath id="Clip_30">
      <path d="M220.803,65.314 L220.803,17.572 L22.197,17.572 L22.197,65.314 L220.803,65.314 z"/>
    </clipPath>
  </defs>
  <g id="Layer_1">
    <g clip-path="url(#Clip_1)">
      <path d="M8,0 L235,0 C239.418,0 243,3.582 243,8 L243,74 C243,78.418 239.418,82 235,82 L8,82 C3.582,82 0,78.418 0,74 L0,8 C0,3.582 3.582,0 8,0 z" fill-opacity="0" stroke="#23C7D4" stroke-width="2"/>
    </g>
    <g opacity="0.804">
      <g clip-path="url(#Clip_2)">
        <path d="M68.898,12.712 L84.767,12.712 L84.767,28.753 L68.898,28.753 z" fill="#FFFFFF"/>
      </g>
      <g clip-path="url(#Clip_3)">
        <path d="M75.768,12.711 L90.735,12.711 L90.735,28.753 L75.768,28.753 z" fill="#FFFFFF"/>
      </g>
      <g clip-path="url(#Clip_4)">
        <path d="M82.352,12.683 L97.443,12.683 L97.443,28.809 L82.352,28.809 z" fill="#FFFFFF"/>
      </g>
      <g clip-path="url(#Clip_5)">
        <path d="M88.751,12.683 L103.629,12.683 L103.629,28.754 L88.751,28.754 z" fill="#FFFFFF"/>
      </g>
      <g clip-path="url(#Clip_7)">
        <g clip-path="url(#Clip_6)">
          <path d="M94.371,12.571 L110.264,12.571 L110.264,28.92 L94.371,28.92 z" fill="#FFFFFF"/>
        </g>
      </g>
      <g clip-path="url(#Clip_8)">
        <path d="M101.57,12.711 L112.879,12.711 L112.879,28.753 L101.57,28.753 z" fill="#FFFFFF"/>
      </g>
      <g clip-path="url(#Clip_9)">
        <path d="M104.497,12.683 L119.589,12.683 L119.589,28.809 L104.497,28.809 z" fill="#FFFFFF"/>
      </g>
      <g clip-path="url(#Clip_10)">
        <path d="M112.619,12.712 L128.488,12.712 L128.488,28.753 L112.619,28.753 z" fill="#FFFFFF"/>
      </g>
      <g clip-path="url(#Clip_11)">
        <path d="M119.49,12.683 L133.886,12.683 L133.886,28.753 L119.49,28.753 z" fill="#FFFFFF"/>
      </g>
      <g clip-path="url(#Clip_12)">
        <path d="M125.041,12.683 L139.437,12.683 L139.437,28.753 L125.041,28.753 z" fill="#FFFFFF"/>
      </g>
      <g clip-path="url(#Clip_14)">
        <g clip-path="url(#Clip_13)">
          <path d="M132.621,12.571 L148.514,12.571 L148.514,28.92 L132.621,28.92 z" fill="#FFFFFF"/>
        </g>
      </g>
      <g clip-path="url(#Clip_15)">
        <path d="M139.821,12.711 L154.786,12.711 L154.786,28.753 L139.821,28.753 z" fill="#FFFFFF"/>
      </g>
      <g clip-path="url(#Clip_16)">
        <path d="M68.533,26.027 L100.187,26.027 L100.187,58.46 L68.533,58.46 z" fill="#FFFFFF"/>
      </g>
      <g clip-path="url(#Clip_17)">
        <path d="M91.324,32.804 L116.397,32.804 L116.397,58.459 L91.324,58.459 z" fill="#FFFFFF"/>
      </g>
      <g clip-path="url(#Clip_18)">
        <path d="M107.324,32.804 L132.399,32.804 L132.399,58.459 L107.324,58.459 z" fill="#FFFFFF"/>
      </g>
      <g clip-path="url(#Clip_19)">
        <path d="M123.326,32.804 L148.041,32.804 L148.041,64.936 L123.326,64.936 z" fill="#FFFFFF"/>
      </g>
      <g clip-path="url(#Clip_30)">
        <g>
          <g clip-path="url(#Clip_20)">
            <path d="M140.645,26.506 L153.395,26.506 L153.395,57.979 L140.645,57.979 z" fill="#FFFFFF"/>
          </g>
          <g clip-path="url(#Clip_21)">
            <path d="M145.009,32.804 L169.366,32.804 L169.366,58.459 L145.009,58.459 z" fill="#FFFFFF"/>
          </g>
          <g clip-path="url(#Clip_22)">
            <path d="M167.442,26.505 L191.437,26.505 L191.437,57.979 L167.442,57.979 z" fill="#FFFFFF"/>
          </g>
          <g clip-path="url(#Clip_23)">
            <path d="M183.234,26.506 L195.984,26.506 L195.984,57.979 L183.234,57.979 z" fill="#FFFFFF"/>
          </g>
          <g clip-path="url(#Clip_24)">
            <path d="M187.598,32.804 L210.639,32.804 L210.639,58.459 L187.598,58.459 z" fill="#FFFFFF"/>
          </g>
          <g clip-path="url(#Clip_25)">
            <path d="M201.148,33.283 L225.803,33.283 L225.803,64.456 L201.148,64.456 z" fill="#FFFFFF"/>
          </g>
          <g clip-path="url(#Clip_26)">
            <path d="M17.197,13.842 L51.674,13.842 L51.674,70.314 L17.197,70.314 z" fill="#FFFFFF"/>
          </g>
          <g clip-path="url(#Clip_27)">
            <path d="M19.839,13.273 L59.612,13.273 L59.612,46.596 L19.839,46.596 z" fill="#FFFFFF"/>
          </g>
          <g clip-path="url(#Clip_28)">
            <path d="M21.935,38.829 L58.777,38.829 L58.777,69.812 L21.935,69.812 z" fill="#FFFFFF"/>
          </g>
          <g clip-path="url(#Clip_29)">
            <path d="M43.877,30.538 L70.779,30.538 L70.779,54.106 L43.877,54.106 z" fill="#FFFFFF"/>
          </g>
        </g>
      </g>
    </g>
  </g>
</svg>
