<?xml version="1.0" encoding="UTF-8"?>
<!DOCTYPE svg PUBLIC "-//W3C//DTD SVG 1.1//EN" "http://www.w3.org/Graphics/SVG/1.1/DTD/svg11.dtd">
<svg version="1.1" xmlns="http://www.w3.org/2000/svg" xmlns:xlink="http://www.w3.org/1999/xlink" x="0" y="0" width="32.478" height="32.478" viewBox="0, 0, 32.478, 32.478">
  <g id="Livello_1">
    <path d="M16.229,-0 C17.331,-0 18.209,0.878 18.209,1.98 L18.209,14.25 L30.498,14.25 C31.581,14.25 32.478,15.146 32.478,16.23 C32.478,17.331 31.581,18.209 30.498,18.209 L18.209,18.209 L18.209,30.498 C18.209,31.581 17.331,32.478 16.229,32.478 C15.146,32.478 14.25,31.581 14.25,30.498 L14.25,18.209 L1.979,18.209 C0.878,18.209 -0,17.331 -0,16.23 C-0,15.146 0.878,14.25 1.979,14.25 L14.25,14.25 L14.25,1.98 C14.25,0.878 15.146,-0 16.229,-0 z" fill="#0073d2"/>
  </g>
</svg>
