<?xml version="1.0" encoding="UTF-8"?>
<!DOCTYPE svg PUBLIC "-//W3C//DTD SVG 1.1//EN" "http://www.w3.org/Graphics/SVG/1.1/DTD/svg11.dtd">
<svg version="1.1" xmlns="http://www.w3.org/2000/svg" xmlns:xlink="http://www.w3.org/1999/xlink" x="0" y="0" width="2000" height="80" viewBox="0, 0, 2000, 80">
  <g id="Background">
    <rect x="0" y="0" width="2000" height="80" fill="#000000" fill-opacity="0"/>
  </g>
  <g id="Livello_1">
    <g opacity="0.604">
      <path d="M1069,-99.092 L1332,178.566 M1025,-99.092 L1288,178.566 M980,-99.092 L1243,178.566 M935,-99.092 L1198,178.566 M890,-99.092 L1153,178.566 M1114,-99.092 L1377,178.566 M1159,-99.092 L1422,178.566 M1204,-99.092 L1467,178.566 M1248,-99.092 L1511,178.566 M1293,-99.092 L1556,178.566 M622,-99.092 L885,178.566 M577,-99.092 L840,178.566 M532,-99.092 L795,178.566 M488,-99.092 L751,178.566 M443,-99.092 L706,178.566 M667,-99.092 L930,178.566 M711,-99.092 L974,178.566 M756,-99.092 L1019,178.566 M801,-99.092 L1064,178.566 M846,-99.092 L1109,178.566 M175,-99.092 L438,178.566 M131,-99.092 L394,178.566 M86,-99.092 L349,178.566 M41,-99.092 L304,178.566 M-4,-99.092 L259,178.566 M220,-99.092 L483,178.566 M265,-99.092 L528,178.566 M310,-99.092 L573,178.566 M354,-99.092 L617,178.566 M399,-99.092 L662,178.566 M-272,-99.092 L-9,178.566 M-317,-99.092 L-54,178.566 M-362,-99.092 L-99,178.566 M-406,-99.092 L-143,178.566 M-451,-99.092 L-188,178.566 M-227,-99.092 L36,178.566 M-183,-99.092 L80,178.566 M-138,-99.092 L125,178.566 M-93,-99.092 L170,178.566 M-48,-99.092 L215,178.566 M1964,-99.092 L2227,178.566 M1920,-99.092 L2183,178.566 M1875,-99.092 L2138,178.566 M1830,-99.092 L2093,178.566 M1785,-99.092 L2048,178.566 M2009,-99.092 L2272,178.566 M2054,-99.092 L2317,178.566 M2099,-99.092 L2362,178.566 M2143,-99.092 L2406,178.566 M2188,-99.092 L2451,178.566 M1517,-99.092 L1780,178.566 M1472,-99.092 L1735,178.566 M1427,-99.092 L1690,178.566 M1383,-99.092 L1646,178.566 M1338,-99.092 L1601,178.566 M1562,-99.092 L1825,178.566 M1606,-99.092 L1869,178.566 M1651,-99.092 L1914,178.566 M1696,-99.092 L1959,178.566 M1741,-99.092 L2004,178.566" fill-opacity="0" stroke="#FFFFFF" stroke-width="11" stroke-linecap="square"/>
    </g>
  </g>
</svg>
