<?xml version="1.0" encoding="UTF-8"?>
<!DOCTYPE svg PUBLIC "-//W3C//DTD SVG 1.1//EN" "http://www.w3.org/Graphics/SVG/1.1/DTD/svg11.dtd">
<svg version="1.1" xmlns="http://www.w3.org/2000/svg" xmlns:xlink="http://www.w3.org/1999/xlink" x="0" y="0" width="145" height="219" viewBox="0, 0, 145, 219">
  <defs>
    <clipPath id="Clip_1">
      <path d="M73.495,114 C74.479,114 75.263,114.785 75.263,115.768 L75.263,126.728 L86.239,126.728 C87.206,126.728 88.007,127.528 88.007,128.496 C88.007,129.48 87.206,130.264 86.239,130.264 L75.263,130.264 L75.263,141.24 C75.263,142.207 74.479,143.008 73.495,143.008 C72.527,143.008 71.727,142.207 71.727,141.24 L71.727,130.264 L60.768,130.264 C59.784,130.264 59,129.48 59,128.496 C59,127.528 59.784,126.728 60.768,126.728 L71.727,126.728 L71.727,115.768 C71.727,114.785 72.527,114 73.495,114 z"/>
    </clipPath>
    <clipPath id="Clip_2">
      <path d="M53.264,217.83 L53.264,181.54 L68.139,179.252 L64.352,159.363 C63.685,155.864 61.303,153.014 57.979,151.735 L48.033,147.909 L41.972,147.83 L41.972,148.959 C41.972,153.315 38.426,156.862 34.069,156.862 C29.713,156.862 26.168,153.318 26.166,148.961 L26.166,147.832 L20.302,147.832 L10.161,151.732 C6.836,153.012 4.455,155.864 3.787,159.361 L-0,179.25 L-0,179.252 L14.876,181.54 L14.876,217.83 L53.264,217.83 z"/>
    </clipPath>
    <clipPath id="Clip_3">
      <path d="M68.139,147.83 L68.139,217.83 L0,217.83 L0,147.83 L68.139,147.83 z"/>
    </clipPath>
    <clipPath id="Clip_4">
      <path d="M53.263,217.83 L53.263,181.54 L68.139,179.252 L64.351,159.363 C63.685,155.864 61.303,153.013 57.979,151.735 L48.033,147.909 L41.973,147.83 L41.973,148.959 C41.973,153.315 38.426,156.862 34.069,156.862 C29.713,156.862 26.169,153.318 26.166,148.961 L26.166,147.832 L20.302,147.832 L10.161,151.732 C6.836,153.011 4.455,155.864 3.788,159.361 L0,179.252 L14.876,181.54 L14.876,217.83 L53.263,217.83 z M34.069,161.378 C27.604,161.378 22.282,156.41 21.708,150.091 L23.971,150.091 C24.537,155.163 28.85,159.12 34.069,159.12 C39.29,159.12 43.604,155.162 44.169,150.088 L46.432,150.088 C45.859,156.408 40.537,161.378 34.069,161.378 z M46.489,215.571 L21.65,215.571 L21.65,179.68 C21.65,174.348 19.056,169.404 14.713,166.342 C13.222,162.432 11.058,158.782 8.297,155.548 C9.052,154.821 9.951,154.232 10.971,153.841 L19.486,150.566 C20.289,157.905 26.52,163.636 34.069,163.636 C41.619,163.636 47.851,157.905 48.654,150.566 L57.17,153.842 C58.188,154.233 59.088,154.821 59.843,155.549 C57.083,158.782 54.918,162.433 53.427,166.343 C49.083,169.403 46.489,174.348 46.489,179.68 L46.489,215.571 z M14.541,174.688 L3.491,172.988 L6.006,159.784 C6.17,158.923 6.482,158.121 6.893,157.383 C11.017,162.353 13.654,168.342 14.541,174.688 z M53.597,174.688 C54.484,168.342 57.121,162.353 61.245,157.383 C61.657,158.121 61.968,158.924 62.131,159.784 L64.647,172.988 L53.597,174.688 z M19.392,215.571 L17.134,215.571 L17.134,179.49 C17.134,176.462 16.755,173.474 16.035,170.583 C18.168,173.093 19.392,176.294 19.392,179.68 L19.392,215.571 z M51.005,215.571 L48.747,215.571 L48.747,179.68 C48.747,176.295 49.971,173.093 52.104,170.583 C51.384,173.474 51.005,176.462 51.005,179.49 L51.005,215.571 z M14.871,179.255 L2.655,177.375 L3.068,175.208 L14.779,177.009 C14.832,177.755 14.866,178.503 14.871,179.255 z M53.269,179.255 C53.273,178.503 53.307,177.755 53.361,177.009 L65.071,175.208 L65.485,177.377 L53.269,179.255 z"/>
    </clipPath>
    <clipPath id="Clip_5">
      <path d="M68.139,147.831 L68.139,217.83 L0,217.83 L0,147.831 L68.139,147.831 z"/>
    </clipPath>
    <clipPath id="Clip_6">
      <path d="M129.172,217.83 L129.172,181.54 L144.048,179.252 L140.26,159.363 C139.594,155.864 137.212,153.014 133.888,151.735 L123.942,147.909 L117.882,147.83 L117.882,148.959 C117.882,153.315 114.335,156.862 109.978,156.862 C105.622,156.862 102.077,153.318 102.075,148.961 L102.075,147.832 L96.211,147.832 L86.07,151.732 C82.745,153.012 80.364,155.864 79.696,159.361 L75.908,179.252 L90.785,181.54 L90.785,217.83 L129.172,217.83 z"/>
    </clipPath>
    <clipPath id="Clip_7">
      <path d="M144.048,147.83 L144.048,217.83 L75.908,217.83 L75.908,147.83 L144.048,147.83 z"/>
    </clipPath>
    <clipPath id="Clip_8">
      <path d="M129.171,217.83 L129.171,181.54 L144.047,179.252 L140.259,159.363 C139.593,155.864 137.211,153.013 133.887,151.735 L123.941,147.909 L117.881,147.83 L117.881,148.959 C117.881,153.315 114.334,156.862 109.977,156.862 C105.621,156.862 102.077,153.318 102.074,148.961 L102.074,147.832 L96.21,147.832 L86.069,151.732 C82.744,153.011 80.363,155.864 79.696,159.361 L75.908,179.252 L90.784,181.54 L90.784,217.83 L129.171,217.83 z M109.977,161.378 C103.512,161.378 98.19,156.41 97.616,150.091 L99.879,150.091 C100.445,155.163 104.758,159.12 109.977,159.12 C115.198,159.12 119.512,155.162 120.077,150.088 L122.34,150.088 C121.767,156.408 116.445,161.378 109.977,161.378 z M122.397,215.571 L97.558,215.571 L97.558,179.68 C97.558,174.348 94.964,169.404 90.621,166.342 C89.13,162.432 86.966,158.782 84.205,155.548 C84.96,154.821 85.859,154.232 86.879,153.841 L95.394,150.566 C96.197,157.905 102.428,163.636 109.977,163.636 C117.527,163.636 123.758,157.905 124.562,150.566 L133.078,153.842 C134.096,154.233 134.996,154.821 135.751,155.549 C132.991,158.782 130.826,162.433 129.335,166.343 C124.991,169.403 122.397,174.348 122.397,179.68 L122.397,215.571 z M90.449,174.688 L79.399,172.988 L81.914,159.784 C82.078,158.923 82.39,158.121 82.801,157.383 C86.925,162.353 89.562,168.342 90.449,174.688 z M129.505,174.688 C130.392,168.342 133.029,162.353 137.153,157.383 C137.565,158.121 137.876,158.924 138.039,159.784 L140.555,172.988 L129.505,174.688 z M95.3,215.571 L93.042,215.571 L93.042,179.49 C93.042,176.462 92.663,173.474 91.943,170.583 C94.076,173.093 95.3,176.294 95.3,179.68 L95.3,215.571 z M126.913,215.571 L124.655,215.571 L124.655,179.68 C124.655,176.295 125.879,173.093 128.012,170.583 C127.292,173.474 126.913,176.462 126.913,179.49 L126.913,215.571 z M90.779,179.255 L78.563,177.375 L78.976,175.208 L90.687,177.009 C90.74,177.755 90.774,178.503 90.779,179.255 z M129.177,179.255 C129.181,178.503 129.215,177.755 129.269,177.009 L140.979,175.208 L141.393,177.377 L129.177,179.255 z"/>
    </clipPath>
    <clipPath id="Clip_9">
      <path d="M144.047,147.831 L144.047,217.83 L75.908,217.83 L75.908,147.831 L144.047,147.831 z"/>
    </clipPath>
    <clipPath id="Clip_10">
      <path d="M43.901,110 L43.901,67.933 C43.888,65.095 45.957,62.643 48.756,62.179 L53.105,61.454 L51.72,78.069 C51.633,78.183 51.557,78.301 51.472,78.416 C51.322,78.62 51.174,78.823 51.033,79.033 C50.891,79.243 50.769,79.436 50.645,79.64 C50.521,79.843 50.382,80.069 50.256,80.288 C50.13,80.508 50.033,80.703 49.928,80.915 C49.823,81.127 49.707,81.364 49.604,81.591 C49.501,81.819 49.409,82.017 49.334,82.233 C49.258,82.447 49.151,82.696 49.069,82.932 C48.988,83.166 48.924,83.366 48.858,83.586 C48.792,83.805 48.716,84.062 48.654,84.303 C48.592,84.543 48.547,84.743 48.499,84.966 C48.45,85.191 48.398,85.452 48.357,85.698 C48.316,85.945 48.287,86.144 48.258,86.368 C48.229,86.594 48.2,86.861 48.178,87.109 C48.157,87.358 48.147,87.556 48.137,87.78 C48.128,88.006 48.12,88.277 48.118,88.525 C48.116,88.773 48.118,88.975 48.133,89.2 C48.149,89.426 48.157,89.695 48.178,89.943 C48.2,90.189 48.221,90.391 48.248,90.616 C48.275,90.842 48.312,91.106 48.353,91.35 C48.394,91.595 48.435,91.799 48.483,92.025 C48.531,92.249 48.588,92.504 48.648,92.742 C48.708,92.982 48.768,93.188 48.842,93.409 C48.916,93.63 48.988,93.881 49.069,94.114 C49.151,94.347 49.229,94.551 49.314,94.768 C49.4,94.986 49.508,95.227 49.6,95.451 C49.691,95.677 49.794,95.881 49.905,96.095 C50.015,96.308 50.13,96.535 50.25,96.753 C50.371,96.971 50.487,97.17 50.614,97.379 C50.74,97.586 50.878,97.802 51.017,98.009 C51.157,98.218 51.295,98.411 51.441,98.61 C51.519,98.716 51.587,98.827 51.668,98.934 L51.668,110 L55.552,110 L55.552,100.191 L90.512,100.191 L90.512,110 L94.396,110 L94.396,98.934 C94.477,98.827 94.545,98.716 94.623,98.61 C94.769,98.415 94.91,98.222 95.046,98.009 C95.182,97.798 95.32,97.59 95.45,97.379 C95.581,97.166 95.699,96.965 95.814,96.753 C95.928,96.541 96.05,96.316 96.159,96.095 C96.268,95.873 96.367,95.669 96.463,95.451 C96.561,95.235 96.658,94.997 96.75,94.768 C96.84,94.539 96.918,94.333 96.994,94.114 C97.069,93.894 97.15,93.646 97.221,93.409 C97.294,93.172 97.35,92.966 97.416,92.742 C97.482,92.52 97.53,92.265 97.581,92.025 C97.631,91.783 97.672,91.575 97.711,91.35 C97.75,91.125 97.784,90.862 97.816,90.616 C97.846,90.371 97.868,90.167 97.886,89.943 C97.903,89.717 97.92,89.449 97.93,89.2 C97.94,88.951 97.945,88.75 97.945,88.525 C97.945,88.299 97.945,88.029 97.926,87.78 C97.907,87.531 97.903,87.332 97.886,87.109 C97.868,86.886 97.837,86.615 97.806,86.368 C97.775,86.122 97.744,85.92 97.707,85.698 C97.67,85.478 97.617,85.209 97.565,84.966 C97.513,84.724 97.466,84.524 97.41,84.303 C97.354,84.081 97.28,83.824 97.206,83.586 C97.132,83.347 97.069,83.149 96.994,82.932 C96.918,82.714 96.823,82.465 96.73,82.233 C96.637,81.999 96.555,81.803 96.46,81.591 C96.365,81.38 96.248,81.139 96.135,80.915 C96.023,80.692 95.922,80.496 95.808,80.288 C95.693,80.08 95.555,79.855 95.419,79.64 C95.283,79.424 95.167,79.234 95.031,79.033 C94.895,78.833 94.741,78.62 94.591,78.416 C94.506,78.301 94.43,78.183 94.343,78.069 L92.958,61.454 L97.307,62.179 C100.107,62.642 102.177,65.094 102.164,67.933 L102.164,110 L106.048,110 L106.048,67.933 C106.067,63.198 102.608,59.111 97.936,58.347 L85.48,56.277 L84.12,56.049 L82.743,55.82 L82.743,47.034 C87.544,44.282 84.364,36.832 84.367,36.832 L63.829,38.533 C64.92,43.959 58.521,44.283 63.322,47.036 L63.322,55.82 L61.942,56.051 L60.582,56.279 L48.126,58.349 C43.456,59.114 39.999,63.2 40.018,67.933 L40.018,110 L43.901,110 z M73.025,71.063 C69.447,71.063 66.338,68.513 65.637,65.004 L64.546,59.553 L65.577,59.38 C66.512,59.228 67.206,58.412 67.207,57.465 L67.207,48.77 C70.992,50.005 75.073,50.005 78.859,48.77 L78.859,57.465 C78.859,58.409 79.549,59.224 80.481,59.38 L81.512,59.553 L80.413,65.004 C79.712,68.513 76.604,71.063 73.025,71.063 z M91.444,96.314 L54.614,96.314 C54.449,96.089 54.286,95.862 54.136,95.629 C53.942,95.337 53.748,95.046 53.592,94.741 C53.399,94.376 53.235,94.001 53.076,93.624 C52.944,93.312 52.806,93.003 52.699,92.685 C52.571,92.296 52.48,91.898 52.387,91.501 C52.313,91.179 52.226,90.86 52.177,90.53 C52.112,90.125 52.095,89.715 52.07,89.306 C52.051,88.981 52.017,88.658 52.021,88.334 C52.021,87.916 52.084,87.501 52.129,87.085 C52.163,86.771 52.178,86.454 52.237,86.144 C52.327,85.716 52.439,85.293 52.571,84.877 C52.656,84.586 52.714,84.295 52.821,84.005 C53.001,83.552 53.206,83.109 53.435,82.679 C53.554,82.44 53.641,82.195 53.775,81.966 C54.159,81.3 54.602,80.668 55.098,80.08 C55.358,79.773 55.519,79.391 55.554,78.988 L57.069,60.802 L60.73,60.19 L61.844,65.766 C62.907,71.082 67.618,74.945 73.041,74.945 C78.463,74.945 83.174,71.082 84.237,65.766 L85.351,60.19 L89.012,60.802 L90.512,78.988 C90.545,79.391 90.702,79.772 90.96,80.08 C91.456,80.668 91.899,81.3 92.283,81.966 C92.417,82.195 92.504,82.44 92.623,82.675 C92.851,83.106 93.057,83.55 93.236,84.003 C93.343,84.289 93.401,84.586 93.487,84.875 C93.619,85.291 93.731,85.714 93.821,86.142 C93.879,86.452 93.894,86.769 93.93,87.083 C93.974,87.499 94.03,87.914 94.036,88.332 C94.036,88.654 94.007,88.977 93.988,89.304 C93.963,89.713 93.945,90.123 93.881,90.529 C93.832,90.854 93.745,91.173 93.671,91.499 C93.578,91.888 93.487,92.294 93.358,92.685 C93.252,93.003 93.114,93.312 92.982,93.624 C92.822,94.001 92.661,94.376 92.465,94.741 C92.302,95.044 92.109,95.337 91.921,95.629 C91.772,95.862 91.608,96.089 91.444,96.314 z"/>
    </clipPath>
    <clipPath id="Clip_11">
      <path d="M106.048,36.832 L106.048,110 L40.018,110 L40.018,36.832 L106.048,36.832 z"/>
    </clipPath>
    <clipPath id="Clip_12">
      <path d="M75.1,-0 C85.906,0.013 94.793,8.9 94.806,19.706 L94.806,24.285 C97.02,25.556 98.39,27.924 98.39,30.477 C98.39,34.396 95.166,37.62 91.247,37.62 L90.824,37.62 C89.817,42.625 86.695,46.958 82.266,49.497 L78.683,51.097 C75.191,52.236 71.426,52.236 67.934,51.097 L64.351,49.497 C61.225,47.707 58.716,45.008 57.157,41.761 C56.861,48.417 51.309,53.734 44.646,53.743 C43.663,53.743 42.854,52.934 42.854,51.952 L42.854,21.497 C42.861,14.758 48.3,9.168 55.036,8.975 C58.662,3.403 64.869,0.023 71.517,-0 L75.1,-0 z"/>
    </clipPath>
    <clipPath id="Clip_13">
      <path d="M81.37,25.08 C82.844,25.08 84.057,26.293 84.057,27.767 C84.057,29.241 82.844,30.454 81.37,30.454 C79.896,30.454 78.683,29.241 78.683,27.767 C78.683,26.293 79.896,25.08 81.37,25.08 z"/>
    </clipPath>
    <clipPath id="Clip_14">
      <path d="M65.248,25.079 C66.722,25.079 67.935,26.292 67.935,27.767 C67.935,29.241 66.722,30.454 65.248,30.454 C63.773,30.454 62.56,29.241 62.56,27.767 C62.56,26.292 63.773,25.079 65.248,25.079 z"/>
    </clipPath>
    <clipPath id="Clip_15">
      <path d="M71.518,35.829 C71.518,36.811 72.327,37.62 73.309,37.62 C74.292,37.62 75.101,36.811 75.101,35.829 L78.684,35.829 C78.684,38.777 76.257,41.203 73.309,41.203 C70.361,41.203 67.935,38.777 67.935,35.829 L71.518,35.829 z"/>
    </clipPath>
    <clipPath id="Clip_16">
      <path d="M75.1,-0 C85.906,0.013 94.793,8.9 94.806,19.706 L94.806,24.285 C97.02,25.557 98.39,27.924 98.39,30.477 C98.39,34.396 95.166,37.62 91.247,37.62 L90.824,37.62 C89.817,42.625 86.695,46.958 82.266,49.497 L78.683,51.098 C75.191,52.236 71.426,52.236 67.934,51.098 L64.351,49.497 C61.225,47.707 58.716,45.008 57.157,41.761 C56.861,48.417 51.309,53.734 44.646,53.743 C43.663,53.743 42.854,52.934 42.854,51.952 L42.854,21.497 C42.861,14.758 48.3,9.168 55.036,8.975 C58.662,3.403 64.869,0.023 71.517,-0 L75.1,-0 z M53.066,12.886 C49.178,13.928 46.45,17.473 46.437,21.497 L46.437,49.981 C50.59,49.128 53.598,45.442 53.603,41.203 L53.603,37.366 C50.455,36.568 48.233,33.713 48.233,30.465 C48.233,27.917 49.6,25.556 51.811,24.288 L51.811,19.706 C51.822,17.376 52.246,15.067 53.066,12.886 z M64.982,13.493 L58.977,25.503 L58.977,34.037 C58.96,39.478 62.06,44.475 66.944,46.875 C70.96,48.83 75.661,48.83 79.677,46.875 C84.56,44.474 87.659,39.478 87.64,34.037 L87.64,26.017 C79.041,23.594 68.984,16.494 64.982,13.493 z M55.394,26.872 C53.429,26.872 51.811,28.489 51.811,30.454 C51.811,32.42 53.429,34.037 55.394,34.037 L55.394,26.872 z M91.223,26.872 L91.223,34.037 C93.188,34.037 94.806,32.42 94.806,30.454 C94.806,28.489 93.188,26.872 91.223,26.872 z M75.1,3.583 L71.517,3.583 C65.821,3.596 60.536,6.614 57.632,11.514 C57.607,11.563 57.583,11.614 57.555,11.662 C56.141,14.107 55.396,16.882 55.394,19.706 L55.394,23.289 L56.078,23.289 L62.739,9.948 C63.042,9.342 63.664,8.958 64.342,8.958 C64.748,8.958 65.143,9.096 65.46,9.35 C65.602,9.463 79.613,20.601 89.824,22.886 C90.311,22.995 90.777,23.085 91.223,23.149 L91.223,19.706 C91.213,10.865 83.941,3.593 75.1,3.583 z"/>
    </clipPath>
  </defs>
  <g id="Layer_1">
    <g clip-path="url(#Clip_1)">
      <path d="M54,109 L93.007,109 L93.007,148.008 L54,148.008 z" fill="#000000"/>
    </g>
    <g clip-path="url(#Clip_3)">
      <g clip-path="url(#Clip_2)">
        <path d="M-5,142.83 L73.14,142.83 L73.14,222.83 L-5,222.83 z" fill="#FFFFFF"/>
      </g>
    </g>
    <g clip-path="url(#Clip_5)">
      <g clip-path="url(#Clip_4)">
        <path d="M-5,142.83 L73.139,142.83 L73.139,222.83 L-5,222.83 z" fill="#000000"/>
      </g>
    </g>
    <g clip-path="url(#Clip_7)">
      <g clip-path="url(#Clip_6)">
        <path d="M70.908,142.83 L149.048,142.83 L149.048,222.83 L70.908,222.83 z" fill="#FFFFFF"/>
      </g>
    </g>
    <g clip-path="url(#Clip_9)">
      <g clip-path="url(#Clip_8)">
        <path d="M70.908,142.83 L149.047,142.83 L149.047,222.83 L70.908,222.83 z" fill="#000000"/>
      </g>
    </g>
    <g clip-path="url(#Clip_11)">
      <g clip-path="url(#Clip_10)">
        <path d="M35.018,31.832 L111.048,31.832 L111.048,115 L35.018,115 z" fill="#000000"/>
      </g>
    </g>
    <g clip-path="url(#Clip_12)">
      <path d="M37.854,-5 L103.39,-5 L103.39,58.743 L37.854,58.743 z" fill="#FFFFFF"/>
    </g>
    <g clip-path="url(#Clip_13)">
      <path d="M73.683,20.08 L89.057,20.08 L89.057,35.454 L73.683,35.454 z" fill="#000000"/>
    </g>
    <g clip-path="url(#Clip_14)">
      <path d="M57.56,20.079 L72.935,20.079 L72.935,35.454 L57.56,35.454 z" fill="#000000"/>
    </g>
    <g clip-path="url(#Clip_15)">
      <path d="M62.935,30.829 L83.684,30.829 L83.684,46.203 L62.935,46.203 z" fill="#000000"/>
    </g>
    <g clip-path="url(#Clip_16)">
      <path d="M37.854,-5 L103.39,-5 L103.39,58.743 L37.854,58.743 z" fill="#000000"/>
    </g>
  </g>
</svg>
