<?xml version="1.0" encoding="UTF-8"?>
<!DOCTYPE svg PUBLIC "-//W3C//DTD SVG 1.1//EN" "http://www.w3.org/Graphics/SVG/1.1/DTD/svg11.dtd">
<svg version="1.1" xmlns="http://www.w3.org/2000/svg" xmlns:xlink="http://www.w3.org/1999/xlink" x="0" y="0" width="109" height="180" viewBox="0, 0, 109, 180">
  <defs>
    <clipPath id="Clip_1">
      <path d="M6.384,180 L6.384,111.162 C6.362,106.519 9.748,102.506 14.329,101.746 L21.444,100.561 L19.178,127.748 C19.035,127.936 18.911,128.129 18.771,128.317 C18.527,128.65 18.286,128.983 18.054,129.327 C17.822,129.671 17.622,129.985 17.418,130.318 C17.215,130.652 16.989,131.021 16.782,131.381 C16.576,131.739 16.417,132.061 16.245,132.407 C16.074,132.753 15.883,133.141 15.715,133.513 C15.546,133.885 15.397,134.208 15.273,134.562 C15.149,134.914 14.974,135.321 14.84,135.706 C14.707,136.09 14.602,136.417 14.494,136.776 C14.386,137.136 14.263,137.555 14.161,137.949 C14.06,138.343 13.986,138.67 13.907,139.035 C13.827,139.401 13.741,139.83 13.675,140.234 C13.607,140.638 13.56,140.962 13.512,141.33 C13.464,141.698 13.417,142.135 13.382,142.541 C13.347,142.948 13.331,143.272 13.315,143.641 C13.3,144.009 13.287,144.451 13.284,144.858 C13.281,145.265 13.284,145.596 13.309,145.964 C13.334,146.332 13.347,146.774 13.382,147.178 C13.417,147.581 13.452,147.912 13.497,148.28 C13.541,148.649 13.601,149.081 13.668,149.481 C13.735,149.882 13.802,150.216 13.881,150.585 C13.96,150.953 14.053,151.369 14.151,151.76 C14.249,152.151 14.348,152.488 14.469,152.851 C14.589,153.213 14.707,153.623 14.84,154.005 C14.974,154.386 15.101,154.719 15.241,155.075 C15.381,155.431 15.559,155.824 15.708,156.193 C15.857,156.562 16.026,156.896 16.208,157.245 C16.388,157.595 16.576,157.967 16.773,158.323 C16.97,158.679 17.161,159.006 17.368,159.347 C17.574,159.687 17.799,160.039 18.028,160.379 C18.257,160.72 18.483,161.036 18.721,161.361 C18.848,161.535 18.959,161.717 19.093,161.892 L19.093,180 L25.449,180 L25.449,163.947 L82.655,163.947 L82.655,180 L89.011,180 L89.011,161.892 C89.144,161.717 89.255,161.535 89.383,161.361 C89.621,161.043 89.853,160.726 90.075,160.379 C90.298,160.032 90.523,159.692 90.736,159.347 C90.95,158.999 91.143,158.669 91.331,158.323 C91.518,157.977 91.719,157.607 91.896,157.245 C92.075,156.883 92.236,156.55 92.395,156.193 C92.554,155.838 92.713,155.45 92.862,155.075 C93.011,154.7 93.139,154.363 93.263,154.005 C93.386,153.645 93.517,153.238 93.634,152.851 C93.752,152.463 93.845,152.126 93.953,151.76 C94.061,151.395 94.141,150.979 94.223,150.585 C94.305,150.19 94.372,149.851 94.436,149.481 C94.5,149.113 94.556,148.682 94.607,148.28 C94.657,147.88 94.693,147.546 94.722,147.178 C94.75,146.809 94.778,146.371 94.794,145.964 C94.81,145.557 94.82,145.227 94.82,144.858 C94.82,144.489 94.82,144.048 94.788,143.641 C94.757,143.233 94.75,142.907 94.722,142.541 C94.693,142.176 94.643,141.733 94.591,141.33 C94.54,140.927 94.49,140.596 94.429,140.234 C94.369,139.872 94.283,139.433 94.197,139.035 C94.111,138.639 94.035,138.312 93.943,137.949 C93.851,137.587 93.73,137.167 93.609,136.776 C93.489,136.386 93.386,136.062 93.263,135.706 C93.139,135.35 92.983,134.943 92.831,134.562 C92.678,134.181 92.544,133.859 92.389,133.513 C92.233,133.167 92.042,132.772 91.858,132.407 C91.674,132.041 91.508,131.721 91.321,131.381 C91.134,131.04 90.908,130.672 90.686,130.318 C90.463,129.967 90.272,129.654 90.05,129.327 C89.827,129 89.576,128.65 89.331,128.317 C89.192,128.129 89.068,127.936 88.925,127.748 L86.659,100.561 L93.774,101.746 C98.357,102.504 101.744,106.518 101.723,111.162 L101.723,180 L108.079,180 L108.079,111.162 C108.11,103.415 102.45,96.727 94.804,95.476 L74.421,92.089 L72.196,91.717 L69.943,91.342 L69.943,76.965 C77.799,72.461 72.595,60.272 72.601,60.272 L38.992,63.054 C40.778,71.933 30.307,72.464 38.164,76.968 L38.164,91.342 L35.904,91.72 L33.679,92.092 L13.297,95.48 C5.654,96.731 -0.002,103.418 0.028,111.162 L0.028,180 L6.384,180 z M54.041,116.285 C48.186,116.285 43.097,112.112 41.952,106.369 L40.166,97.449 L41.853,97.167 C43.383,96.917 44.518,95.583 44.52,94.032 L44.52,79.805 C50.714,81.826 57.393,81.826 63.587,79.805 L63.587,94.032 C63.587,95.579 64.716,96.912 66.241,97.167 L67.928,97.449 L66.129,106.369 C64.984,112.112 59.896,116.285 54.041,116.285 z M84.181,157.605 L23.914,157.605 C23.644,157.235 23.376,156.864 23.132,156.482 C22.814,156.006 22.497,155.529 22.242,155.031 C21.925,154.433 21.658,153.819 21.397,153.203 C21.181,152.691 20.955,152.187 20.781,151.665 C20.57,151.029 20.422,150.378 20.269,149.73 C20.148,149.202 20.005,148.679 19.925,148.141 C19.82,147.477 19.791,146.806 19.751,146.136 C19.719,145.605 19.665,145.077 19.671,144.547 C19.671,143.863 19.773,143.184 19.846,142.503 C19.903,141.988 19.928,141.47 20.024,140.962 C20.171,140.262 20.353,139.57 20.57,138.891 C20.71,138.413 20.806,137.937 20.98,137.463 C21.274,136.721 21.609,135.996 21.984,135.293 C22.179,134.901 22.322,134.501 22.541,134.126 C23.169,133.035 23.894,132.003 24.705,131.04 C25.132,130.536 25.394,129.912 25.452,129.254 L27.931,99.493 L33.921,98.491 L35.745,107.616 C37.484,116.316 45.193,122.638 54.066,122.638 C62.939,122.638 70.648,116.316 72.387,107.616 L74.211,98.491 L80.201,99.493 L82.655,129.254 C82.71,129.911 82.966,130.535 83.389,131.04 C84.2,132.003 84.925,133.035 85.553,134.126 C85.772,134.501 85.915,134.901 86.11,135.286 C86.483,135.991 86.819,136.717 87.114,137.46 C87.288,137.927 87.384,138.413 87.523,138.887 C87.74,139.567 87.923,140.259 88.07,140.958 C88.166,141.467 88.19,141.984 88.248,142.5 C88.321,143.18 88.414,143.859 88.422,144.543 C88.422,145.071 88.375,145.599 88.343,146.133 C88.302,146.803 88.274,147.474 88.168,148.138 C88.089,148.669 87.946,149.192 87.825,149.727 C87.672,150.362 87.523,151.026 87.313,151.665 C87.139,152.187 86.913,152.691 86.697,153.203 C86.437,153.819 86.173,154.433 85.852,155.031 C85.585,155.526 85.27,156.006 84.962,156.482 C84.717,156.864 84.45,157.235 84.181,157.605 z"/>
    </clipPath>
    <clipPath id="Clip_2">
      <path d="M108.079,60.272 L108.079,180 L0.028,180 L0.028,60.272 L108.079,60.272 z"/>
    </clipPath>
    <clipPath id="Clip_3">
      <path d="M57.437,0 C75.119,0.021 89.662,14.564 89.683,32.246 L89.683,39.739 C93.307,41.82 95.548,45.693 95.548,49.873 C95.548,56.284 90.272,61.56 83.86,61.56 L83.165,61.56 C81.519,69.75 76.411,76.841 69.162,80.996 L63.299,83.613 C57.587,85.477 51.425,85.477 45.711,83.613 L39.848,80.996 C34.733,78.066 30.627,73.649 28.075,68.335 C27.592,79.227 18.506,87.928 7.602,87.943 C5.995,87.943 4.672,86.62 4.671,85.011 L4.671,35.177 C4.683,24.149 13.582,15.002 24.604,14.686 C30.54,5.568 40.695,0.038 51.575,0 L57.437,0 z"/>
    </clipPath>
    <clipPath id="Clip_4">
      <path d="M67.697,41.04 C70.109,41.04 72.094,43.025 72.094,45.438 C72.094,47.85 70.109,49.835 67.697,49.835 C65.284,49.835 63.3,47.85 63.3,45.438 C63.3,43.025 65.284,41.04 67.697,41.04 z"/>
    </clipPath>
    <clipPath id="Clip_5">
      <path d="M41.314,41.04 C43.727,41.04 45.711,43.025 45.711,45.437 C45.711,47.849 43.727,49.834 41.314,49.834 C38.902,49.834 36.917,47.849 36.917,45.437 C36.917,43.025 38.902,41.04 41.314,41.04 z"/>
    </clipPath>
    <clipPath id="Clip_6">
      <path d="M51.574,58.629 C51.574,60.237 52.897,61.561 54.505,61.561 C56.113,61.561 57.437,60.237 57.437,58.629 L63.299,58.629 C63.299,63.453 59.33,67.423 54.505,67.423 C49.681,67.423 45.711,63.453 45.711,58.629 L51.574,58.629 z"/>
    </clipPath>
    <clipPath id="Clip_7">
      <path d="M57.437,0 C75.119,0.021 89.662,14.564 89.683,32.246 L89.683,39.739 C93.306,41.82 95.548,45.693 95.548,49.873 C95.548,56.284 90.272,61.56 83.861,61.56 L83.166,61.56 C81.519,69.75 76.41,76.841 69.163,80.996 L63.3,83.613 C57.587,85.477 51.425,85.477 45.712,83.613 L39.848,80.996 C34.733,78.066 30.627,73.649 28.076,68.335 C27.591,79.227 18.506,87.928 7.603,87.943 C5.995,87.943 4.672,86.62 4.672,85.011 L4.672,35.177 C4.683,24.149 13.582,15.002 24.605,14.686 C30.54,5.568 40.695,0.038 51.574,0 L57.437,0 z M21.381,21.086 C15.019,22.791 10.555,28.591 10.534,35.177 L10.534,81.787 C17.329,80.391 22.252,74.36 22.26,67.423 L22.26,61.144 C17.109,59.839 13.472,55.166 13.472,49.851 C13.472,45.681 15.711,41.818 19.329,39.745 L19.329,32.246 C19.345,28.433 20.04,24.655 21.381,21.086 z M40.881,22.08 L31.054,41.732 L31.054,55.697 C31.026,64.601 36.099,72.777 44.09,76.704 C50.663,79.903 58.355,79.903 64.927,76.704 C72.917,72.775 77.988,64.6 77.957,55.697 L77.957,42.573 C63.886,38.607 47.429,26.99 40.881,22.08 z M25.192,43.971 C21.975,43.971 19.329,46.618 19.329,49.835 C19.329,53.051 21.975,55.697 25.192,55.697 L25.192,43.971 z M83.82,43.971 L83.82,55.697 C87.036,55.697 89.683,53.051 89.683,49.835 C89.683,46.618 87.036,43.971 83.82,43.971 z M57.437,5.863 L51.574,5.863 C42.254,5.884 33.606,10.823 28.853,18.841 C28.812,18.923 28.774,19.005 28.727,19.084 C26.414,23.085 25.195,27.625 25.192,32.246 L25.192,38.109 L26.311,38.109 L37.21,16.278 C37.706,15.286 38.724,14.657 39.833,14.657 C40.498,14.657 41.144,14.884 41.663,15.3 C41.895,15.484 64.821,33.712 81.531,37.449 C82.328,37.628 83.09,37.774 83.82,37.881 L83.82,32.246 C83.804,17.779 71.904,5.879 57.437,5.863 z"/>
    </clipPath>
  </defs>
  <g id="Layer_1">
    <g clip-path="url(#Clip_2)">
      <g clip-path="url(#Clip_1)">
        <path d="M-4.972,55.272 L113.08,55.272 L113.08,185 L-4.972,185 z" fill="#000000"/>
      </g>
    </g>
    <g clip-path="url(#Clip_3)">
      <path d="M-0.328,-5 L100.548,-5 L100.548,92.943 L-0.328,92.943 z" fill="#FFFFFF"/>
    </g>
    <g clip-path="url(#Clip_4)">
      <path d="M58.3,36.04 L77.094,36.04 L77.094,54.835 L58.3,54.835 z" fill="#000000"/>
    </g>
    <g clip-path="url(#Clip_5)">
      <path d="M31.917,36.04 L50.711,36.04 L50.711,54.834 L31.917,54.834 z" fill="#000000"/>
    </g>
    <g clip-path="url(#Clip_6)">
      <path d="M40.711,53.629 L68.299,53.629 L68.299,72.423 L40.711,72.423 z" fill="#000000"/>
    </g>
    <g clip-path="url(#Clip_7)">
      <path d="M-0.328,-5 L100.548,-5 L100.548,92.943 L-0.328,92.943 z" fill="#000000"/>
    </g>
  </g>
</svg>
