<?xml version="1.0" encoding="UTF-8"?>
<!DOCTYPE svg PUBLIC "-//W3C//DTD SVG 1.1//EN" "http://www.w3.org/Graphics/SVG/1.1/DTD/svg11.dtd">
<svg version="1.1" xmlns="http://www.w3.org/2000/svg" xmlns:xlink="http://www.w3.org/1999/xlink" x="0" y="0" width="186.139" height="124" viewBox="0, 0, 186.139, 124">
  <defs>
    <clipPath id="Clip_1">
      <path d="M58.381,113 L58.381,81.376 L71.345,79.382 L68.044,62.05 C67.463,59.001 65.388,56.517 62.491,55.403 L53.824,52.069 L48.542,52 L48.542,52.984 C48.542,56.78 45.452,59.871 41.655,59.871 C37.859,59.871 34.77,56.782 34.768,52.986 L34.768,52.002 L29.658,52.002 L20.821,55.4 C17.924,56.516 15.849,59.001 15.267,62.048 L11.966,79.38 L11.966,79.382 L24.93,81.376 L24.93,113 L58.381,113 z"/>
    </clipPath>
    <clipPath id="Clip_2">
      <path d="M71.345,52 L71.345,113 L11.966,113 L11.966,52 L71.345,52 z"/>
    </clipPath>
    <clipPath id="Clip_3">
      <path d="M58.381,113 L58.381,81.376 L71.344,79.382 L68.043,62.05 C67.463,59.001 65.387,56.517 62.491,55.403 L53.823,52.069 L48.543,52 L48.543,52.984 C48.543,56.78 45.452,59.871 41.655,59.871 C37.859,59.871 34.771,56.783 34.768,52.986 L34.768,52.002 L29.658,52.002 L20.821,55.401 C17.923,56.515 15.848,59.001 15.267,62.049 L11.966,79.382 L24.929,81.376 L24.929,113 L58.381,113 z M41.655,63.806 C36.021,63.806 31.383,59.477 30.883,53.971 L32.855,53.971 C33.348,58.39 37.107,61.839 41.655,61.839 C46.205,61.839 49.964,58.39 50.456,53.968 L52.428,53.968 C51.929,59.475 47.291,63.806 41.655,63.806 z M52.478,111.032 L30.833,111.032 L30.833,79.755 C30.833,75.109 28.572,70.8 24.787,68.132 C23.488,64.725 21.602,61.544 19.196,58.726 C19.854,58.092 20.638,57.579 21.527,57.238 L28.947,54.385 C29.647,60.78 35.076,65.774 41.655,65.774 C48.234,65.774 53.665,60.78 54.365,54.385 L61.786,57.239 C62.673,57.58 63.457,58.092 64.115,58.727 C61.71,61.544 59.823,64.726 58.524,68.133 C54.738,70.8 52.478,75.109 52.478,79.755 L52.478,111.032 z M24.638,75.405 L15.008,73.924 L17.2,62.417 C17.343,61.667 17.615,60.968 17.973,60.325 C21.567,64.656 23.865,69.875 24.638,75.405 z M58.672,75.405 C59.445,69.875 61.743,64.656 65.337,60.325 C65.696,60.968 65.967,61.668 66.109,62.417 L68.301,73.924 L58.672,75.405 z M28.865,111.032 L26.897,111.032 L26.897,79.59 C26.897,76.951 26.567,74.347 25.939,71.828 C27.798,74.015 28.865,76.805 28.865,79.755 L28.865,111.032 z M56.413,111.032 L54.446,111.032 L54.446,79.755 C54.446,76.806 55.512,74.015 57.371,71.828 C56.744,74.347 56.413,76.951 56.413,79.59 L56.413,111.032 z M24.925,79.385 L14.28,77.747 L14.64,75.858 L24.845,77.428 C24.891,78.078 24.921,78.73 24.925,79.385 z M58.386,79.385 C58.39,78.73 58.419,78.078 58.466,77.428 L68.671,75.858 L69.032,77.748 L58.386,79.385 z"/>
    </clipPath>
    <clipPath id="Clip_4">
      <path d="M71.344,52 L71.344,113 L11.966,113 L11.966,52 L71.344,52 z"/>
    </clipPath>
    <clipPath id="Clip_5">
      <path d="M161.21,113 L161.21,81.376 L174.173,79.382 L170.872,62.05 C170.292,59.001 168.216,56.517 165.32,55.403 L156.652,52.069 L151.371,52 L151.371,52.984 C151.371,56.78 148.281,59.871 144.484,59.871 C140.688,59.871 137.599,56.782 137.597,52.986 L137.597,52.002 L132.487,52.002 L123.65,55.4 C120.752,56.516 118.677,59.001 118.095,62.048 L114.795,79.38 L114.795,79.382 L127.758,81.376 L127.758,113 L161.21,113 z"/>
    </clipPath>
    <clipPath id="Clip_6">
      <path d="M174.173,52 L174.173,113 L114.795,113 L114.795,52 L174.173,52 z"/>
    </clipPath>
    <clipPath id="Clip_7">
      <path d="M161.21,113 L161.21,81.376 L174.173,79.382 L170.872,62.05 C170.292,59.001 168.216,56.517 165.319,55.403 L156.652,52.069 L151.371,52 L151.371,52.984 C151.371,56.78 148.28,59.871 144.483,59.871 C140.687,59.871 137.599,56.783 137.596,52.986 L137.596,52.002 L132.486,52.002 L123.649,55.401 C120.752,56.515 118.677,59.001 118.096,62.049 L114.795,79.382 L127.758,81.376 L127.758,113 L161.21,113 z M144.483,63.806 C138.85,63.806 134.212,59.477 133.712,53.971 L135.684,53.971 C136.177,58.39 139.935,61.839 144.483,61.839 C149.033,61.839 152.792,58.39 153.285,53.968 L155.257,53.968 C154.758,59.475 150.12,63.806 144.483,63.806 z M155.307,111.032 L133.661,111.032 L133.661,79.755 C133.661,75.109 131.401,70.8 127.616,68.132 C126.317,64.725 124.431,61.544 122.025,58.726 C122.683,58.092 123.466,57.579 124.355,57.238 L131.775,54.385 C132.475,60.78 137.905,65.774 144.483,65.774 C151.063,65.774 156.493,60.78 157.193,54.385 L164.614,57.239 C165.501,57.58 166.286,58.092 166.944,58.727 C164.538,61.544 162.652,64.726 161.353,68.133 C157.567,70.8 155.307,75.109 155.307,79.755 L155.307,111.032 z M127.466,75.405 L117.837,73.924 L120.028,62.417 C120.171,61.667 120.443,60.968 120.801,60.325 C124.395,64.656 126.693,69.875 127.466,75.405 z M161.501,75.405 C162.274,69.875 164.572,64.656 168.165,60.325 C168.524,60.968 168.795,61.668 168.937,62.417 L171.13,73.924 L161.501,75.405 z M131.693,111.032 L129.726,111.032 L129.726,79.59 C129.726,76.951 129.395,74.347 128.768,71.828 C130.627,74.015 131.693,76.805 131.693,79.755 L131.693,111.032 z M159.242,111.032 L157.274,111.032 L157.274,79.755 C157.274,76.806 158.341,74.015 160.2,71.828 C159.572,74.347 159.242,76.951 159.242,79.59 L159.242,111.032 z M127.754,79.385 L117.108,77.747 L117.468,75.858 L127.674,77.428 C127.72,78.078 127.749,78.73 127.754,79.385 z M161.215,79.385 C161.218,78.73 161.248,78.078 161.295,77.428 L171.499,75.858 L171.86,77.748 L161.215,79.385 z"/>
    </clipPath>
    <clipPath id="Clip_8">
      <path d="M174.173,52 L174.173,113 L114.795,113 L114.795,52 L174.173,52 z"/>
    </clipPath>
    <clipPath id="Clip_9">
      <path d="M127.07,124 L127.07,59.715 L153.422,55.662 L146.712,20.43 C145.532,14.232 141.312,9.183 135.424,6.917 L117.806,0.14 L107.069,0 L107.069,2 C107.069,9.716 100.787,16 93.069,16 C85.353,16 79.073,9.722 79.07,2.003 L79.07,0.004 L68.682,0.004 L50.718,6.912 C44.828,9.18 40.61,14.232 39.427,20.426 L32.718,55.658 L32.718,55.662 L59.07,59.715 L59.07,124 L127.07,124 z"/>
    </clipPath>
    <clipPath id="Clip_10">
      <path d="M153.422,-0 L153.422,124 L32.718,124 L32.718,-0 L153.422,-0 z"/>
    </clipPath>
    <clipPath id="Clip_11">
      <path d="M127.069,124.001 L127.069,59.716 L153.421,55.663 L146.711,20.431 C145.531,14.232 141.312,9.182 135.423,6.918 L117.805,0.141 L107.07,0.001 L107.07,2.001 C107.07,9.717 100.787,16 93.068,16 C85.352,16 79.074,9.722 79.069,2.004 L79.069,0.004 L68.681,0.004 L50.717,6.913 C44.827,9.178 40.609,14.232 39.428,20.427 L32.718,55.663 L59.069,59.716 L59.069,124.001 L127.069,124.001 z M93.068,24 C81.616,24 72.189,15.2 71.172,4.006 L75.181,4.006 C76.183,12.991 83.823,20 93.068,20 C102.317,20 109.959,12.989 110.96,4.001 L114.969,4.001 C113.954,15.196 104.526,24 93.068,24 z M115.07,119.999 L71.069,119.999 L71.069,56.421 C71.069,46.975 66.474,38.218 58.781,32.793 C56.139,25.867 52.306,19.401 47.415,13.673 C48.753,12.385 50.345,11.341 52.152,10.649 L67.236,4.847 C68.658,17.848 79.696,28 93.068,28 C106.443,28 117.482,17.848 118.905,4.847 L133.99,10.651 C135.794,11.343 137.388,12.385 138.725,13.674 C133.836,19.401 130.001,25.869 127.36,32.795 C119.665,38.216 115.07,46.975 115.07,56.421 L115.07,119.999 z M58.476,47.578 L38.902,44.566 L43.357,21.176 C43.647,19.651 44.2,18.23 44.928,16.923 C52.233,25.727 56.905,36.336 58.476,47.578 z M127.661,47.578 C129.232,36.336 133.903,25.727 141.209,16.923 C141.939,18.23 142.49,19.653 142.778,21.176 L147.235,44.566 L127.661,47.578 z M67.069,119.999 L63.069,119.999 L63.069,56.084 C63.069,50.72 62.398,45.427 61.122,40.306 C64.901,44.752 67.069,50.423 67.069,56.421 L67.069,119.999 z M123.069,119.999 L119.069,119.999 L119.069,56.421 C119.07,50.424 121.238,44.752 125.016,40.306 C123.741,45.427 123.069,50.72 123.069,56.084 L123.069,119.999 z M59.061,55.668 L37.421,52.338 L38.152,48.499 L58.898,51.689 C58.991,53.011 59.052,54.336 59.061,55.668 z M127.08,55.668 C127.087,54.336 127.147,53.011 127.243,51.689 L147.986,48.499 L148.72,52.341 L127.08,55.668 z"/>
    </clipPath>
    <clipPath id="Clip_12">
      <path d="M153.421,0.001 L153.421,124 L32.718,124 L32.718,0.001 L153.421,0.001 z"/>
    </clipPath>
  </defs>
  <g id="Livello_1">
    <g>
      <g>
        <g clip-path="url(#Clip_2)">
          <g clip-path="url(#Clip_1)">
            <path d="M7.609,47.643 L75.702,47.643 L75.702,117.357 L7.609,117.357 z" fill="#FFFFFF"/>
          </g>
        </g>
        <g clip-path="url(#Clip_4)">
          <g clip-path="url(#Clip_3)">
            <path d="M7.609,47.643 L75.702,47.643 L75.702,117.357 L7.609,117.357 z" fill="#000000"/>
          </g>
        </g>
      </g>
      <g>
        <g clip-path="url(#Clip_6)">
          <g clip-path="url(#Clip_5)">
            <path d="M110.437,47.643 L178.531,47.643 L178.531,117.357 L110.437,117.357 z" fill="#FFFFFF"/>
          </g>
        </g>
        <g clip-path="url(#Clip_8)">
          <g clip-path="url(#Clip_7)">
            <path d="M110.438,47.643 L178.53,47.643 L178.53,117.357 L110.438,117.357 z" fill="#000000"/>
          </g>
        </g>
      </g>
    </g>
    <g>
      <g clip-path="url(#Clip_10)">
        <g clip-path="url(#Clip_9)">
          <path d="M23.86,-8.857 L162.279,-8.857 L162.279,132.857 L23.86,132.857 z" fill="#FFFFFF"/>
        </g>
      </g>
      <g clip-path="url(#Clip_12)">
        <g clip-path="url(#Clip_11)">
          <path d="M23.86,-8.856 L162.278,-8.856 L162.278,132.858 L23.86,132.858 z" fill="#000000"/>
        </g>
      </g>
    </g>
  </g>
</svg>
