<?xml version="1.0" encoding="UTF-8"?>
<!DOCTYPE svg PUBLIC "-//W3C//DTD SVG 1.1//EN" "http://www.w3.org/Graphics/SVG/1.1/DTD/svg11.dtd">
<svg version="1.1" xmlns="http://www.w3.org/2000/svg" xmlns:xlink="http://www.w3.org/1999/xlink" x="0" y="0" width="32" height="32" viewBox="0, 0, 32, 32">
  <defs>
    <clipPath id="Clip_1">
      <path d="M3.2,0.049 C4.339,0.505 3.898,0.22 4.596,0.777 L16.009,12.203 L27.423,0.777 C28.459,-0.259 30.162,-0.259 31.223,0.777 C32.259,1.839 32.259,3.542 31.223,4.578 L19.802,16.001 L31.223,27.433 C32.259,28.471 32.259,30.173 31.223,31.21 C30.68,31.753 30.014,32 29.323,32 C28.632,32 27.941,31.753 27.423,31.21 L16.009,19.795 L4.596,31.21 C4.054,31.753 3.362,32 2.696,32 C2.005,32 1.314,31.753 0.796,31.21 C-0.265,30.173 -0.265,28.471 0.796,27.433 L12.216,16.001 L0.796,4.578 C-0.265,3.542 -0.265,1.839 0.796,0.777 C1.599,0.011 2.167,0.049 3.2,0.049 z"/>
    </clipPath>
  </defs>
  <g id="Layer_1">
    <g clip-path="url(#Clip_1)">
      <path d="M-5,-5 L37,-5 L37,37 L-5,37 z" fill="#979797"/>
    </g>
  </g>
</svg>
