<svg xmlns="http://www.w3.org/2000/svg" xmlns:xlink="http://www.w3.org/1999/xlink" width="57" height="42" viewBox="0 0 57 42">
    <defs>
        <path id="prefix__a" d="M50.263 6.85h-8.65l-.78-2.932-.086-.326C40.055 1.474 37.98.008 35.643.008H19.465c-2.336 0-4.412 1.466-5.104 3.584l-.865 3.258H4.845C2.163 6.85 0 8.968 0 11.412v25.006c0 2.525 2.25 4.561 4.845 4.561H50.35c2.682 0 4.845-2.117 4.845-4.561V11.493c0-2.525-2.25-4.643-4.932-4.643zM52.6 36.418c0 1.14-1.038 2.118-2.249 2.118H4.845c-1.211 0-2.25-.978-2.25-2.118V11.493c0-1.14 1.039-2.118 2.25-2.118h10.727l1.298-4.887v-.244c.432-1.06 1.47-1.71 2.595-1.71h16.178c1.124 0 2.25.732 2.595 1.71l1.384 5.131h10.641c1.298 0 2.336.978 2.336 2.118v24.925z"/>
    </defs>
    <g fill="none" fill-rule="evenodd" transform="translate(.5)">
        <g>
            <path fill="#FFF" d="M6.478 6.692L13.252 7.127 14.252 4.836 16.352 0.108 22.887 0 27.736 0.159 36.556 0.521 39.082 4.139 40.308 7.013 49.851 6.905 52.969 9.444 53.064 23.838 52.672 36.207 50.582 38.841 22.923 38.727 6.422 38.701 0.316 36.469 0 31.573 0.014 11.047 1.489 7.404z" transform="translate(1.068 1.425)"/>
            <path stroke="#000" stroke-linecap="round" stroke-linejoin="round" d="M6.478 6.692L13.252 7.127 14.252 4.836 16.352 0.108 22.887 0 27.736 0.159 36.556 0.521 39.082 4.139 40.308 7.013 49.851 6.905 52.969 9.444 53.064 23.838 52.672 36.207 50.582 38.841 22.923 38.727 6.422 38.701 0.316 36.469 0 31.573 0.014 11.047 1.489 7.404z" transform="translate(1.068 1.425)"/>
        </g>
        <mask id="prefix__b" fill="#fff">
            <use xlink:href="#prefix__a"/>
        </mask>
        <path fill="#333" d="M-2.307 43.143L57.502 43.143 57.502 -2.156 -2.307 -2.156z" mask="url(#prefix__b)"/>
        <ellipse cx="47.508" cy="14.343" fill="#D8D8D8" rx="2.867" ry="2.869"/>
        <g transform="translate(16.382 11.884)">
            <ellipse cx="11.467" cy="11.474" fill="#FFF" stroke="#333" stroke-width="2" rx="11.467" ry="11.474"/>
            <path fill="#0073d2" d="M10.995 10.592v-4.18c0-.376.305-.675.674-.675.375 0 .674.3.674.675v4.18h4.184c.369 0 .674.305.674.674 0 .376-.305.675-.674.675h-4.184v4.186c0 .37-.299.675-.674.675-.369 0-.674-.306-.674-.675v-4.186H6.817c-.375 0-.674-.3-.674-.675 0-.369.3-.674.674-.674h4.178z"/>
        </g>
    </g>
</svg>
